# Blender 4.1.1
# www.blender.org
mtllib Mushroom.mtl
o Mushroom
v 6.685370 -0.047343 6.545726
v 6.685370 0.743799 6.545726
v 6.685370 -0.047343 6.340512
v 6.685370 0.743799 6.340512
v 6.890584 -0.047343 6.545726
v 6.890584 0.743799 6.545726
v 6.890584 -0.047343 6.340512
v 6.890584 0.743799 6.340512
v 6.672789 0.433206 5.864032
v 6.788648 0.928760 6.442801
v 6.787977 0.588821 6.443119
v 7.143646 0.538761 5.929385
v 7.310754 0.452910 6.125651
v 7.402739 0.538761 6.554890
v 7.224761 0.534526 6.879902
v 6.932753 0.535020 7.053894
v 6.458465 0.535020 6.977374
v 6.247558 0.472761 6.760074
v 6.176301 0.531611 6.305022
v 6.432309 0.538760 5.929384
v 6.873995 0.472761 5.822543
v 7.373424 0.435543 6.559572
v 7.106407 0.434281 6.944047
v 6.658930 0.434281 7.022493
v 6.208891 0.433205 6.558306
v 6.291660 0.435542 6.111490
v 7.120976 0.723623 6.110121
v 7.153335 0.756516 6.687243
v 6.605812 0.728403 6.872197
v 6.337478 0.722095 6.515801
v 6.545508 0.750483 6.068849
v -1.494591 -0.091006 0.513753
v -1.494591 1.429779 0.513753
v -1.494591 -0.091006 0.119275
v -1.494591 1.429779 0.119275
v -1.100114 -0.091006 0.513753
v -1.100114 1.429779 0.513753
v -1.100114 -0.091006 0.119275
v -1.100114 1.429779 0.119275
v -1.309757 0.836556 -0.805417
v -1.327632 1.751305 0.163476
v -1.189681 1.757300 0.388134
v -1.435679 1.738405 0.420410
v -1.297352 1.131870 0.316514
v -1.082501 1.035641 -0.865219
v -0.457739 1.027502 -0.523100
v -0.121185 1.028459 0.082559
v -0.280863 1.021754 0.979972
v -1.043618 1.035641 1.490513
v -1.751748 1.027502 1.413522
v -2.316481 1.021898 0.960226
v -2.480095 1.029792 0.069617
v -1.959095 1.029792 -0.694393
v -0.866829 0.837723 -0.722862
v -0.353663 0.832736 -0.314040
v -0.172339 0.837723 0.316514
v -0.353663 0.832736 0.947068
v -0.856548 0.836556 1.348296
v -1.297352 0.837723 1.441527
v -1.927906 0.832736 1.260204
v -2.329135 0.836556 0.757318
v -2.419283 0.836556 0.328918
v -2.338628 0.836556 -0.101371
v -2.099448 0.836556 -0.468040
v -1.738156 0.836556 -0.715268
v -0.964169 1.381703 -0.487861
v -0.550181 1.383964 -0.150554
v -0.442294 1.390416 0.504293
v -0.825515 1.390416 1.053911
v -1.457268 1.393387 1.168498
v -1.912994 1.381703 0.932156
v -2.163331 1.388059 0.456230
v -2.022174 1.388115 -0.167796
v -1.499669 1.388059 -0.537013
v 0.063550 -0.074244 3.166625
v 0.063550 1.166446 3.166625
v 0.063550 -0.074244 2.844801
v 0.063550 1.166446 2.844801
v 0.385374 -0.074244 3.166625
v 0.385374 1.166446 3.166625
v 0.385374 -0.074244 2.844801
v 0.385374 1.166446 2.844801
v 0.224462 0.683434 2.087903
v 0.252888 1.419232 3.143608
v 0.094220 1.425375 2.979835
v 0.307354 1.434315 2.943071
v 0.224462 0.923405 3.005713
v 0.775371 0.839078 2.181217
v 1.184006 0.839040 2.814848
v 1.055397 0.845055 3.537298
v 0.417340 0.827347 3.975380
v -0.306415 0.844899 3.829335
v -0.670502 0.838259 3.376420
v -0.733313 0.844899 2.798712
v -0.460514 0.838259 2.320737
v 0.017460 0.844899 2.047939
v 0.738881 0.679365 2.235830
v 1.142575 0.683030 2.823089
v 1.066213 0.682482 3.365332
v 0.738881 0.679365 3.775597
v 0.063730 0.681052 3.922587
v -0.424528 0.683434 3.654704
v -0.683678 0.679365 3.186354
v -0.623485 0.683434 2.654482
v -0.289958 0.679365 2.235829
v 0.610984 1.136756 2.413480
v 0.931144 1.132706 2.865145
v 0.714991 1.139742 3.540629
v 0.071267 1.134333 3.703289
v -0.359276 1.136756 3.404950
v -0.482023 1.132410 2.891731
v -0.277793 1.127225 2.503458
v 0.099044 1.134333 2.302613
v 0.519073 -0.064590 -3.219906
v 0.519073 1.014764 -3.219906
v 0.519073 -0.064590 -3.499881
v 0.519073 1.014764 -3.499881
v 0.799047 -0.064590 -3.219906
v 0.799047 1.014764 -3.219906
v 0.799047 -0.064590 -3.499881
v 0.799047 1.014764 -3.499881
v 0.816211 0.591022 -4.149940
v 0.585402 1.247191 -3.416592
v 0.699337 1.263554 -3.328781
v 0.659060 0.803327 -3.359894
v 0.826858 0.719760 -4.203466
v 1.254963 0.729254 -3.955796
v 1.493827 0.729933 -3.525939
v 1.437645 0.729254 -3.037393
v 1.160424 0.729927 -2.665630
v 0.659061 0.729254 -2.517160
v 0.175931 0.730879 -2.651417
v -0.174167 0.735030 -3.179811
v -0.119524 0.729254 -3.682394
v 0.197217 0.735030 -4.076412
v 1.215885 0.593733 -3.929170
v 1.457784 0.594210 -3.518770
v 1.328830 0.591022 -2.912368
v 0.964618 0.594561 -2.622213
v 0.501911 0.591021 -2.569847
v -0.003835 0.592489 -2.894749
v -0.139400 0.594561 -3.359894
v -0.010708 0.591021 -3.807421
v 0.353503 0.594561 -4.097575
v 0.995320 0.988935 -3.875114
v 1.273847 0.985411 -3.482183
v 1.163776 0.985154 -2.995413
v 0.650391 1.001335 -2.744442
v 0.065477 0.987238 -3.114024
v 0.149394 0.986826 -3.715261
v 0.549954 0.986827 -3.971564
v 4.462182 -0.080892 1.571073
v 4.462182 1.270888 1.571073
v 4.462182 -0.080892 1.220433
v 4.462182 1.270888 1.220433
v 4.812821 -0.080892 1.571073
v 4.812821 1.270888 1.571073
v 4.812821 -0.080892 1.220433
v 4.812821 1.270888 1.220433
v 4.675279 1.546363 1.249214
v 4.749167 1.555601 1.480926
v 4.521806 1.561703 1.408729
v 4.637501 1.006086 1.395753
v 4.828476 0.920550 0.345346
v 5.535822 0.914208 0.795515
v 5.682962 0.914167 1.603710
v 5.383809 0.913316 2.142061
v 4.808330 0.914159 2.454576
v 4.045296 0.914167 2.282052
v 3.662404 0.913316 1.799652
v 3.592363 0.908334 1.159795
v 4.049299 0.915351 0.497188
v 5.020181 0.744627 0.471882
v 5.476320 0.740194 0.835273
v 5.634753 0.743590 1.384728
v 5.561372 0.744627 1.778433
v 5.197982 0.740194 2.234571
v 4.462378 0.742033 2.394722
v 3.930402 0.744627 2.102854
v 3.648048 0.740194 1.592567
v 3.781593 0.742033 0.851668
v 4.417007 0.742033 0.405808
v 4.804412 1.235900 0.635718
v 5.273507 1.238540 0.960769
v 5.407460 1.234127 1.548908
v 5.052666 1.230164 2.059891
v 4.487946 1.242696 2.147624
v 4.090276 1.228155 1.942979
v 3.867759 1.233804 1.519940
v 4.103051 1.241793 0.812941
v -8.221864 -0.047343 5.023452
v -8.221864 0.743799 5.023452
v -8.221864 -0.047343 4.818237
v -8.221864 0.743799 4.818237
v -8.016649 -0.047343 5.023452
v -8.016649 0.743799 5.023452
v -8.016649 -0.047343 4.818237
v -8.016649 0.743799 4.818237
v -8.016764 0.434281 4.336189
v -8.118587 0.928760 4.920527
v -8.119257 0.588821 4.920845
v -8.119257 0.534526 4.303140
v -7.751769 0.535020 4.411964
v -7.499571 0.535020 4.820865
v -7.600542 0.535024 5.267438
v -7.995899 0.535049 5.541008
v -8.447750 0.480693 5.455905
v -8.730033 0.535020 5.065619
v -8.729597 0.473795 4.773005
v -8.454128 0.531611 4.390674
v -7.633369 0.434282 4.579905
v -7.535606 0.435193 4.914392
v -7.622940 0.435542 5.252473
v -8.004069 0.433205 5.499931
v -8.605145 0.434281 5.261785
v -8.610184 0.433206 4.592818
v -8.348573 0.435193 4.384091
v -7.657296 0.732550 4.920845
v -8.038472 0.750483 5.359414
v -8.504674 0.719997 5.174883
v -8.538773 0.726771 4.725414
v -8.038472 0.750483 4.482276
v 6.386650 -0.047343 -3.055477
v 6.386650 0.743799 -3.055477
v 6.386650 -0.047343 -3.260692
v 6.386650 0.743799 -3.260692
v 6.591865 -0.047343 -3.055477
v 6.591865 0.743799 -3.055477
v 6.591865 -0.047343 -3.260692
v 6.591865 0.743799 -3.260692
v 6.489929 0.928760 -3.158403
v 6.489257 0.588821 -3.158085
v 6.624232 0.538860 -3.772439
v 7.007972 0.535024 -3.504679
v 7.106962 0.534526 -3.158085
v 7.002992 0.538760 -2.802417
v 6.605768 0.531536 -2.537459
v 6.152087 0.479860 -2.626559
v 5.875635 0.542455 -3.036029
v 5.881969 0.470112 -3.308449
v 6.154387 0.531611 -3.688256
v 6.591751 0.434282 -3.742741
v 6.903095 0.435800 -3.571922
v 7.068344 0.433205 -3.273272
v 6.985575 0.435542 -2.826456
v 6.604445 0.433205 -2.578999
v 6.003370 0.434281 -2.817144
v 5.998332 0.433205 -3.486111
v 6.259943 0.435193 -3.694838
v 6.874674 0.719996 -3.412125
v 6.930574 0.724867 -3.065331
v 6.743296 0.719996 -2.772667
v 6.386221 0.719965 -2.711426
v 6.076557 0.738380 -2.987139
v 6.105649 0.723321 -3.403544
v 6.475707 0.732598 -3.614947
v -2.849015 -0.047343 -7.330313
v -2.849015 0.743799 -7.330313
v -2.849015 -0.047343 -7.535528
v -2.849015 0.743799 -7.535528
v -2.643800 -0.047343 -7.330313
v -2.643800 0.743799 -7.330313
v -2.643800 -0.047343 -7.535528
v -2.643800 0.743799 -7.535528
v -2.745737 0.928760 -7.433239
v -2.746408 0.588821 -7.432920
v -2.227693 0.535024 -7.779516
v -2.234139 0.531611 -7.071257
v -2.614412 0.538761 -6.822184
v -3.075921 0.535020 -6.898666
v -3.357184 0.535020 -7.577695
v -2.852901 0.531611 -8.050884
v -2.643914 0.434282 -8.017577
v -2.419141 0.473839 -7.968830
v -2.167321 0.433205 -7.548109
v -2.125832 0.472761 -7.346903
v -2.405468 0.434282 -6.947033
v -2.862860 0.435543 -6.847474
v -3.237334 0.433205 -7.104893
v -3.356749 0.473796 -7.285081
v -3.237334 0.433205 -7.760947
v -3.103131 0.467985 -7.940299
v -2.571814 0.728403 -7.865135
v -2.292920 0.735788 -7.415763
v -2.506859 0.722095 -7.044528
v -2.943810 0.730494 -7.018463
v -3.202313 0.729147 -7.432920
v -3.013565 0.722096 -7.802866
v -10.314726 -0.047343 -3.707897
v -10.314726 0.743799 -3.707897
v -10.314726 -0.047343 -3.913112
v -10.314726 0.743799 -3.913112
v -10.109511 -0.047343 -3.707897
v -10.109511 0.743799 -3.707897
v -10.109511 -0.047343 -3.913112
v -10.109511 0.743799 -3.913112
v -10.211448 0.928760 -3.810822
v -10.212119 0.588821 -3.810504
v -10.082256 0.531536 -4.428475
v -9.693404 0.535024 -4.157098
v -9.591495 0.531536 -3.693991
v -9.864530 0.542455 -3.290301
v -10.212119 0.534526 -3.192799
v -10.579608 0.535020 -3.301625
v -10.823985 0.535024 -3.688796
v -10.816980 0.467421 -3.951504
v -10.559707 0.542455 -4.330710
v -10.096931 0.433206 -4.389592
v -9.715801 0.435543 -4.142134
v -9.633033 0.433206 -3.695316
v -9.880490 0.435543 -3.314187
v -10.327306 0.433206 -3.231417
v -10.708437 0.435542 -3.478876
v -10.703046 0.433205 -4.138530
v -10.436086 0.435800 -4.351209
v -9.969142 0.719965 -4.199197
v -9.761495 0.722284 -3.900140
v -9.842175 0.722095 -3.543348
v -10.212120 0.729147 -3.354600
v -10.582064 0.722096 -3.543348
v -10.662745 0.722284 -3.900139
v -10.378881 0.733956 -4.229710
v 12.488580 0.054396 -1.816926
v 12.488580 0.779314 -1.816926
v 12.488580 0.054396 -2.004963
v 12.488580 0.779314 -2.004963
v 12.676616 0.054396 -1.816926
v 12.676616 0.779314 -1.816926
v 12.676616 0.054396 -2.004963
v 12.676616 0.779314 -2.004963
v 12.583220 0.970325 -1.911253
v 12.582605 0.658841 -1.910962
v 12.695638 0.609569 -2.479214
v 13.044176 0.560409 -2.250370
v 13.151280 0.606352 -1.804202
v 12.908502 0.612971 -1.440230
v 12.671468 0.553444 -1.342441
v 12.256709 0.612971 -1.440231
v 12.022130 0.606420 -1.784423
v 12.025141 0.548344 -2.031781
v 12.688151 0.516252 -2.441575
v 13.113218 0.516252 -2.016508
v 13.041603 0.517238 -1.619187
v 12.464361 0.517238 -1.380085
v 12.132772 0.516252 -1.610393
v 12.132772 0.516252 -2.211529
v 12.268198 0.564200 -2.394953
v 12.932808 0.779036 -2.148154
v 12.960487 0.793505 -1.737422
v 12.582605 0.787421 -1.493219
v 12.243628 0.780959 -1.666168
v 12.192693 0.793505 -2.055453
v 12.564267 0.785243 -2.334627
vn 0.0747 0.8804 -0.4683
vn 0.4672 0.8808 -0.0764
vn 0.1095 0.8821 0.4582
vn -0.3669 0.8930 0.2605
vn -0.4313 0.8906 -0.1442
vn -0.1558 -0.9746 0.1607
vn -0.2529 -0.9675 -0.0022
vn 0.2817 -0.9503 0.1323
vn -0.2209 -0.9626 -0.1566
vn 0.2675 -0.9625 0.0445
vn 0.2301 -0.9503 0.2096
vn -0.0468 -0.9625 -0.2672
vn 0.1435 -0.9625 0.2301
vn 0.0649 -0.9677 -0.2437
vn -0.4424 -0.5895 -0.6758
vn -0.7655 -0.6269 -0.1451
vn -0.4581 -0.6315 0.6256
vn 0.1364 -0.6132 0.7780
vn 0.4117 -0.6526 -0.6360
vn -0.1067 0.5861 -0.8032
vn -0.6478 0.6292 -0.4295
vn -0.8450 0.4974 0.1966
vn -0.1330 0.5499 0.8246
vn 0.3794 0.6731 0.6349
vn 0.7140 0.5756 0.3985
vn 0.7538 0.5043 -0.4213
vn 0.0536 0.8810 -0.4700
vn 0.2806 0.8935 -0.3504
vn 0.4495 0.8894 -0.0828
vn 0.3897 0.8799 0.2717
vn 0.0849 0.8916 0.4449
vn -0.2312 0.8860 0.4020
vn -0.4131 0.8814 0.2291
vn -0.2745 0.8795 -0.3887
vn -0.2521 -0.9644 -0.0801
vn -0.1705 -0.9644 0.2023
vn 0.2171 -0.9658 0.1416
vn 0.0801 -0.9644 -0.2521
vn -0.2521 -0.9644 0.0801
vn 0.0534 -0.9658 0.2536
vn 0.2035 -0.9643 -0.1697
vn 0.2548 -0.9658 0.0478
vn -0.0449 -0.9660 0.2548
vn -0.0560 -0.9660 -0.2526
vn 0.1464 -0.9658 0.2139
vn -0.1697 -0.9643 -0.2035
vn 0.2536 -0.9658 -0.0534
vn -0.4935 -0.4863 -0.7211
vn -0.8588 -0.4863 -0.1610
vn -0.6645 -0.5307 0.5262
vn 0.1835 -0.4514 0.8733
vn 0.8281 -0.5093 -0.2341
vn 0.1646 -0.4514 -0.8770
vn -0.1617 0.5633 -0.8103
vn -0.6824 0.5637 -0.4653
vn -0.8172 0.5552 0.1550
vn -0.0930 0.6046 0.7911
vn 0.4694 0.5558 0.6861
vn 0.8199 0.5526 0.1500
vn 0.7039 0.5923 -0.3921
vn 0.0926 0.8898 -0.4469
vn 0.3916 0.8797 -0.2697
vn -0.1084 -0.9652 -0.2378
vn 0.1139 0.8699 0.4798
vn -0.4633 0.8802 0.1033
vn -0.4131 0.8814 -0.2291
vn -0.2228 0.8951 -0.3863
vn -0.2601 -0.9649 -0.0376
vn 0.2023 -0.9644 0.1705
vn 0.0801 -0.9644 0.2521
vn 0.2350 -0.9644 -0.1216
vn -0.2035 -0.9643 -0.1697
vn 0.2636 -0.9644 0.0225
vn -0.0801 -0.9644 0.2521
vn -0.0601 -0.9624 -0.2649
vn -0.2206 -0.9625 0.1577
vn 0.1233 -0.9645 -0.2333
vn -0.2346 -0.5062 -0.8299
vn -0.8624 -0.4960 -0.1014
vn -0.4156 -0.5103 0.7529
vn 0.1596 -0.6529 0.7404
vn 0.6708 -0.5174 0.5313
vn -0.6251 0.6046 0.4937
vn -0.1517 0.5543 0.8184
vn 0.4687 0.5334 0.7042
vn 0.3665 0.8957 -0.2517
vn 0.4557 0.8841 0.1035
vn 0.2303 0.8805 0.4144
vn -0.2597 0.8890 0.3772
vn -0.4772 0.8762 -0.0672
vn -0.2543 0.8817 -0.3974
vn -0.2642 -0.9625 -0.0612
vn -0.1231 -0.9643 0.2346
vn 0.0225 -0.9644 0.2636
vn 0.2521 -0.9644 0.0801
vn -0.0225 -0.9644 -0.2636
vn -0.2259 -0.9649 0.1343
vn 0.1705 -0.9644 0.2023
vn 0.1448 -0.9624 -0.2298
vn -0.1705 -0.9644 -0.2023
vn 0.2522 -0.9645 -0.0778
vn -0.5381 -0.4960 -0.6815
vn -0.8262 -0.5103 0.2385
vn -0.4288 -0.6118 0.6647
vn 0.5207 -0.5414 0.6602
vn -0.1518 0.5536 -0.8188
vn -0.6307 0.5949 -0.4983
vn -0.6986 0.5420 0.4671
vn -0.2074 0.6232 0.7540
vn 0.2198 0.6295 0.7452
vn 0.6385 0.6055 0.4751
vn 0.3888 0.6047 -0.6952
vn 0.2655 0.8816 -0.3903
vn 0.4447 0.8907 -0.0946
vn 0.3972 0.8731 0.2826
vn 0.0899 0.8876 0.4518
vn -0.2270 0.8979 0.3772
vn -0.4058 0.8858 0.2253
vn -0.4630 0.8746 -0.1442
vn -0.1107 0.8772 -0.4672
vn -0.2548 -0.9660 -0.0449
vn -0.2529 -0.9643 0.0789
vn -0.2023 -0.9644 -0.1705
vn 0.2677 -0.9624 0.0459
vn -0.0246 -0.9645 0.2628
vn 0.1558 -0.9625 0.2220
vn -0.4514 -0.6185 -0.6433
vn -0.7730 -0.6186 -0.1409
vn -0.4148 -0.5132 0.7514
vn 0.1676 -0.6070 0.7768
vn 0.8739 -0.4576 0.1641
vn 0.0958 -0.5103 -0.8546
vn -0.6834 0.5626 -0.4653
vn -0.8044 0.5882 0.0835
vn -0.1810 0.5714 0.8005
vn 0.3866 0.5882 0.7103
vn 0.3748 0.8807 -0.2897
vn 0.3745 0.8809 0.2895
vn -0.2170 0.8900 0.4011
vn -0.4506 0.8914 0.0476
vn -0.2377 0.8838 -0.4030
vn -0.2547 -0.9649 -0.0648
vn -0.1455 -0.9625 0.2289
vn 0.1553 -0.9621 0.2241
vn -0.2530 -0.9644 0.0766
vn 0.0350 -0.9647 0.2611
vn 0.1098 -0.9516 0.2871
vn 0.1697 -0.9643 0.2035
vn 0.2958 -0.9552 -0.0114
vn 0.2145 -0.9676 -0.1329
vn -0.5262 -0.5306 -0.6645
vn -0.7427 -0.6557 0.1361
vn -0.1303 -0.3619 0.9231
vn 0.8205 -0.5195 -0.2384
vn 0.4237 -0.6133 -0.6666
vn -0.1936 0.6683 -0.7183
vn -0.7463 0.4753 -0.4659
vn -0.8033 0.5828 -0.1231
vn -0.6719 0.4912 0.5543
vn -0.2171 0.6037 0.7671
vn 0.4431 0.6273 0.6404
vn 0.8114 0.5550 0.1834
vn 0.2330 0.5677 -0.7895
vn 0.2267 0.8923 -0.3904
vn 0.4328 0.8977 -0.0824
vn 0.3633 0.8982 0.2475
vn 0.0747 0.8967 0.4362
vn -0.2646 0.8958 0.3571
vn -0.4389 0.8963 -0.0631
vn -0.2379 0.8951 -0.3772
vn -0.2675 -0.9625 -0.0445
vn -0.1233 -0.9645 0.2333
vn 0.1414 -0.9595 -0.2435
vn 0.1182 -0.9540 0.2756
vn -0.2350 -0.9644 0.1216
vn 0.2995 -0.9541 -0.0056
vn 0.2200 -0.9675 -0.1249
vn -0.5262 -0.5307 -0.6645
vn -0.7730 -0.6174 0.1460
vn -0.1356 -0.3840 0.9133
vn 0.7511 -0.5093 -0.4200
vn -0.1557 0.5485 -0.8215
vn -0.7451 0.4871 -0.4556
vn -0.6560 0.5416 0.5257
vn -0.2213 0.5097 0.8314
vn 0.4593 0.5426 0.7033
vn 0.7664 0.6046 0.2169
vn 0.3874 0.8859 -0.2550
vn 0.3718 0.8948 0.2473
vn 0.0439 0.8930 0.4478
vn -0.3888 0.8896 0.2396
vn -0.3912 0.8944 -0.2166
vn -0.0754 0.8926 -0.4445
vn -0.2096 -0.9503 0.2301
vn 0.1093 -0.9561 0.2719
vn -0.0288 -0.9676 0.2507
vn -0.1532 -0.9677 -0.2003
vn 0.2153 -0.9670 0.1365
vn -0.0601 -0.9626 -0.2640
vn -0.2488 -0.9670 0.0555
vn 0.2852 -0.9581 0.0276
vn -0.1735 -0.6313 -0.7559
vn -0.7525 -0.6449 -0.1338
vn -0.4439 -0.6155 0.6513
vn 0.1688 -0.5983 0.7833
vn 0.6532 -0.6462 0.3946
vn 0.6392 -0.6285 -0.4433
vn -0.4511 0.5423 -0.7088
vn -0.8176 0.5634 0.1191
vn -0.1374 0.5834 0.8005
vn 0.4603 0.5627 0.6866
vn 0.8037 0.5618 0.1958
vn 0.8520 0.5078 -0.1275
vn 0.4832 0.5629 -0.6706
vn 0.2244 0.4800 -0.8481
vn 0.0634 0.8950 -0.4416
vn 0.3604 0.8966 -0.2572
vn 0.4311 0.8970 0.0979
vn 0.2168 0.8942 0.3916
vn -0.2166 0.8945 0.3911
vn -0.4300 0.8975 0.0977
vn -0.3548 0.8939 -0.2739
vn -0.1435 -0.9625 0.2301
vn -0.2675 -0.9625 0.0445
vn -0.2301 -0.9625 -0.1435
vn -0.0512 -0.9670 0.2497
vn -0.0445 -0.9625 -0.2675
vn 0.1435 -0.9625 -0.2301
vn 0.2214 -0.9682 -0.1162
vn -0.5390 -0.4935 -0.6826
vn -0.7776 -0.6137 0.1372
vn -0.4318 -0.6155 0.6593
vn -0.1523 0.5698 -0.8076
vn -0.8300 0.5345 -0.1597
vn -0.6997 0.5615 0.4417
vn -0.2212 0.6235 0.7499
vn 0.1972 0.6267 0.7539
vn 0.6958 0.5552 0.4556
vn 0.8219 0.5415 -0.1768
vn 0.4743 0.5509 -0.6867
vn 0.2170 0.8908 -0.3992
vn 0.4467 0.8926 -0.0615
vn 0.2375 0.8898 0.3897
vn -0.4371 0.8953 0.0860
vn -0.2631 0.8882 -0.3765
vn -0.1113 -0.9651 -0.2372
vn 0.4342 0.8895 0.1423
vn 0.1353 -0.9582 0.2521
vn -0.2713 -0.9602 -0.0668
vn 0.3127 -0.9497 -0.0174
vn -0.2048 -0.9676 -0.1474
vn 0.2198 -0.9669 -0.1298
vn -0.1435 -0.3603 -0.9217
vn -0.0000 -0.0000 1.0000
vn -0.7502 -0.6456 0.1425
vn -0.4623 -0.5830 0.6681
vn 0.4265 -0.6265 0.6524
vn 0.7539 -0.6424 0.1375
vn 0.4755 -0.3616 -0.8019
vn -0.2180 0.5178 -0.8272
vn -0.7457 0.4634 -0.4788
vn -0.8238 0.5496 -0.1391
vn -0.6880 0.5627 0.4582
vn -0.1296 0.5019 0.8552
vn 0.1817 0.5805 0.7937
vn 0.6993 0.5501 0.4565
vn -1.0000 -0.0000 -0.0000
vn 1.0000 -0.0000 -0.0000
vn -0.0000 -1.0000 -0.0000
vn -0.0000 1.0000 -0.0000
vn -0.0000 -0.0000 -1.0000
vn 0.7777 -0.4005 0.4847
vn -0.2198 0.1001 -0.9704
vn -0.8199 0.1359 -0.5562
vn -0.9803 0.1056 0.1672
vn -0.1580 0.1242 0.9796
vn 0.5110 -0.0544 0.8578
vn -0.6097 0.6660 0.4297
vn 0.9495 -0.2764 -0.1482
vn -0.6013 0.7648 -0.2313
vn 0.7126 0.6810 -0.1684
vn 0.1537 0.8021 0.5771
vn 0.0892 0.7113 -0.6972
vn -0.4278 0.8974 -0.1078
vn 0.3375 0.9124 -0.2316
vn -0.0149 0.9081 0.4184
vn -0.1948 -0.0937 -0.9763
vn -0.0741 0.9971 0.0189
vn -0.8271 -0.0820 -0.5561
vn -0.9775 -0.0964 0.1875
vn -0.1787 -0.2890 0.9405
vn -0.6249 -0.0481 0.7792
vn 0.5719 -0.1915 0.7976
vn 0.9566 -0.2000 0.2120
vn 0.5250 -0.2890 -0.8006
vn 0.8729 -0.0541 -0.4850
vn -0.4326 0.6509 0.6239
vn -0.3884 0.7395 -0.5497
vn -0.6560 0.7401 -0.1483
vn -0.6146 0.7152 0.3328
vn 0.4154 0.6566 -0.6295
vn 0.1236 0.7390 0.6623
vn 0.5526 0.7391 0.3853
vn 0.6708 0.7323 -0.1177
vn 0.0716 0.7238 -0.6863
vn -0.2637 0.8978 0.3528
vn -0.7889 -0.3115 -0.5297
vn -0.1061 0.9133 -0.3932
vn -0.0303 0.9973 0.0668
vn -0.4939 -0.0669 -0.8670
vn -0.7914 -0.2890 0.5387
vn -0.9931 -0.0462 0.1074
vn 0.9718 -0.1747 0.1583
vn -0.1937 0.1167 0.9741
vn 0.5605 0.1098 0.8208
vn 0.7943 -0.3011 -0.5276
vn 0.2114 -0.1712 -0.9623
vn -0.3714 0.6620 -0.6510
vn -0.6502 0.6651 -0.3671
vn -0.7286 0.6734 0.1253
vn 0.7019 0.6925 0.1666
vn -0.3809 0.7390 0.5557
vn 0.1566 0.7481 0.6448
vn 0.6330 0.6486 -0.4226
vn 0.1462 0.6437 -0.7512
vn 0.1065 0.9040 -0.4140
vn -0.1621 -0.2038 -0.9655
vn -0.3178 0.9169 0.2416
vn -0.9405 -0.2890 -0.1787
vn -0.7782 -0.0462 -0.6263
vn 0.1967 -0.2855 0.9380
vn -0.8282 0.1095 0.5496
vn -0.2674 -0.0625 0.9616
vn 0.9021 -0.4041 0.1511
vn 0.7983 -0.0899 0.5955
vn 0.8310 -0.2893 -0.4751
vn 0.4676 -0.3360 -0.8176
vn -0.7020 0.7062 -0.0921
vn -0.3615 0.7417 -0.5650
vn 0.7241 0.6785 0.1241
vn -0.3453 0.7835 0.5166
vn 0.3092 0.7506 0.5840
vn 0.6248 0.6761 -0.3906
vn 0.1417 0.7287 -0.6700
vn 0.0438 0.9976 -0.0538
vn -0.7914 -0.3012 0.5320
vn 0.3894 0.9070 -0.1603
vn -0.0995 0.9152 0.3906
vn -0.2424 0.9155 -0.3212
vn -0.1908 0.1095 -0.9755
vn -0.8186 0.1123 -0.5633
vn -0.9929 -0.0481 0.1091
vn 0.7943 -0.3012 0.5276
vn -0.2194 0.1035 0.9701
vn 0.4767 -0.0426 0.8780
vn 0.9584 -0.1876 -0.2152
vn 0.5635 -0.1712 -0.8082
vn -0.1584 0.6818 -0.7142
vn -0.6248 0.6574 0.4213
vn -0.6274 0.7525 -0.2003
vn 0.6228 0.6775 0.3913
vn -0.3418 0.7117 0.6137
vn 0.1196 0.7376 0.6646
vn 0.7466 0.6486 -0.1482
vn 0.4225 0.6437 -0.6381
vn -0.1875 -0.3232 -0.9276
vn 0.5320 -0.3011 0.7914
vn -0.8139 0.1249 -0.5675
vn -0.7846 0.1816 0.5928
vn 0.9547 -0.1896 0.2292
vn 0.5424 0.7443 -0.3896
vn 0.8445 0.1242 -0.5209
vn 0.2839 -0.0258 -0.9585
vn -0.2979 0.7900 -0.5359
vn -0.6507 0.7569 0.0608
vn -0.3037 0.6941 0.6526
vn 0.4714 0.7972 0.3771
vn -0.1589 -0.1696 -0.9726
vn 0.5259 -0.3070 0.7932
vn -0.8153 0.1374 -0.5625
vn -0.7943 0.2131 0.5689
vn 0.8963 -0.3897 0.2118
vn 0.5224 -0.1994 -0.8290
vn 0.9601 -0.0541 -0.2743
vn -0.7274 0.6750 -0.1231
vn -0.3413 0.7516 -0.5645
vn 0.7192 0.6749 -0.1649
vn -0.4737 0.6657 0.5765
vn 0.1133 0.7420 0.6608
vn 0.5597 0.7412 0.3705
vn 0.3834 0.6904 -0.6135
vn -0.6358 0.6287 -0.4479
vn -0.8059 0.1013 -0.5834
vn -0.8116 0.1354 0.5684
vn -0.1628 0.1530 0.9747
vn 0.5465 0.0993 0.8315
vn 0.9726 0.0836 -0.2170
vn 0.1964 0.0875 -0.9766
vn -0.1019 0.7560 -0.6466
vn -0.6545 0.6476 0.3902
vn 0.0534 0.7576 0.6505
vn 0.5592 0.7515 0.3500
vn 0.5236 0.7822 -0.3378
vn -0.1647 -0.1746 -0.9708
vn 0.2078 -0.3990 0.8931
vn -0.8316 0.1513 -0.5343
vn -0.8370 0.1426 0.5283
vn -0.2837 -0.0426 0.9580
vn 0.7957 -0.2883 0.5326
vn 0.9301 -0.3138 -0.1908
vn 0.5322 -0.3138 -0.7863
vn -0.6512 0.6322 -0.4199
vn -0.6595 0.7367 0.1495
vn -0.3120 0.7498 0.5835
vn 0.3049 0.7637 0.5691
vn 0.6534 0.7424 0.1481
vn 0.5533 0.7361 -0.3899
vn 0.0744 0.7521 -0.6548
vn 0.7574 0.6321 -0.1637
vn -0.8084 0.2564 -0.5298
vn -0.8249 0.0703 0.5609
vn -0.2041 0.1638 0.9652
vn 0.8266 0.1228 0.5492
vn 0.9521 0.1800 -0.2471
vn -0.4132 0.7093 -0.5710
vn -0.6506 0.7515 0.1093
vn -0.3097 0.7544 0.5788
vn 0.3309 0.7797 0.5315
vn 0.4168 0.6526 -0.6327
vn 0.1744 -0.9604 -0.2173
vt 0.704840 0.236696
vt 0.676516 0.311829
vt 0.603528 0.267452
vt 0.618183 0.373809
vt 0.724782 0.384368
vt 0.764539 0.309347
vt 0.768311 0.988115
vt 0.677575 0.937126
vt 0.805031 0.803510
vt 0.620426 0.804544
vt 0.909602 0.647008
vt 0.975996 0.733857
vt 0.676086 0.671383
vt 0.975189 0.875111
vt 0.876670 0.973652
vt 0.807281 0.618904
vt 0.874400 0.113362
vt 0.745281 0.153123
vt 0.676757 0.028442
vt 0.835840 0.242573
vt 0.961339 0.312806
vt 0.787480 0.575412
vt 0.795011 0.442901
vt 0.876651 0.398375
vt 0.569997 0.578127
vt 0.669009 0.489714
vt 0.549171 0.192290
vt 0.437797 0.220954
vt 0.591144 0.113114
vt 0.576181 0.463088
vt 0.512191 0.378752
vt 0.674619 0.292835
vt 0.623727 0.239531
vt 0.677294 0.225049
vt 0.591556 0.284104
vt 0.662760 0.327144
vt 0.594461 0.351364
vt 0.644478 0.397758
vt 0.710088 0.396316
vt 0.698438 0.324286
vt 0.751882 0.363378
vt 0.764539 0.309347
vt 0.737417 0.250119
vt 0.620426 0.840230
vt 0.634067 0.733857
vt 0.673736 0.933286
vt 0.989637 0.840230
vt 0.961532 0.908080
vt 0.768311 0.618904
vt 0.876669 0.633367
vt 0.909602 0.960011
vt 0.841752 0.988115
vt 0.961532 0.698939
vt 0.989637 0.766789
vt 0.700460 0.647008
vt 0.740931 0.151327
vt 0.731937 0.029991
vt 0.836407 0.073194
vt 0.836972 0.245296
vt 0.916426 0.153099
vt 0.959780 0.257589
vt 0.839496 0.376944
vt 0.959760 0.370719
vt 0.878534 0.515300
vt 0.672637 0.489711
vt 0.731447 0.595299
vt 0.619032 0.598406
vt 0.499921 0.314331
vt 0.394260 0.370187
vt 0.410900 0.206090
vt 0.610956 0.150954
vt 0.516221 0.075889
vt 0.618903 0.030028
vt 0.775013 0.462918
vt 0.550065 0.437033
vt 0.526609 0.214874
vt 0.659524 0.306141
vt 0.612087 0.251572
vt 0.672153 0.225137
vt 0.586374 0.315720
vt 0.634082 0.733820
vt 0.733393 0.633367
vt 0.841751 0.618904
vt 0.676165 0.339022
vt 0.712646 0.395205
vt 0.631865 0.388592
vt 0.695736 0.304830
vt 0.758558 0.281749
vt 0.758030 0.347799
vt 0.724668 0.237803
vt 0.634082 0.873199
vt 0.620426 0.766789
vt 0.934807 0.934805
vt 0.975996 0.733857
vt 0.673736 0.673733
vt 0.735378 0.974474
vt 0.802782 0.618904
vt 0.678333 0.138686
vt 0.619523 0.033098
vt 0.783527 0.049629
vt 0.836485 0.244125
vt 0.913827 0.154848
vt 0.961339 0.312806
vt 0.797576 0.440334
vt 0.913841 0.473448
vt 0.781083 0.578062
vt 0.675624 0.489708
vt 0.564962 0.577740
vt 0.434543 0.475298
vt 0.548892 0.435863
vt 0.851062 0.348992
vt 0.666288 0.323482
vt 0.612087 0.251572
vt 0.615948 0.380592
vt 0.695143 0.398101
vt 0.759859 0.329851
vt 0.687356 0.300738
vt 0.736114 0.248860
vt 0.672153 0.225137
vt 0.634874 0.875111
vt 0.634067 0.733857
vt 0.803957 0.988115
vt 0.700461 0.960011
vt 0.975173 0.875148
vt 0.806106 0.618904
vt 0.933976 0.671383
vt 0.739760 0.150843
vt 0.731336 0.033065
vt 0.876572 0.111085
vt 0.851050 0.317053
vt 0.956709 0.258209
vt 0.936778 0.426150
vt 0.800902 0.437004
vt 0.786126 0.577671
vt 0.602334 0.473889
vt 0.619634 0.595333
vt 0.472498 0.515413
vt 0.608198 0.152099
vt 0.824228 0.214632
vt 0.710531 0.489678
vt 0.526742 0.413765
vt 0.663702 0.292041
vt 0.592940 0.280598
vt 0.638323 0.233192
vt 0.661676 0.331165
vt 0.593739 0.349702
vt 0.645390 0.398118
vt 0.710985 0.395926
vt 0.693384 0.312430
vt 0.764539 0.309346
vt 0.718976 0.239910
vt 0.673736 0.933286
vt 0.675255 0.672214
vt 0.976445 0.872077
vt 0.877755 0.973202
vt 0.802782 0.618904
vt 0.740931 0.151327
vt 0.678882 0.030008
vt 0.878867 0.115593
vt 0.835840 0.242573
vt 0.961339 0.312806
vt 0.799687 0.438220
vt 0.913841 0.473448
vt 0.781083 0.578063
vt 0.682239 0.489703
vt 0.567442 0.578768
vt 0.513338 0.381512
vt 0.437142 0.473549
vt 0.391189 0.370807
vt 0.610956 0.150954
vt 0.516221 0.075889
vt 0.675720 0.312320
vt 0.591754 0.332589
vt 0.643724 0.237731
vt 0.678222 0.396961
vt 0.758602 0.346348
vt 0.744100 0.262205
vt 0.634082 0.733820
vt 0.807281 0.988115
vt 0.676086 0.935636
vt 0.975173 0.875148
vt 0.975173 0.875148
vt 0.932487 0.669894
vt 0.738207 0.150201
vt 0.731937 0.029991
vt 0.876572 0.111085
vt 0.851051 0.320683
vt 0.879573 0.232837
vt 0.935501 0.428456
vt 0.675624 0.489708
vt 0.810705 0.473209
vt 0.676896 0.599955
vt 0.499923 0.320950
vt 0.391189 0.370807
vt 0.414190 0.202247
vt 0.546607 0.194857
vt 0.569887 0.050334
vt 0.640439 0.138719
vt 0.551461 0.438426
vt 0.659553 0.229568
vt 0.676312 0.311571
vt 0.592367 0.282048
vt 0.594128 0.350599
vt 0.643334 0.397307
vt 0.713546 0.394814
vt 0.760179 0.329674
vt 0.738720 0.251378
vt 0.634889 0.875148
vt 0.807281 0.988115
vt 0.934807 0.672214
vt 0.803996 0.618904
vt 0.975173 0.875148
vt 0.933976 0.671383
vt 0.738206 0.150201
vt 0.731937 0.029991
vt 0.876572 0.111085
vt 0.851049 0.314065
vt 0.879015 0.232653
vt 0.936779 0.426150
vt 0.677595 0.489707
vt 0.812819 0.470187
vt 0.674213 0.599955
vt 0.437129 0.154948
vt 0.513258 0.247139
vt 0.389632 0.312904
vt 0.604846 0.153490
vt 0.553577 0.440537
vt 0.499933 0.349259
vt 0.673342 0.315675
vt 0.592208 0.335486
vt 0.627073 0.243414
vt 0.645891 0.398315
vt 0.728112 0.382296
vt 0.759834 0.296100
vt 0.711275 0.232524
vt 0.634889 0.875148
vt 0.672905 0.674564
vt 0.670679 0.138692
vt 0.569887 0.050335
vt 0.754163 0.100178
vt 0.895198 0.311066
vt 0.835092 0.240773
vt 0.876573 0.111085
vt 0.782491 0.575769
vt 0.795012 0.442900
vt 0.939040 0.424786
vt 0.672637 0.489711
vt 0.563597 0.575481
vt 0.554766 0.441724
vt 0.474344 0.398583
vt 0.517815 0.161068
vt 0.513258 0.247139
vt 0.389632 0.312904
vt 0.689712 0.229207
vt 0.675559 0.316310
vt 0.613347 0.250268
vt 0.586374 0.315720
vt 0.615948 0.380592
vt 0.693580 0.398531
vt 0.757166 0.349987
vt 0.757231 0.278694
vt 0.675227 0.934777
vt 0.620426 0.802435
vt 0.675227 0.672242
vt 0.803957 0.988115
vt 0.806105 0.618904
vt 0.936299 0.673705
vt 0.742520 0.151983
vt 0.731336 0.033065
vt 0.876572 0.111085
vt 0.937134 0.421169
vt 0.851049 0.314065
vt 0.886809 0.234464
vt 0.804363 0.433540
vt 0.786125 0.577670
vt 0.606377 0.152854
vt 0.608449 0.476414
vt 0.512581 0.379691
vt 0.513258 0.247139
vt 0.673171 0.315844
vt 0.592794 0.280967
vt 0.660750 0.229234
vt 0.606877 0.365982
vt 0.693580 0.398531
vt 0.757166 0.349987
vt 0.747977 0.267733
vt 0.735378 0.632545
vt 0.975174 0.875148
vt 0.634889 0.875148
vt 0.633617 0.734942
vt 0.934807 0.672214
vt 0.741623 0.121629
vt 0.608198 0.152099
vt 0.564845 0.050726
vt 0.011165 0.402266
vt 0.099503 0.402266
vt 0.099503 0.990034
vt 0.011165 0.990034
vt 0.851051 0.318735
vt 0.888225 0.235683
vt 0.939039 0.424785
vt 0.789785 0.574140
vt 0.801798 0.436107
vt 0.605688 0.475274
vt 0.672558 0.533816
vt 0.472102 0.512803
vt 0.512581 0.379690
vt 0.389633 0.312903
vt 0.487766 0.216269
vt 0.276179 0.402266
vt 0.364517 0.402266
vt 0.364517 0.990034
vt 0.276179 0.990034
vt 0.187841 0.402266
vt 0.187841 0.990034
vt 0.420206 0.799283
vt 0.420206 0.656210
vt 0.563279 0.656210
vt 0.563279 0.799283
vt 0.420206 0.959917
vt 0.420206 0.816844
vt 0.563279 0.816844
vt 0.563279 0.959917
vt 0.413836 0.421261
vt 0.472498 0.515413
vt 0.774788 0.165308
vt 0.392778 0.315517
vt 0.499921 0.314331
vt 0.474335 0.111199
vt 0.551283 0.190176
vt 0.564844 0.050726
vt 0.392780 0.312959
vt 0.434520 0.153215
vt 0.410900 0.206090
vt 0.513258 0.247139
vt 0.474761 0.513226
vt 0.569887 0.050335
vt 0.474762 0.513226
vt 0.564844 0.050727
vt 0.568578 0.575833
vt 0.411933 0.424899
vt 0.414816 0.204866
vt 0.876572 0.111086
vt 0.809387 0.618904
s 0
f 31/1/1 10/2/1 27/3/1
f 10/2/2 28/4/2 27/3/2
f 28/4/3 10/2/3 29/5/3
f 29/5/4 10/2/4 30/6/4
f 30/6/5 10/2/5 31/1/5
f 21/7/6 13/8/6 11/9/6
f 13/8/7 22/10/7 11/9/7
f 18/11/8 25/12/8 11/9/8
f 22/10/9 23/13/9 11/9/9
f 25/12/10 26/14/10 11/9/10
f 9/15/11 21/7/11 11/9/11
f 23/13/12 24/16/12 11/9/12
f 26/14/13 9/15/13 11/9/13
f 24/16/14 18/11/14 11/9/14
f 26/17/15 20/18/15 9/19/15
f 19/20/16 26/17/16 25/21/16
f 24/22/17 17/23/17 18/24/17
f 23/25/18 16/26/18 24/22/18
f 12/27/19 13/28/19 21/29/19
f 31/1/20 21/29/20 20/18/20
f 31/1/21 20/18/21 19/20/21
f 18/24/22 30/6/22 19/20/22
f 29/5/23 17/23/23 16/26/23
f 28/4/24 16/26/24 15/30/24
f 28/4/25 15/30/25 14/31/25
f 12/27/26 27/3/26 13/28/26
f 41/32/27 66/33/27 74/34/27
f 66/33/28 41/32/28 67/35/28
f 42/36/29 68/37/29 67/35/29
f 42/36/30 69/38/30 68/37/30
f 42/36/31 70/39/31 69/38/31
f 43/40/32 71/41/32 70/39/32
f 71/41/33 43/40/33 72/42/33
f 41/32/34 74/34/34 73/43/34
f 56/44/35 57/45/35 44/9/35
f 54/7/36 55/46/36 44/9/36
f 63/47/37 64/48/37 44/9/37
f 59/49/38 60/50/38 44/9/38
f 55/46/39 56/44/39 44/9/39
f 65/51/40 40/52/40 44/9/40
f 60/50/41 61/53/41 44/9/41
f 62/54/42 63/47/42 44/9/42
f 40/52/43 54/7/43 44/9/43
f 58/55/44 59/49/44 44/9/44
f 64/48/45 65/51/45 44/9/45
f 57/45/46 58/55/46 44/9/46
f 61/53/47 62/54/47 44/9/47
f 53/56/48 65/57/48 64/58/48
f 52/59/49 63/60/49 62/61/49
f 51/62/50 61/63/50 60/64/50
f 49/65/51 59/66/51 58/67/51
f 47/68/52 56/69/52 55/70/52
f 45/71/53 54/72/53 40/73/53
f 74/34/54 45/71/54 53/56/54
f 73/43/55 53/56/55 52/59/55
f 72/42/56 52/59/56 51/62/56
f 70/39/57 50/74/57 49/65/57
f 69/38/58 49/65/58 48/75/58
f 68/37/59 48/75/59 47/68/59
f 46/76/60 67/35/60 47/68/60
f 86/77/61 106/78/61 113/79/61
f 86/77/62 107/80/62 106/78/62
f 245/81/63 246/82/63 238/83/63 232/9/63
f 84/84/64 109/85/64 108/86/64
f 85/87/65 111/88/65 110/89/65
f 85/87/66 112/90/66 111/88/66
f 85/87/67 113/79/67 112/90/67
f 98/91/68 99/92/68 87/9/68
f 104/47/69 105/93/69 87/9/69
f 105/93/70 83/52/70 87/9/70
f 102/11/71 103/94/71 87/9/71
f 99/92/72 100/95/72 87/9/72
f 103/94/73 104/47/73 87/9/73
f 83/52/74 97/96/74 87/9/74
f 100/95/75 101/97/75 87/9/75
f 97/96/76 98/91/76 87/9/76
f 101/97/77 102/11/77 87/9/77
f 96/98/78 83/99/78 105/100/78
f 94/101/79 104/102/79 103/103/79
f 92/104/80 102/105/80 101/106/80
f 91/107/81 101/106/81 100/108/81
f 99/109/82 90/110/82 100/108/82
f 110/89/83 93/111/83 92/104/83
f 109/85/84 92/104/84 91/107/84
f 90/110/85 108/86/85 91/107/85
f 124/112/86 146/80/86 145/113/86
f 146/80/87 124/112/87 147/114/87
f 147/114/88 124/112/88 148/115/88
f 148/115/89 124/112/89 149/116/89
f 123/117/90 150/118/90 149/116/90
f 123/117/91 151/119/91 150/118/91
f 137/120/92 138/121/92 125/9/92
f 122/122/93 136/123/93 125/9/93
f 144/51/94 122/122/94 125/9/94
f 142/54/95 143/124/95 125/9/95
f 139/55/96 140/125/96 125/9/96
f 136/123/97 137/120/97 125/9/97
f 143/124/98 144/51/98 125/9/98
f 140/125/99 141/126/99 125/9/99
f 138/121/100 139/55/100 125/9/100
f 141/126/101 142/54/101 125/9/101
f 135/127/102 144/128/102 143/129/102
f 133/130/103 142/131/103 141/132/103
f 132/133/104 141/132/104 140/134/104
f 130/135/105 139/136/105 138/137/105
f 135/127/106 151/119/106 126/138/106
f 134/139/107 150/118/107 135/127/107
f 149/116/108 133/130/108 132/133/108
f 148/115/109 132/133/109 131/140/109
f 148/115/110 131/140/110 130/135/110
f 147/114/111 130/135/111 129/141/111
f 145/113/112 127/76/112 126/138/112
f 160/142/113 184/143/113 183/144/113
f 161/145/114 185/146/114 184/143/114
f 185/146/115 161/145/115 186/147/115
f 161/145/116 187/148/116 186/147/116
f 187/148/117 162/149/117 188/41/117
f 188/41/118 162/149/118 189/150/118
f 189/150/119 162/149/119 190/151/119
f 160/142/120 183/144/120 190/151/120
f 175/44/121 176/92/121 163/9/121
f 173/7/36 174/152/36 163/9/36
f 174/152/122 175/44/122 163/9/122
f 179/11/71 180/12/71 163/9/71
f 176/92/123 177/153/123 163/9/123
f 180/12/124 181/154/124 163/9/124
f 182/155/125 173/7/125 163/9/125
f 177/153/75 178/156/75 163/9/75
f 181/154/126 182/155/126 163/9/126
f 178/156/77 179/11/77 163/9/77
f 172/157/127 182/158/127 181/159/127
f 171/160/128 181/159/128 180/161/128
f 169/162/129 179/163/129 178/164/129
f 168/165/130 178/164/130 177/166/130
f 166/167/131 176/168/131 175/169/131
f 164/170/132 173/171/132 182/158/132
f 190/151/133 172/157/133 171/160/133
f 170/111/134 189/150/134 171/160/134
f 168/165/135 187/148/135 169/162/135
f 167/30/136 186/147/136 168/165/136
f 200/172/137 218/173/137 222/174/137
f 218/173/138 200/172/138 219/175/138
f 219/175/139 200/172/139 220/176/139
f 220/176/140 200/172/140 221/177/140
f 200/172/141 222/174/141 221/177/141
f 212/44/142 213/178/142 201/9/142
f 199/179/143 211/180/143 201/9/143
f 314/181/144 315/51/144 298/9/144 306/54/144
f 211/180/145 212/44/145 201/9/145
f 217/51/146 199/179/146 201/9/146
f 209/54/147 216/182/147 201/9/147
f 216/182/148 217/51/148 201/9/148
f 207/83/149 215/183/149 201/9/149
f 215/183/150 209/54/150 201/9/150
f 210/184/151 217/185/151 216/186/151
f 208/187/152 209/188/152 215/189/152
f 206/190/153 207/191/153 214/192/153
f 204/193/154 212/194/154 211/195/154
f 203/196/155 211/195/155 199/197/155
f 222/174/156 202/198/156 210/184/156
f 209/188/157 221/177/157 210/184/157
f 221/177/158 209/188/158 208/187/158
f 220/176/159 208/187/159 207/191/159
f 206/190/160 219/175/160 207/191/160
f 219/175/161 206/190/161 205/199/161
f 204/193/162 218/173/162 205/199/162
f 202/198/163 222/174/163 203/196/163
f 256/200/164 231/201/164 250/202/164
f 250/202/165 231/201/165 251/203/165
f 251/203/166 231/201/166 252/204/166
f 252/204/167 231/201/167 253/205/167
f 231/201/168 254/206/168 253/205/168
f 254/206/169 231/201/169 255/207/169
f 255/207/170 231/201/170 256/200/170
f 244/208/171 245/81/171 232/9/171
f 242/209/172 243/123/172 232/9/172
f 279/210/173 280/54/173 266/9/173 278/211/173
f 249/51/146 242/209/146 232/9/146
f 240/54/174 248/212/174 232/9/174
f 243/123/175 244/208/175 232/9/175
f 248/212/148 249/51/148 232/9/148
f 238/83/176 247/213/176 232/9/176
f 247/213/177 240/54/177 232/9/177
f 241/214/178 249/215/178 248/216/178
f 239/217/179 240/218/179 247/219/179
f 237/220/180 238/221/180 246/222/180
f 243/223/181 234/224/181 244/225/181
f 256/200/182 233/226/182 241/214/182
f 240/218/183 255/207/183 241/214/183
f 254/206/184 239/217/184 238/221/184
f 237/220/185 253/205/185 238/221/185
f 236/227/186 252/204/186 237/220/186
f 235/228/187 251/203/187 236/227/187
f 265/229/188 284/230/188 283/231/188
f 284/230/189 265/229/189 285/232/189
f 285/232/190 265/229/190 286/233/190
f 286/233/191 265/229/191 287/234/191
f 265/229/192 288/235/192 287/234/192
f 265/229/193 283/231/193 288/235/193
f 275/236/194 276/92/194 266/9/194
f 273/209/195 274/123/195 266/9/195
f 282/51/196 273/209/196 266/9/196
f 276/92/197 277/237/197 266/9/197
f 280/54/198 281/212/198 266/9/198
f 277/237/199 278/211/199 266/9/199
f 274/123/200 275/236/200 266/9/200
f 281/212/201 282/51/201 266/9/201
f 272/238/202 273/239/202 282/240/202
f 280/241/203 271/242/203 281/243/203
f 278/244/204 270/245/204 279/246/204
f 269/247/205 278/244/205 277/248/205
f 268/249/206 277/248/206 276/250/206
f 274/251/207 267/252/207 275/253/207
f 282/240/208 288/235/208 272/238/208
f 280/241/209 287/234/209 271/242/209
f 286/233/210 270/245/210 269/247/210
f 285/232/211 269/247/211 268/249/211
f 276/250/212 284/230/212 268/249/212
f 284/230/213 276/250/213 267/252/213
f 274/251/214 283/231/214 267/252/214
f 283/231/215 274/251/215 272/238/215
f 322/254/216 297/255/216 316/256/216
f 297/255/217 317/257/217 316/256/217
f 317/257/218 297/255/218 318/258/218
f 318/258/219 297/255/219 319/259/219
f 297/255/220 320/260/220 319/259/220
f 297/255/221 321/261/221 320/260/221
f 321/261/222 297/255/222 322/254/222
f 308/122/223 309/262/223 298/9/223
f 309/262/224 310/263/224 298/9/224
f 315/51/94 308/122/94 298/9/94
f 310/263/225 311/264/225 298/9/225
f 347/51/226 341/265/226 334/123/226 332/9/226
f 311/264/227 312/266/227 298/9/227
f 312/266/228 313/267/228 298/9/228
f 313/267/229 306/54/229 298/9/229
f 307/268/230 315/269/230 314/270/230
f 313/271/231 305/272/231 306/273/231
f 304/274/232 313/271/232 312/275/232
f 307/268/233 322/254/233 299/276/233
f 321/261/234 306/273/234 305/272/234
f 304/274/235 320/260/235 305/272/235
f 303/140/236 319/259/236 304/274/236
f 302/277/237 319/259/237 303/140/237
f 318/258/238 302/277/238 301/278/238
f 317/257/239 301/278/239 300/279/239
f 299/276/240 316/256/240 300/279/240
f 331/280/241 348/281/241 353/282/241
f 331/280/242 349/283/242 348/281/242
f 349/283/243 331/280/243 350/284/243
f 331/280/220 351/285/220 350/284/220
f 331/280/244 352/286/244 351/285/244
f 352/286/245 331/280/245 353/282/245
f 213/178/246 214/287/246 207/83/246 201/9/246
f 86/77/247 84/84/247 108/86/247 107/80/247
f 340/54/248 346/288/248 332/9/248
f 334/123/249 342/289/249 343/290/249 332/9/249
f 346/288/250 347/51/250 332/9/250
f 343/290/251 337/55/251 332/9/251
f 345/291/252 340/54/252 332/9/252
f 347/292/253 333/293/253 341/294/253
f 1/295/254 5/296/254 6/297/254 2/298/254
f 339/299/255 340/300/255 345/301/255
f 344/302/256 338/303/256 345/301/256
f 336/304/257 337/305/257 343/306/257
f 335/307/258 343/306/258 342/308/258
f 333/293/259 334/309/259 341/294/259
f 353/282/260 333/293/260 347/292/260
f 352/286/261 347/292/261 340/300/261
f 352/286/262 340/300/262 339/299/262
f 338/303/263 351/285/263 339/299/263
f 337/305/264 350/284/264 338/303/264
f 350/284/265 337/305/265 336/304/265
f 349/283/266 336/304/266 335/307/266
f 3/310/267 1/311/267 2/312/267 4/313/267
f 5/296/268 7/314/268 8/315/268 6/297/268
f 1/316/269 3/317/269 7/318/269 5/319/269
f 6/320/270 8/321/270 4/322/270 2/323/270
f 7/314/271 3/310/271 4/313/271 8/315/271
f 15/30/272 23/25/272 22/324/272 14/31/272
f 9/19/273 20/18/273 21/29/273
f 19/20/274 20/18/274 26/17/274
f 18/24/275 19/20/275 25/21/275
f 24/22/276 16/26/276 17/23/276
f 23/25/277 15/30/277 16/26/277
f 18/24/278 17/23/278 29/5/278 30/6/278
f 13/28/279 14/31/279 22/324/279
f 30/6/280 31/1/280 19/20/280
f 14/31/281 13/28/281 27/3/281 28/4/281
f 16/26/282 28/4/282 29/5/282
f 27/3/283 12/27/283 21/29/283 31/1/283
f 32/295/254 36/296/254 37/297/254 33/298/254
f 34/310/267 32/311/267 33/312/267 35/313/267
f 36/296/268 38/314/268 39/315/268 37/297/268
f 32/316/269 34/317/269 38/318/269 36/319/269
f 37/320/270 39/321/270 35/322/270 33/323/270
f 38/314/271 34/310/271 35/313/271 39/315/271
f 41/32/284 73/43/284 72/42/284 43/40/284
f 41/32/285 42/36/285 67/35/285
f 70/39/286 42/36/286 43/40/286
f 40/73/287 65/57/287 53/56/287 45/71/287
f 41/32/288 43/40/288 42/36/288
f 64/58/289 63/60/289 52/59/289 53/56/289
f 62/61/290 61/63/290 51/62/290 52/59/290
f 50/74/291 60/64/291 59/66/291 49/65/291
f 50/74/292 51/62/292 60/64/292
f 58/67/293 57/325/293 48/75/293 49/65/293
f 48/75/294 57/325/294 56/69/294 47/68/294
f 46/76/295 55/70/295 54/72/295 45/71/295
f 46/76/296 47/68/296 55/70/296
f 71/41/297 51/62/297 50/74/297 70/39/297
f 53/56/298 73/43/298 74/34/298
f 72/42/299 73/43/299 52/59/299
f 71/41/300 72/42/300 51/62/300
f 46/76/301 45/71/301 66/33/301 67/35/301
f 69/38/302 70/39/302 49/65/302
f 68/37/303 69/38/303 48/75/303
f 67/35/304 68/37/304 47/68/304
f 75/295/254 79/296/254 80/297/254 76/298/254
f 45/71/305 74/34/305 66/33/305
f 77/310/267 75/311/267 76/312/267 78/313/267
f 79/296/268 81/314/268 82/315/268 80/297/268
f 75/316/269 77/317/269 81/318/269 79/319/269
f 80/320/270 82/321/270 78/322/270 76/323/270
f 81/314/271 77/310/271 78/313/271 82/315/271
f 110/89/306 109/85/306 84/84/306 85/87/306
f 95/326/307 105/100/307 104/102/307 94/101/307
f 113/79/308 85/87/308 86/77/308
f 85/87/309 84/84/309 86/77/309
f 95/326/310 96/98/310 105/100/310
f 93/111/311 103/103/311 102/105/311 92/104/311
f 93/111/312 94/101/312 103/103/312
f 90/110/313 99/109/313 98/327/313 89/328/313
f 91/107/314 92/104/314 101/106/314
f 100/108/315 90/110/315 91/107/315
f 98/327/316 97/329/316 88/330/316 89/328/316
f 88/330/317 97/329/317 83/99/317 96/98/317
f 96/98/318 95/326/318 112/90/318 113/79/318
f 112/90/319 95/326/319 94/101/319 111/88/319
f 111/88/320 94/101/320 93/111/320 110/89/320
f 90/110/321 89/328/321 107/80/321 108/86/321
f 109/85/322 110/89/322 92/104/322
f 108/86/323 109/85/323 91/107/323
f 107/80/324 89/328/324 88/330/324 106/78/324
f 88/330/325 96/98/325 113/79/325 106/78/325
f 114/295/254 118/296/254 119/297/254 115/298/254
f 116/310/267 114/311/267 115/312/267 117/313/267
f 118/296/268 120/314/268 121/315/268 119/297/268
f 114/316/269 116/317/269 120/318/269 118/319/269
f 119/320/270 121/321/270 117/322/270 115/323/270
f 120/314/271 116/310/271 117/313/271 121/315/271
f 145/113/326 151/119/326 123/117/326 124/112/326
f 126/138/327 122/331/327 144/128/327 135/127/327
f 124/112/328 123/117/328 149/116/328
f 134/139/329 143/129/329 142/131/329 133/130/329
f 134/139/330 135/127/330 143/129/330
f 131/140/331 140/134/331 139/136/331 130/135/331
f 132/133/332 133/130/332 141/132/332
f 131/140/333 132/133/333 140/134/333
f 129/141/334 138/137/334 137/332/334 128/328/334
f 138/137/335 129/141/335 130/135/335
f 137/332/336 136/333/336 127/76/336 128/328/336
f 136/333/337 122/331/337 126/138/337 127/76/337
f 134/139/338 133/130/338 149/116/338 150/118/338
f 150/118/339 151/119/339 135/127/339
f 129/141/340 128/328/340 146/80/340 147/114/340
f 132/133/341 148/115/341 149/116/341
f 147/114/342 148/115/342 130/135/342
f 146/80/343 128/328/343 127/76/343 145/113/343
f 152/295/254 156/296/254 157/297/254 153/298/254
f 151/119/344 145/113/344 126/138/344
f 161/145/345 160/142/345 162/149/345
f 154/310/267 152/311/267 153/312/267 155/313/267
f 156/296/268 158/314/268 159/315/268 157/297/268
f 152/316/269 154/317/269 158/318/269 156/319/269
f 157/320/270 159/321/270 155/322/270 153/323/270
f 158/314/271 154/310/271 155/313/271 159/315/271
f 170/111/346 180/161/346 179/163/346 169/162/346
f 160/142/347 161/145/347 184/143/347
f 161/145/348 162/149/348 187/148/348
f 162/149/349 160/142/349 190/151/349
f 172/157/350 164/170/350 182/158/350
f 171/160/351 172/157/351 181/159/351
f 170/111/352 171/160/352 180/161/352
f 167/30/353 177/166/353 176/168/353 166/167/353
f 168/165/354 169/162/354 178/164/354
f 167/30/355 168/165/355 177/166/355
f 175/169/356 174/334/356 165/335/356 166/167/356
f 165/335/357 174/334/357 173/171/357 164/170/357
f 164/170/358 172/157/358 190/151/358 183/144/358
f 170/111/359 169/162/359 188/41/359 189/150/359
f 189/150/360 190/151/360 171/160/360
f 167/30/361 166/167/361 185/146/361 186/147/361
f 169/162/362 187/148/362 188/41/362
f 186/147/363 187/148/363 168/165/363
f 185/146/364 166/167/364 165/335/364 184/143/364
f 165/335/365 164/170/365 183/144/365 184/143/365
f 191/295/254 195/296/254 196/297/254 192/298/254
f 193/310/267 191/311/267 192/312/267 194/313/267
f 195/296/268 197/314/268 198/315/268 196/297/268
f 191/316/269 193/317/269 197/318/269 195/319/269
f 196/320/270 198/321/270 194/322/270 192/323/270
f 197/314/271 193/310/271 194/313/271 198/315/271
f 199/197/366 217/185/366 210/184/366 202/198/366
f 206/190/367 214/192/367 213/336/367 205/199/367
f 209/188/368 210/184/368 216/186/368
f 215/189/369 207/191/369 208/187/369
f 213/336/370 212/194/370 204/193/370 205/199/370
f 218/173/371 204/193/371 203/196/371 222/174/371
f 203/196/372 204/193/372 211/195/372
f 202/198/373 203/196/373 199/197/373
f 221/177/374 222/174/374 210/184/374
f 220/176/375 221/177/375 208/187/375
f 207/191/376 219/175/376 220/176/376
f 218/173/377 219/175/377 205/199/377
f 223/295/254 227/296/254 228/297/254 224/298/254
f 225/310/267 223/311/267 224/312/267 226/313/267
f 227/296/268 229/314/268 230/315/268 228/297/268
f 223/316/269 225/317/269 229/318/269 227/319/269
f 228/320/270 230/321/270 226/322/270 224/323/270
f 229/314/271 225/310/271 226/313/271 230/315/271
f 242/337/378 249/215/378 241/214/378 233/226/378
f 237/220/379 246/222/379 245/338/379 236/227/379
f 240/218/380 241/214/380 248/216/380
f 238/221/381 239/217/381 247/219/381
f 245/338/382 244/225/382 235/228/382 236/227/382
f 243/223/383 242/337/383 233/226/383 234/224/383
f 244/225/384 234/224/384 235/228/384
f 255/207/385 240/218/385 239/217/385 254/206/385
f 241/214/386 255/207/386 256/200/386
f 235/228/387 234/224/387 250/202/387 251/203/387
f 253/205/388 254/206/388 238/221/388
f 252/204/389 253/205/389 237/220/389
f 236/227/390 251/203/390 252/204/390
f 250/202/391 234/224/391 233/226/391 256/200/391
f 257/295/254 261/296/254 262/297/254 258/298/254
f 259/310/267 257/311/267 258/312/267 260/313/267
f 261/296/268 263/314/268 264/315/268 262/297/268
f 257/316/269 259/317/269 263/318/269 261/319/269
f 262/320/270 264/321/270 260/322/270 258/323/270
f 263/314/271 259/310/271 260/313/271 264/315/271
f 288/235/392 282/240/392 271/242/392 287/234/392
f 271/242/393 282/240/393 281/243/393
f 279/246/394 270/245/394 280/241/394
f 278/244/395 269/247/395 270/245/395
f 268/249/396 269/247/396 277/248/396
f 275/253/397 267/252/397 276/250/397
f 272/238/398 274/251/398 273/239/398
f 272/238/399 288/235/399 283/231/399
f 280/241/400 270/245/400 286/233/400 287/234/400
f 289/295/254 293/296/254 294/297/254 290/298/254
f 285/232/401 286/233/401 269/247/401
f 284/230/402 285/232/402 268/249/402
f 283/231/403 284/230/403 267/252/403
f 291/310/267 289/311/267 290/312/267 292/313/267
f 293/296/268 295/314/268 296/315/268 294/297/268
f 289/316/269 291/317/269 295/318/269 293/319/269
f 294/320/270 296/321/270 292/322/270 290/323/270
f 295/314/271 291/310/271 292/313/271 296/315/271
f 299/276/404 308/339/404 315/269/404 307/268/404
f 303/140/405 312/275/405 311/340/405 302/277/405
f 306/273/406 307/268/406 314/270/406
f 304/274/407 305/272/407 313/271/407
f 303/140/408 304/274/408 312/275/408
f 311/340/409 310/341/409 301/278/409 302/277/409
f 301/278/410 310/341/410 309/342/410 300/279/410
f 309/342/411 308/339/411 299/276/411 300/279/411
f 307/268/412 306/273/412 321/261/412 322/254/412
f 323/295/254 327/296/254 328/297/254 324/298/254
f 305/272/413 320/260/413 321/261/413
f 304/274/414 319/259/414 320/260/414
f 318/258/415 319/259/415 302/277/415
f 317/257/416 318/258/416 301/278/416
f 300/279/417 316/256/417 317/257/417
f 299/276/418 322/254/418 316/256/418
f 325/310/267 323/311/267 324/312/267 326/313/267
f 327/296/268 329/314/268 330/315/268 328/297/268
f 323/316/269 325/317/269 329/318/269 327/319/269
f 328/320/270 330/321/270 326/322/270 324/323/270
f 329/314/271 325/310/271 326/313/271 330/315/271
f 335/307/419 334/309/419 348/281/419 349/283/419
f 340/300/420 347/292/420 346/343/420
f 345/301/421 338/303/421 339/299/421
f 337/305/422 338/303/422 344/302/422
f 335/307/423 336/304/423 343/306/423
f 342/308/424 334/309/424 335/307/424
f 347/292/425 352/286/425 353/282/425
f 339/299/426 351/285/426 352/286/426
f 338/303/427 350/284/427 351/285/427
f 349/283/428 350/284/428 336/304/428
f 348/281/429 334/309/429 333/293/429 353/282/429
f 344/344/430 345/291/430 332/9/430 337/55/430
