# Blender 4.1.1
# www.blender.org
mtllib tree3(leaves)lowpoly2.mtl
o Tree3.leaves_lowpoly3
v -3.276897 19.706142 8.016905
v 2.593898 16.756310 5.486893
v 0.243838 16.105831 -6.470415
v 2.312638 16.969835 5.165380
v 7.117719 31.093208 -0.898125
v -1.520136 33.391228 -6.972718
v -1.412218 17.053942 0.291625
v 3.583761 24.672356 11.124650
v 8.145641 22.965624 -8.346642
v 2.418448 17.187735 5.074952
v -0.581364 15.529005 -0.387284
v -0.157942 16.372192 0.781639
v -0.591439 23.434572 -11.939097
v 7.453274 18.363497 -5.310732
v 0.170985 15.400525 -4.297503
v -6.402723 16.630653 1.904218
v -0.618330 34.330399 4.382924
v -2.911959 18.486231 -11.643237
v -8.309907 24.340670 2.176290
v 9.861030 23.007051 4.404536
v 0.268569 15.996073 -2.027732
vn -0.9364 -0.2220 -0.2717
vn -0.7739 -0.3464 0.5302
vn 0.3414 -0.9350 0.0964
vn 0.3169 -0.2363 0.9186
vn 0.5510 -0.5287 0.6457
vn -0.3762 -0.9000 -0.2202
vn 0.6734 0.5514 0.4924
vn -0.1874 -0.9823 -0.0038
vn 0.3024 -0.9528 -0.0252
vn 0.3230 0.9407 -0.1035
vn -0.7936 0.6083 0.0127
vn -0.4921 -0.8592 -0.1401
vn 0.5618 0.5964 -0.5733
vn -0.2408 -0.9168 0.3186
vn 0.3287 -0.7657 -0.5529
vn 0.9645 -0.2302 -0.1290
vn -0.8744 0.2176 -0.4337
vn 0.3854 -0.9190 0.0828
vn -0.8187 -0.2212 0.5299
vn 0.4339 -0.5407 -0.7207
vn -0.5195 -0.8389 0.1626
vn 0.6034 0.6160 0.5064
vn -0.5629 0.2943 0.7724
vn -0.4959 -0.1163 -0.8605
vn -0.6587 -0.6422 -0.3920
vn -0.1961 -0.9307 -0.3087
vn -0.6773 0.2768 -0.6817
vn 0.9618 0.2409 -0.1302
vn -0.3937 0.8932 -0.2174
vn 0.0557 -0.5838 0.8100
vn -0.5962 0.2940 0.7471
vn 0.3604 -0.2232 -0.9057
vn 0.6565 -0.7309 0.1866
vn 0.1938 -0.9126 0.3601
vn 0.3612 0.4430 -0.8206
vn 0.9916 -0.1293 -0.0087
vn -0.3277 0.9018 0.2817
vt 1.016847 0.234480
vt 1.018061 0.387383
vt 0.847852 0.380782
vt 0.789343 0.058498
vt 0.357375 0.228585
vt 0.320365 0.037765
vt 0.812158 0.187958
vt 0.999521 0.099783
vt 0.352601 0.230453
vt 0.483580 0.513591
vt 0.362902 0.534669
vt 0.562128 0.797609
vt 0.805714 0.169490
vt 0.811094 0.176404
vt 0.639280 0.343292
vt 0.822946 0.790794
vt 0.518708 0.854047
vt 0.983739 0.602478
vt 0.246189 0.385668
vt 0.343923 0.216179
vt 0.678631 0.510824
vt 0.100650 0.270398
vt 0.088894 0.569535
vt 0.078292 0.073095
vt 0.323272 0.845335
vt 0.812425 0.497189
vt 0.000000 0.000000
s 0
f 16/1/1 19/2/1 18/3/1
f 11/4/2 10/5/2 12/6/2
f 15/7/3 10/5/3 11/4/3
f 7/8/4 16/1/4 11/4/4
f 2/9/5 20/10/5 8/11/5
f 16/1/6 18/3/6 15/7/6
f 8/11/7 20/10/7 5/12/7
f 16/1/8 15/7/8 11/4/8
f 21/13/9 3/14/9 14/15/9
f 6/16/10 17/17/10 5/12/10
f 19/18/11 17/17/11 6/16/11
f 2/9/12 1/19/12 4/20/12
f 5/12/13 9/21/13 6/16/13
f 10/5/14 1/19/14 12/6/14
f 18/3/15 14/15/15 3/14/15
f 20/10/16 14/15/16 9/21/16
f 6/16/17 18/3/17 19/18/17
f 15/7/18 14/15/18 10/5/18
f 16/22/19 1/19/19 19/23/19
f 14/15/20 18/3/20 9/21/20
f 7/24/21 12/6/21 1/19/21
f 5/12/22 17/25/22 8/11/22
f 8/11/23 17/25/23 1/19/23
f 1/19/24 10/5/24 4/20/24
f 2/9/25 10/5/25 14/15/25
f 18/3/26 3/14/26 15/7/26
f 18/3/27 6/16/27 13/26/27
f 9/21/28 5/12/28 20/10/28
f 15/7/29 21/13/29 14/15/29
f 1/19/30 2/9/30 8/11/30
f 19/23/31 1/19/31 17/25/31
f 9/21/32 18/3/32 13/26/32
f 20/10/33 2/9/33 14/15/33
f 16/22/34 7/24/34 1/19/34
f 13/26/35 6/16/35 9/21/35
f 3/14/36 21/13/36 15/7/36
f 3/27/37 15/27/37 14/27/37
