# Blender 4.1.1
# www.blender.org
mtllib Tree3_stem.mtl
o Tree3..001
v 0.556049 13.794299 -0.703680
v 0.784420 15.286233 2.467809
v -0.151957 15.448459 1.866087
v -0.101637 14.077923 1.945938
v -0.511891 13.525696 -0.506352
v 1.312573 4.718740 0.282905
v -0.774978 -0.028019 -0.961676
v -0.029652 10.401909 -0.650222
v 1.390204 -0.011225 -0.300260
v 1.351964 4.728017 0.708292
v -1.315069 -0.011744 1.093359
v -0.890536 16.695910 1.011149
v 1.725237 17.829659 6.037603
v 1.391491 17.621820 5.805463
v -1.292400 16.890932 0.254852
v -0.351160 16.816170 0.039428
v 0.089583 16.185165 -3.941914
v 0.167204 16.269672 -3.918422
v 1.520992 17.402777 5.937113
v 0.666798 11.876090 1.183061
v 0.268439 16.008619 -3.848280
v 1.080138 4.728660 1.173021
v -0.446427 7.995997 1.171537
v 0.490796 0.006949 1.980581
v -1.021875 16.964016 -0.305213
v -0.047072 16.677700 1.258915
v -0.962435 3.358300 1.175632
v 1.489346 3.471738 -0.247185
v 0.304210 6.586663 1.562315
v 1.125673 2.389701 1.422316
v 1.395302 4.722058 0.326242
v 0.770908 4.884131 -0.575628
v 0.409732 14.646351 2.284421
v 0.663006 15.752052 3.828529
v -0.194397 14.818152 1.896479
v 0.445915 16.122761 3.397189
v 1.681021 17.614819 6.032832
v 0.877973 9.839889 -0.253533
v 0.300245 14.991014 -2.343920
v -0.368947 5.228936 -0.660927
v -0.547089 0.000833 1.943459
v 0.442566 -0.022851 -1.037455
v 0.484228 15.894068 3.708594
v -0.062413 3.854241 1.889760
v 1.595091 2.386147 0.282290
v 1.312786 0.001190 0.985345
v 1.191920 4.730739 1.105093
v -1.417309 -0.023209 -0.079343
v 0.096056 15.260735 -0.290968
v -0.463404 15.139904 -0.279354
v -0.498582 14.496342 0.776547
v -0.241804 14.510039 -2.239228
v -0.771853 15.240979 0.364758
v -0.876677 16.605621 0.009261
v 0.448171 15.629260 1.648152
v 0.373327 12.019355 -0.869319
v -0.704249 16.905235 -0.296168
v 1.567707 17.806480 5.917639
v 1.388993 17.432961 5.829712
v 0.249882 16.127642 -3.868709
v -0.116756 14.828835 -2.283448
v -0.343621 11.587975 1.275947
v 0.793723 12.688299 0.405593
v 0.394708 15.385531 0.511441
v 0.697764 14.533970 0.871872
v 1.344658 16.714926 4.520966
v 0.399180 14.643808 -2.281380
v 0.775191 8.373902 1.261040
v -1.193070 16.787596 0.634799
v -0.085874 13.805674 -2.170662
v -0.526661 11.156445 0.435450
v 1.080788 16.131571 4.067583
v 0.710005 3.232984 1.870899
v -0.875320 4.449483 0.060909
v -0.549890 15.814236 1.255872
v -0.478067 13.268064 0.756069
v 0.669901 13.959620 1.511814
v -0.374725 12.155585 -0.631548
v 0.150612 10.404437 1.382724
v 0.370159 15.617697 2.359772
v 0.138108 13.777260 -2.152341
v 1.014697 8.901601 0.581376
v -0.469609 9.105817 0.186260
v 0.093383 16.282120 -3.950640
v 1.157453 4.722620 0.732882
v 0.181963 16.053698 -3.889264
v -0.001819 14.140398 -0.968831
v 0.196439 13.110452 1.536641
v 0.762454 7.698874 -0.329389
v -1.226955 16.956734 -0.086366
v -0.067350 16.734215 0.702753
v -0.043590 15.995354 1.691650
v -0.410162 16.660179 1.306416
v 0.996848 16.430208 3.989311
v 0.751583 13.894380 0.914320
v 1.080861 5.308695 -0.391323
v -0.555665 2.665007 1.772218
v 0.324209 4.482336 1.867723
v -0.426044 14.170937 1.022970
v -0.106649 14.697695 -0.533341
v 0.290732 13.566583 -1.695427
v 1.391114 16.781586 4.811944
v 0.399021 8.656113 1.427418
v 1.012231 7.444594 0.902980
v -0.462238 10.881255 0.101298
v 0.268103 3.562595 -0.829206
v -0.032714 11.798258 1.418382
v 1.400244 1.577890 0.910291
v -0.938472 16.872250 -0.142059
v 0.182861 15.779963 0.243192
v 0.065174 14.465148 -2.709939
v 1.314352 16.935101 4.735424
v 1.604473 3.299552 0.010906
v -1.157854 2.738193 0.381719
v -0.844847 15.899794 0.141028
v 1.002224 3.277508 1.606219
v -0.502705 11.921996 0.808204
v 0.412311 13.983177 1.738035
v -0.260272 13.491138 -1.640485
v 0.559143 15.186625 1.013919
v 0.263254 15.721270 1.903315
v 0.598309 16.038227 3.244831
v 0.667858 15.440674 3.305637
v 0.366257 15.322047 -2.844703
v -0.628306 6.437208 -0.150106
v -0.130738 15.224205 -2.824234
v 0.064436 14.532943 -1.814753
v 0.206275 15.639767 3.015081
v 0.931186 10.530260 0.170669
v -0.638260 15.113029 0.774310
v 0.642020 9.884923 -0.450366
v -0.347428 16.203432 1.473246
v 0.801684 16.296610 4.424157
vn 0.9993 -0.0360 0.0112
vn 0.9902 -0.0233 0.1376
vn 0.9887 0.0829 -0.1246
vn 0.5394 0.0750 -0.8387
vn 0.9681 0.1628 -0.1903
vn 0.4314 0.0096 -0.9021
vn -0.1231 0.0293 0.9920
vn -0.6512 0.0981 0.7525
vn -0.7629 0.0530 0.6444
vn 0.0460 0.0269 0.9986
vn 0.6429 0.1470 0.7517
vn -0.2140 0.1445 0.9661
vn -0.9978 -0.0177 0.0635
vn -0.9434 -0.0664 0.3249
vn -0.9672 0.0421 0.2506
vn -0.0745 0.2522 -0.9648
vn 0.4047 0.4473 -0.7976
vn -0.6474 0.2070 -0.7335
vn 0.9647 -0.1321 -0.2278
vn 0.8353 -0.2468 -0.4913
vn 0.8730 -0.3181 -0.3698
vn 0.9765 -0.1883 -0.1051
vn 0.7000 -0.6563 0.2815
vn 0.8938 -0.4453 0.0527
vn -0.3124 0.0321 0.9494
vn 0.4709 0.0246 0.8818
vn 0.3280 0.0443 0.9436
vn 0.9600 0.0428 0.2767
vn 0.9294 0.0493 0.3658
vn 0.9492 0.0545 0.3099
vn -0.8875 -0.0934 -0.4513
vn -0.9987 -0.0223 -0.0453
vn -0.9778 -0.0642 -0.1993
vn 0.5360 0.0435 -0.8431
vn -0.0778 0.0593 -0.9952
vn 0.0835 0.0297 -0.9961
vn 0.3242 -0.0592 0.9441
vn 0.1507 -0.2186 0.9641
vn -0.2826 -0.0315 0.9587
vn 0.7950 -0.0483 0.6046
vn 0.9907 -0.0863 0.1051
vn 0.9240 0.0386 0.3804
vn -0.5594 -0.6851 -0.4666
vn -0.2404 -0.8934 -0.3796
vn 0.1315 -0.7438 -0.6554
vn 0.8465 0.3590 -0.3931
vn 0.9392 0.3334 -0.0821
vn 0.8627 0.3405 -0.3740
vn -0.3510 -0.5420 -0.7636
vn 0.1770 -0.5992 -0.7808
vn 0.0155 -0.4524 -0.8917
vn 0.3303 0.7250 -0.6044
vn -0.2635 0.8204 -0.5075
vn 0.4148 0.6836 -0.6005
vn 0.9785 0.0801 0.1902
vn 0.9626 -0.0371 -0.2683
vn 0.8676 0.2597 -0.4240
vn -0.8620 0.1199 -0.4926
vn -0.9887 0.0879 0.1214
vn -0.9908 0.1270 0.0469
vn -0.3499 0.0851 -0.9329
vn -0.9024 -0.0091 -0.4307
vn -0.9313 -0.2917 0.2180
vn -0.8718 -0.3549 -0.3377
vn 0.6096 0.1965 0.7680
vn 0.7052 -0.0292 0.7084
vn 0.9149 0.0287 0.4027
vn -0.9994 0.0185 0.0296
vn -0.9777 0.0054 0.2101
vn -0.9529 0.0175 0.3028
vn 0.5526 -0.5218 0.6499
vn 0.2618 -0.4516 0.8529
vn 0.3888 -0.1905 0.9014
vn -0.9728 -0.0906 -0.2131
vn -0.8817 -0.2350 -0.4091
vn -0.9096 -0.1868 -0.3710
vn 0.9292 0.3298 -0.1666
vn 0.9463 0.2502 -0.2045
vn 0.9114 0.3914 -0.1268
vn -0.4629 0.6177 0.6358
vn 0.5880 0.8051 0.0775
vn 0.4957 0.5901 0.6372
vn 0.1117 0.8903 -0.4416
vn 0.1318 0.8243 -0.5506
vn 0.5085 0.6764 -0.5328
vn 0.7640 -0.6072 0.2182
vn 0.4596 -0.7769 0.4303
vn 0.5212 -0.7320 0.4387
vn 0.5906 0.6562 0.4696
vn 0.9481 0.2926 0.1248
vn 0.9943 -0.0135 -0.1062
vn -0.8870 0.0765 -0.4554
vn -0.8559 0.0835 -0.5103
vn -0.9957 0.0858 0.0358
vn -0.9799 -0.0071 -0.1993
vn -0.9175 0.3773 0.1256
vn -0.4084 0.7130 0.5700
vn 0.0588 0.8431 0.5345
vn -0.2059 0.7595 0.6170
vn -0.3762 0.8069 0.4554
vn -0.9136 -0.0911 0.3962
vn -0.9449 0.1973 0.2612
vn -0.9501 0.1553 0.2704
vn 0.9833 0.0653 0.1700
vn 0.9938 0.0635 -0.0914
vn 0.9834 0.0680 -0.1681
vn -0.9503 -0.2377 0.2008
vn -0.8716 -0.1972 0.4488
vn -0.9134 -0.1987 0.3554
vn 0.2104 -0.1026 -0.9722
vn 0.7202 -0.0291 -0.6931
vn 0.6944 -0.0120 -0.7194
vn -0.6176 0.0551 0.7846
vn -0.6788 0.1929 0.7085
vn -0.0951 0.4593 0.8832
vn -0.9203 0.0017 0.3913
vn -0.7045 -0.3815 0.5984
vn -0.5278 -0.5463 0.6504
vn -0.0301 0.9994 -0.0190
vt 0.371635 0.046339
vt 0.434197 0.038150
vt 0.543549 0.044184
vt 0.582353 0.055080
vt 0.464024 0.025966
vt 0.609431 0.040969
vt 0.793072 0.063821
vt 0.865731 0.045189
vt 0.771725 0.031782
vt 0.745643 0.030462
vt 0.777436 0.036205
vt 0.677718 0.018375
vt 0.693339 0.024261
vt 0.689142 0.027221
vt 0.315969 0.020776
vt 0.282319 0.018499
vt 0.215884 0.023317
vt 0.196383 0.027693
vt 0.256593 0.014137
vt 0.166695 0.024373
vt 0.076796 0.034610
vt 0.395080 0.015471
vt 0.343148 0.015280
vt 0.454794 0.010598
vt 0.355694 0.012367
vt 0.067053 0.037448
vt 0.126093 0.038732
vt 0.163769 0.040718
vt 0.153086 0.041069
vt 0.185134 0.040016
vt 0.212127 0.042353
vt 0.239120 0.044690
vt 0.862466 0.054734
vt 0.786424 0.056062
vt 0.860868 0.058779
vt 0.904631 0.054577
vt 0.862295 0.070743
vt 0.946796 0.054420
vt 0.811196 0.062399
vt 0.818630 0.093796
vt 0.799885 0.115757
vt 0.830226 0.110201
vt 0.806698 0.167694
vt 0.361653 0.239616
vt 0.353647 0.224339
vt 0.357275 0.165342
vt 0.366644 0.142978
vt 0.345642 0.209062
vt 0.342287 0.130522
vt 0.392443 0.015709
vt 0.353858 0.019623
vt 0.462826 0.016486
vt 0.582702 0.023653
vt 0.535412 0.017393
vt 0.566256 0.014487
vt 0.954952 0.039794
vt 0.956329 0.044992
vt 0.913133 0.061525
vt 1.057648 0.030317
vt 0.999136 0.041432
vt 0.799692 0.033311
vt 0.821299 0.036895
vt 0.910242 0.039401
vt 0.884860 0.039582
vt 0.324969 0.031384
vt 0.302050 0.025494
vt 0.220864 0.027076
vt 0.502555 0.023999
vt 0.535706 0.020935
vt 0.482811 0.018018
vt 0.617328 0.020771
vt 0.605256 0.014836
vt 1.002151 0.087007
vt 0.970603 0.089085
vt 0.936094 0.077790
vt 0.942618 0.072094
vt 0.939055 0.091162
vt 0.900761 0.072948
vt 0.581795 0.042258
vt 0.648502 0.049072
vt 0.301123 0.029781
vt 0.561236 0.047558
vt 0.823049 0.184392
vt 0.814874 0.176043
vt 0.831943 0.132812
vt 0.851009 0.114378
vt 0.344000 0.131496
vt 0.355786 0.166126
vt 0.338632 0.211313
vt 0.350142 0.225465
vt 0.654642 0.020304
vt 0.641487 0.016605
vt 0.967699 0.038534
vt 0.997682 0.035795
vt 0.983945 0.034859
vt 1.025156 0.037667
vt 1.041402 0.033992
vt 0.968307 0.067834
vt 1.006229 0.063585
vt 1.056377 0.075171
vt 1.029264 0.081089
vt 0.463032 0.015401
vt 0.530025 0.012717
vt 1.037186 0.037183
vt 1.027587 0.040871
vt 1.083013 0.028819
vt 1.108379 0.027321
vt 0.304984 0.058009
vt 0.347087 0.038521
vt 0.884923 0.119406
vt 0.880371 0.096162
vt 0.495545 0.047201
vt 0.373190 0.041823
vt 0.308673 0.060642
vt 0.308223 0.043396
vt 0.262723 0.041998
vt 0.286552 0.111132
vt 0.315053 0.100879
vt 0.304518 0.100929
vt 0.283873 0.125802
vt 0.811517 0.178507
vt 0.816979 0.119407
vt 0.805830 0.136393
vt 0.809108 0.173101
vt 0.943213 0.038181
vt 0.858479 0.139319
vt 0.817283 0.181450
vt 0.864866 0.118240
vt 0.849639 0.100445
vt 0.261883 0.125664
vt 0.254004 0.096317
vt 0.643189 0.034625
vt 0.720931 0.039716
vt 1.044217 0.049521
vt 1.048772 0.057918
vt 1.141639 0.044622
vt 1.099008 0.059897
vt 0.774537 0.043315
vt 0.087141 0.070738
vt 0.163130 0.057714
vt 0.207997 0.048995
vt 0.194132 0.050260
vt 0.292295 0.153583
vt 0.342137 0.210187
s 0
usemtl Material.001
f 2/1/1 77/2/1 95/3/1 65/4/1
f 20/5/2 63/6/2 95/3/2 77/2/2
f 1/7/3 65/4/3 95/3/3 63/6/3
f 8/8/4 89/9/4 96/10/4 32/11/4
f 6/12/5 28/13/5 96/10/5 89/9/5
f 9/14/6 32/11/6 96/10/6 28/13/6
f 24/15/7 44/16/7 97/17/7 41/18/7
f 23/19/8 27/20/8 97/17/8 44/16/8
f 11/21/9 41/18/9 97/17/9 27/20/9
f 24/15/10 73/22/10 98/23/10 44/16/10
f 22/24/11 29/25/11 98/23/11 73/22/11
f 23/19/12 44/16/12 98/23/12 29/25/12
f 5/26/13 76/27/13 99/28/13 51/29/13
f 4/30/14 35/31/14 99/28/14 76/27/14
f 3/32/15 51/29/15 99/28/15 35/31/15
f 16/33/16 49/34/16 100/35/16 50/36/16
f 1/7/17 87/37/17 100/35/17 49/34/17
f 5/38/18 50/36/18 100/35/18 87/37/18
f 1/7/19 56/39/19 101/40/19 67/41/19
f 8/8/20 81/42/20 101/40/20 56/39/20
f 21/43/21 67/41/21 101/40/21 81/42/21
f 13/44/22 37/45/22 102/46/22 66/47/22
f 19/48/23 72/49/23 102/46/23 37/45/23
f 2/1/24 66/47/24 102/46/24 72/49/24
f 23/19/25 29/25/25 103/50/25 79/51/25
f 22/24/26 68/52/26 103/50/26 29/25/26
f 20/5/27 79/51/27 103/50/27 68/52/27
f 6/12/28 82/53/28 104/54/28 85/55/28
f 20/5/29 68/52/29 104/54/29 82/53/29
f 22/24/30 85/55/30 104/54/30 68/52/30
f 8/8/31 83/56/31 105/57/31 78/58/31
f 23/59/32 71/60/32 105/57/32 83/56/32
f 5/38/33 78/58/33 105/57/33 71/60/33
f 9/14/34 42/61/34 106/62/34 32/11/34
f 7/63/35 40/64/35 106/62/35 42/61/35
f 8/8/36 32/11/36 106/62/36 40/64/36
f 20/5/37 88/65/37 107/66/37 79/51/37
f 4/30/38 62/67/38 107/66/38 88/65/38
f 23/19/39 79/51/39 107/66/39 62/67/39
f 24/15/40 46/68/40 108/69/40 30/70/40
f 9/14/41 45/71/41 108/69/41 46/68/41
f 10/72/42 30/70/42 108/69/42 45/71/42
f 15/73/43 90/74/43 109/75/43 54/76/43
f 25/77/44 57/78/44 109/75/44 90/74/44
f 16/33/45 54/76/45 109/75/45 57/78/45
f 16/33/46 91/79/46 110/80/46 49/34/46
f 26/81/47 64/82/47 110/80/47 91/79/47
f 1/7/48 49/34/48 110/80/48 64/82/48
f 17/83/49 86/84/49 111/85/49 70/86/49
f 21/43/50 81/42/50 111/85/50 86/84/50
f 8/8/51 70/86/51 111/85/51 81/42/51
f 2/1/52 94/87/52 112/88/52 66/47/52
f 14/89/53 58/90/53 112/88/53 94/87/53
f 13/44/54 66/47/54 112/88/54 58/90/54
f 10/72/55 45/71/55 113/91/55 31/92/55
f 9/14/56 28/13/56 113/91/56 45/71/56
f 6/12/57 31/92/57 113/91/57 28/13/57
f 7/63/58 48/93/58 114/94/58 74/95/58
f 11/96/59 27/97/59 114/94/59 48/93/59
f 23/59/60 74/95/60 114/94/60 27/97/60
f 16/33/61 50/36/61 115/98/61 54/76/61
f 50/36/62 5/38/62 53/99/62 115/98/62
f 115/98/63 53/99/63 12/100/63 69/101/63
f 54/76/64 115/98/64 69/101/64 15/73/64
f 22/24/65 73/22/65 116/102/65 47/103/65
f 24/15/66 30/70/66 116/102/66 73/22/66
f 10/72/67 47/103/67 116/102/67 30/70/67
f 5/38/68 71/60/68 117/104/68 76/105/68
f 23/59/69 62/106/69 117/104/69 71/60/69
f 4/107/70 76/105/70 117/104/70 62/106/70
f 2/1/71 33/108/71 118/109/71 77/2/71
f 4/30/72 88/65/72 118/109/72 33/108/72
f 20/5/73 77/2/73 118/109/73 88/65/73
f 5/38/74 52/110/74 119/111/74 78/58/74
f 17/83/75 70/86/75 119/111/75 52/110/75
f 8/8/76 78/58/76 119/111/76 70/86/76
f 2/1/77 65/4/77 120/112/77 55/113/77
f 1/7/78 64/82/78 120/112/78 65/4/78
f 26/81/79 55/113/79 120/112/79 64/82/79
f 3/32/80 80/114/80 121/115/80 92/116/80
f 2/1/81 55/113/81 121/115/81 80/114/81
f 26/81/82 92/116/82 121/115/82 55/113/82
f 3/32/83 36/117/83 122/118/83 80/114/83
f 14/89/84 94/87/84 122/118/84 36/117/84
f 2/1/85 80/114/85 122/118/85 94/87/85
f 2/1/86 72/49/86 123/119/86 33/108/86
f 19/48/87 34/120/87 123/119/87 72/49/87
f 4/30/88 33/108/88 123/119/88 34/120/88
f 18/121/89 39/122/89 124/123/89 60/124/89
f 1/7/90 67/41/90 124/123/90 39/122/90
f 21/43/91 60/124/91 124/123/91 67/41/91
f 8/8/92 40/64/92 125/125/92 83/56/92
f 7/63/93 74/95/93 125/125/93 40/64/93
f 23/59/94 83/56/94 125/125/94 74/95/94
f 17/83/95 52/110/95 126/126/95 84/127/95
f 5/38/96 61/128/96 126/126/96 52/110/96
f 18/121/97 84/127/97 126/126/97 61/128/97
f 1/7/98 39/122/98 127/129/98 87/37/98
f 18/121/99 61/128/99 127/129/99 39/122/99
f 5/38/100 87/37/100 127/129/100 61/128/100
f 4/30/101 43/130/101 128/131/101 35/31/101
f 14/89/102 36/117/102 128/131/102 43/130/102
f 3/32/103 35/31/103 128/131/103 36/117/103
f 20/5/104 82/53/104 129/132/104 63/6/104
f 6/12/105 38/133/105 129/132/105 82/53/105
f 1/7/106 63/6/106 129/132/106 38/133/106
f 5/38/107 51/134/107 130/135/107 53/99/107
f 3/136/108 75/137/108 130/135/108 51/134/108
f 12/100/109 53/99/109 130/135/109 75/137/109
f 8/8/110 56/39/110 131/138/110 89/9/110
f 1/7/111 38/133/111 131/138/111 56/39/111
f 6/12/112 89/9/112 131/138/112 38/133/112
f 12/139/113 75/140/113 132/141/113 93/142/113
f 3/32/114 92/116/114 132/141/114 75/140/114
f 26/81/115 93/142/115 132/141/115 92/116/115
f 14/89/116 43/130/116 133/143/116 59/144/116
f 4/30/117 34/120/117 133/143/117 43/130/117
f 19/48/118 59/144/118 133/143/118 34/120/118
f 22/24/119 47/103/119 10/72/119 85/55/119
f 31/92/119 6/12/119 85/55/119 10/72/119
