# Blender 4.1.1
# www.blender.org
mtllib Tree3.leaves_lowpoly1.mtl
o Tree3.leaves_lowpoly1
v -5.461742 21.597359 6.232196
v -2.204743 18.189968 5.845197
v 0.027793 22.855595 -11.099620
v -5.030443 22.314415 -8.644344
v 0.268690 17.895985 -10.032269
v 2.621650 16.961494 5.831304
v -6.157011 27.870842 -0.030910
v -1.234277 16.571503 0.443643
v -6.827211 17.410084 0.177883
v 0.303689 15.675217 -3.851115
v 2.372489 16.969835 5.605860
v 2.013116 17.223169 7.294675
v 8.289997 29.412172 0.035323
v 8.732714 23.982738 -5.603188
v -0.209495 16.492815 1.104089
v -0.828357 28.568430 -8.965518
v -6.574993 27.722462 2.508594
v -3.600900 27.449673 -7.158088
v -2.825616 33.905521 0.698893
v 1.365203 33.721443 4.484227
v 0.933662 31.125210 8.137625
v -1.252387 16.711239 0.943290
v -8.392064 20.898479 0.906700
v 6.593056 31.618729 -0.434309
v -3.056130 22.298328 9.164869
v 9.445890 22.390038 4.145185
v 4.779870 25.577662 10.049571
v 7.561648 22.406639 -7.892867
v 2.278776 31.384214 7.552219
v 2.478299 17.187735 5.515431
v -0.146736 25.982433 10.498826
v -0.883831 16.636909 -0.092563
v -7.032736 18.756992 3.638423
v -5.165959 20.098030 -8.660243
v -0.410236 22.805254 10.554009
v -4.623459 24.316744 8.001939
v 7.698237 20.918579 6.000045
v 8.018361 20.437202 -5.600102
v -0.075496 16.267504 0.103386
v -0.601743 16.495737 1.214976
v 0.057447 32.396652 -6.817483
v 2.015728 26.939552 -9.453932
v -3.449328 31.537846 3.406076
v 3.153762 16.769875 -5.560888
v -0.015649 16.436697 0.771317
v -1.976869 18.497744 -10.744993
v -2.963709 21.443951 -10.689856
v 6.318857 27.284515 8.074162
v 9.474358 26.463861 2.872422
v -2.105770 30.472710 7.637659
v 7.533412 18.362225 -1.030380
v 0.304223 15.974525 -3.866579
v -1.440552 34.525345 2.863261
v 9.928451 23.169916 1.486264
v 5.723398 29.178345 -4.483050
v 1.518208 16.740797 -2.994497
v 3.262593 20.891792 9.917448
v -4.958744 17.532047 4.378444
v 0.657914 34.616863 1.338939
v -0.578197 16.539124 -8.254198
v 4.239958 24.017128 -9.684273
v 7.626700 24.403423 -7.910674
v -3.142905 31.854059 -5.221769
v -4.461314 18.529314 -8.443769
v -7.585576 22.439516 3.646896
v 3.106274 23.224352 10.893584
v 0.656830 18.547203 9.010470
v -5.396031 28.731722 4.903903
v -4.771846 16.115633 0.633035
v 7.573951 23.729565 7.713772
v 0.328420 15.803348 -3.864800
v -1.248219 18.965042 8.644079
v -5.596257 18.601576 -4.407749
v -2.080209 16.956589 -3.456391
v -0.756000 32.356476 5.500917
v 1.078477 32.952263 -5.360559
v -1.728699 33.299679 -6.046157
v 8.981779 20.378160 -0.192804
vn -0.8976 -0.3455 -0.2738
vn 0.7066 0.6171 0.3463
vn -0.2057 -0.9441 0.2576
vn -0.9078 0.2453 -0.3401
vn 0.3855 0.5281 0.7566
vn 0.3110 -0.9503 0.0148
vn 0.2916 -0.9550 0.0538
vn -0.9082 0.2440 -0.3401
vn -0.4542 -0.8250 -0.3363
vn -0.5591 -0.7843 0.2687
vn 0.1257 -0.9913 -0.0388
vn -0.5527 -0.0695 0.8305
vn -0.5110 -0.4082 0.7565
vn 0.9325 -0.3553 0.0650
vn 0.5289 -0.6054 0.5948
vn 0.7511 0.4815 -0.4516
vn 0.9634 -0.1943 -0.1848
vn -0.0373 -0.9848 -0.1696
vn 0.9208 -0.1858 -0.3430
vn 0.0982 -0.9231 0.3718
vn -0.6393 -0.6565 0.4003
vn -0.7346 -0.1962 0.6495
vn -0.7817 0.6104 0.1276
vn -0.9483 0.2852 -0.1394
vn -0.3054 -0.8729 -0.3805
vn -0.1642 0.7406 0.6516
vn 0.4793 0.8666 0.1389
vn 0.3715 -0.8149 -0.4449
vn 0.7138 0.6145 0.3360
vn -0.4280 -0.9013 0.0666
vn 0.5664 0.5555 -0.6088
vn 0.1075 -0.9854 -0.1319
vn -0.1668 0.9710 -0.1713
vn 0.0431 0.3553 -0.9338
vn -0.6054 0.3313 -0.7237
vn -0.9625 0.2187 0.1603
vn 0.5168 -0.0083 0.8561
vn 0.3941 0.8974 -0.1982
vn -0.8623 0.4910 -0.1239
vn -0.6319 -0.3773 -0.6770
vn -0.2521 -0.9634 0.0909
vn 0.7506 -0.6264 0.2102
vn 0.5728 0.6163 -0.5405
vn 0.3978 0.3690 -0.8400
vn 0.8483 0.4132 -0.3313
vn 0.9708 0.1934 -0.1416
vn -0.1860 -0.9507 0.2483
vn 0.2985 0.4042 0.8646
vn -0.8481 0.1968 0.4920
vn -0.1838 0.7548 0.6297
vn 0.0248 -0.3845 0.9228
vn 0.1373 -0.9526 0.2714
vn 0.2251 -0.9466 -0.2308
vn 0.5974 -0.3458 0.7235
vn 0.5847 -0.1285 0.8010
vn 0.4659 -0.0231 -0.8846
vn 0.9597 -0.2211 -0.1734
vn 0.7505 -0.6265 0.2102
vn -0.9047 0.3299 -0.2695
vn 0.0847 -0.9955 0.0427
vn 0.1155 0.3943 0.9117
vn -0.7859 -0.1194 0.6067
vn 0.2497 -0.1921 -0.9491
vn -0.1353 -0.6433 0.7536
vn -0.3446 -0.4244 0.8373
vn 0.6157 0.7044 0.3533
vn -0.7873 -0.1470 0.5988
vn 0.1159 0.4655 -0.8774
vn -0.1395 -0.9832 0.1178
vn 0.5752 -0.7661 -0.2868
vn 0.5163 -0.6903 -0.5070
vn -0.6377 -0.4442 0.6293
vn -0.3818 -0.9028 0.1982
vn -0.7099 0.3440 -0.6146
vn -0.4477 -0.8288 -0.3355
vn 0.8972 0.1260 0.4233
vn -0.6169 0.5218 0.5892
vn -0.7575 0.5679 0.3221
vn 0.3575 -0.1799 -0.9164
vn 0.6394 0.6766 0.3653
vn -0.5436 0.2694 0.7949
vn -0.1351 -0.3231 -0.9367
vn -0.3624 -0.8277 -0.4284
vn -0.1781 0.9771 -0.1167
vn -0.5552 -0.7857 0.2728
vn -0.4490 -0.8867 -0.1104
vn -0.9800 0.0120 0.1986
vn -0.2677 0.3017 -0.9150
vn -0.5795 0.3516 -0.7352
vn -0.6015 -0.1869 -0.7767
vn -0.6925 0.0475 -0.7199
vn -0.3227 -0.8780 0.3534
vn -0.2726 -0.8539 0.4434
vn -0.0177 -0.7908 -0.6119
vn -0.0991 0.0255 0.9948
vn -0.2551 -0.3854 0.8868
vn 0.9592 0.2376 -0.1535
vn 0.4578 -0.8431 0.2822
vn -0.2606 0.7999 0.5406
vn -0.9066 0.2471 0.3421
vn 0.3071 -0.6205 0.7216
vn -0.1134 0.5060 -0.8550
vn -0.7001 0.3240 0.6363
vn -0.9443 0.0601 -0.3235
vn 0.1347 0.9606 0.2432
vn 0.6972 0.1757 0.6950
vn -0.4958 0.0784 0.8649
vn 0.8002 -0.2860 0.5271
vn 0.3879 -0.2005 -0.8996
vn 0.8989 -0.0332 -0.4369
vn 0.8316 -0.5335 -0.1540
vn -0.5160 0.7775 0.3595
vn -0.7604 0.6435 -0.0876
vn 0.6001 0.6215 -0.5035
vn 0.5874 -0.7649 0.2644
vn -0.3980 -0.8164 -0.4185
vn -0.8733 -0.4251 -0.2380
vn 0.5643 -0.7396 0.3669
vn 0.5389 -0.5829 -0.6081
vn -0.6569 0.6550 0.3734
vn 0.2222 0.8490 -0.4795
vn 0.8448 0.2503 0.4730
vn -0.2377 0.4461 0.8628
vn 0.6942 0.5814 -0.4244
vn 0.0951 -0.9401 0.3273
vn -0.4027 -0.9141 -0.0465
vn -0.9258 -0.1398 0.3511
vn -0.8976 -0.4262 0.1126
vn 0.1741 0.9582 -0.2271
vn -0.7524 0.6338 -0.1793
vn -0.6076 0.3722 -0.7016
vn -0.1249 -0.0233 -0.9919
vn 0.9796 0.0536 0.1935
vn 0.4355 0.5135 -0.7394
vn -0.0485 -0.3511 0.9351
vn -0.3845 -0.3425 0.8573
vn 0.2429 0.2585 -0.9350
vn 0.6656 -0.5684 0.4836
vn 0.0076 0.9079 0.4191
vn 0.1092 0.2659 0.9578
vn -0.8680 0.4552 0.1982
vt 1.020094 0.264706
vt 1.018061 0.387383
vt 0.894945 0.430949
vt 0.510591 0.625411
vt 0.556349 0.744249
vt 0.562675 0.823265
vt 0.769746 0.054997
vt 0.357375 0.228585
vt 0.498314 0.039745
vt 0.998092 0.695858
vt 0.887529 0.632287
vt 0.971046 0.519895
vt 0.325118 0.752694
vt 0.392372 0.574129
vt 0.425973 0.622664
vt 0.757156 0.208105
vt 0.740651 0.299740
vt 0.578492 0.361269
vt 0.896585 0.767173
vt 0.937778 0.337279
vt 0.148574 0.295253
vt 0.117565 0.352376
vt 0.077072 0.191002
vt 0.999521 0.099783
vt 1.015119 0.218389
vt 0.936120 0.084723
vt 0.814670 0.185463
vt 0.805714 0.169490
vt 0.176545 0.438031
vt 0.540379 0.528968
vt 0.496579 0.501299
vt 0.559922 0.438984
vt 0.337741 0.268518
vt 0.449149 0.430584
vt 0.363377 0.427716
vt 0.671221 0.734025
vt 0.656573 0.433425
vt 0.644798 0.534050
vt 0.891593 0.244324
vt 0.692633 0.485692
vt 0.279713 0.033266
vt 0.234406 0.308587
vt 0.191621 0.051680
vt 0.265938 0.356413
vt 0.243684 0.477307
vt 0.205176 0.550189
vt 0.164349 0.707514
vt 0.190560 0.822165
vt 0.078349 0.690697
vt 0.068682 0.548042
vt 0.067818 0.426433
vt 0.384872 0.863542
vt 0.326832 0.913493
vt 0.285198 0.828701
vt 0.483809 0.919195
vt 0.825818 0.300332
vt 0.803728 0.346530
vt 0.797142 0.781519
vt 0.733057 0.825891
vt 0.953089 0.846041
vt 0.594419 0.954432
vt 0.820964 0.656468
vt 0.771969 0.607424
vt 0.808793 0.483002
vt 0.845529 0.805518
vt 0.114130 0.493152
vt 0.811094 0.176404
vt 0.839166 0.392913
vt 0.886680 0.370936
vt 0.343923 0.216179
vt 0.686060 0.546496
vt 0.756194 0.522899
vt 0.364909 0.762384
vt 0.310942 0.335164
vt 0.356194 0.496895
vt 0.056044 0.075742
vt 0.084104 0.072404
vt 0.440058 0.523916
vt 0.893859 0.497992
vt 0.307451 0.588909
vt 0.352999 0.229433
vt 0.157164 0.884415
vt 0.259522 0.741148
vt 0.058652 0.285542
vt 0.854939 0.465841
vt 0.297399 0.489932
vt 0.036277 0.749414
s 0
f 9/1/1 23/2/1 34/3/1
f 49/4/2 13/5/2 24/6/2
f 39/7/3 30/8/3 45/9/3
f 7/10/4 18/11/4 23/12/4
f 21/13/5 27/14/5 48/15/5
f 56/16/6 30/8/6 39/7/6
f 30/8/7 44/17/7 51/18/7
f 63/19/8 18/11/8 7/10/8
f 34/3/9 73/20/9 9/1/9
f 58/21/10 33/22/10 69/23/10
f 8/24/11 69/25/11 32/26/11
f 52/27/12 71/28/12 56/16/12
f 58/21/13 1/29/13 33/22/13
f 54/30/14 26/31/14 78/32/14
f 12/33/15 37/34/15 57/35/15
f 24/6/16 13/5/16 55/36/16
f 54/30/17 38/37/17 14/38/17
f 74/39/18 56/16/18 39/7/18
f 14/38/19 38/37/19 28/40/19
f 15/41/20 2/42/20 40/43/20
f 72/44/21 1/29/21 2/42/21
f 25/45/22 36/46/22 1/29/22
f 68/47/23 43/48/23 17/49/23
f 17/49/24 7/50/24 23/51/24
f 69/25/25 73/20/25 74/39/25
f 20/52/26 53/53/26 75/54/26
f 24/6/27 59/55/27 20/52/27
f 60/56/28 5/57/28 44/17/28
f 48/15/29 49/4/29 24/6/29
f 32/26/30 74/39/30 39/7/30
f 55/36/31 41/58/31 76/59/31
f 69/25/32 74/39/32 32/26/32
f 59/55/33 19/60/33 53/61/33
f 16/62/34 42/63/34 3/64/34
f 77/65/35 16/62/35 18/11/35
f 23/51/36 65/66/36 17/49/36
f 71/28/37 10/67/37 44/17/37
f 76/59/38 59/55/38 24/6/38
f 7/10/39 19/60/39 63/19/39
f 34/3/40 46/68/40 64/69/40
f 12/33/41 2/42/41 11/70/41
f 26/31/42 37/34/42 78/32/42
f 55/36/43 62/71/43 41/58/43
f 61/72/44 42/63/44 62/71/44
f 13/5/45 14/38/45 62/71/45
f 54/30/46 14/38/46 49/4/46
f 30/8/47 2/42/47 45/9/47
f 29/73/48 21/13/48 48/15/48
f 68/47/49 65/66/49 36/46/49
f 20/52/50 75/54/50 29/73/50
f 67/74/51 57/35/51 66/75/51
f 8/76/52 22/77/52 69/23/52
f 60/56/53 44/17/53 10/67/53
f 57/35/54 37/34/54 70/78/54 66/75/54
f 70/78/55 27/14/55 66/75/55
f 62/71/56 28/40/56 61/72/56
f 54/30/57 78/32/57 38/37/57
f 78/32/58 37/34/58 51/18/58
f 18/11/59 4/79/59 23/12/59
f 56/16/60 44/17/60 30/8/60
f 31/80/61 27/14/61 21/13/61
f 33/22/62 1/29/62 65/66/62
f 5/57/63 46/68/63 3/64/63
f 74/39/64 52/27/64 56/16/64
f 58/21/65 2/42/65 1/29/65
f 24/6/66 20/52/66 29/73/66
f 1/29/67 36/46/67 65/66/67
f 41/58/68 42/63/68 16/62/68
f 11/70/69 6/81/69 12/33/69
f 38/37/70 51/18/70 44/17/70
f 44/17/71 5/57/71 38/37/71
f 25/45/72 1/29/72 72/44/72
f 22/77/73 40/43/73 2/42/73
f 18/11/74 63/19/74 77/65/74
f 9/1/75 73/20/75 69/25/75
f 26/31/76 49/4/76 70/78/76
f 43/48/77 75/54/77 53/53/77
f 19/82/78 43/48/78 53/53/78
f 5/57/79 3/64/79 61/72/79
f 24/6/80 29/73/80 48/15/80
f 31/80/81 50/83/81 36/46/81
f 2/42/82 30/8/82 11/70/82
f 6/81/83 30/8/83 51/18/83
f 59/55/84 77/65/84 19/60/84
f 9/84/85 69/23/85 33/22/85
f 73/20/86 64/69/86 60/56/86
f 60/56/87 10/67/87 52/27/87
f 16/62/88 3/64/88 47/85/88
f 4/79/89 16/62/89 47/85/89
f 47/85/90 46/68/90 34/3/90
f 4/79/91 47/85/91 34/3/91
f 72/44/92 2/42/92 12/33/92
f 67/74/93 72/44/93 12/33/93
f 60/56/94 46/68/94 5/57/94
f 35/86/95 66/75/95 31/80/95
f 72/44/96 67/74/96 35/86/96
f 14/38/97 13/5/97 49/4/97
f 56/16/98 71/28/98 44/17/98
f 75/54/99 50/83/99 21/13/99
f 17/49/100 65/66/100 68/47/100
f 67/74/101 12/33/101 57/35/101
f 41/58/102 16/62/102 77/65/102
f 68/47/103 36/46/103 50/83/103
f 23/2/104 4/79/104 34/3/104
f 59/55/105 53/53/105 20/52/105
f 48/15/106 27/14/106 70/78/106
f 25/45/107 35/86/107 31/80/107 36/46/107
f 37/34/108 26/31/108 70/78/108
f 28/40/109 5/57/109 61/72/109
f 28/40/110 62/71/110 14/38/110
f 51/18/111 38/37/111 78/32/111
f 75/54/112 43/48/112 50/83/112
f 43/48/113 7/87/113 17/49/113
f 24/6/114 55/36/114 76/59/114
f 37/34/115 6/81/115 51/18/115
f 46/68/116 60/56/116 64/69/116
f 34/3/117 64/69/117 73/20/117
f 37/34/118 12/33/118 6/81/118
f 38/37/119 5/57/119 28/40/119
f 68/47/120 50/83/120 43/48/120
f 76/59/121 41/58/121 77/65/121
f 49/4/122 48/15/122 70/78/122
f 31/80/123 21/13/123 50/83/123
f 55/36/124 13/5/124 62/71/124
f 2/42/125 58/21/125 69/23/125 22/77/125
f 60/56/126 52/27/126 74/39/126 73/20/126
f 23/51/127 33/22/127 65/66/127
f 33/22/128 23/51/128 9/84/128
f 59/55/129 76/59/129 77/65/129
f 19/60/130 77/65/130 63/19/130
f 16/62/131 4/79/131 18/11/131
f 47/85/132 3/64/132 46/68/132
f 49/4/133 26/31/133 54/30/133
f 42/63/134 41/58/134 62/71/134
f 35/86/135 67/74/135 66/75/135
f 25/45/136 72/44/136 35/86/136
f 42/63/137 61/72/137 3/64/137
f 2/42/138 15/41/138 45/9/138
f 29/73/139 75/54/139 21/13/139
f 66/75/140 27/14/140 31/80/140
f 19/82/141 7/87/141 43/48/141
