# Blender 4.1.1
# www.blender.org
mtllib tree3(stem)lowpoly2.mtl
o Tree3.stem_lowpoly3
v -0.320753 13.902544 0.399010
v 1.783331 -0.126222 0.085235
v -1.788540 -0.063414 0.166016
v 1.108414 -0.104145 -1.764282
v 0.466944 12.407437 0.022051
v 0.175810 14.872552 -0.851291
v -1.588929 15.158662 -0.202292
v -1.684747 18.264977 -0.483085
v -0.488426 18.703766 0.407016
v -0.875919 15.458532 -1.119060
v -0.643265 18.506342 -0.629398
vn 0.7951 0.2838 0.5360
vn 0.9354 0.0965 -0.3402
vn 0.9887 0.0697 -0.1329
vn 0.3109 0.1276 -0.9418
vn -0.2428 0.9590 -0.1464
vn 0.9203 0.0315 0.3899
vn 0.9560 0.2268 -0.1860
vn -0.4420 -0.0169 0.8969
vn 0.0223 -0.0190 0.9996
vn -0.6085 0.0528 0.7918
vn -0.1755 0.1692 -0.9698
vn 0.2856 0.0760 -0.9553
vn -0.5545 -0.0362 -0.8314
vn -0.7886 -0.0045 -0.6148
vn -0.4060 0.0274 0.9135
vn 0.5196 0.0589 0.8524
vn -0.7738 -0.0807 -0.6282
vt 0.828597 0.488035
vt 0.820978 0.512412
vt 0.379572 0.638106
vt 0.710613 0.128260
vt 0.885553 0.052608
vt 0.848543 0.274886
vt 0.048842 0.738336
vt 0.950593 0.163076
vt 0.960346 0.202018
vt 0.968910 0.180177
vt 0.811028 0.487958
vt 0.820926 0.483337
vt 0.808264 0.499455
vt 0.776849 0.616452
vt 0.492883 0.855487
vt 0.626969 0.934606
vt 0.778413 0.960561
s 0
usemtl Material
f 6/1/1 1/2/1 5/3/1
f 4/4/2 5/5/2 2/6/2
f 6/7/3 5/3/3 4/4/3
f 11/8/4 6/9/4 10/10/4
f 8/11/5 9/12/5 11/8/5
f 9/12/6 1/2/6 6/1/6
f 11/8/7 9/12/7 6/1/7
f 7/13/8 1/2/8 9/12/8
f 3/14/9 2/6/9 1/2/9
f 9/12/10 8/11/10 7/13/10
f 10/15/11 8/11/11 11/8/11
f 4/4/12 10/15/12 6/7/12
f 4/4/13 3/16/13 10/15/13
f 3/16/14 7/17/14 10/15/14
f 7/13/15 3/14/15 1/2/15
f 2/6/16 5/3/16 1/2/16
f 10/15/17 7/17/17 8/11/17
