# Blender 4.1.1
# www.blender.org
mtllib Tree3_leaves.mtl
o Tree3.
v -4.945597 18.087257 4.874668
v -6.473683 21.782806 -4.721815
v -6.110521 22.033941 5.567177
v -2.444903 18.372652 5.995302
v -0.051700 16.372505 0.359273
v -0.129033 34.615780 0.668897
v 0.550742 24.751268 -10.584913
v -4.354137 22.343294 -9.322104
v 3.736445 20.506655 -9.162395
v 0.067888 28.077332 9.514142
v 6.018005 19.169380 5.300408
v -4.763083 30.230434 -1.416011
v 1.649953 16.670057 -6.981377
v -1.234277 16.571503 0.443643
v -7.611675 19.961393 3.296472
v -7.277943 18.636629 -0.883022
v -2.835450 33.505016 -1.096367
v 0.330272 15.756892 -3.865289
v 0.302313 15.696771 -3.847970
v 2.309506 21.885643 10.579800
v 8.525725 22.218508 5.720352
v 2.557028 17.074455 5.787090
v 2.372489 16.969835 5.605860
v -0.227552 18.643940 8.686424
v 2.231536 18.014202 7.946588
v 8.747074 28.157536 -0.097252
v 8.422385 23.105795 -6.340105
v 7.149581 18.194454 -2.125978
v -0.209495 16.492815 1.104089
v -0.195737 32.730614 -6.467850
v -0.877303 29.009125 -8.576709
v -6.170051 28.266720 2.920719
v -3.397243 27.357483 -7.439142
v -1.370957 17.259756 -9.229679
v -2.824005 31.708218 4.107535
v -2.684784 33.840660 1.390751
v 3.533368 21.232430 9.937949
v -5.170705 16.255173 0.946003
v -4.140992 16.272371 -0.160549
v 2.996165 33.389687 2.460303
v -2.252635 19.884756 -10.870584
v 4.418044 29.119772 7.918606
v 2.078525 28.222530 -8.519627
v 0.851243 30.359409 8.593245
v -2.585994 30.516136 6.906588
v -0.647092 16.393673 -0.073432
v -1.007534 16.499468 1.103334
v -7.557409 24.018612 2.490857
v -8.071368 21.592808 0.147153
v 3.711114 32.884083 -1.738994
v -4.884488 18.775833 -7.746573
v -2.717979 22.328163 9.377196
v 9.660413 23.239883 3.631198
v 8.778562 26.805620 3.922369
v 5.927152 25.173719 9.273100
v 8.681389 19.967779 -0.037897
v 6.783969 20.909054 -7.392624
v 1.477381 16.662842 -3.161276
v 1.581718 32.437294 5.968110
v 2.469794 17.240408 5.659757
v -4.797336 25.994272 7.180833
v 0.946526 26.046894 10.546049
v -2.185592 17.005894 -3.585823
v 6.990422 30.999350 0.169887
v -1.002940 16.495995 0.098800
v -6.356876 18.845774 4.345465
v -1.236899 16.549530 0.815654
v -7.921546 20.326262 -0.803056
v 0.266878 33.740528 4.441994
v 6.270479 31.539530 -1.111538
v 1.377084 34.112778 -0.607353
v 0.497348 16.006157 -5.717872
v 1.379981 19.231274 -10.099357
v -6.518050 19.853083 -4.322330
v -4.565268 20.244299 -9.476321
v 0.130994 17.361143 -9.494728
v -0.089441 21.120047 -11.058779
v -2.278976 22.521812 -10.709287
v -0.826124 23.851650 10.436678
v 3.631645 24.184780 10.668138
v -3.585234 24.341894 8.854135
v 7.550064 20.603741 5.552100
v 0.968746 18.050903 8.433897
v 2.246390 17.094299 6.586919
v 6.734395 28.879002 -3.197123
v 3.921393 18.803877 -7.906608
v 8.618308 24.402304 -5.513321
v 8.094434 20.814995 -5.621555
v 2.714217 31.009708 7.528892
v -0.292681 16.350368 0.036327
v 3.453034 17.018946 0.177198
v -0.601743 16.495737 1.214976
v 0.908360 30.422209 -7.768240
v 0.462881 28.590626 -8.784207
v -5.069335 29.807411 2.658093
v -4.197345 30.882397 1.640508
v 4.476459 17.257879 -4.876599
v -4.902651 23.916981 -7.502299
v -1.027122 16.472294 -6.666831
v -1.721284 33.424736 -5.414502
v -2.644582 32.876293 3.277366
v 7.132113 30.720095 -1.035897
v -0.015835 16.438332 0.771150
v -5.525744 17.408710 3.712857
v -1.145936 34.659721 2.385131
v 0.751812 34.422977 2.308825
v 1.544118 33.637188 4.185147
v -5.525435 22.223364 -7.389108
v -1.984918 18.366957 -10.444992
v -3.438756 21.070267 -10.391335
v 7.010234 26.470583 7.671018
v 5.488387 27.235373 8.714643
v 0.061927 17.660198 5.550422
v 1.227606 17.353203 7.404540
v 7.562419 23.087790 -8.009111
v 3.778608 24.530884 -9.799661
v 9.748021 25.648226 1.430435
v 8.781237 21.415577 -3.508711
v -3.631045 28.527504 7.309068
v 6.665700 18.463337 2.014617
v 2.062322 31.677547 -5.887835
v 4.364119 30.859962 5.834455
v 1.947335 28.448446 9.303232
v 7.640223 29.545433 1.930872
v -0.701594 16.329819 -4.028028
v -8.185597 22.074612 1.769662
v -7.400074 21.787600 -2.192174
v -4.734162 20.675718 6.271902
v -3.575017 32.837856 0.205807
v -1.706927 34.081242 3.305486
v -1.349187 26.867785 -9.412059
v -5.498095 18.873224 -5.980883
v -1.330708 20.529989 9.488013
v 9.458686 25.154278 3.685106
v 9.924602 23.703138 1.295081
v 9.493437 22.014675 3.169285
v 9.793796 22.621141 1.319674
v 4.708531 29.600113 -5.238101
v 5.358089 20.602133 -8.333853
v 2.516536 18.431828 -8.668294
v 2.498807 30.037498 8.429280
v 1.314287 31.413158 7.654116
v -1.197291 17.241081 3.264766
v 0.921180 16.752895 2.389616
v -4.965966 23.865862 7.568502
v 8.266197 20.635723 3.955832
v 3.809871 25.652321 10.308978
v 0.208301 16.542822 -3.552173
v 3.660911 18.021996 6.663682
v 8.116078 29.710213 0.231442
v 2.564609 20.120676 9.667893
v -3.895064 17.247023 3.917426
v 2.716690 33.740543 0.647571
v -0.107964 16.616419 -8.306087
v 2.625164 22.033670 -10.060631
v 6.213358 28.619308 6.471074
v 7.687851 28.300463 4.146384
v 7.541456 24.039637 -8.064586
v -0.851049 30.455965 8.188591
v -2.771941 31.158728 5.609600
v 4.280403 18.089863 5.616290
v -3.505614 31.895676 -3.910886
v -5.187328 25.939018 -4.296881
v -2.553415 16.282421 -0.398489
v 3.699160 16.901003 -3.939898
v -1.621295 16.764671 -2.438530
v -7.040941 26.250557 2.237162
v -7.751976 22.057436 3.399506
v -6.498268 17.970556 3.343438
v -1.072143 22.017948 -11.068217
v 1.274344 27.006468 -9.580628
v -3.040817 17.723976 -8.531606
v 9.041703 27.335518 2.213194
v 7.866268 29.919027 -0.674771
v 9.188318 25.725859 -1.982581
v 9.086898 23.218639 -3.659679
v 0.374928 33.682625 -4.008226
v 1.743822 32.964722 -4.319454
v -6.675968 24.116117 4.804090
v 1.735273 23.559143 10.912100
v -0.653600 32.377968 5.412220
v 1.114296 19.688873 9.726579
v -4.565578 29.772713 4.948309
v -2.731075 16.276129 0.486614
v 5.155773 32.411713 0.643495
v 7.892318 24.677790 7.043490
v 7.473277 23.724764 7.691104
v 6.742659 21.090225 7.204400
v 8.408357 26.952084 -2.934409
v 6.024302 22.202417 -8.694664
v 7.117215 25.214872 -7.663246
v 4.781128 17.532169 1.805431
v 2.207659 30.023867 -7.256021
v -5.956322 28.655117 0.729751
v 4.082802 26.774916 9.728220
v 4.465611 22.996868 10.134348
v 1.265030 16.735889 -1.605972
v -1.958068 25.427677 9.728552
v -0.218498 27.149734 -9.643888
v -2.182037 29.974766 -7.543946
v -2.991799 31.387171 -5.843481
v -3.754692 16.165354 1.132921
v -7.331334 24.149046 0.143128
v -8.203550 20.824825 1.813677
v -5.940283 18.996359 -4.502824
v -6.083439 16.827822 0.277780
v -8.062306 19.773254 1.164316
v 1.218630 16.221790 -4.630300
v 0.758969 16.073391 -3.602710
v -1.991435 34.101093 -1.360897
v -3.876443 24.704454 -8.700999
v 0.302240 15.905961 -3.845804
v -3.392756 18.597071 -9.797621
v -6.076526 19.952574 -6.034112
v 0.617956 17.483976 5.880101
v -1.309077 18.494789 7.716706
v -0.834067 18.710812 -10.800433
v -4.883902 18.160807 -4.305006
v -0.189301 16.812086 -3.080976
v 3.577137 19.158882 8.215405
v -3.743671 29.933462 -5.199273
v 3.323918 26.343197 -9.307119
v 7.936228 22.124990 -7.100896
v -0.765899 31.879053 6.485496
v 3.597426 32.361832 4.144810
v 4.757134 31.141714 -3.446638
v -6.300410 26.703873 4.563747
v -2.445816 33.109051 -4.619330
v 6.198049 31.156000 1.913969
v -0.516963 30.680815 -7.933582
v -2.179365 19.904741 8.517300
v 7.153764 19.540886 -5.465469
v -4.449925 22.436811 7.781342
v -1.622431 32.525032 -6.598262
v -1.311440 33.931961 -3.947973
v -0.180328 16.218910 -7.020324
v 6.617684 22.818106 8.343395
v 9.120260 20.817924 -0.421428
v 7.882773 19.332396 1.390643
v 5.482809 18.347549 -5.774950
v -4.652301 17.506393 4.352606
v 6.464876 27.251213 7.790133
v -1.701415 28.796951 8.626969
v 7.745004 24.688789 -7.443722
v -7.142860 18.104372 1.524244
v -2.554100 25.031136 -9.633234
v -5.689928 20.845366 -7.518049
v -6.659604 26.650089 0.263863
v 0.003657 22.042990 10.436317
v -0.000825 31.414211 7.643460
v -4.939149 28.393410 5.780798
vn 0.2428 -0.9044 -0.3509
vn -0.8926 -0.3252 -0.3122
vn -0.9314 0.2693 -0.2449
vn 0.4093 0.9055 0.1122
vn 0.3989 0.9033 -0.1579
vn 0.3977 0.8940 0.2065
vn 0.1762 0.8184 0.5470
vn 0.6301 0.7449 0.2194
vn 0.4821 -0.5440 -0.6868
vn 0.5360 -0.4805 -0.6941
vn 0.8364 0.5414 0.0860
vn 0.6992 0.6296 0.3388
vn 0.8669 -0.0438 0.4965
vn -0.3061 -0.8220 0.4802
vn -0.1665 -0.9806 0.1030
vn 0.2359 -0.0074 -0.9718
vn 0.4402 -0.3679 -0.8191
vn 0.4274 -0.0432 -0.9030
vn 0.6049 -0.4094 -0.6830
vn 0.9010 -0.4242 0.0908
vn 0.4682 -0.7203 -0.5118
vn 0.5336 -0.5739 -0.6212
vn -0.4684 0.7631 0.4452
vn -0.1253 0.9046 0.4074
vn 0.4504 0.5509 0.7026
vn 0.3226 -0.9459 0.0350
vn 0.1853 -0.9781 0.0945
vn -0.7975 0.4965 -0.3427
vn -0.8115 0.5839 0.0243
vn -0.6935 0.7047 0.1502
vn -0.8963 0.3247 -0.3019
vn -0.8659 0.3848 -0.3196
vn 0.3732 0.5328 0.7595
vn 0.1332 0.4297 0.8931
vn 0.2840 0.5600 0.7783
vn 0.1779 -0.9821 -0.0624
vn 0.3290 -0.9432 0.0467
vn 0.5239 -0.0148 0.8516
vn -0.8866 0.2298 -0.4014
vn -0.9073 0.2519 -0.3366
vn -0.8917 0.3190 -0.3210
vn -0.8655 0.2572 -0.4297
vn -0.9185 0.2888 -0.2702
vn 0.1209 -0.9924 0.0214
vn -0.9092 0.2459 0.3361
vn -0.8100 -0.4733 -0.3463
vn -0.5550 -0.7907 0.2584
vn -0.7721 -0.4206 0.4763
vn -0.9245 -0.3445 -0.1630
vn -0.9390 -0.2630 0.2217
vn 0.5749 -0.8060 0.1407
vn 0.1918 -0.9239 0.3310
vn 0.0054 -1.0000 -0.0060
vn -0.1222 0.8722 0.4737
vn -0.8121 0.3637 -0.4563
vn -0.9092 0.3162 -0.2710
vn -0.2933 -0.4356 0.8510
vn -0.4050 -0.1930 0.8937
vn -0.2398 -0.3776 0.8944
vn -0.5724 -0.7407 -0.3517
vn -0.9675 -0.0298 -0.2513
vn -0.8437 -0.4654 -0.2675
vn 0.1096 0.1096 -0.9879
vn -0.5521 -0.8208 -0.1466
vn -0.3353 -0.4348 0.8358
vn -0.0573 -0.8869 0.4584
vn 0.5948 -0.6328 0.4958
vn -0.4969 -0.3804 0.7800
vn 0.9184 -0.3951 0.0196
vn 0.7199 -0.4865 0.4950
vn 0.5347 -0.5333 0.6555
vn 0.9030 0.4001 -0.1567
vn 0.7292 0.4274 -0.5345
vn 0.8364 0.2600 -0.4825
vn 0.9731 -0.1773 -0.1472
vn 0.0692 -0.9860 0.1516
vn 0.5829 0.6311 0.5118
vn 0.0359 -0.9867 -0.1584
vn -0.0875 -0.9956 0.0348
vn -0.8325 0.1624 0.5297
vn -0.0587 0.7924 -0.6072
vn -0.0303 0.3646 -0.9307
vn 0.1941 0.5503 -0.8121
vn 0.4544 -0.5635 0.6899
vn 0.2363 -0.4189 0.8768
vn 0.3902 -0.6188 0.6818
vn 0.7669 -0.5955 -0.2391
vn 0.9267 -0.2267 -0.2999
vn 0.4678 0.7378 0.4866
vn 0.0962 -0.9261 0.3647
vn -0.6015 -0.6531 0.4601
vn -0.7693 -0.1868 0.6110
vn -0.7029 0.1810 0.6879
vn -0.7852 0.5920 0.1817
vn -0.5238 0.8396 -0.1440
vn -0.9409 0.3308 -0.0722
vn -0.2866 -0.8902 -0.3542
vn -0.2775 0.6746 0.6841
vn 0.4763 0.8740 0.0957
vn 0.6088 0.7933 -0.0076
vn 0.3587 -0.8218 -0.4427
vn -0.0377 -0.8434 -0.5360
vn 0.3248 0.0659 -0.9435
vn 0.5866 0.6291 0.5101
vn 0.6896 0.6338 0.3505
vn -0.2798 -0.9592 -0.0407
vn 0.7327 0.5904 -0.3383
vn -0.3189 0.3161 0.8935
vn 0.6656 -0.5906 -0.4562
vn -0.0835 -0.9892 -0.1208
vn 0.4307 -0.8960 0.1085
vn 0.5791 0.5493 -0.6024
vn 0.0036 -0.9782 -0.2074
vn 0.0895 -0.9777 -0.1902
vn -0.0303 -0.9695 -0.2430
vn -0.1483 0.9825 -0.1130
vn -0.5905 0.8038 -0.0727
vn 0.2539 0.5351 -0.8057
vn 0.0759 0.3852 -0.9197
vn -0.2593 0.2796 -0.9245
vn -0.6351 0.2658 -0.7253
vn 0.0995 -0.9023 0.4194
vn -0.9441 0.2111 0.2534
vn 0.4155 -0.9045 -0.0962
vn -0.3494 -0.9078 -0.2321
vn 0.3675 0.9030 -0.2225
vn -0.8719 0.4739 -0.1232
vn -0.7466 -0.4329 -0.5052
vn -0.1699 0.2685 -0.9482
vn -0.5513 0.2674 -0.7903
vn -0.2770 -0.9604 0.0284
vn -0.1996 -0.2970 -0.9338
vn 0.9251 0.3794 0.0170
vn 0.7837 -0.5943 0.1809
vn 0.6341 -0.7246 0.2699
vn 0.8963 -0.2581 0.3606
vn -0.9335 -0.0325 -0.3570
vn 0.5557 0.6148 -0.5597
vn 0.4637 0.4316 -0.7737
vn 0.5431 -0.7952 0.2697
vn 0.4302 0.3357 -0.8380
vn 0.2765 0.5215 -0.8072
vn 0.9705 0.0070 -0.2409
vn 0.8931 0.3354 -0.2997
vn 0.9822 0.1002 -0.1588
vn -0.1773 -0.9577 0.2267
vn -0.2139 -0.9331 0.2890
vn 0.3714 -0.9274 -0.0451
vn 0.3891 0.3366 0.8575
vn 0.6001 0.5982 -0.5311
vn 0.4681 0.7273 -0.5019
vn 0.3967 0.8757 -0.2751
vn 0.3497 0.8435 -0.4076
vn -0.8340 0.1698 0.5250
vn 0.9077 0.3087 0.2841
vn 0.4625 0.1574 0.8726
vn 0.1702 -0.1354 0.9761
vn -0.1989 0.6540 0.7299
vn -0.5576 -0.3849 0.7354
vn -0.8564 0.3800 0.3495
vn -0.7165 0.6957 -0.0505
vn 0.1650 -0.4338 0.8858
vn -0.6692 0.3830 -0.6368
vn 0.1917 -0.9798 -0.0565
vn -0.9594 0.0876 -0.2680
vn 0.2935 0.9552 -0.0387
vn -0.3262 -0.8904 -0.3174
vn 0.1347 0.9345 0.3296
vn 0.5815 0.7675 0.2697
vn 0.1256 0.9909 0.0490
vn -0.2174 -0.9679 -0.1262
vn 0.4927 -0.7160 -0.4946
vn -0.1828 -0.0102 0.9831
vn -0.3179 -0.9122 -0.2584
vn 0.2356 -0.9322 -0.2749
vn 0.7928 0.5378 0.2868
vn 0.7580 0.1325 0.6386
vn 0.5755 -0.4048 0.7106
vn 0.7320 -0.3146 0.6044
vn 0.6427 -0.1108 0.7581
vn 0.2195 -0.7960 0.5641
vn 0.3751 -0.1488 -0.9150
vn 0.4152 -0.0310 -0.9092
vn 0.5595 -0.4014 -0.7252
vn 0.8882 -0.0470 -0.4571
vn 0.9714 -0.1757 -0.1598
vn 0.8401 -0.5088 -0.1881
vn 0.4632 -0.4929 -0.7366
vn -0.4481 0.8316 0.3281
vn 0.2183 0.6149 0.7578
vn 0.2782 0.8007 0.5305
vn 0.2085 -0.9750 0.0768
vn -0.7858 0.6185 0.0051
vn 0.6252 0.5881 -0.5131
vn 0.4993 0.7405 -0.4498
vn 0.6399 -0.7174 0.2753
vn 0.7893 -0.5869 0.1802
vn 0.6602 -0.7440 0.1031
vn -0.9022 0.3099 -0.3000
vn 0.4780 0.3178 0.8188
vn 0.1078 -0.9933 0.0422
vn 0.1404 0.4083 0.9020
vn 0.0097 0.4564 0.8897
vn 0.3126 -0.2379 0.9196
vn -0.0066 -0.9967 -0.0805
vn -0.5486 -0.5817 0.6006
vn -0.7972 0.0048 0.6037
vn -0.7949 -0.0828 0.6010
vn -0.9937 -0.0586 -0.0959
vn -0.5506 0.8169 -0.1719
vn -0.6876 0.4774 0.5472
vn 0.5821 -0.8001 0.1448
vn 0.0922 -0.9864 0.1361
vn -0.8215 0.2848 -0.4939
vn -0.5495 0.8163 0.1781
vn -0.3870 -0.7882 -0.4784
vn -0.4385 -0.3135 -0.8423
vn -0.8422 -0.4878 -0.2297
vn -0.0390 -0.0834 -0.9958
vn 0.3387 -0.2032 -0.9187
vn -0.1694 -0.8382 0.5185
vn -0.6030 -0.7895 -0.1146
vn -0.6749 -0.2180 0.7050
vn 0.4833 -0.6936 0.5342
vn -0.3286 -0.4277 0.8421
vn 0.9848 -0.1452 0.0957
vn 0.2227 -0.5171 -0.8265
vn 0.5628 -0.6792 0.4711
vn 0.7518 0.6567 -0.0604
vn 0.9508 -0.1978 -0.2386
vn 0.6977 0.4956 -0.5174
vn 0.8582 -0.4942 -0.1385
vn 0.4607 0.7762 0.4304
vn 0.0260 -0.9840 0.1762
vn 0.6214 0.7040 0.3438
vn -0.0157 -0.9940 -0.1083
vn -0.7099 0.5383 -0.4542
vn -0.8514 -0.0395 0.5231
vn 0.2132 0.4338 -0.8755
vn 0.6669 -0.5321 -0.5217
vn 0.3607 -0.9184 0.1629
vn 0.5554 -0.6271 -0.5462
vn 0.5809 -0.7578 -0.2971
vn 0.4738 -0.7463 -0.4676
vn -0.6791 -0.4115 0.6079
vn 0.5060 0.8048 0.3105
vn -0.0955 -0.9441 0.3155
vn -0.6397 -0.3794 0.6685
vn -0.6680 -0.1111 0.7358
vn -0.6805 0.7026 0.2080
vn -0.7291 0.3141 -0.6081
vn 0.1391 0.9164 -0.3753
vn -0.6475 0.6419 0.4108
vn -0.1367 -0.9230 0.3598
vn -0.1157 -0.8060 0.5805
vn -0.6237 -0.7047 -0.3383
vn -0.3575 -0.7177 0.5976
vn -0.9500 0.2748 -0.1485
vn -0.3289 -0.8802 -0.3421
vn 0.8924 0.0286 0.4503
vn 0.8565 0.2796 0.4338
vn -0.5765 0.4919 0.6525
vn 0.4798 0.8694 -0.1185
vn -0.7533 0.5789 0.3120
vn 0.6906 0.7182 -0.0852
vn 0.6409 0.3291 0.6935
vn 0.3876 -0.1597 -0.9079
vn 0.4488 -0.1873 -0.8738
vn 0.6663 0.6525 0.3610
vn 0.5795 0.5966 0.5552
vn 0.7888 0.4956 0.3636
vn 0.7615 0.5037 0.4079
vn -0.5352 0.4438 0.7187
vn -0.5964 0.2685 0.7564
vn -0.2346 0.4025 0.8849
vn -0.3192 0.3164 0.8933
vn -0.1732 -0.6400 -0.7486
vn 0.6865 0.5926 -0.4214
vn 0.9099 0.1106 -0.3998
vn -0.4944 0.0227 0.8690
vn 0.6036 0.4440 -0.6622
vn -0.6011 0.3065 0.7381
vn 0.4198 -0.8885 0.1852
vn -0.3047 0.1996 0.9313
vn 0.5429 -0.7927 0.2773
vn 0.4474 0.5924 -0.6700
vn 0.0535 0.4928 -0.8685
vn 0.4457 0.4925 -0.7476
vn -0.4543 0.8903 -0.0302
vn -0.1566 0.9820 -0.1054
vn -0.3291 0.4053 -0.8529
vn 0.1000 -0.9314 0.3500
vn -0.9523 -0.0402 0.3024
vn -0.1058 -0.9287 0.3554
vn -0.6412 -0.7434 0.1903
vn -0.9972 0.0117 -0.0737
vn -0.8590 -0.4500 0.2443
vn -0.8379 -0.5410 -0.0726
vn -0.4837 -0.8668 -0.1213
vn 0.4259 -0.8987 -0.1043
vn -0.4015 -0.9158 0.0077
vn -0.5359 -0.8440 0.0205
vn 0.1548 0.9719 -0.1772
vn -0.7901 0.5940 -0.1515
vn -0.5730 0.4428 -0.6896
vn -0.2501 0.3257 -0.9118
vn -0.5685 0.2917 -0.7692
vn -0.5285 -0.2074 -0.8232
vn -0.6779 0.1215 -0.7250
vn -0.8462 0.1334 -0.5158
vn -0.8663 -0.2924 -0.4051
vn -0.9557 0.0601 -0.2880
vn -0.2950 0.0554 -0.9539
vn -0.3242 -0.9303 0.1719
vn -0.3120 -0.8231 0.4746
vn -0.0381 -0.7275 -0.6851
vn 0.9239 0.3191 0.2112
vn 0.3660 -0.4985 -0.7858
vn 0.9864 0.0899 0.1377
vn 0.7893 -0.5102 0.3416
vn -0.9651 0.2393 -0.1063
vn -0.9235 0.3788 -0.0603
vn -0.8985 0.3545 -0.2589
vn 0.4418 0.5352 -0.7200
vn -0.9081 0.2597 -0.3286
vn 0.5164 -0.8224 0.2387
vn 0.6622 0.6068 -0.4396
vn -0.0787 -0.2804 0.9567
vn 0.4549 -0.7353 0.5024
vn -0.1807 0.0156 0.9834
vn -0.3735 -0.2018 0.9054
vn -0.2337 -0.4324 0.8708
vn 0.2377 0.3216 -0.9166
vn 0.9804 0.0806 -0.1798
vn 0.8316 0.4624 -0.3076
vn 0.9292 0.3165 -0.1907
vn -0.1141 -0.9592 0.2588
vn 0.2921 -0.9482 -0.1248
vn 0.0918 0.3926 0.9151
vn 0.1899 -0.9491 0.2515
vn -0.0862 0.6273 0.7740
vn -0.0684 0.8789 0.4721
vn -0.4099 0.7099 0.5727
vn 0.5553 0.7130 -0.4280
vn -0.9315 0.2033 0.3015
vn -0.9193 0.3190 0.2305
vn 0.7181 0.6431 0.2660
vn 0.0894 0.1930 0.9771
vn -0.4408 -0.5919 0.6747
vn -0.8951 0.4112 0.1722
vn -0.6195 -0.6403 0.4542
vn -0.8522 0.4583 0.2524
vn 0.2404 -0.6271 0.7409
vn -0.3652 0.3965 -0.8422
vn -0.1352 -0.6064 0.7836
vn -0.0097 0.5826 -0.8127
vn -0.7748 0.2838 0.5649
vn -0.6933 0.4869 0.5313
vn -0.8361 0.4299 0.3408
vt 0.103529 0.070093
vt 0.070937 0.121441
vt 0.079786 0.072917
vt 1.020893 0.303223
vt 1.016635 0.363424
vt 0.955779 0.389974
vt 0.068682 0.548042
vt 0.048069 0.493802
vt 0.055014 0.454669
vt 0.461990 0.868024
vt 0.521896 0.890628
vt 0.427186 0.910092
vt 0.579118 0.907148
vt 0.623846 0.857332
vt 0.394958 0.864014
vt 0.355481 0.810645
vt 0.345342 0.867185
vt 0.528096 0.843144
vt 0.494714 0.801538
vt 0.540839 0.804066
vt 0.789356 0.387925
vt 0.773420 0.353933
vt 0.810758 0.336088
vt 0.752333 0.418169
vt 0.558212 0.688661
vt 0.508462 0.732109
vt 0.518854 0.654741
vt 0.480080 0.685968
vt 0.453155 0.556572
vt 0.440575 0.520442
vt 0.466934 0.485684
vt 0.319201 0.275794
vt 0.316486 0.313722
vt 0.293472 0.339544
vt 0.341713 0.245944
vt 0.343923 0.216179
vt 0.754667 0.529529
vt 0.770842 0.459298
vt 0.798835 0.529493
vt 0.718598 0.467850
vt 0.726189 0.424566
vt 0.690247 0.503018
vt 0.690293 0.531612
vt 0.674888 0.478328
vt 0.696508 0.438272
vt 0.553724 0.421922
vt 0.565916 0.455482
vt 0.539311 0.509911
vt 0.743955 0.376568
vt 0.784026 0.292124
vt 0.242780 0.757980
vt 0.285935 0.798593
vt 0.225416 0.796862
vt 0.285132 0.831428
vt 0.366917 0.747415
vt 0.357323 0.715206
vt 0.396454 0.685035
vt 0.497186 0.277568
vt 0.600126 0.210693
vt 0.607344 0.358087
vt 0.716913 0.046227
vt 0.436353 0.130550
vt 0.880250 0.755692
vt 0.919399 0.793670
vt 0.879796 0.820462
vt 0.081301 0.699375
vt 0.128501 0.767111
vt 0.058789 0.724395
vt 0.129911 0.798598
vt 0.210730 0.830257
vt 0.995207 0.611515
vt 0.940733 0.607596
vt 0.971046 0.519895
vt 0.902229 0.531086
vt 0.883277 0.634261
vt 0.382734 0.607858
vt 0.409120 0.619272
vt 0.374131 0.568271
vt 0.323790 0.590892
vt 0.347212 0.668679
vt 0.737891 0.164716
vt 0.717078 0.275944
vt 0.368856 0.523491
vt 0.383418 0.486134
vt 0.411642 0.553555
vt 0.919653 0.726253
vt 0.999395 0.758760
vt 0.089548 0.164510
vt 0.086742 0.564326
vt 0.107487 0.480755
vt 0.144767 0.550323
vt 0.943690 0.354815
vt 0.130887 0.292514
vt 0.113679 0.318704
vt 0.077692 0.209796
vt 0.136663 0.350527
vt 0.105460 0.397194
vt 0.067170 0.377497
vt 0.045430 0.376480
vt 0.035845 0.298291
vt 0.077623 0.428901
vt 0.790719 0.189147
vt 0.781766 0.225355
vt 0.755274 0.212292
vt 0.999521 0.099783
vt 0.995980 0.149534
vt 0.953085 0.088753
vt 0.954594 0.149942
vt 1.004484 0.210909
vt 0.354788 0.925488
vt 0.293545 0.899211
vt 0.877588 0.553424
vt 0.911070 0.482742
vt 0.950140 0.459082
vt 0.813952 0.184823
vt 0.811410 0.208966
vt 0.805834 0.169007
vt 0.863957 0.390858
vt 0.864668 0.349638
vt 0.896734 0.384699
vt 0.927778 0.409130
vt 0.920772 0.371163
vt 0.809611 0.442101
vt 0.823677 0.467434
vt 0.928304 0.309178
vt 0.842331 0.210134
vt 0.825387 0.230258
vt 0.372150 0.369362
vt 0.373114 0.299371
vt 0.432263 0.358811
vt 0.164788 0.321943
vt 0.194872 0.402514
vt 0.507936 0.486562
vt 0.426672 0.435532
vt 0.453241 0.424295
vt 0.369197 0.442244
vt 0.573516 0.774727
vt 0.543332 0.754542
vt 0.585779 0.809609
vt 0.699762 0.746196
vt 0.635458 0.718773
vt 0.541400 0.547204
vt 0.614360 0.478597
vt 0.617435 0.520762
vt 0.498313 0.039747
vt 0.412192 0.753725
vt 0.878163 0.157413
vt 0.198961 0.532676
vt 0.197438 0.616141
vt 0.845137 0.780608
vt 0.850298 0.822657
vt 0.800530 0.793995
vt 0.822274 0.673257
vt 0.814617 0.724815
vt 0.796517 0.663209
vt 0.787370 0.724571
vt 0.348968 0.391745
vt 0.345488 0.455264
vt 0.341400 0.305986
vt 0.664972 0.404815
vt 0.652467 0.446446
vt 0.658941 0.510790
vt 0.430133 0.820152
vt 0.279713 0.033266
vt 0.224118 0.169673
vt 0.191621 0.051680
vt 0.254321 0.382347
vt 0.232605 0.316026
vt 0.209653 0.479976
vt 0.160842 0.468463
vt 0.232253 0.552623
vt 0.174823 0.747818
vt 0.804581 0.863108
vt 0.079835 0.483768
vt 0.895501 0.248224
vt 0.596153 0.833296
vt 0.816753 0.301758
vt 0.835724 0.335262
vt 0.439837 0.683031
vt 0.292389 0.277877
vt 0.304328 0.253891
vt 0.610843 0.641316
vt 0.271527 0.586737
vt 0.308288 0.662988
vt 0.811781 0.061975
vt 0.906648 0.077723
vt 0.498285 0.351648
vt 0.761143 0.725679
vt 0.742242 0.781761
vt 0.489612 0.955922
vt 0.813900 0.903887
vt 0.594419 0.954432
vt 0.906672 0.899444
vt 0.787030 0.939416
vt 0.769697 0.659143
vt 0.785277 0.606932
vt 0.810028 0.609077
vt 0.832804 0.603488
vt 0.857721 0.705111
vt 0.153235 0.260575
vt 0.806760 0.237602
vt 0.836611 0.272237
vt 0.742911 0.853631
vt 0.963911 0.840605
vt 0.881525 0.434363
vt 0.842456 0.485390
vt 0.879577 0.489462
vt 0.861212 0.456019
vt 0.843203 0.423003
vt 0.823069 0.386748
vt 0.841517 0.381757
vt 0.536809 0.602402
vt 0.482177 0.431548
vt 0.504038 0.528363
vt 0.989849 0.428987
vt 0.688603 0.574739
vt 0.753778 0.587696
vt 0.384621 0.278013
vt 0.646880 0.554723
vt 0.592098 0.603435
vt 0.681207 0.556816
vt 0.352250 0.227812
vt 0.707516 0.320022
vt 0.663219 0.814299
vt 0.720860 0.829145
vt 0.136221 0.647378
vt 0.336210 0.508834
vt 0.275824 0.411984
vt 0.250445 0.476776
vt 0.227276 0.872116
vt 0.077674 0.904061
vt 0.105887 0.850650
vt 0.200462 0.912927
vt 0.318701 0.379808
vt 0.056044 0.075742
vt 1.029557 0.398893
vt 1.022137 0.228087
vt 1.019881 0.254448
vt 0.811094 0.176412
vt 0.819801 0.266975
vt 0.494592 0.639123
vt 0.442597 0.593771
vt 0.422896 0.488791
vt 0.338275 0.765410
vt 0.323924 0.730030
vt 0.036277 0.749414
vt 0.522869 0.395116
vt 0.067538 0.164686
vt 0.353076 0.229556
vt 0.699970 0.362409
vt 0.156668 0.290141
vt 0.503914 0.584782
vt 0.430588 0.625946
vt 0.269383 0.693283
vt 0.287998 0.741596
vt 0.221953 0.694562
vt 0.289342 0.524870
vt 0.076582 0.314239
vt 0.060550 0.270841
vt 0.851672 0.554476
vt 0.911132 0.446216
vt 0.267531 0.326590
vt 0.998792 0.645441
vt 1.002712 0.672495
vt 0.998131 0.670962
vt 1.003014 0.729155
vt 1.006632 0.699549
vt 0.303600 0.463043
vt 0.309182 0.770848
vt 0.084021 0.631851
vt 0.178029 0.696988
s 0
f 47/1/1 184/2/1 67/3/1
f 16/4/2 68/5/2 74/6/2
f 203/7/3 127/8/3 49/9/3
f 40/10/4 153/11/4 106/12/4
f 71/13/5 153/11/5 50/14/5
f 106/12/6 107/15/6 40/10/6
f 59/16/7 107/15/7 69/17/7
f 185/18/8 229/19/8 64/20/8
f 73/21/9 140/22/9 76/23/9
f 140/22/10 73/21/10 9/24/10
f 26/25/11 124/26/11 173/27/11
f 157/28/12 124/26/12 229/19/12
f 186/29/13 187/30/13 21/31/13
f 114/32/14 83/33/14 24/34/14
f 84/35/15 114/32/15 23/36/15
f 116/37/16 155/38/16 7/39/16
f 190/40/17 139/41/17 9/24/17
f 115/42/18 190/40/18 158/43/18
f 115/42/19 223/44/19 57/45/19
f 56/46/20 238/47/20 137/48/20
f 140/22/21 86/49/21 13/50/21
f 86/49/22 139/41/22 57/45/22
f 45/51/23 224/52/23 160/53/23
f 181/54/24 224/52/24 59/16/24
f 89/55/25 141/56/25 42/57/25
f 192/58/26 91/59/26 28/60/26
f 5/61/27 91/59/27 144/62/27
f 201/63/28 162/64/28 228/65/28
f 32/66/29 95/67/29 194/68/29
f 96/69/30 95/67/30 35/70/30
f 203/71/31 163/72/31 127/73/31
f 98/74/32 163/72/32 33/75/32
f 42/57/33 195/76/33 112/77/33
f 147/78/34 195/76/34 62/79/34
f 123/80/35 195/76/35 42/57/35
f 197/81/36 91/59/36 5/61/36
f 91/59/37 165/82/37 28/60/37
f 80/83/38 196/84/38 55/85/38
f 163/72/39 221/86/39 33/75/39
f 221/86/40 163/72/40 203/71/40
f 201/63/41 221/86/41 162/64/41
f 221/86/42 201/63/42 33/75/42
f 162/64/43 221/86/43 12/87/43
f 202/88/44 184/2/44 47/1/44
f 48/89/45 168/90/45 179/91/45
f 74/6/46 205/92/46 16/4/46
f 104/93/47 169/94/47 38/95/47
f 169/94/48 66/96/48 15/97/48
f 207/98/49 68/99/49 16/100/49
f 204/101/50 207/98/50 15/97/50
f 209/102/51 208/103/51 58/104/51
f 14/105/52 184/106/52 65/107/52
f 164/108/53 184/106/53 39/109/53
f 69/17/54 105/110/54 130/111/54
f 211/112/55 98/74/55 33/75/55
f 98/74/56 108/113/56 2/114/56
f 212/115/57 209/102/57 148/116/57
f 18/117/58 209/102/58 212/115/58
f 148/116/59 209/102/59 58/104/59
f 213/118/60 172/119/60 51/120/60
f 2/114/61 214/121/61 74/6/61
f 132/122/62 214/121/62 51/120/62
f 77/123/63 170/124/63 7/39/63
f 51/120/64 218/125/64 132/122/64
f 212/115/65 148/116/65 125/126/65
f 219/127/66 148/116/66 58/104/66
f 220/128/67 149/129/67 11/130/67
f 1/131/68 128/132/68 66/96/68
f 137/48/69 136/133/69 56/46/69
f 21/31/70 188/134/70 82/135/70
f 220/128/71 188/134/71 37/136/71
f 26/25/72 174/137/72 150/138/72
f 102/139/73 174/137/73 138/140/73
f 85/141/74 174/137/74 26/25/74
f 135/142/75 118/143/75 176/144/75
f 144/62/76 103/145/76 5/61/76
f 122/146/77 89/55/77 42/57/77
f 166/147/78 197/81/78 5/61/78
f 58/104/79 197/81/79 219/127/79
f 179/91/80 145/148/80 61/149/80
f 234/150/81 100/151/81 30/152/81
f 31/153/82 230/154/82 94/155/82
f 93/156/83 230/154/83 30/152/83
f 37/136/84 151/157/84 220/128/84
f 20/158/85 151/157/85 37/136/85
f 220/128/86 151/157/86 25/159/86
f 232/160/87 88/161/87 28/60/87
f 27/162/88 88/161/88 223/44/88
f 225/163/89 107/15/89 59/16/89
f 29/164/90 143/165/90 92/166/90
f 231/167/91 128/132/91 4/168/91
f 233/169/92 145/148/92 3/170/92
f 61/149/93 145/148/93 81/171/93
f 183/172/94 95/67/94 32/66/94
f 228/65/95 235/173/95 100/151/95
f 48/89/96 203/7/96 126/174/96
f 39/109/97 218/125/97 63/175/97
f 69/17/98 130/111/98 181/54/98
f 185/18/99 153/11/99 40/10/99
f 70/176/100 185/18/100 64/20/100
f 154/177/101 76/23/101 13/50/101
f 34/178/102 76/23/102 154/177/102
f 155/38/103 77/123/103 7/39/103
f 42/57/104 156/179/104 122/146/104
f 156/179/105 157/28/105 229/19/105
f 113/180/106 215/181/106 4/168/106
f 189/182/107 85/141/107 26/25/107
f 198/183/108 62/79/108 10/184/108
f 90/185/109 166/147/109 5/61/109
f 46/186/110 166/147/110 90/185/110
f 120/187/111 192/58/111 28/60/111
f 138/140/112 193/188/112 121/189/112
f 63/175/113 166/147/113 39/109/113
f 164/108/114 166/147/114 46/186/114
f 39/109/115 166/147/115 164/108/115
f 6/190/116 210/191/116 105/192/116
f 210/191/117 17/193/117 36/194/117
f 43/195/118 171/196/118 94/155/118
f 199/197/119 171/196/119 7/39/119
f 131/198/120 199/197/120 7/39/120
f 200/199/121 131/198/121 33/75/121
f 152/200/122 143/165/122 4/168/122
f 126/174/123 168/90/123 48/89/123
f 208/103/124 72/201/124 13/50/124
f 34/178/125 99/202/125 172/119/125
f 177/203/126 71/13/126 50/14/126
f 12/87/127 129/204/127 162/64/127
f 75/205/128 213/118/128 51/120/128
f 170/124/129 78/206/129 7/39/129
f 8/207/130 78/206/130 110/208/130
f 114/32/131 215/181/131 23/36/131
f 41/209/132 217/210/132 109/211/132
f 173/27/133 117/212/133 26/25/133
f 136/133/134 146/213/134 56/46/134
f 11/130/135 146/213/135 82/135/135
f 136/133/136 53/214/136 21/31/136
f 127/215/137 2/114/137 74/6/137 68/5/137
f 138/140/138 191/216/138 193/188/138
f 222/217/139 191/216/139 158/43/139
f 149/129/140 161/218/140 11/130/140
f 116/37/141 222/217/141 158/43/141
f 43/195/142 222/217/142 171/196/142
f 27/162/143 87/219/143 176/144/143
f 189/182/144 175/220/144 244/221/144
f 135/142/145 175/220/145 117/212/145
f 60/222/146 113/180/146 144/62/146
f 143/165/147 113/180/147 4/168/147
f 165/82/148 97/223/148 28/60/148
f 141/56/149 123/80/149 42/57/149
f 138/140/150 121/189/150 226/224/150
f 178/225/151 121/189/151 30/152/151
f 178/225/152 177/203/152 50/14/152
f 177/203/153 178/225/153 30/152/153
f 227/226/154 179/91/154 61/149/154
f 150/138/155 124/26/155 26/25/155
f 147/78/156 80/83/156 55/85/156
f 80/83/157 180/227/157 20/158/157
f 69/17/158 181/54/158 59/16/158
f 231/167/159 133/228/159 52/229/159
f 35/70/160 101/230/160 96/69/160
f 17/231/161 129/232/161 36/233/161
f 182/234/162 151/157/162 20/158/162
f 201/63/163 234/150/163 200/199/163
f 14/235/164 67/3/164 184/2/164
f 49/236/165 127/215/165 68/5/165
f 71/13/166 6/190/166 106/12/166 153/11/166
f 39/109/167 38/237/167 206/238/167
f 106/12/168 105/110/168 69/17/168 107/15/168
f 185/18/169 40/10/169 225/163/169 229/19/169
f 6/190/170 105/110/170 106/12/170
f 72/201/171 19/239/171 99/202/171 236/240/171
f 13/50/172 76/23/172 140/22/172
f 19/239/173 212/115/173 125/126/173
f 99/202/174 34/178/174 154/177/174 236/240/174
f 236/240/175 154/177/175 13/50/175 72/201/175
f 124/26/176 157/28/176 54/241/176 173/27/176
f 111/242/177 55/85/177 187/30/177 186/29/177
f 237/243/178 196/84/178 37/136/178 188/134/178
f 188/134/179 21/31/179 187/30/179 237/243/179
f 237/243/180 187/30/180 55/85/180 196/84/180
f 114/32/181 84/35/181 25/159/181 83/33/181
f 190/40/182 9/24/182 155/38/182 116/37/182
f 158/43/183 190/40/183 116/37/183
f 190/40/184 115/42/184 57/45/184 139/41/184
f 115/42/185 158/43/185 27/162/185 223/44/185
f 118/143/186 135/142/186 137/48/186 238/47/186
f 56/46/187 28/60/187 118/143/187 238/47/187
f 86/49/188 140/22/188 9/24/188 139/41/188
f 224/52/189 181/54/189 35/70/189 160/53/189
f 89/55/190 142/244/190 44/245/190 141/56/190
f 59/16/191 142/244/191 89/55/191
f 192/58/192 60/222/192 144/62/192 91/59/192
f 95/67/193 96/69/193 12/246/193 194/68/193
f 70/176/194 102/139/194 138/140/194 226/224/194
f 50/14/195 70/176/195 226/224/195
f 146/213/196 11/130/196 120/187/196 239/247/196
f 56/46/197 146/213/197 239/247/197
f 239/247/198 120/187/198 28/60/198 56/46/198
f 163/72/199 98/74/199 2/114/199 127/73/199
f 195/76/200 147/78/200 55/85/200 112/77/200
f 91/59/201 197/81/201 58/104/201 165/82/201
f 62/79/202 195/76/202 123/80/202
f 10/184/203 62/79/203 123/80/203
f 196/84/204 80/83/204 20/158/204 37/136/204
f 202/88/205 38/95/205 39/248/205 184/2/205
f 169/94/206 104/93/206 1/131/206 66/96/206
f 179/91/207 168/90/207 3/170/207
f 15/97/208 3/170/208 168/90/208
f 207/98/209 204/101/209 49/9/209 68/99/209
f 210/191/210 235/173/210 228/65/210 17/193/210
f 18/117/211 19/239/211 209/102/211
f 19/239/212 208/103/212 209/102/212
f 164/108/213 46/186/213 65/107/213 184/106/213
f 98/74/214 211/112/214 8/207/214 108/113/214
f 36/233/215 130/111/215 105/110/215
f 213/118/216 109/211/216 34/178/216 172/119/216
f 41/209/217 109/211/217 213/118/217
f 214/121/218 132/122/218 205/92/218 74/6/218
f 77/123/219 217/210/219 41/209/219 170/124/219
f 73/21/220 217/210/220 77/123/220
f 219/127/221 63/175/221 125/126/221 148/116/221
f 205/92/222 132/122/222 218/125/222
f 3/170/223 15/97/223 66/96/223 128/132/223
f 25/159/224 149/129/224 220/128/224
f 1/131/225 4/168/225 128/132/225
f 135/142/226 53/214/226 136/133/226 137/48/226
f 22/249/227 60/222/227 161/218/227
f 188/134/228 220/128/228 11/130/228 82/135/228
f 174/137/229 102/139/229 64/20/229 150/138/229
f 88/161/230 27/162/230 176/144/230 118/143/230
f 138/140/231 174/137/231 85/141/231
f 28/60/232 88/161/232 118/143/232
f 225/163/233 59/16/233 89/55/233 122/146/233
f 29/164/234 103/145/234 144/62/234
f 229/19/235 225/163/235 122/146/235
f 166/147/236 63/175/236 219/127/236 197/81/236
f 100/151/237 234/150/237 201/63/237 228/65/237
f 3/170/238 145/148/238 179/91/238
f 93/156/239 43/195/239 94/155/239 230/154/239
f 88/161/240 232/160/240 57/45/240 223/44/240
f 23/36/241 22/249/241 84/35/241
f 240/250/242 86/49/242 57/45/242 232/160/242
f 240/250/243 232/160/243 28/60/243 97/223/243
f 97/223/244 13/50/244 86/49/244 240/250/244
f 233/169/245 3/170/245 128/132/245 231/167/245
f 40/10/246 107/15/246 225/163/246
f 47/1/247 92/166/247 143/165/247
f 52/229/248 233/169/248 231/167/248
f 233/169/249 52/229/249 81/171/249 145/148/249
f 183/172/250 160/53/250 35/70/250 95/67/250
f 33/75/251 201/63/251 200/199/251
f 177/203/252 30/152/252 100/151/252 235/173/252
f 45/51/253 160/53/253 183/172/253
f 104/93/254 38/95/254 152/200/254 241/251/254
f 152/200/255 4/168/255 1/131/255 241/251/255
f 218/125/256 206/238/256 16/4/256 205/92/256
f 1/131/257 104/93/257 241/251/257
f 49/9/258 126/174/258 203/7/258
f 206/238/259 218/125/259 39/109/259
f 186/29/260 21/31/260 53/214/260 134/252/260
f 54/241/261 111/242/261 186/29/261 134/252/261
f 130/111/262 101/230/262 35/70/262 181/54/262
f 185/18/263 70/176/263 50/14/263 153/11/263
f 36/233/264 101/230/264 130/111/264
f 64/20/265 102/139/265 70/176/265
f 242/253/266 112/77/266 55/85/266 111/242/266
f 73/21/267 77/123/267 155/38/267
f 9/24/268 73/21/268 155/38/268
f 229/19/269 122/146/269 156/179/269
f 156/179/270 42/57/270 112/77/270 242/253/270
f 111/242/271 156/179/271 242/253/271
f 157/28/272 156/179/272 111/242/272 54/241/272
f 243/254/273 159/255/273 45/51/273 119/256/273
f 198/183/274 243/254/274 119/256/274 61/149/274
f 10/184/275 44/245/275 159/255/275 243/254/275
f 243/254/276 198/183/276 10/184/276
f 215/181/277 113/180/277 60/222/277 23/36/277
f 85/141/278 189/182/278 244/221/278 138/140/278
f 244/221/279 87/219/279 27/162/279 158/43/279
f 79/257/280 198/183/280 81/171/280 52/229/280
f 158/43/281 191/216/281 244/221/281
f 198/183/282 61/149/282 81/171/282
f 161/218/283 60/222/283 192/58/283 120/187/283
f 62/79/284 198/183/284 79/257/284
f 11/130/285 161/218/285 120/187/285
f 93/156/286 30/152/286 121/189/286 193/188/286
f 199/197/287 31/153/287 94/155/287 171/196/287
f 43/195/288 93/156/288 193/188/288
f 105/192/289 210/191/289 36/194/289
f 6/190/290 235/173/290 210/191/290
f 131/198/291 200/199/291 31/153/291 199/197/291
f 202/88/292 47/1/292 143/165/292 152/200/292
f 204/101/293 15/97/293 168/90/293 126/174/293
f 38/95/294 202/88/294 152/200/294
f 245/258/295 206/259/295 38/95/295 169/94/295
f 49/9/296 204/101/296 126/174/296
f 169/94/297 15/97/297 207/98/297 245/258/297
f 245/258/298 207/98/298 16/100/298 206/259/298
f 218/125/299 51/120/299 172/119/299 99/202/299
f 19/239/300 72/201/300 208/103/300
f 63/175/301 218/125/301 99/202/301 125/126/301
f 99/202/302 19/239/302 125/126/302
f 71/13/303 177/203/303 235/173/303 6/190/303
f 17/193/304 228/65/304 162/64/304 129/204/304
f 246/260/305 211/112/305 33/75/305 131/198/305
f 246/260/306 131/198/306 7/39/306 78/206/306
f 78/206/307 8/207/307 211/112/307 246/260/307
f 110/208/308 41/209/308 213/118/308 75/205/308
f 8/207/309 110/208/309 75/205/309
f 108/113/310 8/207/310 75/205/310 247/261/310
f 247/261/311 75/205/311 51/120/311 214/121/311
f 214/121/312 2/114/312 108/113/312 247/261/312
f 78/206/313 170/124/313 41/209/313 110/208/313
f 114/32/314 216/262/314 4/168/314 215/181/314
f 24/34/315 216/262/315 114/32/315
f 76/23/316 34/178/316 109/211/316 217/210/316
f 117/212/317 173/27/317 54/241/317 134/252/317
f 73/21/318 76/23/318 217/210/318
f 117/212/319 134/252/319 53/214/319 135/142/319
f 146/213/320 136/133/320 21/31/320 82/135/320
f 203/71/321 48/263/321 167/264/321 248/265/321
f 194/266/322 248/265/322 167/264/322 32/267/322
f 221/86/323 248/265/323 194/266/323 12/87/323
f 222/217/324 43/195/324 193/188/324 191/216/324
f 248/265/325 221/86/325 203/71/325
f 149/129/326 84/35/326 22/249/326 161/218/326
f 138/140/327 244/221/327 191/216/327
f 249/268/328 182/234/328 20/158/328 180/227/328
f 25/159/329 84/35/329 149/129/329
f 79/257/330 249/268/330 180/227/330 62/79/330
f 52/229/331 133/228/331 249/268/331 79/257/331
f 133/228/332 24/34/332 182/234/332 249/268/332
f 222/217/333 116/37/333 7/39/333 171/196/333
f 175/220/334 135/142/334 176/144/334 87/219/334
f 244/221/335 175/220/335 87/219/335
f 175/220/336 189/182/336 26/25/336 117/212/336
f 143/165/337 29/164/337 144/62/337 113/180/337
f 208/103/338 13/50/338 97/223/338 165/82/338
f 123/80/339 141/56/339 44/245/339 10/184/339
f 58/104/340 208/103/340 165/82/340
f 250/269/341 159/255/341 44/245/341 142/244/341
f 142/244/342 59/16/342 224/52/342 250/269/342
f 224/52/343 45/51/343 159/255/343 250/269/343
f 178/225/344 50/14/344 226/224/344 121/189/344
f 227/226/345 167/270/345 48/89/345 179/91/345
f 32/66/346 167/270/346 227/226/346
f 124/26/347 150/138/347 64/20/347 229/19/347
f 80/83/348 147/78/348 62/79/348 180/227/348
f 231/167/349 216/262/349 24/34/349 133/228/349
f 129/232/350 12/246/350 96/69/350 101/230/350
f 4/168/351 216/262/351 231/167/351
f 36/233/352 129/232/352 101/230/352
f 182/234/353 83/33/353 25/159/353 151/157/353
f 230/154/354 31/153/354 200/199/354 234/150/354
f 24/34/355 83/33/355 182/234/355
f 30/152/356 230/154/356 234/150/356
f 251/271/357 227/226/357 61/149/357 119/256/357
f 119/256/358 45/51/358 183/172/358 251/271/358
f 183/172/359 32/66/359 227/226/359 251/271/359
