# Blender 4.1.1
# www.blender.org
mtllib Tree3.stem_lowpoly1.mtl
o Tree3.stem_lowpoly1
v 0.502274 13.733721 -0.902403
v -0.511891 13.525696 -0.506352
v -0.774978 -0.028019 -0.961676
v 1.390204 -0.011225 -0.300260
v 1.386868 4.722854 0.410089
v -1.123553 -0.009202 1.526002
v -0.931253 16.702478 0.963861
v 1.390614 17.764580 5.792404
v -0.351160 16.816170 0.039428
v 0.135118 16.267769 -3.940584
v 1.356318 17.411211 5.853407
v 0.490796 0.006949 1.980581
v -1.021875 16.964016 -0.305213
v -0.061693 16.655834 1.171109
v -0.530804 6.259623 1.215750
v 0.004116 4.440640 1.838287
v 0.781486 15.206538 2.489906
v -0.122238 14.433764 2.109041
v 1.691729 17.792416 6.044751
v 0.884849 10.824670 -0.246457
v 0.296210 15.995968 -3.842143
v -0.455223 7.117134 -0.412024
v 0.360655 -0.022058 -1.084435
v 1.604208 3.270260 -0.124526
v 1.277489 0.003086 1.052864
v -1.498917 -0.018332 0.034052
v -0.859966 16.355219 0.207182
v -0.321129 15.282299 1.581328
v -0.194522 14.913482 -2.513043
v -0.709479 16.914127 -0.292606
v -0.222717 11.826433 1.385324
v 0.672309 14.806832 0.781852
v 0.658775 11.628795 1.141021
v -0.521647 10.782602 0.339351
v 0.788071 3.212312 1.859982
v 0.650021 14.042362 1.624466
v 0.395444 15.559214 2.124024
v 0.071757 14.185066 -2.507274
v 1.141913 4.732878 1.105783
v 0.156061 16.061241 -3.917151
v 0.076291 14.083344 -0.867806
v 0.032564 10.487028 -0.668706
v -1.121510 17.107172 -0.074095
v -0.487575 16.664242 1.332483
vn 0.9959 -0.0789 -0.0452
vn 0.9829 0.0935 -0.1588
vn 0.9685 0.1997 -0.1489
vn 0.6059 0.0031 -0.7955
vn -0.2711 0.0011 0.9626
vn -0.5989 0.0960 0.7950
vn 0.0273 0.0351 0.9990
vn 0.8734 -0.3544 -0.3340
vn 0.9418 -0.1576 -0.2970
vn -0.7294 0.0195 0.6838
vn 0.5350 0.0332 0.8442
vn -0.5494 0.0159 -0.8354
vn 0.7618 -0.0463 0.6462
vn -0.1577 -0.8685 0.4700
vn 0.3988 -0.6686 -0.6276
vn 0.1430 -0.5987 -0.7881
vn -0.8058 0.0812 -0.5866
vn -0.9492 -0.3103 0.0530
vn -0.9972 0.0251 0.0700
vn -0.9718 0.0467 0.2311
vn 0.2222 -0.1907 0.9562
vn -0.9794 -0.0563 -0.1938
vn -0.8329 -0.3081 -0.4598
vn 0.7557 0.6253 -0.1946
vn 0.9281 0.3720 -0.0171
vn 0.7948 0.3755 -0.4767
vn 0.4798 -0.7691 0.4222
vn -0.8620 0.0867 -0.4994
vn -0.9306 -0.1331 -0.3411
vn 0.5826 0.6634 0.4696
vn 0.5329 0.5490 0.6439
vn -0.9289 0.0125 0.3702
vn 0.9378 0.1125 0.3286
vn -0.9162 -0.2615 0.3038
vn 0.2673 0.6931 0.6694
vn -0.2345 0.2731 -0.9330
vn 0.5240 0.0500 -0.8503
vn 0.4581 0.3071 0.8341
vn 0.9938 0.0083 0.1105
vn 0.9241 0.0305 0.3809
vn -0.6026 0.1247 -0.7883
vn 0.6012 -0.7115 0.3636
vn 0.2805 0.0673 0.9575
vn -0.1075 0.0810 -0.9909
vn 0.9941 -0.0693 0.0835
vn 0.8956 0.3592 -0.2626
vn -0.5741 -0.4545 -0.6811
vn -0.9509 -0.0445 0.3063
vn -0.9647 0.1032 0.2421
vn -0.9887 0.1466 0.0313
vn -0.9929 -0.1114 -0.0424
vn 0.9416 -0.0543 0.3323
vn 0.3442 -0.3825 0.8575
vn -0.8561 -0.2356 -0.4601
vn 0.1774 0.8215 -0.5420
vn -0.4453 0.7678 0.4607
vn -0.9987 -0.0078 -0.0505
vn 0.4684 -0.0822 -0.8797
vn 0.9902 0.0688 0.1215
vn -0.6346 0.0623 0.7703
vn -0.6186 0.0665 0.7829
vn -0.9538 0.1386 0.2665
vt 0.410182 0.038252
vt 0.580111 0.051730
vt 0.366182 0.047330
vt 0.793651 0.063428
vt 0.674316 0.039098
vt 0.644058 0.016731
vt 0.670135 0.022436
vt 0.867915 0.045501
vt 0.799689 0.033309
vt 0.689142 0.027221
vt 0.315969 0.020776
vt 0.285121 0.018324
vt 0.123706 0.031897
vt 0.223166 0.017943
vt 0.420494 0.015405
vt 0.847190 0.120993
vt 0.806357 0.166861
vt 0.272007 0.026984
vt 0.463940 0.025301
vt 0.458702 0.010704
vt 0.876364 0.039942
vt 0.502487 0.024005
vt 0.939055 0.091162
vt 0.901417 0.073038
vt 0.975455 0.088988
vt 0.948445 0.069926
vt 0.862466 0.054734
vt 0.816261 0.177460
vt 0.910242 0.039401
vt 0.967868 0.038519
vt 1.056058 0.075098
vt 0.946796 0.054420
vt 0.959458 0.046181
vt 1.027587 0.040871
vt 1.083013 0.028819
vt 1.051607 0.031684
vt 0.872516 0.128921
vt 0.319709 0.053106
vt 0.344082 0.031691
vt 0.360033 0.236671
vt 0.198384 0.050542
vt 0.341936 0.210076
vt 0.814172 0.179862
vt 0.862284 0.070649
vt 0.195816 0.053445
vt 0.341801 0.215437
vt 1.073719 0.055133
vt 0.193996 0.050272
vt 1.108379 0.027321
vt 1.025156 0.037667
vt 0.087141 0.070738
s 0
usemtl Material.001
f 36/1/1 32/2/1 17/3/1
f 1/4/2 32/2/2 20/5/2
f 5/6/3 24/7/3 42/8/3
f 23/9/4 24/7/4 4/10/4
f 12/11/5 16/12/5 6/13/5
f 6/13/6 16/12/6 15/14/6
f 35/15/7 16/12/7 12/11/7
f 1/4/8 38/16/8 21/17/8
f 38/16/9 1/4/9 42/8/9
f 15/14/10 16/12/10 31/18/10
f 33/19/11 16/12/11 39/20/11
f 23/9/12 22/21/12 42/8/12
f 12/11/13 25/22/13 35/15/13
f 13/23/14 30/24/14 43/25/14
f 27/26/15 30/24/15 9/27/15
f 21/17/16 38/16/16 40/28/16
f 3/29/17 26/30/17 22/21/17
f 27/26/18 7/31/18 43/25/18
f 2/32/19 34/33/19 28/34/19
f 31/35/20 34/33/20 15/36/20
f 36/1/21 31/18/21 33/19/21
f 2/32/22 29/37/22 34/33/22
f 38/16/23 29/37/23 40/28/23
f 17/3/24 32/2/24 37/38/24
f 37/38/25 32/2/25 14/39/25
f 17/3/26 37/38/26 19/40/26
f 18/41/27 17/3/27 11/42/27
f 42/8/28 22/21/28 34/33/28
f 40/28/29 29/37/29 10/43/29
f 1/4/30 21/17/30 41/44/30
f 29/37/31 21/17/31 10/43/31
f 28/45/32 18/41/32 8/46/32
f 20/5/33 39/20/33 5/6/33
f 28/47/34 7/31/34 2/32/34
f 14/39/35 44/48/35 37/38/35
f 27/26/36 9/27/36 1/4/36 41/44/36
f 42/8/37 24/7/37 23/9/37
f 39/20/38 16/12/38 35/15/38
f 36/1/39 33/19/39 20/5/39 32/2/39
f 24/7/40 5/6/40 35/15/40 25/22/40
f 2/32/41 27/26/41 41/44/41
f 11/42/42 17/3/42 19/40/42
f 31/18/43 16/12/43 33/19/43
f 3/29/44 22/21/44 23/9/44
f 4/10/45 24/7/45 25/22/45
f 32/2/46 1/4/46 9/27/46 14/39/46
f 43/25/47 30/24/47 27/26/47
f 31/35/48 18/49/48 28/34/48 34/33/48
f 6/50/49 15/36/49 26/30/49
f 22/21/50 26/30/50 15/36/50
f 27/26/51 2/32/51 7/31/51
f 5/6/52 39/20/52 35/15/52
f 36/1/53 17/3/53 18/41/53 31/18/53
f 29/37/54 38/16/54 42/8/54 34/33/54
f 28/45/55 8/46/55 19/40/55 37/38/55
f 21/17/56 29/37/56 2/32/56 41/44/56
f 15/36/57 34/33/57 22/21/57
f 20/5/58 5/6/58 42/8/58 1/4/58
f 33/19/59 39/20/59 20/5/59
f 7/51/60 28/45/60 44/48/60
f 37/38/61 44/48/61 28/45/61
f 8/46/62 18/41/62 11/42/62
