# Blender 4.1.1
# www.blender.org
mtllib tree2(stem)lowpoly2.mtl
o Tree2.stem_lowpoly3.001
v -0.117306 12.022967 0.979867
v 1.986778 -0.022792 0.666091
v -1.585093 0.031137 0.746873
v 1.311861 -0.003836 -1.183425
v 0.670391 10.739198 0.602908
v 0.379256 12.855862 -0.270434
v -1.385482 13.101528 0.378564
v -1.481301 15.768757 0.097772
v -0.284979 16.145521 0.987873
v -0.672473 13.359013 -0.538203
v -0.439818 15.976005 -0.048541
vn 0.7840 0.3259 0.5284
vn 0.9338 0.1122 -0.3396
vn 0.9878 0.0811 -0.1328
vn 0.3100 0.1482 -0.9391
vn -0.2107 0.9693 -0.1271
vn 0.9201 0.0367 0.3899
vn 0.9474 0.2618 -0.1844
vn -0.4420 -0.0197 0.8968
vn 0.0223 -0.0221 0.9995
vn -0.6082 0.0615 0.7914
vn -0.1746 0.1961 -0.9649
vn 0.2853 0.0884 -0.9544
vn -0.5544 -0.0422 -0.8312
vn -0.7886 -0.0053 -0.6148
vn -0.4059 0.0319 0.9134
vn 0.5193 0.0685 0.8518
vn -0.7729 -0.0938 -0.6275
vt 0.828597 0.488035
vt 0.820978 0.512412
vt 0.379572 0.638106
vt 0.710613 0.128260
vt 0.885553 0.052608
vt 0.848543 0.274886
vt 0.048842 0.738336
vt 0.950593 0.163076
vt 0.960346 0.202018
vt 0.968910 0.180177
vt 0.811028 0.487958
vt 0.820926 0.483337
vt 0.808264 0.499455
vt 0.776849 0.616452
vt 0.492883 0.855487
vt 0.626969 0.934606
vt 0.778413 0.960561
s 0
usemtl Material
f 6/1/1 1/2/1 5/3/1
f 4/4/2 5/5/2 2/6/2
f 6/7/3 5/3/3 4/4/3
f 11/8/4 6/9/4 10/10/4
f 8/11/5 9/12/5 11/8/5
f 9/12/6 1/2/6 6/1/6
f 11/8/7 9/12/7 6/1/7
f 7/13/8 1/2/8 9/12/8
f 3/14/9 2/6/9 1/2/9
f 9/12/10 8/11/10 7/13/10
f 10/15/11 8/11/11 11/8/11
f 4/4/12 10/15/12 6/7/12
f 4/4/13 3/16/13 10/15/13
f 3/16/14 7/17/14 10/15/14
f 7/13/15 3/14/15 1/2/15
f 2/6/16 5/3/16 1/2/16
f 10/15/17 7/17/17 8/11/17
