# Blender 4.1.1
# www.blender.org
mtllib Tree2.stem_lowpoly1.mtl
o Tree2.stem_lowpoly1
v -6.125834 10.575907 -0.988600
v -5.301768 10.384266 -0.775595
v -1.097715 10.880265 0.975112
v -1.494634 9.678978 0.742604
v -0.887553 8.945368 1.008627
v -1.446409 8.023890 0.726453
v -1.578096 10.258332 0.601448
v -1.791490 5.086332 0.804062
v -1.759998 2.023235 1.010844
v -1.261404 0.037962 1.076485
v -0.692879 4.921563 1.321107
v -0.197348 0.004032 1.433470
v -0.900289 10.727289 0.945242
v -3.370785 10.465946 0.595630
v -4.686385 10.764610 0.444432
v -5.481575 10.719788 0.373113
v -5.452988 11.146116 0.161969
v -4.849977 11.295620 -0.216687
v 0.020130 7.186956 0.880800
v 0.613222 1.815298 1.132170
v 0.612080 -0.004988 1.395187
v 1.181871 -0.004377 1.165882
v -0.073922 7.821346 0.845428
v -0.228445 8.776272 0.662089
v 0.952464 2.376510 0.703315
v 1.556561 0.001658 0.701775
v 7.041603 8.836845 0.919427
v 6.566855 8.853801 1.775472
v 6.707280 8.738980 1.391475
v 5.970411 8.719265 1.190497
v 6.400909 9.150978 2.043905
v 5.154631 8.375120 0.559940
v 4.077055 8.648355 0.609530
v 3.218904 8.864889 0.902469
v 3.374883 8.777317 0.572247
v 2.759108 8.706792 0.587660
v 4.378445 8.520437 0.007939
v 5.028516 8.355339 0.020689
v 2.032032 8.561689 0.900179
v 5.760063 8.507032 -0.003545
v 3.580960 9.086298 0.076586
v 2.360945 8.882969 -0.019719
v -1.955443 3.914372 -0.008653
v -1.619964 8.235132 -0.026633
v -1.873122 0.013617 0.008419
v -1.790826 0.023565 0.709799
v -1.510022 9.546301 -0.475855
v -1.240064 6.941696 -0.544122
v 1.180516 -0.013913 -1.126591
v 1.590879 1.081321 0.065891
v 1.586615 -0.008310 -0.262428
v 0.158018 6.888549 -0.452313
v 0.340313 7.404308 0.218637
v 1.004443 3.649230 0.181445
v 0.595937 3.182056 -0.657992
v 0.092229 8.341890 -0.220574
v 0.885321 7.838014 0.417125
v 1.095133 8.272069 0.126541
v 0.911110 8.813711 -0.027493
v 3.073862 9.371881 -0.255216
v 3.181810 9.701717 -0.229589
v 3.664125 9.285229 -0.410810
v 3.692214 9.568361 -0.545230
v 3.800495 9.913788 -0.476891
v -0.715832 9.064743 -0.737540
v -0.611165 3.655369 -0.905352
v 0.042861 -0.010362 -1.280210
v -1.423762 1.657647 -0.676300
v -1.216735 8.579154 -0.538002
v -1.357017 0.010219 -0.616490
v -2.670944 9.946138 -0.608631
v -4.284317 10.465954 -0.916041
v -4.245300 10.858677 -0.865776
v -5.158641 10.824476 -1.114175
v -4.750084 11.168468 -0.884699
v -5.308546 11.090879 -1.284783
v -5.769171 10.707140 -1.177547
v -5.032396 11.440776 -0.936759
v -4.559037 11.194508 -0.676775
v -1.829622 13.189474 1.142413
v -1.599517 13.949422 1.480672
v -2.650114 13.364293 1.288608
v -2.733788 14.181491 1.477830
v -2.975930 13.940447 1.415325
v -1.474349 14.722767 1.644281
v -3.024627 14.920896 1.736357
v -1.420537 11.989520 0.514854
v 2.221394 9.571401 0.233049
v 2.511038 9.332480 0.896739
v 3.664020 9.816910 0.601901
v 0.952440 9.005327 0.687329
v 3.847614 9.481903 1.053876
v 4.289180 9.849936 0.657921
v 5.121424 9.853311 0.911806
v 3.950243 9.953323 -0.239921
v 3.051320 9.786101 0.051072
v 0.720024 9.009893 0.190606
v -0.077442 8.947219 0.110339
v 3.846755 9.790041 0.102252
v 5.365089 9.383284 1.424067
v -0.214229 8.493935 0.838184
v -6.098159 10.620679 -0.516451
v -5.361238 10.296965 -0.021782
v -3.373115 9.725707 0.024584
v -5.883485 10.535891 0.289481
v -1.608407 9.255734 0.558085
v -1.730490 9.099882 -0.045001
v -4.623059 10.195898 0.314536
v -3.248425 9.773983 -0.428084
v -4.040323 10.258457 0.529551
v -1.810771 11.461617 -1.479238
v -1.715292 10.746540 -1.266801
v -1.574553 10.357477 -0.313498
v -2.130534 13.131016 -2.267246
v -2.307911 13.754576 -2.689732
v -1.194213 11.688066 -0.948549
v 3.952442 9.046582 1.101958
v 2.742394 9.034410 1.084228
v 0.422063 7.727245 0.663911
v 5.639687 9.107280 1.499909
v 5.125609 8.634735 1.101391
v 5.569995 9.639462 1.540319
v 5.952278 9.502466 1.952682
v -1.567674 13.459694 -2.766346
v -1.770903 13.230786 -2.283948
v -2.170495 13.649948 -2.304581
v -1.673840 13.936882 -3.086380
v -1.131938 11.938334 -1.695851
v -1.264138 12.179453 -1.519268
v -1.331160 14.306860 -3.549875
v -1.515608 12.363708 -1.624226
v -0.360978 14.188431 0.131103
v -0.449029 12.703262 0.229498
v -0.814916 12.617640 0.196330
v -1.058402 12.525259 0.489772
v -1.367233 11.233851 0.172088
v -1.407618 12.639862 0.773936
v -1.880864 12.835327 1.232194
v -0.005696 13.017406 1.656682
v 0.047202 13.022603 2.121199
v -0.415584 11.211149 0.654227
v -0.048368 13.623188 2.658555
v 0.115258 14.217715 3.135452
v 0.405395 14.724245 2.929036
v 0.388376 14.710437 3.281110
v -0.371078 11.579743 1.142259
v -0.510835 10.643551 0.561779
v -0.173877 13.020947 2.214615
v -0.079661 13.626649 2.242572
v -0.242964 13.675055 2.306639
v -0.534743 11.871811 0.638039
v 0.106255 14.152210 2.846858
v -5.457572 11.516735 -0.358872
v -3.865717 10.871727 0.352197
v -0.455748 13.015221 0.671552
v -0.945018 12.725332 0.748072
v -0.426340 12.430517 0.617530
v -0.584530 13.700380 0.300382
v -0.121161 14.039432 0.145917
v -0.058327 14.918930 0.181959
v -0.329973 14.963319 0.237624
v -1.049229 12.663809 0.980277
v -0.941845 12.129897 0.741664
v 0.147743 14.246107 -0.062786
v -0.390867 12.900713 1.504615
v -0.478610 12.550358 1.593960
v -1.010080 11.731983 0.942149
v -0.693113 11.981812 0.708485
v -1.552396 10.815228 -1.589042
v -1.273271 10.557830 -1.415094
v -2.072368 12.274730 -2.556399
v -1.363200 12.899191 -3.254200
v -1.641665 12.556094 -2.767529
v -1.582420 13.345058 -3.398392
v -1.949390 12.540586 -2.845371
v -2.117482 13.576523 -3.506624
v -1.187983 13.142079 -3.341492
v -1.457197 14.519509 -3.862119
v -2.210637 13.772598 -3.517778
v -2.188378 12.335175 -2.278577
v -1.643067 10.107001 -0.463004
v -1.220106 14.129593 -3.732487
v -1.308078 14.217958 1.699652
v -1.251638 13.466717 1.346381
v -1.185230 12.800993 0.883460
v -1.264054 12.250750 1.172453
v -0.253113 14.584547 2.641820
v -0.198436 14.575616 2.932908
v -0.008397 14.808488 3.370955
v -0.221160 12.266592 1.634135
v -2.760009 13.985260 1.866699
v -3.000580 13.988315 2.095464
v -2.460005 14.277270 2.259530
v -2.107815 13.753738 1.658124
v -1.595207 14.690748 2.278093
v -1.227410 13.321243 1.479638
v -1.306248 14.328062 2.011931
v -1.234656 14.757112 2.260363
v -2.656010 13.414360 1.591517
v -1.613127 12.381928 0.964580
v -1.448418 11.878525 0.968820
v -1.194728 11.262910 0.850125
v -0.348136 12.019428 0.276299
v -0.549474 11.647436 -0.142541
v -0.577038 11.225508 0.272730
v -0.666087 10.740736 -0.410335
v -0.344220 10.110638 0.070244
v -0.222642 8.892705 -0.431437
v -0.900499 11.317270 -0.818828
v -1.033550 10.791908 -1.261000
v -1.263654 11.732209 -2.312445
v -1.024095 9.779751 -0.892389
v -1.071552 12.390648 -2.532660
v -1.174313 13.301066 -3.066264
v -1.161335 12.582729 -2.223332
v -1.383144 13.863810 -3.780514
v -0.892341 11.823044 -0.284803
v 0.075101 8.782303 -0.142991
v -2.994334 13.852488 1.659780
v -0.194186 13.758999 2.619041
v -0.049419 14.039972 2.577160
v -1.007950 11.532935 -0.636245
v -1.245425 11.310614 -0.373157
v -1.858497 14.688990 -3.554396
v -1.595114 14.396071 -3.327106
v -1.658382 14.369779 -3.544984
v -2.200770 14.103869 -3.711736
v -1.695656 13.912907 -3.617104
v -3.306023 10.808903 -0.381574
v -1.608846 10.482216 0.074630
v -0.302511 13.931711 0.026305
v -0.079205 14.044153 -0.094797
v -0.287288 13.273173 0.351038
vn -0.3493 0.9211 0.1719
vn -0.1501 -0.5828 -0.7986
vn -0.0818 -0.0063 0.9966
vn -0.1538 0.4378 0.8858
vn 0.1854 -0.5858 0.7889
vn -0.6079 -0.4599 0.6472
vn -0.1465 -0.7763 0.6132
vn -0.5022 -0.4493 0.7389
vn -0.0183 -0.6329 0.7740
vn -0.3735 -0.1188 0.9200
vn -0.7256 0.2992 0.6197
vn -0.4920 0.2928 0.8199
vn -0.1259 0.7004 0.7025
vn -0.1796 -0.5127 0.8396
vn -0.1739 0.8105 0.5594
vn -0.2737 -0.7806 0.5620
vn -0.4527 0.8502 0.2688
vn -0.0966 0.7805 0.6177
vn -0.1953 0.9799 -0.0401
vn -0.0317 0.9057 0.4226
vn -0.0156 0.1061 0.9942
vn -0.0026 -0.7346 0.6785
vn -0.1590 0.7612 0.6288
vn -0.2130 0.6263 -0.7500
vn -0.2094 0.9613 0.1792
vn 0.1329 -0.5266 0.8396
vn -0.3522 0.7846 -0.5102
vn 0.3573 -0.8174 0.4518
vn -0.6256 0.0943 0.7744
vn 0.9994 -0.0133 0.0313
vn 0.8978 0.1238 -0.4227
vn 0.8456 0.2151 -0.4886
vn 0.1820 -0.5767 0.7964
vn 0.7621 0.1935 0.6178
vn -0.2394 0.7338 0.6358
vn 0.6172 0.2069 0.7591
vn 0.3699 0.1326 0.9195
vn 0.0082 0.7470 -0.6648
vn -0.1915 0.9765 0.0986
vn 0.8615 0.1290 -0.4911
vn 0.0410 0.8485 -0.5276
vn 0.8228 -0.5211 0.2268
vn 0.0483 0.1428 0.9886
vn -0.1023 0.9578 0.2687
vn 0.3593 0.1050 0.9273
vn 0.1255 -0.3446 0.9303
vn 0.9398 0.0949 -0.3283
vn 0.5211 0.8239 -0.2226
vn 0.7232 -0.5367 0.4346
vn 0.9807 -0.1616 -0.1099
vn 0.7013 0.4168 -0.5783
vn 0.9640 -0.2552 -0.0746
vn 0.9556 -0.2923 0.0365
vn 0.1766 -0.1410 0.9741
vn -0.0832 -0.0349 0.9959
vn 0.9720 -0.1663 0.1662
vn 0.1917 0.3978 0.8972
vn 0.9092 -0.0882 0.4069
vn 0.0270 -0.4655 -0.8847
vn 0.0713 0.6959 -0.7146
vn -0.0556 0.7234 -0.6882
vn -0.8879 0.4597 0.0151
vn 0.9398 0.2061 -0.2726
vn 0.9034 -0.1727 -0.3925
vn 0.9207 0.2222 0.3208
vn 0.5018 0.4758 0.7223
vn 0.1130 0.6291 -0.7690
vn 0.8551 0.0427 -0.5168
vn 0.8625 0.0932 -0.4974
vn 0.9393 -0.2699 -0.2118
vn 0.8973 -0.2603 0.3566
vn 0.9745 0.1560 0.1612
vn 0.9024 -0.1604 0.4000
vn 0.3826 -0.0403 0.9230
vn 0.9119 0.1552 -0.3801
vn 0.9160 -0.0900 -0.3910
vn 0.5490 0.6027 -0.5792
vn 0.8821 0.0254 -0.4703
vn 0.1837 0.0892 0.9789
vn 0.2468 0.8882 -0.3875
vn 0.2002 -0.0801 0.9765
vn 0.3894 -0.3094 0.8676
vn 0.7046 0.0303 0.7090
vn -0.0183 -0.2143 0.9766
vn -0.6932 0.0990 0.7139
vn -0.3191 -0.0488 0.9465
vn 0.6820 -0.2446 -0.6893
vn 0.8009 0.5656 -0.1967
vn 0.9063 -0.1371 -0.3997
vn -0.7197 0.4096 -0.5606
vn 0.3390 0.3763 0.8622
vn 0.7789 -0.1186 0.6158
vn 0.1769 0.0363 0.9836
vn 0.9165 0.2802 0.2854
vn 0.4041 -0.5533 -0.7284
vn 0.7892 -0.3892 -0.4751
vn 0.9459 -0.3090 -0.0988
vn 0.9122 0.2836 0.2957
vn 0.7419 -0.4109 -0.5299
vn 0.8962 0.4376 0.0734
vn 0.5986 0.6418 0.4793
vn 0.7769 0.5006 -0.3819
vn 0.8114 0.1460 0.5659
vn -0.0041 -0.1910 0.9816
vn -0.0934 -0.4418 0.8922
vn 0.8261 -0.1814 0.5336
vn -0.1797 0.4423 0.8787
vn 0.8527 0.5223 0.0115
vn -0.1614 -0.5444 -0.8232
vn 0.5231 0.4342 0.7334
vn 0.6240 0.5995 0.5013
vn 0.3648 0.7840 0.5023
vn 0.2920 0.7422 0.6032
vn -0.6691 0.4671 0.5780
vn 0.8131 0.5010 -0.2966
vn 0.6404 0.5210 0.5644
vn 0.7040 0.1106 0.7016
vn -0.5635 -0.1145 0.8181
vn -0.3617 -0.4643 0.8084
vn 0.0583 -0.2772 0.9590
vn 0.1947 -0.7617 -0.6179
vn 0.0258 0.0737 0.9969
vn -0.1228 0.5778 0.8069
vn -0.0821 -0.5183 0.8512
vn -0.8772 0.0570 0.4767
vn 0.2526 0.9274 -0.2757
vn -0.4310 -0.4543 0.7796
vn 0.9379 -0.3125 0.1505
vn 0.2575 0.9185 -0.3002
vn -0.0896 -0.0278 0.9956
vn 0.2198 0.1023 -0.9702
vn -0.1915 0.3226 0.9270
vn 0.3602 0.6899 -0.6279
vn 0.0747 0.2574 0.9634
vn 0.2986 0.9542 -0.0209
vn 0.0099 0.6078 0.7940
vn 0.0915 0.8678 0.4884
vn -0.3125 -0.2445 0.9179
vn -0.1049 0.4470 0.8884
vn -0.0741 -0.2299 0.9704
vn -0.3770 -0.6872 0.6210
vn 0.1442 -0.6532 0.7433
vn -0.6826 0.3283 0.6529
vn -0.5815 -0.4032 0.7066
vn 0.8109 0.1323 -0.5700
vn 0.2341 0.1270 -0.9639
vn 0.5393 0.0505 -0.8406
vn -0.0479 -0.9617 0.2700
vn -0.7493 -0.1472 0.6457
vn 0.0443 -0.8999 0.4339
vn 0.3902 0.0361 -0.9200
vn -0.2058 -0.8867 0.4141
vn -0.1531 0.4383 0.8857
vn -0.2336 0.0510 0.9710
vn 0.0201 -0.7749 0.6318
vn -0.1867 -0.9679 0.1685
vn -0.4418 0.3054 -0.8435
vn -0.5573 -0.3103 -0.7701
vn -0.4437 0.7802 -0.4409
vn 0.0861 -0.8611 -0.5010
vn -0.2647 -0.0770 -0.9612
vn 0.1688 -0.9115 -0.3751
vn -0.1347 0.1205 -0.9835
vn 0.3757 -0.8720 0.3139
vn 0.2197 -0.6138 -0.7583
vn 0.8200 0.2270 -0.5254
vn 0.3129 -0.1599 -0.9362
vn 0.1282 0.1769 -0.9758
vn 0.4357 -0.7648 0.4747
vn 0.5030 -0.2539 -0.8262
vn 0.6536 -0.7503 0.0992
vn -0.2516 -0.4327 -0.8657
vn -0.1145 0.6301 -0.7680
vn -0.2883 0.0058 -0.9575
vn -0.7127 -0.2549 0.6535
vn -0.7639 -0.3705 0.5284
vn 0.9198 0.2244 -0.3218
vn 0.1002 0.6349 -0.7661
vn -0.9717 0.2319 -0.0447
vn -0.8313 -0.1626 0.5314
vn -0.9739 -0.1291 0.1868
vn -0.2669 -0.0049 0.9637
vn -0.9805 -0.0750 0.1819
vn -0.4285 -0.0501 -0.9022
vn -0.0445 0.5206 -0.8526
vn 0.4779 0.2511 -0.8418
vn -0.7361 0.1053 -0.6686
vn -0.6792 -0.0402 -0.7328
vn 0.0713 0.0804 -0.9942
vn 0.6580 -0.2273 0.7179
vn 0.7587 -0.5512 0.3471
vn 0.7103 0.1421 -0.6894
vn 0.6171 0.1569 -0.7711
vn 0.2702 0.6970 -0.6642
vn -0.7290 0.5692 -0.3803
vn -0.8893 0.3088 0.3374
vn -0.7836 0.2225 -0.5801
vn -0.9166 0.3863 0.1032
vn -0.0784 0.8045 -0.5887
vn 0.6423 -0.2640 -0.7195
vn 0.0044 -0.5567 -0.8307
vn -0.4894 -0.3809 -0.7845
vn -0.1925 0.8283 0.5262
vn -0.7136 -0.1728 -0.6789
vn -0.7853 0.5789 -0.2196
vn -0.6470 0.5388 -0.5395
vn -0.7432 0.4806 -0.4654
vn -0.2472 0.7544 -0.6080
vn -0.5315 0.3226 -0.7832
vn 0.3863 -0.0708 -0.9196
vn -0.4735 -0.3972 -0.7862
vn -0.0281 -0.3201 -0.9470
vn -0.3049 -0.6338 -0.7109
vn -0.8799 -0.4092 0.2414
vn 0.0036 0.5588 -0.8293
vn -0.6754 0.0813 0.7330
vn -0.8192 -0.0295 0.5727
vn 0.4712 0.5347 -0.7014
vn -0.4771 -0.1614 -0.8639
vn -0.8651 0.1463 -0.4797
vn -0.0851 -0.5114 -0.8551
vn -0.9894 -0.1009 0.1049
vn -0.6240 -0.6378 -0.4514
vn -0.9512 -0.2208 -0.2155
vn -0.2477 0.8721 0.4220
vn -0.9687 0.1444 0.2020
vn -0.8293 -0.1176 -0.5462
vn -0.9968 -0.0383 -0.0706
vn -0.6693 -0.0158 -0.7429
vn -0.8028 0.2344 -0.5483
vn -0.9416 -0.3092 -0.1334
vn -0.7819 -0.6173 0.0868
vn -0.5512 -0.1735 0.8161
vn -0.5560 -0.6408 0.5294
vn -0.0664 -0.5445 -0.8361
vn 0.2218 -0.6191 -0.7534
vn 0.1318 0.0540 -0.9898
vn -0.7527 -0.0574 -0.6559
vn -0.8468 -0.4685 -0.2517
vn -0.7165 -0.5138 -0.4717
vn -0.9003 0.0091 0.4352
vn -0.2148 -0.2107 -0.9537
vn 0.0434 0.2001 -0.9788
vn 0.0810 0.3847 -0.9195
vn -0.5559 -0.8218 0.1250
vn -0.9860 -0.1173 -0.1184
vn -0.7947 -0.4034 -0.4536
vn -0.4972 -0.5227 -0.6925
vn -0.9087 -0.2662 -0.3215
vn -0.9400 0.0195 0.3407
vn 0.1549 -0.1003 -0.9828
vn 0.2871 -0.6329 0.7191
vn -0.0729 -0.7730 0.6302
vn -0.0949 -0.5510 -0.8291
vn -0.1071 -0.6626 -0.7413
vn 0.5131 0.7443 0.4275
vn -0.0394 0.2877 -0.9569
vn -0.1464 0.1328 -0.9803
vn -0.0146 0.3249 -0.9456
vn 0.3458 -0.8600 0.3752
vn -0.3564 -0.9136 -0.1956
vn -0.3501 -0.8370 0.4206
vn -0.1461 -0.7708 0.6202
vn 0.4623 0.7218 -0.5151
vn -0.2681 -0.9474 -0.1749
vn 0.2363 0.3292 -0.9142
vn 0.2578 0.0974 -0.9613
vn -0.2688 -0.9097 0.3165
vn 0.5049 0.3748 -0.7775
vn 0.5894 -0.1736 -0.7890
vn 0.1784 -0.4575 -0.8711
vn -0.0627 -0.5956 -0.8009
vn 0.1997 -0.6374 -0.7442
vn -0.0283 -0.7951 -0.6058
vn -0.4095 -0.9122 0.0131
vn -0.3056 0.0610 0.9502
vn -0.1191 0.5211 0.8451
vn -0.9764 0.0283 -0.2141
vn -0.9341 0.3309 0.1340
vn 0.4859 0.1200 0.8657
vn -0.4988 0.0239 0.8664
vn 0.2672 0.1875 -0.9452
vn 0.2305 0.0810 -0.9697
vn -0.3474 0.0339 -0.9371
vn -0.3513 0.0356 -0.9356
vn -0.4168 0.0201 -0.9088
vn -0.7896 0.0135 -0.6135
vn -0.3351 -0.0411 -0.9413
vn -0.7071 0.0422 -0.7059
vn -0.8135 -0.0197 -0.5812
vn -0.7700 -0.0543 -0.6357
vn -0.9596 0.1195 0.2547
vn -0.8832 -0.0741 -0.4632
vn -0.9716 0.2106 -0.1076
vn 0.8750 0.1526 0.4594
vn -0.1013 0.4300 -0.8971
vn 0.5467 0.0234 -0.8370
vn 0.9705 0.2225 -0.0932
vn 0.2006 -0.9611 0.1896
vn 0.2012 0.9135 0.3537
vn 0.4032 -0.7737 -0.4887
vn 0.1332 0.1243 -0.9833
vn -0.0641 -0.6056 -0.7932
vn 0.9929 0.1088 -0.0476
vn 0.1356 -0.3972 0.9077
vn 0.8701 0.1492 0.4697
vn 0.0180 -0.2678 -0.9633
vn 0.9123 0.1651 -0.3748
vn 0.9331 -0.0410 0.3573
vn 0.2133 -0.9167 -0.3378
vn -0.4597 0.0582 0.8862
vn -0.2785 -0.9513 -0.1321
vn 0.9712 -0.0070 -0.2381
vn -0.6689 0.0721 0.7399
vn -0.3288 -0.8961 0.2981
vn 0.3402 0.9403 0.0085
vn 0.9679 0.1924 0.1614
vn 0.8753 -0.4811 0.0498
vn -0.9871 -0.0092 0.1601
vn -0.4278 -0.0264 0.9035
vn -0.9329 0.3162 -0.1723
vn -0.2313 0.1504 -0.9612
vn -0.4876 -0.3278 0.8092
vn -0.1586 -0.3584 0.9200
vn -0.2432 -0.9660 0.0877
vn -0.0557 -0.6298 -0.7748
vn -0.3693 -0.7408 0.5611
vn -0.2307 0.0377 0.9723
vn 0.9679 0.1682 0.1867
vn 0.5862 0.5988 0.5457
vn 0.1362 -0.5133 0.8473
vn 0.2469 -0.4377 0.8645
vn 0.5522 0.1135 -0.8259
vn 0.2104 0.4580 -0.8637
vn 0.9968 0.0365 -0.0706
vn 0.2958 0.0714 0.9526
vn 0.2068 -0.6113 -0.7639
vn 0.4063 -0.5890 0.6986
vn 0.7159 0.1480 -0.6823
vn -0.3111 0.8605 -0.4034
vn 0.9158 0.0962 -0.3898
vn 0.0246 0.2400 0.9705
vn 0.2325 -0.9726 -0.0016
vn -0.9723 -0.1079 0.2075
vn 0.0382 -0.3547 -0.9342
vn -0.9342 0.2921 0.2048
vn -0.4959 -0.5503 -0.6717
vn 0.3160 -0.5970 0.7373
vn 0.0632 0.5690 0.8199
vn 0.8634 0.1970 0.4645
vn -0.3774 0.0088 -0.9260
vt 0.433130 0.965252
vt 0.453541 0.967909
vt 0.449932 0.973863
vt 0.019252 0.400181
vt 0.025924 0.414269
vt 0.027256 0.390547
vt 0.841896 0.974717
vt 0.842503 0.984526
vt 0.803672 0.979062
vt 0.804565 0.973917
vt 0.814142 0.982894
vt 0.407204 0.992912
vt 0.408952 0.997593
vt 0.396874 0.995962
vt 0.165181 0.604442
vt 0.152543 0.610242
vt 0.175327 0.604946
vt 0.755300 0.989140
vt 0.759507 0.983058
vt 0.766972 0.987194
vt 0.162535 0.596842
vt 0.153956 0.602804
vt 0.766172 0.980157
vt 0.769700 0.982483
vt 0.388601 0.978725
vt 0.395195 0.970766
vt 0.392644 0.979824
vt 0.533072 0.437560
vt 0.542047 0.429421
vt 0.555235 0.432480
vt 0.411982 0.975428
vt 0.787519 0.983539
vt 0.775787 0.992485
vt 0.406217 0.968020
vt 0.139902 0.599366
vt 0.139183 0.605793
vt 0.411527 0.956620
vt 0.412607 0.961488
vt 0.414246 0.967977
vt 0.413906 0.953992
vt 0.422624 0.961791
vt 0.788770 0.977216
vt 0.798572 0.983740
vt 0.429145 0.974545
vt 0.039788 0.743376
vt 0.042984 0.745563
vt 0.035183 0.753062
vt 0.018419 0.763644
vt 0.120361 0.600935
vt 0.116571 0.591221
vt 0.095729 0.582493
vt 0.431724 0.995300
vt 0.421653 0.989148
vt 0.428543 0.990587
vt 0.880938 0.026725
vt 0.885553 0.011936
vt 0.873889 0.013594
vt 0.861246 0.016800
vt 0.885553 0.052608
vt 0.836926 0.987465
vt 0.821277 0.595513
vt 0.814429 0.626213
vt 0.821652 0.627321
vt 0.465758 0.978880
vt 0.813041 0.601504
vt 0.806545 0.624558
vt 0.051412 0.742214
vt 0.464740 0.975116
vt 0.046429 0.714979
vt 0.025573 0.676318
vt 0.179921 0.562244
vt 0.048917 0.739333
vt 0.826826 0.524479
vt 0.823797 0.532613
vt 0.831540 0.530517
vt 0.795362 0.621398
vt 0.463973 0.967528
vt 0.843617 0.992485
vt 0.370645 0.997790
vt 0.370322 0.992461
vt 0.377569 0.995902
vt 0.047696 0.733775
vt 0.038993 0.723309
vt 0.966318 0.203561
vt 0.968291 0.198746
vt 0.962288 0.201969
vt 0.777903 0.530747
vt 0.778384 0.518757
vt 0.773750 0.500381
vt 0.773281 0.528749
vt 0.005537 0.954704
vt 0.003221 0.950928
vt 0.004630 0.961650
vt 0.775647 0.538485
vt 0.779782 0.548430
vt 0.780531 0.540814
vt 0.782855 0.550797
vt 0.150269 0.211040
vt 0.146663 0.210875
vt 0.147687 0.221126
vt 0.151001 0.222622
vt 0.219990 0.330744
vt 0.230200 0.332502
vt 0.218594 0.333775
vt 0.147374 0.237693
vt 0.926519 0.146732
vt 0.926929 0.154684
vt 0.929697 0.156228
vt 0.018015 0.759779
vt 0.023641 0.750661
vt 0.001460 0.972281
vt 0.006541 0.975596
vt 0.007105 0.961024
vt 0.801131 0.512378
vt 0.797574 0.508842
vt 0.794169 0.512378
vt 0.955110 0.188105
vt 0.927386 0.147472
vt 0.935587 0.160613
vt 0.956856 0.207032
vt 0.825670 0.511654
vt 0.816882 0.507303
vt 0.823161 0.514730
vt 0.007105 0.992022
vt 0.945878 0.169803
vt 0.956456 0.177884
vt 0.939358 0.168208
vt 0.945100 0.176848
vt 0.936643 0.172884
vt 0.945993 0.185160
vt 0.932954 0.166794
vt 0.149980 0.245076
vt 0.148719 0.251943
vt 0.151001 0.252117
vt 0.930821 0.201631
vt 0.947772 0.166035
vt 0.957421 0.166889
vt 0.145015 0.251301
vt 0.095905 0.763617
vt 0.073927 0.756564
vt 0.109562 0.761805
vt 0.142499 0.242626
vt 0.140230 0.245182
vt 0.822270 0.485266
vt 0.828597 0.488035
vt 0.831593 0.476665
vt 0.820544 0.482787
vt 0.783036 0.591589
vt 0.782985 0.617583
vt 0.966207 0.168975
vt 0.970388 0.182308
vt 0.970844 0.169883
vt 0.087882 0.993335
vt 0.086338 0.989049
vt 0.093560 0.990292
vt 0.797002 0.022239
vt 0.798114 0.009942
vt 0.807438 0.017531
vt 0.145214 0.256852
vt 0.150635 0.929407
vt 0.147195 0.935013
vt 0.143030 0.929155
vt 0.040571 0.993335
vt 0.040279 0.989737
vt 0.054050 0.993369
vt 0.013301 0.378130
vt 0.016384 0.380954
vt 0.969997 0.127674
vt 0.967230 0.142113
vt 0.969990 0.153044
vt 0.962316 0.153497
vt 0.068022 0.991666
vt 0.078295 0.989046
vt 0.078841 0.993303
vt 0.958477 0.151855
vt 0.152191 0.927056
vt 0.161209 0.931664
vt 0.139687 0.933484
vt 0.986191 0.648124
vt 0.989500 0.656499
vt 0.991732 0.649894
vt 0.988630 0.642574
vt 0.145324 0.228088
vt 0.035248 0.990302
vt 0.014007 0.366836
vt 0.018101 0.374692
vt 0.047668 0.985205
vt 0.054992 0.986583
vt 0.075538 0.985301
vt 0.529300 0.427290
vt 0.512102 0.436625
vt 0.216134 0.568222
vt 0.220660 0.570246
vt 0.217178 0.565443
vt 0.774967 0.615852
vt 0.979243 0.621210
vt 0.980964 0.634614
vt 0.990185 0.628016
vt 0.021270 0.387150
vt 0.024279 0.385914
vt 0.061338 0.982694
vt 0.056975 0.976572
vt 0.063212 0.979795
vt 0.987053 0.607182
vt 0.548783 0.439283
vt 0.072782 0.761640
vt 0.971035 0.616626
vt 0.967750 0.619457
vt 0.971865 0.624972
vt 0.776831 0.507660
vt 0.255669 0.103890
vt 0.259886 0.096817
vt 0.232811 0.102908
vt 0.790245 0.479743
vt 0.781851 0.479543
vt 0.810704 0.495482
vt 0.109863 0.755779
vt 0.785720 0.472344
vt 0.112820 0.767398
vt 0.775246 0.471307
vt 0.272846 0.103890
vt 0.767410 0.462860
vt 0.776383 0.460014
vt 0.773651 0.478680
vt 0.765448 0.468690
vt 0.984349 0.481574
vt 0.982025 0.488921
vt 0.972044 0.485428
vt 0.989260 0.484515
vt 0.386538 0.993093
vt 0.828132 0.248743
vt 0.213533 0.575936
vt 0.210183 0.569635
vt 0.061375 0.741055
vt 0.065855 0.750187
vt 0.053362 0.739889
vt 0.175247 0.599344
vt 0.051412 0.671775
vt 0.129913 0.598264
vt 0.129984 0.603116
vt 0.012958 0.769673
vt 0.011632 0.765556
vt 0.011178 0.762014
vt 0.420643 0.956809
vt 0.129476 0.611330
vt 0.115173 0.605464
vt 0.127307 0.618031
vt 0.098915 0.588730
vt 0.034704 0.737399
vt 0.033841 0.730435
vt 0.090497 0.587402
vt 0.215048 0.332018
vt 0.903829 0.737960
vt 0.906440 0.735190
vt 0.906440 0.747569
vt 0.558402 0.821921
vt 0.565713 0.820870
vt 0.568755 0.823607
vt 0.376225 0.989355
vt 0.004651 0.993262
vt 0.970837 0.773210
vt 0.972302 0.789580
vt 0.968486 0.791159
vt 0.390051 0.990793
vt 0.805743 0.558444
vt 0.378628 0.986451
vt 0.059766 0.645003
vt 0.038063 0.625000
vt 0.057770 0.623784
vt 0.810541 0.021735
vt 0.828856 0.016818
vt 0.825986 0.019355
vt 0.821663 0.014977
vt 0.775121 0.492927
vt 0.781823 0.495351
vt 0.954032 0.164778
vt 0.972585 0.805162
vt 0.967040 0.806473
vt 0.805671 0.012732
vt 0.808570 0.009541
vt 0.744239 0.174793
vt 0.747171 0.172184
vt 0.744944 0.168057
vt 0.970092 0.115834
vt 0.966449 0.113616
vt 0.022324 0.419051
vt 0.021208 0.431913
vt 0.073351 0.745413
vt 0.270548 0.929708
vt 0.275157 0.933029
vt 0.265883 0.933245
vt 0.782855 0.970433
vt 0.771499 0.973917
vt 0.767221 0.965034
vt 0.791203 0.025199
vt 0.788595 0.020702
vt 0.740811 0.172807
vt 0.737187 0.164014
vt 0.015048 0.358296
vt 0.011749 0.363451
vt 0.018558 0.366580
vt 0.029341 0.434571
vt 0.793868 0.006875
vt 0.787830 0.012775
vt 0.789073 0.004122
vt 0.736985 0.182451
vt 0.811028 0.487958
vt 0.807383 0.500288
vt 0.806889 0.516041
vt 0.745633 0.185496
vt 0.742130 0.192812
vt 0.019657 0.360679
vt 0.524304 0.441563
vt 0.029647 0.417054
vt 0.032637 0.430265
vt 0.511314 0.440739
vt 0.777057 0.965081
vt 0.813610 0.002769
vt 0.806639 0.008447
vt 0.803823 0.004605
vt 0.016950 0.641476
vt 0.012620 0.640408
vt 0.012638 0.633020
vt 0.983138 0.642002
vt 0.024471 0.370436
vt 0.075001 0.752621
vt 0.088319 0.751143
vt 0.809868 0.000442
vt 0.030892 0.391659
vt 0.727194 0.187196
vt 0.735016 0.178039
vt 0.745379 0.202823
vt 0.727737 0.198398
vt 0.974791 0.631352
vt 0.566420 0.432520
vt 0.572480 0.441645
vt 0.025768 0.367987
vt 0.562085 0.429258
vt 0.975444 0.610650
vt 0.095680 0.747279
vt 0.933162 0.500884
vt 0.932996 0.493763
vt 0.954761 0.497827
vt 0.138816 0.242727
vt 0.724420 0.195322
vt 0.726120 0.209288
vt 0.968259 0.613428
vt 0.955138 0.490070
vt 0.961572 0.483329
vt 0.931850 0.485148
vt 0.116184 0.766057
vt 0.122165 0.761076
vt 0.119753 0.769673
vt 0.124899 0.764775
vt 0.130113 0.759104
vt 0.123122 0.753492
vt 0.915338 0.386741
vt 0.918371 0.391250
vt 0.911993 0.397436
vt 0.992805 0.494726
vt 0.755436 0.779248
vt 0.520522 0.426460
vt 0.000000 0.000000
vt 0.711830 0.963087
vt 0.662375 0.963040
vt 0.767877 0.955671
vt 0.986070 0.345397
vt 0.993709 0.330848
vt 0.994343 0.296640
vt 0.987386 0.297982
vt 0.162287 0.929674
vt 0.172899 0.930585
vt 0.175606 0.933938
vt 0.982406 0.498857
vt 0.442559 0.991468
vt 0.979912 0.341531
vt 0.984273 0.353695
vt 0.965781 0.128142
vt 0.963252 0.138265
vt 0.777159 0.556610
vt 0.781436 0.558355
vt 0.662443 0.953088
vt 0.687688 0.950044
vt 0.776108 0.018806
vt 0.777738 0.014017
vt 0.141475 0.614438
vt 0.149441 0.616182
vt 0.174201 0.593671
vt 0.991732 0.606985
vt 0.990279 0.613278
vt 0.823025 0.524678
vt 0.782855 0.502140
vt 0.158032 0.618997
vt 0.178127 0.612936
vt 0.780618 0.956343
vt 0.024673 0.363046
vt 0.775892 0.008103
vt 0.780936 0.530829
s 0
usemtl Material
f 88/1/1 97/2/1 91/3/1
f 211/4/2 169/5/2 171/6/2
f 101/7/3 23/8/3 118/9/3
f 101/7/4 118/9/4 89/10/4
f 39/11/5 118/9/5 23/8/5
f 166/12/6 190/13/6 148/14/6
f 30/15/7 32/16/7 29/17/7
f 31/18/8 123/19/8 120/20/8
f 30/15/9 120/21/9 121/22/9
f 122/23/10 100/24/10 120/20/10
f 122/25/11 94/26/11 100/27/11
f 111/28/12 131/29/12 114/30/12
f 94/26/13 92/31/13 100/27/13
f 120/20/14 117/32/14 121/33/14
f 94/26/15 93/34/15 92/31/15
f 121/22/16 117/35/16 33/36/16
f 95/37/17 99/38/17 93/34/17
f 90/39/18 92/31/18 93/34/18
f 64/40/19 96/41/19 95/37/19
f 95/37/20 96/41/20 99/38/20
f 92/42/21 118/9/21 117/32/21
f 117/32/22 118/9/22 34/43/22
f 90/39/23 89/44/23 92/31/23
f 59/45/24 97/46/24 88/47/24
f 96/41/25 88/1/25 90/39/25
f 118/9/26 39/11/26 34/43/26
f 59/45/27 88/47/27 61/48/27
f 36/49/28 39/50/28 119/51/28
f 3/52/29 167/53/29 202/54/29
f 50/55/30 26/56/30 51/57/30
f 49/58/31 50/55/31 51/57/31
f 49/58/32 54/59/32 50/55/32
f 39/11/33 23/8/33 119/60/33
f 25/61/34 22/62/34 26/63/34
f 89/44/35 91/3/35 101/64/35
f 25/61/36 20/65/36 22/62/36
f 22/62/37 20/65/37 21/66/37
f 59/45/38 98/67/38 97/46/38
f 97/2/39 24/68/39 91/3/39
f 52/69/40 54/70/40 55/71/40
f 59/45/41 218/72/41 98/67/41
f 119/73/42 19/74/42 53/75/42
f 20/65/43 12/76/43 21/66/43
f 97/2/44 98/77/44 24/68/44
f 119/60/45 23/8/45 19/78/45
f 145/79/46 189/80/46 143/81/46
f 56/82/47 53/83/47 52/69/47
f 218/84/48 208/85/48 98/86/48
f 140/87/49 190/88/49 141/89/49
f 139/90/50 140/87/50 141/89/50
f 221/91/51 152/92/51 149/93/51
f 149/94/52 152/95/52 142/96/52
f 143/97/53 142/96/53 152/95/53
f 160/98/54 161/99/54 132/100/54
f 160/98/55 132/100/55 159/101/55
f 159/102/56 233/103/56 232/104/56
f 159/101/57 132/100/57 155/105/57
f 159/106/58 155/107/58 233/108/58
f 60/109/59 42/110/59 59/45/59
f 139/111/60 165/112/60 149/93/60
f 149/93/61 165/112/61 150/113/61
f 150/114/62 220/115/62 221/116/62
f 207/117/63 98/86/63 208/85/63
f 231/118/64 233/108/64 133/119/64
f 207/117/65 24/120/65 98/86/65
f 24/121/66 5/122/66 101/123/66
f 139/111/67 168/124/67 165/112/67
f 204/125/68 207/117/68 206/126/68
f 133/119/69 203/127/69 204/125/69
f 204/125/70 203/127/70 205/128/70
f 203/127/71 151/129/71 205/128/71
f 147/130/72 24/120/72 207/117/72
f 203/127/73 157/131/73 151/129/73
f 157/132/74 168/133/74 151/134/74
f 151/129/75 141/135/75 205/128/75
f 205/128/76 141/135/76 147/130/76
f 217/136/77 204/125/77 209/137/77
f 209/137/78 204/125/78 206/126/78
f 157/132/79 163/138/79 168/133/79
f 229/139/80 113/140/80 73/141/80
f 155/105/81 156/142/81 157/132/81
f 162/143/82 163/138/82 157/132/82
f 13/144/83 5/122/83 147/145/83
f 146/146/84 3/147/84 13/144/84
f 190/13/85 167/53/85 3/52/85
f 9/148/86 10/149/86 12/76/86
f 210/150/87 212/151/87 170/152/87
f 209/153/88 116/154/88 222/155/88
f 210/150/89 206/126/89 212/151/89
f 217/156/90 87/157/90 134/158/90
f 163/138/91 167/159/91 168/133/91
f 162/160/92 186/161/92 163/162/92
f 3/147/93 5/122/93 13/144/93
f 182/163/94 130/164/94 214/165/94
f 177/166/95 211/4/95 172/167/95
f 177/168/96 213/169/96 211/170/96
f 213/169/97 128/171/97 211/170/97
f 215/172/98 129/173/98 128/174/98
f 211/170/99 210/150/99 170/152/99
f 128/171/100 129/175/100 209/137/100
f 129/173/101 116/154/101 209/153/101
f 185/176/102 196/177/102 162/160/102
f 163/162/103 186/161/103 167/178/103
f 201/179/104 202/180/104 167/181/104
f 186/182/105 201/179/105 167/181/105
f 162/160/106 196/177/106 186/161/106
f 155/105/107 132/100/107 158/183/107 156/142/107
f 178/184/108 130/164/108 182/163/108
f 216/185/109 177/166/109 174/186/109
f 130/164/110 127/187/110 214/165/110
f 124/188/111 215/172/111 214/165/111
f 215/172/112 131/189/112 129/173/112
f 129/173/113 131/189/113 116/154/113
f 116/190/114 111/28/114 113/191/114
f 226/192/115 224/193/115 225/194/115
f 127/187/116 124/188/116 214/165/116
f 19/74/117 20/65/117 25/61/117
f 9/148/118 46/195/118 10/149/118
f 194/196/119 138/197/119 186/182/119
f 196/198/120 194/196/120 186/182/120
f 173/199/121 171/6/121 175/200/121
f 125/201/122 126/202/122 114/203/122
f 125/201/123 114/203/123 131/189/123
f 195/204/124 194/196/124 196/198/124
f 114/30/125 180/205/125 111/28/125
f 113/140/126 229/139/126 230/206/126
f 191/207/127 219/208/127 199/209/127
f 146/210/128 141/89/128 190/88/128
f 229/211/129 18/212/129 230/213/129
f 14/214/130 110/215/130 4/216/130
f 73/141/131 113/140/131 72/217/131
f 154/218/132 110/215/132 14/214/132
f 73/141/133 79/219/133 229/139/133
f 154/218/134 15/220/134 110/215/134
f 229/211/135 79/221/135 18/212/135
f 154/218/136 17/222/136 15/220/136
f 18/223/137 17/222/137 154/218/137
f 15/220/138 108/224/138 110/215/138
f 17/222/139 16/225/139 15/220/139
f 15/220/140 16/225/140 108/224/140
f 16/226/141 103/227/141 108/228/141
f 16/226/142 105/229/142 103/227/142
f 111/28/143 116/190/143 131/29/143
f 143/81/144 220/230/144 148/14/144
f 151/129/145 139/231/145 141/135/145
f 227/232/146 224/193/146 226/192/146 228/233/146
f 65/234/147 212/235/147 208/236/147
f 30/15/148 29/17/148 28/237/148
f 122/23/149 120/20/149 123/19/149
f 32/16/150 30/15/150 121/22/150
f 52/69/151 66/238/151 65/234/151
f 33/36/152 32/16/152 121/22/152
f 89/10/153 118/9/153 92/42/153
f 100/24/154 92/42/154 117/32/154
f 33/36/155 117/35/155 34/239/155
f 35/240/156 33/36/156 34/239/156
f 64/241/157 63/242/157 61/48/157
f 61/48/158 63/242/158 62/243/158
f 96/41/159 64/40/159 61/244/159
f 41/245/160 35/240/160 36/49/160
f 60/109/161 62/243/161 42/110/161
f 42/246/162 62/247/162 36/49/162
f 59/45/163 61/48/163 60/109/163
f 57/248/164 36/49/164 119/51/164
f 58/249/165 57/250/165 56/82/165
f 54/59/166 49/58/166 55/71/166
f 59/45/167 58/249/167 56/82/167
f 218/72/168 59/45/168 56/82/168
f 53/251/169 57/248/169 119/51/169
f 56/82/170 57/250/170 53/83/170
f 232/104/171 164/252/171 159/102/171
f 231/253/172 232/254/172 233/255/172
f 150/113/173 221/91/173 149/93/173
f 187/256/174 221/257/174 220/258/174
f 143/81/175 188/259/175 220/230/175
f 189/80/176 188/259/176 143/81/176
f 206/126/177 207/117/177 208/85/177
f 168/124/178 139/111/178 151/260/178
f 150/261/179 165/262/179 166/263/179
f 148/14/180 150/264/180 166/12/180
f 220/230/181 150/264/181 148/14/181
f 9/148/182 12/76/182 11/265/182
f 188/259/183 187/266/183 220/230/183
f 68/267/184 67/268/184 70/269/184
f 134/158/185 133/270/185 217/156/185
f 133/119/186 204/125/186 217/136/186
f 132/271/187 231/272/187 158/273/187
f 158/273/188 231/272/188 133/270/188
f 158/273/189 133/270/189 134/158/189
f 147/274/190 141/89/190 13/275/190
f 13/275/191 141/89/191 146/210/191
f 208/236/192 56/82/192 52/69/192
f 206/126/193 208/85/193 212/151/193
f 222/276/194 217/136/194 209/137/194
f 165/262/195 168/277/195 167/278/195
f 166/263/196 165/262/196 167/278/196
f 158/273/197 134/158/197 135/279/197
f 158/273/198 135/279/198 156/280/198
f 185/281/199 156/282/199 135/283/199
f 216/284/200 182/285/200 177/168/200
f 170/286/201 212/287/201 169/5/201
f 47/288/202 212/235/202 65/234/202
f 222/289/203 116/290/203 223/291/203
f 47/292/204 69/293/204 44/294/204
f 217/156/205 222/295/205 223/296/205
f 87/157/206 217/156/206 223/296/206
f 135/279/207 134/158/207 87/157/207
f 137/297/208 185/281/208 135/283/208
f 137/297/209 135/283/209 87/298/209
f 178/299/210 182/300/210 216/185/210
f 228/301/211 216/185/211 174/186/211
f 174/186/212 177/166/212 172/167/212
f 47/302/213 169/5/213 212/287/213
f 201/303/214 136/304/214 202/305/214
f 80/306/215 185/281/215 137/297/215
f 3/147/216 7/307/216 4/216/216
f 4/216/217 106/308/217 6/309/217
f 184/310/218 185/281/218 81/311/218
f 178/299/219 216/185/219 228/301/219
f 226/312/220 178/299/220 228/301/220
f 173/199/221 211/4/221 171/6/221
f 111/28/222 112/313/222 113/191/222
f 112/314/223 169/5/223 181/315/223
f 181/315/224 169/5/224 47/302/224
f 89/44/225 90/39/225 88/1/225 91/3/225
f 112/313/226 181/316/226 113/191/226
f 107/317/227 47/292/227 44/294/227
f 87/157/228 136/304/228 201/303/228
f 80/318/229 137/319/229 200/320/229
f 200/320/230 137/319/230 87/157/230
f 200/320/231 87/157/231 201/303/231
f 82/321/232 199/322/232 219/323/232
f 186/182/233 200/324/233 201/179/233
f 200/324/234 186/182/234 138/197/234
f 176/325/235 174/186/235 175/200/235
f 174/186/236 173/199/236 175/200/236
f 181/326/237 47/288/237 71/327/237
f 138/328/238 80/318/238 200/320/238
f 171/6/239 169/5/239 180/329/239
f 180/329/240 169/5/240 112/314/240
f 180/205/241 112/313/241 111/28/241
f 82/330/242 80/306/242 138/331/242
f 85/332/243 81/311/243 83/333/243
f 83/333/244 81/311/244 80/306/244
f 82/334/245 138/197/245 199/209/245
f 115/335/246 179/336/246 180/205/246
f 179/337/247 176/325/247 180/329/247
f 176/325/248 175/200/248 171/6/248
f 176/325/249 171/6/249 180/329/249
f 126/338/250 115/335/250 180/205/250
f 72/217/251 181/326/251 71/327/251
f 194/196/252 195/204/252 193/339/252
f 191/207/253 194/196/253 193/339/253
f 109/340/254 71/327/254 47/288/254
f 47/341/255 107/342/255 109/343/255
f 162/143/256 157/132/256 156/142/256 185/344/256
f 84/345/257 83/333/257 80/306/257
f 84/345/258 80/306/258 82/330/258
f 86/346/259 85/332/259 83/333/259
f 191/207/260 193/339/260 192/347/260
f 109/343/261 107/342/261 104/348/261
f 110/349/262 104/348/262 106/350/262
f 104/348/263 110/349/263 108/228/263
f 79/219/264 73/141/264 75/351/264
f 103/227/265 109/343/265 104/348/265
f 75/351/266 73/141/266 74/352/266
f 74/352/267 73/141/267 72/217/267
f 103/227/268 104/348/268 108/228/268
f 78/353/269 75/351/269 76/354/269
f 76/354/270 75/351/270 74/352/270
f 76/354/271 74/352/271 77/355/271
f 74/352/272 72/217/272 2/356/272
f 77/355/273 74/352/273 2/356/273
f 1/357/274 77/358/274 2/359/274
f 102/360/275 103/227/275 105/229/275
f 9/148/276 6/309/276 8/361/276
f 24/68/277 101/64/277 91/3/277
f 223/296/278 136/304/278 87/157/278
f 113/191/279 223/362/279 116/190/279
f 5/122/280 24/121/280 147/145/280
f 180/205/281 114/30/281 126/338/281
f 55/71/282 49/58/282 66/238/282
f 55/71/283 66/238/283 52/69/283
f 67/268/284 68/267/284 66/238/284
f 68/267/285 48/363/285 66/238/285
f 66/238/286 48/363/286 65/234/286
f 69/293/287 48/363/287 44/294/287
f 47/288/288 65/234/288 69/363/288
f 48/363/289 68/267/289 43/364/289
f 43/364/290 68/267/290 45/365/290
f 45/365/291 68/267/291 70/269/291
f 44/294/292 8/361/292 6/366/292
f 8/361/293 44/294/293 48/363/293
f 43/364/294 8/361/294 48/363/294
f 19/74/295 25/61/295 54/70/295
f 81/311/296 185/281/296 80/306/296
f 233/108/297 203/127/297 133/119/297
f 140/87/298 139/90/298 149/94/298 142/96/298
f 36/49/299 35/240/299 34/239/299 39/50/299
f 18/367/300 154/368/300 7/369/300 230/370/300
f 36/49/301 57/248/301 42/246/301
f 67/268/302 66/238/302 49/58/302
f 211/4/303 170/286/303 169/5/303
f 184/371/304 183/372/304 197/373/304 196/177/304 185/176/304
f 194/196/305 191/207/305 199/209/305 138/197/305
f 19/74/306 54/70/306 53/83/306
f 59/45/307 42/110/307 58/249/307
f 54/70/308 52/69/308 53/83/308
f 233/108/309 155/107/309 157/131/309 203/127/309
f 41/245/310 36/49/310 62/247/310
f 11/265/311 5/122/311 6/309/311 9/148/311
f 103/227/312 102/360/312 2/374/312 109/343/312
f 211/170/313 128/171/313 209/137/313 210/150/313
f 7/375/314 3/52/314 202/54/314
f 104/348/315 107/342/315 106/350/315
f 79/376/316 153/377/316 18/367/316
f 213/169/317 214/378/317 215/379/317 128/171/317
f 143/97/318 152/95/318 144/380/318 145/381/318
f 43/364/319 45/365/319 46/382/319 9/383/319 8/361/319
f 5/122/320 3/147/320 4/216/320 6/309/320
f 113/384/321 230/385/321 136/304/321 223/296/321
f 61/48/322 62/243/322 60/109/322
f 166/12/323 167/53/323 190/13/323
f 4/216/324 110/215/324 106/308/324
f 32/16/325 33/36/325 37/386/325 38/387/325
f 109/340/326 2/356/326 72/217/326 71/327/326
f 120/21/327 30/15/327 28/237/327 31/388/327
f 100/24/328 117/32/328 120/20/328
f 204/125/329 205/128/329 147/130/329 207/117/329
f 215/172/330 124/188/330 126/202/330 125/201/330 131/189/330
f 198/389/331 195/204/331 197/390/331
f 195/204/332 196/198/332 197/390/332
f 208/236/333 52/69/333 65/234/333
f 181/326/334 72/217/334 113/140/334
f 177/168/335 182/285/335 214/378/335 213/169/335
f 20/65/336 19/74/336 23/391/336 101/123/336 5/122/336 11/265/336 12/76/336
f 58/249/337 42/110/337 57/250/337
f 190/88/338 3/392/338 146/210/338
f 208/236/339 218/72/339 56/82/339
f 88/1/340 96/41/340 61/244/340
f 209/137/341 206/126/341 210/150/341
f 7/307/342 14/214/342 4/216/342
f 29/17/343 32/16/343 38/387/343 40/393/343 27/394/343
f 6/366/344 106/395/344 107/317/344 44/294/344
f 176/325/345 227/396/345 228/301/345 174/186/345
f 7/397/346 202/305/346 136/304/346 230/385/346
f 173/199/347 174/186/347 172/167/347 211/4/347
f 140/87/348 142/96/348 148/398/348 190/88/348
f 7/307/349 154/218/349 14/214/349
f 25/61/350 26/63/350 50/55/350 54/59/350
f 69/293/351 65/234/351 48/363/351
