# Blender 4.1.1
# www.blender.org
mtllib tree2(leaves)lowpoly2.mtl
o Tree2.leaves_lowpoly3
v 4.372723 27.345526 4.826267
v -7.429223 12.563490 5.917273
v 1.852393 17.141592 8.278209
v -5.953358 22.752726 7.121406
v 3.981012 12.925328 -7.542282
v 10.456366 18.266285 -1.198298
v 7.410077 10.671618 -1.350896
v -2.252987 25.211731 -0.372122
v -8.870740 20.101702 -3.747636
v 0.093602 14.310911 1.132912
v -2.649484 14.897996 1.908055
v 6.492838 8.894320 1.688672
v -2.111122 13.624096 -3.244321
v -5.732916 11.510661 -0.341744
v 1.966435 21.993620 -8.223559
v -6.072392 10.502926 3.075082
v 11.426126 15.253181 2.782263
v -1.459315 13.907855 -3.770115
v 0.247494 14.212804 3.037350
v -2.677426 14.104327 1.961744
v 0.223576 13.832107 -0.391493
v 1.833515 14.922830 1.996364
v 0.190851 13.437411 3.503250
v -1.305876 14.327598 -3.761467
v 0.312334 14.888671 0.229241
v -5.189300 15.352082 -7.621342
vn 0.8647 0.4788 0.1517
vn 0.3647 -0.9279 -0.0773
vn 0.3025 -0.5301 -0.7922
vn -0.6472 -0.6637 0.3750
vn -0.3374 -0.9412 0.0147
vn 0.2612 -0.8046 0.5333
vn -0.3830 0.9170 0.1118
vn 0.7209 -0.6514 0.2364
vn 0.6223 -0.7386 0.2592
vn 0.0766 0.3025 0.9501
vn 0.6581 0.0900 -0.7475
vn 0.7826 -0.3030 -0.5438
vn -0.7185 -0.3065 0.6244
vn -0.9662 0.1125 0.2319
vn 0.9259 -0.3726 0.0615
vn -0.2692 -0.9629 -0.0194
vn -0.5659 -0.8009 -0.1958
vn -0.6041 -0.1923 -0.7734
vn 0.4887 -0.5852 -0.6470
vn 0.0576 -0.9968 -0.0560
vn 0.6563 -0.2251 -0.7201
vn 0.3142 -0.5057 -0.8034
vn 0.3817 -0.4363 0.8148
vn -0.5510 0.7949 -0.2541
vn -0.2568 -0.0562 -0.9648
vn 0.2863 -0.7056 0.6482
vn 0.1289 -0.8810 -0.4553
vn 0.7700 -0.6286 -0.1089
vn -0.5999 0.7993 -0.0339
vn 0.4719 -0.7902 -0.3910
vn -0.1440 0.9332 -0.3292
vn 0.7139 -0.4636 -0.5248
vn -0.8563 -0.4276 -0.2896
vn -0.3478 0.7870 -0.5095
vn -0.8999 -0.3988 -0.1768
vn -0.4091 0.3650 -0.8363
vn 0.5149 0.1579 0.8426
vn -0.0003 0.9252 -0.3794
vn -0.2059 -0.0854 0.9749
vn 0.6222 0.6774 -0.3925
vn 0.7564 -0.6175 0.2158
vn -0.1219 -0.9499 0.2879
vn 0.2242 -0.8692 -0.4406
vt 0.194522 0.412377
vt 0.370269 0.440738
vt 0.231027 0.464487
vt 0.182038 0.267115
vt 0.179276 0.302880
vt 0.174470 0.283573
vt 0.953504 0.262905
vt 0.987087 0.242403
vt 0.973796 0.219081
vt 0.217677 0.037670
vt 0.174940 0.045916
vt 0.217133 0.096028
vt 0.166264 0.249920
vt 0.230477 0.227443
vt 0.215477 0.270930
vt 0.000435 0.579576
vt 0.019353 0.587883
vt 0.005722 0.594607
vt 0.089305 0.575236
vt 0.170059 0.574449
vt 0.146987 0.469656
vt 0.215599 0.228019
vt 0.927115 0.582556
vt 0.954928 0.542495
vt 0.921585 0.410027
vt 0.050555 0.497241
vt 0.359474 0.105439
vt 0.422890 0.081155
vt 0.397463 0.040992
vt 0.122386 0.670740
vt 0.200644 0.707859
vt 0.171440 0.614184
vt 0.227844 0.293878
vt 0.202000 0.271705
vt 0.138228 0.066038
vt 0.055818 0.144171
vt 0.059154 0.033826
vt 0.570945 0.768235
vt 0.097573 0.739380
vt 0.129615 0.718196
vt 0.108787 0.722752
vt 0.503676 0.721753
vt 0.468109 0.747201
vt 0.292173 0.224101
vt 0.317845 0.270265
vt 0.262860 0.208151
vt 0.286362 0.216781
vt 0.173009 0.271961
vt 0.231744 0.219917
vt 0.903187 0.865084
vt 0.908596 0.852439
vt 0.883812 0.847480
vt 0.593562 0.393160
vt 0.462084 0.407586
vt 0.501284 0.342640
vt 0.570472 0.423646
vt 0.573184 0.440472
vt 0.563204 0.430100
vt 0.991946 0.253504
vt 0.940936 0.239780
vt 0.840934 0.760896
vt 0.885446 0.757586
vt 0.870245 0.813381
vt 0.953082 0.301037
vt 0.183124 0.176052
vt 0.194836 0.014073
vt 0.896556 0.460846
vt 0.857075 0.521224
vt 0.915249 0.540729
vt 0.099498 0.804336
vt 0.108991 0.874645
vt 0.015220 0.830743
vt 0.311067 0.205032
vt 0.274555 0.108977
vt 0.754803 0.687515
vt 0.789300 0.728968
vt 0.816547 0.636396
vt 0.282170 0.024282
vt 0.632168 0.342206
vt 0.412769 0.197069
vt 0.114551 0.401548
vt 0.302762 0.358480
vt 0.118286 0.326472
vt 0.165567 0.292772
s 0
f 6/1/1 1/2/1 17/3/1
f 10/4/2 22/5/2 19/6/2
f 16/7/3 20/8/3 23/9/3
f 3/10/4 21/11/4 12/12/4
f 11/13/5 24/14/5 21/15/5
f 3/16/6 2/17/6 23/18/6
f 1/19/7 8/20/7 4/21/7
f 11/13/8 13/22/8 24/14/8
f 18/23/9 11/24/9 14/25/9
f 4/21/10 3/26/10 1/19/10
f 15/27/11 6/28/11 5/29/11
f 5/30/12 6/31/12 7/32/12
f 21/33/13 22/5/13 25/34/13
f 4/35/14 9/36/14 2/37/14
f 12/38/15 7/32/15 6/31/15
f 24/39/16 5/40/16 21/41/16
f 5/42/17 12/38/17 21/43/17
f 15/44/18 5/45/18 24/14/18
f 26/46/19 15/47/19 24/14/19
f 10/4/20 19/6/20 20/48/20
f 26/46/21 24/14/21 18/49/21
f 20/50/22 19/51/22 23/52/22
f 3/53/23 12/54/23 17/55/23
f 11/56/24 18/57/24 13/58/24
f 11/59/25 20/8/25 16/7/25
f 16/7/26 23/9/26 2/60/26
f 18/61/27 14/62/27 26/63/27
f 14/64/28 11/59/28 16/7/28
f 8/65/29 9/36/29 4/35/29
f 25/34/30 22/5/30 10/4/30
f 21/11/31 3/10/31 22/66/31
f 6/67/32 17/68/32 12/69/32
f 9/70/33 26/71/33 14/72/33
f 8/73/34 15/27/34 9/74/34
f 14/75/35 2/76/35 9/77/35
f 15/27/36 26/78/36 9/74/36
f 1/79/37 3/53/37 17/55/37
f 15/27/38 8/73/38 1/80/38
f 3/26/39 4/21/39 2/81/39
f 1/2/40 6/1/40 15/82/40
f 22/5/41 3/83/41 23/84/41
f 11/13/42 21/15/42 10/4/42
f 5/42/43 7/32/43 12/38/43
