# Blender 4.1.1
# www.blender.org
mtllib Tree2_stem..mtl
o Tree2.001
v -6.003011 10.575907 -0.988600
v -5.646348 10.707140 -1.177547
v -5.178944 10.384266 -0.775595
v -1.023850 10.752325 0.946648
v -1.387312 9.708450 0.728216
v -0.842305 9.379822 1.007845
v -1.075721 7.880242 0.854043
v -1.368526 8.286682 0.655876
v -1.457873 10.186477 0.642656
v -1.609900 5.031157 0.859068
v -1.204625 1.902105 1.200068
v -1.680738 1.999352 0.936913
v -1.138580 0.037962 1.076485
v -0.570055 4.921563 1.321107
v -0.671246 8.797614 1.000832
v -0.196135 0.889585 1.399214
v -0.180278 0.006303 1.424346
v -0.777465 10.727289 0.945242
v -1.668002 0.023565 0.709799
v -2.397241 9.990965 0.682405
v -3.247962 10.465946 0.595630
v -3.690789 10.121101 0.508583
v -4.034853 10.410199 0.523510
v -1.468285 9.281989 0.599677
v -0.790469 11.248497 1.116099
v -3.742893 10.871727 0.352197
v -4.563561 10.764610 0.444432
v -4.500236 10.195898 0.314536
v -5.358752 10.719788 0.373113
v -5.330164 11.146116 0.161969
v -0.248254 11.579743 1.142259
v -2.603483 9.621616 0.469391
v -1.464506 10.309374 0.528135
v -4.714487 11.311430 -0.216225
v 0.364049 5.546830 0.993549
v -0.009996 7.722212 0.867604
v -0.114628 8.532654 0.825957
v 0.736046 1.815298 1.132170
v 0.734904 -0.004988 1.395187
v 1.228777 0.423972 1.164684
v 1.307174 -0.005284 1.131087
v 0.543190 8.092773 0.891461
v -0.034511 8.772251 0.660458
v -0.297700 9.531034 0.631579
v -0.388011 10.643551 0.561779
v 1.075288 2.376510 0.703315
v 0.213329 7.207668 0.746763
v 1.679385 0.001658 0.701775
v 0.470323 7.223117 0.222749
v 0.481953 7.440329 0.228311
v 0.525055 7.764226 0.696019
v 7.164427 8.836845 0.919427
v 6.689679 8.853801 1.775472
v 6.821529 8.708885 1.413972
v 6.093235 8.719265 1.190497
v 5.762511 9.107280 1.499909
v 6.523733 9.150978 2.043905
v 6.474332 8.646279 0.770168
v 5.277455 8.375120 0.559940
v 5.248433 8.634735 1.101391
v 4.199879 8.648355 0.609530
v 4.148236 8.914219 1.022648
v 3.341728 8.864889 0.902469
v 3.497706 8.777317 0.572247
v 2.561824 8.560793 0.565666
v 4.501268 8.520437 0.007939
v 5.151340 8.355339 0.020689
v 2.154856 8.561689 0.900179
v 1.367494 8.040058 0.667271
v 5.882887 8.507032 -0.003545
v 1.008145 7.838014 0.417125
v 0.525055 7.764226 0.696019
v 0.481953 7.440329 0.228311
v 3.703784 9.086298 0.076586
v 2.864453 8.853069 0.370667
v 3.423378 9.126955 -0.143378
v 2.483768 8.882969 -0.019719
v 3.786879 9.301555 -0.425050
v -1.700800 5.104112 0.737072
v -1.832619 3.914372 -0.008653
v -1.368526 8.286682 0.655876
v -1.497140 8.235132 -0.026633
v -1.680738 1.999352 0.936913
v -1.821183 1.622604 -0.008289
v -1.668002 0.023565 0.709799
v -1.468285 9.281989 0.599677
v -1.572910 8.991451 -0.047928
v -1.696534 0.015655 -0.035045
v -1.427776 9.439308 -0.431934
v -1.117240 6.941696 -0.544122
v -1.093912 8.579154 -0.538002
v 1.274131 0.556904 -1.046707
v 1.713703 1.081321 0.065891
v 1.709439 -0.008310 -0.262428
v 1.262244 3.038898 0.147660
v 0.967587 2.007623 -0.806615
v 1.206756 -0.013412 -1.136556
v 1.679385 0.001658 0.701775
v 0.276586 7.017404 -0.429779
v 0.521659 5.327674 -0.475737
v 0.470323 7.223117 0.222749
v 0.874457 4.573711 0.015820
v 1.262244 3.038898 0.147660
v 0.677518 3.432420 -0.652623
v 0.967587 2.007623 -0.806615
v 0.481953 7.440329 0.228311
v 0.173103 8.322319 -0.265312
v -0.053628 8.864573 -0.401328
v 0.197925 8.782303 -0.142991
v 1.008145 7.838014 0.417125
v 0.519868 8.385935 -0.107823
v 1.217957 8.272069 0.126541
v 0.849722 8.776730 -0.054875
v 1.589409 8.709229 -0.014687
v 1.383755 8.979483 -0.006837
v 2.483768 8.882969 -0.019719
v 2.393120 9.179770 -0.127093
v 2.658955 9.529378 -0.097570
v 3.230031 9.389887 -0.269942
v 3.411295 9.712666 -0.288701
v 3.786879 9.301555 -0.425050
v 3.423378 9.126955 -0.143378
v 3.815038 9.568361 -0.545230
v 3.923318 9.913788 -0.476891
v 0.842848 9.009893 0.190606
v 1.725927 9.328939 0.215056
v 0.045381 8.947219 0.110339
v -0.593008 9.064743 -0.737540
v -0.080278 6.213017 -0.655579
v -0.488341 3.655369 -0.905352
v 0.165684 -0.010362 -1.280210
v -0.288693 9.438906 -0.470861
v -0.901271 9.779751 -0.892389
v -1.300938 1.657647 -0.676300
v -1.093912 8.579154 -0.538002
v -1.427776 9.439308 -0.431934
v -1.234193 0.010219 -0.616490
v -1.403061 9.716518 -0.487663
v -2.246334 9.982042 -0.580015
v -1.520243 10.107001 -0.463004
v -2.813089 10.295440 -0.702122
v -3.220669 10.117455 -0.725717
v -3.761151 10.446682 -0.858171
v -4.355525 10.392744 -0.877178
v -4.122476 10.858677 -0.865776
v -5.035817 10.824476 -1.114175
v -2.794185 10.609868 -0.539478
v -4.627261 11.168468 -0.884699
v -2.838217 9.762678 -0.473892
v -1.467314 10.369650 -0.304450
v -5.185722 11.090879 -1.284783
v -5.646348 10.707140 -1.177547
v -4.909572 11.440776 -0.936759
v -5.178944 10.384266 -0.775595
v -4.436213 11.194508 -0.676775
v -3.183200 10.808903 -0.381574
v -3.894241 9.971256 -0.491818
v -1.486022 10.482216 0.074630
v -1.998060 13.369850 1.225952
v -1.476693 13.949422 1.480672
v -1.662509 13.154961 1.111405
v -1.062406 12.800993 0.883460
v -1.284794 12.639862 0.773936
v -2.535359 13.380733 1.298006
v -2.610965 14.181491 1.477830
v -2.853106 13.940447 1.415325
v -1.351525 14.722767 1.644281
v -2.901803 14.920896 1.736357
v -0.935579 12.525259 0.489772
v -1.297713 11.989520 0.514854
v -0.822194 12.725332 0.748072
v -1.128814 13.466717 1.346381
v -1.758041 12.835327 1.232194
v -2.248783 13.071140 1.280518
v 2.545714 9.637022 0.212171
v 2.715110 9.347822 0.902370
v 3.786843 9.816910 0.601901
v 1.773301 9.264658 0.644567
v 3.610797 9.479277 1.030685
v 4.412004 9.849936 0.657921
v 1.855459 9.055988 0.903109
v 0.819564 8.917308 0.684493
v 4.252606 9.436484 1.102004
v 5.244248 9.853311 0.911806
v 5.692819 9.639462 1.540319
v 4.073066 9.953323 -0.239921
v 3.174144 9.786101 0.051072
v 1.725927 9.328939 0.215056
v 0.842848 9.009893 0.190606
v -0.034511 8.772251 0.660458
v 0.045381 8.947219 0.110339
v 3.969578 9.790041 0.102252
v 3.923318 9.913788 -0.476891
v 4.926040 9.350886 1.289343
v 5.536488 9.415002 1.448457
v 0.691066 8.563244 0.936233
v -0.114628 8.532654 0.825957
v 3.411295 9.712666 -0.288701
v -5.971481 10.626211 -0.516403
v -5.178944 10.384266 -0.775595
v -5.238415 10.296965 -0.021782
v -5.903402 10.554848 -0.185250
v -3.894241 9.971256 -0.491818
v -3.664697 9.906164 0.159861
v -2.726521 9.539053 0.016457
v -5.760661 10.535891 0.289481
v -2.603483 9.621616 0.469391
v -1.835478 9.211329 -0.046362
v -1.468285 9.281989 0.599677
v -4.500236 10.195898 0.314536
v -2.838217 9.762678 -0.473892
v -3.690789 10.121101 0.508583
v -1.572910 8.991451 -0.047928
v -5.358752 10.719788 0.373113
v -1.427776 9.439308 -0.431934
v -1.616364 11.288592 -1.291194
v -1.822631 11.786598 -1.727308
v -1.712906 11.194176 -1.597572
v -1.971264 11.980810 -2.012825
v -1.573048 10.518303 -1.005191
v -1.382173 10.698641 -0.561453
v -2.066759 12.929564 -2.311690
v -2.125779 12.794250 -2.572789
v -2.047671 13.649948 -2.304581
v -2.185087 13.754576 -2.689732
v -1.467314 10.369650 -0.304450
v -1.520243 10.107001 -0.463004
v -2.087813 13.772598 -3.517778
v -1.122601 11.310614 -0.373157
v -1.073483 11.531179 -0.758332
v -1.118016 11.786934 -1.058993
v -1.394192 12.223417 -1.558965
v -1.876991 13.118826 -2.211681
v -1.532865 12.705412 -1.849449
v 4.202915 9.147024 1.133309
v 3.060621 9.089468 1.094518
v 3.341728 8.864889 0.902469
v 2.154856 8.561689 0.900179
v 2.008619 8.769785 1.028394
v 0.543190 8.092773 0.891461
v 1.367494 8.040058 0.667271
v 0.525055 7.764226 0.696019
v -0.009996 7.722212 0.867604
v 4.148236 8.914219 1.022648
v 5.762511 9.107280 1.499909
v 0.691066 8.563244 0.936233
v -0.114628 8.532654 0.825957
v 5.248433 8.634735 1.101391
v 4.926040 9.350886 1.289343
v 5.536488 9.415002 1.448457
v 5.692819 9.639462 1.540319
v 4.252606 9.436484 1.102004
v 3.610797 9.479277 1.030685
v 2.715110 9.347822 0.902370
v 0.213329 7.207668 0.746763
v 6.075102 9.502466 1.952682
v 6.523733 9.150978 2.043905
v -1.444850 13.459694 -2.766346
v -1.648079 13.230786 -2.283948
v -1.015204 12.803748 -2.466637
v -2.047671 13.649948 -2.304581
v -1.051489 13.301066 -3.066264
v -1.100534 12.536431 -2.122701
v -1.532865 12.705412 -1.849449
v -1.551016 13.936882 -3.086380
v -1.009114 11.938334 -1.695851
v -1.141315 12.179453 -1.519268
v -1.208337 14.306860 -3.549875
v -1.097283 14.129593 -3.732487
v -1.334373 14.519509 -3.862119
v -1.876991 13.118826 -2.211681
v -1.394192 12.223417 -1.558965
v -1.118016 11.786934 -1.058993
v -0.880162 11.560813 -1.112362
v -0.885126 11.532935 -0.636245
v -0.179687 13.931711 0.026305
v -0.238154 14.188431 0.131103
v -0.418511 13.838387 0.256357
v -0.311592 13.115643 0.215113
v -0.692092 12.617640 0.196330
v -0.298941 12.572336 0.222587
v -0.617573 11.784586 -0.261773
v -0.665631 13.231216 0.496846
v -0.935579 12.525259 0.489772
v -0.822194 12.725332 0.748072
v -1.297713 11.989520 0.514854
v -0.850468 11.865200 -0.192388
v -1.122601 11.310614 -0.373157
v -0.885126 11.532935 -0.636245
v -1.271931 11.462969 0.301542
v -1.285376 11.034843 0.147438
v -1.486022 10.482216 0.074630
v -1.467314 10.369650 -0.304450
v -1.300713 11.618340 0.714051
v -1.490303 12.381928 0.964580
v -1.284794 12.639862 0.773936
v -1.662509 13.154961 1.111405
v -1.758041 12.835327 1.232194
v -1.464506 10.309374 0.528135
v -1.071905 11.262910 0.850125
v 0.138269 13.065357 1.728597
v 0.170025 13.022603 2.121199
v -0.082782 11.938334 1.077502
v 0.043163 13.626649 2.242572
v 0.074455 13.623188 2.658555
v 0.229078 14.152210 2.846858
v 0.238081 14.217715 3.135452
v 0.528219 14.724245 2.929036
v 0.511200 14.710437 3.281110
v -0.063348 12.387668 1.716341
v -0.248254 11.579743 1.142259
v -0.309619 11.156501 0.635260
v -0.777465 10.727289 0.945242
v -0.388011 10.643551 0.561779
v -0.374056 11.806196 1.379948
v -0.790469 11.248497 1.116099
v -0.051054 13.020947 2.214615
v -0.261798 12.957342 1.555175
v -0.129698 13.319208 1.891043
v 0.138269 13.065357 1.728597
v -0.134783 12.443606 1.135459
v 0.043163 13.626649 2.242572
v -0.120141 13.675055 2.306639
v 0.073405 14.039972 2.577160
v -0.447952 12.453385 1.204056
v -0.570289 11.981812 0.708485
v -0.415498 11.904865 0.667561
v -0.448784 11.639582 0.483730
v 0.229078 14.152210 2.846858
v -5.334748 11.516735 -0.358872
v -4.436213 11.194508 -0.676775
v -4.714487 11.311430 -0.216225
v -3.590168 10.952722 0.027784
v -3.742893 10.871727 0.352197
v -1.486022 10.482216 0.074630
v -1.464506 10.309374 0.528135
v -0.444989 12.891730 0.709920
v -0.822194 12.725332 0.748072
v -0.303516 12.430517 0.617530
v -0.189358 13.508706 0.455620
v -0.665631 13.231216 0.496846
v -0.418511 13.838387 0.256357
v -0.238154 14.188431 0.131103
v 0.001663 14.039432 0.145917
v 0.064496 14.918930 0.181959
v -0.207150 14.963319 0.237624
v -0.926405 12.663809 0.980277
v -0.819021 12.129897 0.741664
v -0.570289 11.981812 0.708485
v -0.415498 11.904865 0.667561
v -0.916203 11.759946 0.915190
v -1.062406 12.800993 0.883460
v 0.270567 14.246107 -0.062786
v 0.001663 14.039432 0.145917
v 0.043619 14.044153 -0.094797
v -0.164464 13.273173 0.351038
v -0.261798 12.957342 1.555175
v -0.447952 12.453385 1.204056
v -0.416157 12.458585 1.500120
v -0.231905 12.818958 1.899622
v -0.746781 11.840436 1.107502
v -0.120141 13.675055 2.306639
v -0.570289 11.981812 0.708485
v -0.916203 11.759946 0.915190
v -1.521448 11.154211 -1.840745
v -1.150447 10.557830 -1.415094
v -1.390721 10.350342 -1.136255
v -0.901271 9.779751 -0.892389
v -1.403061 9.716518 -0.487663
v -1.132252 11.572926 -2.145331
v -1.379583 12.009007 -2.474318
v -1.758897 11.792587 -2.229322
v -1.949545 12.274730 -2.556399
v -1.095448 12.079906 -2.602443
v -1.200949 12.515172 -2.972531
v -1.519048 12.507735 -2.723903
v -1.540953 12.830904 -2.967014
v -1.287543 12.995615 -3.299658
v -1.459596 13.345058 -3.398392
v -1.926057 12.945532 -3.101576
v -1.994658 13.576523 -3.506624
v -1.572832 13.912907 -3.617104
v -2.077947 14.103869 -3.711736
v -1.260320 13.863810 -3.780514
v -1.065159 13.142079 -3.341492
v -1.760880 12.514936 -2.833836
v -1.334373 14.519509 -3.862119
v -2.087813 13.772598 -3.517778
v -1.712906 11.194176 -1.597572
v -1.573048 10.518303 -1.005191
v -2.125779 12.794250 -2.572789
v -1.520243 10.107001 -0.463004
v -1.971264 11.980810 -2.012825
v -1.097283 14.129593 -3.732487
v -1.535559 14.369779 -3.544984
v -1.185254 14.217958 1.699652
v -1.183424 14.328062 2.011931
v -1.100401 13.337364 1.457905
v -1.128814 13.466717 1.346381
v -1.062406 12.800993 0.883460
v -0.926405 12.663809 0.980277
v -1.141230 12.250750 1.172453
v -0.819021 12.129897 0.741664
v -0.916203 11.759946 0.915190
v -0.130289 14.584547 2.641820
v -0.075612 14.575616 2.932908
v 0.114426 14.808488 3.370955
v 0.238081 14.217715 3.135452
v -0.071362 13.758999 2.619041
v -0.051054 13.020947 2.214615
v -0.120141 13.675055 2.306639
v -0.231905 12.818958 1.899622
v -0.063348 12.387668 1.716341
v -0.416157 12.458585 1.500120
v -0.374056 11.806196 1.379948
v -0.746781 11.840436 1.107502
v -0.790469 11.248497 1.116099
v -0.916203 11.759946 0.915190
v -1.071905 11.262910 0.850125
v -1.023850 10.752325 0.946648
v -1.464506 10.309374 0.528135
v 0.511200 14.710437 3.281110
v -2.637185 13.985260 1.866699
v -2.877757 13.988315 2.095464
v -2.337181 14.277270 2.259530
v -1.984991 13.753738 1.658124
v -1.732781 14.178637 1.982110
v -1.474366 13.459019 1.575501
v -1.478340 14.700106 2.262908
v -1.183424 14.328062 2.011931
v -1.111833 14.757112 2.260363
v -1.100401 13.337364 1.457905
v -2.533186 13.414360 1.591517
v -1.758041 12.835327 1.232194
v -1.141230 12.250750 1.172453
v -2.871510 13.852488 1.659780
v -2.248783 13.071140 1.280518
v -1.490303 12.381928 0.964580
v -1.288358 12.055441 1.064024
v -0.916203 11.759946 0.915190
v -1.071905 11.262910 0.850125
v -1.300713 11.618340 0.714051
v -0.130289 14.584547 2.641820
v 0.073405 14.039972 2.577160
v -0.071362 13.758999 2.619041
v -0.179687 13.931711 0.026305
v -0.164464 13.273173 0.351038
v -0.311592 13.115643 0.215113
v -0.298941 12.572336 0.222587
v -0.225312 12.019428 0.276299
v -0.390056 11.756794 -0.073971
v -0.454214 11.225508 0.272730
v -0.303516 12.430517 0.617530
v -0.189358 13.508706 0.455620
v -0.415498 11.904865 0.667561
v 0.001663 14.039432 0.145917
v -0.448784 11.639582 0.483730
v -0.481909 10.729213 -0.325827
v -0.221396 10.110638 0.070244
v -0.288693 9.438906 -0.470861
v -0.382488 11.077988 -0.066097
v -0.751782 11.279613 -0.793630
v -0.709087 10.297976 -0.645698
v -0.053628 8.864573 -0.401328
v -0.910726 10.791908 -1.261000
v -0.880162 11.560813 -1.112362
v 0.045381 8.947219 0.110339
v -1.009114 11.938334 -1.695851
v -1.132252 11.572926 -2.145331
v -0.901271 9.779751 -0.892389
v -0.948729 12.390648 -2.532660
v -1.095448 12.079906 -2.602443
v -1.065159 13.142079 -3.341492
v -1.051489 13.301066 -3.066264
v -1.097283 14.129593 -3.732487
v -1.015204 12.803748 -2.466637
v -0.388011 10.643551 0.561779
v -0.309619 11.156501 0.635260
v 0.138269 13.065357 1.728597
v -0.297700 9.531034 0.631579
v -0.885126 11.532935 -0.636245
v -1.141315 12.179453 -1.519268
v -0.034511 8.772251 0.660458
v -1.150447 10.557830 -1.415094
v -1.260320 13.863810 -3.780514
v -0.617573 11.784586 -0.261773
v 0.197925 8.782303 -0.142991
v -2.533186 13.414360 1.591517
v -2.871510 13.852488 1.659780
v -2.535359 13.380733 1.298006
v -2.248783 13.071140 1.280518
v -0.120141 13.675055 2.306639
v -0.071362 13.758999 2.619041
v 0.073405 14.039972 2.577160
v -0.885126 11.532935 -0.636245
v -1.073483 11.531179 -0.758332
v -1.122601 11.310614 -0.373157
v -1.118016 11.786934 -1.058993
v -1.735673 14.688990 -3.554396
v -1.472290 14.396071 -3.327106
v -1.535559 14.369779 -3.544984
v -2.077947 14.103869 -3.711736
v -1.572832 13.912907 -3.617104
v -3.183200 10.808903 -0.381574
v -3.590168 10.952722 0.027784
v -1.486022 10.482216 0.074630
v -4.436213 11.194508 -0.676775
v -0.179687 13.931711 0.026305
v 0.043619 14.044153 -0.094797
v -0.164464 13.273173 0.351038
vn -0.3382 0.9257 0.1692
vn -0.1838 -0.5780 -0.7951
vn -0.0657 0.4332 -0.8989
vn -0.0873 -0.0672 0.9939
vn -0.1197 0.3490 0.9295
vn 0.6621 0.0103 -0.7493
vn -0.2312 0.8758 0.4237
vn 0.1123 -0.4628 0.8793
vn 0.9740 0.2173 -0.0635
vn 0.2246 -0.9228 0.3130
vn 0.2039 0.9203 0.3340
vn -0.5466 -0.4993 0.6723
vn 0.4113 -0.7743 -0.4810
vn 0.1416 0.1273 -0.9817
vn 0.0018 -0.5894 -0.8079
vn 0.1288 -0.1654 -0.9778
vn 0.1504 0.6454 -0.7489
vn 0.1587 -0.9384 0.3068
vn -0.5022 -0.4493 0.7389
vn 0.9900 0.1234 -0.0683
vn -0.0183 -0.6329 0.7740
vn -0.3710 -0.1185 0.9210
vn -0.7408 0.2629 0.6182
vn -0.2512 0.6781 0.6907
vn -0.5495 0.2780 0.7879
vn 0.8758 0.1547 0.4571
vn -0.1272 0.6461 0.7526
vn -0.1886 -0.5051 0.8422
vn -0.1952 0.7518 0.6299
vn -0.2465 -0.8287 0.5025
vn -0.4527 0.8502 0.2688
vn -0.2211 -0.3758 0.8999
vn 0.0423 -0.3395 -0.9397
vn 0.9035 0.1611 -0.3972
vn 0.1356 -0.3972 0.9077
vn -0.0260 0.7363 0.6762
vn 0.1438 -0.9241 -0.3541
vn -0.0953 0.8007 0.5914
vn -0.1014 0.1242 0.9871
vn -0.1104 -0.4054 0.9074
vn -0.1953 0.9799 -0.0401
vn -0.0317 0.9057 0.4226
vn -0.0443 0.2220 0.9740
vn 0.0066 -0.6451 0.7640
vn -0.1981 0.8080 0.5549
vn -0.2160 0.6836 -0.6972
vn -0.1897 0.9692 0.1568
vn 0.9500 -0.0598 0.3065
vn -0.4601 0.0612 0.8857
vn 0.1363 -0.5398 0.8307
vn -0.3005 -0.9444 -0.1330
vn -0.3541 0.7232 -0.5930
vn 0.3858 -0.7929 0.4715
vn -0.6999 0.0800 0.7098
vn -0.1673 -0.6573 -0.7348
vn 0.9994 -0.0133 0.0313
vn 0.8667 -0.0239 -0.4983
vn 0.9024 0.1211 -0.4136
vn 0.8679 0.2188 -0.4460
vn 0.1723 -0.6066 0.7761
vn 0.7870 0.1998 0.5838
vn -0.2406 0.6189 0.7477
vn 0.7521 0.0862 0.6534
vn 0.0609 0.0753 -0.9953
vn -0.3122 -0.9132 0.2619
vn 0.4190 0.0055 0.9080
vn 0.5952 0.2288 0.7703
vn 0.3201 0.1353 0.9377
vn 0.0123 0.7252 -0.6884
vn -0.1696 0.9700 0.1739
vn 0.1954 -0.5093 0.8381
vn 0.8822 0.1152 -0.4565
vn 0.0764 0.8560 -0.5112
vn 0.8564 -0.4580 0.2382
vn 0.2998 -0.4999 0.8125
vn 0.1402 0.1415 0.9800
vn -0.1038 0.9521 0.2877
vn 0.8969 -0.0592 0.4381
vn 0.3104 -0.0876 0.9466
vn 0.1255 -0.3446 0.9303
vn 0.9234 0.1192 -0.3648
vn 0.5096 0.8284 -0.2324
vn -0.0711 0.0420 0.9966
vn 0.7349 0.1645 0.6579
vn 0.0322 0.0290 0.9991
vn 0.7982 -0.5039 0.3301
vn 0.9858 -0.1386 -0.0948
vn 0.7013 0.4168 -0.5783
vn 0.9640 -0.2552 -0.0746
vn 0.9556 -0.2923 0.0365
vn 0.1766 -0.1410 0.9741
vn -0.0832 -0.0349 0.9959
vn 0.9720 -0.1663 0.1662
vn 0.2151 0.4333 0.8752
vn 0.9074 -0.0867 0.4112
vn -0.0543 -0.3543 -0.9336
vn 0.2182 0.6789 -0.7011
vn -0.0297 0.7596 -0.6497
vn -0.8879 0.4597 0.0151
vn 0.3170 0.9471 -0.0489
vn 0.8393 0.2876 -0.4614
vn 0.9528 0.2109 -0.2184
vn 0.7896 -0.2566 -0.5574
vn 0.9098 0.2207 0.3516
vn 0.9151 0.3264 0.2367
vn 0.9714 -0.0066 -0.2372
vn 0.6467 0.0459 0.7614
vn 0.9839 0.1408 0.1096
vn 0.4684 0.1953 0.8617
vn 0.4437 0.4041 0.7999
vn -0.1234 0.7339 -0.6679
vn 0.8877 0.0840 -0.4527
vn 0.8808 0.0718 -0.4681
vn 0.9335 -0.2681 -0.2381
vn 0.9794 0.0133 0.2016
vn 0.8508 -0.2474 0.4636
vn 0.9693 0.0930 0.2278
vn 0.9056 -0.1554 0.3947
vn 0.2711 0.0338 0.9620
vn 0.8814 -0.3387 0.3292
vn 0.9269 0.1607 -0.3391
vn 0.9197 -0.0857 -0.3831
vn -0.3405 0.0206 0.9400
vn 0.6698 0.1812 -0.7201
vn 0.0955 0.7933 -0.6013
vn 0.5837 0.5102 -0.6317
vn 0.9311 0.0062 -0.3647
vn 0.8832 0.0357 -0.4676
vn 0.1837 0.0892 0.9789
vn 0.2532 0.8546 -0.4533
vn 0.1629 -0.1455 0.9759
vn 0.3894 -0.3094 0.8676
vn 0.7015 -0.0006 0.7126
vn -0.5026 0.8606 0.0826
vn 0.1410 -0.3052 0.9418
vn -0.1969 -0.0696 0.9779
vn -0.5859 0.0550 0.8085
vn -0.2633 -0.0731 0.9619
vn 0.6820 -0.2446 -0.6893
vn 0.8933 0.4481 0.0356
vn -0.4114 0.6633 0.6252
vn 0.6940 0.7183 0.0493
vn 0.9021 -0.1402 -0.4082
vn -0.7272 0.4296 -0.5354
vn 0.3169 0.3333 0.8880
vn 0.7789 -0.1186 0.6158
vn -0.0263 -0.3120 0.9497
vn 0.0104 0.0459 0.9989
vn 0.8351 0.1951 -0.5143
vn 0.8753 -0.4811 0.0498
vn 0.9165 0.2802 0.2854
vn 0.4213 -0.5261 -0.7388
vn 0.8560 -0.3115 -0.4126
vn 0.8839 -0.3469 -0.3136
vn 0.6700 0.4964 0.5520
vn 0.9668 -0.2472 -0.0639
vn 0.9144 0.3182 0.2501
vn 0.7395 -0.4018 -0.5401
vn 0.8979 0.4326 0.0815
vn 0.6622 0.5864 0.4666
vn -0.6051 -0.0484 0.7947
vn 0.7762 0.4857 -0.4021
vn 0.8076 0.0629 0.5864
vn 0.2262 -0.1958 0.9542
vn -0.0225 -0.4722 0.8812
vn 0.8208 -0.1738 0.5441
vn -0.9874 -0.0066 0.1582
vn -0.1631 0.4359 0.8851
vn 0.8527 0.5223 0.0115
vn -0.1614 -0.5444 -0.8232
vn 0.5231 0.4342 0.7334
vn 0.6173 0.6235 0.4798
vn 0.5573 0.6976 0.4503
vn -0.0473 0.5056 0.8615
vn 0.0307 0.7613 0.6477
vn -0.6976 0.4310 0.5723
vn -0.7919 0.4023 0.4595
vn -0.4782 0.0337 0.8776
vn -0.4941 -0.0749 0.8662
vn 0.2133 -0.2557 0.9429
vn 0.8131 0.5010 -0.2966
vn 0.6404 0.5210 0.5644
vn 0.7149 0.0970 0.6925
vn -0.5649 -0.0978 0.8194
vn -0.3617 -0.4643 0.8084
vn -0.0345 -0.3248 0.9452
vn 0.3312 -0.5528 -0.7647
vn 0.2243 -0.8070 -0.5462
vn 0.1899 0.2281 0.9549
vn -0.0622 0.6279 0.7758
vn -0.9393 -0.1023 0.3275
vn -0.1178 -0.2660 0.9567
vn -0.1720 -0.5307 0.8299
vn -0.4691 0.0037 0.8831
vn -0.8646 0.0697 0.4975
vn -0.4660 -0.0201 0.8846
vn 0.2503 0.9314 -0.2642
vn 0.2703 -0.5554 0.7864
vn -0.2608 0.0906 -0.9611
vn -0.6998 -0.5453 -0.4614
vn -0.4310 -0.4543 0.7796
vn 0.8999 -0.3751 0.2222
vn 0.2192 0.9680 -0.1222
vn -0.1398 -0.0699 0.9877
vn -0.5673 -0.1844 0.8026
vn 0.2715 0.2208 -0.9368
vn -0.1119 0.4073 0.9064
vn -0.0800 -0.1461 0.9860
vn 0.3602 0.6899 -0.6279
vn 0.0661 0.3102 0.9484
vn 0.3015 0.9528 -0.0350
vn -0.2488 -0.3429 0.9058
vn 0.0099 0.6078 0.7940
vn 0.0861 0.8538 0.5134
vn -0.3015 -0.2441 0.9217
vn -0.1049 0.4470 0.8884
vn -0.0741 -0.2299 0.9704
vn -0.3770 -0.6872 0.6210
vn -0.1908 -0.4083 0.8927
vn 0.1442 -0.6532 0.7433
vn -0.9317 0.3405 -0.1262
vn -0.6452 0.3481 0.6801
vn -0.2432 -0.9660 0.0877
vn -0.5815 -0.4032 0.7066
vn -0.0804 -0.7191 -0.6903
vn 0.8580 0.0885 -0.5060
vn -0.2382 0.7174 0.6547
vn -0.2357 0.0304 0.9714
vn -0.3693 -0.7408 0.5611
vn 0.9748 0.1795 0.1327
vn 0.5788 0.5981 0.5543
vn 0.0946 -0.4846 0.8696
vn 0.5652 0.1088 -0.8178
vn -0.0523 -0.9908 0.1246
vn -0.1155 -0.9358 0.3330
vn -0.7493 -0.1472 0.6457
vn 0.0443 -0.8999 0.4339
vn 0.3488 0.0358 -0.9365
vn -0.2058 -0.8867 0.4141
vn 0.2254 0.4478 -0.8653
vn -0.1851 0.4150 0.8908
vn -0.2478 0.1461 0.9577
vn 0.2341 0.1270 -0.9639
vn -0.0287 -0.8422 0.5384
vn -0.1867 -0.9679 0.1685
vn -0.4314 0.3033 -0.8496
vn -0.5842 -0.2813 -0.7613
vn -0.3024 -0.5847 -0.7527
vn -0.4685 0.7375 -0.4864
vn 0.0597 -0.8581 -0.5101
vn -0.0050 -0.4367 -0.8996
vn 0.1568 -0.6553 -0.7389
vn -0.2235 0.2495 -0.9422
vn 0.2077 -0.9389 -0.2744
vn -0.1549 0.1995 -0.9676
vn -0.0098 0.0216 -0.9997
vn 0.2797 0.0688 0.9576
vn 0.4058 -0.9023 0.1458
vn 0.2295 -0.6156 -0.7539
vn 0.8085 0.2584 -0.5288
vn 0.2978 -0.1231 -0.9467
vn 0.3066 -0.9061 0.2914
vn 0.1341 0.0210 -0.9907
vn 0.3474 0.3033 -0.8873
vn 0.4035 -0.7692 0.4955
vn 0.3226 -0.5942 0.7368
vn 0.5048 -0.2802 -0.8165
vn 0.4313 0.0814 -0.8985
vn 0.3696 0.2201 -0.9027
vn 0.9614 -0.0445 -0.2714
vn 0.6536 -0.7503 0.0992
vn -0.2516 -0.4327 -0.8657
vn -0.1145 0.6301 -0.7680
vn -0.2883 0.0058 -0.9575
vn -0.7127 -0.2549 0.6535
vn -0.7639 -0.3705 0.5284
vn 0.9968 0.0365 -0.0706
vn 0.9260 0.1762 -0.3339
vn 0.3505 0.5033 -0.7898
vn 0.1033 0.6210 -0.7770
vn -0.1528 0.6023 -0.7835
vn -0.4155 0.6956 -0.5861
vn -0.9905 0.0743 0.1158
vn -0.8059 -0.1651 0.5686
vn -0.9739 -0.1291 0.1868
vn -0.1926 0.0011 0.9813
vn -0.9805 -0.0750 0.1819
vn -0.4285 -0.0501 -0.9022
vn 0.1139 0.4865 -0.8662
vn 0.6382 0.1991 -0.7437
vn -0.7127 0.1199 -0.6912
vn -0.6805 -0.0590 -0.7304
vn -0.0212 0.0538 -0.9983
vn 0.0652 -0.0122 -0.9978
vn 0.6641 -0.2045 0.7191
vn 0.7492 -0.5503 0.3687
vn -0.9537 0.2844 0.0974
vn -0.9435 0.2709 0.1907
vn 0.7345 0.1406 -0.6639
vn 0.6136 0.1422 -0.7767
vn 0.3743 0.6235 -0.6864
vn 0.8418 -0.0445 -0.5379
vn -0.0972 0.4729 -0.8757
vn -0.9023 0.2204 -0.3706
vn -0.8627 0.4553 -0.2203
vn -0.9007 0.4251 0.0893
vn -0.7781 0.3030 -0.5502
vn -0.9262 0.3528 0.1333
vn -0.0784 0.8045 -0.5887
vn -0.7622 0.0656 0.6440
vn 0.6423 -0.2640 -0.7195
vn 0.1924 -0.5284 -0.8269
vn -0.3320 -0.5970 -0.7303
vn -0.4620 -0.3734 -0.8044
vn -0.2968 0.8445 0.4458
vn -0.7051 -0.1894 -0.6834
vn -0.8097 0.4983 -0.3098
vn -0.6856 0.5068 -0.5226
vn -0.7432 0.4806 -0.4654
vn -0.2472 0.7544 -0.6080
vn -0.5315 0.3226 -0.7832
vn 0.3863 -0.0708 -0.9196
vn -0.4735 -0.3972 -0.7862
vn -0.0015 -0.2726 -0.9621
vn -0.2505 -0.6608 -0.7075
vn -0.4312 -0.6412 -0.6348
vn -0.6167 -0.1019 -0.7806
vn -0.9456 -0.0835 0.3144
vn -0.8556 -0.5013 0.1291
vn 0.0097 0.5529 -0.8332
vn -0.8084 0.3774 0.4518
vn -0.6158 0.0499 0.7864
vn -0.7761 -0.0423 0.6292
vn -0.3162 0.8518 -0.4178
vn 0.4712 0.5347 -0.7014
vn 0.9446 0.0067 -0.3282
vn -0.4771 -0.1614 -0.8639
vn -0.8651 0.1463 -0.4797
vn -0.0904 -0.4658 -0.8803
vn -0.7594 -0.4943 -0.4231
vn -0.9273 0.0834 0.3650
vn -0.7580 -0.5531 -0.3457
vn -0.9262 -0.2607 -0.2724
vn -0.8892 0.4015 0.2193
vn -0.9810 0.0960 0.1684
vn 0.0038 0.1815 0.9834
vn -0.8857 -0.1015 -0.4531
vn -0.5845 -0.7009 0.4089
vn -0.9979 -0.0244 -0.0604
vn -0.6735 -0.0097 -0.7391
vn -0.8028 0.2344 -0.5483
vn -0.9489 -0.1433 -0.2813
vn -0.7604 -0.6446 0.0795
vn -0.5297 -0.0702 0.8453
vn -0.5560 -0.6408 0.5294
vn -0.0662 -0.5441 -0.8364
vn 0.0722 -0.6477 -0.7584
vn 0.1604 -0.4761 -0.8646
vn -0.9570 0.0522 0.2855
vn 0.1407 0.1044 -0.9845
vn 0.0440 -0.2007 -0.9787
vn -0.4272 -0.5048 -0.7502
vn -0.9962 -0.0779 0.0390
vn -0.7360 -0.0355 -0.6761
vn -0.3360 -0.5869 -0.7366
vn -0.7891 -0.5266 -0.3163
vn -0.6304 0.2424 0.7375
vn -0.7997 -0.4639 -0.3812
vn -0.9046 -0.0757 0.4194
vn -0.1199 0.3147 -0.9416
vn -0.2675 -0.2696 -0.9251
vn -0.1272 -0.0618 -0.9900
vn 0.0434 0.2001 -0.9788
vn 0.0730 0.3455 -0.9356
vn -0.3134 -0.7670 0.5599
vn -0.9901 -0.0755 -0.1180
vn -0.7963 -0.4039 -0.4502
vn -0.6853 -0.4447 -0.5767
vn -0.8721 -0.3078 -0.3803
vn -0.9432 -0.0179 0.3317
vn -0.9239 -0.3200 -0.2100
vn 0.1710 -0.0736 -0.9825
vn 0.2166 -0.6700 0.7101
vn -0.0729 -0.7730 0.6302
vn -0.0473 -0.3287 -0.9433
vn -0.1576 -0.7680 -0.6208
vn 0.2396 -0.9707 -0.0181
vn 0.5131 0.7443 0.4275
vn 0.0502 -0.5415 -0.8392
vn -0.0278 0.2770 -0.9605
vn -0.1291 0.1327 -0.9827
vn -0.0146 0.3249 -0.9456
vn 0.3458 -0.8600 0.3752
vn -0.9769 -0.0893 0.1943
vn -0.3467 -0.8807 -0.3227
vn -0.1168 -0.6555 -0.7461
vn -0.1734 -0.9104 -0.3757
vn -0.3597 -0.9324 0.0336
vn -0.3541 -0.8077 0.4714
vn 0.0382 -0.3547 -0.9342
vn -0.1984 -0.8409 0.5035
vn -0.9309 0.3211 0.1739
vn 0.0312 0.0089 -0.9995
vn 0.0569 -0.2908 -0.9551
vn 0.4623 0.7218 -0.5151
vn -0.2396 -0.9708 -0.0126
vn 0.2363 0.3292 -0.9142
vn 0.2647 -0.1089 -0.9582
vn -0.2624 -0.9170 0.3003
vn 0.5049 0.3748 -0.7775
vn 0.5894 -0.1736 -0.7890
vn 0.1784 -0.4575 -0.8711
vn -0.0931 -0.5878 -0.8036
vn 0.1997 -0.6374 -0.7442
vn -0.0283 -0.7951 -0.6058
vn -0.3768 -0.9231 0.0764
vn -0.3198 0.0616 0.9455
vn -0.1274 0.5999 0.7899
vn -0.9697 0.0767 -0.2319
vn -0.9267 0.3583 0.1129
vn -0.5321 -0.5115 -0.6747
vn 0.0835 0.6118 0.7866
vn 0.5430 0.1146 0.8319
vn -0.9747 -0.0056 0.2232
vn -0.8114 -0.3512 0.4672
vn 0.3159 -0.5974 0.7371
vn 0.3102 0.2187 -0.9252
vn 0.2277 0.0915 -0.9694
vn -0.3474 0.0339 -0.9371
vn -0.3513 0.0356 -0.9356
vn -0.4168 0.0201 -0.9088
vn -0.6247 0.0118 -0.7807
vn -0.3521 -0.0213 -0.9357
vn -0.7915 0.0342 0.6102
vn -0.7071 0.0422 -0.7059
vn -0.7889 -0.0040 -0.6146
vn -0.7844 -0.0524 -0.6181
vn -0.4699 0.0896 0.8782
vn -0.9804 0.0838 0.1784
vn -0.9303 -0.0287 -0.3657
vn -0.9677 0.2019 -0.1511
vn -0.3001 0.8988 -0.3195
vn -0.0000 1.0000 -0.0000
vn -0.1049 0.3113 0.9445
vn 0.9414 -0.1089 -0.3193
vn -0.1093 0.5132 -0.8513
vn 0.8681 0.1515 0.4727
vn 0.8663 0.2023 0.4566
vt 0.440383 0.972011
vt 0.430468 0.964866
vt 0.441476 0.966463
vt 0.453541 0.967909
vt 0.453390 0.974534
vt 0.027256 0.390547
vt 0.020681 0.395243
vt 0.025148 0.408599
vt 0.026404 0.398364
vt 0.733844 0.185811
vt 0.742130 0.192812
vt 0.744239 0.174793
vt 0.737541 0.181857
vt 0.832073 0.977139
vt 0.842184 0.974646
vt 0.835557 0.982624
vt 0.815127 0.979259
vt 0.804565 0.973917
vt 0.929697 0.156228
vt 0.939358 0.168208
vt 0.936477 0.161960
vt 0.932796 0.156386
vt 0.428113 0.974366
vt 0.414246 0.967977
vt 0.814142 0.982894
vt 0.801081 0.979017
vt 0.775647 0.538485
vt 0.780531 0.540814
vt 0.777903 0.530747
vt 0.773281 0.528749
vt 0.129913 0.598264
vt 0.116571 0.591221
vt 0.118628 0.597605
vt 0.129984 0.603116
vt 0.987386 0.297982
vt 0.988822 0.329298
vt 0.986087 0.345301
vt 0.993709 0.330848
vt 0.994343 0.296640
vt 0.401826 0.993963
vt 0.409021 0.992557
vt 0.407061 0.997790
vt 0.396874 0.995962
vt 0.098915 0.588730
vt 0.115173 0.605464
vt 0.121382 0.602899
vt 0.861184 0.016656
vt 0.038063 0.625000
vt 0.051412 0.671775
vt 0.864137 0.023502
vt 0.018878 0.402920
vt 0.022324 0.419051
vt 0.104676 0.756488
vt 0.092125 0.754730
vt 0.084502 0.750665
vt 0.097369 0.752277
vt 0.006375 0.974629
vt 0.005798 0.968019
vt 0.001305 0.971158
vt 0.002907 0.982832
vt 0.165181 0.604442
vt 0.152543 0.610242
vt 0.168296 0.611644
vt 0.755300 0.989140
vt 0.759507 0.983058
vt 0.766972 0.987194
vt 0.161209 0.931664
vt 0.152191 0.927056
vt 0.162287 0.929674
vt 0.172899 0.930585
vt 0.175606 0.933938
vt 0.162535 0.596842
vt 0.153956 0.602804
vt 0.766172 0.980157
vt 0.768992 0.982570
vt 0.388601 0.978725
vt 0.395195 0.970766
vt 0.391945 0.979942
vt 0.399844 0.978615
vt 0.538587 0.437954
vt 0.540170 0.429589
vt 0.547468 0.428934
vt 0.555380 0.431190
vt 0.819626 0.553387
vt 0.022212 0.669103
vt 0.038569 0.721142
vt 0.823882 0.532189
vt 0.408349 0.975861
vt 0.788329 0.985117
vt 0.775787 0.992485
vt 0.406217 0.968020
vt 0.139902 0.599366
vt 0.139183 0.605793
vt 0.411527 0.956620
vt 0.412607 0.961488
vt 0.786750 0.982038
vt 0.041542 0.741805
vt 0.032760 0.744512
vt 0.023641 0.750661
vt 0.034704 0.737399
vt 0.030825 0.687594
vt 0.040528 0.695297
vt 0.046283 0.716532
vt 0.971035 0.616626
vt 0.971865 0.624972
vt 0.980964 0.634614
vt 0.979243 0.621210
vt 0.416510 0.974889
vt 0.129476 0.611330
vt 0.125071 0.612376
vt 0.127373 0.618195
vt 0.785323 0.978417
vt 0.793065 0.975719
vt 0.798572 0.983740
vt 0.413906 0.953992
vt 0.422624 0.961791
vt 0.036320 0.746692
vt 0.042984 0.745563
vt 0.035183 0.753062
vt 0.932954 0.166794
vt 0.926929 0.154684
vt 0.808447 0.519441
vt 0.788657 0.594154
vt 0.805743 0.558444
vt 0.816894 0.509489
vt 0.982025 0.488921
vt 0.991360 0.490536
vt 0.992807 0.494730
vt 0.982406 0.498857
vt 0.964795 0.496678
vt 0.024770 0.758879
vt 0.104899 0.588518
vt 0.433528 0.995353
vt 0.426076 0.995133
vt 0.421935 0.988887
vt 0.428543 0.990587
vt 0.442559 0.991468
vt 0.016637 0.394247
vt 0.016564 0.386875
vt 0.880938 0.026725
vt 0.885553 0.011936
vt 0.873889 0.013594
vt 0.885553 0.052608
vt 0.825718 0.987550
vt 0.821277 0.595513
vt 0.814415 0.620640
vt 0.821652 0.627321
vt 0.439551 0.976354
vt 0.455547 0.980106
vt 0.814429 0.626264
vt 0.960928 0.488590
vt 0.948291 0.491821
vt 0.936109 0.493675
vt 0.931680 0.485139
vt 0.946645 0.485979
vt 0.806545 0.624558
vt 0.813041 0.601504
vt 0.051412 0.742214
vt 0.464740 0.975116
vt 0.837033 0.987464
vt 0.035758 0.670896
vt 0.048917 0.739333
vt 0.826826 0.524479
vt 0.831593 0.530039
vt 0.843777 0.984874
vt 0.798044 0.610203
vt 0.463973 0.967528
vt 0.831282 0.532833
vt 0.843617 0.992485
vt 0.370645 0.997790
vt 0.370322 0.992461
vt 0.377569 0.995902
vt 0.048377 0.733416
vt 0.039080 0.723756
vt 0.966318 0.203561
vt 0.968499 0.199312
vt 0.962288 0.201969
vt 0.823161 0.514730
vt 0.821793 0.525101
vt 0.829739 0.522375
vt 0.795375 0.621342
vt 0.778069 0.520632
vt 0.773545 0.511643
vt 0.005537 0.954704
vt 0.003221 0.950928
vt 0.004630 0.961650
vt 0.779782 0.548430
vt 0.782855 0.550797
vt 0.150269 0.211040
vt 0.146663 0.210875
vt 0.147687 0.221126
vt 0.151001 0.222622
vt 0.219990 0.330744
vt 0.230200 0.332502
vt 0.218594 0.333775
vt 0.149318 0.230857
vt 0.926519 0.146732
vt 0.025974 0.753773
vt 0.017647 0.760057
vt 0.007105 0.961024
vt 0.801131 0.512378
vt 0.797574 0.508842
vt 0.794169 0.512378
vt 0.979912 0.341531
vt 0.984273 0.353695
vt 0.965710 0.191725
vt 0.955110 0.188105
vt 0.927386 0.147472
vt 0.951994 0.198235
vt 0.957025 0.207339
vt 0.962316 0.153497
vt 0.958994 0.161991
vt 0.966207 0.168975
vt 0.969907 0.153834
vt 0.146811 0.239671
vt 0.149980 0.245076
vt 0.963252 0.138265
vt 0.967230 0.142113
vt 0.965781 0.128142
vt 0.825393 0.501814
vt 0.825679 0.511997
vt 0.007105 0.992022
vt 0.007398 0.982952
vt 0.949984 0.176055
vt 0.955659 0.177720
vt 0.945100 0.168619
vt 0.945100 0.176848
vt 0.939881 0.174181
vt 0.945993 0.185160
vt 0.936143 0.172683
vt 0.148719 0.251943
vt 0.151001 0.252117
vt 0.941576 0.180431
vt 0.782985 0.617583
vt 0.963187 0.179263
vt 0.791203 0.025199
vt 0.796753 0.020853
vt 0.797322 0.024022
vt 0.947772 0.166035
vt 0.957223 0.167503
vt 0.145015 0.251301
vt 0.109562 0.761805
vt 0.095905 0.763617
vt 0.073965 0.756570
vt 0.091545 0.759375
vt 0.142499 0.242626
vt 0.140230 0.245182
vt 0.822270 0.485266
vt 0.816850 0.501603
vt 0.828597 0.488035
vt 0.972585 0.805162
vt 0.967107 0.806808
vt 0.966493 0.803721
vt 0.831593 0.476665
vt 0.824003 0.478631
vt 0.416570 0.996802
vt 0.419335 0.991290
vt 0.970388 0.182308
vt 0.970844 0.169883
vt 0.954032 0.164778
vt 0.277198 0.933245
vt 0.271882 0.932683
vt 0.270548 0.929708
vt 0.087882 0.993335
vt 0.086338 0.989049
vt 0.093560 0.990292
vt 0.798114 0.009942
vt 0.807438 0.017531
vt 0.145214 0.256852
vt 0.150635 0.929407
vt 0.147195 0.935013
vt 0.143030 0.929155
vt 0.819439 0.484114
vt 0.030473 0.652660
vt 0.777159 0.556610
vt 0.781436 0.558355
vt 0.040571 0.993335
vt 0.040279 0.989737
vt 0.054050 0.993369
vt 0.013301 0.378130
vt 0.969997 0.127674
vt 0.970844 0.144894
vt 0.063962 0.992731
vt 0.069489 0.991282
vt 0.078841 0.993303
vt 0.078295 0.989046
vt 0.958477 0.151855
vt 0.810448 0.495326
vt 0.805554 0.513125
vt 0.139687 0.933484
vt 0.986837 0.645585
vt 0.989500 0.656499
vt 0.991732 0.649894
vt 0.988630 0.642574
vt 0.711830 0.963087
vt 0.682840 0.962683
vt 0.662443 0.953088
vt 0.687688 0.950044
vt 0.727163 0.953463
vt 0.145854 0.226204
vt 0.143396 0.234949
vt 0.035248 0.990302
vt 0.014007 0.366836
vt 0.018101 0.374692
vt 0.047668 0.985205
vt 0.054992 0.986583
vt 0.070130 0.984184
vt 0.077410 0.985687
vt 0.531246 0.427395
vt 0.529685 0.437319
vt 0.517372 0.435216
vt 0.526177 0.427122
vt 0.792122 0.553192
vt 0.782240 0.591226
vt 0.990245 0.628047
vt 0.985543 0.625639
vt 0.216134 0.568222
vt 0.220660 0.570246
vt 0.217178 0.565443
vt 0.774967 0.615852
vt 0.020720 0.382970
vt 0.021374 0.387946
vt 0.024206 0.386486
vt 0.061338 0.982694
vt 0.056975 0.976572
vt 0.063212 0.979795
vt 0.531493 0.441428
vt 0.799001 0.488363
vt 0.807527 0.500376
vt 0.983090 0.614552
vt 0.562085 0.429258
vt 0.554956 0.434953
vt 0.543089 0.439642
vt 0.072782 0.761640
vt 0.987045 0.607198
vt 0.975444 0.610650
vt 0.017324 0.764466
vt 0.011084 0.762146
vt 0.029979 0.421592
vt 0.029098 0.409558
vt 0.967750 0.619457
vt 0.776831 0.507660
vt 0.773764 0.499611
vt 0.255669 0.103890
vt 0.259886 0.096817
vt 0.232811 0.102908
vt 0.790245 0.479743
vt 0.783635 0.482398
vt 0.785720 0.472344
vt 0.780579 0.477507
vt 0.112820 0.767398
vt 0.775246 0.471307
vt 0.272846 0.103890
vt 0.773651 0.478680
vt 0.767410 0.462860
vt 0.776383 0.460014
vt 0.765448 0.468690
vt 0.984349 0.481574
vt 0.972044 0.485428
vt 0.794805 0.492602
vt 0.989260 0.484515
vt 0.785331 0.013449
vt 0.788595 0.020702
vt 0.776108 0.018806
vt 0.777738 0.014017
vt 0.141475 0.614438
vt 0.149441 0.616182
vt 0.386538 0.993093
vt 0.123122 0.753492
vt 0.112439 0.755460
vt 0.105945 0.748280
vt 0.916014 0.170567
vt 0.776993 0.981584
vt 0.175247 0.599344
vt 0.174201 0.593671
vt 0.990279 0.613278
vt 0.991732 0.606985
vt 0.053100 0.739378
vt 0.061375 0.741055
vt 0.065855 0.750187
vt 0.056609 0.746216
vt 0.175454 0.604824
vt 0.050067 0.705472
vt 0.075001 0.752621
vt 0.210183 0.569635
vt 0.213533 0.575936
vt 0.012958 0.769673
vt 0.011632 0.765556
vt 0.014407 0.757476
vt 0.420643 0.956809
vt 0.033841 0.730435
vt 0.869859 0.042256
vt 0.043931 0.735757
vt 0.095642 0.582435
vt 0.090497 0.587402
vt 0.779650 0.511200
vt 0.782855 0.502140
vt 0.215048 0.332018
vt 0.903829 0.737960
vt 0.906440 0.735190
vt 0.906440 0.747569
vt 0.558402 0.821921
vt 0.565713 0.820870
vt 0.568755 0.823607
vt 0.376225 0.989355
vt 0.966449 0.113616
vt 0.004172 0.996905
vt 0.004725 0.992700
vt 0.970837 0.773210
vt 0.972585 0.787213
vt 0.968051 0.785442
vt 0.390051 0.990793
vt 0.378628 0.986451
vt 0.059766 0.645003
vt 0.057770 0.623784
vt 0.809076 0.022350
vt 0.828856 0.016818
vt 0.825986 0.019355
vt 0.823495 0.015541
vt 0.815134 0.019807
vt 0.775121 0.492927
vt 0.781823 0.495351
vt 0.971554 0.795836
vt 0.968634 0.793091
vt 0.814997 0.012924
vt 0.805671 0.012732
vt 0.808570 0.009541
vt 0.747171 0.172184
vt 0.744944 0.168057
vt 0.970092 0.115834
vt 0.016342 0.379574
vt 0.021208 0.431913
vt 0.026479 0.422799
vt 0.073336 0.743912
vt 0.265883 0.933245
vt 0.782855 0.970433
vt 0.771499 0.973917
vt 0.767221 0.965034
vt 0.740811 0.172807
vt 0.737187 0.164014
vt 0.015048 0.358296
vt 0.011749 0.363451
vt 0.018558 0.366580
vt 0.029341 0.434571
vt 0.073373 0.747565
vt 0.791112 0.011888
vt 0.789073 0.004122
vt 0.793868 0.006875
vt 0.811014 0.486883
vt 0.811042 0.488946
vt 0.745633 0.185496
vt 0.019657 0.360679
vt 0.519953 0.441645
vt 0.032637 0.430265
vt 0.512070 0.436633
vt 0.511314 0.440739
vt 0.777057 0.965081
vt 0.931779 0.493797
vt 0.813610 0.002769
vt 0.806639 0.008447
vt 0.803823 0.004605
vt 0.016971 0.641241
vt 0.016464 0.646773
vt 0.012620 0.640408
vt 0.012638 0.633020
vt 0.983138 0.642002
vt 0.024471 0.370436
vt 0.025037 0.379969
vt 0.933162 0.500884
vt 0.662339 0.963041
vt 0.809868 0.000442
vt 0.030973 0.397488
vt 0.727085 0.187400
vt 0.735016 0.178039
vt 0.729649 0.182591
vt 0.745379 0.202823
vt 0.727737 0.198398
vt 0.974791 0.631352
vt 0.566420 0.432520
vt 0.572480 0.441645
vt 0.555685 0.438847
vt 0.025768 0.367987
vt 0.030794 0.384593
vt 0.092013 0.746922
vt 0.951177 0.498237
vt 0.158032 0.618997
vt 0.178127 0.612936
vt 0.138816 0.242727
vt 0.724420 0.195322
vt 0.726120 0.209288
vt 0.968259 0.613428
vt 0.780618 0.956343
vt 0.767877 0.955671
vt 0.961572 0.483329
vt 0.024673 0.363046
vt 0.775892 0.008103
vt 0.116184 0.766057
vt 0.122165 0.761076
vt 0.119753 0.769673
vt 0.124899 0.764775
vt 0.130113 0.759104
vt 0.915338 0.386741
vt 0.918371 0.391250
vt 0.911993 0.397436
vt 0.466057 0.978844
vt 0.520522 0.426460
vt 0.985014 0.652753
vt 0.780936 0.530829
vt 0.000000 0.000000
s 0
usemtl Material
f 178/1/1 175/2/1 188/3/1 189/4/1 182/5/1
f 373/6/2 371/7/2 365/8/2 372/9/2
f 159/10/3 160/11/3 162/12/3 161/13/3
f 246/14/4 247/15/4 240/16/4 239/17/4
f 246/14/5 239/17/5 254/18/5
f 447/19/6 450/20/6 449/21/6 448/22/6
f 175/2/7 178/1/7 176/23/7 177/24/7
f 240/16/8 238/25/8 236/26/8 239/17/8
f 304/27/9 305/28/9 302/29/9 301/30/9
f 63/31/10 68/32/10 65/33/10 64/34/10
f 335/35/11 333/36/11 332/37/11 334/38/11 336/39/11
f 412/40/12 414/41/12 413/42/12 410/43/12
f 65/33/13 71/44/13 77/45/13 75/46/13
f 97/47/14 131/48/14 130/49/14 92/50/14
f 370/51/15 366/52/15 365/8/15 371/7/15
f 143/53/16 141/54/16 139/55/16 142/56/16
f 318/57/17 319/58/17 320/59/17 321/60/17
f 55/61/18 59/62/18 58/63/18
f 257/64/19 256/65/19 245/66/19
f 398/67/20 400/68/20 399/69/20 396/70/20 397/71/20
f 55/61/21 56/72/21 60/73/21
f 251/74/22 250/75/22 245/66/22
f 185/76/23 184/77/23 195/78/23
f 184/77/24 194/79/24 195/78/24
f 217/80/25 232/81/25 234/82/25 233/83/25
f 35/84/26 103/85/26 101/86/26 47/87/26
f 184/77/27 183/88/27 194/79/27
f 245/66/28 244/89/28 248/90/28
f 184/77/29 180/91/29 183/88/29
f 60/73/30 62/92/30 61/93/30
f 186/94/31 192/95/31 180/91/31
f 245/66/32 235/96/32 244/89/32
f 113/97/33 114/98/33 116/99/33 112/100/33
f 102/101/34 100/102/34 99/103/34 101/86/34 103/85/34
f 423/104/35 433/105/35 434/106/35 426/107/35
f 180/91/36 179/108/36 183/88/36
f 74/109/37 75/46/37 76/110/37 78/111/37
f 177/24/38 179/108/38 180/91/38
f 252/112/39 253/113/39 235/96/39
f 235/96/40 237/114/40 244/89/40
f 193/115/41 187/116/41 186/94/41
f 186/94/42 187/116/42 192/95/42
f 253/113/43 236/26/43 235/96/43
f 235/96/44 236/26/44 237/114/44
f 177/24/45 176/23/45 179/108/45
f 115/117/46 113/97/46 125/118/46 126/119/46
f 187/116/47 175/2/47 177/24/47
f 453/120/48 450/20/48 447/19/48 454/121/48
f 7/122/49 11/123/49 14/124/49 15/125/49
f 236/26/50 238/25/50 237/114/50
f 201/126/51 202/127/51 199/128/51 200/129/51 203/130/51
f 115/117/52 126/119/52 118/131/52
f 65/33/53 68/32/53 69/132/53
f 420/133/54 417/134/54 418/135/54 419/136/54 421/137/54
f 374/138/55 370/51/55 371/7/55 375/139/55
f 93/140/56 98/141/56 94/142/56
f 92/50/57 94/142/57 97/47/57
f 92/50/58 93/140/58 94/142/58
f 92/50/59 95/143/59 93/140/59
f 238/25/60 240/16/60 241/144/60
f 46/145/61 40/146/61 48/147/61
f 181/148/62 182/5/62 196/149/62
f 40/146/63 41/150/63 48/147/63
f 115/117/64 114/98/64 113/97/64
f 204/151/65 205/152/65 208/153/65 209/154/65 207/155/65
f 40/146/66 39/156/66 41/150/66
f 46/145/67 38/157/67 40/146/67
f 40/146/68 38/157/68 39/156/68
f 113/97/69 127/158/69 125/118/69
f 189/4/70 190/159/70 182/5/70
f 240/16/71 242/160/71 241/144/71
f 100/102/72 102/101/72 104/161/72
f 113/97/73 109/162/73 127/158/73
f 51/163/74 47/87/74 50/164/74
f 240/16/75 243/165/75 242/160/75
f 38/157/76 16/166/76 39/156/76
f 189/4/77 191/167/77 190/159/77
f 50/164/78 47/87/78 49/168/78
f 242/160/79 243/165/79 255/169/79
f 422/170/80 407/171/80 408/172/80
f 107/173/81 106/174/81 99/103/81
f 487/175/82 464/176/82 467/177/82
f 37/178/83 36/179/83 42/180/83
f 47/87/84 36/179/84 35/84/84
f 16/166/85 17/181/85 39/156/85
f 302/29/86 310/182/86 303/183/86
f 301/30/87 302/29/87 303/183/87
f 324/184/88 329/185/88 322/186/88
f 304/27/89 306/187/89 305/28/89
f 307/188/90 305/28/90 306/187/90
f 345/189/91 346/190/91 343/191/91
f 345/189/92 343/191/92 344/192/92
f 354/193/93 356/194/93 355/195/93
f 344/192/94 343/191/94 340/196/94
f 456/197/95 454/121/95 447/19/95
f 115/117/96 117/198/96 119/199/96 116/99/96
f 320/59/97 319/58/97 322/186/97
f 322/186/98 319/58/98 323/200/98
f 492/201/99 493/202/99 494/203/99
f 331/204/100 330/205/100 332/37/100 333/36/100
f 460/206/101 459/207/101 464/176/101
f 459/207/102 467/177/102 464/176/102
f 446/208/103 447/19/103 448/22/103
f 459/207/104 480/209/104 467/177/104
f 467/177/105 480/209/105 483/210/105
f 468/211/106 466/212/106 465/213/106 469/214/106
f 340/196/107 337/215/107 339/216/107
f 476/217/108 468/211/108 471/218/108 474/219/108
f 44/220/109 15/125/109 43/221/109
f 43/221/110 15/125/110 37/178/110
f 321/60/111 326/222/111 325/223/111
f 461/224/112 459/207/112 458/225/112
f 449/21/113 450/20/113 451/226/113
f 451/226/114 450/20/114 452/227/114
f 451/226/115 452/227/115 461/224/115
f 450/20/116 457/228/116 452/227/116
f 477/229/117 480/209/117 459/207/117
f 450/20/118 453/120/118 455/230/118
f 339/216/119 349/231/119 350/232/119
f 450/20/120 455/230/120 457/228/120
f 457/228/121 478/233/121 452/227/121
f 452/227/122 478/233/122 477/229/122
f 16/166/123 13/234/123 17/181/123
f 463/235/124 458/225/124 460/206/124
f 289/236/125 287/237/125 282/238/125
f 486/239/126 451/226/126 462/240/126
f 451/226/127 461/224/127 458/225/127
f 462/240/128 451/226/128 458/225/128
f 339/216/129 348/241/129 349/231/129
f 145/242/130 156/243/130 150/244/130 147/245/130
f 337/215/131 338/246/131 339/216/131
f 347/247/132 348/241/132 339/216/132
f 18/248/133 6/249/133 45/250/133
f 363/251/134 364/252/134 361/253/134
f 31/254/135 25/255/135 18/248/135
f 15/125/136 6/249/136 7/122/136
f 415/256/137 416/257/137 417/134/137
f 11/123/138 13/234/138 16/166/138
f 465/213/139 470/258/139 484/259/139
f 466/212/140 481/260/140 462/240/140
f 498/261/141 496/262/141 495/263/141
f 274/264/142 273/265/142 275/266/142
f 465/213/143 463/235/143 470/258/143
f 287/237/144 286/267/144 280/268/144
f 348/241/145 351/269/145 349/231/145
f 401/270/146 402/271/146 403/272/146
f 25/255/147 4/273/147 18/248/147
f 4/273/148 6/249/148 18/248/148
f 104/161/149 102/101/149 103/85/149 105/274/149
f 308/275/150 309/276/150 307/188/150 306/187/150
f 269/277/151 268/278/151 262/279/151
f 385/280/152 374/138/152 375/139/152
f 473/281/153 471/218/153 472/282/153
f 471/218/154 469/214/154 472/282/154
f 260/283/155 263/284/155 266/285/155
f 471/218/156 468/211/156 469/214/156
f 263/284/157 267/286/157 266/285/157
f 469/214/158 465/213/158 484/259/158
f 468/211/159 482/287/159 466/212/159
f 267/286/160 273/265/160 274/264/160
f 7/122/161 5/288/161 8/289/161
f 400/68/162 398/67/162 401/270/162
f 403/272/163 402/271/163 404/290/163
f 439/291/164 441/292/164 440/293/164
f 435/294/165 439/291/165 440/293/165
f 401/270/166 398/67/166 402/271/166
f 80/295/167 84/296/167 85/297/167 83/298/167 79/299/167
f 337/215/168 340/196/168 343/191/168 342/300/168 341/301/168 338/246/168
f 270/302/169 268/278/169 269/277/169
f 384/303/170 385/280/170 379/304/170
f 268/278/171 265/305/171 262/279/171
f 258/306/172 260/283/172 262/279/172
f 263/284/173 264/307/173 267/286/173
f 264/307/174 272/308/174 267/286/174
f 267/286/175 272/308/175 273/265/175
f 231/309/176 216/310/176 221/311/176
f 230/312/177 231/309/177 221/311/177
f 11/123/178 10/313/178 12/314/178
f 11/123/179 12/314/179 13/234/179
f 432/315/180 428/316/180 435/294/180
f 501/317/181 499/318/181 500/319/181
f 265/305/182 258/306/182 262/279/182
f 35/84/183 38/157/183 46/145/183
f 12/314/184 19/320/184 13/234/184
f 426/107/185 434/106/185 435/294/185
f 428/316/186 426/107/186 435/294/186
f 377/321/187 376/322/187 386/323/187
f 376/322/188 373/6/188 386/323/188
f 259/324/189 261/325/189 271/326/189
f 259/324/190 271/326/190 264/307/190
f 216/310/191 217/80/191 218/327/191
f 5/288/192 20/328/192 24/329/192
f 427/330/193 426/107/193 428/316/193
f 224/331/194 222/332/194 233/83/194
f 222/332/195 219/333/195 217/80/195
f 5/288/196 7/122/196 6/249/196 4/273/196
f 150/244/197 156/243/197 158/334/197
f 429/335/198 425/336/198 427/330/198
f 118/131/199 120/337/199 121/338/199 119/199/199
f 365/8/200 390/339/200 389/340/200 372/9/200
f 423/104/201 436/341/201 433/105/201
f 311/342/202 312/343/202 303/183/202 310/182/202
f 504/344/203 505/345/203 506/346/203
f 21/347/204 22/348/204 20/328/204
f 414/41/205 416/257/205 415/256/205 413/42/205
f 145/242/206 147/245/206 143/53/206
f 26/349/207 23/350/207 21/347/207
f 23/350/208 22/348/208 21/347/208
f 145/242/209 155/351/209 156/243/209
f 26/349/210 27/352/210 23/350/210
f 504/344/211 507/353/211 505/345/211
f 23/350/212 28/354/212 22/348/212
f 26/349/213 30/355/213 27/352/213
f 34/356/214 30/355/214 26/349/214
f 27/352/215 28/354/215 23/350/215
f 30/355/216 29/357/216 27/352/216
f 27/352/217 29/357/217 28/354/217
f 214/358/218 201/126/218 210/359/218
f 20/328/219 22/348/219 32/360/219 24/329/219
f 214/358/220 206/361/220 201/126/220
f 291/362/221 288/363/221 293/364/221 292/365/221
f 232/81/222 217/80/222 216/310/222 231/309/222
f 61/93/223 66/366/223 67/367/223 59/62/223
f 408/172/224 409/368/224 410/43/224
f 154/369/225 144/370/225 142/56/225 157/371/225
f 457/228/226 479/372/226 478/233/226
f 178/1/227 182/5/227 181/148/227 176/23/227
f 249/373/228 235/96/228 245/66/228 250/75/228
f 55/61/229 53/374/229 57/375/229 56/72/229
f 477/229/230 459/207/230 461/224/230 452/227/230
f 259/324/231 264/307/231 263/284/231 260/283/231 258/306/231 261/325/231
f 429/335/232 427/330/232 428/316/232 432/315/232 430/376/232 431/377/232
f 108/378/233 99/103/233 128/379/233 133/380/233 132/381/233
f 58/63/234 54/382/234 55/61/234
f 55/61/235 54/382/235 53/374/235
f 251/74/236 245/66/236 256/65/236
f 59/62/237 55/61/237 60/73/237
f 129/383/238 130/49/238 128/379/238
f 61/93/239 59/62/239 60/73/239
f 141/54/240 143/53/240 147/245/240 150/244/240 140/384/240
f 254/18/241 239/17/241 236/26/241 253/113/241
f 249/373/242 252/112/242 235/96/242
f 499/318/243 501/317/243 503/385/243 502/386/243
f 61/93/244 62/92/244 63/31/244
f 64/34/245 61/93/245 63/31/245
f 124/387/246 123/388/246 120/337/246
f 120/337/247 123/388/247 121/338/247
f 119/199/248 121/338/248 122/389/248
f 187/116/249 193/115/249 198/390/249
f 74/109/250 64/34/250 75/46/250
f 119/199/251 122/389/251 116/99/251
f 75/46/252 64/34/252 65/33/252
f 118/131/253 119/199/253 117/198/253
f 77/45/254 76/110/254 75/46/254
f 115/117/255 118/131/255 117/198/255
f 115/117/256 116/99/256 114/98/256
f 15/125/257 14/124/257 16/166/257 38/157/257 35/84/257 36/179/257 37/178/257
f 71/44/258 65/33/258 69/132/258
f 107/173/259 112/100/259 116/99/259 110/391/259
f 95/143/260 92/50/260 96/392/260
f 113/97/261 112/100/261 111/393/261
f 72/394/262 71/44/262 69/132/262
f 109/162/263 113/97/263 111/393/263
f 111/393/264 112/100/264 107/173/264
f 73/395/265 71/44/265 72/394/265
f 315/396/266 316/397/266 311/342/266 310/182/266
f 107/173/267 110/391/267 106/174/267
f 128/379/268 99/103/268 100/102/268 104/161/268 129/383/268
f 109/162/269 111/393/269 107/173/269
f 106/174/270 101/86/270 99/103/270
f 355/195/271 353/398/271 354/193/271
f 508/399/272 509/400/272 510/401/272
f 323/200/273 324/184/273 322/186/273
f 443/402/274 444/403/274 445/404/274
f 408/172/275 406/405/275 409/368/275
f 407/171/276 406/405/276 408/172/276
f 474/219/277 471/218/277 473/281/277 475/406/277
f 458/225/278 459/207/278 460/206/278
f 321/60/279 328/407/279 327/408/279
f 326/222/280 321/60/280 327/408/280
f 318/57/281 321/60/281 325/223/281
f 323/200/282 319/58/282 318/57/282
f 362/409/283 357/410/283 360/411/283
f 410/43/284 411/412/284 412/40/284
f 409/368/285 411/412/285 410/43/285
f 11/123/286 16/166/286 14/124/286
f 406/405/287 405/413/287 409/368/287
f 134/414/288 131/48/288 137/415/288
f 280/268/289 281/416/289 282/238/289
f 449/21/290 451/226/290 486/239/290
f 277/417/291 276/418/291 278/419/291
f 278/419/292 276/418/292 279/420/292
f 278/419/293 279/420/293 280/268/293
f 279/420/294 281/416/294 280/268/294
f 314/421/295 312/343/295 313/422/295
f 313/422/296 312/343/296 311/342/296
f 357/410/297 358/423/297 359/424/297
f 360/411/298 357/410/298 359/424/298
f 108/378/299 109/162/299 107/173/299 99/103/299
f 463/235/300 460/206/300 470/258/300
f 481/260/301 486/239/301 462/240/301
f 462/240/302 458/225/302 463/235/302
f 280/268/303 282/238/303 287/237/303
f 278/419/304 280/268/304 283/425/304
f 358/423/305 363/251/305 361/253/305
f 359/424/306 358/423/306 361/253/306
f 283/425/307 280/268/307 284/426/307
f 283/425/308 284/426/308 285/427/308
f 162/12/309 171/428/309 169/429/309
f 416/257/310 418/135/310 417/134/310
f 485/430/311 475/406/311 473/281/311
f 378/431/312 385/280/312 375/139/312
f 366/52/313 368/432/313 367/433/313
f 136/434/314 133/380/314 128/379/314
f 495/263/315 496/262/315 497/435/315
f 89/436/316 91/437/316 82/438/316
f 287/237/317 289/236/317 288/363/317
f 286/267/318 287/237/318 288/363/318
f 284/426/319 280/268/319 286/267/319
f 163/439/320 162/12/320 169/429/320
f 163/439/321 169/429/321 170/440/321
f 387/441/322 394/442/322 384/303/322
f 382/443/323 384/303/323 379/304/323
f 379/304/324 385/280/324 378/431/324
f 365/8/325 366/52/325 367/433/325
f 369/444/326 367/433/326 368/432/326
f 138/445/327 133/380/327 136/434/327
f 290/446/328 291/362/328 300/447/328
f 294/448/329 290/446/329 300/447/329
f 161/13/330 162/12/330 163/439/330
f 4/273/331 33/449/331 9/450/331
f 4/273/332 9/450/332 5/288/332
f 5/288/333 24/329/333 8/289/333
f 175/2/334 187/116/334 198/390/334 188/3/334
f 172/451/335 162/12/335 160/11/335
f 462/240/336 463/235/336 465/213/336 466/212/336
f 387/441/337 384/303/337 382/443/337
f 395/452/338 387/441/338 382/443/338
f 376/322/339 371/7/339 373/6/339
f 365/8/340 367/433/340 390/339/340
f 216/310/341 220/453/341 221/311/341
f 390/339/342 367/433/342 392/454/342
f 392/454/343 367/433/343 369/444/343
f 221/311/344 220/453/344 226/455/344
f 220/453/345 227/456/345 226/455/345
f 9/450/346 21/347/346 20/328/346 5/288/346
f 87/457/347 89/436/347 82/438/347
f 208/153/348 213/458/348 209/154/348
f 286/267/349 290/446/349 294/448/349
f 297/459/350 296/460/350 295/461/350
f 295/461/351 296/460/351 286/267/351
f 295/461/352 286/267/352 294/448/352
f 490/462/353 491/463/353 488/464/353 489/465/353
f 435/294/354 438/466/354 439/291/354
f 438/466/355 435/294/355 434/106/355
f 381/467/356 379/304/356 380/468/356
f 379/304/357 377/321/357 380/468/357
f 380/468/358 377/321/358 386/323/358
f 216/310/359 218/327/359 220/453/359
f 140/384/360 138/445/360 139/55/360
f 139/55/361 138/445/361 136/434/361
f 215/469/362 213/458/362 208/153/362
f 84/296/363 88/470/363 85/297/363
f 298/471/364 297/459/364 295/461/364
f 380/468/365 386/323/365 373/6/365
f 373/6/366 372/9/366 393/472/366
f 233/83/367 222/332/367 217/80/367
f 393/472/368 372/9/368 389/340/368
f 219/333/369 218/327/369 217/80/369
f 159/10/370 161/13/370 164/473/370
f 164/473/371 161/13/371 173/474/371
f 164/473/372 173/474/372 174/475/372
f 167/476/373 160/11/373 165/477/373
f 165/477/374 160/11/374 159/10/374
f 437/478/375 434/106/375 433/105/375
f 225/479/376 228/480/376 223/481/376
f 388/482/377 381/467/377 391/483/377
f 381/467/378 380/468/378 373/6/378
f 381/467/379 373/6/379 391/483/379
f 224/331/380 225/479/380 223/481/380
f 391/483/381 373/6/381 393/472/381
f 141/54/382 140/384/382 139/55/382
f 426/107/383 427/330/383 425/336/383
f 423/104/384 426/107/384 425/336/384
f 149/484/385 139/55/385 136/434/385
f 215/469/386 208/153/386 211/485/386
f 67/367/387 70/486/387 52/487/387 54/382/387 58/63/387 59/62/387
f 338/246/388 352/488/388 347/247/388 339/216/388
f 142/56/389 139/55/389 149/484/389
f 166/489/390 165/477/390 159/10/390
f 166/489/391 159/10/391 164/473/391
f 168/490/392 167/476/392 165/477/392
f 423/104/393 425/336/393 424/491/393
f 86/492/394 87/457/394 82/438/394 81/493/394
f 211/485/395 208/153/395 205/152/395
f 142/56/396 149/484/396 157/371/396
f 211/485/397 205/152/397 203/130/397
f 203/130/398 205/152/398 204/151/398
f 212/494/399 204/151/399 207/155/399
f 382/443/400 379/304/400 381/467/400 383/495/400
f 204/151/401 212/494/401 210/359/401
f 300/447/402 291/362/402 292/365/402 299/496/402
f 145/242/403 143/53/403 144/370/403
f 143/53/404 142/56/404 144/370/404
f 155/351/405 145/242/405 148/497/405
f 201/126/406 203/130/406 204/151/406
f 148/497/407 145/242/407 146/498/407
f 146/498/408 145/242/408 144/370/408
f 201/126/409 204/151/409 210/359/409
f 153/499/410 148/497/410 151/500/410
f 151/500/411 148/497/411 146/498/411
f 151/500/412 146/498/412 152/501/412
f 146/498/413 144/370/413 154/369/413
f 152/501/414 146/498/414 154/369/414
f 1/502/415 2/503/415 3/504/415
f 202/127/416 201/126/416 206/361/416
f 11/123/417 7/122/417 10/313/417
f 182/5/418 190/159/418 197/505/418 196/149/418
f 286/267/419 288/363/419 291/362/419 290/446/419
f 221/311/420 226/455/420 229/506/420 230/312/420
f 376/322/421 377/321/421 379/304/421 378/431/421 375/139/421 371/7/421
f 33/449/422 26/349/422 21/347/422 9/450/422
f 6/249/423 15/125/423 44/220/423 45/250/423
f 223/481/424 219/333/424 222/332/424 224/331/424
f 438/466/425 442/507/425 441/292/425 439/291/425
f 317/508/426 310/182/426 302/29/426 305/28/426
f 96/392/427 92/50/427 130/49/427
f 129/383/428 104/161/428 96/392/428 130/49/428
f 131/48/429 134/414/429 130/49/429
f 134/414/430 90/509/430 130/49/430
f 130/49/431 90/509/431 128/379/431
f 82/438/432 91/437/432 128/379/432 90/509/432
f 136/434/433 128/379/433 91/437/433 135/509/433
f 12/314/434 10/313/434 79/299/434 83/298/434
f 90/509/435 134/414/435 80/295/435
f 80/295/436 134/414/436 84/296/436
f 137/415/437 88/470/437 84/296/437 134/414/437
f 7/122/438 8/289/438 10/313/438
f 82/438/439 10/313/439 8/289/439 81/493/439
f 90/509/440 79/299/440 10/313/440 82/438/440
f 80/295/441 79/299/441 90/509/441
f 198/390/442 120/337/442 118/131/442 188/3/442
f 181/148/443 254/18/443 246/14/443 176/23/443
f 181/148/444 246/14/444 254/18/444 176/23/444
f 321/60/445 479/372/445 457/228/445 328/407/445
f 303/183/443 479/372/443 478/233/443 301/30/443
f 303/183/446 478/233/446 479/372/446 301/30/446
f 35/84/447 46/145/447 103/85/447
f 93/140/448 95/143/448 46/145/448 48/147/448
