# Blender 4.1.1
# www.blender.org
mtllib Berries.mtl
o Berries
v 0.987602 4.052389 0.833228
v 1.204307 4.217937 0.990671
v 0.904830 4.217937 1.087978
v 0.719739 4.217937 0.833228
v 0.904830 4.217937 0.578477
v 1.204307 4.217937 0.675784
v 1.070374 4.485802 1.087978
v 0.770898 4.485802 0.990671
v 0.770898 4.485802 0.675784
v 1.070374 4.485802 0.578477
v 1.255465 4.485802 0.833228
v 0.987602 4.651350 0.833228
v -2.933415 2.945360 -1.145667
v -2.716710 3.110909 -0.988224
v -3.016187 3.110909 -0.890917
v -3.201278 3.110909 -1.145667
v -3.016187 3.110909 -1.400417
v -2.716710 3.110909 -1.303110
v -2.850643 3.378773 -0.890917
v -3.150119 3.378773 -0.988224
v -3.150119 3.378773 -1.303110
v -2.850643 3.378773 -1.400417
v -2.665552 3.378773 -1.145667
v -2.933415 3.544322 -1.145667
v -0.401760 2.584119 -2.882967
v -0.185056 2.749668 -2.725524
v -0.484532 2.749668 -2.628217
v -0.669624 2.749668 -2.882967
v -0.484532 2.749668 -3.137718
v -0.185056 2.749668 -3.040410
v -0.318988 3.017533 -2.628217
v -0.618465 3.017533 -2.725524
v -0.618465 3.017533 -3.040410
v -0.318988 3.017533 -3.137718
v -0.133897 3.017533 -2.882967
v -0.401760 3.183081 -2.882967
v 3.344431 1.936963 -1.386997
v 3.561135 2.102511 -1.229554
v 3.261659 2.102511 -1.132246
v 3.076568 2.102511 -1.386997
v 3.261659 2.102511 -1.641747
v 3.561135 2.102511 -1.544440
v 3.427203 2.370376 -1.132246
v 3.127727 2.370376 -1.229554
v 3.127727 2.370376 -1.544440
v 3.427203 2.370376 -1.641747
v 3.612294 2.370376 -1.386997
v 3.344431 2.535924 -1.386997
v 0.758391 1.936963 3.126561
v 0.975095 2.102511 3.284004
v 0.675619 2.102511 3.381311
v 0.490528 2.102511 3.126561
v 0.675619 2.102511 2.871810
v 0.975095 2.102511 2.969118
v 0.841163 2.370376 3.381311
v 0.541687 2.370376 3.284004
v 0.541687 2.370376 2.969118
v 0.841163 2.370376 2.871810
v 1.026254 2.370376 3.126561
v 0.758391 2.535924 3.126561
v -2.315825 1.936963 2.365638
v -2.099120 2.102511 2.523081
v -2.398597 2.102511 2.620388
v -2.583688 2.102511 2.365638
v -2.398597 2.102511 2.110887
v -2.099120 2.102511 2.208194
v -2.233052 2.370376 2.620388
v -2.532529 2.370376 2.523081
v -2.532529 2.370376 2.208194
v -2.233052 2.370376 2.110887
v -2.047962 2.370376 2.365638
v -2.315825 2.535924 2.365638
v -1.453454 4.284333 1.961037
v -1.236750 4.449882 2.118480
v -1.536226 4.449882 2.215787
v -1.721317 4.449882 1.961037
v -1.536226 4.449882 1.706287
v -1.236750 4.449882 1.803594
v -1.370682 4.717746 2.215787
v -1.670159 4.717746 2.118480
v -1.670159 4.717746 1.803594
v -1.370682 4.717746 1.706287
v -1.185591 4.717746 1.961037
v -1.453454 4.883295 1.961037
v -3.729827 2.743267 -0.266231
v -3.591762 2.848740 -0.165921
v -3.782563 2.848740 -0.103925
v -3.900487 2.848740 -0.266231
v -3.782563 2.848740 -0.428536
v -3.591762 2.848740 -0.366540
v -3.677092 3.019401 -0.103925
v -3.867893 3.019401 -0.165921
v -3.867893 3.019401 -0.366540
v -3.677092 3.019401 -0.428536
v -3.559167 3.019401 -0.266231
v -3.729827 3.124874 -0.266231
v -0.488618 4.525931 -0.266231
v -0.247933 4.709799 -0.091365
v -0.580550 4.709799 0.016711
v -0.786124 4.709799 -0.266231
v -0.580550 4.709799 -0.549172
v -0.247933 4.709799 -0.441097
v -0.396686 5.007307 0.016711
v -0.729303 5.007307 -0.091365
v -0.729303 5.007307 -0.441097
v -0.396686 5.007307 -0.549172
v -0.191113 5.007307 -0.266231
v -0.488618 5.191175 -0.266231
v 2.982273 2.672920 1.214312
v 3.121885 2.779574 1.315745
v 2.928947 2.779574 1.378435
v 2.809702 2.779574 1.214312
v 2.928947 2.779574 1.050189
v 3.121885 2.779574 1.112879
v 3.035599 2.952147 1.378435
v 2.842661 2.952147 1.315745
v 2.842661 2.952147 1.112879
v 3.035599 2.952147 1.050189
v 3.154844 2.952147 1.214312
v 2.982273 3.058801 1.214312
vn 0.1876 -0.7947 0.5774
vn 0.6071 -0.7947 -0.0000
vn -0.4911 -0.7947 0.3568
vn -0.4911 -0.7947 -0.3568
vn 0.1876 -0.7947 -0.5774
vn 0.9822 -0.1876 -0.0000
vn 0.3035 -0.1876 0.9342
vn -0.7946 -0.1876 0.5774
vn -0.7946 -0.1876 -0.5774
vn 0.3035 -0.1876 -0.9342
vn 0.7946 0.1876 0.5774
vn -0.3035 0.1876 0.9342
vn -0.9822 0.1876 -0.0000
vn -0.3035 0.1876 -0.9342
vn 0.7946 0.1876 -0.5774
vn 0.4911 0.7947 0.3568
vn -0.1876 0.7947 0.5774
vn -0.6071 0.7947 -0.0000
vn -0.1876 0.7947 -0.5774
vn 0.4911 0.7947 -0.3568
vn 0.1876 -0.7946 0.5774
vn 0.1876 -0.7946 -0.5774
vn -0.7947 -0.1876 0.5774
vn -0.7947 -0.1876 -0.5774
vn 0.7947 0.1876 0.5774
vn 0.7947 0.1876 -0.5774
vt 0.181819 0.000000
vt 0.272728 0.157461
vt 0.090910 0.157461
vt 0.363637 0.000000
vt 0.454546 0.157461
vt 0.909091 0.000000
vt 1.000000 0.157461
vt 0.818182 0.157461
vt 0.727273 0.000000
vt 0.636364 0.157461
vt 0.545455 0.000000
vt 0.363637 0.314921
vt 0.181819 0.314921
vt 0.909091 0.314921
vt 0.727273 0.314921
vt 0.545455 0.314921
vt 0.000000 0.314921
vt 0.272728 0.472382
vt 0.090910 0.472382
vt 0.818182 0.472382
vt 0.636364 0.472382
vt 0.454546 0.472382
s 0
f 1/1/1 2/2/1 3/3/1
f 2/2/2 1/4/2 6/5/2
f 1/6/3 3/7/3 4/8/3
f 1/9/4 4/8/4 5/10/4
f 1/11/5 5/10/5 6/5/5
f 2/2/6 6/5/6 11/12/6
f 3/3/7 2/2/7 7/13/7
f 4/8/8 3/7/8 8/14/8
f 5/10/9 4/8/9 9/15/9
f 6/5/10 5/10/10 10/16/10
f 2/2/11 11/12/11 7/13/11
f 3/3/12 7/13/12 8/17/12
f 4/8/13 8/14/13 9/15/13
f 5/10/14 9/15/14 10/16/14
f 6/5/15 10/16/15 11/12/15
f 7/13/16 11/12/16 12/18/16
f 8/17/17 7/13/17 12/19/17
f 9/15/18 8/14/18 12/20/18
f 10/16/19 9/15/19 12/21/19
f 11/12/20 10/16/20 12/22/20
f 13/1/1 14/2/1 15/3/1
f 14/2/2 13/4/2 18/5/2
f 13/6/3 15/7/3 16/8/3
f 13/9/4 16/8/4 17/10/4
f 13/11/5 17/10/5 18/5/5
f 14/2/6 18/5/6 23/12/6
f 15/3/7 14/2/7 19/13/7
f 16/8/8 15/7/8 20/14/8
f 17/10/9 16/8/9 21/15/9
f 18/5/10 17/10/10 22/16/10
f 14/2/11 23/12/11 19/13/11
f 15/3/12 19/13/12 20/17/12
f 16/8/13 20/14/13 21/15/13
f 17/10/14 21/15/14 22/16/14
f 18/5/15 22/16/15 23/12/15
f 19/13/16 23/12/16 24/18/16
f 20/17/17 19/13/17 24/19/17
f 21/15/18 20/14/18 24/20/18
f 22/16/19 21/15/19 24/21/19
f 23/12/20 22/16/20 24/22/20
f 25/1/1 26/2/1 27/3/1
f 26/2/2 25/4/2 30/5/2
f 25/6/3 27/7/3 28/8/3
f 25/9/4 28/8/4 29/10/4
f 25/11/5 29/10/5 30/5/5
f 26/2/6 30/5/6 35/12/6
f 27/3/7 26/2/7 31/13/7
f 28/8/8 27/7/8 32/14/8
f 29/10/9 28/8/9 33/15/9
f 30/5/10 29/10/10 34/16/10
f 26/2/11 35/12/11 31/13/11
f 27/3/12 31/13/12 32/17/12
f 28/8/13 32/14/13 33/15/13
f 29/10/14 33/15/14 34/16/14
f 30/5/15 34/16/15 35/12/15
f 31/13/16 35/12/16 36/18/16
f 32/17/17 31/13/17 36/19/17
f 33/15/18 32/14/18 36/20/18
f 34/16/19 33/15/19 36/21/19
f 35/12/20 34/16/20 36/22/20
f 37/1/1 38/2/1 39/3/1
f 38/2/2 37/4/2 42/5/2
f 37/6/3 39/7/3 40/8/3
f 37/9/4 40/8/4 41/10/4
f 37/11/5 41/10/5 42/5/5
f 38/2/6 42/5/6 47/12/6
f 39/3/7 38/2/7 43/13/7
f 40/8/8 39/7/8 44/14/8
f 41/10/9 40/8/9 45/15/9
f 42/5/10 41/10/10 46/16/10
f 38/2/11 47/12/11 43/13/11
f 39/3/12 43/13/12 44/17/12
f 40/8/13 44/14/13 45/15/13
f 41/10/14 45/15/14 46/16/14
f 42/5/15 46/16/15 47/12/15
f 43/13/16 47/12/16 48/18/16
f 44/17/17 43/13/17 48/19/17
f 45/15/18 44/14/18 48/20/18
f 46/16/19 45/15/19 48/21/19
f 47/12/20 46/16/20 48/22/20
f 49/1/1 50/2/1 51/3/1
f 50/2/2 49/4/2 54/5/2
f 49/6/3 51/7/3 52/8/3
f 49/9/4 52/8/4 53/10/4
f 49/11/5 53/10/5 54/5/5
f 50/2/6 54/5/6 59/12/6
f 51/3/7 50/2/7 55/13/7
f 52/8/8 51/7/8 56/14/8
f 53/10/9 52/8/9 57/15/9
f 54/5/10 53/10/10 58/16/10
f 50/2/11 59/12/11 55/13/11
f 51/3/12 55/13/12 56/17/12
f 52/8/13 56/14/13 57/15/13
f 53/10/14 57/15/14 58/16/14
f 54/5/15 58/16/15 59/12/15
f 55/13/16 59/12/16 60/18/16
f 56/17/17 55/13/17 60/19/17
f 57/15/18 56/14/18 60/20/18
f 58/16/19 57/15/19 60/21/19
f 59/12/20 58/16/20 60/22/20
f 61/1/1 62/2/1 63/3/1
f 62/2/2 61/4/2 66/5/2
f 61/6/3 63/7/3 64/8/3
f 61/9/4 64/8/4 65/10/4
f 61/11/5 65/10/5 66/5/5
f 62/2/6 66/5/6 71/12/6
f 63/3/7 62/2/7 67/13/7
f 64/8/8 63/7/8 68/14/8
f 65/10/9 64/8/9 69/15/9
f 66/5/10 65/10/10 70/16/10
f 62/2/11 71/12/11 67/13/11
f 63/3/12 67/13/12 68/17/12
f 64/8/13 68/14/13 69/15/13
f 65/10/14 69/15/14 70/16/14
f 66/5/15 70/16/15 71/12/15
f 67/13/16 71/12/16 72/18/16
f 68/17/17 67/13/17 72/19/17
f 69/15/18 68/14/18 72/20/18
f 70/16/19 69/15/19 72/21/19
f 71/12/20 70/16/20 72/22/20
f 73/1/1 74/2/1 75/3/1
f 74/2/2 73/4/2 78/5/2
f 73/6/3 75/7/3 76/8/3
f 73/9/4 76/8/4 77/10/4
f 73/11/5 77/10/5 78/5/5
f 74/2/6 78/5/6 83/12/6
f 75/3/7 74/2/7 79/13/7
f 76/8/8 75/7/8 80/14/8
f 77/10/9 76/8/9 81/15/9
f 78/5/10 77/10/10 82/16/10
f 74/2/11 83/12/11 79/13/11
f 75/3/12 79/13/12 80/17/12
f 76/8/13 80/14/13 81/15/13
f 77/10/14 81/15/14 82/16/14
f 78/5/15 82/16/15 83/12/15
f 79/13/16 83/12/16 84/18/16
f 80/17/17 79/13/17 84/19/17
f 81/15/18 80/14/18 84/20/18
f 82/16/19 81/15/19 84/21/19
f 83/12/20 82/16/20 84/22/20
f 85/1/21 86/2/21 87/3/21
f 86/2/2 85/4/2 90/5/2
f 85/6/3 87/7/3 88/8/3
f 85/9/4 88/8/4 89/10/4
f 85/11/22 89/10/22 90/5/22
f 86/2/6 90/5/6 95/12/6
f 87/3/7 86/2/7 91/13/7
f 88/8/23 87/7/23 92/14/23
f 89/10/24 88/8/24 93/15/24
f 90/5/10 89/10/10 94/16/10
f 86/2/25 95/12/25 91/13/25
f 87/3/12 91/13/12 92/17/12
f 88/8/13 92/14/13 93/15/13
f 89/10/14 93/15/14 94/16/14
f 90/5/26 94/16/26 95/12/26
f 91/13/16 95/12/16 96/18/16
f 92/17/17 91/13/17 96/19/17
f 93/15/18 92/14/18 96/20/18
f 94/16/19 93/15/19 96/21/19
f 95/12/20 94/16/20 96/22/20
f 97/1/1 98/2/1 99/3/1
f 98/2/2 97/4/2 102/5/2
f 97/6/3 99/7/3 100/8/3
f 97/9/4 100/8/4 101/10/4
f 97/11/5 101/10/5 102/5/5
f 98/2/6 102/5/6 107/12/6
f 99/3/7 98/2/7 103/13/7
f 100/8/8 99/7/8 104/14/8
f 101/10/9 100/8/9 105/15/9
f 102/5/10 101/10/10 106/16/10
f 98/2/11 107/12/11 103/13/11
f 99/3/12 103/13/12 104/17/12
f 100/8/13 104/14/13 105/15/13
f 101/10/14 105/15/14 106/16/14
f 102/5/15 106/16/15 107/12/15
f 103/13/16 107/12/16 108/18/16
f 104/17/17 103/13/17 108/19/17
f 105/15/18 104/14/18 108/20/18
f 106/16/19 105/15/19 108/21/19
f 107/12/20 106/16/20 108/22/20
f 109/1/1 110/2/1 111/3/1
f 110/2/2 109/4/2 114/5/2
f 109/6/3 111/7/3 112/8/3
f 109/9/4 112/8/4 113/10/4
f 109/11/5 113/10/5 114/5/5
f 110/2/6 114/5/6 119/12/6
f 111/3/7 110/2/7 115/13/7
f 112/8/8 111/7/8 116/14/8
f 113/10/24 112/8/24 117/15/24
f 114/5/10 113/10/10 118/16/10
f 110/2/25 119/12/25 115/13/25
f 111/3/12 115/13/12 116/17/12
f 112/8/13 116/14/13 117/15/13
f 113/10/14 117/15/14 118/16/14
f 114/5/15 118/16/15 119/12/15
f 115/13/16 119/12/16 120/18/16
f 116/17/17 115/13/17 120/19/17
f 117/15/18 116/14/18 120/20/18
f 118/16/19 117/15/19 120/21/19
f 119/12/20 118/16/20 120/22/20
