# Blender 4.1.1
# www.blender.org
mtllib bush2.mtl
o bush2
v -0.570153 -0.098789 -0.246342
v -0.142245 -0.080575 -0.352289
v -0.138446 -0.086109 0.703798
v -1.596849 -0.048825 0.646961
v 0.410992 -0.186743 -2.123013
v -2.386493 -0.051532 0.306021
v -2.208848 -0.131845 -1.162579
v 0.440825 -0.108057 -0.549642
v 0.752701 -0.101450 -0.328932
v -1.938233 -0.240726 -2.517218
v 0.651039 -0.228347 -2.683012
v 1.599427 -0.119544 -1.315821
v 2.527594 -0.143717 -2.638560
v -4.024342 -0.117467 0.081611
v -3.416606 -0.236179 -1.683009
v -3.043311 -0.242268 -1.944618
v -0.775446 -0.232210 -2.871732
v 1.486151 -0.121031 0.075186
v 0.822137 -0.103876 0.072639
v -2.361706 -0.067560 1.176723
v 2.710719 -0.048924 -1.578956
v 2.599879 -0.035044 -0.120548
v -3.849841 -0.138384 0.913675
v 1.310195 -0.177980 1.212814
v 2.369814 -0.129504 1.142564
v 0.780508 -0.127663 0.718825
v -1.476171 -0.111451 1.726816
v -0.063184 -0.113584 1.075241
v 1.827321 -0.159324 -2.871291
v 0.351658 -0.073273 0.812038
v 0.446918 -0.258515 2.712383
v 1.560235 -0.318285 2.519244
v -3.404335 -0.176006 1.665630
v 2.765921 -0.300992 2.860219
v 1.220886 -0.340996 2.952422
v -2.637090 -0.186241 2.130411
v -1.311619 -0.308267 3.021201
v -0.594298 -0.288376 3.140236
v 0.434479 -0.245056 2.895470
v 3.418318 -0.200051 2.398408
v 3.380173 0.040405 0.383281
v 3.660963 0.125802 -0.784145
v 1.980106 -0.291785 3.133600
v 3.335395 -0.010134 -2.360980
v 3.649433 -0.079715 1.782251
v -3.764287 -0.157858 -1.309328
v 3.842889 0.202173 0.084174
v 3.583459 0.078480 -1.905569
v 2.490299 -0.103354 -2.780009
v -0.122775 -0.192843 -2.892099
v -1.757568 -0.232995 2.883397
v -4.021052 -0.093108 -0.714262
v 2.981488 -0.212701 2.867278
v -2.632679 -0.086834 2.305041
v 3.749039 0.275374 -1.861242
v 1.336171 -0.223848 3.113746
v -3.308824 0.050282 2.029025
v -4.130482 0.136485 0.951770
v -3.958624 0.220715 1.446830
v 3.539792 0.247254 -2.236998
v 3.442848 -0.022942 2.547096
v 3.637103 0.079840 2.222349
v -0.035674 0.054270 0.679046
v -2.051074 2.570231 2.397291
v -2.144250 1.972631 2.487782
v -1.674886 1.711112 2.546092
v -2.386678 1.262743 2.710546
v -2.414039 1.006649 2.735807
v -1.602624 1.229780 2.569898
v -3.017574 2.173120 2.313994
v -2.551246 2.526018 2.264603
v -2.897764 1.052565 2.619381
v -2.297917 3.149208 2.095301
v -3.408279 1.657682 2.249383
v -3.172547 2.722327 1.871794
v -3.496895 2.203046 1.979589
v -3.139289 0.951305 2.487350
v -3.052876 3.333918 1.490042
v -2.487504 3.770744 1.666115
v -3.394975 3.559496 1.232880
v -2.490523 4.103456 1.454169
v -3.525424 3.779813 0.997447
v -1.267851 1.388276 2.773882
v -1.637148 0.621526 2.768111
v -0.988599 0.857818 2.960492
v -1.504728 0.077232 3.014107
v -0.575189 0.707264 3.076102
v -0.955734 -0.142061 3.173219
v -0.558951 -0.125714 3.200609
v -0.376402 1.148038 3.090335
v 0.073212 0.548358 3.070991
v -0.840298 1.345385 2.979259
v -1.996453 0.021598 2.772151
v -1.921421 0.695881 2.570951
v -2.293717 0.385269 2.509092
v -1.757568 -0.232995 2.883397
v 0.026083 1.074194 3.119946
v -0.061545 0.014133 3.117265
v -1.311619 -0.308267 3.021201
v -2.632679 -0.086834 2.305041
v -3.547189 2.942590 1.133386
v -2.643631 0.528005 2.565950
v -3.053572 0.387885 2.306731
v -3.766056 3.129666 0.951924
v -3.818785 3.447850 0.835897
v 0.549740 1.150577 2.977228
v 0.525032 0.001119 2.917232
v -0.594298 -0.288376 3.140236
v 0.775553 0.564123 2.797372
v 1.336171 -0.223848 3.113746
v 1.976366 1.579347 2.685049
v 1.262843 1.373842 2.609049
v 1.903750 -0.019574 3.107181
v 2.527988 1.566868 2.695546
v 2.505461 2.121769 2.445269
v 1.996609 2.340473 2.262714
v 1.766369 2.279891 2.235571
v 2.522306 -0.081535 3.064434
v 1.980106 -0.291785 3.133600
v 2.507818 2.494622 2.142640
v 0.434479 -0.245056 2.895470
v 3.071311 1.598726 2.500589
v 3.107611 0.036240 2.830083
v 3.056308 2.216074 2.169799
v 2.016016 2.677171 1.916311
v 1.345726 1.839711 2.505498
v 2.981488 -0.212701 2.867278
v 3.591077 0.629792 2.293602
v 3.525382 1.497693 2.160780
v 3.442848 -0.022942 2.547096
v 0.046001 1.743744 3.441419
v -0.467409 1.875570 3.395765
v -0.035044 2.414262 3.485173
v -0.372505 2.362329 3.442026
v -0.461934 3.101910 3.154951
v 0.047211 3.038123 3.212724
v -0.666927 4.024643 2.706042
v -1.217687 2.401795 3.232296
v -1.349942 2.851961 3.129917
v -0.965869 3.505398 2.986157
v -1.631110 3.622296 3.042532
v -1.306329 4.169002 2.751719
v 0.339308 2.137799 3.427734
v -1.091027 1.951530 3.193663
v 0.066935 3.666722 2.847636
v 0.536737 2.484945 3.277947
v -1.584167 2.741598 3.023581
v 0.471607 3.083407 3.044694
v 0.419380 1.620429 3.323254
v -0.779925 4.114742 2.611265
v -1.970029 3.611027 2.850125
v 0.706641 1.867652 3.247137
v 0.734044 3.410373 2.762677
v -1.474538 2.186894 3.012008
v 1.281383 2.973503 2.691203
v 0.904374 2.435537 2.943083
v 1.516310 2.656482 2.597872
v -1.932551 2.906156 2.781766
v -3.308824 0.050282 2.029025
v 1.446254 2.247568 2.575976
v 0.973032 1.641097 2.774322
v -2.153213 3.330143 2.554951
v 1.794892 3.909075 0.183542
v 1.849348 3.822501 -0.584495
v 1.318537 4.177038 -0.610952
v 1.381902 4.180703 0.066865
v 1.334136 4.055267 -1.314570
v 0.412726 4.620808 -0.991449
v 0.787497 4.447709 0.306134
v 0.284632 4.711375 0.317894
v 0.442119 4.599628 1.206267
v 1.043306 4.233987 0.990767
v 1.477329 4.012031 0.892617
v -0.060194 4.796484 -0.588071
v -0.097767 4.791045 1.157051
v 0.238799 4.599751 1.619754
v -0.081350 4.725554 -1.131689
v 0.592798 4.341721 -1.604022
v 0.857358 4.178161 1.721992
v 1.457835 3.728873 1.649573
v 1.853495 3.626031 1.032354
v 0.582184 4.078638 2.291039
v 1.242756 3.569954 2.308532
v 2.049862 3.599637 -0.047072
v 2.042377 3.541402 0.403750
v 2.485485 3.448430 0.411314
v 2.733150 3.378052 -0.083436
v 2.947038 3.182069 0.504194
v 2.760882 3.129024 1.025131
v 3.280502 2.920382 0.065377
v 2.541110 3.431522 -0.499222
v 2.946295 3.115540 -0.705801
v 2.339367 3.255002 1.148729
v 3.380034 2.618410 1.008044
v 3.014149 2.658255 1.657851
v 3.396336 2.697722 0.546360
v 3.430605 2.621078 -0.600710
v 3.474173 2.152388 1.721322
v 1.812609 3.276567 1.794873
v -0.007551 4.335385 2.270381
v 2.036891 3.358980 0.978730
v 1.920034 3.489038 -1.265602
v 3.442384 2.382424 -1.232856
v 2.065179 3.476255 -0.701412
v 3.701699 2.084237 1.076056
v 3.056308 2.216074 2.169799
v 2.037724 3.033138 1.517101
v 3.710686 2.121089 -0.651845
v 2.508120 3.195105 -1.036810
v -0.155081 4.575012 -1.554594
v 3.012616 2.497141 -1.615101
v 3.768647 1.983341 0.010521
v 3.730735 1.725723 1.599600
v 1.852093 2.901434 2.131608
v 2.507818 2.494622 2.142640
v 3.745949 1.796821 -1.221299
v 2.016016 2.677171 1.916311
v 3.525382 1.497693 2.160780
v 0.734044 3.410373 2.762677
v 1.281383 2.973503 2.691203
v 0.066935 3.666722 2.847636
v 3.872089 1.449940 1.128307
v 3.071311 1.598726 2.500589
v 3.895611 1.466022 -0.654388
v 1.516310 2.656482 2.597872
v -0.666927 4.024643 2.706042
v 3.800843 1.006905 1.737887
v 3.819350 1.310536 -1.408784
v 3.591077 0.629792 2.293602
v 3.925725 0.852685 0.040531
v 3.911451 0.584430 -1.242633
v 3.637103 0.079840 2.222349
v 3.873401 0.637207 1.052550
v 3.442848 -0.022942 2.547096
v 3.749039 0.275374 -1.861242
v 1.766369 2.279891 2.235571
v 3.732880 0.102115 1.547822
v 3.842889 0.202173 0.084174
v 3.649433 -0.079715 1.782251
v -2.027710 1.429852 -2.381407
v -1.440489 2.151598 -2.421197
v -1.845891 1.072910 -2.567764
v -1.213336 1.683453 -2.665542
v -1.416651 0.989671 -2.692483
v -1.528511 0.419026 -2.681349
v -0.871212 1.161957 -2.767105
v -0.582394 0.849216 -2.782388
v -0.619369 0.050687 -2.894869
v -1.088562 -0.049249 -2.848602
v -1.890590 -0.076888 -2.584238
v -0.775446 -0.232210 -2.871732
v 0.007602 0.684847 -2.778472
v -0.122775 -0.192843 -2.892099
v 0.693801 -0.096288 -2.743975
v -2.518089 0.404798 -2.194806
v -3.030898 -0.019069 -2.000193
v -1.938233 -0.240726 -2.517218
v -3.043311 -0.242268 -1.944618
v -3.257360 0.753667 -1.648723
v -3.439244 0.160177 -1.715538
v -2.723366 1.032961 -1.934634
v -3.798140 0.995219 -1.239970
v -3.416606 -0.236179 -1.683009
v -2.412741 1.462205 -2.060485
v -3.109543 1.559877 -2.013904
v -2.768109 2.167897 -2.060166
v -3.490748 1.976222 -1.818546
v -3.295904 2.361450 -1.832666
v -3.532381 1.500585 -1.747750
v -2.634335 2.585515 -1.909984
v -2.097133 2.034065 -2.023485
v -1.840745 2.404047 -2.032564
v -2.100185 2.760445 -1.823969
v -1.294155 2.778970 -2.504966
v -1.826074 3.272604 -2.122001
v -1.362247 3.547331 -2.383245
v -0.951611 3.146070 -2.598031
v -1.664125 3.742303 -2.145326
v -0.600884 3.421770 -2.581384
v -1.260102 4.075270 -2.134346
v -2.048094 3.798908 -1.770782
v -0.592881 2.887012 -3.017373
v -0.878346 2.437311 -2.999151
v -0.927829 2.031813 -2.991821
v -0.489103 2.128637 -3.279593
v -0.455409 2.600036 -3.201873
v -0.039974 2.318913 -3.366530
v 0.025365 1.575973 -3.326604
v -0.365924 1.722293 -3.280577
v -0.655711 1.290833 -3.032020
v -3.979323 0.131377 -1.168559
v -4.169391 0.437099 -0.937936
v -3.938001 1.167135 -1.090008
v -3.952398 1.838450 -1.271565
v -2.328645 3.211586 -1.506731
v -3.896421 2.157340 -1.282440
v -0.033614 2.891678 -3.128652
v -3.764287 -0.157858 -1.309328
v -4.108680 1.603689 -0.733831
v -4.403489 1.089751 -0.445012
v -0.682974 3.933572 -2.274936
v -4.383554 0.548950 -0.527268
v 0.057472 0.995664 -3.000526
v -4.021052 -0.093108 -0.714262
v 0.822137 -0.103876 0.072639
v -0.168586 0.045483 0.092403
v 0.381540 0.061740 -0.557152
v -0.040040 0.074552 -0.349457
v -0.035674 0.054270 0.679046
v 0.739425 -0.021690 0.656469
v 0.752701 -0.101450 -0.328932
v 0.351658 -0.073273 0.812038
v 0.780508 -0.127663 0.718825
v -4.329840 1.585836 0.395415
v -4.342127 1.709254 0.078665
v -4.473402 0.744278 0.449421
v -4.508296 0.949856 -0.034544
v -4.328403 0.543823 0.915434
v -4.114941 0.693077 1.302389
v -4.098553 1.383862 0.957984
v -3.957518 2.338777 0.459133
v -3.868019 0.963145 1.519650
v -3.428526 0.690462 2.068444
v -3.643970 0.330633 1.876688
v -3.958624 0.220715 1.446830
v -3.966037 2.447217 0.014612
v -3.859244 1.371832 1.723413
v -3.139289 0.951305 2.487350
v -3.408279 1.657682 2.249383
v -3.053572 0.387885 2.306731
v -4.130482 0.136485 0.951770
v -4.437276 0.467794 0.039201
v -4.308970 0.290355 0.535577
v -4.033367 2.829627 0.137080
v -3.308824 0.050282 2.029025
v -4.383554 0.548950 -0.527268
v -4.021052 -0.093108 -0.714262
v -4.024342 -0.117467 0.081611
v -3.940503 2.300181 1.003518
v -4.054633 1.831468 1.149400
v -3.818484 2.568241 0.777285
v -3.761755 2.275156 1.623497
v -3.874294 1.785494 1.653131
v -3.547189 2.942590 1.133386
v -3.052876 3.333918 1.490042
v -3.496895 2.203046 1.979589
v -3.172547 2.722327 1.871794
v -3.999176 2.789945 0.585961
v -4.021392 3.202711 0.484240
v -3.818785 3.447850 0.835897
v -3.816131 3.722358 0.503546
v -3.766056 3.129666 0.951924
v 1.004136 1.686402 -2.834786
v 1.066872 1.155276 -2.522902
v 0.677788 1.441337 -3.071317
v 0.635763 0.798308 -2.645909
v 0.700995 2.046209 -3.146752
v 0.416177 1.651597 -3.266624
v 1.024070 2.349619 -2.740801
v 1.207747 1.726112 -2.406330
v 0.749835 2.731117 -2.876101
v 1.098103 2.812055 -2.284323
v 1.305680 2.132919 -2.201973
v 1.342434 1.331087 -2.401299
v 0.842857 3.166472 -2.377481
v 1.117169 3.489041 -2.100194
v 0.351227 2.699377 -3.140627
v 1.582936 3.032787 -1.940086
v 1.409369 3.624199 -1.793778
v 1.920034 3.489038 -1.265602
v 2.046317 2.889414 -1.416160
v 1.739889 2.169068 -1.992178
v 2.057327 3.255070 -1.082813
v 0.270501 2.195413 -3.322886
v 0.890046 0.414526 -2.579588
v 2.065179 3.476255 -0.701412
v 0.498836 3.512244 -2.370598
v 0.391923 3.249433 -2.711936
v 1.334136 4.055267 -1.314570
v 0.470855 4.226090 -1.873117
v 0.167132 4.092295 -2.084918
v -0.039974 2.318913 -3.366530
v -0.033614 2.891678 -3.128652
v -0.053214 3.643263 -2.433171
v 0.592798 4.341721 -1.604022
v 0.007602 0.684847 -2.778472
v 0.693801 -0.096288 -2.743975
v 0.025365 1.575973 -3.326604
v 2.508120 3.195105 -1.036810
v -0.682974 3.933572 -2.274936
v -0.600884 3.421770 -2.581384
v -0.762314 4.313501 -1.959123
v -1.260102 4.075270 -2.134346
v -0.155081 4.575012 -1.554594
v 1.787504 0.733089 -2.632855
v 1.961177 1.784872 -2.298775
v 2.499912 1.590384 -2.379276
v 2.520094 2.136719 -2.136227
v 3.004837 1.695591 -2.210397
v 3.007189 2.173234 -1.940208
v 2.966966 0.713481 -2.469358
v 2.403705 0.099351 -2.809630
v 3.086079 0.141375 -2.608023
v 3.539792 0.247254 -2.236998
v 3.426124 1.614371 -1.924846
v 1.838090 0.010976 -2.877182
v 2.503733 2.507583 -1.836698
v 2.490299 -0.103354 -2.780009
v 3.432282 2.126637 -1.572040
v 3.012616 2.497141 -1.615101
v 1.827321 -0.159324 -2.871291
v 1.991117 2.205597 -2.051773
v 3.655323 1.517234 -1.669994
v 3.442384 2.382424 -1.232856
v 3.335395 -0.010134 -2.360980
v 3.749039 0.275374 -1.861242
v 3.745949 1.796821 -1.221299
v 3.819350 1.310536 -1.408784
v 0.057472 0.995664 -3.000526
v 0.651039 -0.228347 -2.683012
v -0.122775 -0.192843 -2.892099
v -2.313703 4.410297 1.088152
v -2.069156 4.527497 1.752142
v -1.829587 4.673074 1.739902
v -1.907450 4.620960 0.692362
v -1.460967 4.766611 1.528849
v -1.754372 4.466562 2.343307
v -1.410422 4.601196 2.169136
v -2.188478 4.152749 2.293220
v -2.490523 4.103456 1.454169
v -3.220359 4.110679 0.952084
v -2.967712 4.397091 0.547543
v -3.458940 4.107784 0.519917
v -3.525424 3.779813 0.997447
v -3.816131 3.722358 0.503546
v -1.819535 4.042414 2.794386
v -3.818785 3.447850 0.835897
v -1.306329 4.169002 2.751719
v -2.230044 3.768261 2.442620
v -1.970029 3.611027 2.850125
v -1.631110 3.622296 3.042532
v -2.487504 3.770744 1.666115
v -2.153213 3.330143 2.554951
v -2.297917 3.149208 2.095301
v -1.814698 4.565695 -0.416179
v -2.015388 4.289100 -1.249159
v -1.996436 4.457708 -0.383786
v -1.611263 4.557127 -1.234561
v -1.882699 4.651855 0.094010
v -2.339844 4.110744 -0.675258
v -1.756049 4.248099 -1.699138
v -1.232027 4.760740 -0.573659
v -1.100008 4.729854 -1.159091
v -1.178035 4.528803 -1.640849
v -2.902535 4.380797 0.091478
v -3.410508 4.103066 0.088592
v -2.136009 4.598364 0.576571
v -0.908510 4.836975 0.088573
v -1.238817 4.789453 0.626272
v -0.754574 4.778012 -0.718797
v -0.060194 4.796484 -0.588071
v -0.081350 4.725554 -1.131689
v -0.097767 4.791045 1.157051
v -1.174444 4.740135 0.998682
v -0.547910 4.674293 1.630600
v -0.155081 4.575012 -1.554594
v -0.753473 4.636695 1.611535
v -0.693343 4.422536 2.184244
v 0.238799 4.599751 1.619754
v -0.007551 4.335385 2.270381
v -0.762314 4.313501 -1.959123
v -0.666927 4.024643 2.706042
v -0.779925 4.114742 2.611265
v -3.904157 3.454683 0.069207
v -3.426625 3.809930 -0.283528
v -3.101504 4.056800 -0.317084
v -3.648330 3.387078 -0.300769
v -2.576793 3.627536 -0.942465
v -3.202945 3.411780 -0.621627
v -3.314386 2.909696 -1.340810
v -2.824903 2.871684 -1.670786
v -3.295904 2.361450 -1.832666
v -3.664489 2.621595 -1.283724
v -2.328645 3.211586 -1.506731
v -2.634335 2.585515 -1.909984
v -3.645952 3.031564 -0.367985
v -3.490748 1.976222 -1.818546
v -3.896421 2.157340 -1.282440
v -2.048094 3.798908 -1.770782
v -1.664125 3.742303 -2.145326
v -1.260102 4.075270 -2.134346
v -3.944447 2.514528 -0.634636
v -4.033367 2.829627 0.137080
v -3.966037 2.447217 0.014612
v -4.143084 1.870072 -0.484270
v -4.342127 1.709254 0.078665
v -4.403489 1.089751 -0.445012
v -4.108680 1.603689 -0.733831
v -3.952398 1.838450 -1.271565
v -4.508296 0.949856 -0.034544
v -4.021392 3.202711 0.484240
v -4.383554 0.548950 -0.527268
v -0.168586 0.045483 0.092403
v -0.138446 -0.086109 0.703798
v -0.142245 -0.080575 -0.352289
v -0.040040 0.074552 -0.349457
v -0.035674 0.054270 0.679046
v 0.381540 0.061740 -0.557152
v -0.142245 -0.080575 -0.352289
v 0.440825 -0.108057 -0.549642
v -0.040040 0.074552 -0.349457
v 0.752701 -0.101450 -0.328932
vn -0.1503 -0.9769 -0.1517
vn -0.0728 -0.9936 -0.0866
vn -0.0981 -0.8454 -0.5250
vn -0.1480 -0.9878 0.0483
vn -0.0931 -0.9877 0.1258
vn -0.4374 -0.8965 0.0702
vn 0.9582 0.0574 -0.2803
vn 0.9579 0.2708 -0.0949
vn 0.9698 0.2001 -0.1393
vn 0.9879 0.0978 -0.1200
vn 0.9272 -0.3699 -0.0586
vn 0.9994 0.0295 -0.0173
vn 0.9620 0.2717 -0.0277
vn 0.9753 0.2203 0.0149
vn 0.9978 0.0646 0.0137
vn 0.9919 -0.1246 0.0247
vn 0.9644 0.2620 0.0358
vn 0.9777 -0.2015 0.0597
vn 0.9987 -0.0031 0.0510
vn 0.9548 0.2672 0.1300
vn 0.9939 -0.0086 0.1099
vn 0.9680 0.1351 0.2113
vn 0.9809 -0.1077 0.1619
vn 0.8605 0.1404 -0.4897
vn 0.8838 0.1356 -0.4477
vn 0.8971 0.2702 -0.3495
vn 0.8955 0.4448 0.0141
vn 0.9285 -0.3686 0.0446
vn 0.8589 0.4435 0.2560
vn 0.9029 0.1645 0.3972
vn 0.8940 0.1331 0.4278
vn 0.9283 0.0297 0.3706
vn 0.9853 -0.1027 0.1365
vn 0.9532 -0.2746 0.1263
vn 0.8086 -0.4744 -0.3481
vn 0.7653 0.2031 -0.6108
vn 0.7572 0.3643 -0.5421
vn 0.8379 0.3710 -0.4004
vn 0.8356 0.4263 -0.3464
vn 0.8520 0.4948 -0.1709
vn 0.8711 0.4905 -0.0241
vn 0.8858 0.4638 0.0145
vn 0.9004 0.4347 -0.0156
vn 0.8437 0.5233 0.1197
vn 0.8195 0.5232 0.2337
vn 0.8172 0.3639 0.4469
vn 0.8301 -0.5164 0.2105
vn 0.8575 0.0051 0.5145
vn 0.6530 0.1407 0.7442
vn 0.8310 -0.4207 0.3640
vn 0.5598 0.3034 -0.7711
vn 0.5212 0.2309 -0.8216
vn 0.6743 0.6558 0.3395
vn 0.6869 0.4413 0.5774
vn 0.6142 0.1646 0.7718
vn 0.6276 0.1746 0.7587
vn 0.5756 0.1877 -0.7959
vn 0.6143 0.4425 -0.6533
vn 0.5653 0.4040 -0.7191
vn 0.5698 0.5774 -0.5848
vn 0.6043 0.6274 -0.4911
vn 0.5711 0.6976 -0.4327
vn 0.7221 0.6772 -0.1416
vn 0.7196 0.6798 0.1414
vn 0.7195 0.6798 0.1422
vn 0.6156 0.6207 0.4855
vn 0.6061 0.3870 0.6949
vn 0.6162 -0.5547 0.5591
vn 0.6122 -0.1957 0.7661
vn 0.4867 0.7385 -0.4667
vn 0.5581 0.8156 -0.1529
vn 0.6534 0.7512 -0.0931
vn 0.6130 0.7335 0.2937
vn 0.6119 0.7320 0.2997
vn 0.4260 -0.5136 -0.7449
vn 0.6373 0.7702 0.0249
vn 0.3389 0.7256 0.5988
vn 0.3202 0.2026 0.9254
vn 0.3806 -0.0549 0.9231
vn 0.2872 0.7256 -0.6253
vn 0.4379 0.8128 -0.3843
vn 0.4789 0.8702 0.1159
vn 0.4465 0.8600 0.2471
vn 0.3745 0.8094 0.4523
vn 0.2766 0.7853 0.5539
vn 0.2705 0.6057 0.7483
vn 0.3362 0.4511 0.8267
vn 0.2880 0.4034 0.8685
vn 0.3279 0.2052 0.9221
vn 0.2652 -0.3943 0.8799
vn 0.3075 0.9514 -0.0197
vn 0.3094 0.9507 0.0196
vn 0.3532 0.8854 0.3022
vn 0.1627 0.6620 -0.7316
vn 0.0336 0.7578 -0.6516
vn 0.1641 0.8519 -0.4974
vn 0.2536 0.8796 -0.4024
vn 0.2015 0.9710 0.1288
vn 0.1922 0.9392 0.2845
vn 0.0031 0.8555 0.5178
vn 0.1314 0.7980 0.5882
vn -0.0077 0.6302 0.7764
vn 0.0889 0.2172 0.9721
vn -0.0426 0.6266 -0.7782
vn 0.1671 0.9696 -0.1789
vn 0.1549 0.9412 0.3001
vn -0.0285 0.7468 0.6644
vn -0.0533 0.7176 0.6945
vn -0.1033 0.4847 0.8686
vn -0.0081 0.4109 0.9117
vn -0.0126 0.2558 0.9667
vn 0.0803 0.1186 0.9897
vn -0.2623 0.6683 -0.6962
vn -0.2624 0.6993 0.6650
vn 0.9039 0.2731 -0.3294
vn 0.8019 0.5652 -0.1935
vn 0.9069 0.3562 -0.2252
vn 0.8327 0.5473 -0.0837
vn 0.8005 0.5926 0.0898
vn 0.8275 0.5328 0.1769
vn 0.8134 0.4983 0.3003
vn 0.8392 0.4759 0.2631
vn 0.8535 0.3650 0.3719
vn 0.8840 0.3603 0.2978
vn 0.7608 0.1759 -0.6247
vn 0.6817 0.6826 -0.2634
vn 0.7649 0.6439 -0.0184
vn 0.7759 0.6125 0.1507
vn 0.6665 0.7198 0.1940
vn 0.7920 -0.0071 0.6105
vn -0.2254 0.4757 0.8502
vn -0.0817 0.2579 0.9627
vn 0.7153 0.3583 -0.5999
vn 0.5565 0.8291 -0.0540
vn 0.5598 0.8267 -0.0568
vn 0.6326 0.7199 0.2856
vn 0.6871 0.6459 0.3328
vn 0.7052 0.5133 0.4891
vn 0.8152 -0.0156 0.5789
vn 0.7266 -0.1603 0.6681
vn 0.7114 -0.2863 0.6418
vn 0.5275 0.1463 -0.8368
vn 0.6374 0.6200 -0.4576
vn 0.5552 0.8215 -0.1299
vn 0.5238 0.8445 0.1120
vn 0.6574 0.4366 0.6142
vn 0.4460 0.1179 0.8872
vn 0.6847 0.3137 0.6579
vn -0.1458 0.2775 0.9496
vn -0.0211 0.0907 0.9957
vn 0.4877 0.8135 0.3169
vn 0.6679 0.6438 0.3733
vn 0.5233 -0.1347 0.8414
vn -0.1938 0.3314 0.9234
vn 0.7438 0.1483 -0.6517
vn 0.6479 0.2116 -0.7317
vn 0.3953 0.9176 -0.0419
vn 0.4490 0.8842 0.1287
vn 0.5855 0.7236 0.3656
vn 0.4879 0.4935 0.7200
vn 0.6197 -0.1115 0.7768
vn 0.4658 0.0859 0.8807
vn 0.9014 0.0341 -0.4315
vn 0.8995 -0.1373 -0.4147
vn 0.9504 0.1278 -0.2836
vn 0.4859 0.6864 -0.5411
vn 0.4769 0.7083 -0.5205
vn 0.4706 0.8769 0.0979
vn 0.5666 0.7863 0.2464
vn 0.6038 0.7823 0.1532
vn 0.5537 0.7326 0.3959
vn 0.4117 0.1336 0.9015
vn -0.1549 0.2712 0.9500
vn 0.6697 0.2311 -0.7057
vn 0.7545 0.0698 -0.6526
vn 0.6972 -0.3000 -0.6511
vn 0.7586 0.4141 -0.5031
vn 0.4356 0.8606 -0.2640
vn 0.4822 0.8650 -0.1390
vn 0.5350 0.8425 0.0631
vn 0.4803 0.7947 0.3712
vn 0.4312 0.5836 0.6881
vn 0.4128 0.3819 0.8269
vn 0.6542 -0.2727 0.7055
vn 0.4243 0.1239 0.8970
vn 0.8642 -0.0320 0.5022
vn -0.2353 0.0006 0.9719
vn 0.5817 -0.4749 -0.6604
vn 0.5472 0.5715 -0.6115
vn 0.5602 0.5694 -0.6016
vn 0.4427 0.8966 -0.0083
vn -0.5677 -0.1625 0.8070
vn 0.4778 -0.0842 0.8744
vn 0.6588 0.3344 0.6739
vn 0.6767 0.1503 0.7208
vn 0.4640 0.8857 -0.0159
vn 0.4647 0.8850 0.0289
vn 0.5159 0.8183 0.2534
vn 0.3220 0.5937 0.7375
vn 0.2901 0.4808 0.8274
vn 0.3621 -0.1431 0.9211
vn 0.5389 -0.3975 0.7427
vn 0.4933 0.0926 0.8649
vn 0.3580 -0.1313 0.9245
vn 0.2712 -0.0651 0.9603
vn 0.3620 0.0372 0.9314
vn 0.3065 0.3744 0.8751
vn 0.1658 0.1023 -0.9808
vn 0.2455 0.7294 -0.6385
vn 0.2341 0.8503 -0.4714
vn 0.2602 0.9052 -0.3359
vn 0.2912 0.8841 -0.3655
vn 0.2420 0.9609 -0.1348
vn 0.4159 -0.2897 0.8620
vn 0.3233 0.1542 0.9337
vn 0.3287 0.9425 0.0603
vn 0.3174 0.9354 0.1558
vn 0.3404 0.8191 0.4617
vn 0.2569 0.6478 0.7172
vn 0.2795 0.4756 0.8341
vn 0.3228 0.0006 0.9465
vn 0.3125 -0.1971 0.9292
vn 0.2946 -0.5123 0.8067
vn 0.2799 0.3530 0.8928
vn 0.3074 0.2242 0.9248
vn 0.1393 -0.4320 0.8911
vn 0.1146 -0.0509 0.9921
vn 0.2515 -0.1540 0.9555
vn 0.3225 0.9460 -0.0339
vn 0.2203 0.9754 0.0078
vn -0.0751 0.6762 -0.7329
vn 0.0985 0.7715 -0.6286
vn 0.0987 0.7616 -0.6405
vn 0.8162 -0.5414 0.2018
vn 0.7811 -0.6014 -0.1680
vn 0.9771 0.2126 -0.0024
vn 0.0937 0.9423 0.3214
vn 0.0918 0.9099 0.4045
vn 0.1773 0.6544 0.7351
vn 0.2431 -0.3187 0.9161
vn -0.1437 -0.4249 0.8938
vn 0.0448 0.1373 -0.9895
vn 0.0502 0.6446 -0.7629
vn -0.0124 0.9971 -0.0752
vn 0.0611 0.9025 0.4264
vn 0.0251 0.7955 0.6054
vn 0.0768 0.4989 0.8632
vn 0.0442 0.1485 0.9879
vn 0.1522 0.0471 0.9872
vn -0.0000 -0.0323 0.9995
vn -0.0913 -0.1004 0.9907
vn 0.2291 -0.3821 0.8953
vn -0.1704 0.3386 0.9254
vn -0.0528 0.4055 0.9126
vn -0.1826 -0.3999 0.8982
vn 0.0130 0.9413 -0.3373
vn 0.0073 0.9934 -0.1144
vn -0.0020 0.9916 -0.1293
vn 0.0510 0.9987 0.0042
vn -0.0720 0.9822 0.1737
vn -0.0488 0.4282 0.9024
vn 0.0089 0.8336 -0.5523
vn -0.0330 0.9971 0.0679
vn -0.2001 0.9106 0.3615
vn 0.0592 0.4473 0.8924
vn -0.2208 0.0296 0.9749
vn -0.2421 0.0779 0.9671
vn -0.0510 -0.3378 0.9399
vn -0.2127 0.3311 0.9193
vn -0.3114 -0.0296 0.9498
vn -0.4153 0.5711 -0.7081
vn -0.0676 0.9875 0.1425
vn -0.1983 0.9350 0.2940
vn 0.1304 0.7916 0.5970
vn -0.2235 0.5593 0.7982
vn -0.2447 -0.1510 0.9578
vn -0.5856 0.3626 -0.7250
vn -0.3252 -0.4321 0.8412
vn -0.0741 0.1460 0.9865
vn -0.1274 -0.5069 0.8525
vn -0.0321 0.6349 -0.7719
vn -0.1220 0.7408 -0.6605
vn -0.0616 0.9945 -0.0844
vn 0.1753 0.9835 0.0456
vn 0.2386 0.7642 0.5992
vn 0.2735 0.4421 0.8542
vn -0.4234 0.0941 0.9011
vn -0.1033 0.2713 0.9569
vn -0.4226 -0.4526 0.7852
vn -0.1971 0.1963 0.9605
vn -0.1987 0.1988 0.9597
vn -0.0832 0.1977 0.9767
vn -0.2564 0.9061 -0.3366
vn 0.1487 0.9602 0.2363
vn 0.2226 0.9206 0.3209
vn 0.1886 0.8045 0.5632
vn 0.1463 0.3954 0.9068
vn -0.3318 0.1528 0.9309
vn -0.5725 -0.3668 0.7333
vn -0.2910 0.7281 -0.6207
vn -0.3022 0.9459 -0.1180
vn -0.1868 0.9822 -0.0218
vn -0.1868 0.9820 -0.0279
vn -0.5927 0.2798 0.7553
vn -0.3715 0.3058 0.8766
vn 0.1099 0.1515 0.9823
vn -0.5238 -0.2180 0.8235
vn -0.3238 -0.1309 0.9370
vn -0.3174 -0.1732 0.9323
vn -0.3566 0.8253 -0.4378
vn -0.3388 0.9362 -0.0940
vn -0.3595 0.9111 -0.2018
vn -0.2404 0.9698 0.0401
vn -0.2255 0.9600 0.1661
vn -0.1141 0.9872 -0.1110
vn -0.0974 0.9617 0.2561
vn -0.1891 0.9216 0.3390
vn -0.0116 0.8021 0.5971
vn -0.1248 0.7318 0.6700
vn -0.0490 0.4916 0.8695
vn -0.4409 0.0739 0.8945
vn -0.5798 -0.1314 0.8041
vn -0.4913 0.2950 0.8196
vn -0.6076 -0.1364 0.7825
vn -0.3970 -0.0409 0.9169
vn -0.4396 -0.0201 0.8980
vn -0.5059 0.7826 -0.3629
vn -0.5268 0.8238 -0.2093
vn -0.1214 0.9915 0.0462
vn -0.2612 0.9649 -0.0286
vn -0.4762 0.8121 0.3373
vn -0.4815 0.2755 0.8320
vn -0.4921 -0.0449 0.8694
vn -0.6010 -0.1087 0.7918
vn -0.4494 0.2748 0.8500
vn -0.4382 0.1462 -0.8869
vn -0.7101 0.5347 -0.4580
vn -0.5434 0.8271 -0.1437
vn -0.5247 0.8376 -0.1517
vn -0.4674 0.8840 -0.0092
vn -0.5174 0.8548 0.0397
vn -0.5705 0.7287 0.3789
vn -0.0362 0.1551 0.9872
vn 0.0407 0.2865 0.9572
vn 0.1777 0.0778 0.9810
vn 0.1798 0.0755 0.9808
vn 0.2348 -0.1383 0.9622
vn -0.4898 0.2989 0.8190
vn -0.6467 0.7512 -0.1322
vn -0.7300 0.3147 0.6067
vn 0.1119 -0.3214 0.9403
vn -0.3966 0.3027 0.8667
vn -0.5991 0.0861 0.7960
vn -0.5630 -0.1754 0.8076
vn -0.5775 0.3659 -0.7298
vn -0.2272 0.9370 0.2655
vn -0.2672 0.1849 0.9457
vn -0.1103 0.3317 0.9369
vn -0.4307 -0.7796 0.4547
vn -0.2431 0.9175 -0.3149
vn -0.5245 0.3697 0.7670
vn -0.2689 0.3528 0.8962
vn 0.0139 -0.3403 0.9402
vn -0.2744 0.7124 -0.6459
vn -0.3138 0.7734 -0.5509
vn -0.2561 0.9640 -0.0710
vn -0.2347 0.9720 -0.0154
vn -0.2356 0.9358 0.2622
vn -0.4016 0.3885 0.8293
vn -0.1214 0.2932 0.9483
vn -0.1821 -0.7153 0.6747
vn -0.2514 -0.2262 0.9411
vn -0.2216 0.1191 0.9678
vn -0.3572 0.7062 -0.6112
vn -0.4877 0.7495 -0.4477
vn -0.3238 0.8117 -0.4860
vn -0.4448 0.5353 0.7181
vn -0.3234 0.5364 0.7795
vn -0.2610 0.2278 0.9381
vn -0.3719 -0.2706 0.8879
vn -0.3412 0.8544 0.3919
vn -0.3383 0.7952 0.5032
vn -0.4647 0.2602 0.8464
vn -0.4145 -0.3704 0.8313
vn -0.4147 0.5999 -0.6842
vn -0.4333 0.7969 -0.4209
vn -0.4769 0.8733 -0.0994
vn -0.4755 0.5343 0.6989
vn -0.4757 0.4952 0.7270
vn -0.4669 0.4721 0.7478
vn -0.4096 0.1989 0.8903
vn -0.5036 0.8614 -0.0660
vn -0.4998 0.8228 0.2704
vn -0.4888 0.4593 0.7417
vn -0.6773 -0.3160 0.6644
vn -0.5079 0.0950 0.8562
vn -0.6239 0.6829 -0.3801
vn -0.5937 0.0167 0.8045
vn -0.5322 0.3044 0.7900
vn -0.5814 -0.0832 0.8093
vn -0.7120 0.6462 -0.2749
vn -0.7286 0.6791 -0.0892
vn -0.6976 0.6322 0.3371
vn -0.6607 0.6586 0.3603
vn -0.6238 0.0279 0.7811
vn -0.7536 0.1890 0.6295
vn -0.7747 0.4905 0.3990
vn -0.7243 -0.2104 0.6567
vn -0.7609 -0.0629 0.6458
vn -0.7630 0.2123 0.6105
vn -0.7370 0.1422 0.6608
vn -0.7416 0.0897 0.6648
vn -0.7774 0.0778 0.6242
vn -0.8602 0.0428 0.5082
vn -0.6894 0.0683 -0.7212
vn -0.8717 0.2703 -0.4087
vn -0.8481 -0.1231 0.5153
vn -0.8836 -0.4090 0.2277
vn 0.9920 -0.1253 0.0152
vn 0.6133 -0.7876 -0.0592
vn 0.7491 -0.5452 -0.3763
vn 0.7680 -0.6400 -0.0261
vn 0.8713 0.4477 -0.2010
vn 0.3370 -0.9414 0.0122
vn 0.2509 -0.9592 -0.1306
vn 0.3051 -0.9521 0.0191
vn 0.1880 -0.9748 -0.1199
vn 0.6468 -0.1538 -0.7470
vn 0.1414 -0.9879 0.0639
vn 0.1337 -0.9893 0.0577
vn 0.7190 0.6546 -0.2337
vn 0.1235 -0.9914 -0.0428
vn 0.3525 -0.8849 0.3045
vn 0.1631 -0.9864 0.0218
vn 0.0766 -0.9899 -0.1196
vn 0.2628 -0.9073 -0.3282
vn 0.3074 0.6715 -0.6742
vn 0.2843 -0.0186 -0.9585
vn 0.2564 0.2778 -0.9258
vn 0.2635 0.2364 -0.9352
vn 0.2180 0.3900 -0.8947
vn 0.2993 0.4687 -0.8311
vn 0.2545 0.6144 -0.7468
vn 0.1285 -0.9904 -0.0507
vn 0.2428 -0.6503 0.7198
vn 0.2879 0.2484 -0.9249
vn 0.0668 -0.9977 0.0146
vn 0.1428 -0.0831 -0.9863
vn 0.0622 0.3238 -0.9441
vn 0.0090 0.2768 -0.9609
vn -0.0312 0.3073 -0.9511
vn 0.0101 0.4061 -0.9138
vn -0.0707 0.5088 -0.8580
vn -0.0975 0.6818 -0.7250
vn 0.0716 -0.9907 -0.1154
vn 0.1250 -0.0422 -0.9913
vn 0.0779 -0.9969 0.0053
vn 0.0659 -0.9959 -0.0625
vn 0.0452 -0.9930 -0.1096
vn 0.1214 -0.9456 -0.3018
vn -0.2680 0.5019 -0.8224
vn 0.0809 -0.9939 0.0749
vn 0.0334 -0.9910 0.1293
vn -0.0725 0.3128 -0.9471
vn -0.2423 0.5160 -0.8216
vn 0.7533 0.3050 -0.5828
vn 0.0428 -0.9981 -0.0433
vn 0.0379 -0.9928 -0.1139
vn -0.2278 0.4771 0.8488
vn 0.0239 -0.9991 -0.0337
vn 0.0467 -0.9962 -0.0736
vn -0.1385 0.3087 -0.9410
vn 0.4334 0.0232 -0.9009
vn 0.4064 0.2379 -0.8822
vn 0.5943 0.3532 -0.7225
vn -0.1131 -0.0272 -0.9932
vn -0.1241 -0.3825 -0.9156
vn -0.1486 0.2590 -0.9544
vn 0.0427 -0.9948 0.0922
vn 0.4987 0.2144 -0.8398
vn 0.4771 -0.2625 0.8387
vn -0.1006 -0.7695 0.6307
vn 0.4199 -0.0308 -0.9070
vn 0.3443 0.1055 -0.9329
vn 0.5696 0.2007 -0.7970
vn 0.0299 -0.9988 0.0392
vn -0.0256 -0.9982 -0.0539
vn 0.0062 -0.9941 -0.1080
vn 0.6398 -0.1192 -0.7592
vn 0.7748 0.3770 -0.5075
vn -0.1835 0.3643 -0.9130
vn 0.4368 0.5918 -0.6775
vn 0.0278 -0.9987 0.0422
vn -0.0250 -0.9997 -0.0031
vn -0.0258 -0.9997 -0.0016
vn -0.0571 -0.9976 -0.0404
vn 0.2666 0.0101 -0.9638
vn 0.3805 0.3952 -0.8361
vn -0.0720 -0.9915 -0.1084
vn -0.1384 -0.7517 0.6448
vn 0.5270 -0.1251 -0.8406
vn 0.3479 0.5668 -0.7468
vn 0.3199 0.5237 -0.7895
vn -0.0144 -0.9986 0.0502
vn -0.9145 -0.3978 -0.0736
vn -0.0667 -0.9948 -0.0765
vn -0.1254 -0.9900 0.0643
vn 0.7178 -0.3773 0.5852
vn 0.4382 0.2428 -0.8654
vn 0.3805 0.0063 -0.9247
vn 0.5146 0.2831 -0.8094
vn 0.4383 0.5321 -0.7244
vn 0.2982 -0.5401 -0.7870
vn 0.2729 0.1981 -0.9414
vn -0.2432 -0.5602 -0.7919
vn -0.2098 -0.8614 -0.4626
vn 0.2469 0.2944 -0.9233
vn 0.2249 -0.4981 -0.8375
vn 0.2374 -0.4658 -0.8524
vn 0.2110 -0.4652 -0.8597
vn 0.2114 -0.0288 -0.9770
vn 0.1103 -0.0730 -0.9912
vn 0.1590 -0.0390 -0.9865
vn 0.1600 0.3771 -0.9122
vn 0.2660 0.5803 -0.7698
vn 0.1427 0.6742 -0.7246
vn 0.2673 -0.5882 -0.7633
vn 0.2185 0.5288 -0.8201
vn 0.2124 -0.3184 -0.9239
vn -0.0476 -0.9962 -0.0734
vn 0.0443 -0.9956 -0.0826
vn -0.1051 0.3824 -0.9180
vn -0.1621 -0.0672 -0.9845
vn -0.1650 -0.4901 -0.8559
vn -0.1722 -0.5063 -0.8450
vn -0.1502 -0.5586 -0.8157
vn 0.0638 0.1188 -0.9909
vn 0.0603 -0.9952 0.0773
vn -0.2581 0.1751 -0.9501
vn -0.1304 -0.0371 -0.9908
vn -0.2401 -0.3584 -0.9021
vn -0.1759 0.4714 -0.8642
vn -0.1577 0.6226 -0.7665
vn 0.0229 0.5163 -0.8561
vn 0.0697 0.5898 -0.8046
vn 0.2001 -0.6973 0.6883
vn 0.0412 -0.9991 -0.0054
vn -0.1081 -0.0777 0.9911
vn -0.1157 -0.0716 0.9907
vn -0.0271 -0.0666 -0.9974
vn 0.0098 -0.9969 0.0783
vn -0.0369 -0.9964 -0.0767
vn -0.5533 -0.4776 -0.6824
vn 0.0465 -0.9421 -0.3320
vn 0.0041 -0.9999 -0.0106
vn 0.0058 -0.9987 0.0498
vn -0.3704 -0.3986 0.8390
vn -0.5013 0.2851 -0.8170
vn -0.4797 0.1760 -0.8596
vn -0.5558 0.0528 -0.8296
vn -0.5177 -0.1549 -0.8414
vn -0.5134 -0.1426 -0.8462
vn -0.0093 0.9234 -0.3838
vn -0.0228 -0.9973 -0.0692
vn -0.0268 -0.9981 -0.0549
vn 0.0280 -0.9996 -0.0016
vn -0.6292 -0.1902 -0.7536
vn -0.6627 -0.3012 -0.6856
vn -0.0916 -0.0309 -0.9953
vn -0.5880 0.3436 -0.7323
vn -0.1701 0.1452 -0.9747
vn -0.1407 0.2131 -0.9668
vn -0.0866 0.5015 -0.8608
vn -0.0558 0.9963 -0.0652
vn -0.7335 0.0773 -0.6752
vn -0.7452 -0.0136 -0.6667
vn -0.1615 0.0855 -0.9832
vn -0.1168 -0.0595 -0.9914
vn -0.1069 0.0016 -0.9943
vn -0.1559 0.4457 -0.8815
vn -0.0265 -0.9993 0.0254
vn 0.0015 -0.9886 -0.1505
vn -0.1931 0.3021 -0.9335
vn -0.3715 0.1131 -0.9215
vn -0.0145 -0.9991 0.0393
vn -0.3942 0.2676 -0.8792
vn -0.2570 0.1126 -0.9598
vn -0.7343 0.0813 -0.6740
vn -0.3519 0.4540 -0.8186
vn 0.0092 -0.9966 0.0819
vn -0.3141 0.0436 -0.9484
vn -0.2708 -0.3501 -0.8967
vn -0.2726 0.0347 -0.9615
vn -0.5509 0.1492 -0.8212
vn -0.5276 0.0871 -0.8450
vn -0.6758 0.0595 -0.7347
vn -0.5083 -0.0338 0.8605
vn -0.6585 -0.3664 0.6573
vn -0.2907 -0.2886 -0.9122
vn -0.3856 0.2650 -0.8838
vn -0.6246 -0.0695 -0.7779
vn -0.5304 0.3486 -0.7727
vn -0.4341 0.5503 -0.7132
vn -0.0138 -0.9991 0.0398
vn -0.7783 -0.2403 0.5801
vn -0.5754 0.4797 -0.6624
vn -0.6773 -0.0640 -0.7329
vn 0.0478 -0.9948 0.0895
vn -0.0145 -0.9983 -0.0563
vn -0.7825 -0.3290 0.5287
vn -0.4398 -0.0578 -0.8962
vn -0.5274 0.3874 -0.7562
vn -0.6699 0.1954 -0.7163
vn -0.3825 0.2432 -0.8913
vn -0.0009 -0.9985 0.0545
vn 0.0109 -0.9884 -0.1517
vn -0.5341 0.6531 0.5369
vn -0.2233 -0.9537 0.2016
vn -0.5757 0.1284 -0.8075
vn 0.0683 0.2645 -0.9620
vn -0.7757 0.0897 -0.6247
vn -0.7759 0.0493 -0.6289
vn -0.7819 0.4780 -0.4002
vn 0.0115 -0.9998 -0.0187
vn -0.8878 -0.2582 0.3811
vn -0.8937 -0.1630 0.4180
vn -0.7318 0.3322 0.5951
vn -0.8449 -0.0110 0.5348
vn -0.8000 -0.0999 0.5916
vn -0.4482 -0.2237 -0.8655
vn 0.1124 0.3042 -0.9460
vn 0.0607 0.0310 -0.9977
vn -0.7921 0.5428 -0.2791
vn -0.7554 0.6338 0.1664
vn 0.0234 -0.9929 -0.1168
vn -0.7679 0.5933 0.2416
vn -0.9412 -0.0809 0.3281
vn -0.4551 -0.1912 -0.8697
vn -0.4464 0.1338 -0.8848
vn -0.6133 0.2215 -0.7581
vn -0.5895 0.1371 -0.7961
vn -0.0492 0.5577 -0.8286
vn -0.1333 0.5818 -0.8023
vn 0.0470 -0.9948 0.0903
vn -0.8458 0.1778 -0.5030
vn -0.9262 0.1966 0.3218
vn -0.9258 0.2196 0.3077
vn -0.9468 -0.0722 0.3137
vn -0.2478 -0.2163 0.9444
vn -0.0716 -0.0356 -0.9968
vn -0.0952 -0.2160 -0.9717
vn -0.5326 0.1694 -0.8292
vn -0.5057 0.2300 -0.8315
vn -0.3791 0.5832 -0.7184
vn 0.0322 -0.9978 0.0585
vn 0.0429 -0.9989 -0.0196
vn -0.2376 0.3952 -0.8873
vn -0.2674 0.5069 -0.8195
vn -0.5246 0.4295 -0.7350
vn 0.0539 -0.9979 -0.0364
vn 0.0627 -0.9942 -0.0869
vn -0.4194 -0.3344 0.8440
vn -0.3475 0.1418 -0.9269
vn -0.3437 0.1222 -0.9311
vn -0.2938 -0.3492 -0.8898
vn -0.4810 0.2423 -0.8426
vn 0.0497 -0.9952 0.0841
vn -0.4168 0.4409 -0.7949
vn 0.0524 -0.9927 -0.1084
vn -0.3003 -0.8257 0.4776
vn -0.4811 -0.2870 -0.8283
vn -0.3779 -0.7381 0.5589
vn -0.5229 -0.0805 -0.8486
vn -0.5980 -0.0994 -0.7953
vn -0.5675 -0.1691 -0.8058
vn -0.5523 0.5463 -0.6297
vn -0.5643 0.3268 -0.7581
vn -0.5561 0.6644 -0.4993
vn -0.7298 0.5413 0.4176
vn -0.6289 0.4965 0.5983
vn -0.7026 0.3323 -0.6292
vn -0.6897 0.3428 -0.6378
vn -0.7601 -0.0301 -0.6491
vn -0.6587 -0.3320 -0.6752
vn -0.5107 0.2491 -0.8229
vn -0.5835 0.1471 -0.7987
vn -0.6342 0.5157 0.5761
vn -0.5576 -0.2337 0.7966
vn -0.7422 -0.0577 0.6677
vn -0.7613 -0.1635 0.6275
vn -0.7732 0.1145 -0.6237
vn -0.7056 -0.0979 -0.7018
vn -0.2360 -0.9716 -0.0159
vn -0.7181 0.3998 -0.5696
vn -0.7197 0.5602 -0.4101
vn -0.7748 0.5962 -0.2104
vn -0.6936 0.2927 0.6582
vn -0.6963 0.1412 0.7037
vn -0.6226 -0.5803 0.5250
vn -0.6564 -0.4598 0.5981
vn -0.8125 -0.2460 0.5285
vn -0.7964 -0.1737 -0.5792
vn -0.8043 -0.1537 -0.5739
vn -0.7110 0.0915 -0.6972
vn -0.7355 -0.2380 -0.6344
vn -0.8542 0.4259 -0.2982
vn -0.3100 -0.9502 -0.0304
vn -0.7811 0.5757 -0.2419
vn -0.8707 0.4913 0.0220
vn -0.8091 0.1040 -0.5784
vn -0.8088 0.1044 -0.5787
vn -0.8019 0.0495 -0.5954
vn -0.8243 -0.2225 0.5207
vn -0.8571 0.4988 0.1287
vn -0.8457 0.4647 0.2626
vn -0.6324 -0.6961 0.3398
vn -0.7066 0.0902 -0.7019
vn -0.9579 0.1600 -0.2384
vn -0.9413 -0.1068 -0.3202
vn -0.8292 -0.4671 -0.3070
vn -0.9478 0.2443 -0.2050
vn -0.9557 0.2943 -0.0013
vn -0.9696 0.1827 -0.1629
vn -0.9289 0.3683 -0.0388
vn -0.9858 -0.1666 -0.0218
vn -0.9967 -0.0357 0.0728
vn -0.9917 -0.1101 0.0658
vn -0.8971 0.3441 0.2770
vn -0.8839 0.0665 0.4629
vn -0.8884 0.4551 0.0600
vn -0.6854 -0.7172 0.1257
vn -0.9670 0.2504 0.0480
vn -0.9915 0.1194 -0.0517
vn -0.9110 0.3074 0.2750
vn -0.7906 0.2881 0.5403
vn -0.6346 -0.6948 0.3385
vn -0.9094 0.2300 0.3466
vn -0.9540 -0.0337 0.2977
vn -0.9405 0.0234 0.3389
vn -0.9474 -0.1263 0.2942
vn -0.7947 -0.0789 0.6019
vn -0.8144 0.1409 -0.5629
vn -0.8957 -0.3604 -0.2604
vn -0.9663 0.0982 -0.2380
vn -0.8816 0.4330 -0.1880
vn -0.8790 0.4591 0.1289
vn -0.8852 0.4209 0.1983
vn -0.8173 -0.5762 0.0053
vn -0.8097 0.3612 0.4626
vn -0.8642 0.2407 0.4417
vn -0.7652 -0.6371 0.0926
vn -0.8080 0.1421 -0.5719
vn -0.8816 0.0390 -0.4704
vn -0.8573 -0.3843 -0.3424
vn -0.8790 -0.4531 -0.1483
vn -0.9240 0.2962 -0.2421
vn -0.8162 -0.5774 -0.0210
vn -0.8883 0.2041 0.4113
vn -0.8512 -0.3815 0.3604
vn -0.9691 0.0018 -0.2468
vn -0.9799 -0.1621 -0.1162
vn -0.9581 0.2342 -0.1648
vn -0.9702 0.1898 0.1506
vn -0.9791 0.1738 0.1057
vn -0.9895 -0.1442 0.0101
vn -0.9399 -0.3158 0.1301
vn -0.9149 0.1793 0.3618
vn -0.9376 -0.3095 0.1586
vt 0.174485 0.376216
vt 0.176625 0.358532
vt 0.186684 0.369722
vt 0.184033 0.361794
vt 0.162315 0.366037
vt 0.166136 0.359370
vt 0.164695 0.372994
vt 0.181622 0.376216
vt 0.943803 0.302567
vt 0.937118 0.283629
vt 0.933311 0.296198
vt 0.934275 0.274641
vt 0.924620 0.268780
vt 0.924208 0.280435
vt 0.910296 0.301541
vt 0.911910 0.290223
vt 0.913645 0.270814
vt 0.894739 0.278624
vt 0.894603 0.292403
vt 0.896437 0.267941
vt 0.885028 0.300830
vt 0.887455 0.272931
vt 0.883770 0.284787
vt 0.689246 0.868913
vt 0.710491 0.871189
vt 0.710838 0.878671
vt 0.692608 0.863402
vt 0.683421 0.861627
vt 0.880528 0.303714
vt 0.885846 0.264615
vt 0.876747 0.274716
vt 0.872815 0.289917
vt 0.873279 0.299820
vt 0.625800 0.850508
vt 0.627207 0.844127
vt 0.631696 0.852113
vt 0.687538 0.874694
vt 0.678188 0.870184
vt 0.672440 0.865586
vt 0.934962 0.262872
vt 0.924084 0.259040
vt 0.913381 0.253308
vt 0.905498 0.257118
vt 0.898009 0.257796
vt 0.625413 0.779259
vt 0.623360 0.771096
vt 0.629584 0.768405
vt 0.866515 0.300934
vt 0.285296 0.871753
vt 0.281549 0.859224
vt 0.293144 0.871345
vt 0.627329 0.765083
vt 0.711413 0.888744
vt 0.701521 0.887983
vt 0.886723 0.253150
vt 0.876770 0.259248
vt 0.282582 0.843214
vt 0.292782 0.842406
vt 0.685392 0.882994
vt 0.677094 0.879661
vt 0.670300 0.875849
vt 0.942804 0.256174
vt 0.926106 0.247428
vt 0.906389 0.246263
vt 0.868488 0.268639
vt 0.636606 0.759689
vt 0.295216 0.876089
vt 0.932913 0.240692
vt 0.922996 0.238643
vt 0.916011 0.241618
vt 0.897460 0.244426
vt 0.714970 0.883387
vt 0.713779 0.899808
vt 0.875379 0.248155
vt 0.302855 0.843613
vt 0.304105 0.873756
vt 0.668579 0.885427
vt 0.652393 0.877069
vt 0.907772 0.237287
vt 0.894516 0.237093
vt 0.292258 0.829621
vt 0.301992 0.824335
vt 0.302685 0.832912
vt 0.313761 0.877542
vt 0.915645 0.229041
vt 0.656102 0.888580
vt 0.648241 0.883876
vt 0.642274 0.879161
vt 0.927500 0.230761
vt 0.907371 0.229347
vt 0.896609 0.231018
vt 0.885681 0.234482
vt 0.311226 0.827393
vt 0.314943 0.872474
vt 0.675999 0.888409
vt 0.671025 0.896347
vt 0.876671 0.237979
vt 0.310553 0.818643
vt 0.312396 0.842852
vt 0.669221 0.900789
vt 0.315403 0.827869
vt 0.644862 0.888421
vt 0.937687 0.228436
vt 0.925149 0.223510
vt 0.911756 0.221629
vt 0.896386 0.225068
vt 0.881850 0.227653
vt 0.874297 0.232161
vt 0.653498 0.901275
vt 0.938280 0.213678
vt 0.899432 0.215625
vt 0.866737 0.240556
vt 0.325383 0.845049
vt 0.325143 0.875583
vt 0.642609 0.901291
vt 0.925783 0.212132
vt 0.913937 0.212891
vt 0.885568 0.217813
vt 0.873456 0.215999
vt 0.863425 0.230587
vt 0.323218 0.821543
vt 0.323419 0.828830
vt 0.323606 0.836443
vt 0.656294 0.912249
vt 0.632675 0.895987
vt 0.863284 0.223159
vt 0.334601 0.859922
vt 0.897735 0.206947
vt 0.334682 0.826452
vt 0.668710 0.909688
vt 0.675757 0.914228
vt 0.683492 0.913175
vt 0.909860 0.201243
vt 0.884791 0.204490
vt 0.862534 0.210390
vt 0.331515 0.840265
vt 0.327988 0.816438
vt 0.664476 0.919962
vt 0.675074 0.922553
vt 0.685487 0.919565
vt 0.627739 0.913714
vt 0.624841 0.908887
vt 0.894141 0.194324
vt 0.874154 0.201405
vt 0.342835 0.816014
vt 0.339372 0.870264
vt 0.657660 0.924129
vt 0.668453 0.928772
vt 0.677867 0.929629
vt 0.649335 0.916263
vt 0.943864 0.199476
vt 0.932724 0.194203
vt 0.886622 0.191048
vt 0.337641 0.809214
vt 0.339694 0.849134
vt 0.340012 0.835956
vt 0.340973 0.874636
vt 0.690716 0.928563
vt 0.646958 0.926092
vt 0.641626 0.920388
vt 0.993473 0.064238
vt 0.989991 0.065298
vt 0.990451 0.072060
vt 0.342666 0.826451
vt 0.909782 0.191073
vt 0.859443 0.197665
vt 0.349192 0.805244
vt 0.348100 0.860467
vt 0.344184 0.840009
vt 0.346047 0.832045
vt 0.349461 0.850763
vt 0.350107 0.817466
vt 0.917844 0.898297
vt 0.926458 0.881963
vt 0.911897 0.883604
vt 0.635817 0.928942
vt 0.614883 0.919096
vt 0.943803 0.185280
vt 0.935665 0.185272
vt 0.925876 0.184924
vt 0.993473 0.055904
vt 0.990097 0.054377
vt 0.894958 0.183987
vt 0.873336 0.189919
vt 0.350140 0.870220
vt 0.351672 0.828083
vt 0.350124 0.838226
vt 0.651917 0.937201
vt 0.635396 0.939926
vt 0.628775 0.920627
vt 0.616711 0.933057
vt 0.950006 0.599912
vt 0.957990 0.601384
vt 0.949956 0.603448
vt 0.968655 0.600171
vt 0.969104 0.603448
vt 0.481447 0.849295
vt 0.481899 0.860795
vt 0.471299 0.852217
vt 0.466928 0.864489
vt 0.859983 0.182582
vt 0.358435 0.873283
vt 0.356872 0.849991
vt 0.904532 0.889981
vt 0.908597 0.903971
vt 0.625266 0.936234
vt 0.501348 0.826731
vt 0.511378 0.833449
vt 0.503912 0.845279
vt 0.477327 0.870475
vt 0.469916 0.878976
vt 0.361351 0.798457
vt 0.359813 0.858358
vt 0.358777 0.876348
vt 0.358354 0.815969
vt 0.356644 0.828813
vt 0.358097 0.836524
vt 0.514736 0.815650
vt 0.520530 0.832177
vt 0.508299 0.820172
vt 0.496828 0.859799
vt 0.527944 0.817623
vt 0.527570 0.827209
vt 0.501839 0.855850
vt 0.484662 0.863035
vt 0.366733 0.808505
vt 0.365614 0.847122
vt 0.367599 0.856178
vt 0.364950 0.874021
vt 0.370418 0.827878
vt 0.368647 0.835519
vt 0.917288 0.938797
vt 0.910349 0.946136
vt 0.916729 0.950110
vt 0.472909 0.878449
vt 0.363207 0.796198
vt 0.902939 0.941328
vt 0.371138 0.877542
vt 0.616879 0.943855
vt 0.537304 0.821393
vt 0.515556 0.840847
vt 0.494501 0.869349
vt 0.479300 0.885191
vt 0.372429 0.796248
vt 0.374100 0.846881
vt 0.373049 0.820200
vt 0.374768 0.871004
vt 0.527942 0.836962
vt 0.487466 0.876685
vt 0.378104 0.806857
vt 0.379118 0.861317
vt 0.375769 0.831788
vt 0.536405 0.832978
vt 0.516161 0.856944
vt 0.380798 0.850122
vt 0.379125 0.876711
vt 0.521741 0.849777
vt 0.509427 0.864863
vt 0.496394 0.875778
vt 0.489579 0.882327
vt 0.485750 0.890931
vt 0.480111 0.897287
vt 0.377454 0.822189
vt 0.385177 0.860199
vt 0.384819 0.819529
vt 0.383884 0.872587
vt 0.534479 0.841440
vt 0.524330 0.852618
vt 0.513575 0.866062
vt 0.499046 0.878995
vt 0.486872 0.898403
vt 0.384752 0.807079
vt 0.881885 0.893551
vt 0.871369 0.905014
vt 0.890272 0.900581
vt 0.545279 0.835359
vt 0.510105 0.875320
vt 0.494891 0.888310
vt 0.391166 0.826542
vt 0.391534 0.837816
vt 0.382861 0.841711
vt 0.393996 0.851161
vt 0.394106 0.855382
vt 0.534403 0.853437
vt 0.494381 0.894671
vt 0.391152 0.866576
vt 0.397031 0.875750
vt 0.884588 0.920704
vt 0.876217 0.923961
vt 0.883502 0.933249
vt 0.400375 0.828460
vt 0.407100 0.836213
vt 0.718525 0.758903
vt 0.734062 0.768593
vt 0.733669 0.772157
vt 0.528601 0.869581
vt 0.405212 0.803869
vt 0.415392 0.812305
vt 0.398418 0.816118
vt 0.397259 0.864009
vt 0.564572 0.848808
vt 0.545426 0.853530
vt 0.554653 0.843519
vt 0.537514 0.867940
vt 0.524210 0.875500
vt 0.413384 0.825328
vt 0.404771 0.868003
vt 0.402143 0.855562
vt 0.564662 0.859570
vt 0.550035 0.866472
vt 0.406497 0.857789
vt 0.523648 0.884622
vt 0.508546 0.884141
vt 0.423098 0.807961
vt 0.409687 0.875278
vt 0.576698 0.853605
vt 0.535255 0.875972
vt 0.528065 0.891207
vt 0.407156 0.796876
vt 0.427414 0.803250
vt 0.413141 0.845640
vt 0.531108 0.881535
vt 0.417031 0.835634
vt 0.484275 0.051708
vt 0.477221 0.044588
vt 0.486075 0.041394
vt 0.570675 0.865163
vt 0.426822 0.819385
vt 0.474193 0.037125
vt 0.556229 0.876981
vt 0.537891 0.887639
vt 0.431964 0.815619
vt 0.467369 0.069478
vt 0.461847 0.059760
vt 0.474811 0.061738
vt 0.535634 0.895228
vt 0.444730 0.081069
vt 0.439039 0.073242
vt 0.450279 0.079038
vt 0.444455 0.070445
vt 0.459841 0.067928
vt 0.464038 0.045624
vt 0.460233 0.039336
vt 0.464975 0.053432
vt 0.441105 0.085926
vt 0.845689 0.921320
vt 0.835710 0.912973
vt 0.842463 0.925098
vt 0.585263 0.883641
vt 0.592967 0.894214
vt 0.578688 0.886400
vt 0.453815 0.034748
vt 0.466002 0.032383
vt 0.449316 0.028464
vt 0.457651 0.027884
vt 0.622789 0.843516
vt 0.621845 0.809320
vt 0.625414 0.824505
vt 0.630153 0.803866
vt 0.645806 0.856813
vt 0.642266 0.838242
vt 0.643800 0.812569
vt 0.640646 0.760139
vt 0.647623 0.790291
vt 0.646371 0.859406
vt 0.710043 0.900680
vt 0.685249 0.892063
vt 0.654060 0.755097
vt 0.661411 0.833354
vt 0.712179 0.911353
vt 0.696548 0.908193
vt 0.709415 0.910463
vt 0.678938 0.899773
vt 0.663043 0.808881
vt 0.661384 0.765877
vt 0.657896 0.860743
vt 0.667130 0.758246
vt 0.665876 0.788840
vt 0.678112 0.857143
vt 0.706084 0.930051
vt 0.644496 0.908768
vt 0.708210 0.931527
vt 0.697866 0.924992
vt 0.682094 0.847243
vt 0.665290 0.754686
vt 0.674502 0.808800
vt 0.675100 0.797428
vt 0.675783 0.815835
vt 0.680526 0.762369
vt 0.680720 0.759134
vt 0.673964 0.934396
vt 0.681217 0.819665
vt 0.162971 0.374282
vt 0.657104 0.932020
vt 0.665037 0.935838
vt 0.685692 0.939574
vt 0.691874 0.939706
vt 0.682550 0.795914
vt 0.689575 0.791078
vt 0.662084 0.940712
vt 0.674713 0.941042
vt 0.702029 0.943855
vt 0.688855 0.799739
vt 0.690983 0.797577
vt 0.919348 0.933281
vt 0.926458 0.937766
vt 0.925620 0.927390
vt 0.917768 0.925750
vt 0.923987 0.914987
vt 0.920668 0.904121
vt 0.910772 0.912769
vt 0.698356 0.754642
vt 0.918233 0.918858
vt 0.691168 0.815981
vt 0.698524 0.814129
vt 0.900607 0.885790
vt 0.722548 0.853671
vt 0.713751 0.779460
vt 0.904797 0.910900
vt 0.702653 0.860130
vt 0.691433 0.860743
vt 0.911473 0.932423
vt 0.909148 0.926095
vt 0.715991 0.798325
vt 0.710724 0.756564
vt 0.900629 0.921711
vt 0.896182 0.890393
vt 0.906973 0.964191
vt 0.916193 0.960166
vt 0.897085 0.931540
vt 0.894574 0.910074
vt 0.904500 0.954635
vt 0.887279 0.913317
vt 0.899491 0.959738
vt 0.726882 0.829839
vt 0.880017 0.890912
vt 0.894765 0.952802
vt 0.889143 0.938823
vt 0.545364 0.825708
vt 0.729590 0.804107
vt 0.885352 0.946660
vt 0.741424 0.843420
vt 0.728982 0.788954
vt 0.891371 0.963635
vt 0.875787 0.944455
vt 0.882008 0.956510
vt 0.390458 0.812238
vt 0.493644 0.902255
vt 0.858935 0.895875
vt 0.872525 0.937353
vt 0.502479 0.903183
vt 0.860467 0.899619
vt 0.868590 0.917560
vt 0.569330 0.842795
vt 0.747783 0.838737
vt 0.507236 0.890891
vt 0.864851 0.928465
vt 0.856880 0.914948
vt 0.757747 0.807625
vt 0.863939 0.942899
vt 0.754439 0.793161
vt 0.746673 0.780324
vt 0.859300 0.937017
vt 0.852800 0.904576
vt 0.542252 0.872784
vt 0.856508 0.929144
vt 0.746387 0.772747
vt 0.851265 0.897746
vt 0.549533 0.876525
vt 0.456851 0.089744
vt 0.465188 0.080213
vt 0.584045 0.857062
vt 0.579256 0.869321
vt 0.846720 0.936709
vt 0.481471 0.033818
vt 0.848386 0.942144
vt 0.839754 0.906817
vt 0.753763 0.832063
vt 0.546171 0.883756
vt 0.433856 0.809365
vt 0.758693 0.782553
vt 0.842808 0.900813
vt 0.568455 0.878120
vt 0.758097 0.821554
vt 0.563881 0.889708
vt 0.556163 0.889783
vt 0.439303 0.064668
vt 0.449044 0.065778
vt 0.584828 0.871957
vt 0.836680 0.933817
vt 0.831751 0.903328
vt 0.546956 0.892771
vt 0.431268 0.071792
vt 0.431053 0.064679
vt 0.435365 0.079798
vt 0.434475 0.089744
vt 0.761097 0.791794
vt 0.453001 0.058057
vt 0.451731 0.049652
vt 0.577506 0.898640
vt 0.434675 0.050361
vt 0.440563 0.049625
vt 0.440059 0.028864
vt 0.445190 0.017371
vt 0.828269 0.925931
vt 0.828111 0.916240
vt 0.430374 0.026310
vt 0.431882 0.012821
vt 0.592488 0.903183
vt 0.603568 0.896596
vt 0.435993 0.036483
vt 0.445037 0.035618
s 0
f 305/1/1 306/2/1 307/3/1
f 308/4/2 307/3/2 306/2/2
f 312/5/3 309/6/3 310/7/3
f 306/2/4 305/1/4 309/6/4
f 305/1/5 310/7/5 309/6/5
f 311/8/6 305/1/6 307/3/6
f 235/9/7 228/10/7 231/11/7
f 216/12/8 208/13/8 224/14/8
f 216/12/9 224/14/9 228/10/9
f 228/10/10 224/14/10 231/11/10
f 231/11/11 238/15/11 235/9/11
f 224/14/12 230/16/12 231/11/12
f 208/13/13 212/17/13 224/14/13
f 224/14/14 212/17/14 222/18/14
f 224/14/15 222/18/15 230/16/15
f 230/16/16 233/19/16 238/15/16
f 205/20/17 222/18/17 212/17/17
f 233/19/18 237/21/18 238/15/18
f 222/18/19 233/19/19 230/16/19
f 205/20/20 213/22/20 222/18/20
f 222/18/21 227/23/21 233/19/21
f 222/18/22 213/22/22 227/23/22
f 233/19/23 227/23/23 237/21/23
f 413/24/24 416/25/24 404/26/24
f 413/24/25 418/27/25 416/25/25
f 413/24/26 417/28/26 418/27/26
f 208/13/27 205/20/27 212/17/27
f 237/21/28 239/29/28 238/15/28
f 205/20/29 198/30/29 213/22/29
f 213/22/30 218/31/30 227/23/30
f 227/23/31 218/31/31 229/32/31
f 227/23/32 229/32/32 232/33/32
f 227/23/33 232/33/33 237/21/33
f 237/21/34 232/33/34 239/29/34
f 60/34/35 48/35/35 44/36/35
f 405/37/36 413/24/36 404/26/36
f 405/37/37 409/38/37 413/24/37
f 409/38/38 417/28/38 413/24/38
f 409/38/39 414/39/39 417/28/39
f 203/40/40 197/41/40 208/13/40
f 197/41/41 190/42/41 208/13/41
f 190/42/42 205/20/42 208/13/42
f 190/42/43 196/43/43 205/20/43
f 196/43/44 194/44/44 205/20/44
f 194/44/45 198/30/45 205/20/45
f 213/22/46 198/30/46 218/31/46
f 45/45/47 62/46/47 40/47/47
f 229/32/48 234/48/48 232/33/48
f 130/49/49 128/50/49 123/51/49
f 62/46/50 61/52/50 40/47/50
f 403/53/51 401/54/51 404/26/51
f 404/26/52 401/54/52 405/37/52
f 194/44/53 195/55/53 198/30/53
f 198/30/54 206/56/54 218/31/54
f 129/57/55 122/58/55 128/50/55
f 122/58/56 123/51/56 128/50/56
f 399/59/57 405/37/57 401/54/57
f 400/60/58 409/38/58 405/37/58
f 400/60/59 405/37/59 399/59/59
f 400/60/60 410/61/60 409/38/60
f 410/61/61 414/39/61 409/38/61
f 203/40/62 211/62/62 192/63/62
f 192/63/63 190/42/63 197/41/63
f 188/64/64 196/43/64 190/42/64
f 188/64/65 194/44/65 196/43/65
f 195/55/66 206/56/66 198/30/66
f 206/56/67 223/65/67 218/31/67
f 40/47/68 61/52/68 53/66/68
f 123/51/69 127/67/69 130/49/69
f 211/62/70 209/68/70 192/63/70
f 192/63/71 191/69/71 187/70/71
f 192/63/72 187/70/72 190/42/72
f 188/64/73 189/71/73 194/44/73
f 189/71/74 195/55/74 194/44/74
f 403/53/75 415/72/75 408/73/75
f 187/70/76 188/64/76 190/42/76
f 195/55/77 215/74/77 206/56/77
f 122/58/78 114/75/78 123/51/78
f 123/51/79 118/76/79 127/67/79
f 410/61/80 407/77/80 389/78/80
f 192/63/81 209/68/81 191/69/81
f 187/70/82 186/79/82 188/64/82
f 188/64/83 186/79/83 189/71/83
f 189/71/84 193/80/84 195/55/84
f 193/80/85 215/74/85 195/55/85
f 124/81/86 120/82/86 115/83/86
f 124/81/87 115/83/87 122/58/87
f 115/83/88 114/75/88 122/58/88
f 123/51/89 114/75/89 118/76/89
f 118/76/90 119/84/90 127/67/90
f 187/70/91 191/69/91 184/85/91
f 187/70/92 184/85/92 186/79/92
f 186/79/93 193/80/93 189/71/93
f 371/86/94 373/87/94 389/78/94
f 407/77/95 371/86/95 389/78/95
f 389/78/96 373/87/96 376/88/96
f 209/68/97 204/89/97 191/69/97
f 186/79/98 184/85/98 185/90/98
f 185/90/99 193/80/99 186/79/99
f 201/91/100 207/92/100 193/80/100
f 193/80/101 207/92/101 215/74/101
f 116/93/102 115/83/102 120/82/102
f 114/75/103 113/94/103 118/76/103
f 398/95/104 412/96/104 407/77/104
f 204/89/105 184/85/105 191/69/105
f 185/90/106 201/91/106 193/80/106
f 207/92/107 217/97/107 215/74/107
f 120/82/108 125/98/108 116/93/108
f 115/83/109 116/93/109 111/99/109
f 115/83/110 111/99/110 114/75/110
f 114/75/111 111/99/111 113/94/111
f 118/76/112 113/94/112 119/84/112
f 412/96/113 372/100/113 371/86/113
f 125/98/114 117/101/114 116/93/114
f 370/102/115 373/87/115 371/86/115
f 202/103/116 164/104/116 204/89/116
f 370/102/117 376/88/117 373/87/117
f 164/104/118 184/85/118 204/89/118
f 163/105/119 185/90/119 184/85/119
f 185/90/120 181/106/120 201/91/120
f 201/91/121 181/106/121 207/92/121
f 181/106/122 199/107/122 207/92/122
f 207/92/123 199/107/123 217/97/123
f 199/107/124 214/108/124 217/97/124
f 368/109/125 371/86/125 372/100/125
f 202/103/126 167/110/126 164/104/126
f 164/104/127 163/105/127 184/85/127
f 163/105/128 181/106/128 185/90/128
f 163/105/129 173/111/129 181/106/129
f 217/97/130 214/108/130 236/112/130
f 116/93/131 117/101/131 112/113/131
f 111/99/132 110/114/132 113/94/132
f 368/109/133 369/115/133 370/102/133
f 163/105/134 164/104/134 165/116/134
f 165/116/135 166/117/135 163/105/135
f 173/111/136 180/118/136 181/106/136
f 181/106/137 180/118/137 199/107/137
f 199/107/138 183/119/138 214/108/138
f 214/108/139 225/120/139 236/112/139
f 157/121/140 160/122/140 117/101/140
f 160/122/141 126/123/141 117/101/141
f 362/124/142 368/109/142 372/100/142
f 369/115/143 379/125/143 370/102/143
f 167/110/144 165/116/144 164/104/144
f 166/117/145 173/111/145 163/105/145
f 183/119/146 220/126/146 214/108/146
f 117/101/147 126/123/147 112/113/147
f 214/108/148 220/126/148 225/120/148
f 109/127/149 110/114/149 111/99/149
f 113/94/150 110/114/150 119/84/150
f 172/128/151 180/118/151 173/111/151
f 183/119/152 199/107/152 180/118/152
f 157/121/153 156/129/153 160/122/153
f 112/113/154 109/127/154 111/99/154
f 362/124/155 363/130/155 360/131/155
f 363/130/156 364/132/156 360/131/156
f 165/116/157 169/133/157 166/117/157
f 166/117/158 169/133/158 173/111/158
f 180/118/159 179/134/159 183/119/159
f 183/119/160 219/135/160 220/126/160
f 156/129/161 161/136/161 126/123/161
f 155/137/162 156/129/162 157/121/162
f 359/138/163 360/131/163 353/139/163
f 353/139/164 360/131/164 354/140/164
f 359/138/165 362/124/165 360/131/165
f 380/141/166 379/125/166 369/115/166
f 380/141/167 385/142/167 379/125/167
f 169/133/168 172/128/168 173/111/168
f 172/128/169 171/143/169 180/118/169
f 180/118/170 171/143/170 179/134/170
f 179/134/171 182/144/171 183/119/171
f 155/137/172 148/145/172 156/129/172
f 109/127/173 107/146/173 110/114/173
f 361/147/174 359/138/174 357/148/174
f 357/148/175 359/138/175 353/139/175
f 353/139/176 354/140/176 355/149/176
f 361/147/177 365/150/177 362/124/177
f 167/110/178 178/151/178 168/152/178
f 167/110/179 168/152/179 165/116/179
f 169/133/180 171/143/180 172/128/180
f 179/134/181 176/153/181 182/144/181
f 182/144/182 219/135/182 183/119/182
f 155/137/183 153/154/183 148/145/183
f 161/136/184 106/155/184 126/123/184
f 126/123/185 106/155/185 112/113/185
f 156/129/186 152/156/186 161/136/186
f 107/146/187 121/157/187 110/114/187
f 355/149/188 354/140/188 356/158/188
f 361/147/189 378/159/189 377/160/189
f 361/147/190 377/160/190 365/150/190
f 165/116/191 168/152/191 169/133/191
f 508/161/192 510/162/192 512/163/192
f 112/113/193 106/155/193 109/127/193
f 148/145/194 146/164/194 156/129/194
f 156/129/195 146/164/195 152/156/195
f 169/133/196 168/152/196 170/165/196
f 169/133/197 170/165/197 171/143/197
f 171/143/198 176/153/198 179/134/198
f 182/144/199 221/166/199 219/135/199
f 153/154/200 145/167/200 148/145/200
f 106/155/201 91/168/201 109/127/201
f 152/156/202 149/169/202 106/155/202
f 146/164/203 143/170/203 152/156/203
f 143/170/204 149/169/204 152/156/204
f 106/155/205 97/171/205 91/168/205
f 109/127/206 91/168/206 107/146/206
f 146/164/207 148/145/207 136/172/207
f 252/173/208 254/174/208 253/175/208
f 378/159/209 384/176/209 377/160/209
f 380/141/210 394/177/210 385/142/210
f 178/151/211 210/178/211 168/152/211
f 168/152/212 210/178/212 177/179/212
f 168/152/213 177/179/213 174/180/213
f 508/161/214 511/181/214 509/182/214
f 508/161/215 509/182/215 510/162/215
f 170/165/216 175/183/216 171/143/216
f 171/143/217 175/183/217 176/153/217
f 176/153/218 200/184/218 182/144/218
f 182/144/219 200/184/219 221/166/219
f 145/167/220 136/172/220 148/145/220
f 91/168/221 98/185/221 107/146/221
f 107/146/222 98/185/222 121/157/222
f 149/169/223 97/171/223 106/155/223
f 136/172/224 133/186/224 146/164/224
f 146/164/225 133/186/225 143/170/225
f 149/169/226 131/187/226 97/171/226
f 133/186/227 131/187/227 143/170/227
f 143/170/228 131/187/228 149/169/228
f 174/180/229 170/165/229 168/152/229
f 170/165/230 174/180/230 175/183/230
f 383/188/231 391/189/231 384/176/231
f 381/190/232 392/191/232 380/141/232
f 380/141/233 392/191/233 394/177/233
f 506/192/234 503/193/234 505/194/234
f 503/193/235 507/195/235 504/196/235
f 503/193/236 504/196/236 505/194/236
f 463/197/237 465/198/237 469/199/237
f 469/199/238 465/198/238 470/200/238
f 200/184/239 226/201/239 221/166/239
f 98/185/240 89/202/240 121/157/240
f 131/187/241 90/203/241 97/171/241
f 248/204/242 247/205/242 252/173/242
f 390/206/243 392/191/243 381/190/243
f 461/207/244 460/208/244 458/209/244
f 465/198/245 468/210/245 470/200/245
f 468/210/246 472/211/246 470/200/246
f 145/167/247 137/212/247 136/172/247
f 87/213/248 89/202/248 91/168/248
f 91/168/249 89/202/249 98/185/249
f 90/203/250 87/213/250 91/168/250
f 97/171/251 90/203/251 91/168/251
f 89/202/252 108/214/252 121/157/252
f 135/215/253 134/216/253 133/186/253
f 136/172/254 135/215/254 133/186/254
f 132/217/255 90/203/255 131/187/255
f 466/218/256 453/219/256 462/220/256
f 462/220/257 453/219/257 460/208/257
f 462/220/258 460/208/258 461/207/258
f 461/207/259 458/209/259 463/197/259
f 463/197/260 464/221/260 465/198/260
f 137/212/261 135/215/261 136/172/261
f 471/222/262 454/223/262 466/218/262
f 458/209/263 459/224/263 463/197/263
f 465/198/264 467/225/264 468/210/264
f 137/212/265 140/226/265 135/215/265
f 92/227/266 85/228/266 90/203/266
f 90/203/267 85/228/267 87/213/267
f 89/202/268 88/229/268 108/214/268
f 135/215/269 138/230/269 134/216/269
f 134/216/270 144/231/270 132/217/270
f 282/232/271 277/233/271 279/234/271
f 459/224/272 464/221/272 463/197/272
f 464/221/273 467/225/273 465/198/273
f 468/210/274 473/235/274 472/211/274
f 137/212/275 150/236/275 140/226/275
f 134/216/276 138/230/276 144/231/276
f 282/232/277 274/237/277 277/233/277
f 132/217/278 144/231/278 92/227/278
f 89/202/279 87/213/279 88/229/279
f 88/229/280 99/238/280 108/214/280
f 390/206/281 393/239/281 392/191/281
f 471/222/282 491/240/282 454/223/282
f 460/208/283 452/241/283 458/209/283
f 467/225/284 464/221/284 426/242/284
f 468/210/285 438/243/285 473/235/285
f 150/236/286 142/244/286 140/226/286
f 92/227/287 83/245/287 85/228/287
f 140/226/288 139/246/288 135/215/288
f 144/231/289 83/245/289 92/227/289
f 87/213/290 85/228/290 86/247/290
f 86/247/291 88/229/291 87/213/291
f 139/246/292 138/230/292 135/215/292
f 454/223/293 448/248/293 453/219/293
f 426/242/294 428/249/294 467/225/294
f 467/225/295 428/249/295 468/210/295
f 428/249/296 438/243/296 468/210/296
f 142/244/297 141/250/297 140/226/297
f 83/245/298 84/251/298 85/228/298
f 144/231/299 154/252/299 83/245/299
f 491/240/300 451/253/300 454/223/300
f 453/219/301 448/248/301 452/241/301
f 452/241/302 449/254/302 458/209/302
f 458/209/303 449/254/303 459/224/303
f 69/255/304 84/251/304 83/245/304
f 84/251/305 86/247/305 85/228/305
f 140/226/306 141/250/306 139/246/306
f 138/230/307 154/252/307 144/231/307
f 86/247/308 96/256/308 88/229/308
f 88/229/309 96/256/309 99/238/309
f 454/223/310 451/253/310 448/248/310
f 448/248/311 445/257/311 452/241/311
f 445/257/312 449/254/312 452/241/312
f 449/254/313 425/258/313 459/224/313
f 459/224/314 425/258/314 464/221/314
f 425/258/315 426/242/315 464/221/315
f 426/242/316 424/259/316 428/249/316
f 428/249/317 424/259/317 427/260/317
f 428/249/318 427/260/318 438/243/318
f 427/260/319 436/261/319 438/243/319
f 438/243/320 436/261/320 441/262/320
f 139/246/321 147/263/321 138/230/321
f 138/230/322 147/263/322 154/252/322
f 69/255/323 94/264/323 84/251/323
f 147/263/324 158/265/324 154/252/324
f 141/250/325 147/263/325 139/246/325
f 86/247/326 93/266/326 96/256/326
f 451/253/327 446/267/327 448/248/327
f 445/257/328 447/268/328 449/254/328
f 449/254/329 457/269/329 425/258/329
f 425/258/330 424/259/330 426/242/330
f 424/259/331 423/270/331 427/260/331
f 436/261/332 440/271/332 441/262/332
f 141/250/333 151/272/333 147/263/333
f 147/263/334 151/272/334 158/265/334
f 84/251/335 93/266/335 86/247/335
f 250/273/336 255/274/336 245/275/336
f 451/253/337 489/276/337 446/267/337
f 448/248/338 446/267/338 445/257/338
f 445/257/339 446/267/339 447/268/339
f 425/258/340 422/277/340 424/259/340
f 422/277/341 423/270/341 424/259/341
f 423/270/342 429/278/342 427/260/342
f 64/279/343 65/280/343 66/281/343
f 66/281/344 65/280/344 67/282/344
f 66/281/345 67/282/345 68/283/345
f 66/281/346 68/283/346 69/255/346
f 69/255/347 68/283/347 94/264/347
f 94/264/348 93/266/348 84/251/348
f 446/267/349 450/284/349 447/268/349
f 429/278/350 439/285/350 436/261/350
f 68/283/351 95/286/351 94/264/351
f 94/264/352 95/286/352 93/266/352
f 95/286/353 100/287/353 93/266/353
f 93/266/354 100/287/354 96/256/354
f 240/288/355 264/289/355 271/290/355
f 425/258/356 457/269/356 422/277/356
f 64/279/357 71/291/357 65/280/357
f 65/280/358 70/292/358 67/282/358
f 51/293/359 54/294/359 36/295/359
f 447/268/360 455/296/360 449/254/360
f 79/297/361 78/298/361 73/299/361
f 73/299/362 71/291/362 64/279/362
f 68/283/363 102/300/363 95/286/363
f 481/301/364 478/302/364 484/303/364
f 450/284/365 476/304/365 447/268/365
f 449/254/366 455/296/366 432/305/366
f 449/254/367 432/305/367 457/269/367
f 457/269/368 432/305/368 422/277/368
f 73/299/369 75/306/369 71/291/369
f 71/291/370 70/292/370 65/280/370
f 102/300/371 103/307/371 95/286/371
f 95/286/372 103/307/372 100/287/372
f 67/282/373 72/308/373 68/283/373
f 481/301/374 480/309/374 478/302/374
f 480/309/375 479/310/375 478/302/375
f 447/268/376 476/304/376 455/296/376
f 73/299/377 78/298/377 75/306/377
f 71/291/378 75/306/378 70/292/378
f 70/292/379 72/308/379 67/282/379
f 72/308/380 77/311/380 102/300/380
f 432/305/381 431/312/381 422/277/381
f 422/277/382 431/312/382 430/313/382
f 79/297/383 80/314/383 78/298/383
f 103/307/384 159/315/384 100/287/384
f 482/316/385 480/309/385 481/301/385
f 476/304/386 456/317/386 455/296/386
f 455/296/387 456/317/387 432/305/387
f 431/312/388 434/318/388 430/313/388
f 81/319/389 82/320/389 80/314/389
f 81/319/390 80/314/390 79/297/390
f 70/292/391 74/321/391 72/308/391
f 456/317/392 433/322/392 432/305/392
f 432/305/393 433/322/393 431/312/393
f 75/306/394 76/323/394 70/292/394
f 328/324/395 323/325/395 330/326/395
f 74/321/396 77/311/396 72/308/396
f 480/309/397 483/327/397 479/310/397
f 78/298/398 80/314/398 101/328/398
f 70/292/399 76/323/399 74/321/399
f 323/325/400 324/329/400 330/326/400
f 483/327/401 486/330/401 479/310/401
f 456/317/402 435/331/402 433/322/402
f 433/322/403 435/331/403 434/318/403
f 433/322/404 434/318/404 431/312/404
f 80/314/405 104/332/405 101/328/405
f 346/333/406 343/334/406 329/335/406
f 434/318/407 435/331/407 437/336/407
f 352/337/408 348/338/408 344/339/408
f 344/339/409 348/338/409 341/340/409
f 342/341/410 343/334/410 346/333/410
f 322/342/411 319/343/411 323/325/411
f 323/325/412 319/343/412 324/329/412
f 329/335/413 343/334/413 327/344/413
f 352/337/414 350/345/414 348/338/414
f 262/346/415 292/347/415 293/348/415
f 498/349/416 497/350/416 495/351/416
f 319/343/417 318/352/417 325/353/417
f 318/352/418 333/354/418 331/355/418
f 231/11/419 230/16/419 238/15/419
f 55/356/420 47/357/420 42/358/420
f 60/34/421 55/356/421 48/35/421
f 48/35/422 55/356/422 42/358/422
f 208/13/423 216/12/423 203/40/423
f 42/358/424 47/357/424 41/359/424
f 41/359/425 47/357/425 45/45/425
f 44/36/426 48/35/426 42/358/426
f 41/359/427 45/45/427 40/47/427
f 404/26/428 415/72/428 403/53/428
f 13/360/429 44/36/429 21/361/429
f 21/361/430 44/36/430 42/358/430
f 192/63/431 197/41/431 203/40/431
f 22/362/432 42/358/432 41/359/432
f 40/47/433 53/66/433 34/363/433
f 21/361/434 42/358/434 22/362/434
f 41/359/435 40/47/435 25/364/435
f 49/365/436 44/36/436 13/360/436
f 407/77/437 410/61/437 400/60/437
f 402/366/438 403/53/438 408/73/438
f 401/54/439 403/53/439 402/366/439
f 397/367/440 399/59/440 401/54/440
f 398/95/441 399/59/441 397/367/441
f 400/60/442 399/59/442 398/95/442
f 407/77/443 400/60/443 398/95/443
f 22/362/444 41/359/444 25/364/444
f 34/363/445 53/66/445 43/368/445
f 401/54/446 402/366/446 397/367/446
f 21/361/447 22/362/447 12/369/447
f 402/366/448 408/73/448 411/370/448
f 395/371/449 402/366/449 406/372/449
f 397/367/450 402/366/450 395/371/450
f 396/373/451 397/367/451 395/371/451
f 398/95/452 397/367/452 396/373/452
f 412/96/453 398/95/453 396/373/453
f 371/86/454 407/77/454 412/96/454
f 25/364/455 40/47/455 34/363/455
f 406/372/456 402/366/456 411/370/456
f 12/369/457 22/362/457 18/374/457
f 18/374/458 22/362/458 25/364/458
f 32/375/459 25/364/459 34/363/459
f 29/376/460 49/365/460 13/360/460
f 372/100/461 412/96/461 396/373/461
f 13/360/462 21/361/462 12/369/462
f 34/363/463 43/368/463 35/377/463
f 364/132/464 396/373/464 395/371/464
f 372/100/465 396/373/465 364/132/465
f 368/109/466 370/102/466 371/86/466
f 18/374/467 25/364/467 24/378/467
f 25/364/468 32/375/468 24/378/468
f 111/99/469 116/93/469 112/113/469
f 32/375/470 34/363/470 35/377/470
f 29/376/471 13/360/471 11/379/471
f 395/371/472 406/372/472 387/380/472
f 362/124/473 372/100/473 363/130/473
f 363/130/474 372/100/474 364/132/474
f 369/115/475 368/109/475 366/381/475
f 406/372/476 411/370/476 387/380/476
f 387/380/477 411/370/477 420/382/477
f 364/132/478 395/371/478 375/383/478
f 11/379/479 13/360/479 5/384/479
f 366/381/480 368/109/480 362/124/480
f 126/123/481 160/122/481 156/129/481
f 35/377/482 43/368/482 56/385/482
f 354/140/483 364/132/483 375/383/483
f 360/131/484 364/132/484 354/140/484
f 365/150/485 366/381/485 362/124/485
f 13/360/486 12/369/486 5/384/486
f 19/386/487 18/374/487 24/378/487
f 26/387/488 24/378/488 32/375/488
f 357/148/489 353/139/489 355/149/489
f 361/147/490 362/124/490 359/138/490
f 375/383/491 395/371/491 387/380/491
f 380/141/492 369/115/492 366/381/492
f 5/384/493 12/369/493 9/388/493
f 9/388/494 12/369/494 18/374/494
f 9/388/495 18/374/495 19/386/495
f 26/387/496 19/386/496 24/378/496
f 354/140/497 375/383/497 356/158/497
f 377/160/498 366/381/498 365/150/498
f 31/389/499 32/375/499 35/377/499
f 35/377/500 56/385/500 39/390/500
f 357/148/501 355/149/501 358/391/501
f 381/190/502 366/381/502 377/160/502
f 380/141/503 366/381/503 381/190/503
f 8/392/504 5/384/504 9/388/504
f 310/7/505 305/1/505 313/393/505
f 26/387/506 32/375/506 31/389/506
f 31/389/507 35/377/507 39/390/507
f 106/155/508 161/136/508 152/156/508
f 367/394/509 357/148/509 374/395/509
f 374/395/510 357/148/510 358/391/510
f 367/394/511 361/147/511 357/148/511
f 378/159/512 361/147/512 367/394/512
f 355/149/513 356/158/513 419/396/513
f 386/397/514 375/383/514 387/380/514
f 312/5/515 310/7/515 313/393/515
f 30/398/516 26/387/516 28/399/516
f 382/400/517 367/394/517 374/395/517
f 358/391/518 355/149/518 388/401/518
f 388/401/519 355/149/519 419/396/519
f 421/402/520 387/380/520 420/382/520
f 356/158/521 375/383/521 386/397/521
f 382/400/522 374/395/522 358/391/522
f 382/400/523 358/391/523 388/401/523
f 383/188/524 367/394/524 382/400/524
f 378/159/525 367/394/525 383/188/525
f 384/176/526 378/159/526 383/188/526
f 419/396/527 356/158/527 386/397/527
f 381/190/528 377/160/528 384/176/528
f 63/403/529 30/398/529 3/404/529
f 31/389/530 28/399/530 26/387/530
f 3/404/531 30/398/531 28/399/531
f 286/405/532 297/406/532 287/407/532
f 285/408/533 287/407/533 288/409/533
f 288/409/534 303/410/534 290/411/534
f 290/411/535 303/410/535 247/205/535
f 247/205/536 303/410/536 252/173/536
f 248/204/537 252/173/537 253/175/537
f 31/389/538 39/390/538 38/412/538
f 286/405/539 287/407/539 285/408/539
f 285/408/540 288/409/540 289/413/540
f 289/413/541 288/409/541 290/411/541
f 282/232/542 297/406/542 286/405/542
f 279/234/543 297/406/543 282/232/543
f 390/206/544 384/176/544 391/189/544
f 381/190/545 384/176/545 390/206/545
f 8/392/546 2/414/546 1/415/546
f 1/415/547 2/414/547 3/404/547
f 133/186/548 132/217/548 131/187/548
f 132/217/549 133/186/549 134/216/549
f 248/204/550 253/175/550 251/416/550
f 10/417/551 11/379/551 5/384/551
f 27/418/552 28/399/552 31/389/552
f 290/411/553 247/205/553 246/419/553
f 17/420/554 50/421/554 11/379/554
f 17/420/555 11/379/555 10/417/555
f 8/392/556 1/415/556 5/384/556
f 92/227/557 90/203/557 132/217/557
f 282/232/558 286/405/558 283/422/558
f 286/405/559 285/408/559 283/422/559
f 283/422/560 285/408/560 284/423/560
f 285/408/561 289/413/561 284/423/561
f 284/423/562 289/413/562 290/411/562
f 453/219/563 466/218/563 454/223/563
f 3/404/564 28/399/564 4/424/564
f 4/424/565 28/399/565 27/418/565
f 31/389/566 38/412/566 37/425/566
f 284/423/567 290/411/567 243/426/567
f 243/426/568 290/411/568 246/419/568
f 249/427/569 248/204/569 251/416/569
f 274/237/570 282/232/570 283/422/570
f 247/205/571 248/204/571 245/275/571
f 245/275/572 248/204/572 249/427/572
f 280/428/573 301/429/573 279/234/573
f 452/241/574 460/208/574 453/219/574
f 283/422/575 284/423/575 241/430/575
f 241/430/576 284/423/576 243/426/576
f 243/426/577 246/419/577 244/431/577
f 244/431/578 246/419/578 247/205/578
f 244/431/579 247/205/579 245/275/579
f 280/428/580 279/234/580 276/432/580
f 1/415/581 3/404/581 4/424/581
f 37/425/582 27/418/582 31/389/582
f 276/432/583 279/234/583 277/233/583
f 276/432/584 277/233/584 274/237/584
f 5/384/585 1/415/585 4/424/585
f 241/430/586 243/426/586 242/433/586
f 242/433/587 243/426/587 244/431/587
f 274/237/588 283/422/588 241/430/588
f 280/428/589 276/432/589 278/434/589
f 10/417/590 5/384/590 7/435/590
f 250/273/591 245/275/591 249/427/591
f 249/427/592 251/416/592 257/436/592
f 242/433/593 244/431/593 245/275/593
f 278/434/594 276/432/594 275/437/594
f 275/437/595 276/432/595 274/237/595
f 272/438/596 274/237/596 241/430/596
f 83/245/597 66/281/597 69/255/597
f 154/252/598 66/281/598 83/245/598
f 250/273/599 249/427/599 257/436/599
f 240/288/600 241/430/600 242/433/600
f 275/437/601 274/237/601 272/438/601
f 272/438/602 241/430/602 271/290/602
f 451/253/603 491/240/603 490/439/603
f 5/384/604 4/424/604 6/440/604
f 154/252/605 64/279/605 66/281/605
f 451/253/606 490/439/606 489/276/606
f 273/441/607 275/437/607 272/438/607
f 16/442/608 10/417/608 7/435/608
f 4/424/609 27/418/609 20/443/609
f 158/265/610 64/279/610 154/252/610
f 242/433/611 245/275/611 255/274/611
f 271/290/612 241/430/612 240/288/612
f 281/444/613 278/434/613 275/437/613
f 273/441/614 272/438/614 271/290/614
f 7/435/615 5/384/615 6/440/615
f 27/418/616 37/425/616 36/295/616
f 427/260/617 429/278/617 436/261/617
f 36/295/618 37/425/618 51/293/618
f 240/288/619 242/433/619 255/274/619
f 270/445/620 273/441/620 271/290/620
f 281/444/621 275/437/621 295/446/621
f 275/437/622 273/441/622 295/446/622
f 446/267/623 489/276/623 478/302/623
f 6/440/624 4/424/624 20/443/624
f 162/447/625 73/299/625 158/265/625
f 73/299/626 64/279/626 158/265/626
f 436/261/627 439/285/627 440/271/627
f 439/285/628 443/448/628 440/271/628
f 151/272/629 162/447/629 158/265/629
f 250/273/630 257/436/630 258/449/630
f 270/445/631 271/290/631 266/450/631
f 266/450/632 271/290/632 264/289/632
f 446/267/633 478/302/633 450/284/633
f 423/270/634 422/277/634 430/313/634
f 20/443/635 27/418/635 36/295/635
f 429/278/636 423/270/636 430/313/636
f 439/285/637 444/451/637 443/448/637
f 250/273/638 258/449/638 256/452/638
f 255/274/639 250/273/639 256/452/639
f 264/289/640 240/288/640 261/453/640
f 240/288/641 255/274/641 261/453/641
f 295/446/642 273/441/642 270/445/642
f 481/301/643 484/303/643 485/454/643
f 16/442/644 7/435/644 15/455/644
f 489/276/645 484/303/645 478/302/645
f 429/278/646 430/313/646 442/456/646
f 429/278/647 442/456/647 439/285/647
f 439/285/648 442/456/648 444/451/648
f 72/308/649 102/300/649 68/283/649
f 265/457/650 266/450/650 264/289/650
f 265/457/651 264/289/651 261/453/651
f 259/458/652 261/453/652 255/274/652
f 259/458/653 255/274/653 256/452/653
f 476/304/654 450/284/654 478/302/654
f 14/459/655 7/435/655 6/440/655
f 14/459/656 6/440/656 20/443/656
f 268/460/657 270/445/657 266/450/657
f 481/301/658 485/454/658 482/316/658
f 476/304/659 478/302/659 479/310/659
f 14/459/660 20/443/660 23/461/660
f 23/461/661 20/443/661 33/462/661
f 103/307/662 102/300/662 77/311/662
f 268/460/663 266/450/663 267/463/663
f 266/450/664 265/457/664 267/463/664
f 265/457/665 261/453/665 259/458/665
f 259/458/666 256/452/666 260/464/666
f 15/455/667 7/435/667 14/459/667
f 475/465/668 476/304/668 479/310/668
f 33/462/669 20/443/669 36/295/669
f 33/462/670 36/295/670 54/294/670
f 269/466/671 265/457/671 259/458/671
f 57/467/672 33/462/672 54/294/672
f 267/463/673 265/457/673 269/466/673
f 260/464/674 256/452/674 263/468/674
f 263/468/675 256/452/675 258/449/675
f 480/309/676 482/316/676 483/327/676
f 477/469/677 475/465/677 479/310/677
f 456/317/678 476/304/678 475/465/678
f 345/470/679 344/339/679 342/341/679
f 345/470/680 342/341/680 347/471/680
f 483/327/681 482/316/681 487/472/681
f 483/327/682 487/472/682 488/473/682
f 294/474/683 267/463/683 269/466/683
f 262/346/684 269/466/684 259/458/684
f 262/346/685 259/458/685 260/464/685
f 477/469/686 479/310/686 486/330/686
f 347/471/687 342/341/687 346/333/687
f 330/326/688 324/329/688 335/475/688
f 329/335/689 327/344/689 328/324/689
f 328/324/690 327/344/690 323/325/690
f 296/476/691 267/463/691 294/474/691
f 291/477/692 260/464/692 263/468/692
f 15/455/693 14/459/693 46/478/693
f 474/479/694 475/465/694 477/469/694
f 456/317/695 475/465/695 474/479/695
f 456/317/696 474/479/696 435/331/696
f 82/320/697 105/480/697 80/314/697
f 80/314/698 105/480/698 104/332/698
f 59/481/699 33/462/699 57/467/699
f 324/329/700 325/353/700 335/475/700
f 327/344/701 322/342/701 323/325/701
f 294/474/702 269/466/702 293/348/702
f 293/348/703 269/466/703 262/346/703
f 262/346/704 260/464/704 291/477/704
f 291/477/705 263/468/705 298/482/705
f 492/483/706 483/327/706 488/473/706
f 46/478/707 14/459/707 52/484/707
f 486/330/708 483/327/708 492/483/708
f 486/330/709 492/483/709 494/485/709
f 474/479/710 477/469/710 486/330/710
f 474/479/711 486/330/711 493/486/711
f 486/330/712 494/485/712 493/486/712
f 348/338/713 321/487/713 341/340/713
f 341/340/714 339/488/714 344/339/714
f 344/339/715 339/488/715 342/341/715
f 23/461/716 33/462/716 59/481/716
f 292/347/717 262/346/717 291/477/717
f 488/473/718 499/489/718 495/351/718
f 294/474/719 293/348/719 299/490/719
f 304/491/720 291/477/720 298/482/720
f 492/483/721 488/473/721 495/351/721
f 494/485/722 492/483/722 495/351/722
f 501/492/723 474/479/723 493/486/723
f 435/331/724 474/479/724 501/492/724
f 334/493/725 326/494/725 321/487/725
f 349/495/726 334/493/726 348/338/726
f 348/338/727 334/493/727 321/487/727
f 351/496/728 349/495/728 350/345/728
f 350/345/729 349/495/729 348/338/729
f 341/340/730 321/487/730 339/488/730
f 14/459/731 23/461/731 58/497/731
f 339/488/732 321/487/732 340/498/732
f 340/498/733 321/487/733 320/499/733
f 339/488/734 340/498/734 342/341/734
f 322/342/735 320/499/735 319/343/735
f 58/497/736 23/461/736 59/481/736
f 342/341/737 340/498/737 343/334/737
f 340/498/738 320/499/738 327/344/738
f 343/334/739 340/498/739 327/344/739
f 327/344/740 320/499/740 322/342/740
f 319/343/741 325/353/741 324/329/741
f 299/490/742 293/348/742 292/347/742
f 292/347/743 291/477/743 304/491/743
f 495/351/744 499/489/744 498/349/744
f 494/485/745 495/351/745 496/500/745
f 321/487/746 326/494/746 315/501/746
f 321/487/747 315/501/747 314/502/747
f 333/354/748 332/503/748 338/504/748
f 320/499/749 321/487/749 314/502/749
f 320/499/750 314/502/750 319/343/750
f 333/354/751 338/504/751 331/355/751
f 299/490/752 292/347/752 300/505/752
f 300/505/753 292/347/753 302/506/753
f 302/506/754 292/347/754 304/491/754
f 336/507/755 337/508/755 332/503/755
f 495/351/756 497/350/756 496/500/756
f 332/503/757 337/508/757 338/504/757
f 319/343/758 314/502/758 318/352/758
f 318/352/759 331/355/759 325/353/759
f 500/509/760 497/350/760 502/510/760
f 317/511/761 336/507/761 332/503/761
f 496/500/762 497/350/762 500/509/762
f 315/501/763 317/511/763 316/512/763
f 314/502/764 315/501/764 316/512/764
f 316/512/765 317/511/765 332/503/765
f 316/512/766 332/503/766 333/354/766
f 314/502/767 316/512/767 318/352/767
f 316/512/768 333/354/768 318/352/768
