# Blender 4.1.1
# www.blender.org
mtllib bush1.mtl
o Bush1
v -0.855179 0.187263 -0.238471
v -1.117686 0.197487 -0.604670
v -0.842515 0.233465 0.102638
v 2.080920 4.380787 -0.515456
v 1.015349 4.764385 -0.550521
v 2.070448 4.497856 -0.106347
v 1.033056 4.840291 0.045728
v 0.414248 4.912401 -0.063782
v 0.836848 4.859085 0.554938
v 1.456282 4.702299 0.597963
v 2.018468 4.412357 0.385097
v 1.177442 4.723785 0.987583
v 2.190761 4.307984 0.677359
v 2.186239 4.224021 1.107519
v 1.642400 4.460014 1.219813
v 0.392739 4.831909 1.005644
v 0.321640 4.873182 0.668817
v -0.495129 5.001809 1.023378
v -0.393538 4.943604 1.699749
v 0.313188 4.760411 1.644296
v -0.063965 5.114927 0.133289
v -0.873291 5.222882 0.260278
v -0.351358 5.176354 -0.033931
v 0.633362 4.678870 1.296443
v 0.152415 4.965403 -0.592832
v -1.051014 4.954350 1.390787
v -0.281039 4.669447 2.369293
v -0.859908 4.947206 1.733372
v -0.879817 4.731854 2.400256
v -1.540865 5.093727 0.676750
v 0.755638 4.669255 -0.841821
v 0.225871 4.887464 -1.215059
v -0.257953 4.976191 -1.241645
v -0.285847 5.014319 -0.827789
v -0.912539 5.118083 -0.623806
v -1.555120 5.132804 0.030140
v -0.985786 4.914952 -1.073078
v 0.650952 4.640418 -1.289035
v -1.448398 4.741493 2.142840
v -1.476561 5.046131 -0.532381
v -0.252594 4.754763 -1.814964
v 0.195132 4.707997 -1.700779
v 0.860629 4.433810 1.575074
v -0.744965 4.781552 -1.602349
v -1.858244 4.678725 1.519300
v -2.114045 4.769058 1.099174
v 1.004712 4.426169 1.545919
v -2.474954 4.762918 0.048316
v -2.426957 4.748414 0.527385
v -2.390763 4.710284 -0.511631
v -1.627694 4.784474 -1.044949
v -1.667448 4.581789 -1.329176
v 0.161168 4.448422 2.319085
v -0.772625 4.414358 -2.192104
v -0.235462 4.419518 -2.247565
v -1.411308 4.297182 -1.989630
v 0.901122 4.485798 -1.000264
v 0.316580 4.437940 -1.974786
v 2.123448 4.070048 -0.856677
v 2.463281 4.055196 -0.601888
v -2.485147 4.361397 -0.989687
v 0.666378 4.260457 -1.792390
v 1.179372 4.119390 -1.125813
v -2.977476 4.270956 -0.554839
v -0.087765 2.061810 3.826147
v -0.498072 1.788242 3.731882
v -0.138944 1.309306 3.768980
v -0.552105 1.293268 3.624624
v -0.561971 2.356108 3.642760
v -0.815994 2.017794 3.563433
v -1.099187 1.067818 3.149554
v -1.235500 1.597044 3.151077
v -0.695314 0.578270 3.205215
v -0.123024 0.822382 3.538482
v -0.263514 0.280880 3.182780
v -1.674207 1.395201 3.106382
v -1.411336 2.479751 3.369676
v -2.034633 2.178115 3.126130
v -2.041304 1.258872 3.023664
v -2.428531 1.715222 2.870830
v -2.439842 1.132540 2.773424
v -1.454381 0.050903 3.271830
v -2.560112 2.234037 2.748735
v -2.106662 0.471421 3.115078
v -2.107477 -0.075466 3.103982
v -2.757561 0.205017 2.794114
v -1.777394 -0.359137 3.074934
v -1.269739 2.900722 3.348229
v -0.828494 3.417007 3.380774
v -1.389035 3.491469 3.254712
v -1.960619 2.975780 2.885196
v -2.067938 3.546587 2.801872
v -0.955753 -0.159641 3.243365
v -0.838533 2.563377 3.361420
v -2.749573 -0.139532 2.668601
v -0.986587 -0.397698 3.150223
v -0.192060 2.706373 3.543277
v -2.294039 -0.328690 2.852232
v -1.426535 4.214576 2.843986
v -2.956217 0.323910 2.644863
v -3.621952 0.315373 2.195148
v -3.716993 0.545404 2.205914
v -3.570416 0.955077 2.280797
v -3.222981 1.248225 2.303518
v -2.781986 0.798006 2.457224
v -2.689442 1.157176 2.320958
v -4.093024 0.902069 1.718973
v 0.366242 1.195428 3.657535
v -0.201536 -0.151786 3.101691
v 0.329820 0.256213 3.080444
v 0.337584 2.144647 3.735892
v 0.491548 -0.084842 2.972784
v 0.872645 0.665692 3.037502
v 1.694201 0.122102 2.999496
v 1.808451 0.568813 3.014470
v 1.627951 -0.182619 2.897775
v 2.312622 0.259883 2.906074
v 2.346684 0.851633 2.866236
v 1.162147 1.176204 2.869717
v 0.376558 -0.277282 2.851346
v -0.415245 2.971454 3.214063
v 2.563776 -0.182151 2.627814
v 0.659860 1.429046 3.559045
v 2.102805 -0.244621 2.730165
v -0.377641 3.536660 3.193394
v 2.981325 0.645018 2.540296
v 3.298488 0.106395 2.307810
v 3.186148 0.931854 2.441354
v 2.616354 1.411325 2.459892
v 2.470762 2.123470 2.347760
v 1.615854 1.558915 2.543867
v 1.656766 2.082990 2.401754
v 1.212084 2.164947 2.455837
v 2.420833 2.710247 2.145396
v 2.989218 2.272323 2.143445
v 1.581246 2.884695 2.076473
v 1.269856 1.520797 2.676334
v 1.016681 3.198869 1.993680
v -0.311651 4.082803 2.939253
v 2.138011 3.246685 1.817901
v 1.009770 4.023021 1.754931
v 1.863200 4.010665 1.533843
v 1.004712 4.426169 1.545919
v 0.860629 4.433810 1.575074
v 0.727007 1.981127 3.494653
v 3.165417 1.717963 2.211478
v 0.117299 3.057915 2.873964
v 3.536342 1.235614 2.135585
v 3.634842 0.883110 2.141416
v 0.232177 2.714936 3.417358
v 0.043225 3.654139 2.879329
v 2.393656 3.286783 1.647058
v 0.651312 2.350820 3.404798
v 0.372274 4.043974 2.433648
v 2.801612 2.800038 1.869066
v 0.521625 2.983010 2.499002
v -3.023459 1.506356 2.058545
v 1.076925 2.442554 2.403874
v 0.161168 4.448422 2.319085
v -0.281039 4.669447 2.369293
v 1.642400 4.460014 1.219813
v 0.976660 1.531388 3.234226
v 2.186239 4.224021 1.107519
v 1.068962 1.935961 3.050239
v 0.937075 2.321555 3.046066
v 0.636029 2.694726 3.047490
v -1.928767 1.509882 -2.657024
v -1.384365 1.293643 -2.869776
v -1.641619 0.396786 -2.992640
v -2.088028 0.648852 -2.824546
v -2.163444 0.001800 -2.836279
v -2.878127 0.206276 -2.484346
v -2.162820 1.569812 -2.489316
v -2.943396 0.435258 -2.389926
v -3.544196 0.294365 -2.064223
v -3.630008 0.848853 -1.970595
v -3.446584 1.118268 -1.901673
v -2.264140 -0.388321 -2.727411
v -1.561409 -0.405616 -2.965385
v -3.874173 0.369103 -1.759932
v -3.932016 0.877465 -1.680334
v -2.753611 -0.330323 -2.444244
v -0.978478 -0.089548 -3.030317
v -2.477394 1.432681 -2.259259
v -2.947721 1.076444 -2.000411
v -2.614881 1.966473 -2.228706
v -2.755367 1.682633 -2.238297
v -2.958141 2.301649 -1.901176
v -2.994571 1.388074 -2.090894
v -0.894008 0.974003 -2.911394
v -3.163909 1.515803 -1.837105
v -3.993436 1.150945 -1.381230
v -4.207329 0.658181 -1.274621
v -1.883073 2.277771 -3.066416
v -2.563920 2.153877 -2.426984
v -2.359624 2.519270 -2.753690
v -2.321110 2.967565 -2.783010
v -1.919551 2.668349 -3.094578
v -2.058087 3.223242 -2.858654
v -1.358870 2.376243 -3.271305
v -1.363077 2.816867 -3.246964
v -2.661998 2.856590 -2.436733
v -1.554810 3.251065 -3.038837
v -1.176335 1.639854 -3.103828
v -0.724120 1.854703 -3.215764
v -0.312378 0.675943 -2.888396
v -0.115914 1.561127 -3.305014
v -0.658239 2.407609 -3.261482
v -0.200205 2.384450 -3.317176
v 0.353648 1.573684 -3.336902
v 0.232254 2.268086 -3.318916
v -0.573057 -0.399899 -2.968112
v -0.053342 0.143444 -2.883917
v 0.504820 0.283153 -2.876556
v 0.599811 0.840599 -3.061588
v 0.252246 -0.163598 -2.847671
v -0.483125 2.892207 -3.062215
v -3.532300 -0.179876 -1.757665
v 1.050933 0.408464 -2.776412
v 1.842107 -0.169375 -2.734174
v 2.000890 0.174952 -2.753435
v -0.011655 -0.382313 -2.785510
v 1.025401 0.695548 -2.790697
v 1.292607 0.964768 -2.601794
v 2.369083 0.766619 -2.575551
v 2.549824 -0.173698 -2.526538
v 2.816748 0.179939 -2.453432
v 0.744743 1.630463 -3.190580
v 0.998232 1.671198 -2.980876
v 0.732122 2.270079 -3.117833
v -1.028392 3.185659 -3.023757
v 3.350422 1.032265 -2.098258
v 0.143349 2.714388 -3.104657
v 3.333225 0.513928 -2.137971
v 2.905044 1.122094 -2.232512
v 3.085052 -0.215848 -2.149292
v 2.469219 1.367726 -2.210040
v 1.606000 1.538922 -2.211017
v 2.338803 2.233605 -2.207618
v 1.428451 2.360497 -2.108518
v 2.904641 2.197762 -2.036234
v 1.770308 2.804095 -1.992862
v 2.694872 2.491433 -2.038731
v 1.061443 3.211746 -1.692781
v 2.366376 2.957357 -1.868260
v 3.152948 1.640550 -1.862609
v 1.445062 1.748088 -2.237885
v 1.249914 2.378561 -2.142563
v 3.288347 2.075538 -1.709173
v 3.245692 2.403800 -1.674956
v -0.956656 3.561786 -2.674826
v 1.351729 3.682454 -1.264048
v 2.845576 2.926797 -1.626043
v -0.378328 3.258605 -2.644894
v -0.326501 4.055996 -2.529142
v 0.152441 3.793408 -2.437450
v 0.038927 3.210818 -2.489806
v -0.791072 4.064536 -2.490613
v -1.358522 3.782026 -2.501334
v 0.433815 3.137807 -2.263041
v 0.290961 4.071648 -2.266022
v -0.235462 4.419518 -2.247565
v -0.772625 4.414358 -2.192104
v 0.729924 3.788077 -1.955088
v 0.316580 4.437940 -1.974786
v 0.880839 3.146212 -1.847028
v 0.944544 2.809743 -2.059967
v -1.756146 3.634741 -2.614260
v -1.411308 4.297182 -1.989630
v -3.198751 1.424133 -1.616054
v 3.631461 1.174569 -1.778614
v 3.714880 0.832606 -1.752175
v 0.216885 2.972646 -2.781328
v 1.766783 3.749778 -1.134393
v 2.123448 4.070048 -0.856677
v 1.179372 4.119390 -1.125813
v 2.282023 3.628213 -1.040848
v 0.755638 4.669255 -0.841821
v 2.463281 4.055196 -0.601888
v 0.686858 2.817462 -2.649103
v 0.666378 4.260457 -1.792390
v -2.152080 3.580604 -2.461505
v 0.987276 2.419394 -2.759335
v 1.222707 1.962302 -2.620927
v -1.785739 3.990319 -2.024538
v 3.336297 -0.143661 -1.917075
v -3.466961 2.399348 0.786373
v -3.667376 2.377984 -0.147893
v -3.706608 1.902305 0.800826
v -3.913853 1.682446 -0.067024
v -3.779073 1.476621 0.838464
v -3.961356 1.325398 -0.162303
v -3.428824 1.552364 1.572469
v -3.229293 2.096140 1.518913
v -3.399323 3.056086 0.940138
v -3.017500 2.939507 1.687904
v -2.915077 2.279300 2.288972
v -3.175107 3.520834 1.131971
v -3.531593 3.343352 0.410728
v -3.553583 2.713748 0.589552
v -3.660662 2.910636 -0.014676
v -3.547184 3.511614 -0.029301
v -2.510578 3.525730 2.226799
v -3.057663 4.259700 0.503709
v -2.190528 4.096991 2.258487
v -2.844421 4.217119 0.985370
v -2.486751 3.079857 2.346733
v -2.067938 3.546587 2.801872
v -2.560112 2.234037 2.748735
v -2.538434 4.197211 1.445060
v -2.950995 1.735462 1.981972
v -2.754463 1.736322 2.500839
v -3.023459 1.506356 2.058545
v -3.104624 4.298807 0.048707
v -2.428531 1.715222 2.870830
v -1.960619 2.975780 2.885196
v -2.439842 1.132540 2.773424
v -1.855923 4.358520 2.364459
v -2.689442 1.157176 2.320958
v -2.781986 0.798006 2.457224
v -2.757561 0.205017 2.794114
v -1.426535 4.214576 2.843986
v -2.062258 4.475568 1.816992
v -2.114045 4.769058 1.099174
v -1.858244 4.678725 1.519300
v -3.901615 1.416642 -0.645262
v -3.558237 2.528671 -0.725738
v -3.452527 3.564905 -0.538548
v -3.594748 2.956995 -0.519387
v -2.426957 4.748414 0.527385
v -1.448398 4.741493 2.142840
v -4.135793 1.207747 -0.669559
v -2.474954 4.762918 0.048316
v -2.977476 4.270956 -0.554839
v -2.390763 4.710284 -0.511631
v -4.159255 1.201618 0.345726
v -4.311057 0.924092 0.287138
v -4.241506 0.957963 1.244111
v -4.359810 0.598674 0.435835
v -4.281677 0.411919 1.088064
v -4.093024 0.902069 1.718973
v -3.711210 1.410064 1.746068
v -3.940720 1.385400 1.167249
v -3.570416 0.955077 2.280797
v -4.099226 0.449708 1.652494
v -4.390250 0.481616 0.029993
v -4.329098 0.772822 -0.734427
v -3.716993 0.545404 2.205914
v -3.222981 1.248225 2.303518
v -3.993436 1.150945 -1.381230
v -4.207329 0.658181 -1.274621
v -4.281714 0.305545 -0.620431
v -3.437051 2.095164 -1.330353
v -4.276918 0.174710 0.077068
v -3.621952 0.315373 2.195148
v -3.749366 1.351317 -1.361749
v -3.163905 2.912238 -1.327852
v -3.331126 3.384088 -0.914341
v -2.994131 3.833288 -1.022594
v -3.627718 1.456456 -1.173249
v -3.039120 2.767311 -1.631651
v -2.828541 3.372984 -1.546577
v -2.558759 3.276417 -2.335572
v -2.661998 2.856590 -2.436733
v -2.367633 3.851532 -1.591813
v -2.958141 2.301649 -1.901176
v -2.152080 3.580604 -2.461505
v -2.321110 2.967565 -2.783010
v -2.485147 4.361397 -0.989687
v -1.785739 3.990319 -2.024538
v -1.411308 4.297182 -1.989630
v -2.058087 3.223242 -2.858654
v -3.446584 1.118268 -1.901673
v -3.192229 1.680507 -1.649852
v -3.163909 1.515803 -1.837105
v -3.198751 1.424133 -1.616054
v -2.947721 1.076444 -2.000411
v -3.928509 0.081783 -1.346134
v -3.874173 0.369103 -1.759932
v -4.071654 0.063001 1.022923
v -3.532300 -0.179876 -1.757665
v 3.830511 0.638371 -0.606613
v 3.925251 0.498719 0.294181
v 3.778442 0.252612 -0.646707
v 3.908263 0.954813 0.170118
v 3.857744 0.829489 -1.233603
v 3.739081 0.259529 -1.331345
v 3.829178 0.147543 0.380551
v 3.714880 0.832606 -1.752175
v 3.832775 1.186329 -1.174706
v 3.881351 0.720945 0.716607
v 3.889812 0.654455 1.323609
v 3.870652 1.139312 1.193473
v 3.819696 0.921030 1.816048
v 3.740509 0.211729 1.642648
v 3.732189 1.181342 -0.511182
v 3.716909 1.385717 0.600061
v 3.710115 1.610634 1.488377
v 3.763800 1.410451 0.132463
v 3.705337 1.577969 0.989745
v 3.631461 1.174569 -1.778614
v 3.712296 1.480593 -1.204415
v 3.408575 1.868976 -0.502625
v 3.215319 2.305920 0.473434
v 3.173623 2.665971 1.190092
v 3.059962 2.724515 1.658551
v 3.320690 2.125441 0.178331
v 3.037984 2.788299 -0.221095
v 2.974196 2.994087 0.105717
v 2.810164 3.274564 -0.607556
v 2.584921 4.042791 -0.114164
v 2.463281 4.055196 -0.601888
v 2.823958 3.030964 0.798740
v 2.509320 3.871247 0.436502
v 2.491737 3.885162 1.008701
v 2.716946 3.191732 1.143834
v 2.190761 4.307984 0.677359
v 3.478245 1.792461 -1.261375
v 3.404706 2.437108 -1.257921
v 3.358443 2.402619 -0.811917
v 3.132576 2.899349 -0.815448
v 3.131991 2.901956 -1.243096
v 3.424939 1.962914 1.793626
v 2.186239 4.224021 1.107519
v 3.245692 2.403800 -1.674956
v 3.288347 2.075538 -1.709173
v 2.018468 4.412357 0.385097
v 3.536342 1.235614 2.135585
v 2.549005 3.464866 -0.966996
v 2.393656 3.286783 1.647058
v 2.070448 4.497856 -0.106347
v 3.634842 0.883110 2.141416
v 2.989218 2.272323 2.143445
v 2.080920 4.380787 -0.515456
v 2.845576 2.926797 -1.626043
v 3.152948 1.640550 -1.862609
v 2.801612 2.800038 1.869066
v 2.282023 3.628213 -1.040848
v 3.165417 1.717963 2.211478
v 3.336297 -0.143661 -1.917075
v 3.601466 -0.026852 -1.260848
v 3.667138 -0.038770 1.224267
v 3.298488 0.106395 2.307810
v 3.460335 -0.106428 1.871525
v 0.713878 0.194556 -0.580696
v 1.288419 0.176309 0.028096
v 0.783392 0.236467 0.379678
v 2.506160 0.128729 -0.857570
v 1.430282 0.150249 -1.436246
v 2.742528 0.103170 1.321406
v 0.697368 0.163938 1.433700
v 1.501438 0.088718 2.057186
v 2.558077 0.050512 -1.564935
v 0.541225 0.105799 -1.569346
v 3.478889 -0.038021 -1.023543
v 0.138365 0.212337 -1.044259
v -0.292746 0.144836 -1.715626
v 3.558295 -0.067222 0.944520
v 3.601466 -0.026852 -1.260848
v 2.430959 0.034877 1.888213
v 1.348713 0.037448 -1.972944
v 3.270488 -0.171918 2.053610
v 3.103279 -0.164795 -1.855332
v 3.336297 -0.143661 -1.917075
v 3.085052 -0.215848 -2.149292
v 2.257836 -0.162290 -2.187258
v 0.402920 -0.084317 -2.163788
v -0.563026 0.124848 -1.813824
v 2.106670 -0.278768 -2.505478
v 3.667138 -0.038770 1.224267
v 3.460335 -0.106428 1.871525
v 2.549824 -0.173698 -2.526538
v 3.829178 0.147543 0.380551
v -0.273938 0.157784 1.941859
v -0.997586 0.136526 2.098218
v -1.180718 0.176081 0.914638
v -2.762774 0.050946 1.305869
v -2.070054 0.056890 2.206752
v -2.865254 0.011338 1.716882
v -2.151455 0.082299 -0.507674
v -0.855179 0.187263 -0.238471
v -1.117686 0.197487 -0.604670
v -0.595919 0.124761 2.171729
v -3.316031 0.151607 1.160667
v -1.430488 0.024606 2.434185
v -3.050021 0.045986 -0.313150
v -0.842515 0.233465 0.102638
v -3.401257 0.193219 -0.268161
v -3.246682 0.150776 -0.663747
v -3.438356 0.216352 0.704772
v -3.782492 -0.026603 0.039277
v -3.651280 -0.024575 1.105776
v 0.383804 0.259072 1.099321
v 0.050548 0.180985 1.608495
v 0.205633 0.026680 2.187713
v 1.147246 0.018837 2.269377
v 1.851704 -0.167976 2.560030
v 2.102805 -0.244621 2.730165
v -0.078973 -0.219123 2.680187
v 0.376558 -0.277282 2.851346
v -0.986587 -0.397698 3.150223
v -1.491173 -0.359885 2.989725
v -1.777394 -0.359137 3.074934
v -2.294039 -0.328690 2.852232
v -2.129060 -0.231835 2.662404
v -2.923262 -0.158372 2.046952
v -3.319689 -0.079724 1.922848
v -3.467347 -0.024177 1.557501
v -3.759139 -0.039719 1.514490
v -3.995601 -0.063528 -0.099796
v -3.249093 -0.075621 2.205953
v -3.661131 -0.157682 -1.070693
v -3.950340 -0.089183 -0.779336
v -3.532300 -0.179876 -1.757665
v -2.996581 -0.262056 -1.889105
v -2.753611 -0.330323 -2.444244
v -2.413541 -0.332494 -2.351729
v -2.264140 -0.388321 -2.727411
v -1.346069 -0.359958 -2.716846
v -1.561409 -0.405616 -2.965385
v -0.011655 -0.382313 -2.785510
v 0.122521 -0.343881 -2.578035
v -0.573057 -0.399899 -2.968112
v 2.563776 -0.182151 2.627814
v -3.393536 -0.095216 -1.151376
v -4.071654 0.063001 1.022923
v 1.627951 -0.182619 2.897775
v 1.842107 -0.169375 -2.734174
v -2.749573 -0.139532 2.668601
v -4.276918 0.174710 0.077068
v -3.851213 0.131537 1.732117
v -3.928509 0.081783 -1.346134
v 3.298488 0.106395 2.307810
v -4.281714 0.305545 -0.620431
v -3.621952 0.315373 2.195148
v -4.099226 0.449708 1.652494
v -4.281677 0.411919 1.088064
v 0.053508 0.269189 0.642980
v 0.619236 0.315031 0.726983
v 0.764661 0.314944 0.000578
v 0.532307 0.301909 -0.531371
v -1.355085 0.136311 -1.313237
v -1.032276 0.121564 -1.703662
v -2.732344 0.052081 -0.975758
v -1.764747 0.004209 -2.037335
v -2.642408 -0.071813 -1.670989
v -0.995559 -0.112031 -2.356660
v -3.003350 0.093781 -1.112812
v 0.783392 0.236467 0.379678
v 0.764661 0.314944 0.000578
v 0.713878 0.194556 -0.580696
v 0.619236 0.315031 0.726983
v 0.783392 0.236467 0.379678
v 0.383804 0.259072 1.099321
vn 0.3352 0.5479 -0.7664
vn 0.2191 0.8313 0.5109
vn 0.0340 0.3526 0.9352
vn 0.0985 -0.9772 -0.1884
vn -0.0024 -0.9894 -0.1454
vn -0.0223 -0.9956 -0.0910
vn 0.2290 0.4837 -0.8447
vn 0.9583 0.1105 -0.2634
vn 0.9525 -0.1531 -0.2633
vn 0.9963 0.0596 0.0614
vn 0.0230 0.6448 -0.7640
vn 0.9619 0.2058 -0.1801
vn 0.9852 -0.1203 -0.1223
vn 0.9569 -0.2804 -0.0759
vn 0.9461 0.2877 -0.1489
vn 0.9946 0.0090 -0.1032
vn -0.3763 0.9215 0.0957
vn 0.9957 0.0571 0.0735
vn 0.9550 -0.2097 0.2096
vn 0.9461 0.3007 -0.1203
vn 0.9641 0.2100 -0.1626
vn 0.9993 0.0368 -0.0099
vn 0.9967 -0.0776 -0.0224
vn 0.9607 -0.2656 0.0810
vn 0.9400 0.3397 -0.0313
vn 0.9607 0.2280 0.1586
vn 0.9922 0.0673 0.1048
vn 0.9609 -0.1622 0.2246
vn 0.9279 0.2021 -0.3133
vn 0.8920 0.3345 -0.3039
vn -0.7653 0.5739 0.2915
vn 0.9772 0.1507 0.1493
vn 0.8869 0.4198 -0.1930
vn 0.7029 -0.7109 -0.0220
vn 0.7558 0.1961 -0.6248
vn 0.8018 -0.5642 0.1972
vn 0.8316 0.2407 0.5005
vn 0.7738 -0.1985 -0.6016
vn 0.5611 0.4510 -0.6941
vn 0.8700 -0.2674 -0.4142
vn 0.8446 -0.4693 -0.2577
vn 0.6487 0.5766 -0.4967
vn 0.7717 0.5097 -0.3803
vn 0.7986 0.6017 0.0127
vn -0.1294 0.9351 -0.3298
vn 0.8659 0.4875 0.1126
vn 0.8427 0.5366 -0.0432
vn 0.4725 0.7546 0.4553
vn 0.8013 -0.3640 0.4748
vn 0.5603 0.1700 0.8106
vn 0.1295 -0.8324 -0.5388
vn 0.6954 -0.2259 -0.6822
vn -0.8192 0.3083 -0.4836
vn -0.4748 -0.1105 0.8731
vn 0.9093 0.2693 0.3173
vn 0.8722 0.4485 -0.1954
vn 0.8977 0.4125 -0.1550
vn 0.8637 0.4813 0.1494
vn 0.8492 0.4546 0.2687
vn 0.7311 0.4425 0.5193
vn 0.6536 0.4017 0.6414
vn 0.8856 -0.1171 -0.4495
vn 0.8046 0.4831 -0.3454
vn 0.8625 0.5060 0.0019
vn 0.9028 0.4114 0.1255
vn 0.7975 0.5573 0.2311
vn 0.8880 0.4053 0.2171
vn 0.1092 0.5105 -0.8529
vn 0.5545 0.4304 0.7122
vn 0.9214 0.3758 0.0991
vn 0.7185 0.3051 0.6251
vn -0.2530 0.9023 0.3491
vn 0.5054 -0.6091 0.6112
vn 0.6585 0.0597 -0.7502
vn 0.1928 0.1919 0.9623
vn 0.7562 0.6508 -0.0687
vn 0.7469 0.6575 0.0991
vn 0.6250 0.5233 0.5792
vn -0.5848 0.7950 -0.1612
vn -0.6508 0.3894 -0.6518
vn 0.7593 0.6508 0.0029
vn 0.6680 0.7382 -0.0945
vn 0.6204 0.7404 0.2587
vn 0.5701 0.6848 0.4539
vn 0.2926 0.2482 0.9234
vn 0.4702 -0.2631 0.8424
vn 0.8333 0.3732 -0.4078
vn 0.8924 0.3981 -0.2124
vn 0.1693 0.8382 0.5185
vn 0.9342 0.3299 0.1360
vn 0.4119 0.5313 0.7403
vn 0.5139 0.3279 0.7927
vn 0.4650 0.0328 0.8847
vn 0.1806 0.7300 -0.6592
vn 0.9335 0.3581 0.0200
vn 0.8158 0.3541 0.4572
vn -0.4114 0.7701 -0.4876
vn 0.2608 0.3345 0.9056
vn 0.0638 -0.9978 -0.0184
vn 0.6923 0.6565 0.2996
vn 0.8107 0.5854 0.0107
vn 0.7551 0.6419 0.1332
vn 0.6954 0.4679 0.5454
vn 0.4556 0.6857 -0.5677
vn 0.6513 0.7330 0.1964
vn 0.7349 0.6474 -0.2020
vn 0.9493 0.2811 0.1408
vn 0.0570 0.1666 0.9844
vn -0.3132 0.8174 -0.4834
vn 0.9877 0.1272 0.0906
vn 0.3352 0.9080 -0.2513
vn 0.4135 0.6493 0.6383
vn 0.5471 0.5053 0.6674
vn 0.4469 0.4485 0.7740
vn 0.0424 0.5368 0.8427
vn 0.2400 0.0515 0.9694
vn 0.1653 -0.0752 0.9834
vn 0.2309 0.4269 0.8743
vn 0.4694 0.8821 0.0383
vn -0.3229 0.6401 -0.6971
vn -0.0273 -0.9774 0.2096
vn -0.7980 -0.1196 -0.5907
vn 0.3028 0.7928 -0.5289
vn 0.3331 0.9223 0.1957
vn -0.5279 -0.1845 -0.8290
vn 0.3212 0.6434 0.6949
vn -0.1899 0.9006 -0.3909
vn -0.9703 0.2015 -0.1339
vn -0.0250 -0.7820 0.6228
vn 0.4254 0.8993 -0.1013
vn 0.0971 0.4195 -0.9026
vn 0.8761 0.0522 -0.4794
vn 0.2086 -0.0804 0.9747
vn 0.6966 0.4513 -0.5578
vn 0.2937 0.9471 -0.1293
vn -0.7870 0.1207 0.6051
vn 0.1373 0.2767 0.9511
vn -0.8785 0.4776 0.0138
vn -0.3524 -0.3695 -0.8598
vn 0.6393 0.4950 0.5884
vn 0.8299 0.0475 -0.5559
vn 0.2538 0.7586 -0.6001
vn 0.5088 0.4952 -0.7042
vn 0.7468 0.1330 -0.6516
vn -0.0949 -0.9873 0.1275
vn 0.8445 0.4619 0.2709
vn 0.8910 0.3084 0.3333
vn 0.9366 0.1857 0.2971
vn 0.0777 0.2547 -0.9639
vn 0.0346 -0.3232 0.9457
vn -0.3881 -0.9215 -0.0143
vn 0.7003 0.5799 -0.4163
vn 0.7867 0.2930 -0.5434
vn 0.7166 0.6396 -0.2784
vn 0.1383 0.9710 0.1948
vn 0.1351 0.9185 0.3716
vn 0.1590 0.8020 0.5757
vn -0.8752 0.4542 0.1664
vn 0.7485 0.6028 0.2766
vn 0.5566 0.6829 -0.4731
vn 0.7937 0.0924 0.6013
vn -0.6275 0.7540 -0.1939
vn 0.4154 -0.3495 -0.8398
vn 0.5915 0.7670 -0.2487
vn 0.6739 0.7102 -0.2035
vn 0.1373 0.9821 -0.1291
vn -0.9935 0.0911 0.0679
vn 0.1144 0.9934 0.0074
vn -0.7907 -0.5365 0.2949
vn 0.7000 0.6818 0.2124
vn 0.6772 0.5444 0.4950
vn 0.7168 -0.0059 0.6973
vn 0.4413 0.6044 -0.6633
vn 0.2431 -0.3949 0.8859
vn 0.4736 0.8648 -0.1666
vn 0.3636 -0.0113 0.9315
vn -0.0101 0.9532 -0.3023
vn 0.6561 0.0507 -0.7530
vn 0.3945 0.9065 0.1506
vn 0.5173 0.8062 0.2871
vn 0.7077 0.1628 0.6875
vn 0.4627 0.8208 0.3349
vn 0.5499 0.6134 0.5669
vn 0.5438 -0.3648 0.7558
vn 0.4266 -0.4854 0.7631
vn 0.5905 0.3027 0.7481
vn 0.3976 0.6707 -0.6261
vn 0.3630 0.6191 0.6964
vn 0.6345 0.1511 -0.7580
vn 0.4286 0.8383 -0.3369
vn -0.3707 -0.8239 0.4286
vn 0.8786 0.3344 -0.3409
vn 0.4230 0.8039 0.4180
vn 0.4539 0.4970 0.7396
vn 0.5363 0.0331 0.8433
vn 0.3639 -0.0657 0.9291
vn 0.4232 0.9003 0.1017
vn 0.6857 0.0787 0.7236
vn 0.1932 -0.5191 0.8326
vn 0.0998 0.7157 -0.6912
vn 0.2587 0.9559 0.1392
vn 0.5396 0.4780 0.6931
vn -0.1046 -0.9669 -0.2326
vn 0.1172 -0.5663 0.8158
vn 0.1033 -0.4228 0.9003
vn 0.2359 0.5067 0.8292
vn 0.1110 0.4144 0.9033
vn 0.0722 0.3032 0.9502
vn 0.8994 0.4101 0.1512
vn 0.2716 0.9554 -0.1158
vn 0.1224 -0.8328 -0.5399
vn 0.3913 0.6307 0.6702
vn 0.5666 0.3658 0.7383
vn 0.5850 0.0654 0.8084
vn -0.7506 -0.0672 0.6574
vn 0.1475 0.0122 -0.9890
vn 0.2037 0.9624 -0.1796
vn 0.2523 0.9371 0.2413
vn 0.2611 0.9079 0.3279
vn 0.5111 0.3111 0.8013
vn 0.5388 -0.0050 0.8424
vn -0.1165 0.3833 0.9163
vn -0.1840 -0.0620 0.9810
vn 0.1479 0.9832 0.1069
vn -0.8735 0.3320 -0.3560
vn 0.0154 0.1197 -0.9927
vn -0.6009 0.7922 0.1066
vn -0.2950 0.1157 0.9485
vn -0.3194 -0.1673 0.9327
vn -0.1764 0.8393 -0.5143
vn -0.2763 -0.2738 -0.9212
vn -0.1060 0.9895 -0.0983
vn 0.0995 0.9765 -0.1911
vn 0.1604 0.9665 0.2005
vn 0.0295 0.9509 0.3080
vn 0.1151 0.9259 0.3598
vn 0.6373 0.7523 -0.1668
vn -0.0700 0.6358 -0.7687
vn 0.0702 0.0268 0.9972
vn 0.1747 -0.3783 0.9090
vn 0.3148 0.6727 -0.6696
vn 0.0159 0.9101 -0.4141
vn 0.0216 0.9927 -0.1186
vn -0.5287 -0.3482 0.7741
vn -0.5859 0.2600 0.7675
vn -0.4110 0.0960 0.9066
vn -0.5327 -0.1233 0.8373
vn 0.3516 0.5998 -0.7188
vn 0.0773 0.9672 0.2419
vn -0.0524 0.0700 0.9962
vn -0.7784 0.1895 0.5985
vn -0.5196 0.1708 0.8372
vn -0.1234 -0.9101 -0.3955
vn 0.2314 0.9629 -0.1390
vn -0.1206 0.9457 0.3018
vn -0.2524 0.7697 0.5863
vn -0.1740 -0.9845 0.0203
vn 0.0177 -0.0229 0.9996
vn -0.6122 -0.3315 -0.7179
vn -0.2978 0.8848 -0.3585
vn -0.1516 0.9864 0.0630
vn -0.0489 0.9735 0.2235
vn -0.2320 0.9612 0.1495
vn -0.0055 0.1213 0.9926
vn 0.0932 0.0867 0.9919
vn -0.1892 0.8118 -0.5524
vn -0.3062 0.9461 0.1060
vn -0.0725 0.7227 -0.6874
vn -0.0895 -0.0259 0.9956
vn -0.3827 0.7328 0.5626
vn 0.0378 -0.9617 -0.2716
vn -0.4817 0.4138 0.7725
vn 0.1866 0.9173 -0.3517
vn -0.1539 0.1265 0.9799
vn -0.2468 0.0785 0.9659
vn -0.4362 0.1915 0.8792
vn -0.2920 -0.1582 0.9432
vn -0.2454 -0.0193 0.9692
vn -0.1809 -0.3062 0.9346
vn -0.3046 0.8088 -0.5030
vn -0.3300 0.8766 -0.3502
vn -0.3369 0.5910 0.7330
vn -0.4894 0.8391 0.2372
vn -0.5258 0.7694 0.3627
vn -0.1803 -0.1077 0.9777
vn 0.1485 0.5331 0.8329
vn -0.3831 0.9066 0.1769
vn -0.4647 0.8062 -0.3663
vn 0.0675 -0.9933 0.0942
vn -0.5822 0.7997 0.1468
vn -0.6243 0.3789 0.6832
vn -0.1132 0.9846 -0.1334
vn -0.3664 -0.5062 0.7807
vn 0.8464 0.3297 0.4183
vn -0.7387 0.3831 0.5547
vn -0.5796 0.0445 0.8137
vn 0.2391 0.9674 0.0830
vn -0.7240 0.3247 -0.6086
vn -0.5191 0.7360 -0.4346
vn -0.0309 -0.9950 -0.0950
vn -0.4364 -0.0176 0.8996
vn -0.4827 -0.4125 0.7726
vn 0.0017 -0.0671 0.9977
vn -0.5664 0.6915 0.4483
vn -0.5136 -0.3042 0.8023
vn -0.2876 0.3842 0.8773
vn 0.3479 -0.8134 0.4663
vn -0.7323 0.4545 0.5071
vn 0.0862 0.6499 0.7551
vn -0.6757 -0.2661 0.6874
vn -0.9881 0.0049 -0.1537
vn -0.7148 0.3977 -0.5752
vn 0.2165 -0.5757 0.7885
vn -0.0780 0.7135 -0.6963
vn -0.2687 0.9118 0.3104
vn -0.3490 0.7728 0.5300
vn -0.2801 0.2604 0.9240
vn -0.4956 0.0186 0.8684
vn -0.3467 0.7747 -0.5288
vn -0.2716 0.9044 -0.3291
vn 0.9085 -0.4111 -0.0747
vn 0.4254 0.8814 0.2055
vn -0.4969 0.6600 -0.5635
vn 0.4784 -0.8335 0.2764
vn 0.6258 -0.7398 0.2471
vn -0.9766 0.1870 0.1061
vn 0.9314 0.3596 -0.0570
vn -0.5258 0.5745 0.6273
vn 0.0817 -0.9965 -0.0154
vn 0.6754 -0.7329 -0.0817
vn -0.6676 0.4710 0.5766
vn -0.6679 0.7420 0.0576
vn -0.6592 -0.7008 0.2726
vn -0.8077 0.5835 0.0843
vn -0.8146 -0.0734 0.5753
vn -0.9104 0.4113 -0.0448
vn 0.9092 -0.4076 0.0846
vn 0.6626 0.1043 -0.7417
vn 0.0578 -0.9982 -0.0171
vn -0.5545 0.0185 0.8320
vn 0.7449 0.0264 -0.6667
vn 0.2368 -0.9685 0.0767
vn -0.3303 0.2926 -0.8974
vn 0.1089 0.6898 0.7158
vn -0.6380 -0.7697 0.0221
vn -0.2722 -0.9488 -0.1602
vn 0.6739 -0.5341 0.5105
vn 0.3391 0.4335 -0.8349
vn 0.6695 0.1626 -0.7248
vn 0.6788 0.5633 -0.4711
vn -0.2374 -0.9386 0.2503
vn 0.8123 0.5387 -0.2234
vn 0.4969 0.0499 -0.8664
vn -0.1030 -0.3589 0.9277
vn 0.5362 0.4755 -0.6974
vn 0.5503 0.3868 -0.7400
vn -0.1100 -0.2901 -0.9507
vn 0.1746 -0.9646 0.1977
vn 0.3339 0.3436 -0.8777
vn 0.4721 -0.0636 -0.8792
vn -0.1920 -0.9562 -0.2208
vn 0.4071 0.1223 -0.9051
vn 0.2956 0.2032 -0.9334
vn 0.2923 0.0467 -0.9552
vn -0.1023 -0.9548 -0.2791
vn 0.3440 0.0675 -0.9366
vn 0.3447 -0.0666 -0.9363
vn 0.1963 -0.9041 -0.3796
vn -0.0716 -0.9820 0.1750
vn 0.4040 0.5518 -0.7296
vn 0.5034 0.5062 -0.7002
vn -0.6499 -0.4240 -0.6308
vn 0.1313 0.2499 0.9593
vn -0.0608 -0.8420 -0.5360
vn 0.2759 -0.1800 -0.9442
vn -0.1112 -0.9886 0.1012
vn -0.9527 -0.0233 0.3030
vn 0.0017 0.0031 -1.0000
vn 0.5391 0.4815 -0.6910
vn 0.2612 0.4498 -0.8541
vn -0.6088 -0.1573 0.7776
vn -0.6826 0.0268 -0.7303
vn -0.0934 0.1034 -0.9903
vn -0.0159 0.9975 0.0685
vn 0.3095 0.7219 -0.6189
vn -0.0624 0.2966 -0.9530
vn 0.1743 0.5271 -0.8317
vn 0.5541 0.7494 -0.3625
vn 0.1727 0.9806 -0.0930
vn 0.4078 0.1993 -0.8911
vn -0.1728 0.3711 -0.9124
vn 0.2715 0.3860 -0.8816
vn 0.2498 0.5893 -0.7683
vn 0.2998 0.3554 0.8853
vn 0.5027 0.2818 -0.8172
vn 0.2035 0.2076 -0.9568
vn 0.2108 0.5009 -0.8395
vn 0.1298 0.4201 0.8982
vn -0.5966 0.7389 0.3133
vn 0.0495 -0.8830 0.4668
vn 0.0094 -0.0601 -0.9981
vn 0.5706 0.0099 -0.8212
vn 0.8038 0.5926 0.0519
vn 0.0713 0.0247 -0.9972
vn 0.4245 0.5402 -0.7266
vn 0.6246 0.1004 -0.7745
vn 0.4673 -0.2254 -0.8549
vn 0.0374 -0.9959 0.0829
vn -0.6564 0.6563 0.3721
vn -0.0100 -0.8520 -0.5234
vn -0.0013 -0.9125 -0.4092
vn 0.0109 -0.9470 -0.3210
vn 0.3695 -0.2154 -0.9039
vn 0.5343 0.5749 -0.6197
vn 0.1874 -0.0322 -0.9818
vn 0.2182 -0.1853 -0.9581
vn 0.0656 -0.3452 -0.9362
vn 0.0086 -0.8500 0.5267
vn 0.5804 0.5111 -0.6340
vn 0.0643 -0.9547 0.2904
vn 0.0312 -0.9867 -0.1593
vn 0.0169 -0.9577 -0.2872
vn 0.0300 -0.9012 -0.4324
vn 0.0094 -0.5376 0.8431
vn 0.3109 0.7535 -0.5793
vn 0.5846 0.4795 -0.6545
vn 0.6764 0.3195 -0.6636
vn -0.4519 -0.8648 0.2186
vn -0.6334 -0.7633 -0.1267
vn -0.8157 0.3459 -0.4638
vn -0.0476 -0.9305 0.3632
vn 0.3296 0.4612 -0.8238
vn -0.5439 -0.2215 0.8094
vn 0.9321 0.1245 -0.3401
vn -0.1271 -0.2929 -0.9477
vn 0.0341 -0.0837 -0.9959
vn 0.4953 -0.0185 -0.8685
vn 0.0031 0.0264 -0.9996
vn -0.9840 0.1764 0.0237
vn 0.3591 0.3534 -0.8638
vn -0.0875 -0.9427 0.3219
vn -0.1330 -0.8338 0.5358
vn 0.4818 -0.8475 -0.2227
vn -0.8724 0.1276 -0.4719
vn 0.1888 0.9799 0.0640
vn 0.2733 -0.5534 -0.7868
vn 0.0312 -0.2344 0.9716
vn 0.2795 0.8201 -0.4994
vn 0.5243 -0.0663 0.8489
vn -0.0410 -0.9034 0.4269
vn -0.0394 -0.9992 -0.0021
vn -0.1735 -0.0606 -0.9830
vn -0.0900 0.4064 -0.9092
vn -0.2996 -0.3510 -0.8871
vn 0.2513 0.1230 -0.9601
vn 0.3500 0.0160 -0.9366
vn -0.7539 0.4817 -0.4468
vn -0.0704 0.3635 -0.9289
vn 0.1216 0.1348 -0.9834
vn -0.0708 0.7871 -0.6128
vn 0.1680 0.3224 -0.9316
vn -0.5741 0.4994 0.6488
vn 0.1309 0.0999 -0.9863
vn 0.0863 -0.9365 0.3399
vn -0.1874 -0.9788 -0.0826
vn 0.1545 0.4052 -0.9011
vn 0.0115 0.0553 -0.9984
vn 0.0178 -0.0845 -0.9963
vn -0.5225 0.2906 0.8016
vn 0.6498 -0.1280 -0.7493
vn -0.0016 -0.1985 -0.9801
vn -0.1768 0.3894 -0.9039
vn -0.6102 -0.5666 0.5538
vn 0.4113 -0.9052 0.1073
vn 0.0049 -0.9880 0.1543
vn 0.2928 -0.9561 -0.0101
vn 0.0825 0.4602 -0.8840
vn -0.8355 0.2591 0.4845
vn -0.1849 -0.9828 0.0011
vn 0.1009 -0.9899 -0.1000
vn -0.0878 -0.0426 -0.9952
vn -0.0025 -0.9416 0.3367
vn -0.2062 0.1150 0.9717
vn -0.3163 0.6452 -0.6955
vn -0.3028 -0.2821 -0.9103
vn 0.0821 -0.8565 0.5096
vn -0.4387 0.6103 -0.6596
vn 0.0865 0.6831 -0.7252
vn 0.4964 0.2557 0.8296
vn -0.2763 0.0504 -0.9598
vn -0.3459 -0.0996 -0.9330
vn 0.7380 0.6075 -0.2940
vn -0.1651 0.8409 -0.5153
vn 0.8362 -0.2362 0.4950
vn -0.3245 0.0549 -0.9443
vn -0.2464 -0.0575 -0.9675
vn 0.8955 0.3997 0.1956
vn -0.4662 -0.3945 -0.7919
vn 0.1644 -0.8236 0.5427
vn -0.3196 -0.1773 -0.9308
vn -0.5270 0.6981 -0.4847
vn 0.1646 -0.9672 0.1936
vn 0.0273 0.0049 -0.9996
vn 0.0381 -0.9031 -0.4277
vn -0.4769 0.2404 -0.8455
vn -0.6611 -0.1152 -0.7414
vn 0.3915 0.8166 -0.4241
vn -0.5512 -0.0072 -0.8344
vn -0.5857 0.5287 -0.6144
vn -0.6218 0.4501 -0.6409
vn 0.8852 -0.0020 0.4652
vn -0.7181 -0.0335 0.6952
vn -0.7151 0.0157 -0.6989
vn -0.4256 0.0660 -0.9025
vn -0.4944 0.2479 -0.8331
vn -0.7008 -0.4197 -0.5768
vn -0.5596 -0.0970 -0.8230
vn -0.6273 0.6858 -0.3691
vn -0.7802 0.4109 0.4717
vn -0.4667 -0.1239 -0.8757
vn 0.7437 -0.2318 0.6270
vn -0.8888 0.2690 -0.3710
vn -0.0311 0.0491 -0.9983
vn -0.6979 0.6422 -0.3172
vn 0.9847 -0.1709 -0.0349
vn 0.2937 -0.8701 -0.3958
vn 0.2982 -0.8233 -0.4830
vn 0.1682 -0.9296 -0.3281
vn -0.8557 -0.2387 0.4591
vn -0.8004 0.3816 0.4623
vn -0.7850 0.2812 0.5519
vn -0.3465 0.4525 0.8217
vn -0.7464 0.3589 0.5605
vn -0.7989 -0.3210 -0.5087
vn -0.5067 0.2784 -0.8159
vn -0.5878 0.5065 -0.6308
vn -0.2209 -0.9647 0.1433
vn -0.7540 0.5302 0.3878
vn -0.9876 0.0242 -0.1553
vn -0.2503 -0.9681 -0.0092
vn -0.7913 0.0045 0.6114
vn -0.4873 -0.7654 0.4204
vn -0.1248 0.5145 -0.8483
vn -0.6652 0.1772 -0.7254
vn -0.2592 0.2169 -0.9411
vn -0.9060 0.0828 -0.4152
vn -0.3572 0.9192 -0.1659
vn 0.5780 -0.2134 -0.7876
vn -0.1686 -0.9851 0.0337
vn -0.2657 -0.9544 -0.1362
vn -0.1442 -0.9809 -0.1305
vn -0.1310 -0.9170 0.3768
vn -0.9120 -0.1734 0.3717
vn -0.7835 0.1561 -0.6014
vn -0.8586 -0.2578 -0.4432
vn 0.1913 -0.1781 0.9652
vn -0.9202 0.2142 -0.3276
vn -0.8983 -0.3374 -0.2815
vn 0.2569 -0.8830 0.3927
vn -0.7532 0.2618 -0.6034
vn -0.1881 -0.9815 0.0364
vn -0.7958 0.4607 0.3930
vn 0.1479 -0.9239 -0.3529
vn -0.0315 -0.8866 -0.4614
vn 0.7683 0.2827 0.5743
vn -0.9782 -0.1372 -0.1557
vn -0.9344 0.0385 0.3541
vn -0.0478 -0.9938 -0.1001
vn -0.4882 0.0713 -0.8698
vn -0.7851 0.2023 -0.5855
vn -0.7716 0.0338 -0.6352
vn -0.8248 -0.0532 -0.5629
vn -0.0544 -0.8143 0.5779
vn 0.3873 -0.8648 0.3196
vn -0.8155 0.5442 -0.1969
vn -0.2944 -0.4440 0.8463
vn -0.3715 0.9262 0.0646
vn -0.6843 0.3158 0.6573
vn -0.6783 0.4168 0.6051
vn -0.2806 0.4127 -0.8666
vn -0.5566 0.8305 -0.0228
vn -0.7160 0.0424 -0.6968
vn -0.0942 -0.0244 -0.9953
vn 0.0440 0.9961 0.0759
vn -0.8619 0.4953 -0.1084
vn -0.5510 0.5905 -0.5897
vn -0.4758 -0.8795 0.0028
vn -0.8540 0.4091 0.3214
vn -0.8871 0.2749 0.3708
vn 0.3954 0.9144 -0.0861
vn -0.1766 -0.9826 0.0583
vn -0.9007 0.1985 -0.3865
vn 0.2653 -0.9537 0.1416
vn 0.8460 0.5287 -0.0692
vn 0.5232 -0.8512 0.0402
vn -0.9682 -0.1348 0.2108
vn -0.9463 0.1185 0.3007
vn -0.8938 0.1881 0.4071
vn 0.3558 0.0990 -0.9293
vn -0.4701 0.8643 -0.1787
vn -0.8818 0.1536 -0.4459
vn 0.0935 0.4685 -0.8785
vn 0.1196 -0.9863 0.1139
vn 0.0887 -0.9880 0.1264
vn -0.9858 -0.0289 0.1653
vn -0.8840 0.4315 0.1798
vn -0.9750 0.0916 0.2026
vn 0.1780 -0.9840 -0.0116
vn -0.5457 -0.7551 0.3633
vn -0.7646 -0.4780 -0.4323
vn -0.6926 -0.6828 -0.2326
vn -0.9835 0.1555 -0.0923
vn -0.9290 0.3448 0.1345
vn -0.9660 0.1808 0.1849
vn -0.9824 0.0864 0.1659
vn -0.4147 -0.9069 0.0741
vn -0.7316 0.1398 0.6673
vn -0.7470 -0.3355 0.5740
vn -0.7271 -0.4336 0.5322
vn -0.8260 -0.0057 -0.5636
vn -0.8579 0.2791 -0.4313
vn -0.9461 0.2972 -0.1289
vn -0.7887 -0.5795 -0.2052
vn 0.0205 0.3568 0.9340
vn -0.9024 0.3324 -0.2740
vn -0.8814 0.4231 -0.2101
vn -0.7826 -0.6129 -0.1096
vn -0.8651 -0.3775 -0.3304
vn -0.8405 -0.5283 0.1200
vn -0.5566 0.5482 -0.6242
vn -0.8159 0.3731 0.4416
vn -0.0853 -0.3939 -0.9152
vn -0.9334 -0.3539 -0.0600
vn -0.9910 0.0360 0.1290
vn -0.9923 -0.0773 0.0967
vn -0.9391 -0.3354 0.0743
vn 1.0000 -0.0000 -0.0000
vn 0.0108 0.6444 0.7646
vn -0.0160 0.4932 0.8698
vn -0.0983 0.6019 0.7925
vn 0.2673 0.3798 0.8856
vt 0.234088 0.741769
vt 0.231978 0.749295
vt 0.221395 0.750160
vt 0.223835 0.742837
vt 0.045596 0.908431
vt 0.043759 0.919172
vt 0.036048 0.914521
vt 0.037814 0.902007
vt 0.724640 0.625269
vt 0.750148 0.611546
vt 0.734999 0.609928
vt 0.723820 0.609778
vt 0.804837 0.165344
vt 0.805514 0.160258
vt 0.808194 0.149676
vt 0.811932 0.157797
vt 0.811725 0.105531
vt 0.815500 0.111030
vt 0.814228 0.117798
vt 0.789979 0.099916
vt 0.806201 0.099937
vt 0.274485 0.804658
vt 0.263681 0.810784
vt 0.267765 0.799008
vt 0.281432 0.794935
vt 0.556642 0.918071
vt 0.562474 0.917023
vt 0.562257 0.907751
vt 0.572141 0.914979
vt 0.565892 0.927697
vt 0.259653 0.772509
vt 0.249736 0.761452
vt 0.256968 0.751782
vt 0.269847 0.771268
vt 0.556471 0.929516
vt 0.561144 0.941210
vt 0.568683 0.943151
vt 0.572561 0.926758
vt 0.574804 0.944573
vt 0.553311 0.940785
vt 0.905275 0.108561
vt 0.909614 0.113338
vt 0.909043 0.123632
vt 0.903059 0.122925
vt 0.565085 0.950342
vt 0.550863 0.955471
vt 0.558534 0.958524
vt 0.553641 0.948722
vt 0.566346 0.960438
vt 0.573772 0.965910
vt 0.550823 0.963707
vt 0.562214 0.968644
vt 0.556133 0.907217
vt 0.551413 0.917505
vt 0.918214 0.113207
vt 0.919158 0.121401
vt 0.543430 0.929921
vt 0.785620 0.033157
vt 0.800150 0.037243
vt 0.757541 0.038557
vt 0.232810 0.784237
vt 0.238617 0.781129
vt 0.243544 0.787676
vt 0.237436 0.792901
vt 0.580070 0.970934
vt 0.578501 0.959131
vt 0.556375 0.975261
vt 0.562841 0.974917
vt 0.291123 0.810217
vt 0.283811 0.827943
vt 0.281533 0.815812
vt 0.282264 0.806861
vt 0.289474 0.803901
vt 0.580070 0.903183
vt 0.577629 0.915706
vt 0.544933 0.903701
vt 0.544666 0.916291
vt 0.099282 0.921524
vt 0.092567 0.928895
vt 0.089990 0.916747
vt 0.099123 0.912568
vt 0.535837 0.947291
vt 0.041200 0.927031
vt 0.033748 0.941348
vt 0.030026 0.933578
vt 0.036450 0.917087
vt 0.576748 0.979222
vt 0.740337 0.485689
vt 0.745892 0.493833
vt 0.746832 0.484085
vt 0.816123 0.135876
vt 0.819987 0.125177
vt 0.831315 0.126469
vt 0.825115 0.137367
vt 0.277625 0.828912
vt 0.875597 0.065569
vt 0.889454 0.070085
vt 0.874615 0.071771
vt 0.864633 0.068177
vt 0.720031 0.584668
vt 0.726285 0.593942
vt 0.736381 0.596926
vt 0.735483 0.587978
vt 0.534227 0.924638
vt 0.526442 0.935493
vt 0.531047 0.960112
vt 0.529951 0.968196
vt 0.544036 0.969585
vt 0.536574 0.977366
vt 0.546474 0.978587
vt 0.538238 0.908592
vt 0.524944 0.917806
vt 0.533596 0.917140
vt 0.532701 0.909638
vt 0.525111 0.924943
vt 0.516700 0.928989
vt 0.253486 0.793968
vt 0.245519 0.804814
vt 0.703219 0.526206
vt 0.708303 0.536689
vt 0.716802 0.527720
vt 0.721777 0.525856
vt 0.522981 0.941437
vt 0.539148 0.941962
vt 0.066654 0.961800
vt 0.058108 0.961118
vt 0.055009 0.946591
vt 0.069431 0.948877
vt 0.820380 0.041867
vt 0.824609 0.056183
vt 0.814393 0.044278
vt 0.285111 0.787131
vt 0.276618 0.785214
vt 0.724476 0.504559
vt 0.736929 0.503273
vt 0.750815 0.497992
vt 0.522057 0.953946
vt 0.519123 0.960454
vt 0.526735 0.973021
vt 0.841699 0.090665
vt 0.853912 0.088562
vt 0.855911 0.098510
vt 0.843300 0.100265
vt 0.167508 0.811622
vt 0.165039 0.798015
vt 0.175308 0.793150
vt 0.182410 0.791597
vt 0.511093 0.922366
vt 0.515465 0.970433
vt 0.721954 0.494920
vt 0.760629 0.491291
vt 0.757105 0.511428
vt 0.765489 0.505892
vt 0.501768 0.930350
vt 0.503722 0.938729
vt 0.710970 0.555657
vt 0.717752 0.553390
vt 0.718024 0.547559
vt 0.708721 0.545588
vt 0.506559 0.958348
vt 0.711399 0.496684
vt 0.714162 0.504273
vt 0.747390 0.510287
vt 0.216386 0.772126
vt 0.220182 0.763542
vt 0.228303 0.770925
vt 0.225356 0.776606
vt 0.506170 0.948437
vt 0.102725 0.937885
vt 0.112707 0.929328
vt 0.104507 0.953647
vt 0.094140 0.954852
vt 0.096921 0.939038
vt 0.801109 0.147751
vt 0.774296 0.152408
vt 0.763181 0.147399
vt 0.757394 0.123918
vt 0.770912 0.137397
vt 0.775337 0.115433
vt 0.794545 0.120869
vt 0.781021 0.115079
vt 0.769238 0.119797
vt 0.770564 0.091899
vt 0.779279 0.088028
vt 0.791262 0.090366
vt 0.797541 0.094270
vt 0.493482 0.948694
vt 0.497264 0.953546
vt 0.499121 0.961024
vt 0.069174 0.876908
vt 0.062924 0.882244
vt 0.062628 0.873121
vt 0.492167 0.939932
vt 0.723754 0.518428
vt 0.110448 0.917586
vt 0.070877 0.900410
vt 0.056416 0.885940
vt 0.683860 0.503699
vt 0.680343 0.512954
vt 0.689675 0.511038
vt 0.701713 0.502619
vt 0.703225 0.507616
vt 0.709427 0.517754
vt 0.751556 0.519919
vt 0.759044 0.522218
vt 0.682124 0.524567
vt 0.681872 0.526816
vt 0.689478 0.525566
vt 0.048543 0.889808
vt 0.049760 0.901382
vt 0.042343 0.888851
vt 0.214080 0.749228
vt 0.204079 0.752710
vt 0.203586 0.740182
vt 0.214891 0.741485
vt 0.755008 0.076302
vt 0.752691 0.091560
vt 0.745826 0.077686
vt 0.752592 0.056962
vt 0.166711 0.776551
vt 0.177882 0.767820
vt 0.184497 0.774422
vt 0.177584 0.780194
vt 0.077686 0.901986
vt 0.061429 0.904500
vt 0.155073 0.813848
vt 0.169123 0.816031
vt 0.180338 0.827574
vt 0.170234 0.826141
vt 0.087139 0.939909
vt 0.084655 0.930850
vt 0.869797 0.095903
vt 0.867718 0.088004
vt 0.877636 0.087054
vt 0.879433 0.095274
vt 0.742040 0.093969
vt 0.741300 0.061908
vt 0.267154 0.784017
vt 0.273613 0.780207
vt 0.251146 0.790203
vt 0.726815 0.553141
vt 0.736299 0.554320
vt 0.738109 0.547449
vt 0.726151 0.547755
vt 0.241303 0.752750
vt 0.255301 0.743508
vt 0.863313 0.148331
vt 0.866056 0.136402
vt 0.877721 0.125796
vt 0.873095 0.139592
vt 0.912139 0.098850
vt 0.910545 0.081195
vt 0.917340 0.097322
vt 0.193005 0.779595
vt 0.202572 0.791785
vt 0.205913 0.804188
vt 0.197501 0.798034
vt 0.684986 0.543149
vt 0.691955 0.540460
vt 0.094719 0.906204
vt 0.099342 0.900991
vt 0.107496 0.908432
vt 0.245184 0.770019
vt 0.249147 0.778577
vt 0.750549 0.105933
vt 0.769439 0.088486
vt 0.761824 0.098453
vt 0.722307 0.536266
vt 0.727746 0.534267
vt 0.733169 0.526619
vt 0.256150 0.820683
vt 0.239834 0.814999
vt 0.761699 0.543559
vt 0.764681 0.523371
vt 0.798375 0.157202
vt 0.775112 0.158582
vt 0.768612 0.156125
vt 0.094628 0.894842
vt 0.085653 0.901150
vt 0.080889 0.888758
vt 0.241047 0.744168
vt 0.079734 0.897255
vt 0.054846 0.911095
vt 0.050595 0.921192
vt 0.872760 0.102667
vt 0.856816 0.105699
vt 0.716906 0.540198
vt 0.727978 0.542001
vt 0.733918 0.536611
vt 0.904878 0.081479
vt 0.905081 0.068204
vt 0.910373 0.068586
vt 0.230943 0.806513
vt 0.239448 0.809647
vt 0.229694 0.816781
vt 0.235545 0.773957
vt 0.235684 0.764687
vt 0.067419 0.913568
vt 0.767189 0.448718
vt 0.765448 0.442170
vt 0.767189 0.431919
vt 0.808931 0.175065
vt 0.799196 0.178161
vt 0.796760 0.171416
vt 0.808968 0.167982
vt 0.723077 0.542427
vt 0.735181 0.543146
vt 0.766319 0.514408
vt 0.086767 0.909357
vt 0.703969 0.562394
vt 0.717045 0.563727
vt 0.702186 0.555315
vt 0.245851 0.763102
vt 0.229160 0.754283
vt 0.699578 0.547686
vt 0.748598 0.536369
vt 0.755347 0.546305
vt 0.067846 0.922934
vt 0.056474 0.920023
vt 0.743980 0.554408
vt 0.264447 0.751100
vt 0.045794 0.938522
vt 0.693499 0.553421
vt 0.803336 0.088810
vt 0.816384 0.097253
vt 0.754365 0.557074
vt 0.739622 0.529982
vt 0.077508 0.914438
vt 0.072235 0.926288
vt 0.730093 0.101165
vt 0.730870 0.068771
vt 0.734936 0.056546
vt 0.735493 0.064473
vt 0.681312 0.550356
vt 0.896244 0.142485
vt 0.905400 0.150655
vt 0.895508 0.150785
vt 0.887290 0.146570
vt 0.210617 0.828583
vt 0.203758 0.822948
vt 0.219928 0.819232
vt 0.225119 0.824781
vt 0.083915 0.919875
vt 0.056854 0.935348
vt 0.721979 0.559055
vt 0.729729 0.558841
vt 0.071282 0.935989
vt 0.863390 0.053683
vt 0.870356 0.050879
vt 0.192690 0.814019
vt 0.844133 0.108556
vt 0.736589 0.560290
vt 0.166098 0.792430
vt 0.171366 0.788143
vt 0.048418 0.945899
vt 0.037652 0.951030
vt 0.493131 0.932452
vt 0.748995 0.564647
vt 0.761761 0.569699
vt 0.762154 0.556137
vt 0.766319 0.570264
vt 0.208268 0.766440
vt 0.740491 0.571384
vt 0.725989 0.563431
vt 0.210585 0.758096
vt 0.731642 0.573002
vt 0.753468 0.604463
vt 0.749709 0.589997
vt 0.813895 0.074986
vt 0.811145 0.059048
vt 0.823332 0.068705
vt 0.817661 0.081005
vt 0.335509 0.520864
vt 0.338120 0.513263
vt 0.338120 0.526525
vt 0.045556 0.958338
vt 0.839248 0.140737
vt 0.848378 0.152520
vt 0.746660 0.152918
vt 0.760986 0.164258
vt 0.777552 0.169947
vt 0.766070 0.169206
vt 0.749160 0.162357
vt 0.736950 0.148839
vt 0.716850 0.573080
vt 0.187537 0.793315
vt 0.079119 0.944678
vt 0.734000 0.580958
vt 0.757852 0.578371
vt 0.200183 0.764986
vt 0.197293 0.755673
vt 0.849193 0.141480
vt 0.688714 0.570121
vt 0.696943 0.582450
vt 0.701429 0.570525
vt 0.710611 0.570182
vt 0.759745 0.590592
vt 0.765549 0.584872
vt 0.190373 0.754255
vt 0.196480 0.744078
vt 0.841842 0.128145
vt 0.847861 0.131646
vt 0.732711 0.520307
vt 0.077865 0.962754
vt 0.855159 0.050461
vt 0.853193 0.066632
vt 0.845011 0.056845
vt 0.745181 0.131062
vt 0.750809 0.118487
vt 0.748942 0.110547
vt 0.854974 0.123165
vt 0.872240 0.152520
vt 0.765370 0.595861
vt 0.855392 0.137958
vt 0.717029 0.595165
vt 0.865450 0.043749
vt 0.102031 0.965075
vt 0.828659 0.140323
vt 0.834204 0.117813
vt 0.832672 0.131444
vt 0.761630 0.605692
vt 0.842182 0.119539
vt 0.856461 0.114169
vt 0.897853 0.133172
vt 0.901994 0.133814
vt 0.906364 0.141931
vt 0.761116 0.152177
vt 0.759782 0.159492
vt 0.751098 0.146297
vt 0.869010 0.115316
vt 0.713649 0.621698
vt 0.894130 0.061128
vt 0.895944 0.057181
vt 0.898479 0.060366
vt 0.869011 0.081207
vt 0.859808 0.079517
vt 0.765721 0.545485
vt 0.155619 0.797942
vt 0.158673 0.789306
vt 0.908279 0.136033
vt 0.734427 0.633739
vt 0.746721 0.637039
vt 0.905736 0.057052
vt 0.901527 0.070871
vt 0.035192 0.891686
vt 0.779893 0.166219
vt 0.915299 0.133541
vt 0.797897 0.163718
vt 0.790872 0.159070
vt 0.907305 0.090314
vt 0.926638 0.120070
vt 0.925568 0.131463
vt 0.918621 0.079789
vt 0.761593 0.040771
vt 0.795365 0.039298
vt 0.706448 0.582956
vt 0.746042 0.043051
vt 0.191790 0.763390
vt 0.202494 0.772565
vt 0.193531 0.773387
vt 0.780752 0.176240
vt 0.801496 0.053803
vt 0.811418 0.040706
vt 0.284661 0.781039
vt 0.521443 0.910492
vt 0.747003 0.047163
vt 0.271027 0.821394
vt 0.278769 0.771158
vt 0.210341 0.788884
vt 0.215622 0.809875
vt 0.201754 0.779239
vt 0.826444 0.064274
vt 0.266046 0.827545
vt 0.741847 0.047453
vt 0.505933 0.920216
vt 0.146882 0.812257
vt 0.151388 0.823589
vt 0.825796 0.102133
vt 0.253110 0.826566
vt 0.764637 0.057832
vt 0.926963 0.110062
vt 0.278786 0.744291
vt 0.273194 0.753584
vt 0.271729 0.745099
vt 0.145829 0.802510
vt 0.153270 0.803636
vt 0.252408 0.779228
vt 0.250381 0.731653
vt 0.829707 0.072443
vt 0.828857 0.094245
vt 0.232591 0.793496
vt 0.226553 0.794114
vt 0.220606 0.828912
vt 0.733691 0.098814
vt 0.785570 0.087284
vt 0.640122 0.157372
vt 0.641863 0.150752
vt 0.641863 0.164898
vt 0.225332 0.783989
vt 0.752962 0.633785
vt 0.227808 0.764097
vt 0.219365 0.781534
vt 0.923036 0.099316
vt 0.924465 0.092369
vt 0.884150 0.082268
vt 0.739119 0.118120
vt 0.779649 0.078635
vt 0.212507 0.780145
vt 0.219658 0.793982
vt 0.193456 0.828265
vt 0.816889 0.156892
vt 0.825404 0.148787
vt 0.818115 0.166221
vt 0.731830 0.124405
vt 0.738414 0.142883
vt 0.731855 0.140399
vt 0.727565 0.128243
vt 0.727154 0.111019
vt 0.877136 0.111537
vt 0.888002 0.136788
vt 0.731727 0.492402
vt 0.184778 0.809103
vt 0.182990 0.820562
vt 0.836815 0.056291
vt 0.186383 0.766954
vt 0.859245 0.041998
vt 0.174108 0.783469
vt 0.814516 0.150951
vt 0.912583 0.144203
vt 0.921802 0.151035
vt 0.888197 0.092255
vt 0.882164 0.058766
vt 0.085740 0.959989
vt 0.892859 0.122944
vt 0.161344 0.789560
vt 0.902499 0.051513
vt 0.926756 0.080978
vt 0.919578 0.070069
vt 0.888287 0.109120
vt 0.882951 0.105365
vt 0.847516 0.079190
vt 0.897762 0.108211
vt 0.924768 0.059546
vt 0.936031 0.056780
vt 0.930391 0.066661
vt 0.756095 0.170809
vt 0.901160 0.092438
vt 0.738080 0.656499
vt 0.929663 0.132066
vt 0.136205 0.805511
vt 0.141412 0.796171
vt 0.768655 0.178161
vt 0.929955 0.092763
vt 0.933725 0.108792
s 0
f 265/1/1 261/2/1 255/3/1 262/4/1
f 12/5/2 24/6/2 47/7/2 15/8/2
f 104/9/3 100/10/3 105/11/3 106/12/3
f 509/13/4 508/14/4 479/15/4 507/16/4
f 474/17/5 483/18/5 475/19/5
f 538/20/6 494/21/6 474/17/6
f 235/22/7 225/23/7 237/24/7 246/25/7
f 390/26/8 386/27/8 389/28/8
f 389/28/9 386/27/9 387/29/9
f 386/27/10 390/26/10 382/30/10
f 242/31/11 244/32/11 252/33/11 245/34/11
f 396/35/12 385/36/12 382/30/12
f 382/30/13 383/37/13 384/38/13
f 384/38/14 383/37/14 388/39/14
f 396/35/15 399/40/15 385/36/15
f 382/30/16 385/36/16 383/37/16
f 291/41/17 343/42/17 342/43/17 293/44/17
f 385/36/18 391/45/18 383/37/18
f 383/37/19 391/45/19 388/39/19
f 400/46/20 393/47/20 397/48/20
f 397/48/21 393/47/21 391/45/21
f 391/45/22 393/47/22 392/49/22
f 391/45/23 392/49/23 388/39/23
f 392/49/24 395/50/24 388/39/24
f 400/46/25 398/51/25 393/47/25
f 398/51/26 394/52/26 393/47/26
f 393/47/27 394/52/27 392/49/27
f 392/49/28 394/52/28 395/50/28
f 401/53/29 390/26/29 389/28/29
f 402/54/30 390/26/30 401/53/30
f 338/55/31 341/56/31 342/43/31 343/42/31
f 390/26/32 396/35/32 382/30/32
f 403/57/33 399/40/33 396/35/33
f 473/58/34 470/59/34 459/60/34
f 230/61/35 283/62/35 284/63/35 229/64/35
f 395/50/36 444/65/36 442/66/36
f 428/67/37 432/68/37 394/52/37
f 272/69/38 286/70/38 234/71/38
f 232/72/39 246/25/39 271/73/39
f 389/28/40 387/29/40 440/74/40
f 387/29/41 441/75/41 440/74/41
f 401/53/42 436/76/42 418/77/42
f 401/53/43 418/77/43 402/54/43
f 418/77/44 403/57/44 402/54/44
f 44/78/45 37/79/45 33/80/45 41/81/45
f 404/82/46 397/48/46 399/40/46
f 404/82/47 398/51/47 400/46/47
f 20/83/48 27/84/48 53/85/48 43/86/48
f 395/50/49 443/87/49 444/65/49
f 148/88/50 128/89/50 149/90/50
f 478/91/51 485/92/51 502/93/51 505/94/51
f 234/71/52 286/70/52 236/95/52
f 361/96/53 353/97/53 357/98/53 362/99/53
f 78/100/54 80/101/54 81/102/54 79/103/54
f 420/104/55 408/105/55 403/57/55
f 404/82/56 400/46/56 397/48/56
f 404/82/57 405/106/57 398/51/57
f 398/51/58 405/106/58 406/107/58
f 406/107/59 423/108/59 398/51/59
f 406/107/60 433/109/60 423/108/60
f 423/108/61 439/110/61 428/67/61
f 426/111/62 418/77/62 436/76/62
f 422/112/63 419/113/63 425/114/63
f 422/112/64 421/115/64 419/113/64
f 421/115/65 420/104/65 419/113/65
f 421/115/66 410/116/66 408/105/66
f 421/115/67 408/105/67 420/104/67
f 238/117/68 237/24/68 225/23/68 224/118/68
f 138/119/69 156/120/69 158/121/69 133/122/69
f 409/123/70 404/82/70 407/124/70
f 433/109/71 439/110/71 423/108/71
f 46/125/72 45/126/72 26/127/72 30/128/72
f 533/129/73 524/130/73 462/131/73
f 249/132/74 246/25/74 241/133/74
f 130/134/75 129/135/75 126/136/75 128/89/75
f 405/106/76 413/137/76 416/138/76
f 416/138/77 406/107/77 405/106/77
f 406/107/78 437/139/78 433/109/78
f 335/140/79 334/141/79 314/142/79 333/143/79
f 174/144/80 185/145/80 184/146/80 173/147/80
f 422/112/81 410/116/81 421/115/81
f 422/112/82 429/148/82 410/116/82
f 416/138/83 430/149/83 406/107/83
f 430/149/84 437/139/84 406/107/84
f 135/150/85 130/134/85 128/89/85
f 127/151/86 117/152/86 122/153/86
f 412/154/87 410/116/87 429/148/87
f 412/154/88 411/155/88 410/116/88
f 121/156/89 97/157/89 150/158/89 147/159/89
f 413/137/90 415/160/90 416/138/90
f 155/161/91 134/162/91 135/150/91
f 129/135/92 118/163/92 126/136/92
f 126/136/93 118/163/93 117/152/93
f 217/164/94 254/165/94 273/166/94 233/167/94
f 414/168/95 415/160/95 413/137/95
f 415/160/96 430/149/96 416/138/96
f 52/169/97 56/170/97 61/171/97 50/172/97 51/173/97
f 135/150/98 134/162/98 130/134/98
f 478/91/99 479/15/99 477/174/99 486/175/99 544/176/99 542/177/99 480/178/99 481/179/99 476/180/99 487/181/99 482/182/99 541/183/99 540/184/99 539/185/99 493/186/99 494/21/99 538/20/99 474/17/99 475/19/99
f 411/155/100 427/187/100 414/168/100
f 414/168/101 417/188/101 415/160/101
f 417/188/102 424/189/102 415/160/102
f 424/189/103 430/149/103 415/160/103
f 59/190/104 4/191/104 60/192/104
f 411/155/105 431/193/105 427/187/105
f 427/187/106 417/188/106 414/168/106
f 397/48/107 391/45/107 385/36/107 399/40/107
f 130/134/108 132/194/108 129/135/108
f 56/170/109 52/169/109 44/78/109 54/195/109
f 403/57/110 418/77/110 419/113/110 420/104/110
f 4/191/111 5/196/111 6/197/111
f 163/198/112 161/199/112 142/200/112
f 163/198/113 142/200/113 152/201/113
f 142/200/114 140/202/114 152/201/114
f 140/202/115 136/203/115 134/162/115
f 118/163/116 115/204/116 117/152/116
f 117/152/117 115/204/117 114/205/117
f 143/206/118 144/207/118 141/208/118 140/202/118 142/200/118
f 11/209/119 10/210/119 13/211/119
f 258/212/120 259/213/120 269/214/120 263/215/120
f 449/216/121 454/217/121 461/218/121 453/219/121
f 188/220/122 202/221/122 196/222/122 195/223/122
f 4/191/123 31/224/123 5/196/123
f 6/197/124 7/225/124 11/209/124
f 175/226/125 172/227/125 178/228/125 182/229/125
f 161/199/126 143/206/126 142/200/126
f 51/173/127 40/230/127 35/231/127 37/79/127
f 302/232/128 328/233/128 329/234/128 301/235/128
f 461/218/129 467/236/129 466/237/129
f 11/209/130 7/225/130 10/210/130
f 239/238/131 242/31/131 245/34/131 243/239/131
f 284/63/132 247/240/132 224/118/132
f 65/241/133 67/242/133 108/243/133 111/244/133
f 252/33/134 264/245/134 276/246/134
f 6/197/135 5/196/135 7/225/135
f 308/247/136 303/248/136 296/249/136 307/250/136
f 140/202/137 141/208/137 138/119/137
f 338/55/138 336/251/138 332/252/138 337/253/138
f 194/254/139 204/255/139 190/256/139 168/257/139
f 144/207/140 159/258/140 154/259/140 141/208/140
f 229/64/141 284/63/141 224/118/141
f 41/81/142 42/260/142 58/261/142 55/262/142
f 267/263/143 244/32/143 248/264/143
f 264/245/144 252/33/144 244/32/144
f 457/265/145 454/217/145 445/266/145 456/267/145
f 133/122/146 158/121/146 165/268/146
f 165/268/147 164/269/147 133/122/147
f 133/122/148 164/269/148 137/270/148
f 221/271/149 219/272/149 224/118/149 225/23/149
f 112/273/150 116/274/150 114/205/150
f 486/175/151 484/275/151 488/276/151 489/277/151
f 62/278/152 38/279/152 63/280/152
f 281/281/153 276/246/153 264/245/153
f 38/279/154 57/282/154 63/280/154
f 12/5/155 9/283/155 16/284/155
f 16/284/156 24/6/156 12/5/156
f 47/7/157 24/6/157 43/86/157
f 302/232/158 299/285/158 304/286/158 314/142/158
f 158/121/159 166/287/159 165/268/159
f 42/260/160 38/279/160 62/278/160 58/261/160
f 164/269/161 145/288/161 162/289/161
f 332/252/162 326/290/162 356/291/162 350/292/162
f 215/293/163 223/294/163 214/295/163
f 280/296/164 260/297/164 267/263/164
f 57/282/165 38/279/165 31/224/165
f 5/196/166 8/298/166 7/225/166
f 549/299/167 550/300/167 551/301/167
f 7/225/168 8/298/168 9/283/168
f 536/302/169 537/303/169 526/304/169 531/305/169
f 156/120/170 166/287/170 158/121/170
f 166/287/171 153/306/171 165/268/171
f 145/288/172 123/307/172 162/289/172
f 230/61/173 233/167/173 280/296/173
f 124/308/174 122/153/174 117/152/174 114/205/174 116/274/174
f 38/279/175 32/309/175 31/224/175
f 89/310/176 94/311/176 121/156/176 125/312/176
f 31/224/177 8/298/177 5/196/177
f 266/313/178 260/297/178 256/314/178 264/245/178 244/32/178
f 24/6/179 16/284/179 20/83/179
f 24/6/180 20/83/180 43/86/180
f 154/259/181 151/315/181 156/120/181 138/119/181 141/208/181
f 156/120/182 147/159/182 166/287/182
f 166/287/183 150/158/183 153/306/183
f 123/307/184 108/243/184 113/316/184
f 108/243/185 110/317/185 113/316/185
f 153/306/186 111/244/186 145/288/186
f 233/167/187 273/166/187 280/296/187
f 140/202/188 134/162/188 155/161/188 152/201/188
f 261/2/189 264/245/189 256/314/189
f 38/279/190 42/260/190 32/309/190
f 541/183/191 456/267/191 445/266/191
f 283/62/192 248/264/192 247/240/192 284/63/192
f 166/287/193 147/159/193 150/158/193
f 153/306/194 150/158/194 111/244/194
f 145/288/195 111/244/195 123/307/195
f 111/244/196 108/243/196 123/307/196
f 8/298/197 21/318/197 17/319/197
f 156/120/198 151/315/198 147/159/198
f 108/243/199 74/320/199 110/317/199
f 252/33/200 274/321/200 245/34/200
f 16/284/201 19/322/201 20/83/201
f 159/258/202 139/323/202 154/259/202
f 451/324/203 495/325/203 483/18/203 474/17/203 494/21/203 493/186/203
f 74/320/204 75/326/204 110/317/204
f 67/242/205 74/320/205 108/243/205
f 150/158/206 97/157/206 111/244/206
f 111/244/207 97/157/207 65/241/207
f 119/327/208 113/316/208 115/204/208 118/163/208
f 396/35/209 390/26/209 402/54/209 403/57/209
f 25/328/210 23/329/210 21/318/210
f 521/330/211 528/331/211 472/332/211 469/333/211
f 159/258/212 160/334/212 139/323/212
f 154/259/213 139/323/213 151/315/213
f 151/315/214 125/312/214 147/159/214
f 312/335/215 317/336/215 315/337/215 309/338/215
f 212/339/216 183/340/216 213/341/216 216/342/216
f 34/343/217 23/329/217 25/328/217
f 21/318/218 18/344/218 17/319/218
f 20/83/219 19/322/219 27/84/219
f 151/315/220 139/323/220 125/312/220
f 147/159/221 125/312/221 121/156/221
f 97/157/222 69/345/222 65/241/222
f 65/241/223 66/346/223 67/242/223
f 23/329/224 22/347/224 21/318/224
f 363/348/225 364/349/225 361/96/225 362/99/225
f 190/256/226 183/340/226 169/350/226 168/257/226
f 304/286/227 330/351/227 333/143/227 314/142/227
f 65/241/228 69/345/228 66/346/228
f 66/346/229 68/352/229 67/242/229
f 54/195/230 44/78/230 41/81/230
f 184/146/231 185/145/231 189/353/231 187/354/231
f 33/80/232 37/79/232 34/343/232
f 34/343/233 35/231/233 23/329/233
f 21/318/234 22/347/234 18/344/234
f 19/322/235 28/355/235 29/356/235
f 19/322/236 29/356/236 27/84/236
f 412/154/237 434/357/237 431/193/237 411/155/237
f 255/3/238 258/212/238 263/215/238 262/4/238
f 73/358/239 93/359/239 75/326/239
f 109/360/240 93/359/240 96/361/240
f 217/164/241 231/362/241 254/165/241
f 37/79/242 35/231/242 34/343/242
f 35/231/243 22/347/243 23/329/243
f 68/352/244 71/363/244 73/358/244
f 69/345/245 94/311/245 70/364/245
f 69/345/246 70/364/246 66/346/246
f 66/346/247 70/364/247 68/352/247
f 254/165/248 231/362/248 251/365/248
f 22/347/249 26/127/249 18/344/249
f 73/358/250 71/363/250 93/359/250
f 94/311/251 72/366/251 70/364/251
f 81/102/252 86/367/252 84/368/252 79/103/252
f 452/369/253 460/370/253 462/131/253 497/371/253 496/372/253
f 1/373/254 2/374/254 3/375/254
f 28/355/255 39/376/255 29/356/255
f 39/376/256 331/377/256 322/378/256 29/356/256
f 515/379/257 512/380/257 510/381/257 513/382/257 514/383/257 516/384/257
f 89/310/258 77/385/258 94/311/258
f 194/254/259 167/386/259 173/147/259 195/223/259 196/222/259
f 44/78/260 52/169/260 37/79/260
f 36/387/261 30/128/261 22/347/261
f 22/347/262 30/128/262 26/127/262
f 26/127/263 39/376/263 28/355/263
f 71/363/264 76/388/264 82/389/264
f 71/363/265 82/389/265 93/359/265
f 37/79/266 52/169/266 51/173/266
f 26/127/267 45/126/267 39/376/267
f 203/390/268 268/391/268 259/213/268
f 72/366/269 76/388/269 71/363/269
f 331/377/270 318/392/270 322/378/270
f 478/91/271 475/19/271 483/18/271 485/92/271
f 99/393/272 92/394/272 90/395/272
f 41/81/273 33/80/273 32/309/273 42/260/273
f 79/103/274 84/368/274 82/389/274
f 76/388/275 79/103/275 82/389/275
f 88/396/276 78/100/276 77/385/276
f 77/385/277 78/100/277 76/388/277
f 82/389/278 84/368/278 85/397/278
f 82/389/279 85/397/279 87/398/279
f 268/391/280 282/399/280 285/400/280
f 51/173/281 50/172/281 40/230/281
f 121/156/282 94/311/282 69/345/282 97/157/282
f 325/401/283 323/402/283 331/377/283
f 331/377/284 323/402/284 318/392/284
f 78/100/285 79/103/285 76/388/285
f 119/327/286 118/163/286 129/135/286 131/403/286
f 30/128/287 49/404/287 46/125/287
f 367/405/288 365/406/288 370/407/288
f 482/182/289 480/178/289 542/177/289 544/176/289 545/408/289 543/409/289 468/410/289 457/265/289 456/267/289 541/183/289
f 325/401/290 310/411/290 323/402/290
f 316/412/291 307/250/291 309/338/291
f 35/231/292 40/230/292 36/387/292 22/347/292
f 85/397/293 98/413/293 87/398/293
f 423/108/294 428/67/294 394/52/294 398/51/294
f 305/414/295 303/248/295 308/247/295
f 83/415/296 80/101/296 78/100/296
f 7/225/297 9/283/297 12/5/297 10/210/297
f 368/416/298 364/349/298 363/348/298
f 61/171/299 64/417/299 50/172/299
f 504/418/300 502/93/300 501/419/300 503/420/300
f 84/368/301 86/367/301 85/397/301
f 85/397/302 95/421/302 98/413/302
f 113/316/303 112/273/303 114/205/303 115/204/303
f 324/422/304 306/423/304 310/411/304 325/401/304
f 86/367/305 95/421/305 85/397/305
f 311/424/306 313/425/306 319/426/306
f 548/427/307 525/428/307 546/429/307
f 310/411/308 306/423/308 298/430/308
f 157/431/309 104/9/309 106/12/309
f 100/10/310 95/421/310 86/367/310
f 374/432/311 375/433/311 376/434/311
f 362/99/312 358/435/312 359/436/312
f 109/360/313 96/361/313 120/437/313 112/273/313
f 185/145/314 177/438/314 270/439/314
f 293/44/315 342/43/315 313/425/315
f 313/425/316 342/43/316 349/440/316
f 104/9/317 103/441/317 100/10/317
f 103/441/318 102/442/318 100/10/318
f 373/443/319 356/291/319 376/434/319
f 356/291/320 360/444/320 376/434/320
f 384/38/321 388/39/321 441/75/321 387/29/321
f 10/210/322 12/5/322 15/8/322 14/445/322 13/211/322
f 373/443/323 350/292/323 356/291/323
f 489/277/324 488/276/324 525/428/324
f 488/276/325 491/446/325 525/428/325
f 302/232/326 301/235/326 299/285/326
f 409/123/327 407/124/327 403/57/327 408/105/327 410/116/327 411/155/327
f 349/440/328 342/43/328 344/447/328
f 491/446/329 492/448/329 508/14/329 509/13/329
f 490/449/330 492/448/330 491/446/330
f 342/43/331 341/56/331 344/447/331
f 326/290/332 332/252/332 292/450/332
f 509/13/333 531/305/333 526/304/333
f 336/251/334 338/55/334 343/42/334
f 341/56/335 345/451/335 348/452/335
f 332/252/336 347/453/336 337/253/336
f 442/66/337 388/39/337 395/50/337
f 234/71/338 271/73/338 272/69/338
f 455/454/339 459/60/339 458/455/339
f 90/395/340 92/394/340 91/456/340 88/396/340
f 232/72/341 271/73/341 234/71/341
f 464/457/342 459/60/342 455/454/342
f 199/458/343 203/390/343 201/459/343 198/460/343
f 29/356/344 139/323/344 160/334/344 27/84/344
f 530/461/345 513/382/345 510/381/345 526/304/345
f 450/462/346 458/455/346 462/131/346
f 462/131/347 471/463/347 533/129/347
f 246/25/348 232/72/348 235/22/348
f 250/464/349 249/132/349 241/133/349
f 435/465/350 422/112/350 425/114/350
f 463/466/351 455/454/351 453/219/351
f 413/137/352 405/106/352 404/82/352
f 232/72/353 234/71/353 227/467/353
f 82/389/354 87/398/354 96/361/354 93/359/354
f 253/468/355 250/464/355 243/239/355
f 243/239/356 250/464/356 241/133/356
f 205/469/357 206/470/357 190/256/357 204/255/357 200/471/357
f 498/472/358 462/131/358 524/130/358
f 235/22/359 232/72/359 225/23/359
f 241/133/360 246/25/360 237/24/360
f 450/462/361 462/131/361 460/370/361
f 232/72/362 227/467/362 225/23/362
f 243/239/363 241/133/363 239/238/363
f 239/238/364 241/133/364 237/24/364
f 462/131/365 498/472/365 497/371/365
f 225/23/366 227/467/366 221/271/366
f 221/271/367 227/467/367 226/473/367
f 469/333/368 472/332/368 465/474/368
f 465/474/369 463/466/369 466/237/369
f 253/468/370 243/239/370 245/34/370
f 412/154/371 429/148/371 438/475/371
f 180/476/372 175/226/372 182/229/372 218/477/372
f 132/194/373 133/122/373 131/403/373 129/135/373
f 485/92/374 483/18/374 495/325/374 499/478/374 502/93/374
f 221/271/375 226/473/375 220/479/375
f 449/216/376 453/219/376 455/454/376 448/480/376
f 340/481/377 345/451/377 341/56/377 338/55/377
f 239/238/378 237/24/378 238/117/378
f 279/482/379 277/483/379 275/484/379
f 275/484/380 277/483/380 274/321/380
f 70/364/381 72/366/381 71/363/381 68/352/381
f 181/485/382 176/486/382 175/226/382 180/476/382
f 240/487/383 239/238/383 238/117/383
f 26/127/384 28/355/384 19/322/384 18/344/384
f 4/191/385 59/190/385 31/224/385
f 242/31/386 239/238/386 240/487/386
f 275/484/387 274/321/387 252/33/387
f 435/465/388 438/475/388 429/148/388 422/112/388
f 32/309/389 33/80/389 34/343/389 25/328/389
f 247/240/390 240/487/390 238/117/390
f 244/32/391 242/31/391 240/487/391
f 276/246/392 275/484/392 252/33/392
f 278/488/393 275/484/393 276/246/393
f 131/403/394 133/122/394 137/270/394 119/327/394
f 247/240/395 238/117/395 224/118/395
f 248/264/396 240/487/396 247/240/396
f 244/32/397 240/487/397 248/264/397
f 138/119/398 133/122/398 132/194/398 136/203/398 140/202/398
f 304/286/399 306/423/399 324/422/399 330/351/399
f 498/472/400 527/489/400 500/490/400
f 219/272/401 221/271/401 220/479/401
f 223/294/402 224/118/402 219/272/402
f 31/224/403 63/280/403 57/282/403
f 219/272/404 220/479/404 216/342/404
f 266/313/405 244/32/405 267/263/405
f 229/64/406 228/491/406 230/61/406
f 228/491/407 223/294/407 215/293/407
f 454/217/408 449/216/408 445/266/408
f 323/402/409 310/411/409 305/414/409 318/392/409
f 496/372/410 497/371/410 499/478/410
f 499/478/411 497/371/411 498/472/411
f 500/490/412 501/419/412 502/93/412 499/478/412 498/472/412
f 228/491/413 215/293/413 210/492/413
f 280/296/414 283/62/414 230/61/414
f 223/294/415 219/272/415 214/295/415
f 214/295/416 219/272/416 216/342/416
f 216/342/417 220/479/417 222/493/417
f 522/494/418 469/333/418 467/236/418
f 260/297/419 266/313/419 267/263/419
f 467/236/420 461/218/420 454/217/420
f 451/324/421 452/369/421 495/325/421
f 495/325/422 452/369/422 496/372/422
f 495/325/423 496/372/423 499/478/423
f 120/437/424 116/274/424 112/273/424
f 245/34/425 274/321/425 277/483/425 253/468/425
f 265/1/426 281/281/426 261/2/426
f 281/281/427 264/245/427 261/2/427
f 540/184/428 541/183/428 445/266/428
f 539/185/429 540/184/429 447/495/429
f 552/496/430 553/497/430 554/498/430
f 466/237/431 467/236/431 469/333/431 465/474/431
f 233/167/432 230/61/432 211/499/432
f 100/10/433 102/442/433 101/500/433 95/421/433
f 418/77/434 426/111/434 425/114/434 419/113/434
f 206/470/435 215/293/435 214/295/435
f 213/341/436 214/295/436 216/342/436
f 256/314/437 260/297/437 257/501/437
f 209/502/438 211/499/438 210/492/438
f 339/503/439 338/55/439 337/253/439 347/453/439 346/504/439
f 255/3/440 261/2/440 256/314/440
f 467/236/441 454/217/441 468/410/441
f 468/410/442 454/217/442 457/265/442
f 484/275/443 508/14/443 492/448/443 490/449/443
f 327/505/444 329/234/444 358/435/444 357/98/444
f 18/344/445 19/322/445 16/284/445 17/319/445
f 216/342/446 222/493/446 212/339/446
f 77/385/447 76/388/447 72/366/447 94/311/447
f 257/501/448 273/166/448 254/165/448
f 126/136/449 117/152/449 127/151/449 149/90/449 128/89/449
f 547/506/450 467/236/450 468/410/450
f 445/266/451 449/216/451 448/480/451 450/462/451 451/324/451 446/507/451 447/495/451
f 208/508/452 207/509/452 205/469/452
f 217/164/453 209/502/453 208/508/453
f 205/469/454 207/509/454 206/470/454
f 255/3/455 256/314/455 254/165/455
f 254/165/456 256/314/456 257/501/456
f 359/436/457 358/435/457 328/233/457 334/141/457
f 258/212/458 255/3/458 251/365/458
f 255/3/459 254/165/459 251/365/459
f 41/81/460 55/262/460 54/195/460
f 201/459/461 217/164/461 208/508/461
f 318/392/462 305/414/462 308/247/462 322/378/462
f 190/256/463 213/341/463 183/340/463
f 547/506/464 468/410/464 543/409/464
f 493/186/465 447/495/465 446/507/465 451/324/465
f 231/362/466 217/164/466 201/459/466
f 201/459/467 208/508/467 200/471/467
f 200/471/468 208/508/468 205/469/468
f 88/396/469 91/456/469 83/415/469 78/100/469
f 228/491/470 229/64/470 224/118/470 223/294/470
f 183/340/471 212/339/471 179/510/471
f 259/213/472 258/212/472 251/365/472
f 511/511/473 529/512/473 535/513/473 531/305/473
f 481/179/474 487/181/474 476/180/474
f 521/330/475 469/333/475 522/494/475 519/514/475 517/515/475 515/379/475 516/384/475 518/516/475 520/517/475 523/518/475
f 470/59/476 471/463/476 462/131/476 458/455/476 459/60/476
f 203/390/477 231/362/477 201/459/477
f 295/519/478 297/520/478 296/249/478 303/248/478 298/430/478
f 450/462/479 448/480/479 455/454/479 458/455/479
f 482/182/480 481/179/480 480/178/480
f 169/350/481 183/340/481 179/510/481
f 547/506/482 543/409/482 545/408/482
f 90/395/483 88/396/483 77/385/483 89/310/483
f 282/399/484 268/391/484 203/390/484 199/458/484
f 200/471/485 204/255/485 194/254/485
f 519/514/486 547/506/486 545/408/486
f 285/400/487 269/214/487 259/213/487
f 259/213/488 251/365/488 231/362/488 203/390/488
f 146/521/489 135/150/489 128/89/489 148/88/489
f 201/459/490 200/471/490 198/460/490
f 198/460/491 200/471/491 194/254/491
f 283/62/492 280/296/492 267/263/492 248/264/492
f 259/213/493 268/391/493 285/400/493
f 395/50/494 394/52/494 432/68/494 443/87/494
f 170/522/495 169/350/495 171/523/495
f 171/523/496 169/350/496 179/510/496
f 414/168/497 413/137/497 404/82/497 409/123/497 411/155/497
f 194/254/498 168/257/498 167/386/498
f 519/514/499 545/408/499 517/515/499
f 171/523/500 179/510/500 178/228/500
f 371/524/501 370/407/501 365/406/501
f 546/429/502 545/408/502 544/176/502
f 190/256/503 206/470/503 214/295/503 213/341/503
f 505/94/504 502/93/504 504/418/504
f 197/525/505 199/458/505 198/460/505
f 197/525/506 198/460/506 194/254/506
f 257/501/507 260/297/507 280/296/507 273/166/507
f 197/525/508 194/254/508 196/222/508
f 363/348/509 367/405/509 372/526/509
f 363/348/510 372/526/510 368/416/510
f 162/289/511 119/327/511 137/270/511 164/269/511
f 308/247/512 307/250/512 316/412/512
f 202/221/513 197/525/513 196/222/513
f 172/227/514 170/522/514 171/523/514
f 172/227/515 175/226/515 174/144/515 173/147/515 167/386/515 170/522/515
f 195/223/516 173/147/516 186/527/516
f 186/527/517 173/147/517 184/146/517
f 367/405/518 363/348/518 365/406/518
f 305/414/519 298/430/519 303/248/519
f 172/227/520 171/523/520 178/228/520
f 162/289/521 123/307/521 113/316/521 119/327/521
f 353/97/522 326/290/522 327/505/522 357/98/522
f 186/527/523 184/146/523 187/354/523
f 365/406/524 363/348/524 362/99/524
f 387/29/525 386/27/525 382/30/525 384/38/525
f 479/15/526 478/91/526 506/528/526
f 478/91/527 505/94/527 506/528/527
f 506/528/528 505/94/528 504/418/528
f 312/335/529 319/426/529 317/336/529
f 317/336/530 319/426/530 320/529/530
f 317/336/531 320/529/531 321/530/531
f 86/367/532 105/11/532 100/10/532
f 307/250/533 296/249/533 297/520/533 309/338/533
f 188/220/534 195/223/534 186/527/534
f 188/220/535 186/527/535 187/354/535
f 365/406/536 362/99/536 359/436/536
f 546/429/537 544/176/537 548/427/537
f 305/414/538 310/411/538 298/430/538
f 301/235/539 329/234/539 327/505/539 288/531/539
f 506/528/540 504/418/540 511/511/540
f 309/338/541 297/520/541 312/335/541
f 511/511/542 504/418/542 529/512/542
f 177/438/543 185/145/543 174/144/543
f 188/220/544 187/354/544 189/353/544
f 169/350/545 170/522/545 167/386/545 168/257/545
f 361/96/546 364/349/546 366/532/546
f 50/172/547 48/533/547 36/387/547 40/230/547
f 236/95/548 226/473/548 227/467/548 234/71/548
f 548/427/549 544/176/549 489/277/549
f 489/277/550 544/176/550 486/175/550
f 477/174/551 479/15/551 484/275/551
f 466/237/552 463/466/552 453/219/552 461/218/552
f 312/335/553 297/520/553 294/534/553 311/424/553 319/426/553
f 188/220/554 189/353/554 191/535/554
f 191/535/555 189/353/555 185/145/555
f 109/360/556 112/273/556 113/316/556 110/317/556 75/326/556 93/359/556
f 374/432/557 366/532/557 375/433/557
f 376/434/558 375/433/558 377/536/558
f 525/428/559 512/380/559 515/379/559 517/515/559 545/408/559 546/429/559
f 358/435/560 362/99/560 357/98/560
f 486/175/561 477/174/561 484/275/561
f 306/423/562 304/286/562 298/430/562
f 484/275/563 479/15/563 508/14/563
f 479/15/564 506/528/564 507/16/564
f 165/268/565 153/306/565 145/288/565 164/269/565
f 352/537/566 346/504/566 347/453/566 351/538/566
f 287/539/567 294/534/567 297/520/567 295/519/567 300/540/567
f 451/324/568 450/462/568 460/370/568 452/369/568
f 176/486/569 174/144/569 175/226/569
f 361/96/570 366/532/570 353/97/570
f 366/532/571 374/432/571 353/97/571
f 353/97/572 374/432/572 376/434/572
f 519/514/573 522/494/573 467/236/573 547/506/573
f 525/428/574 548/427/574 489/277/574
f 314/142/575 334/141/575 328/233/575
f 67/242/576 68/352/576 73/358/576 75/326/576 74/320/576
f 36/387/577 48/533/577 49/404/577 30/128/577
f 311/424/578 294/534/578 293/44/578
f 311/424/579 293/44/579 313/425/579
f 176/486/580 177/438/580 174/144/580
f 336/251/581 343/42/581 291/41/581 292/450/581 332/252/581
f 353/97/582 376/434/582 360/444/582
f 208/508/583 209/502/583 210/492/583 207/509/583
f 17/319/584 16/284/584 9/283/584 8/298/584
f 314/142/585 328/233/585 302/232/585
f 365/406/586 359/436/586 334/141/586 369/541/586 371/524/586
f 490/449/587 488/276/587 484/275/587
f 298/430/588 304/286/588 299/285/588
f 298/430/589 299/285/589 295/519/589
f 8/298/590 31/224/590 32/309/590 25/328/590 21/318/590
f 509/13/591 507/16/591 506/528/591 511/511/591
f 328/233/592 358/435/592 329/234/592
f 512/380/593 525/428/593 491/446/593
f 407/124/594 404/82/594 399/40/594 403/57/594
f 491/446/595 488/276/595 490/449/595
f 300/540/596 288/531/596 287/539/596
f 295/519/597 299/285/597 300/540/597
f 289/542/598 291/41/598 293/44/598
f 228/491/599 210/492/599 211/499/599 230/61/599
f 326/290/600 360/444/600 356/291/600
f 353/97/601 360/444/601 326/290/601
f 209/502/602 217/164/602 233/167/602 211/499/602
f 465/474/603 464/457/603 455/454/603 463/466/603
f 512/380/604 491/446/604 510/381/604
f 300/540/605 301/235/605 288/531/605
f 287/539/606 288/531/606 289/542/606
f 299/285/607 301/235/607 300/540/607
f 510/381/608 491/446/608 509/13/608
f 509/13/609 511/511/609 531/305/609
f 379/543/610 381/544/610 378/545/610
f 532/546/611 514/383/611 513/382/611
f 326/290/612 292/450/612 290/547/612
f 289/542/613 288/531/613 290/547/613
f 289/542/614 290/547/614 291/41/614
f 290/547/615 292/450/615 291/41/615
f 510/381/616 509/13/616 526/304/616
f 103/441/617 107/548/617 102/442/617
f 348/452/618 345/451/618 355/549/618
f 536/302/619 531/305/619 535/513/619
f 181/485/620 180/476/620 193/550/620
f 192/551/621 181/485/621 193/550/621
f 326/290/622 290/547/622 288/531/622 327/505/622
f 534/552/623 532/546/623 513/382/623
f 136/203/624 132/194/624 130/134/624 134/162/624
f 350/292/625 351/538/625 347/453/625
f 332/252/626 350/292/626 347/453/626
f 534/552/627 513/382/627 530/461/627
f 378/545/628 352/537/628 351/538/628 379/543/628
f 340/481/629 354/553/629 380/554/629
f 176/486/630 181/485/630 192/551/630 177/438/630
f 289/542/631 293/44/631 294/534/631 287/539/631
f 215/293/632 206/470/632 207/509/632 210/492/632
f 346/504/633 352/537/633 354/553/633
f 338/55/634 339/503/634 340/481/634
f 339/503/635 346/504/635 340/481/635
f 346/504/636 354/553/636 340/481/636
f 160/334/637 139/323/637 27/84/637 29/356/637
f 322/378/638 139/323/638 29/356/638
f 90/395/639 139/323/639 322/378/639 99/393/639
f 90/395/640 89/310/640 139/323/640
f 125/312/641 139/323/641 89/310/641
