# Blender 4.1.1
# www.blender.org
mtllib Tree1.stem_lowpoly1.mtl
o Tree1.stem_lowpoly1
v -1.580552 -0.224787 1.152185
v 1.120823 12.011946 0.076388
v -1.171929 13.667796 -0.767643
v -1.747287 12.558290 0.222765
v -1.570856 13.107332 -0.572747
v 0.382146 9.463260 0.333865
v -1.151480 11.904902 -0.775531
v 0.989078 11.461428 -0.813094
v 0.129399 3.879303 0.809952
v 1.525692 -0.224787 -0.166583
v 0.721602 5.827366 -0.322418
v 0.562359 10.077554 -0.588415
v 0.566331 -0.231856 1.577396
v -0.552501 3.888310 0.888420
v -1.058924 -0.232327 -1.921841
v -0.118565 11.050690 -0.993913
v 0.727049 -0.226317 -1.742983
v -0.364409 14.313972 -0.063656
v -1.033818 14.289277 -1.258082
v -4.467700 15.397079 1.092698
v -4.431457 15.153761 0.667829
v -4.474751 14.981026 0.645453
v -0.053484 14.514492 -1.647885
v 0.282313 14.420083 -0.523629
v 3.300403 13.929013 -0.475901
v 3.262295 14.075109 -0.341227
v -0.667050 11.682922 0.479154
v -0.569424 14.167397 -1.583668
v 0.287575 13.688562 -0.807465
v -1.476566 12.897645 0.312307
v -4.658087 14.688999 0.933953
v -1.081448 10.910564 -0.001023
v 3.143392 13.618669 -0.161539
v -1.290126 3.884255 0.427339
v -1.054574 7.214506 -0.866244
v -2.132504 -0.225043 -0.550285
v -4.783823 15.382504 1.399056
v 0.493608 14.598977 -1.396977
v -1.285914 14.264842 -0.194963
vn 0.1701 0.2445 0.9546
vn 0.6787 0.2038 0.7056
vn -0.7842 0.0875 -0.6143
vn -0.9669 0.1489 0.2073
vn -0.5930 -0.4135 -0.6910
vn -0.2053 0.0020 -0.9787
vn -0.1043 -0.1751 0.9790
vn 0.9062 0.2862 -0.3114
vn -0.1634 -0.5698 0.8054
vn 0.0310 -0.2781 0.9601
vn -0.9920 0.0219 -0.1243
vn 0.2383 -0.2268 -0.9444
vn 0.8688 0.1277 0.4784
vn -0.9978 -0.0218 0.0622
vn -0.1927 0.1107 0.9750
vn 0.4155 -0.5588 -0.7177
vn 0.9921 0.0295 -0.1220
vn 0.9725 -0.0781 0.2193
vn 0.8870 0.1063 -0.4495
vn -0.9443 0.1207 0.3061
vn 0.8069 -0.5690 -0.1587
vn 0.6097 0.7913 0.0463
vn -0.5190 -0.2329 0.8225
vn 0.2132 0.0369 0.9763
vn 0.1147 0.1941 0.9743
vn 0.0982 0.1396 -0.9853
vn 0.9733 0.0505 0.2238
vn -0.5217 0.1838 0.8331
vn 0.7104 -0.4033 0.5767
vn -0.1950 0.0149 -0.9807
vn -0.8913 -0.3160 -0.3251
vn 0.4139 -0.2688 -0.8697
vn 0.6808 0.0324 -0.7317
vn 0.1400 0.1499 0.9787
vn -0.7283 0.6382 0.2497
vn -0.4354 0.0288 0.8998
vn -0.7547 0.6158 0.2263
vn 0.6116 0.7820 0.1201
vn -0.2727 0.1905 -0.9431
vn -0.5444 -0.8129 0.2071
vn -0.2183 0.4062 0.8873
vn 0.4851 -0.7403 0.4654
vn 0.0477 0.0698 -0.9964
vn -0.2381 -0.2137 -0.9474
vn -0.4644 0.5317 -0.7082
vn -0.6911 0.6559 -0.3036
vn -0.3720 0.0267 -0.9279
vn -0.4378 -0.0011 -0.8991
vn 0.2787 0.0691 0.9579
vn 0.8298 0.3887 0.4005
vn 0.8866 -0.0007 0.4625
vn -0.0646 -0.6972 0.7140
vn -0.9726 0.0348 -0.2298
vn -0.6114 -0.3278 -0.7203
vt 0.392553 0.042216
vt 0.662464 0.027709
vt 0.796317 0.066750
vt 0.940120 0.037408
vt 0.677718 0.018375
vt 0.689142 0.027221
vt 0.245247 0.022748
vt 0.256593 0.014137
vt 0.076796 0.034610
vt 0.454794 0.010598
vt 0.185905 0.037240
vt 0.123987 0.065428
vt 0.056377 0.075171
vt 0.067053 0.037448
vt 0.185134 0.040016
vt 0.335005 0.053560
vt 0.329915 0.016766
vt 0.909204 0.054581
vt 0.880485 0.069952
vt 0.362111 0.241517
vt 0.345642 0.209062
vt 1.031598 0.034558
vt 0.854484 0.046366
vt 0.842730 0.037055
vt 0.431613 0.017553
vt 0.605256 0.014836
vt 1.002151 0.087007
vt 0.939055 0.091162
vt 0.934868 0.040257
vt 0.857648 0.054750
vt 0.823049 0.184392
vt 0.806698 0.167694
vt 0.340902 0.212938
vt 0.762764 0.036471
vt 1.025156 0.037667
vt 1.057647 0.030317
vt 1.108378 0.027321
vt 1.056377 0.075171
vt 0.463534 0.014371
vt 0.261190 0.047780
vt 0.335464 0.209045
vt 0.811517 0.178507
vt 0.358457 0.226379
vt 1.141639 0.044622
vt 0.292616 0.030589
s 0
usemtl Material.001
f 30/1/1 27/2/1 2/3/1
f 11/4/2 9/5/2 13/6/2
f 36/7/3 35/8/3 15/9/3
f 36/7/4 34/10/4 35/8/4
f 3/11/5 19/12/5 28/13/5
f 16/14/6 7/15/6 3/11/6
f 4/16/7 32/17/7 30/1/7
f 29/18/8 2/3/8 8/19/8
f 37/20/9 31/21/9 30/1/9
f 30/1/10 31/21/10 4/16/10
f 35/8/11 34/10/11 32/17/11
f 16/22/12 8/19/12 12/23/12
f 13/6/13 10/24/13 11/4/13
f 32/17/14 7/15/14 35/8/14
f 1/25/15 13/6/15 14/26/15
f 23/27/16 38/28/16 29/18/16
f 11/4/17 17/29/17 12/23/17
f 38/28/18 24/30/18 29/18/18
f 10/24/19 17/29/19 11/4/19
f 36/7/20 1/25/20 34/10/20
f 25/31/21 33/32/21 12/23/21
f 30/1/22 21/33/22 37/20/22
f 27/2/23 30/1/23 32/17/23
f 27/2/24 6/34/24 2/3/24
f 14/26/25 13/6/25 9/5/25
f 17/29/26 15/35/26 35/36/26
f 6/34/27 11/4/27 12/23/27
f 34/10/28 1/25/28 14/26/28
f 12/23/29 33/32/29 2/3/29 6/34/29
f 16/22/30 35/36/30 7/37/30
f 4/16/31 7/15/31 32/17/31
f 8/19/32 25/31/32 12/23/32
f 29/18/33 8/19/33 28/38/33 23/27/33
f 30/1/34 2/3/34 18/39/34
f 3/11/35 30/1/35 18/39/35
f 32/17/36 34/10/36 9/5/36 27/2/36
f 5/40/37 30/1/37 3/11/37
f 5/40/38 21/33/38 30/1/38
f 21/33/39 5/40/39 22/41/39
f 4/16/40 31/21/40 7/15/40
f 26/42/41 2/3/41 33/32/41
f 21/33/42 20/43/42 37/20/42
f 35/36/43 16/22/43 12/23/43 17/29/43
f 28/38/44 8/19/44 16/22/44 3/44/44
f 25/31/45 8/19/45 26/42/45
f 2/3/46 26/42/46 8/19/46
f 7/15/47 22/41/47 5/40/47
f 5/40/48 3/11/48 7/15/48
f 27/2/49 9/5/49 6/34/49
f 18/39/50 2/3/50 29/18/50 24/30/50
f 11/4/51 6/34/51 9/5/51
f 3/11/52 18/39/52 39/45/52
f 19/12/53 3/11/53 39/45/53
f 22/41/54 7/15/54 31/21/54
