# Blender 4.1.1
# www.blender.org
mtllib Tree1.leaves_lowpoly1.mtl
o Tree1.leaves_lowpoly1
v -0.082313 19.379307 -8.190774
v -3.546350 14.485056 -5.585286
v 0.594952 18.070829 -8.556766
v -2.319674 29.296652 -3.539111
v 0.840522 30.012733 2.617888
v -0.515361 32.678814 -1.011375
v 5.211045 14.935043 2.405417
v 4.184182 13.534574 -1.056214
v 3.446097 14.803036 -1.564929
v 2.942714 14.597513 1.102970
v 4.256348 15.802147 2.789779
v 9.863936 15.677520 -2.894457
v 8.018032 18.412678 -6.506844
v 6.609535 19.894360 -6.415506
v 9.147014 15.392189 -0.113534
v 8.269588 14.327794 -3.218885
v 8.097145 15.363143 -4.966377
v 4.309362 17.387064 -6.748960
v -9.487796 21.115496 -0.174667
v -6.849190 18.846104 -2.710176
v -9.003864 23.180098 1.011974
v -7.409939 22.351656 -3.304023
v -6.891883 23.852840 7.188241
v -4.206305 19.862425 7.959683
v -1.338265 24.554298 5.574075
v -3.482281 25.712614 6.247826
v -7.846457 23.144709 5.617532
v -5.304713 14.690433 0.788510
v -6.148224 14.983601 -0.667720
v -5.655804 16.565825 -2.227704
v 3.630008 20.833593 7.834015
v 6.701470 24.953138 3.012275
v 1.672522 24.728525 3.422153
v 5.193336 16.338682 4.402381
v 7.869831 17.681835 2.788788
v 2.482658 19.150911 7.428625
v 0.874268 18.189566 5.919612
v 7.096751 22.556469 6.535672
v -7.891580 26.233580 -1.048092
v -6.784202 25.421515 2.552081
v -4.296423 28.328331 1.716661
v -5.544235 25.185760 -4.593525
v -5.436028 26.497503 -4.207199
v -0.644202 15.059301 2.296688
v 6.926379 28.273262 0.849477
v 6.327515 29.788132 -0.589906
v 3.598492 29.749704 -3.132016
v 5.752165 28.665924 -3.222874
v -3.451977 20.028957 -6.618157
v -5.882039 23.895161 -4.426792
v -2.307530 26.935007 -2.938834
v -3.240072 26.086296 -4.145020
v -1.967493 25.256159 2.798505
v 1.317645 25.595350 1.556418
v 0.717224 17.039572 4.269816
v 2.657651 25.815859 2.288026
v -3.932217 18.300758 3.710865
v -3.021282 25.526968 3.390107
v -0.938977 19.560812 4.356313
v -1.756468 16.897869 3.844000
v -7.888218 24.302496 0.241628
v -6.684991 21.643398 -3.970202
v -8.467145 18.414837 2.475641
v -6.420921 23.830442 2.622008
v -5.801263 19.046541 -3.597404
v -6.515216 20.700548 -3.210564
v -4.746016 16.890202 -2.675033
v 4.263446 24.084278 -4.560793
v 7.405532 23.477224 0.932777
v 5.285136 14.547289 -2.124270
v 7.745245 15.156165 1.106050
v -3.517158 28.188231 -2.873064
v -4.414013 29.154888 0.660462
v -1.612685 25.541328 1.811127
v 0.119788 27.460852 -3.817569
v 2.468805 30.311333 -1.753207
v 2.409954 27.247196 2.201368
v 2.405589 27.891506 2.038625
v -3.875721 15.861776 -1.846612
v -1.400399 21.064594 -7.091372
v 0.493433 14.724107 -1.343609
v 2.517605 15.246849 -2.176715
v -0.696069 22.132622 -6.173972
v 1.766926 21.672071 -4.975396
v -0.803906 14.275583 -0.055166
v -4.498935 15.397416 1.115338
v -4.725309 15.099519 1.174557
v -0.597612 14.261527 -1.612259
v 0.238724 14.626680 -1.303725
v 0.241972 14.540462 -0.423696
v 3.123121 13.613726 -0.145287
v 3.182271 13.770995 -0.718165
v -4.189017 15.179771 0.745415
v -4.403348 14.888267 0.409906
v -4.554615 14.820553 0.751945
v 0.726061 21.688620 -5.782554
v -0.983869 24.304766 -6.347590
v -1.279221 13.221052 -6.238969
v -0.093844 13.005079 -4.789312
v 2.659696 14.921937 -5.645123
v -4.482951 17.147249 -1.635610
v 1.301745 19.681480 -7.317993
v -1.382934 18.245819 -8.592943
v -3.114141 17.013414 -8.064112
v 3.340966 16.666731 -5.892622
v -0.456665 16.071804 -8.727363
v -4.804916 18.051767 -3.971852
v -4.280939 16.200439 -6.221981
v -3.741946 14.710645 -3.694131
v -1.029874 14.332726 -1.332464
v 1.125380 14.593541 -1.660076
v 0.353489 13.379493 -7.281740
v 1.532430 14.544841 -7.697458
v -2.186423 13.483794 -4.040561
v -2.086798 31.736517 1.492257
v -0.883898 32.917183 0.266590
v -2.563434 30.570538 -2.091521
v -3.858076 29.895464 -1.472427
v -2.243399 30.053886 2.824049
v 0.311306 32.458916 0.923491
v 0.718224 32.300583 -0.666153
v 2.618727 30.184984 0.127288
v 0.130702 30.181923 -3.300129
v 1.511007 28.058922 2.901218
v 3.381511 13.815669 -0.393213
v 4.108573 14.564093 1.940874
v 6.892345 14.760810 1.596053
v 5.370672 13.415871 0.699214
v 3.017897 15.085883 -3.072622
v 10.042732 20.157173 1.304326
v 4.132156 15.796217 -6.028713
v 10.204187 16.946606 -4.105001
v 8.596240 21.722347 2.259455
v 4.672365 20.745663 -5.902739
v 10.151751 21.208393 -3.439135
v 3.097337 19.182108 -6.046110
v 10.262483 22.367559 0.232964
v 9.711731 23.231964 -1.301498
v 10.985244 20.026707 -2.342418
v 9.628950 18.594498 -5.116039
v 8.105122 17.203453 -6.353828
v 10.719873 18.774448 0.214674
v 10.950192 18.269854 -1.588313
v -6.702131 18.996719 4.381392
v -8.818270 22.948805 -0.512208
v -7.966766 17.436195 -1.569907
v -7.992889 23.387159 3.100438
v -9.122629 19.686665 1.894539
v -6.422633 17.547506 -2.434160
v -2.475583 19.076551 7.075511
v -1.606129 22.849386 7.433249
v -7.127794 22.329781 7.158412
v -5.419779 25.426689 3.705833
v -3.305124 25.856949 4.492358
v -7.981391 21.678232 3.994306
v -4.826642 25.168114 7.365448
v -8.079903 21.914135 6.291841
v -5.441973 23.299604 7.946993
v -0.704221 21.911612 6.612479
v -1.365029 19.333174 4.697215
v -6.005973 19.790974 6.784642
v -3.483077 23.805819 7.997412
v -1.896552 20.252176 7.548614
v -3.482201 18.256403 6.354680
v -4.478053 18.642557 7.031223
v -5.066492 14.516695 -0.586575
v -7.443685 16.136728 -2.102228
v -8.323575 16.836065 0.494011
v -9.369778 19.447830 0.219358
v -6.957674 15.405298 -2.039723
v -4.110799 15.965708 -1.025832
v -7.371493 15.266356 -0.087343
v -4.450221 15.262156 0.572581
v 5.145299 19.241522 7.448580
v 8.598129 20.382072 2.846314
v 5.250729 22.637608 7.043237
v 2.044955 23.950264 5.573607
v 4.944807 24.151512 5.900406
v 4.893725 25.667843 4.143948
v -0.579473 19.934900 5.690075
v 8.199472 22.977602 4.433082
v -0.440987 21.272303 6.119525
v 6.532863 20.482918 7.301084
v 7.862852 20.568747 5.590985
v 2.302592 15.676282 2.173087
v 3.337603 16.966185 5.499949
v 6.873039 18.697790 6.165025
v -3.827471 27.770174 1.850142
v -4.972958 27.843857 -3.147404
v -7.112407 28.007751 -0.162171
v -1.153633 14.320401 -0.261155
v -2.322062 14.992778 1.208385
v 2.396993 15.218322 0.761538
v 7.459056 28.009506 -1.753559
v 3.555577 28.083502 -4.422557
v 2.060682 24.722408 -5.159327
v 1.005680 26.284502 -4.734644
v -3.364193 22.800606 -6.306997
v -4.284062 25.280127 -4.666997
v -7.737013 23.811752 -1.060213
v 4.958524 25.930212 2.358867
v -1.862323 24.360392 3.237509
v -7.450740 22.915018 3.492916
v -7.204835 20.609545 -2.954059
v 7.608880 24.838240 -2.885675
v 6.572167 24.477966 -3.898872
v 2.781958 15.912807 1.937412
v 7.078693 16.576748 2.217166
v 7.337265 16.056105 2.361984
v 4.097114 29.561836 -0.180768
v -2.893116 27.449299 -3.221538
v 0.987870 25.537102 1.012479
v -0.948590 25.857716 2.561664
v 0.860426 24.619911 -5.740758
v -0.152756 20.926733 -6.437911
v -4.203342 19.177521 -5.712138
v 7.295090 14.526952 -0.514143
v 2.364217 21.885029 -4.641364
v 7.591508 23.948015 -0.451252
v 8.527552 14.520975 -1.498317
v -4.986465 18.188103 4.055183
v -7.432774 24.230207 1.695845
v -0.716162 23.615746 4.400917
v -3.757021 25.206223 2.963582
v -5.225076 16.558313 -2.832789
v -6.962340 15.679076 1.406255
v -5.259307 17.040968 2.888285
v 6.737478 24.780449 1.434398
v 8.091434 22.868847 1.633563
v -4.455991 28.990105 -0.348026
v -0.182708 16.145033 3.700356
v -4.053773 15.877520 0.308628
v -0.482148 18.401501 4.249378
v -0.830765 23.196819 -6.784632
v -0.055427 25.638056 -4.670742
v -0.681938 26.699146 -3.617238
v -7.017654 23.499378 -2.420680
v 5.489576 26.869402 2.052034
v -0.273124 24.421398 4.676453
v -1.107755 25.258364 3.529561
v 0.722263 24.902527 1.205264
v 0.183019 24.652332 2.270705
v -2.781662 25.858328 2.274721
v -0.971540 19.679831 5.150435
v 0.388491 23.232410 6.226549
v -4.456141 16.466543 1.639322
v -4.144886 17.325535 3.227054
v 7.751890 26.953041 -0.283822
v 1.788512 20.573614 -5.551153
v 5.415531 13.213748 -0.984058
v 5.191625 30.282829 -1.656458
v 0.681171 25.733477 1.965742
v 1.640730 29.289291 -2.880635
v -2.373189 28.355780 3.370361
v 2.488119 18.222376 -7.273900
v -2.800137 15.495417 -1.455638
v 2.472423 15.837683 -0.549044
v 2.341424 22.527842 -4.955491
v 1.811898 21.675352 -5.455361
v 3.162585 14.292053 -0.232748
v -0.060317 14.522007 -1.627337
vn -0.4845 0.3335 -0.8087
vn 0.4057 0.8948 -0.1866
vn -0.9172 0.0566 -0.3944
vn 0.1629 -0.7539 0.6364
vn 0.8377 -0.3824 -0.3899
vn 0.0840 0.7568 -0.6482
vn 0.4197 0.1571 -0.8940
vn 0.9952 -0.0292 0.0931
vn -0.4595 -0.4191 -0.7831
vn 0.0012 -0.9889 -0.1483
vn -0.6127 -0.1071 -0.7830
vn 0.8764 0.0557 -0.4784
vn 0.2856 0.6702 -0.6850
vn -0.9563 0.0734 -0.2831
vn -0.9824 -0.1591 -0.0979
vn -0.4459 -0.6094 0.6556
vn 0.9213 -0.3745 -0.1044
vn -0.4233 0.8845 0.1961
vn 0.5656 -0.8242 -0.0262
vn 0.7001 0.1793 0.6912
vn 0.1221 -0.4408 -0.8893
vn -0.0278 -0.7479 0.6633
vn -0.7248 0.5011 0.4728
vn -0.6944 0.4852 0.5314
vn -0.5767 0.5627 -0.5923
vn -0.6898 0.3719 -0.6212
vn 0.4756 0.4491 -0.7564
vn -0.8596 0.5088 -0.0474
vn -0.1433 -0.3778 0.9147
vn 0.0966 -0.2563 0.9618
vn 0.3936 0.9188 0.0304
vn 0.5003 -0.8449 0.1891
vn 0.3113 -0.5606 0.7673
vn -0.7700 -0.4063 0.4920
vn 0.2427 -0.7131 0.6577
vn 0.7768 -0.4351 0.4552
vn -0.6311 -0.5757 -0.5199
vn 0.5307 -0.5202 -0.6691
vn -0.1761 -0.9754 -0.1330
vn -0.1131 -0.9556 -0.2723
vn -0.3295 0.3171 -0.8893
vn -0.1260 -0.6518 -0.7479
vn 0.5894 0.3494 -0.7284
vn -0.1695 0.2580 -0.9512
vn -0.1406 0.2562 -0.9564
vn 0.2286 0.3844 -0.8944
vn -0.2677 -0.7903 0.5511
vn -0.5451 -0.2218 -0.8085
vn -0.2197 0.9739 0.0579
vn -0.5047 -0.3398 0.7936
vn -0.7758 -0.1187 0.6197
vn 0.5842 0.8065 -0.0910
vn 0.6796 0.7027 -0.2107
vn -0.9267 0.3139 -0.2065
vn -0.6577 0.7508 0.0613
vn 0.5010 0.8569 0.1210
vn -0.9862 0.1552 -0.0582
vn 0.5238 0.4237 0.7390
vn -0.7520 0.6256 -0.2077
vn 0.6913 -0.3354 0.6400
vn -0.0244 -0.0051 0.9997
vn -0.7006 -0.5919 0.3986
vn 0.7507 -0.1809 0.6354
vn -0.6910 0.6040 0.3970
vn 0.7180 -0.3293 0.6132
vn -0.7324 -0.5777 0.3603
vn -0.5122 0.6116 0.6030
vn 0.8224 -0.5643 -0.0724
vn -0.2802 -0.9515 -0.1271
vn -0.1253 0.7492 0.6504
vn 0.9292 -0.2563 0.2664
vn 0.9239 0.3793 -0.0504
vn -0.3780 0.8100 0.4482
vn 0.2760 -0.6936 0.6653
vn 0.3503 0.7140 0.6062
vn 0.8139 0.5784 -0.0539
vn 0.5350 -0.7925 0.2929
vn -0.0535 0.9882 0.1433
vn -0.0906 0.4670 0.8796
vn 0.8713 0.1083 0.4787
vn -0.5229 -0.2110 0.8258
vn -0.6209 -0.4310 0.6548
vn 0.8657 -0.3475 0.3602
vn -0.2545 -0.9399 0.2277
vn 0.2894 -0.9459 0.1466
vn 0.8985 -0.2713 0.3450
vn -0.0690 -0.8960 0.4387
vn 0.0787 0.2757 -0.9580
vn -0.8396 -0.0509 -0.5408
vn -0.1526 0.9241 -0.3502
vn 0.3042 0.4557 0.8365
vn 0.3269 -0.9030 0.2787
vn -0.3582 -0.7185 0.5962
vn -0.3509 -0.9352 -0.0468
vn -0.5645 -0.7463 0.3527
vn -0.8992 -0.3089 -0.3098
vn 0.3328 0.7131 -0.6170
vn 0.5762 0.1046 0.8106
vn -0.0124 0.9020 0.4315
vn 0.4536 0.1108 -0.8843
vn -0.2245 0.3306 -0.9167
vn -0.0919 0.6223 -0.7773
vn 0.0854 -0.8832 0.4611
vn -0.0452 0.7536 -0.6558
vn -0.6652 -0.5833 0.4662
vn 0.7014 0.5486 0.4551
vn -0.9297 -0.3679 0.0170
vn -0.1937 -0.6364 -0.7466
vn -0.7475 0.6238 -0.2282
vn -0.0492 -0.1153 -0.9921
vn 0.0751 -0.9921 0.1001
vn -0.3147 -0.5053 -0.8035
vn 0.1566 0.5264 -0.8357
vn 0.8327 -0.2190 -0.5086
vn 0.6926 0.5490 -0.4680
vn -0.5481 -0.0398 0.8355
vn -0.1310 0.2206 -0.9665
vn -0.1319 0.6035 -0.7864
vn 0.3186 -0.4761 0.8197
vn -0.8642 0.1283 -0.4864
vn -0.0984 0.8701 0.4830
vn -0.9117 0.2811 0.2995
vn -0.4847 -0.5336 -0.6930
vn -0.9028 -0.4299 0.0054
vn 0.2340 0.6154 0.7526
vn 0.4718 0.0212 0.8815
vn -0.5286 -0.3379 0.7787
vn -0.2276 -0.6930 0.6841
vn -0.3224 -0.9075 -0.2693
vn -0.2887 -0.7455 0.6008
vn -0.6667 -0.5801 0.4679
vn 0.1737 -0.8800 0.4421
vn -0.6520 -0.6053 -0.4566
vn 0.4678 -0.3746 -0.8005
vn -0.3556 0.5060 -0.7858
vn -0.0101 -0.9521 0.3055
vn 0.4955 -0.8120 0.3085
vn -0.5882 -0.3075 -0.7480
vn -0.7802 0.5266 -0.3377
vn 0.8846 0.4653 -0.0307
vn -0.3638 0.1408 -0.9208
vn 0.5588 0.8088 0.1836
vn -0.5578 0.3952 -0.7298
vn -0.3876 0.8057 0.4480
vn 0.3485 0.1022 0.9317
vn 0.4083 0.8474 0.3395
vn -0.7655 -0.2122 -0.6075
vn -0.8717 0.1687 -0.4601
vn -0.6801 -0.2237 0.6982
vn 0.0250 0.3995 -0.9164
vn 0.4931 -0.0384 -0.8691
vn 0.4147 0.8537 0.3151
vn 0.3239 -0.9458 0.0239
vn 0.2384 0.2001 -0.9503
vn -0.4867 0.0009 -0.8736
vn -0.6279 0.2814 0.7256
vn -0.6148 -0.7881 0.0304
vn -0.9135 0.0521 -0.4034
vn -0.3841 -0.9220 -0.0483
vn 0.0869 -0.4875 -0.8688
vn -0.0646 -0.9373 0.3425
vn 0.4885 -0.0818 -0.8687
vn -0.6206 -0.4923 -0.6103
vn -0.8315 -0.4837 0.2732
vn -0.3065 0.4461 -0.8409
vn 0.4631 0.4036 -0.7890
vn 0.3644 0.7825 -0.5050
vn 0.3481 0.3474 -0.8707
vn -0.8484 0.1306 -0.5130
vn 0.0431 0.2898 -0.9561
vn -0.1330 0.0046 -0.9911
vn 0.7722 -0.1290 -0.6221
vn 0.5965 -0.7977 -0.0888
vn -0.4885 -0.7533 0.4404
vn -0.4298 -0.5622 -0.7065
vn 0.3807 0.6772 -0.6296
vn 0.0400 0.5930 0.8042
vn 0.1848 -0.9035 0.3866
vn 0.6830 0.5100 0.5229
vn -0.7082 0.7058 -0.0152
vn -0.3496 0.6734 -0.6514
vn -0.7479 0.6629 0.0352
vn 0.3395 0.9398 -0.0382
vn -0.0714 0.7524 0.6548
vn -0.5592 0.7517 -0.3497
vn -0.5975 0.7394 -0.3102
vn 0.7340 0.6774 0.0481
vn -0.1598 0.6442 -0.7479
vn 0.7242 0.3765 0.5778
vn 0.0284 0.1866 -0.9820
vn 0.1050 0.2351 0.9663
vn 0.6387 -0.6241 -0.4500
vn 0.3573 0.1731 -0.9178
vn 0.3903 0.5677 0.7248
vn -0.3518 -0.8539 0.3834
vn -0.1634 -0.5446 0.8226
vn -0.2536 -0.9614 0.1064
vn 0.7123 0.2606 0.6517
vn 0.5928 -0.5510 0.5874
vn 0.9017 0.1127 0.4174
vn -0.9848 0.0354 -0.1702
vn 0.6942 -0.3820 0.6100
vn 0.1167 -0.5244 -0.8434
vn 0.0620 0.0116 -0.9980
vn 0.6474 -0.7620 -0.0115
vn 0.7010 -0.1969 0.6854
vn 0.9673 -0.1162 -0.2256
vn 0.9344 -0.3428 -0.0967
vn 0.4760 0.4407 -0.7611
vn 0.3438 -0.8833 0.3187
vn 0.4152 0.8462 0.3339
vn 0.8995 0.4080 -0.1559
vn 0.6932 -0.1283 -0.7092
vn 0.6536 0.5389 -0.5315
vn 0.8772 0.0846 -0.4726
vn -0.6329 -0.0934 -0.7686
vn 0.8732 -0.4438 0.2017
vn 0.9837 0.0983 0.1502
vn 0.5334 0.5740 0.6213
vn 0.6149 -0.4764 -0.6284
vn 0.7004 -0.2777 0.6575
vn -0.0890 -0.9305 -0.3552
vn -0.6068 0.7632 0.2221
vn -0.9678 0.0921 0.2344
vn 0.7154 -0.6894 0.1137
vn -0.3990 -0.9151 -0.0584
vn -0.5544 -0.7871 0.2703
vn -0.3147 -0.4907 0.8125
vn -0.6494 0.5906 -0.4790
vn -0.9362 0.3122 -0.1614
vn -0.8190 -0.1263 -0.5597
vn -0.7579 0.6249 -0.1871
vn -0.5351 -0.2265 -0.8138
vn 0.7023 -0.7072 0.0814
vn -0.9880 -0.0343 0.1507
vn 0.1293 -0.6712 0.7299
vn -0.8504 0.2228 -0.4766
vn -0.8023 -0.1495 0.5779
vn -0.3196 -0.1928 -0.9277
vn -0.4910 0.1536 -0.8575
vn -0.9132 -0.3425 -0.2210
vn -0.2422 -0.2772 -0.9298
vn -0.3834 -0.7223 0.5756
vn -0.8603 0.3606 0.3603
vn 0.5046 0.5912 0.6292
vn 0.2748 -0.6435 0.7144
vn 0.3992 -0.9131 -0.0833
vn 0.8061 0.3737 0.4588
vn -0.4456 0.8850 0.1348
vn -0.4708 -0.4655 0.7494
vn -0.3988 -0.9159 0.0466
vn -0.5415 -0.3517 0.7636
vn -0.2115 0.3533 0.9113
vn -0.6413 -0.1131 0.7589
vn -0.3839 -0.0806 0.9198
vn -0.6921 0.0932 0.7157
vn 0.9313 0.2910 0.2192
vn -0.4875 -0.8201 0.2995
vn 0.6501 -0.0390 0.7589
vn -0.2423 -0.9521 0.1868
vn 0.5454 -0.8216 0.1660
vn 0.2302 -0.4587 0.8582
vn 0.2238 -0.0231 0.9744
vn -0.8518 -0.4913 -0.1817
vn 0.5616 -0.8268 0.0333
vn 0.9891 -0.0947 0.1124
vn -0.0272 -0.1744 -0.9843
vn -0.8450 -0.1274 -0.5194
vn 0.5511 -0.6665 -0.5020
vn 0.0171 -0.3736 -0.9274
vn 0.3136 -0.2414 0.9183
vn -0.1174 -0.6603 0.7417
vn 0.8360 -0.3615 0.4128
vn 0.2288 0.2488 0.9411
vn -0.6842 0.5434 -0.4864
vn 0.9657 -0.0103 0.2594
vn -0.3392 0.8438 0.4159
vn 0.5478 0.7191 0.4277
vn -0.0778 0.6532 0.7532
vn -0.0024 0.8828 0.4698
vn 0.7876 -0.1040 0.6073
vn 0.5106 0.8559 -0.0820
vn -0.3800 0.0765 0.9218
vn 0.5932 -0.6959 0.4048
vn -0.2177 -0.8853 0.4110
vn -0.9150 0.2279 0.3329
vn -0.3509 0.9001 -0.2584
vn 0.3795 0.8436 0.3800
vn 0.0864 0.5549 -0.8274
vn -0.6335 0.6012 -0.4870
vn -0.4831 0.6200 0.6183
vn 0.3938 0.3752 0.8391
vn -0.6100 -0.3415 0.7151
vn 0.1926 -0.9608 0.1993
vn -0.7767 0.2361 -0.5840
vn -0.4834 -0.8719 -0.0778
vn 0.3538 -0.9350 -0.0245
vn -0.2818 -0.7119 0.6433
vn -0.3304 -0.9435 0.0248
vn -0.8972 -0.3897 -0.2076
vn 0.0921 0.7373 0.6693
vn -0.1399 -0.1455 0.9794
vn -0.1719 -0.9310 0.3219
vn 0.2837 0.0832 -0.9553
vn 0.8797 0.4564 0.1338
vn 0.7088 0.4950 -0.5026
vn 0.1729 0.5327 0.8285
vn 0.6348 0.6510 -0.4162
vn -0.2723 0.5642 -0.7794
vn 0.0226 0.9322 -0.3612
vn -0.5925 0.0819 -0.8014
vn 0.8328 0.0473 0.5515
vn -0.3618 0.4172 -0.8337
vn 0.3104 0.4461 -0.8394
vn -0.6739 -0.1703 -0.7189
vn 0.0003 0.1193 0.9929
vn -0.1045 -0.9802 0.1683
vn -0.6363 0.0712 -0.7681
vn 0.1362 0.7373 -0.6617
vn 0.8650 -0.1628 -0.4746
vn -0.0952 0.8473 -0.5226
vn -0.6953 0.6934 -0.1891
vn -0.7817 0.4563 0.4251
vn 0.4096 -0.8932 0.1855
vn -0.6362 0.3040 0.7091
vn -0.6691 0.1169 0.7340
vn 0.7507 -0.5159 0.4127
vn -0.0872 0.9256 -0.3682
vn -0.2576 -0.3128 0.9142
vn 0.0789 0.4401 -0.8945
vn -0.9938 -0.0630 -0.0917
vn 0.9978 0.0119 -0.0645
vn 0.1412 -0.0472 0.9889
vn 0.4026 0.8488 0.3428
vn -0.0535 -0.9971 0.0542
vn -0.9092 0.1512 0.3879
vn 0.6009 -0.5444 0.5853
vn 0.2743 -0.4415 0.8543
vn 0.5672 -0.8079 0.1598
vn -0.2578 0.8025 -0.5381
vn -0.4911 -0.4812 0.7261
vn -0.9151 0.1304 -0.3816
vn -0.9139 -0.4037 -0.0431
vn 0.4249 0.0695 -0.9026
vn 0.4614 0.3831 -0.8002
vn 0.2647 0.4350 -0.8606
vn 0.4385 -0.8502 0.2912
vn -0.8790 -0.4333 -0.1992
vn -0.9126 -0.3553 0.2024
vn -0.0704 -0.6376 0.7671
vn -0.7071 -0.5792 -0.4057
vn -0.4865 -0.3148 -0.8150
vn -0.5849 -0.7198 -0.3738
vn 0.0955 -0.9949 -0.0330
vn -0.3338 -0.9254 0.1793
vn 0.0394 0.6651 0.7457
vn -0.2328 0.4495 0.8624
vn 0.3209 0.6403 0.6979
vn 0.6735 0.7088 -0.2099
vn -0.4698 0.8687 0.1571
vn -0.4443 -0.3235 -0.8354
vn 0.0900 -0.6881 0.7200
vn -0.7340 -0.5561 0.3899
vn 0.0007 -0.2347 0.9721
vn -0.4420 0.8552 0.2707
vn 0.8978 0.3659 0.2451
vn 0.8779 -0.2990 0.3741
vn 0.3983 0.6163 -0.6794
vn -0.6665 -0.2054 0.7167
vn 0.2290 -0.7615 0.6063
vn -0.2848 -0.2375 -0.9287
vn -0.2464 0.1536 -0.9569
vn 0.9876 0.0641 0.1432
vn 0.7585 -0.6049 -0.2422
vn 0.8962 -0.0722 0.4378
vn 0.2629 0.5866 -0.7661
vn -0.1621 0.0317 0.9863
vn 0.2738 0.3543 -0.8942
vn -0.5440 -0.8360 -0.0725
vn -0.0749 -0.9252 0.3720
vn -0.7577 -0.3964 -0.5184
vn -0.2873 -0.7727 0.5660
vn 0.4415 0.8853 0.1461
vn -0.7909 0.2893 0.5393
vn -0.6866 0.5939 -0.4194
vn -0.0457 0.2332 -0.9713
vn -0.9015 -0.3824 -0.2025
vn -0.1084 0.9913 0.0746
vn 0.2072 -0.9264 0.3144
vn 0.5543 -0.8195 0.1456
vn -0.7096 -0.5406 -0.4520
vn -0.1996 0.5045 -0.8400
vn -0.6967 -0.1280 0.7059
vn 0.7535 0.6290 -0.1914
vn 0.2460 -0.0584 -0.9675
vn 0.6632 0.2599 -0.7019
vn 0.6258 0.3220 -0.7104
vn -0.1501 -0.2525 0.9559
vn -0.1648 0.6775 -0.7168
vn 0.0840 0.2662 0.9602
vn -0.0060 0.9002 0.4354
vn 0.2451 -0.2376 -0.9399
vn 0.3547 0.4608 -0.8135
vn 0.2008 -0.8651 -0.4597
vt 0.073842 0.440243
vt 0.105069 0.398279
vt 0.122066 0.508878
vt 0.347919 0.205263
vt 0.340282 0.214491
vt 0.358781 0.227740
vt 0.342861 0.210606
vt 0.331948 0.202270
vt 0.913691 0.128291
vt 0.937655 0.091706
vt 1.033020 0.115620
vt 0.960670 0.366069
vt 0.964078 0.298598
vt 1.010618 0.312972
vt 0.072372 0.715735
vt 0.038767 0.803108
vt 0.021818 0.734650
vt 1.006632 0.699548
vt 1.021273 0.735671
vt 0.978243 0.738085
vt 0.983591 0.607260
vt 0.992692 0.555160
vt 0.989120 0.604864
vt 0.037903 0.264309
vt 0.074814 0.237751
vt 0.136999 0.270290
vt 0.046023 0.194771
vt 0.951740 0.406076
vt 0.967886 0.467190
vt 0.998951 0.447368
vt 0.077461 0.557771
vt 0.040155 0.525184
vt 0.048373 0.484141
vt 0.189535 0.396981
vt 0.158928 0.456442
vt 0.147055 0.349639
vt 0.225360 0.315396
vt 0.124710 0.066828
vt 0.228977 0.165546
vt 0.233368 0.230310
vt 0.921557 0.244481
vt 1.002126 0.086972
vt 1.046023 0.194771
vt 0.681145 0.855895
vt 0.630704 0.851882
vt 0.676634 0.837725
vt 0.056655 0.366971
vt 0.023831 0.303309
vt 0.741441 0.239371
vt 0.784669 0.240591
vt 0.740215 0.286729
vt 0.454974 0.923806
vt 0.358957 0.858074
vt 0.394500 0.833349
vt 0.478885 0.881110
vt 0.273283 0.890788
vt 0.222057 0.923415
vt 0.154164 0.887417
vt 0.212187 0.860618
vt 0.933559 0.904299
vt 1.018768 0.924696
vt 0.857181 0.909852
vt 0.316595 0.864424
vt 0.446317 0.810929
vt 0.523746 0.835601
vt 0.485163 0.840049
vt 0.767886 0.899148
vt 0.790065 0.858860
vt 0.815819 0.305599
vt 0.780746 0.331206
vt 0.768800 0.308215
vt 0.757564 0.356228
vt 0.717457 0.239120
vt 0.760835 0.189847
vt 0.751410 0.191368
vt 0.807004 0.167411
vt 0.818143 0.188882
vt 0.855831 0.217252
vt 0.837835 0.209391
vt 0.860310 0.271736
vt 0.826617 0.234988
vt 0.944923 0.337608
vt 0.933918 0.564250
vt 0.962797 0.619945
vt 0.920767 0.692459
vt 0.877160 0.467371
vt 0.903514 0.457844
vt 0.850096 0.539520
vt 0.918549 0.504924
vt 0.064913 0.650511
vt 0.432088 0.400186
vt 0.410195 0.439255
vt 0.424814 0.327309
vt 0.279863 0.403956
vt 0.247593 0.530512
vt 0.247074 0.437720
vt 0.476553 0.732377
vt 0.420995 0.710816
vt 0.489122 0.696638
vt 0.453493 0.482531
vt 0.488825 0.482550
vt 0.442927 0.555232
vt 0.556922 0.477822
vt 0.556922 0.548849
vt 0.541834 0.462264
vt 0.472033 0.763515
vt 0.531366 0.686740
vt 0.497658 0.762186
vt 0.414910 0.588435
vt 0.389888 0.596060
vt 0.392897 0.547562
vt 0.446547 0.603754
vt 0.423968 0.549226
vt 0.489159 0.798774
vt 0.543438 0.451584
vt 0.530889 0.443525
vt 0.505309 0.292658
vt 0.498795 0.609592
vt 0.473280 0.591695
vt 0.547189 0.573436
vt 0.529193 0.499585
vt 0.338434 0.236813
vt 0.357933 0.226451
vt 0.377341 0.271039
vt 0.393051 0.334822
vt 0.349694 0.306490
vt 0.322961 0.369269
vt 0.307755 0.298764
vt 0.376482 0.699037
vt 0.293744 0.219855
vt 0.271584 0.232973
vt 0.330499 0.217766
vt 0.293670 0.263367
vt 0.265365 0.308784
vt 0.617405 0.667211
vt 0.668345 0.643535
vt 0.686428 0.704838
vt 0.749480 0.413719
vt 0.753087 0.508107
vt 0.708068 0.507019
vt 0.762155 0.567862
vt 0.770311 0.607656
vt 0.724334 0.590786
vt 0.681920 0.798452
vt 0.662656 0.845303
vt 0.631418 0.760802
vt 0.691087 0.451978
vt 0.652874 0.464120
vt 0.698929 0.348280
vt 0.688238 0.571115
vt 0.733248 0.674105
vt 0.696538 0.219729
vt 0.722160 0.744888
vt 0.631273 0.523358
vt 0.658847 0.569763
vt 0.578647 0.631168
vt 0.615763 0.456143
vt 0.594871 0.399735
vt 0.281433 0.031686
vt 0.394370 0.013547
vt 0.404206 0.134814
vt 0.713709 0.297290
vt 0.758505 0.365724
vt 0.626923 0.855278
vt 0.643336 0.866192
vt 0.670394 0.881832
vt 0.486619 0.846655
vt 0.200757 0.717040
vt 0.211091 0.766455
vt 0.162190 0.802975
vt 0.290777 0.651068
vt 0.297721 0.718979
vt 0.229785 0.817846
vt 0.410178 0.840251
vt 0.845672 0.051694
vt 0.560389 0.152173
vt 0.809662 0.184577
vt 0.892413 0.859712
vt 0.838141 0.841885
vt 0.873875 0.794596
vt 0.740073 0.758565
vt 0.762216 0.678199
vt 0.775798 0.766720
vt 0.804402 0.811108
vt 0.926046 0.820035
vt 0.134564 0.628413
vt 0.176434 0.740749
vt 0.072924 0.862566
vt 0.562902 0.369190
vt 0.531403 0.790753
vt 0.577516 0.802767
vt 0.224712 0.564608
vt 0.235726 0.530576
vt 0.388242 0.647362
vt 0.209757 0.663601
vt 0.827058 0.334773
vt 0.857985 0.327866
vt 0.178691 0.854682
vt 0.967988 0.649202
vt 1.015437 0.497462
vt 0.449297 0.388364
vt 0.260233 0.643464
vt 0.378135 0.610262
vt 0.357002 0.661855
vt 0.322855 0.661158
vt 0.218432 0.454424
vt 0.648748 0.361250
vt 0.596721 0.300526
vt 0.227464 0.318945
vt 0.250815 0.323423
vt 0.251568 0.366879
vt 0.014112 0.816124
vt 0.895706 0.206787
vt 0.822233 0.193200
vt 0.247885 0.599884
vt 0.777682 0.630878
vt 0.164791 0.869271
vt 0.032111 0.880232
vt 0.572128 0.723223
vt 0.364227 0.427509
vt 1.018397 0.622084
vt 0.799664 0.650296
vt 0.820607 0.599743
vt 0.848582 0.667395
vt 0.879559 0.662095
vt 0.172190 0.233014
vt 0.119633 0.185959
vt 0.030215 0.611212
vt 0.062774 0.616894
vt 0.056044 0.075742
vt 1.036062 0.432607
vt 1.041960 0.340005
vt 0.255742 0.298881
vt 1.048373 0.484141
vt 1.077340 0.561431
vt 1.046039 0.565183
vt 0.046877 0.565959
vt 0.036062 0.432607
vt 1.039191 0.265206
vt 1.165677 0.996817
vt 0.782391 0.972332
vt 0.612060 0.889214
vt 0.631182 0.950039
vt 0.494982 0.965527
vt 0.165183 0.995597
vt 0.031890 0.922548
vt 0.847058 0.382703
vt 0.886464 0.367439
vt 0.861279 0.420307
vt 1.021559 0.879705
vt 0.781787 0.505301
vt 0.795883 0.567481
vt 0.799634 0.467910
vt 0.802056 0.364451
vt 0.904507 0.414115
vt 0.834521 0.506651
vt 0.825274 0.455746
vt 0.336003 0.608482
vt 0.310615 0.537701
vt 0.350381 0.490929
vt 0.307244 0.601822
vt 0.315852 0.473851
vt 0.478087 0.437110
vt 0.488772 0.413128
vt 0.516437 0.451335
vt 0.265750 0.347117
vt 0.531033 0.593534
vt 0.476646 0.653916
vt 0.547875 0.693267
vt 0.674956 0.507197
vt 0.320799 0.777909
vt 0.435603 0.751977
vt 0.956621 0.080153
vt 0.567183 0.241935
vt 0.834752 0.755243
vt 0.800464 0.724577
vt 0.830734 0.175054
vt 0.997094 0.807653
vt 1.042744 0.822727
s 0
f 103/1/1 104/2/1 49/3/1
f 93/4/2 173/5/2 86/6/2
f 95/7/3 173/5/3 94/8/3
f 111/9/4 81/10/4 88/11/4
f 105/12/5 100/13/5 113/14/5
f 97/15/6 235/16/6 214/17/6
f 234/18/7 214/19/7 196/20/7
f 84/21/8 249/22/8 259/23/8
f 112/24/9 98/25/9 2/26/9
f 112/24/10 99/27/10 98/25/10
f 18/28/11 105/12/11 136/29/11
f 136/29/12 105/12/12 255/30/12
f 80/31/13 102/32/13 1/33/13
f 107/34/14 216/35/14 108/36/14
f 107/34/15 108/36/15 67/37/15
f 110/38/16 256/39/16 79/40/16
f 129/41/17 100/13/17 105/12/17
f 81/10/18 261/42/18 88/11/18
f 100/13/19 129/41/19 99/43/19
f 78/44/20 124/45/20 77/46/20
f 112/24/21 106/47/21 113/48/21
f 126/49/22 128/50/22 7/51/22
f 115/52/23 73/53/23 41/54/23
f 119/55/24 115/52/24 41/54/24
f 118/56/25 117/57/25 4/58/25
f 72/59/26 118/56/26 4/58/26
f 253/60/27 123/61/27 76/62/27
f 73/53/28 118/56/28 230/63/28
f 243/64/29 213/65/29 254/66/29
f 213/65/30 124/45/30 254/66/30
f 122/67/31 210/68/31 76/62/31
f 217/69/32 71/70/32 127/71/32
f 7/51/33 127/71/33 209/72/33
f 207/73/34 193/74/34 10/75/34
f 7/51/35 128/50/35 127/71/35
f 10/75/36 91/76/36 125/77/36
f 125/77/37 9/78/37 8/79/37
f 70/80/38 217/69/38 250/81/38
f 9/78/39 129/41/39 70/80/39
f 129/41/40 131/82/40 70/80/40
f 134/83/41 218/84/41 68/85/41
f 250/81/42 8/79/42 70/80/42
f 140/86/43 13/87/43 135/88/43
f 136/29/44 134/83/44 18/28/44
f 134/83/45 14/89/45 18/28/45
f 97/15/46 214/17/46 234/90/46
f 221/91/47 144/92/47 247/93/47
f 146/94/48 204/95/48 20/96/48
f 154/97/49 153/98/49 26/99/49
f 161/100/50 24/101/50 152/102/50
f 180/103/51 182/104/51 244/105/51
f 58/106/52 154/97/52 25/107/52
f 202/108/53 58/106/53 25/107/53
f 27/109/54 203/110/54 155/111/54
f 23/112/55 153/98/55 27/109/55
f 25/107/56 154/97/56 26/99/56
f 157/113/57 27/109/57 155/111/57
f 202/108/58 53/114/58 58/106/58
f 153/98/59 203/110/59 27/109/59
f 59/115/60 160/116/60 60/117/60
f 162/118/61 158/119/61 24/101/61
f 157/113/62 144/92/62 161/100/62
f 182/104/63 159/120/63 163/121/63
f 28/122/64 87/123/64 86/6/64
f 86/6/65 246/124/65 227/125/65
f 226/126/66 168/127/66 172/128/66
f 41/54/67 40/129/67 153/98/67
f 166/130/68 171/131/68 232/132/68
f 29/133/69 172/128/69 170/134/69
f 177/135/70 178/136/70 179/137/70
f 35/138/71 175/139/71 184/140/71
f 133/141/72 229/142/72 181/143/72
f 56/144/73 54/145/73 33/146/73
f 187/147/74 174/148/74 34/149/74
f 179/137/75 178/136/75 38/150/75
f 181/143/76 229/142/76 32/151/76
f 207/73/77 185/152/77 193/74/77
f 201/153/78 56/144/78 179/137/78
f 31/154/79 176/155/79 245/156/79
f 184/140/80 181/143/80 38/150/80
f 182/104/81 180/103/81 36/157/81
f 180/103/82 244/105/82 37/158/82
f 35/138/83 184/140/83 187/147/83
f 191/159/84 85/160/84 192/161/84
f 11/162/85 208/163/85 34/149/85
f 252/164/86 241/165/86 212/166/86
f 243/64/87 74/167/87 213/65/87
f 42/168/88 43/169/88 52/170/88
f 200/171/89 39/172/89 42/168/89
f 189/173/90 230/63/90 72/59/90
f 188/174/91 41/54/91 153/98/91
f 85/160/92 90/175/92 44/176/92
f 192/161/93 44/176/93 60/117/93
f 232/132/94 171/131/94 256/39/94
f 232/132/95 192/161/95 247/93/95
f 125/77/96 260/177/96 9/78/96
f 47/178/97 251/179/97 48/180/97
f 238/181/98 228/182/98 45/183/98
f 46/184/99 251/179/99 210/68/99
f 68/85/100 195/185/100 48/180/100
f 97/15/101 234/90/101 198/186/101
f 199/187/102 42/168/102 52/170/102
f 246/124/103 247/93/103 227/125/103
f 97/15/104 52/170/104 236/188/104
f 244/105/105 233/189/105 37/158/105
f 240/190/106 242/191/106 213/65/106
f 244/105/107 59/115/107 233/189/107
f 62/192/108 66/193/108 204/95/108
f 64/194/109 203/110/109 153/98/109
f 42/168/110 199/187/110 50/195/110
f 220/196/111 217/69/111 16/197/111
f 70/80/112 8/79/112 9/78/112
f 72/59/113 211/198/113 52/170/113
f 218/84/114 259/23/114 258/199/114
f 255/30/115 102/200/115 249/22/115
f 208/163/116 209/72/116 35/138/116
f 134/83/117 136/29/117 249/22/117
f 134/83/118 249/22/118 218/84/118
f 57/201/119 221/91/119 247/93/119
f 237/202/120 200/171/120 42/168/120
f 147/203/121 64/194/121 222/204/121
f 61/205/122 222/204/122 40/129/122
f 20/96/123 65/206/123 67/37/123
f 155/111/124 144/92/124 157/113/124
f 178/136/125 176/155/125 38/150/125
f 228/182/126 238/181/126 201/153/126
f 180/103/127 37/158/127 36/157/127
f 37/158/128 186/207/128 36/157/128
f 111/9/129 90/175/129 81/10/129
f 247/93/130 192/161/130 60/117/130
f 37/158/131 233/189/131 55/208/131
f 247/93/132 246/124/132 232/132/132
f 225/209/133 30/210/133 149/211/133
f 218/84/134 258/199/134 68/85/134
f 235/16/135 197/212/135 214/17/135
f 252/164/136 54/145/136 56/144/136
f 82/213/137 257/214/137 111/9/137
f 107/34/138 65/206/138 62/192/138
f 22/215/139 237/202/139 50/195/139
f 69/216/140 228/182/140 32/151/140
f 236/188/141 51/217/141 75/218/141
f 240/190/142 239/219/142 242/191/142
f 235/16/143 236/188/143 75/218/143
f 33/146/144 54/145/144 242/191/144
f 213/65/145 242/191/145 252/164/145
f 243/64/146 58/106/146 53/114/146
f 204/95/147 22/215/147 62/192/147
f 237/202/148 42/168/148 50/195/148
f 155/111/149 63/220/149 144/92/149
f 225/209/150 149/211/150 67/37/150
f 234/18/151 196/20/151 258/199/151 96/221/151
f 219/222/152 138/223/152 205/224/152
f 84/21/153 259/23/153 218/84/153
f 206/225/154 68/85/154 48/180/154
f 211/198/155 72/59/155 4/58/155
f 254/66/156 119/55/156 41/54/156
f 109/226/157 2/26/157 114/227/157
f 87/123/158 173/5/158 95/7/158
f 114/227/159 2/26/159 98/25/159 99/27/159
f 234/90/160 96/228/160 83/229/160
f 99/27/161 88/230/161 110/38/161 114/227/161
f 3/231/162 255/30/162 113/14/162 106/232/162
f 104/2/163 2/26/163 108/36/163
f 101/233/164 67/37/164 109/226/164 79/40/164
f 80/31/165 1/33/165 103/1/165 49/3/165
f 3/231/166 1/234/166 102/200/166 255/30/166
f 102/200/167 80/235/167 215/236/167 249/22/167
f 215/237/168 83/229/168 96/228/168
f 104/2/169 108/36/169 216/35/169 49/3/169
f 103/1/170 1/33/170 3/238/170
f 106/47/171 104/2/171 103/1/171 3/238/171
f 113/14/172 255/30/172 105/12/172
f 112/239/173 113/14/173 100/13/173 99/43/173
f 110/38/174 79/40/174 109/226/174 114/227/174
f 112/24/175 2/26/175 104/2/175 106/47/175
f 123/61/176 6/240/176 121/241/176 76/62/176
f 119/55/177 5/242/177 120/243/177 115/52/177
f 111/9/178 88/11/178 99/43/178
f 120/243/179 5/242/179 122/67/179
f 116/244/180 118/56/180 115/52/180
f 4/58/181 117/57/181 6/245/181
f 115/52/182 118/56/182 73/53/182
f 6/245/183 116/244/183 120/243/183 121/241/183
f 116/244/184 115/52/184 120/243/184
f 116/244/185 117/57/185 118/56/185
f 6/245/186 117/57/186 116/244/186
f 121/241/187 120/243/187 122/67/187 76/62/187
f 123/246/188 4/58/188 6/245/188
f 122/67/189 5/242/189 124/45/189 78/44/189
f 123/246/190 75/218/190 4/58/190
f 124/45/191 5/242/191 119/55/191 254/66/191
f 12/247/192 16/197/192 17/248/192 132/249/192
f 75/250/193 123/61/193 253/60/193
f 78/44/194 210/68/194 122/67/194
f 126/49/195 10/75/195 125/77/195 128/50/195
f 126/49/196 7/51/196 11/162/196
f 250/81/197 128/50/197 125/77/197 8/79/197
f 133/141/198 175/139/198 130/251/198 137/252/198
f 127/71/199 71/70/199 209/72/199
f 142/253/200 137/252/200 130/251/200
f 10/75/201 260/177/201 91/76/201
f 15/254/202 142/253/202 209/72/202
f 131/82/203 18/28/203 141/255/203 17/248/203
f 14/89/204 13/87/204 141/255/204 18/28/204
f 220/196/205 16/197/205 12/247/205
f 175/139/206 142/253/206 130/251/206
f 139/256/207 143/257/207 132/249/207
f 143/257/208 12/247/208 132/249/208
f 206/225/209 135/88/209 13/87/209 14/89/209
f 71/70/210 217/69/210 220/196/210 15/254/210
f 137/252/211 138/223/211 219/222/211 229/142/211
f 138/223/212 137/252/212 139/256/212 135/88/212
f 140/86/213 132/249/213 141/255/213 13/87/213
f 205/224/214 138/223/214 135/88/214 206/225/214
f 139/256/215 132/249/215 140/86/215 135/88/215
f 20/96/216 66/193/216 65/206/216
f 143/257/217 142/253/217 15/254/217 12/247/217
f 142/253/218 143/257/218 139/256/218 137/252/218
f 137/252/219 229/142/219 133/141/219
f 141/255/220 132/249/220 17/248/220
f 209/72/221 142/253/221 175/139/221 35/138/221
f 131/82/222 17/248/222 16/197/222 70/80/222
f 61/205/223 21/258/223 147/203/223 222/204/223
f 19/259/224 148/260/224 21/258/224
f 220/196/225 12/247/225 15/254/225
f 82/213/226 129/41/226 9/78/226
f 82/213/227 9/78/227 257/214/227
f 226/126/228 227/125/228 63/220/228
f 237/202/229 22/215/229 200/171/229
f 19/259/230 21/258/230 145/261/230
f 146/94/231 169/262/231 19/259/231 22/215/231
f 61/205/232 145/261/232 21/258/232
f 146/94/233 22/215/233 204/95/233
f 173/5/234 28/122/234 166/130/234 232/132/234
f 169/262/235 148/260/235 19/259/235
f 165/263/236 164/264/236 150/265/236 24/101/236
f 145/261/237 22/215/237 19/259/237
f 63/220/238 155/111/238 148/260/238
f 66/193/239 20/96/239 204/95/239
f 149/211/240 167/266/240 146/94/240
f 66/193/241 62/192/241 65/206/241
f 149/211/242 20/96/242 67/37/242
f 63/220/243 227/125/243 144/92/243
f 27/109/244 157/113/244 23/112/244
f 26/99/245 162/118/245 151/267/245 25/107/245
f 86/6/246 227/125/246 28/122/246
f 160/116/247 164/264/247 57/201/247
f 159/120/248 25/107/248 151/267/248
f 153/98/249 23/112/249 156/268/249 26/99/249
f 161/100/250 165/263/250 24/101/250
f 28/122/251 29/133/251 166/130/251
f 157/113/252 161/100/252 152/102/252
f 156/268/253 23/112/253 158/119/253 162/118/253
f 64/194/254 153/98/254 40/129/254
f 152/102/255 24/101/255 158/119/255 23/112/255
f 23/112/256 157/113/256 152/102/256
f 223/269/257 25/107/257 159/120/257 182/104/257
f 165/263/258 161/100/258 144/92/258 221/91/258
f 159/120/259 151/267/259 163/121/259
f 165/263/260 221/91/260 164/264/260
f 150/265/261 164/264/261 160/116/261 244/105/261
f 163/121/262 24/101/262 150/265/262
f 163/121/263 151/267/263 162/118/263 24/101/263
f 168/127/264 167/266/264 170/134/264 172/128/264
f 28/122/265 173/5/265 87/123/265
f 86/6/266 173/5/266 246/124/266
f 167/266/267 149/211/267 30/210/267 170/134/267
f 169/262/268 146/94/268 167/266/268
f 101/233/269 29/133/269 170/134/269 30/210/269
f 166/130/270 29/133/270 101/233/270 171/131/270
f 174/148/271 187/147/271 183/270/271 31/154/271
f 227/125/272 226/126/272 28/122/272
f 232/132/273 246/124/273 173/5/273
f 176/155/274 31/154/274 183/270/274 38/150/274
f 190/271/275 43/169/275 39/172/275
f 181/143/276 184/140/276 175/139/276
f 56/144/277 33/146/277 177/135/277 179/137/277
f 179/137/278 38/150/278 181/143/278 32/151/278
f 176/155/279 178/136/279 177/135/279 245/156/279
f 239/219/280 245/156/280 177/135/280 33/146/280
f 183/270/281 187/147/281 184/140/281 38/150/281
f 201/153/282 32/151/282 228/182/282
f 31/154/283 245/156/283 182/104/283 36/157/283
f 187/147/284 34/149/284 208/163/284 35/138/284
f 185/152/285 186/207/285 55/208/285
f 40/129/286 190/271/286 39/172/286 61/205/286
f 190/271/287 73/53/287 230/63/287 189/173/287
f 243/64/288 53/114/288 74/167/288
f 72/59/289 52/170/289 43/169/289 189/173/289
f 189/173/290 43/169/290 190/271/290
f 190/271/291 40/129/291 41/54/291 73/53/291
f 188/174/292 153/98/292 224/272/292 243/64/292
f 254/66/293 41/54/293 188/174/293
f 90/175/294 111/9/294 193/74/294 44/176/294
f 39/172/295 43/169/295 42/168/295
f 232/132/296 256/39/296 191/159/296 192/161/296
f 89/273/297 261/42/297 81/10/297
f 231/274/298 60/117/298 44/176/298
f 79/40/299 256/39/299 171/131/299
f 79/40/300 171/131/300 101/233/300
f 78/44/301 45/183/301 46/184/301 210/68/301
f 60/117/302 233/189/302 59/115/302
f 44/176/303 192/161/303 85/160/303
f 195/185/304 68/85/304 196/20/304
f 194/275/305 46/184/305 45/183/305 248/276/305
f 125/77/306 92/277/306 260/177/306
f 238/181/307 45/183/307 78/44/307
f 194/275/308 48/180/308 251/179/308 46/184/308
f 195/185/309 197/278/309 253/60/309 47/178/309
f 76/62/310 251/179/310 47/178/310
f 49/3/311 62/192/311 50/195/311 198/186/311
f 228/182/312 248/276/312 45/183/312
f 198/186/313 50/195/313 199/187/313 97/15/313
f 84/21/314 218/84/314 249/22/314
f 216/35/315 62/192/315 49/3/315
f 77/46/316 56/144/316 201/153/316 78/44/316
f 212/166/317 54/145/317 252/164/317
f 62/192/318 22/215/318 50/195/318
f 97/15/319 236/188/319 235/16/319
f 83/229/320 80/31/320 234/90/320
f 52/170/321 51/217/321 236/188/321
f 241/165/322 242/191/322 54/145/322
f 54/145/323 212/166/323 241/165/323
f 67/37/324 101/233/324 30/210/324 225/209/324
f 240/190/325 53/114/325 202/108/325 239/219/325
f 223/269/326 239/219/326 202/108/326
f 150/265/327 244/105/327 182/104/327 163/121/327
f 224/272/328 153/98/328 154/97/328 58/106/328
f 247/93/329 60/117/329 160/116/329 57/201/329
f 134/83/330 68/85/330 206/225/330 14/89/330
f 61/205/331 39/172/331 200/171/331
f 205/224/332 194/275/332 248/276/332 219/222/332
f 7/51/333 209/72/333 208/163/333 11/162/333
f 69/216/334 229/142/334 219/222/334
f 70/80/335 16/197/335 217/69/335
f 155/111/336 147/203/336 21/258/336 148/260/336
f 71/70/337 15/254/337 209/72/337
f 77/46/338 124/45/338 213/65/338 252/164/338
f 128/50/339 250/81/339 217/69/339 127/71/339
f 76/62/340 47/178/340 253/60/340
f 126/49/341 11/162/341 207/73/341 10/75/341
f 72/59/342 230/63/342 118/56/342
f 108/36/343 2/26/343 109/226/343 67/37/343
f 215/236/344 259/23/344 249/22/344
f 80/31/345 83/229/345 215/237/345
f 96/221/346 259/23/346 215/236/346
f 111/9/347 99/43/347 129/41/347 82/213/347
f 260/177/348 10/75/348 257/214/348 9/78/348
f 168/127/349 63/220/349 148/260/349 169/262/349
f 227/125/350 247/93/350 144/92/350
f 105/12/351 131/82/351 129/41/351
f 18/28/352 131/82/352 105/12/352
f 257/214/353 10/75/353 193/74/353
f 164/264/354 221/91/354 57/201/354
f 28/122/355 226/126/355 172/128/355 29/133/355
f 203/110/356 64/194/356 147/203/356
f 155/111/357 203/110/357 147/203/357
f 156/268/358 162/118/358 26/99/358
f 25/107/359 223/269/359 202/108/359
f 58/106/360 243/64/360 224/272/360
f 20/96/361 149/211/361 146/94/361
f 186/207/362 34/149/362 174/148/362 36/157/362
f 226/126/363 63/220/363 168/127/363
f 31/154/364 36/157/364 174/148/364
f 74/167/365 53/114/365 240/190/365 213/65/365
f 69/216/366 219/222/366 228/182/366
f 241/165/367 252/164/367 242/191/367
f 255/30/368 249/22/368 136/29/368
f 243/64/369 254/66/369 188/174/369
f 231/274/370 44/176/370 185/152/370 55/208/370
f 51/217/371 4/58/371 75/218/371
f 234/90/372 80/31/372 49/3/372 198/186/372
f 133/141/373 181/143/373 175/139/373
f 193/74/374 111/9/374 257/214/374
f 248/276/375 228/182/375 219/222/375
f 47/178/376 48/180/376 195/185/376
f 252/164/377 56/144/377 77/46/377
f 96/221/378 258/199/378 259/23/378
f 110/38/379 191/159/379 256/39/379
f 11/162/380 34/149/380 186/207/380 185/152/380
f 107/34/381 62/192/381 216/35/381
f 55/208/382 186/207/382 37/158/382
f 179/137/383 32/151/383 201/153/383
f 223/269/384 182/104/384 245/156/384 239/219/384
f 200/171/385 22/215/385 145/261/385 61/205/385
f 197/278/386 195/185/386 196/20/386
f 169/262/387 167/266/387 168/127/387
f 33/146/388 242/191/388 239/219/388
f 185/152/389 44/176/389 193/74/389
f 59/115/390 244/105/390 160/116/390
f 65/206/391 107/34/391 67/37/391
f 75/250/392 253/60/392 197/278/392 235/279/392
f 222/204/393 64/194/393 40/129/393
f 69/216/394 32/151/394 229/142/394
f 196/20/395 68/85/395 258/199/395
f 205/224/396 206/225/396 48/180/396 194/275/396
f 51/217/397 52/170/397 211/198/397
f 231/274/398 55/208/398 233/189/398 60/117/398
f 52/170/399 97/15/399 199/187/399
f 238/181/400 78/44/400 201/153/400
f 251/179/401 76/62/401 210/68/401
f 211/198/402 4/58/402 51/217/402
f 214/19/403 197/278/403 196/20/403
f 11/162/404 185/152/404 207/73/404
