# Blender 4.1.1
# www.blender.org
mtllib tree1(leaves)lowpoly2.mtl
o Tree1.leaves_lowpoly3
v -5.774061 15.855377 -2.248116
v 8.856296 15.900333 -6.483657
v -0.889736 25.068300 3.117712
v 7.109124 15.087014 2.254239
v -0.553410 14.593047 0.057510
v 3.356180 26.602644 2.650169
v 6.155653 29.892845 -1.869636
v -4.254939 14.835090 1.055310
v -4.113263 15.012243 0.793406
v 0.407808 12.782341 -7.289629
v -0.775529 14.502200 -1.390421
v -5.051712 26.870249 2.688462
v -1.327811 32.774132 -1.377995
v 10.391568 21.906561 -0.012254
v -6.028418 24.644079 8.326254
v -0.354747 20.213352 6.410090
v -9.492764 22.515451 2.348670
v 6.871702 21.163971 7.905566
v -1.532954 22.938383 -6.456796
v -5.677869 24.569878 -4.982485
v -2.811048 18.388351 5.819768
v -4.229896 15.927013 1.222752
v 2.167111 19.502459 -5.978550
v 3.345474 13.807127 -0.418613
v 3.396074 14.601253 -0.165828
v 0.573843 15.000369 -1.070881
vn 0.9231 -0.1748 -0.3426
vn 0.0126 0.2593 0.9657
vn -0.1018 -0.8338 0.5426
vn 0.5098 0.2313 -0.8286
vn 0.3302 0.8570 0.3956
vn -0.6977 0.6994 0.1553
vn -0.6263 -0.5453 0.5571
vn -0.1467 0.6367 0.7570
vn 0.8810 -0.3033 0.3632
vn -0.2382 0.5270 0.8158
vn -0.8664 0.4933 -0.0772
vn -0.1498 -0.8517 0.5022
vn 0.5658 0.4593 0.6848
vn -0.2893 -0.9330 0.2140
vn 0.0215 0.5579 0.8297
vn 0.2611 -0.9114 0.3181
vn 0.3029 0.6714 0.6764
vn 0.1167 0.4538 -0.8835
vn 0.8130 0.3178 -0.4878
vn 0.9095 -0.3894 0.1456
vn -0.4338 -0.7319 -0.5254
vn -0.6257 -0.6485 0.4334
vn -0.8608 -0.1437 -0.4882
vn 0.8705 0.2956 -0.3934
vn 0.9513 0.0253 -0.3072
vn 0.5986 0.4937 0.6308
vn 0.0388 -0.3544 0.9343
vn -0.9154 -0.1361 0.3789
vn 0.6076 0.7189 0.3375
vn -0.0948 -0.8480 0.5214
vn -0.6853 0.7111 -0.1573
vn -0.2947 -0.9437 0.1506
vn 0.3343 0.2328 -0.9133
vn 0.1667 -0.9843 -0.0583
vn -0.0614 -0.6810 0.7297
vn -0.0182 -0.9345 -0.3555
vn -0.2763 -0.9556 0.1023
vn -0.4148 -0.2682 -0.8695
vn 0.1502 -0.4814 0.8635
vn -0.1330 0.4569 -0.8795
vn 0.2404 0.1249 -0.9626
vn -0.6491 -0.0619 -0.7582
vn 0.3146 -0.8565 -0.4092
vn 0.1068 0.3299 -0.9379
vn -0.2357 -0.9134 0.3321
vt 0.814304 0.187449
vt 1.028746 0.272081
vt 0.972942 0.517032
vt 0.560369 0.794760
vt 0.690308 0.794451
vt 0.402135 0.767915
vt 0.381198 0.051070
vt 0.825661 0.179401
vt 0.751225 0.358189
vt 0.463870 0.615772
vt 0.347266 0.578896
vt 0.484808 0.405083
vt 0.678510 0.524753
vt 0.796451 0.551600
vt 0.558780 0.490916
vt 0.215056 0.693908
vt 0.365833 0.941737
vt 0.349222 0.226966
vt 0.841429 0.814426
vt 0.099178 0.070143
vt 0.245160 0.303070
vt 0.044551 0.268427
vt 0.933019 0.074540
vt 1.033020 0.115620
vt 1.025081 0.834991
vt 0.630535 0.952931
vt 0.884529 0.415245
vt 0.340748 0.204260
vt 0.345157 0.213135
vt 1.009173 0.723236
vt 0.078235 0.624155
vt 1.063990 0.530591
s 0
f 25/1/1 10/2/1 23/3/1
f 3/4/2 6/5/2 12/6/2
f 5/7/3 24/8/3 4/9/3
f 25/1/4 4/9/4 24/8/4
f 3/4/5 12/6/5 15/10/5
f 12/6/6 17/11/6 15/10/6
f 15/10/7 17/11/7 21/12/7
f 3/4/8 18/13/8 6/5/8
f 4/9/9 14/14/9 18/13/9
f 16/15/10 18/13/10 3/4/10
f 20/16/11 12/6/11 13/17/11
f 22/18/12 5/7/12 21/12/12
f 6/5/13 14/14/13 7/19/13
f 11/20/14 1/21/14 10/22/14
f 6/5/15 13/17/15 12/6/15
f 26/23/16 11/24/16 10/2/16
f 13/17/17 6/5/17 7/19/17
f 19/25/18 13/26/18 7/19/18
f 14/14/19 2/27/19 7/19/19
f 14/14/20 4/9/20 2/27/20
f 2/27/21 25/1/21 23/3/21
f 1/21/22 21/12/22 17/11/22
f 1/21/23 17/11/23 20/16/23
f 9/28/24 1/21/24 22/18/24
f 22/18/25 21/12/25 8/29/25
f 16/15/26 3/4/26 15/10/26
f 16/15/27 15/10/27 21/12/27
f 21/12/28 1/21/28 8/29/28
f 18/13/29 14/14/29 6/5/29
f 5/7/30 4/9/30 21/12/30
f 17/11/31 12/6/31 20/16/31
f 1/21/32 5/7/32 22/18/32
f 7/19/33 23/3/33 19/30/33
f 25/1/34 2/27/34 4/9/34
f 4/9/35 18/13/35 16/15/35
f 5/7/36 26/23/36 25/1/36
f 11/20/37 5/7/37 1/21/37
f 1/21/38 20/16/38 19/31/38
f 21/12/39 4/9/39 16/15/39
f 19/31/40 20/16/40 13/17/40
f 19/32/41 23/3/41 10/2/41
f 10/22/42 1/21/42 19/31/42
f 9/28/43 8/29/43 1/21/43
f 2/27/44 23/3/44 7/19/44
f 26/23/45 10/2/45 25/1/45
