# Blender 4.1.1
# www.blender.org
mtllib pine3(leaves)lowpoly1.mtl
o Tree_3_leaves_lowpoly1
v 1.329361 28.532722 0.397609
v -3.018045 31.874941 -4.716419
v -0.412639 41.184185 -7.296706
v 1.546491 46.876884 -3.615459
v 4.193305 41.393944 -6.013669
v 1.251535 43.407845 -3.867975
v -1.723281 39.862194 -5.013923
v 2.706065 33.945587 -10.329516
v 6.772484 28.216988 1.409102
v -4.076354 43.360325 1.158999
v -0.274476 54.308392 -1.072224
v 4.446340 43.283646 0.229843
v 1.604791 43.846188 1.930327
v -0.569775 41.921463 5.178535
v 11.591287 24.269978 1.523760
v 1.796468 30.372036 -7.050809
v -4.026374 28.797194 5.627101
v -10.015540 26.568016 7.765462
v 10.618999 25.697758 6.221542
v 3.436150 37.647812 1.699378
v 3.912287 31.384436 4.296271
v 4.882013 27.653290 5.155377
v 1.426990 35.282604 3.320878
v 3.648644 37.443630 -1.109735
v 7.509002 33.388554 -5.509863
v 3.361517 35.969444 -4.894327
v 5.049875 24.703068 -7.171694
v 2.068604 30.184532 -5.977595
v -12.507643 26.023064 -0.497640
v -3.631132 44.315483 -2.407363
v 7.000979 31.655945 0.738137
v -0.577033 29.671614 9.119370
v -2.468476 25.166502 8.474365
v -1.339134 23.101551 9.947688
v -6.395114 28.197693 -7.863162
v -2.440404 30.318577 -6.984542
v 7.108778 28.224648 1.990199
v 5.197083 30.404245 1.555291
v 3.424958 22.537477 -12.811234
v 3.732343 27.201515 2.838506
v -0.479621 25.003931 7.864751
v -0.957055 29.232616 0.841722
v 1.058162 29.594971 0.711529
v 0.050724 23.662872 9.518963
v 5.499632 22.103174 12.026559
v -5.433399 24.839264 4.893250
v 5.929139 28.907093 -1.337154
v 5.380063 30.070709 3.728149
v 3.148996 33.400780 -3.534749
v -5.041376 22.649969 -11.680126
v -0.091079 31.522245 -5.415802
v -6.592101 30.748705 1.142621
v -5.113297 34.341965 -0.090484
v 12.194663 26.607298 -2.814865
v -1.583631 37.845764 2.509286
v 1.570578 38.898354 -6.027354
v -1.396092 43.146755 -4.411506
v -0.398036 27.699751 6.599534
v -2.602202 30.396069 5.573885
v 1.586624 23.710678 9.527898
v -0.496155 23.448708 9.700358
v 1.843900 30.877621 5.132146
v -3.963207 32.021111 2.517240
v 5.964638 30.189589 2.552758
v -0.077476 36.500374 -6.076683
v 0.579343 27.320503 -12.931612
v 6.830775 29.557665 1.354237
v 4.707814 28.279972 3.765381
v -3.596283 41.891125 -0.259897
v -5.921090 36.541714 1.514571
v -0.797805 42.487679 2.333780
v -3.223022 42.443802 -3.498877
v -6.672993 35.688972 -3.482033
v 5.537344 37.082077 -1.328168
v 1.264562 26.878344 -4.853801
v -0.344335 24.593485 -8.271847
v 6.612031 25.623034 -2.201119
v -4.905721 34.407520 2.001935
v -3.710270 35.180832 -8.297684
v -5.833207 31.246666 -3.038997
v -5.383670 31.692308 -0.044374
v -11.728185 22.007711 4.955823
v 4.600832 30.264864 3.740374
v 6.200298 24.225225 4.999804
v -3.933381 37.195724 -0.165806
v -3.441955 36.709759 -4.737020
v -5.250198 23.542522 12.063923
v -0.317022 37.562557 4.513948
v 2.880247 41.878773 1.239079
v 7.881158 35.597298 2.514313
v 4.485273 36.058044 4.470809
v 1.224683 28.308149 -2.291288
v -3.945338 35.657909 5.940731
v 5.486898 31.838024 -0.239708
v -1.220026 28.626921 -2.059051
v -6.131575 24.422367 -5.363896
v -3.478579 28.063686 -0.940559
v -8.156202 25.136909 -0.522093
v -11.554808 21.760721 -5.123945
v 7.581913 26.765427 -9.935797
v 4.668746 30.865194 -2.306740
v 5.189802 30.183144 -4.580631
v 11.940809 21.691628 -7.296313
v 3.116725 43.401039 -2.071468
vn 0.9090 0.2415 0.3397
vn 0.7519 0.0488 0.6575
vn 0.4480 -0.7907 0.4172
vn 0.7932 0.5545 0.2518
vn 0.0094 0.0405 0.9991
vn -0.9201 0.3832 0.0811
vn 0.7646 0.5501 0.3359
vn -0.4101 -0.7680 0.4919
vn 0.7000 -0.1833 -0.6902
vn 0.4446 0.5630 0.6967
vn 0.9268 0.3047 0.2195
vn 0.8644 -0.0580 -0.4995
vn 0.9236 0.3669 0.1114
vn 0.8702 0.4911 -0.0406
vn 0.5028 -0.7984 -0.3312
vn 0.4991 -0.8501 -0.1677
vn 0.6844 0.4310 0.5881
vn 0.8346 0.5502 0.0262
vn 0.8523 0.5223 0.0265
vn 0.4235 0.6732 0.6061
vn 0.4405 0.8854 -0.1485
vn 0.9331 0.3568 0.0439
vn 0.9002 -0.3435 -0.2677
vn -0.7180 -0.5428 0.4357
vn 0.9183 0.3443 0.1955
vn -0.4560 -0.8170 0.3528
vn 0.2393 0.9469 0.2148
vn 0.1340 0.4832 0.8652
vn -0.6575 -0.0449 -0.7522
vn 0.0634 0.3863 0.9202
vn 0.4776 0.5235 0.7056
vn 0.7809 0.5697 -0.2562
vn 0.8521 0.3173 0.4163
vn 0.7382 0.2668 0.6195
vn 0.6519 0.6175 0.4401
vn 0.5184 0.0359 0.8544
vn 0.9055 0.4232 0.0318
vn 0.4238 0.3845 -0.8201
vn 0.2976 0.2870 0.9105
vn -0.3411 -0.8721 0.3509
vn 0.8093 0.2993 -0.5055
vn 0.8650 0.4271 -0.2633
vn 0.4647 0.3229 -0.8245
vn 0.5323 0.3205 0.7835
vn 0.9629 0.2634 -0.0595
vn 0.8787 0.3244 -0.3502
vn 0.2554 -0.1689 0.9520
vn -0.0219 0.5455 0.8379
vn -0.0255 0.6832 0.7298
vn 0.3219 0.4093 0.8537
vn 0.9104 -0.0475 -0.4111
vn 0.8912 0.2708 -0.3640
vn -0.1936 -0.9651 -0.1766
vn -0.5368 0.2930 -0.7912
vn 0.6943 0.3110 0.6491
vn 0.0491 0.3899 0.9195
vn -0.0676 -0.8717 0.4853
vn 0.6680 -0.0563 0.7421
vn -0.0722 -0.7642 0.6410
vn 0.1378 0.4121 0.9006
vn 0.4874 -0.8152 0.3129
vn -0.1126 0.6143 -0.7810
vn 0.0875 -0.6929 0.7157
vn 0.2094 0.5536 0.8060
vn 0.6040 0.7676 -0.2146
vn -0.2337 0.5387 0.8095
vn 0.0914 0.5505 0.8298
vn 0.2591 0.3867 0.8851
vn -0.3799 -0.8809 0.2824
vn -0.5355 0.5080 -0.6747
vn 0.5980 0.5188 -0.6109
vn -0.3956 -0.7607 0.5146
vn -0.3323 -0.9374 0.1037
vn 0.8876 0.2806 -0.3652
vn -0.3751 -0.5764 -0.7259
vn -0.8298 -0.0942 -0.5500
vn -0.5219 0.3419 -0.7815
vn -0.0752 0.1153 -0.9905
vn 0.2399 -0.8175 -0.5236
vn 0.5794 -0.2011 0.7899
vn 0.8492 0.5267 0.0366
vn -0.6562 -0.6936 -0.2972
vn 0.8296 0.3012 -0.4701
vn -0.3469 -0.8967 0.2750
vn -0.4463 -0.8945 0.0252
vn -0.6919 -0.5980 -0.4046
vn -0.0043 0.3812 -0.9245
vn -0.6281 -0.7254 -0.2817
vn 0.7598 0.5030 -0.4121
vn 0.6083 0.4831 -0.6297
vn -0.3356 -0.8549 0.3957
vn 0.8745 0.4065 0.2646
vn -0.7438 -0.6284 0.2280
vn -0.2798 -0.9069 0.3150
vn 0.2829 0.7220 -0.6314
vn -0.1003 -0.8781 -0.4679
vn -0.1970 0.3999 -0.8951
vn -0.5373 0.1066 -0.8366
vn 0.2460 -0.5930 -0.7667
vn 0.1412 -0.8525 0.5034
vn -0.3513 0.4341 0.8295
vn 0.3491 0.2503 -0.9030
vn -0.2632 -0.8933 0.3644
vn 0.1590 0.4628 0.8721
vn -0.1181 -0.8712 0.4765
vn -0.6857 0.3178 -0.6549
vn 0.0277 -0.7721 -0.6349
vn 0.4546 -0.8659 -0.2088
vn 0.9942 -0.1013 -0.0360
vn 0.1132 -0.8629 0.4925
vn -0.6118 0.4341 -0.6612
vn -0.2394 0.1842 -0.9533
vn 0.0805 -0.9666 -0.2435
vn 0.1057 -0.7556 -0.6465
vn -0.9734 -0.1595 -0.1642
vn -0.2703 -0.6528 -0.7077
vn -0.7421 0.3661 -0.5614
vn -0.2349 0.1979 -0.9517
vn -0.4104 0.2074 -0.8880
vn 0.3317 -0.8822 -0.3342
vn 0.3154 -0.9342 0.1665
vn -0.9462 0.3221 -0.0319
vn -0.6354 0.3599 0.6832
vn 0.3500 0.4338 -0.8302
vn 0.0968 -0.9172 0.3865
vn 0.1011 -0.8063 0.5829
vn 0.4100 -0.8094 0.4204
vn -0.4992 0.2042 -0.8421
vn -0.5035 0.2007 -0.8404
vn -0.4119 0.3943 0.8215
vn -0.3427 0.2634 -0.9018
vn -0.7127 0.5550 0.4290
vn 0.4802 -0.8759 -0.0471
vn -0.8750 0.4653 -0.1339
vn 0.3402 -0.8814 -0.3278
vn 0.2931 -0.9557 -0.0252
vn 0.4385 -0.7819 0.4431
vn -0.8822 0.3913 -0.2621
vn -0.9224 0.3610 -0.1375
vn -0.8207 0.4049 0.4031
vn 0.0292 0.3357 -0.9415
vn 0.3461 -0.9283 0.1359
vn -0.9125 0.3728 -0.1686
vn -0.9022 0.2564 0.3468
vn 0.3162 -0.9321 -0.1766
vn 0.6218 -0.7829 0.0196
vn 0.1685 0.5136 0.8413
vn -0.1998 0.3238 -0.9248
vn -0.9122 0.4022 0.0779
vn 0.4886 -0.8226 -0.2909
vn -0.9070 0.4159 0.0655
vn 0.5801 -0.5714 -0.5805
vn -0.6479 0.5990 -0.4706
vn -0.9226 0.3654 -0.1235
vn 0.1566 -0.8697 -0.4681
vn -0.8784 0.4455 -0.1729
vn 0.0037 0.5929 0.8052
vn 0.5321 -0.8205 0.2090
vn 0.7711 0.3032 0.5599
vn 0.4153 -0.8087 0.4166
vn 0.3926 0.4369 -0.8093
vn 0.5494 -0.7955 -0.2556
vn 0.7906 0.6095 0.0596
vn -0.7924 0.3216 0.5183
vn -0.6850 0.6227 0.3781
vn -0.5922 -0.1165 -0.7973
vn 0.4902 -0.8058 -0.3322
vn -0.0235 -0.8400 0.5420
vn 0.3335 0.6173 0.7126
vn -0.8449 0.4441 0.2982
vn 0.3766 0.3881 -0.8411
vn -0.4064 -0.8006 0.4404
vn -0.2530 -0.8765 0.4095
vn -0.3734 -0.8996 -0.2266
vn -0.6604 -0.7437 0.1037
vn 0.3853 -0.9175 0.0986
vn -0.3681 -0.7265 -0.5802
vn 0.1396 0.4357 -0.8892
vn -0.1875 -0.9420 -0.2785
vn -0.9205 0.3827 0.0793
vn -0.9399 0.3377 -0.0507
vn 0.0112 0.5893 0.8078
vn 0.1665 0.4180 -0.8931
vn -0.8577 0.3874 -0.3380
vn -0.5617 0.4658 0.6837
vn 0.6497 -0.2622 -0.7136
vn 0.8981 0.3717 0.2351
vn -0.7369 0.3893 0.5526
vn 0.8754 0.3064 -0.3738
vn -0.0319 -0.8314 0.5547
vn -0.1206 -0.8235 -0.5544
vn -0.6878 0.2221 0.6911
vn -0.2475 0.5676 0.7852
vn 0.3954 -0.8845 -0.2474
vn 0.4841 0.4338 0.7599
vn -0.2197 -0.8423 -0.4922
vn -0.1813 -0.9817 0.0576
vn 0.2620 0.3881 0.8836
vn -0.7210 -0.5477 0.4245
vn -0.9438 0.3203 0.0820
vt 0.176336 0.868832
vt 0.176980 0.886117
vt 0.171892 0.889908
vt 0.816248 0.822257
vt 0.861269 0.816234
vt 0.847980 0.813758
vt 0.014608 0.214667
vt 0.004551 0.222812
vt 0.021713 0.209747
vt 0.841959 0.845724
vt 0.113751 0.842489
vt 0.104261 0.868926
vt 0.038708 0.926063
vt 0.420884 0.295941
vt 0.503234 0.266923
vt 0.409247 0.256070
vt 0.725555 0.117834
vt 0.621214 0.230701
vt 0.730330 0.245465
vt 0.645119 0.079370
vt 0.444614 0.585220
vt 0.768826 0.015082
vt 0.691398 0.033488
vt 0.744900 0.007462
vt 0.123405 0.931350
vt 0.421654 0.277537
vt 0.511638 0.056437
vt 0.353943 0.051873
vt 0.108261 0.856020
vt 0.860637 0.274765
vt 0.863486 0.369426
vt 0.547116 0.793003
vt 0.837871 0.046600
vt 0.814487 0.026495
vt 0.973311 0.372771
vt 0.956831 0.352762
vt 0.981482 0.351197
vt 0.803371 0.941842
vt 0.783704 0.930977
vt 0.799039 0.902501
vt 0.130264 0.879572
vt 0.415373 0.788371
vt 0.418935 0.803854
vt 0.464370 0.771514
vt 0.711050 0.049179
vt 0.659690 0.159941
vt 0.128801 0.816033
vt 0.132509 0.836183
vt 0.114424 0.841856
vt 0.126125 0.843358
vt 0.834268 0.792658
vt 0.852352 0.778448
vt 0.822734 0.737594
vt 0.694960 0.192188
vt 0.695112 0.221293
vt 0.688191 0.197443
vt 0.914017 0.448582
vt 0.929803 0.413864
vt 0.913791 0.404758
vt 0.872174 0.653694
vt 0.548634 0.176097
vt 0.500849 0.170966
vt 0.492275 0.113129
vt 0.491867 0.747643
vt 0.496599 0.724181
vt 0.486739 0.731675
vt 0.704131 0.190317
vt 0.501238 0.729828
vt 0.541325 0.625962
vt 0.347471 0.627414
vt 0.430106 0.588810
vt 0.862390 0.189347
vt 0.868370 0.081360
vt 0.832358 0.153644
vt 0.889395 0.287237
vt 0.920412 0.394275
vt 0.874968 0.827185
vt 0.362437 0.026135
vt 0.435464 0.553251
vt 0.518504 0.510342
vt 0.466835 0.561056
vt 0.594083 0.252881
vt 0.640225 0.243986
vt 0.607666 0.211349
vt 0.776804 0.507329
vt 0.792207 0.417796
vt 0.810735 0.475946
vt 0.560086 0.020823
vt 0.626333 0.219216
vt 0.617929 0.096227
vt 0.995462 0.751739
vt 0.978583 0.723610
vt 0.981118 0.775627
vt 0.947992 0.150931
vt 0.922252 0.228092
vt 0.541138 0.328972
vt 0.954377 0.298194
vt 0.691863 0.706121
vt 0.772899 0.550348
vt 0.764628 0.639103
vt 0.678723 0.397326
vt 0.553183 0.998499
vt 0.545792 0.971458
vt 0.558349 0.965058
vt 0.919335 0.717303
vt 0.874644 0.798721
vt 0.915631 0.855713
vt 0.869113 0.047138
vt 0.831228 0.052027
vt 0.754972 0.793629
vt 0.730291 0.795429
vt 0.709494 0.792212
vt 0.231168 0.976910
vt 0.223185 0.980269
vt 0.252063 0.980269
vt 0.779388 0.096230
vt 0.597370 0.048368
vt 0.416706 0.837357
vt 0.577145 0.694794
vt 0.397390 0.662775
vt 0.336894 0.651224
vt 0.375377 0.634681
vt 0.360577 0.729659
vt 0.450684 0.721235
vt 0.373311 0.686774
vt 0.679158 0.208283
vt 0.726626 0.686318
vt 0.777542 0.697333
vt 0.748655 0.729301
vt 0.247303 0.159794
vt 0.265635 0.128550
vt 0.289267 0.150388
vt 0.664604 0.828984
vt 0.683638 0.846320
vt 0.538822 0.216478
vt 0.265324 0.507899
vt 0.283031 0.571483
vt 0.301218 0.476883
vt 0.072826 0.535163
vt 0.085902 0.469379
vt 0.105876 0.569745
vt 0.725398 0.561857
vt 0.892896 0.658293
vt 0.911992 0.679597
vt 0.939113 0.601830
vt 0.015836 0.761093
vt 0.512574 0.908998
vt 0.621083 0.902930
vt 0.941096 0.414009
vt 0.957230 0.394241
vt 0.648422 0.823934
vt 0.545702 0.960847
vt 0.362763 0.587226
vt 0.308441 0.244368
vt 0.300313 0.340531
vt 0.240612 0.245996
vt 0.599677 0.788641
vt 0.827226 0.710008
vt 0.520411 0.975473
vt 0.391057 0.974858
vt 0.454934 0.928755
vt 0.555054 0.583315
vt 0.171986 0.319660
vt 0.188274 0.216101
vt 0.515961 0.959369
vt 0.799268 0.845244
vt 0.656260 0.901372
vt 0.739117 0.858471
vt 0.183474 0.766194
vt 0.217226 0.763941
vt 0.195757 0.775399
vt 0.494058 0.074829
vt 0.534284 0.117536
vt 0.541536 0.071984
vt 0.588593 0.895505
vt 0.430364 0.906438
vt 0.498561 0.863702
vt 0.213589 0.738398
vt 0.934022 0.418627
vt 0.749606 0.844732
vt 0.156100 0.738634
vt 0.538292 0.702085
vt 0.536785 0.674123
vt 0.513321 0.688068
vt 0.238942 0.258134
vt 0.162208 0.759022
vt 0.793849 0.591249
vt 0.135596 0.203113
vt 0.105037 0.151173
vt 0.017823 0.121530
vt 0.544726 0.842462
vt 0.604385 0.806702
vt 0.681106 0.865948
vt 0.586453 0.925847
vt 0.787455 0.307603
vt 0.804586 0.226206
vt 0.856110 0.236930
vt 0.211194 0.145763
vt 0.858917 0.207453
vt 0.520553 0.838404
vt 0.516730 0.818139
vt 0.049376 0.227226
vt 0.904340 0.603503
vt 0.902230 0.456395
vt 0.850382 0.540466
vt 0.626153 0.011183
vt 0.031745 0.190433
vt 0.393871 0.249589
vt 0.343070 0.170168
vt 0.878318 0.635854
vt 0.114334 0.995826
vt 0.039512 0.987088
vt 0.052684 0.946137
vt 0.319801 0.581477
vt 0.913615 0.305429
vt 0.802036 0.490057
vt 0.834091 0.506388
vt 0.785041 0.508427
vt 0.047382 0.714779
vt 0.045000 0.687151
vt 0.067914 0.684504
vt 0.687706 0.571369
vt 0.702921 0.531688
vt 0.700782 0.555703
vt 0.583636 0.719562
vt 0.606866 0.753832
vt 0.503738 0.754240
vt 0.632877 0.720521
vt 0.362643 0.277646
vt 0.381357 0.278640
vt 0.408755 0.324623
vt 0.340030 0.488072
vt 0.325636 0.512684
vt 0.350245 0.549520
vt 0.034189 0.258003
vt 0.642712 0.481122
vt 0.785636 0.540672
vt 0.731143 0.458056
vt 0.664342 0.756826
vt 0.629572 0.671811
vt 0.649962 0.615505
vt 0.677046 0.726027
vt 0.187573 0.638665
vt 0.236777 0.665606
vt 0.193941 0.692271
vt 0.120487 0.489463
vt 0.114383 0.447692
vt 0.536712 0.482730
vt 0.599296 0.321397
vt 0.497733 0.431658
vt 0.598886 0.510318
vt 0.575907 0.665707
vt 0.848119 0.420804
vt 0.887349 0.382023
vt 0.900094 0.424487
vt 0.115585 0.747554
vt 0.032445 0.796944
vt 0.641711 0.440867
vt 0.293551 0.761613
vt 0.339348 0.705748
vt 0.368662 0.751681
vt 0.891343 0.640549
vt 0.999587 0.193535
vt 0.963448 0.185855
vt 0.981237 0.171775
vt 0.136096 0.679759
vt 0.169483 0.778512
vt 0.948049 0.683248
vt 0.521547 0.804156
vt 0.679293 0.536803
vt 0.625771 0.588119
vt 0.624893 0.489278
vt 0.396241 0.223822
vt 0.420826 0.172446
vt 0.780784 0.392092
vt 0.098246 0.583540
vt 0.136626 0.640748
vt 0.073213 0.627532
vt 0.605868 0.531080
vt 0.469344 0.171824
vt 0.204701 0.982707
vt 0.102798 0.969774
vt 0.156941 0.939535
vt 0.925492 0.046403
vt 0.897324 0.041454
vt 0.876165 0.069907
vt 0.925462 0.167838
vt 0.785004 0.188956
vt 0.519288 0.661366
vt 0.232652 0.831682
vt 0.271815 0.816170
vt 0.231971 0.848797
vt 0.171547 0.548148
vt 0.137250 0.321195
vt 0.239040 0.528685
vt 0.250171 0.722823
vt 0.306909 0.628675
vt 0.850989 0.876153
vt 0.557262 0.657225
vt 0.691649 0.671269
vt 0.916105 0.940364
vt 0.379365 0.857844
vt 0.150576 0.636330
vt 0.461421 0.449888
vt 0.436838 0.537152
vt 0.816593 0.885088
vt 0.141851 0.286572
vt 0.040079 0.322324
vt 0.257656 0.776505
vt 0.174109 0.783678
vt 0.476085 0.067580
vt 0.142785 0.285912
vt 0.228613 0.479233
vt 0.389114 0.145530
vt 0.562492 0.337132
vt 0.362535 0.931744
vt 0.403728 0.903742
vt 0.336528 0.880660
vt 0.955864 0.513910
vt 0.149595 0.132731
vt 0.051755 0.536309
vt 0.064989 0.464114
vt 0.028604 0.500669
vt 0.402877 0.952456
vt 0.417060 0.932358
vt 0.265385 0.867202
vt 0.215076 0.722676
vt 0.224661 0.688251
vt 0.737189 0.800250
vt 0.747274 0.807547
vt 0.201196 0.965132
vt 0.563075 0.185129
vt 0.147376 0.911833
vt 0.250450 0.880042
vt 0.294238 0.899225
vt 0.804092 0.301777
vt 0.857732 0.494635
vt 0.010917 0.291631
vt 0.024399 0.316433
vt 0.018859 0.257093
vt 0.157203 0.265093
vt 0.236602 0.753358
vt 0.267140 0.575732
vt 0.804761 0.823677
vt 0.906539 0.435486
s 0
f 21/1/1 38/2/1 94/3/1
f 9/4/2 83/5/2 68/6/2
f 61/7/3 34/8/3 44/9/3
f 9/4/4 38/10/4 83/5/4
f 67/11/5 9/12/5 15/13/5
f 80/14/6 98/15/6 81/16/6
f 24/17/7 31/18/7 54/19/7
f 31/18/8 94/20/8 54/21/8
f 67/22/9 19/23/9 37/24/9
f 15/13/10 9/12/10 84/25/10
f 102/26/11 100/27/11 26/28/11
f 37/29/12 9/12/12 67/11/12
f 104/30/13 74/31/13 25/32/13
f 24/33/14 19/23/14 31/34/14
f 12/35/15 89/36/15 104/37/15
f 52/38/16 81/39/16 63/40/16
f 68/41/17 84/25/17 9/12/17
f 102/42/18 101/43/18 47/44/18
f 24/17/19 20/45/19 19/46/19
f 94/47/20 38/48/20 67/49/20
f 67/49/21 38/48/21 64/50/21
f 68/51/22 22/52/22 84/53/22
f 48/54/23 22/55/23 68/56/23
f 37/57/24 64/58/24 38/59/24
f 22/52/25 45/60/25 84/53/25
f 24/61/26 26/62/26 25/63/26
f 64/64/27 83/65/27 48/66/27
f 48/54/28 83/67/28 22/55/28
f 64/64/29 68/68/29 83/65/29
f 19/69/30 20/70/30 21/71/30
f 90/72/31 89/73/31 91/74/31
f 74/31/32 89/75/32 90/76/32
f 21/77/33 22/52/33 83/5/33
f 49/78/34 102/26/34 26/28/34
f 62/79/35 45/80/35 22/81/35
f 12/82/36 13/83/36 89/84/36
f 5/85/37 4/86/37 104/87/37
f 3/88/38 11/89/38 4/90/38
f 21/71/39 62/79/39 22/81/39
f 104/91/40 6/92/40 5/93/40
f 6/94/41 26/95/41 56/96/41
f 56/96/42 26/95/42 8/97/42
f 50/98/43 51/99/43 76/100/43
f 11/101/44 13/83/44 12/82/44
f 92/102/45 43/103/45 1/104/45
f 65/105/46 16/106/46 66/107/46
f 13/108/47 71/109/47 89/73/47
f 33/110/48 44/111/48 60/112/48
f 44/113/49 61/114/49 60/115/49
f 89/73/50 71/109/50 88/116/50
f 4/90/51 6/117/51 3/88/51
f 67/118/52 47/44/52 94/119/52
f 14/120/53 10/121/53 71/122/53
f 2/123/54 96/124/54 80/125/54
f 11/101/55 14/126/55 13/83/55
f 62/127/56 59/128/56 58/129/56
f 92/130/57 95/131/57 75/132/57
f 77/133/58 103/134/58 47/44/58
f 74/135/59 24/61/59 25/63/59
f 88/136/60 71/137/60 93/138/60
f 50/139/61 95/140/61 96/141/61
f 51/99/62 50/98/62 2/142/62
f 51/143/63 2/144/63 35/145/63
f 85/146/64 78/147/64 17/148/64
f 48/149/65 37/57/65 21/150/65
f 45/151/66 62/127/66 58/129/66
f 78/147/67 18/152/67 17/148/67
f 23/153/68 21/71/68 20/70/68
f 27/154/69 103/155/69 77/156/69
f 76/100/70 28/157/70 39/158/70
f 67/159/71 15/160/71 77/161/71
f 101/162/72 54/21/72 94/20/72
f 77/156/73 15/163/73 40/164/73
f 47/165/74 67/159/74 77/161/74
f 49/166/75 54/167/75 101/168/75
f 64/169/76 31/170/76 67/171/76
f 72/172/77 30/173/77 57/174/77
f 6/175/78 25/176/78 26/177/78
f 94/178/79 31/170/79 64/169/79
f 37/57/80 48/149/80 68/179/80
f 49/166/81 101/168/81 102/180/81
f 94/178/82 64/169/82 21/181/82
f 101/182/83 94/183/83 47/184/83
f 75/185/84 27/154/84 77/156/84
f 92/130/85 77/156/85 40/164/85
f 48/186/86 21/181/86 64/169/86
f 51/99/87 28/187/87 76/100/87
f 40/188/88 84/189/88 45/190/88
f 28/191/89 27/192/89 39/193/89
f 104/194/90 25/176/90 6/175/90
f 100/195/91 102/196/91 16/197/91
f 21/77/92 83/5/92 38/10/92
f 92/130/93 40/164/93 43/198/93
f 16/197/94 102/196/94 51/199/94
f 51/200/95 102/201/95 28/157/95
f 41/202/96 40/188/96 45/190/96
f 26/203/97 100/204/97 16/205/97
f 4/90/98 5/206/98 6/117/98
f 41/202/99 45/190/99 60/207/99
f 39/208/100 75/185/100 76/209/100
f 45/151/101 58/129/101 60/112/101
f 65/210/102 26/203/102 16/205/102
f 8/211/103 26/212/103 65/213/103
f 23/153/104 20/70/104 55/214/104
f 66/215/105 16/197/105 51/199/105
f 11/89/106 3/88/106 30/173/106
f 41/202/107 60/207/107 44/9/107
f 71/216/108 13/217/108 14/218/108
f 24/219/109 49/220/109 26/221/109
f 66/222/110 51/223/110 36/224/110
f 65/225/111 56/226/111 8/227/111
f 7/228/112 56/226/112 65/225/112
f 59/229/113 62/230/113 32/231/113
f 41/202/114 44/9/114 34/8/114
f 30/232/115 69/233/115 10/234/115
f 33/235/116 41/202/116 34/8/116
f 65/236/117 66/237/117 36/238/117
f 57/239/118 56/226/118 7/228/118
f 86/240/119 73/241/119 72/242/119
f 55/243/120 88/244/120 93/245/120
f 97/246/121 95/140/121 42/247/121
f 10/248/122 11/249/122 30/250/122
f 14/251/123 11/249/123 10/248/123
f 7/228/124 65/225/124 79/252/124
f 79/253/125 65/254/125 86/255/125
f 30/173/126 3/88/126 57/174/126
f 96/141/127 95/140/127 97/246/127
f 72/242/128 57/239/128 7/228/128
f 72/242/129 7/228/129 86/240/129
f 59/256/130 55/257/130 17/148/130
f 65/236/131 36/238/131 86/258/131
f 71/259/132 70/260/132 93/261/132
f 36/262/133 51/143/133 35/145/133
f 7/263/134 79/264/134 86/265/134
f 70/266/135 55/243/135 93/245/135
f 85/267/136 55/243/136 70/266/136
f 35/145/137 2/144/137 80/268/137
f 2/123/138 50/269/138 96/124/138
f 86/270/139 80/271/139 85/272/139
f 63/273/140 81/16/140 17/274/140
f 86/258/141 36/238/141 35/275/141
f 86/276/142 85/277/142 73/278/142
f 85/272/143 80/271/143 53/279/143
f 17/274/144 81/16/144 46/280/144
f 87/281/145 46/282/145 33/283/145
f 80/284/146 81/285/146 52/286/146 29/287/146
f 88/116/147 91/288/147 89/73/147
f 80/125/148 96/124/148 99/289/148
f 53/290/149 52/291/149 78/292/149
f 98/293/150 97/294/150 46/295/150
f 69/296/151 73/297/151 70/260/151
f 52/38/152 63/40/152 17/298/152
f 53/279/153 80/271/153 29/299/153
f 86/270/154 35/300/154 80/271/154
f 52/38/155 17/298/155 18/301/155
f 18/302/156 78/292/156 52/291/156
f 58/129/157 33/110/157 60/112/157
f 99/303/158 97/246/158 98/293/158
f 23/153/159 32/304/159 62/305/159
f 96/141/160 97/246/160 99/303/160
f 24/306/161 54/167/161 49/166/161
f 42/307/162 46/308/162 97/294/162
f 103/309/163 102/26/163 47/44/163
f 59/256/164 32/310/164 55/257/164
f 17/274/165 87/311/165 59/229/165
f 37/57/166 68/179/166 64/58/166
f 42/312/167 33/235/167 46/313/167
f 76/209/168 75/185/168 95/140/168 50/314/168
f 55/214/169 32/304/169 23/153/169
f 80/14/170 99/315/170 98/15/170
f 27/192/171 28/157/171 102/201/171
f 77/156/172 92/130/172 75/185/172
f 75/185/173 39/208/173 27/154/173
f 91/316/174 20/317/174 74/135/174 90/318/174
f 37/57/175 19/319/175 21/150/175
f 70/266/176 73/278/176 85/277/176
f 84/189/177 40/188/177 15/320/177
f 6/321/178 56/322/178 57/323/178
f 88/324/179 55/325/179 20/317/179 91/316/179
f 85/267/180 53/326/180 78/292/180
f 69/296/181 30/327/181 72/328/181 73/297/181
f 61/329/182 44/111/182 33/110/182 34/330/182
f 27/192/183 102/201/183 103/331/183
f 81/16/184 98/15/184 82/332/184
f 29/333/185 52/334/185 53/335/185
f 19/23/186 67/22/186 31/34/186
f 89/75/187 74/31/187 104/30/187
f 17/148/188 55/257/188 85/146/188
f 4/86/189 11/336/189 12/337/189 104/87/189
f 57/338/190 3/339/190 6/340/190
f 42/312/191 43/341/191 40/188/191 41/202/191
f 71/259/192 10/342/192 69/296/192 70/260/192
f 82/332/193 46/280/193 81/16/193
f 82/343/194 98/293/194 46/295/194
f 87/344/195 33/110/195 58/129/195 59/128/195
f 41/202/196 33/235/196 42/312/196
f 74/135/197 20/317/197 24/61/197
f 23/153/198 62/305/198 21/71/198
f 9/345/199 37/57/199 38/59/199
f 17/274/200 46/280/200 87/311/200
