# Blender 4.1.1
# www.blender.org
mtllib pine3(stem)lowpoly1.mtl
o Tree_3_stem_lowpoly1
v 1.984050 -0.040941 0.811686
v 1.535545 7.882027 -1.680078
v 1.379920 -0.064302 -2.680522
v 1.442193 19.347372 0.595311
v 1.681653 7.750877 0.424774
v 1.329354 28.532724 0.397609
v -0.732827 12.934649 0.529728
v -1.480653 3.506519 -1.925304
v -1.087499 28.965420 -1.751928
v -1.021765 29.113426 0.568797
v -0.992638 4.350981 0.981508
v -1.520842 -0.043030 1.675127
v 5.009974 19.095413 1.926096
v -2.321731 -0.023783 -2.132316
v -7.225779 13.169742 -0.640155
v -2.140000 13.412350 -0.558086
v -6.494405 13.013532 0.335667
v -1.402397 0.344994 1.429342
v 1.044053 7.451595 0.106852
v 1.661770 6.360424 0.298694
v 1.395036 18.230923 0.645157
v 1.545594 17.789692 -0.922938
v -1.162262 15.800892 -2.105416
v 1.523136 16.745644 -2.124864
v -0.901368 28.565659 -2.132488
v -1.229690 11.854671 -0.152607
v 0.916611 29.478071 0.469458
v -1.310235 12.615998 -1.594212
v -5.849921 12.601763 -0.267743
v -11.486923 12.319539 -1.002876
v 4.069557 18.809784 4.351445
v 10.758905 7.314085 -1.521474
v 6.667264 8.125874 -2.070073
v 6.961781 7.701387 0.102678
v 10.126738 19.225471 3.915805
v 4.368487 19.244867 4.271942
v 1.531711 19.296213 -1.077500
v 6.583529 7.893139 -2.116391
v 1.506504 6.407492 -1.645794
v 1.477702 19.778807 -2.129356
v 1.376396 28.280962 -2.029624
vn 0.1584 0.1376 -0.9777
vn 0.1703 0.9712 0.1667
vn 0.0616 0.1383 0.9885
vn -0.1541 -0.8850 0.4394
vn -0.0006 0.9980 -0.0637
vn 0.0207 0.9818 0.1890
vn 0.0598 -0.0910 0.9941
vn -0.0424 0.9970 0.0651
vn -0.6494 0.5434 0.5320
vn 0.1283 -0.9514 0.2800
vn 0.9990 0.0036 0.0443
vn 0.9709 -0.1896 0.1466
vn 0.9973 0.0287 -0.0674
vn 0.9768 0.2093 0.0459
vn 0.2382 0.0895 0.9671
vn -0.1815 0.0515 0.9820
vn -0.0018 -0.0211 0.9998
vn 0.1484 0.1368 0.9794
vn 0.4828 0.8372 -0.2569
vn -0.0359 -0.5219 0.8522
vn -0.1282 -0.9897 -0.0637
vn 0.0615 -0.9937 -0.0932
vn 0.2391 -0.9631 -0.1240
vn -0.1449 0.0923 -0.9851
vn 0.2767 -0.9599 -0.0453
vn 0.6495 -0.0717 -0.7570
vn 0.2397 -0.9706 -0.0214
vn -0.8139 0.0602 0.5779
vn -0.0272 0.7819 -0.6228
vn -0.2638 -0.0073 -0.9646
vn -0.9867 0.0126 0.1620
vn -0.9899 0.0236 -0.1396
vn 0.1380 -0.2872 -0.9479
vn -0.2113 0.9280 0.3069
vn -0.0287 -0.8397 0.5423
vn 0.1452 0.0476 0.9883
vn 0.3116 -0.0902 0.9459
vn 0.9847 0.0359 -0.1706
vn -0.0019 0.0157 -0.9999
vn -0.9702 0.1777 0.1644
vn -0.0861 0.0127 -0.9962
vn 0.9993 0.0118 -0.0368
vn -0.9941 -0.0002 0.1087
vn -0.1453 -0.8500 -0.5063
vn 0.9957 -0.0066 -0.0925
vn 0.0832 0.9959 -0.0346
vn 0.9998 0.0122 0.0164
vn -0.0223 0.9489 0.3146
vn -0.8457 0.0535 0.5310
vn -0.9988 -0.0251 0.0425
vn 0.0165 0.0047 0.9999
vt 0.719611 0.324660
vt 0.720190 0.300205
vt 0.709389 0.358285
vt 0.688715 0.305165
vt 0.352946 0.992544
vt 0.422078 0.985333
vt 0.427392 0.992889
vt 0.761757 0.985076
vt 0.696747 0.989118
vt 0.769640 0.974434
vt 0.947446 0.769847
vt 0.914996 0.779166
vt 0.956543 0.847635
vt 0.692711 0.230451
vt 0.833256 0.518415
vt 0.836213 0.591932
vt 0.817313 0.592032
vt 0.715127 0.228936
vt 0.972365 0.598350
vt 0.988861 0.663351
vt 0.980713 0.663365
vt 0.291682 0.027756
vt 0.302718 0.046377
vt 0.245376 0.042165
vt 0.744464 0.357302
vt 0.782588 0.377340
vt 0.748625 0.235235
vt 0.767643 0.373922
vt 0.776929 0.234332
vt 0.675706 0.963651
vt 0.676950 0.983691
vt 0.669845 0.999580
vt 0.403548 0.441540
vt 0.441474 0.393439
vt 0.441328 0.445365
vt 0.177076 0.439574
vt 0.256430 0.404976
vt 0.192532 0.439131
vt 0.353668 0.441445
vt 0.382727 0.403484
vt 0.005128 0.461131
vt 0.014231 0.473442
vt 0.023064 0.459007
vt 0.696621 0.971036
vt 0.813917 0.974396
vt 0.749719 0.957904
vt 0.812859 0.942657
vt 0.171478 0.055522
vt 0.231034 0.004333
vt 0.885943 0.952430
vt 0.352404 0.109556
vt 0.399735 0.059213
vt 0.402837 0.115927
vt 0.886509 0.976067
vt 0.136755 0.060578
vt 0.133105 -0.000070
vt 0.156067 0.057298
vt 0.988863 0.593478
vt 0.014622 0.540068
vt 0.183867 0.110551
vt 0.353707 0.348448
vt 0.237832 0.378673
vt 0.362160 0.391443
vt 0.194235 0.388459
vt 0.738585 0.240860
vt 0.728091 0.317152
vt 0.739378 0.318609
vt 0.024822 0.531920
vt 0.001346 0.607851
vt 0.836914 0.996371
vt 0.230480 0.356615
vt 0.771595 0.212167
vt 0.782458 0.123847
vt 0.731515 0.124932
vt 0.012140 0.116165
vt 0.015024 0.083671
vt 0.130424 0.076346
vt 0.171626 0.073641
vt 0.412979 0.342151
vt 0.412304 0.386788
vt 0.835334 0.345996
vt 0.837527 0.270061
vt 0.818028 0.275351
vt 0.830595 0.345825
vt 0.021972 0.349211
vt 0.016472 0.378962
vt 0.721593 0.380613
vt 0.740383 0.383732
vt 0.748444 0.214584
vt 0.959799 0.709661
vt 0.939541 0.719137
vt 0.553438 0.998916
vt 0.558349 0.965058
vt 0.248137 0.363696
vt 0.052000 0.439381
vt 0.040032 0.432277
vt 0.046379 0.409560
s 0
f 38/1/1 33/2/1 32/3/1
f 32/3/2 33/2/2 34/4/2
f 35/5/3 36/6/3 31/7/3
f 29/8/4 26/9/4 17/10/4
f 13/11/5 36/12/5 35/13/5
f 33/2/6 5/14/6 34/4/6
f 34/15/7 5/16/7 20/17/7
f 33/2/8 2/18/8 5/14/8
f 4/19/9 31/20/9 36/21/9
f 21/22/10 22/23/10 13/24/10
f 24/25/11 21/26/11 2/27/11
f 22/28/12 21/26/12 24/25/12
f 2/27/13 21/26/13 5/29/13
f 4/30/14 37/31/14 40/32/14
f 20/33/15 12/34/15 1/35/15
f 4/36/16 7/37/16 21/38/16
f 21/38/17 7/37/17 5/39/17
f 20/33/18 11/40/18 12/34/18
f 28/41/19 16/42/19 7/43/19
f 7/44/20 17/10/20 26/9/20
f 38/45/21 32/46/21 34/47/21
f 13/24/22 35/48/22 31/49/22
f 20/50/23 38/45/23 34/47/23
f 8/51/24 3/52/24 14/53/24
f 39/54/25 38/45/25 20/50/25
f 37/55/26 13/56/26 22/57/26
f 13/24/27 31/49/27 21/22/27
f 4/19/28 21/58/28 31/20/28
f 15/59/29 16/42/29 28/41/29
f 8/51/30 23/60/30 3/52/30
f 11/61/31 28/62/31 8/63/31
f 28/62/32 23/64/32 8/63/32
f 30/65/33 15/66/33 29/67/33
f 17/68/34 15/59/34 30/69/34
f 29/8/35 17/10/35 30/70/35
f 7/71/36 11/61/36 5/39/36
f 20/33/37 5/39/37 11/40/37
f 20/72/38 1/73/38 3/74/38
f 23/60/39 25/75/39 41/76/39 40/77/39 24/78/39 3/52/39
f 12/79/40 11/61/40 8/63/40 14/80/40
f 38/81/41 39/82/41 2/83/41 33/84/41
f 22/57/42 24/78/42 40/77/42 37/55/42
f 23/64/43 28/62/43 7/71/43 10/85/43 9/86/43
f 29/67/44 15/66/44 28/87/44 26/88/44
f 2/27/45 39/89/45 20/72/45 3/74/45 24/25/45
f 13/11/46 37/90/46 4/91/46 36/12/46
f 40/32/47 41/92/47 6/93/47 4/30/47
f 17/68/48 7/43/48 16/42/48 15/59/48
f 11/61/49 7/71/49 26/94/49
f 26/94/50 28/62/50 11/61/50
f 4/36/51 6/95/51 27/96/51 10/97/51 7/37/51
l 18 12
