# Blender 4.1.1
# www.blender.org
mtllib pine3(stem)lowpoly2.mtl
o Pine3.stem_lowpoly3
v 2.095531 -0.040941 1.381488
v 1.491400 -0.064302 -2.110720
v 1.553674 19.347372 1.165112
v 1.440834 28.532724 0.967411
v -1.839052 -0.065516 -1.387653
v -0.976019 28.965420 -1.182127
v -0.910284 29.113426 1.138598
v -1.409361 -0.043030 2.244928
v 4.943547 19.173697 4.615813
v 1.626402 2.313286 1.144211
v -7.270543 12.931250 0.299028
v -0.764090 13.141701 0.973505
v -1.290916 0.344994 1.999143
v 1.155533 7.451595 0.676654
v 1.773250 6.360424 0.868496
v 1.506516 18.230923 1.214959
v -1.182046 12.661595 -1.436616
v -0.691837 11.733774 1.003883
v 1.028091 29.478071 1.039260
v 6.916338 8.010548 -1.519493
v 2.249324 7.763748 0.948180
v 1.647885 18.482323 -1.277362
v 1.669589 7.181063 -1.093066
v 0.543190 28.358971 -1.131345
vn -0.1700 0.9593 -0.2256
vn 0.3329 -0.9399 -0.0759
vn 0.9984 0.0028 0.0569
vn 0.9534 0.0751 -0.2922
vn 0.2382 0.0895 0.9671
vn -0.2220 0.0528 0.9736
vn -0.0424 -0.0285 0.9987
vn 0.2428 0.0870 0.9662
vn -0.1036 0.0161 0.9945
vn 0.4658 -0.2069 0.8603
vn 0.1130 -0.9145 -0.3886
vn -0.7105 0.0613 0.7010
vn -0.0117 0.9810 -0.1934
vn -0.2122 0.0072 -0.9772
vn -0.9752 0.0512 0.2153
vn 0.0516 0.0242 0.9984
vn -0.0395 -0.0433 0.9983
vn 0.9847 0.0359 -0.1706
vn -0.1350 -0.9349 -0.3283
vn 0.9981 -0.0162 -0.0595
vn -0.0137 0.0340 -0.9993
vn 0.0394 0.0151 -0.9991
vn -0.9948 0.0005 0.1016
vn -0.9905 0.0726 0.1167
vn 0.9803 0.0621 -0.1876
vn 0.9860 -0.0008 -0.1668
vn 0.3513 0.8867 -0.3005
vn -0.0037 -0.0004 1.0000
vt 0.719385 0.320981
vt 0.715127 0.228936
vt 0.692365 0.236920
vt 0.291682 0.027756
vt 0.302718 0.046377
vt 0.204026 0.036474
vt 0.755055 0.364895
vt 0.782588 0.377340
vt 0.748539 0.225428
vt 0.776929 0.234332
vt 0.403548 0.441540
vt 0.441474 0.393439
vt 0.441328 0.445365
vt 0.177076 0.439574
vt 0.256430 0.404976
vt 0.192532 0.439131
vt 0.353668 0.441445
vt 0.382727 0.403484
vt 0.696621 0.971036
vt 0.776743 0.986381
vt 0.696747 0.989118
vt 0.885943 0.952430
vt 0.811266 0.973715
vt 0.812859 0.942657
vt 0.886509 0.976067
vt 0.972365 0.598350
vt 0.988863 0.593478
vt 0.983941 0.663360
vt 0.009799 0.568212
vt 0.021926 0.460866
vt 0.005128 0.461131
vt 0.402070 0.115830
vt 0.183867 0.110551
vt 0.399735 0.059213
vt 0.251201 0.363253
vt 0.236334 0.379009
vt 0.411541 0.386859
vt 0.230480 0.356615
vt 0.771595 0.212167
vt 0.782458 0.123847
vt 0.731515 0.124932
vt 0.733227 0.310370
vt 0.721593 0.380613
vt 0.740383 0.383732
vt 0.013855 0.096842
vt 0.147859 0.069173
vt 0.016472 0.378962
vt 0.021972 0.349211
vt 0.412979 0.342151
vt 0.558349 0.965058
vt 0.675706 0.963651
vt 0.671804 0.995199
vt 0.553438 0.998916
vt 0.920695 0.777382
vt 0.959799 0.709661
vt 0.939541 0.719137
vt 0.052000 0.439381
vt 0.040032 0.432277
vt 0.046379 0.409560
s 0
f 20/1/1 23/2/1 21/3/1
f 16/4/2 22/5/2 9/6/2
f 22/7/3 16/8/3 23/9/3
f 23/9/4 16/8/4 21/10/4
f 15/11/5 8/12/5 1/13/5
f 3/14/6 12/15/6 16/16/6
f 16/16/7 12/15/7 21/17/7
f 15/11/8 18/18/8 8/12/8
f 12/19/9 11/20/9 18/21/9
f 15/22/10 20/23/10 21/24/10
f 23/25/11 20/23/11 15/22/11
f 3/26/12 16/27/12 9/28/12
f 11/29/13 12/30/13 17/31/13
f 5/32/14 17/33/14 2/34/14
f 18/35/15 17/36/15 5/37/15
f 12/38/16 18/35/16 21/17/16
f 15/11/17 21/17/17 18/18/17
f 15/39/18 1/40/18 2/41/18
f 11/42/19 17/43/19 18/44/19
f 23/9/20 15/39/20 2/41/20
f 2/34/21 17/33/21 24/45/21 22/46/21
f 24/45/22 17/36/22 6/47/22
f 17/36/23 12/38/23 7/48/23 6/47/23
f 8/49/24 18/35/24 5/37/24
f 4/50/25 3/51/25 22/52/25 24/53/25
f 22/7/26 23/9/26 2/41/26
f 9/54/27 22/55/27 3/56/27
f 3/14/28 4/57/28 19/58/28 7/59/28 12/15/28
l 13 8
l 10 1
