# Blender 4.1.1
# www.blender.org
mtllib pine3(stem).mtl
o Tree_3.001
v 1.756114 -0.040941 0.909015
v 1.307609 7.882027 -1.582750
v 1.111398 3.265606 -2.380576
v 1.526842 2.801920 0.786110
v 1.214257 19.347372 0.692639
v 1.413795 7.915573 0.713829
v 1.101418 28.532724 0.494938
v -0.705086 13.604220 0.761939
v -1.708589 3.506519 -1.827976
v -1.315435 28.965420 -1.654600
v -1.249700 29.113426 0.666125
v -1.220574 4.350981 1.078836
v -1.748777 -0.043030 1.772455
v 7.709372 19.097618 3.189334
v 4.782038 19.095413 2.023424
v -2.549667 -0.023783 -2.034988
v 1.286985 2.313286 0.671737
v -7.091993 13.348546 -0.239562
v -2.367936 13.412350 -0.460758
v -1.472917 12.879218 -1.336389
v -1.313685 13.054266 0.233131
v -6.722341 13.013532 0.432995
v -1.630333 0.344994 1.526670
v 0.816117 7.451595 0.204180
v 1.465649 6.422115 -0.061409
v 1.167100 18.230923 0.742486
v 1.317658 17.789692 -0.825610
v -1.390198 15.800892 -2.008088
v 1.295200 16.745644 -2.027535
v -1.129304 28.565659 -2.035160
v -1.331107 12.118274 0.214501
v -1.457590 11.720325 -0.562918
v 0.688675 29.478071 0.566786
v -1.545264 12.254056 -1.340898
v -6.100368 13.052868 -0.816502
v -6.077857 12.601763 -0.170415
v -11.714859 12.319539 -0.905548
v 3.841621 18.809784 4.448773
v 8.491906 7.642818 -0.701381
v 10.279230 7.341429 -1.565967
v 6.439329 8.125874 -1.972745
v 6.733845 7.701387 0.200006
v 1.444029 7.792324 -0.031352
v 9.956797 19.268154 4.019546
v 4.140552 19.244867 4.369270
v 1.303775 19.296213 -0.980171
v 6.882298 7.802618 -2.169947
v 11.326655 7.089134 -1.442675
v 5.381136 7.699493 -1.882647
v 1.278569 6.407492 -1.548465
v 1.290973 -0.054100 -2.726070
v 1.249767 19.778807 -2.032028
v 1.148460 28.280962 -1.932296
vn 0.9899 0.0701 -0.1235
vn 0.2925 0.8036 0.5183
vn 0.2157 0.7067 -0.6738
vn 0.1219 0.9771 0.1744
vn 0.0006 0.0115 -0.9999
vn 0.0589 0.1402 0.9884
vn -0.1270 -0.8757 0.4659
vn -0.0079 0.9978 -0.0657
vn 0.0085 0.9816 0.1906
vn -0.0441 -0.0226 0.9988
vn -0.0427 0.9972 0.0614
vn -0.6494 0.5434 0.5320
vn -0.9702 0.1777 0.1644
vn 0.1283 -0.9514 0.2800
vn -0.0744 -0.0227 -0.9970
vn 0.8657 0.4984 -0.0473
vn 0.9990 0.0036 0.0443
vn 0.9709 -0.1896 0.1466
vn 0.9986 0.0240 -0.0465
vn 0.9768 0.2093 0.0459
vn 0.9993 0.0118 -0.0368
vn 0.2387 0.0612 0.9692
vn -0.1108 0.0490 0.9926
vn 0.0163 -0.0024 0.9999
vn 0.1786 0.1324 0.9750
vn 0.4007 0.9052 -0.1416
vn 0.0371 -0.0206 0.9991
vn 0.1995 0.9773 0.0718
vn -0.9874 0.0032 0.1583
vn -0.2034 -0.8126 -0.5462
vn 0.9884 -0.0135 -0.1514
vn -0.0964 0.8087 -0.5802
vn 0.9994 0.0209 0.0265
vn -0.2045 -0.9547 -0.2160
vn -0.1256 -0.9908 -0.0502
vn 0.0749 -0.9972 0.0021
vn 0.3487 -0.3363 -0.8748
vn 0.0832 0.9959 -0.0346
vn -0.1991 0.2969 -0.9339
vn 0.0611 -0.9974 -0.0388
vn 0.0410 -0.9940 -0.1012
vn 0.2404 -0.9582 -0.1553
vn -0.1789 0.0963 -0.9791
vn 0.2982 -0.9541 -0.0281
vn 0.9998 0.0122 0.0164
vn 0.0092 0.8956 0.4447
vn 0.6495 -0.0717 -0.7570
vn 0.2397 -0.9706 -0.0214
vn -0.8139 0.0602 0.5779
vn -0.0317 0.8498 -0.5261
vn -0.1931 -0.0094 -0.9811
vn -0.9308 0.0257 0.3647
vn -0.9330 0.1055 0.3440
vn -0.9866 0.0093 0.1629
vn -0.9945 0.0243 -0.1022
vn -0.1109 0.0200 -0.9936
vn 0.0413 0.0108 0.9991
vn 0.1152 -0.8126 -0.5714
vn -0.2562 0.8016 0.5401
vn -0.0287 -0.8397 0.5423
vn 0.0992 0.0285 0.9947
vn 0.1152 0.0166 0.9932
vn -0.8909 0.0172 -0.4539
vt 0.781413 0.162687
vt 0.782458 0.123847
vt 0.731497 0.124772
vt 0.736446 0.168830
vt 0.710231 0.368807
vt 0.701205 0.329271
vt 0.688715 0.305165
vt 0.719611 0.324660
vt 0.720190 0.300205
vt 0.713189 0.355629
vt 0.015024 0.083671
vt 0.130424 0.076346
vt 0.171626 0.073641
vt 0.356782 0.065728
vt 0.183867 0.110551
vt 0.012140 0.116165
vt 0.352946 0.992544
vt 0.422078 0.985333
vt 0.427392 0.992889
vt 0.761757 0.985076
vt 0.697786 0.996166
vt 0.695981 0.983918
vt 0.769640 0.974434
vt 0.947446 0.769847
vt 0.914996 0.779166
vt 0.956590 0.848469
vt 0.692711 0.230451
vt 0.833256 0.518415
vt 0.836213 0.591932
vt 0.817313 0.592032
vt 0.715127 0.228936
vt 0.972365 0.598350
vt 0.988861 0.663351
vt 0.980713 0.663365
vt 0.353707 0.348448
vt 0.362160 0.391443
vt 0.412304 0.386788
vt 0.412979 0.342151
vt 0.291682 0.027756
vt 0.302718 0.046377
vt 0.245376 0.042165
vt 0.818028 0.275351
vt 0.830595 0.345825
vt 0.834125 0.336857
vt 0.837527 0.270061
vt 0.748625 0.235235
vt 0.779296 0.234795
vt 0.771066 0.233184
vt 0.744464 0.357302
vt 0.782588 0.377340
vt 0.767643 0.373922
vt 0.675706 0.963651
vt 0.676950 0.983691
vt 0.669845 0.999580
vt 0.136755 0.060578
vt 0.156067 0.057298
vt 0.403548 0.441540
vt 0.441474 0.393439
vt 0.441328 0.445365
vt 0.177076 0.439574
vt 0.256430 0.404976
vt 0.192532 0.439131
vt 0.353668 0.441445
vt 0.382727 0.403484
vt 0.005128 0.461131
vt 0.014231 0.473442
vt 0.023064 0.459007
vt 0.696621 0.971036
vt 0.021972 0.349211
vt 0.016472 0.378962
vt 0.194235 0.388459
vt 0.232926 0.376343
vt 0.232737 0.359791
vt 0.245698 0.359065
vt 0.226720 0.351325
vt 0.728091 0.317152
vt 0.727788 0.381869
vt 0.740383 0.383732
vt 0.739378 0.318609
vt 0.771142 0.214447
vt 0.748444 0.214584
vt 0.004612 0.524999
vt 0.001346 0.607851
vt 0.013768 0.538783
vt 0.755876 0.961383
vt 0.746841 0.956279
vt 0.812859 0.942657
vt 0.807966 0.976097
vt 0.197708 0.051007
vt 0.170811 0.055637
vt 0.231034 0.004333
vt 0.954696 0.814822
vt 0.939541 0.719137
vt 0.959799 0.709661
vt 0.835989 0.350949
vt 0.824901 0.971256
vt 0.885943 0.952430
vt 0.352404 0.109556
vt 0.399891 0.059189
vt 0.402837 0.115927
vt 0.886509 0.976067
vt 0.558349 0.965058
vt 0.553438 0.998916
vt 0.024822 0.531920
vt 0.133105 -0.000070
vt 0.988863 0.593478
vt 0.251442 0.369973
vt 0.244358 0.381771
vt 0.716935 0.379668
vt 0.046379 0.409560
vt 0.052000 0.439381
vt 0.040032 0.432277
vt 0.738585 0.240860
vt 0.836914 0.996371
s 0
f 4/1/1 1/2/1 51/3/1 3/4/1
f 48/5/2 39/6/2 42/7/2
f 47/8/3 41/9/3 40/10/3
f 39/6/4 41/9/4 42/7/4
f 53/11/5 52/12/5 29/13/5 3/14/5 28/15/5 30/16/5
f 44/17/6 45/18/6 38/19/6
f 36/20/7 32/21/7 31/22/7 22/23/7
f 15/24/8 45/25/8 44/26/8
f 41/9/9 43/27/9 42/7/9
f 42/28/10 43/29/10 25/30/10
f 41/9/11 2/31/11 43/27/11
f 5/32/12 38/33/12 45/34/12
f 12/35/13 9/36/13 16/37/13 13/38/13
f 26/39/14 27/40/14 15/41/14
f 2/42/15 41/43/15 49/44/15 50/45/15
f 2/46/16 6/47/16 43/48/16
f 29/49/17 26/50/17 2/46/17
f 27/51/18 26/50/18 29/49/18
f 2/46/19 26/50/19 6/47/19
f 5/52/20 46/53/20 52/54/20
f 52/12/21 46/55/21 27/56/21 29/13/21
f 4/57/22 13/58/22 1/59/22
f 5/60/23 8/61/23 26/62/23
f 26/62/24 8/61/24 6/63/24
f 4/57/25 12/64/25 13/58/25
f 20/65/26 19/66/26 21/67/26
f 21/68/27 22/23/27 31/22/27
f 40/10/28 41/9/28 39/6/28 48/5/28
f 11/69/29 10/70/29 28/71/29 20/72/29 21/73/29 31/74/29 8/75/29
f 35/76/30 34/77/30 32/78/30 36/79/30
f 25/80/31 4/1/31 3/4/31 29/49/31 2/46/31 50/81/31
f 35/82/32 37/83/32 18/84/32
f 6/47/33 4/1/33 25/80/33 43/48/33
f 40/85/34 48/86/34 42/87/34
f 47/88/35 40/85/35 42/87/35
f 14/89/36 44/90/36 38/91/36
f 15/24/37 44/26/37 14/92/37
f 5/93/38 45/25/38 15/24/38 46/94/38
f 41/43/39 47/95/39 49/44/39
f 47/88/40 42/87/40 49/96/40
f 15/41/41 14/89/41 38/91/41
f 25/97/42 49/96/42 42/87/42
f 9/98/43 3/14/43 51/99/43 16/100/43
f 50/101/44 49/96/44 25/97/44
f 7/102/45 5/52/45 52/54/45 53/103/45
f 19/66/46 18/84/46 22/104/46 21/67/46
f 46/55/47 15/105/47 27/56/47
f 15/41/48 38/91/48 26/39/48
f 5/32/49 26/106/49 38/33/49
f 35/82/50 18/84/50 19/66/50 20/65/50
f 9/98/51 28/15/51 3/14/51
f 8/75/52 31/74/52 32/107/52 34/108/52 12/35/52
f 20/72/53 28/71/53 34/108/53
f 12/35/54 34/108/54 9/36/54
f 34/108/55 28/71/55 9/36/55
f 35/76/56 20/109/56 34/77/56
f 11/110/57 8/61/57 5/60/57 7/111/57 33/112/57
f 37/113/58 35/76/58 36/79/58
f 22/104/59 18/84/59 37/83/59
f 36/20/60 22/23/60 37/114/60
f 8/75/61 12/35/61 6/63/61
f 4/57/62 6/63/62 12/64/62
f 30/16/63 28/71/63 10/70/63
l 23 13
l 17 1
