# Blender 4.1.1
# www.blender.org
mtllib pine3(leaves)lowpoly2.mtl
o Pine3.leaves_lowpoly3
v 1.440844 28.532722 0.259812
v 1.225250 43.698372 -4.669135
v -0.162992 54.308392 -1.210022
v -5.399213 31.849836 0.630848
v 10.730482 25.697758 6.083745
v 3.249928 31.811481 4.266425
v 4.993496 27.653290 5.017579
v 4.398033 37.867947 1.042276
v 4.244042 35.635895 -5.063181
v -3.992207 43.535721 -1.765952
v -1.227650 23.101551 9.809891
v 7.220262 28.224648 1.852401
v 5.308566 30.404245 1.417493
v 4.468990 26.848043 4.240293
v -0.816994 29.289404 0.760854
v 0.162207 23.662872 9.381165
v 5.611115 22.103174 11.888762
v 5.491546 30.070709 3.590351
v -1.111435 37.653366 3.747208
v -2.674088 27.893871 6.866850
v 1.698107 23.710678 9.390100
v -0.384672 23.448708 9.562561
v 6.843454 30.568445 1.449832
v 0.890750 31.233072 -6.184435
v 6.942258 29.557665 1.216439
v -0.228677 42.677406 2.873313
v 0.303360 26.208071 -8.057615
v 6.889886 27.225382 -0.009083
v -4.344317 37.146538 -0.531317
v -5.064091 30.587296 -5.307448
v -7.059346 26.336363 -1.597201
v 4.712315 30.264864 3.602576
v -0.417214 37.884880 -5.787974
v 3.847941 42.941784 0.073432
v 1.255316 28.287407 -2.405449
v 4.300385 32.143726 -2.825130
vn 0.6792 0.7215 0.1344
vn 0.8673 0.0310 0.4968
vn 0.4480 -0.7907 0.4172
vn 0.9051 0.3300 0.2680
vn -0.9354 0.3315 -0.1233
vn 0.8682 0.2675 -0.4179
vn 0.7000 -0.1833 -0.6902
vn 0.9700 0.0957 -0.2235
vn 0.9935 0.0962 -0.0602
vn 0.8572 0.2624 -0.4432
vn 0.4698 0.8504 0.2370
vn -0.0035 0.2247 -0.9744
vn 0.9044 -0.3392 -0.2589
vn -0.0382 0.1632 0.9859
vn 0.9052 -0.2872 -0.3133
vn 0.2311 0.9053 0.3565
vn 0.1340 0.4832 0.8652
vn -0.7025 -0.0819 -0.7070
vn 0.1471 0.4429 0.8844
vn 0.6942 0.3993 0.5990
vn 0.8745 0.4127 0.2548
vn 0.2118 0.1267 -0.9691
vn 0.5315 0.2779 0.8002
vn 0.2943 0.9496 -0.1079
vn -0.0206 0.5005 0.8655
vn -0.0255 0.6832 0.7298
vn 0.5636 0.0444 0.8248
vn 0.0444 0.5346 0.8439
vn -0.1741 0.3618 -0.9159
vn 0.5159 0.7915 -0.3277
vn -0.0547 0.6083 0.7918
vn -0.8043 0.2757 0.5264
vn 0.8745 0.2101 -0.4372
vn 0.6723 -0.0646 0.7374
vn -0.3952 -0.9130 -0.1013
vn -0.3230 -0.8693 0.3742
vn -0.1190 -0.9807 -0.1549
vn -0.6151 -0.5881 -0.5252
vn 0.8457 0.3369 -0.4139
vn 0.7548 0.6086 0.2448
vn -0.4241 -0.9056 0.0090
vn 0.6991 -0.3778 -0.6071
vn -0.0138 -0.8506 -0.5256
vn -0.5626 -0.0925 0.8216
vn 0.1985 0.0972 -0.9753
vn 0.3975 0.3713 0.8391
vn -0.4800 0.2145 -0.8506
vn 0.0297 -0.8607 -0.5083
vn 0.9997 -0.0000 -0.0252
vn 0.2591 -0.9031 -0.3425
vn -0.3564 -0.5647 -0.7444
vn -0.1488 0.0297 -0.9884
vn -0.7941 -0.0728 -0.6035
vn -0.7350 0.2283 0.6385
vn -0.4718 0.2933 -0.8315
vn -0.7884 0.2373 0.5676
vn -0.6272 -0.3239 -0.7083
vn -0.7470 0.4430 -0.4958
vn -0.8910 0.0883 0.4454
vn 0.4238 0.2140 0.8801
vn -0.9802 0.1749 -0.0925
vn -0.5710 -0.2273 -0.7889
vn 0.4474 -0.8917 -0.0677
vn 0.2381 0.2609 0.9355
vn 0.6621 0.1926 -0.7242
vn -0.6421 -0.7627 0.0772
vn 0.7706 0.0416 -0.6359
vn 0.8434 0.1978 -0.4996
vn -0.7777 0.3010 0.5520
vn -0.7508 0.1650 0.6396
vn -0.2407 -0.9277 -0.2852
vn -0.7215 -0.5485 0.4225
vn 0.8628 0.2552 -0.4364
vt 0.176336 0.868832
vt 0.176980 0.886117
vt 0.171892 0.889908
vt 0.816248 0.822257
vt 0.861269 0.816234
vt 0.847980 0.813758
vt 0.014608 0.214667
vt 0.004551 0.222812
vt 0.021713 0.209747
vt 0.841959 0.845724
vt 0.420884 0.295941
vt 0.520412 0.268050
vt 0.408091 0.253205
vt 0.717081 0.077726
vt 0.621214 0.230701
vt 0.730330 0.245465
vt 0.768826 0.015082
vt 0.691398 0.033488
vt 0.744900 0.007462
vt 0.108261 0.856020
vt 0.090394 0.881013
vt 0.113751 0.842489
vt 0.868739 0.278279
vt 0.896742 0.383943
vt 0.547116 0.793003
vt 0.837871 0.046600
vt 0.814487 0.026495
vt 0.128801 0.816033
vt 0.132509 0.836183
vt 0.114424 0.841856
vt 0.126125 0.843358
vt 0.694960 0.192188
vt 0.695112 0.221293
vt 0.688191 0.197443
vt 0.914017 0.448582
vt 0.929803 0.413864
vt 0.913791 0.404758
vt 0.852352 0.778448
vt 0.872174 0.653694
vt 0.825050 0.748653
vt 0.491867 0.747643
vt 0.496599 0.724181
vt 0.486739 0.731675
vt 0.704131 0.190317
vt 0.501238 0.729828
vt 0.541325 0.625962
vt 0.347471 0.627414
vt 0.431819 0.577445
vt 0.874968 0.827185
vt 0.518504 0.510342
vt 0.466835 0.561056
vt 0.947992 0.150931
vt 0.922252 0.228092
vt 0.694772 0.317529
vt 0.678723 0.397326
vt 0.644561 0.240009
vt 0.597910 0.241180
vt 0.553183 0.998499
vt 0.545792 0.971458
vt 0.558349 0.965058
vt 0.772920 0.739985
vt 0.730291 0.795429
vt 0.709494 0.792212
vt 0.231168 0.976910
vt 0.223185 0.980269
vt 0.252063 0.980269
vt 0.868370 0.081360
vt 0.839144 0.051006
vt 0.779388 0.096230
vt 0.747274 0.807547
vt 0.737189 0.800250
vt 0.780201 0.564604
vt 0.794689 0.700019
vt 0.725398 0.561857
vt 0.941096 0.414009
vt 0.957230 0.394241
vt 0.648422 0.823934
vt 0.726626 0.686318
vt 0.021178 0.762684
vt 0.545702 0.960847
vt 0.316005 0.813006
vt 0.515961 0.959369
vt 0.520411 0.975473
vt 0.404114 0.965434
vt 0.934022 0.418627
vt 0.213589 0.738398
vt 0.199540 0.765122
vt 0.156100 0.738634
vt 0.247336 0.159404
vt 0.340568 0.217677
vt 0.188471 0.308493
vt 0.188274 0.216101
vt 0.162208 0.759022
vt 0.586453 0.925847
vt 0.487089 0.870891
vt 0.588593 0.895505
vt 0.211194 0.145763
vt 0.904340 0.603503
vt 0.902230 0.456395
vt 0.850382 0.540466
vt 0.113473 0.185486
vt 0.017823 0.121530
vt 0.031745 0.190433
vt 0.878318 0.635854
vt 0.431007 0.573145
vt 0.319801 0.581477
vt 0.626333 0.219216
vt 0.580238 0.053509
vt 0.520740 0.103157
vt 0.047382 0.714779
vt 0.045000 0.687151
vt 0.067914 0.684504
vt 0.034189 0.258003
vt 0.642276 0.463583
vt 0.785636 0.540672
vt 0.753573 0.428251
vt 0.629572 0.671811
vt 0.649962 0.615505
vt 0.677046 0.726027
vt 0.598886 0.510318
vt 0.599296 0.321397
vt 0.511858 0.450166
vt 0.659146 0.750831
vt 0.293551 0.761613
vt 0.318583 0.656414
vt 0.368662 0.751681
vt 0.369482 0.699669
vt 0.521547 0.804156
vt 0.473697 0.701152
vt 0.679293 0.536803
vt 0.661488 0.633200
vt 0.624152 0.490906
vt 0.433277 0.162003
vt 0.785004 0.188956
vt 0.557262 0.657225
vt 0.143027 0.285562
vt 0.228613 0.479233
vt 0.461421 0.449888
vt 0.621438 0.819871
vt 0.548132 0.821059
vt 0.516730 0.818139
vt 0.955864 0.513910
vt 0.201196 0.965132
vt 0.032445 0.796944
vt 0.226209 0.723537
vt 0.906539 0.435486
vt 0.777367 0.504055
vt 0.804092 0.301777
vt 0.843111 0.488820
s 0
f 6/1/1 13/2/1 36/3/1
f 28/4/2 32/5/2 14/6/2
f 22/7/3 11/8/3 16/9/3
f 28/4/4 13/10/4 32/5/4
f 30/11/5 31/12/5 4/13/5
f 8/14/6 23/15/6 36/16/6
f 25/17/7 5/18/7 12/19/7
f 12/20/8 28/21/8 25/22/8
f 34/23/9 8/24/9 9/25/9
f 8/26/10 5/18/10 23/27/10
f 36/28/11 13/29/11 25/30/11
f 25/30/12 13/29/12 23/31/12
f 18/32/13 7/33/13 14/34/13
f 12/35/14 23/36/14 13/37/14
f 7/38/15 17/39/15 14/40/15
f 23/41/16 32/42/16 18/43/16
f 18/32/17 32/44/17 7/33/17
f 23/41/18 14/45/18 32/42/18
f 5/46/19 8/47/19 6/48/19
f 6/49/20 7/38/20 32/5/20
f 6/48/21 17/50/21 7/51/21
f 2/52/22 9/53/22 33/54/22
f 3/55/23 26/56/23 34/57/23
f 35/58/24 15/59/24 1/60/24
f 20/61/25 16/62/25 21/63/25
f 16/64/26 22/65/26 21/66/26
f 34/67/27 26/68/27 19/69/27
f 20/61/28 11/70/28 22/71/28 16/62/28
f 24/72/29 27/73/29 30/74/29
f 18/75/30 12/35/30 6/76/30
f 17/77/31 6/78/31 20/61/31
f 29/79/32 4/80/32 20/81/32
f 36/82/33 25/83/33 28/84/33
f 12/35/34 18/75/34 14/85/34
f 36/86/35 23/87/35 6/88/35
f 35/89/36 27/90/36 28/91/36
f 35/89/37 28/91/37 14/92/37
f 18/93/38 6/88/38 23/87/38
f 34/94/39 9/95/39 2/96/39
f 6/49/40 32/5/40 13/10/40
f 35/89/41 14/92/41 15/97/41
f 9/98/42 36/99/42 24/100/42
f 14/101/43 17/102/43 21/103/43
f 17/77/44 20/61/44 21/63/44
f 33/104/45 9/98/45 24/100/45
f 6/105/46 8/47/46 19/106/46
f 3/107/47 2/108/47 10/109/47
f 14/101/48 21/103/48 16/9/48
f 8/110/49 36/111/49 9/112/49
f 14/101/50 16/9/50 11/8/50
f 20/113/51 14/101/51 11/8/51
f 33/114/52 24/115/52 30/116/52
f 33/117/53 29/118/53 10/119/53
f 26/120/54 3/121/54 10/122/54
f 10/119/55 2/123/55 33/117/55
f 26/124/56 29/125/56 19/126/56
f 30/127/57 27/128/57 31/129/57
f 33/130/58 30/131/58 29/132/58
f 20/133/59 4/13/59 31/12/59
f 19/69/60 8/134/60 34/67/60
f 29/132/61 30/131/61 4/135/61
f 12/35/62 14/85/62 23/36/62
f 15/136/63 20/113/63 31/137/63
f 19/106/64 20/138/64 6/105/64
f 27/139/65 24/140/65 36/141/65
f 12/35/66 5/142/66 6/76/66
f 27/139/67 36/141/67 28/143/67
f 5/18/68 25/17/68 23/27/68
f 20/81/69 19/144/69 29/79/69
f 26/124/70 10/145/70 29/125/70
f 14/101/71 20/113/71 15/136/71
f 28/146/72 12/35/72 13/37/72
f 2/147/73 3/148/73 34/149/73
