# Blender 4.1.1
# www.blender.org
mtllib pine2(leaves)lowpoly2.mtl
o Pine1.leaves_lowpoly3
v 7.457323 12.041061 -5.764418
v 6.186043 29.520817 6.941368
v -1.084660 42.738586 2.981740
v -4.569646 37.056152 -3.012314
v -0.663980 51.322128 0.911384
v 0.266917 0.991064 3.968005
v -2.904692 29.058107 6.089133
v -1.987809 36.322815 0.282651
v -5.745148 28.883207 -1.273533
v -2.105539 11.680188 -8.183664
v 2.371475 42.945419 0.313098
v 2.102095 28.609442 -5.555482
v 3.468240 28.662924 -0.993736
v -0.221612 11.723259 11.668132
v -5.718570 28.270500 1.733235
v -9.041149 11.914238 8.536924
v 5.097478 28.403166 1.853441
v 10.234678 20.481606 1.045903
v -1.312370 36.159679 4.374342
v 4.665592 21.294117 -5.262753
v -9.203464 20.477201 -6.089705
v 4.283080 36.787781 5.872278
v -2.591920 42.474815 -0.503113
v 3.570730 36.261406 -0.347021
v 4.479987 20.115423 -2.289588
v -11.342239 11.839222 2.670657
v -11.593136 11.878399 -6.073853
v 9.623611 11.778750 8.292222
v 5.099076 19.878351 4.007234
v 9.863757 12.154489 0.094186
v -6.392715 19.888508 -0.731100
v 0.168956 19.956043 8.515844
v 8.283339 20.423832 9.352485
v -8.579688 20.994503 5.859372
vn -0.9031 0.1186 0.4126
vn 0.7562 0.5296 -0.3844
vn -0.2690 0.1623 0.9494
vn 0.0302 -0.9776 0.2083
vn 0.3208 0.1499 -0.9352
vn 0.6881 0.6638 -0.2930
vn -0.9129 0.1375 0.3844
vn -0.9239 0.3813 0.0317
vn 0.6553 0.3190 0.6847
vn 0.2653 0.5625 0.7831
vn 0.8219 0.4521 -0.3464
vn 0.5972 0.1603 0.7859
vn 0.8579 -0.1257 -0.4982
vn -0.1585 0.6170 -0.7708
vn 0.9896 0.1017 0.1021
vn 0.8687 0.0304 -0.4943
vn -0.7877 0.4422 0.4289
vn -0.0245 -0.9995 0.0190
vn 0.1495 0.1242 -0.9809
vn -0.5968 0.6846 0.4185
vn -0.1031 0.2553 0.9614
vn 0.6568 0.2423 0.7141
vn -0.8964 0.4326 0.0961
vn -0.8465 0.5318 0.0267
vn 0.8609 0.5065 0.0484
vn -0.9109 0.1555 0.3822
vn 0.7682 0.6245 -0.1408
vn 0.4685 0.2165 0.8565
vn 0.0231 0.4898 -0.8715
vn -0.7567 0.5213 0.3946
vn 0.0500 -0.9962 0.0719
vn 0.0667 -0.9874 -0.1435
vn 0.8352 0.5464 -0.0615
vn -0.1126 0.2203 0.9689
vn 0.1145 0.3827 -0.9167
vn -0.7561 0.5871 0.2891
vn -0.3062 0.3530 0.8841
vn 0.7719 0.5895 -0.2381
vn 0.0383 0.5056 -0.8619
vn -0.9526 0.2540 0.1674
vn -0.1112 0.0858 -0.9901
vn -0.0337 -0.9284 -0.3701
vn 0.4837 0.1869 -0.8550
vn -0.1230 0.6311 -0.7659
vn -0.4310 0.3881 -0.8146
vn 0.3739 0.7100 0.5967
vn 0.6097 0.0312 0.7920
vn -0.2833 -0.9590 0.0085
vn -0.9369 0.3409 0.0777
vn -0.2747 0.2082 0.9387
vn -0.0327 -0.9807 -0.1927
vn 0.0902 -0.9949 -0.0463
vn 0.0918 -0.9931 0.0735
vn -0.0217 -0.9998 -0.0039
vn 0.2031 0.4493 -0.8700
vn -0.1513 -0.9818 0.1146
vn -0.3079 -0.9497 0.0572
vn 0.0101 -0.9999 -0.0034
vt 0.134853 0.917315
vt 0.179060 0.834223
vt 0.228979 0.911937
vt 0.779411 0.345964
vt 0.781857 0.227145
vt 0.753767 0.220082
vt 0.257279 0.651573
vt 0.358989 0.741277
vt 0.208438 0.763956
vt 0.852208 0.467576
vt 0.832633 0.345837
vt 0.764289 0.376768
vt 0.910737 0.877294
vt 0.930437 0.950654
vt 0.845472 0.948480
vt 0.696701 0.732641
vt 0.651345 0.781343
vt 0.590205 0.701495
vt 0.739673 0.917799
vt 0.773987 0.968526
vt 0.654473 0.986981
vt 0.158510 0.604827
vt 0.042464 0.696189
vt 0.152437 0.708020
vt 0.574313 0.733263
vt 0.891648 0.559031
vt 0.991049 0.676702
vt 0.993453 0.522818
vt 0.674008 0.317304
vt 0.642844 0.405159
vt 0.733100 0.384800
vt 0.057396 0.994111
vt 0.178162 0.997410
vt 0.152934 0.944996
vt 0.992585 0.154170
vt 0.652274 0.315726
vt 0.952367 0.110869
vt 0.033572 0.832057
vt 0.121823 0.721318
vt 0.192520 0.827320
vt 0.377557 0.762522
vt 0.254813 0.803710
vt 0.350573 0.820130
vt 0.572286 0.813310
vt 0.941512 0.102491
vt 0.996279 0.037237
vt 0.913995 0.023565
vt 0.750702 0.569899
vt 0.787629 0.689796
vt 0.842926 0.683979
vt 0.714219 0.674441
vt 0.736424 0.571115
vt 0.652804 0.618377
vt 0.524604 0.563571
vt 0.536141 0.659424
vt 0.424571 0.592927
vt 0.540150 0.866421
vt 0.422771 0.850597
vt 0.443220 0.753592
vt 0.540005 0.048276
vt 0.589555 0.022528
vt 0.599925 0.046739
vt 0.894518 0.094201
vt 0.900707 0.864050
vt 0.889852 0.740990
vt 0.772718 0.780612
vt 0.650742 0.489262
vt 0.768902 0.529964
vt 0.211852 0.838868
vt 0.360350 0.981726
vt 0.286451 0.973894
vt 0.321255 0.889768
vt 0.711827 0.314634
vt 0.223293 0.493897
vt 0.016273 0.593377
vt 0.308616 0.647215
vt 0.504336 0.530075
vt 0.560038 0.460214
vt 0.560998 0.579984
vt 0.916774 0.825416
vt 0.943382 0.881202
vt 0.971436 0.726184
vt 0.004718 0.757747
vt 0.073243 0.750485
vt 0.078753 0.769626
vt 0.722122 0.183026
vt 0.586036 0.214851
vt 0.869940 0.875486
vt 0.640973 0.651550
vt 0.403351 0.694597
vt 0.538085 0.818586
vt 0.541890 0.726640
vt 0.506198 0.877137
vt 0.393284 0.958915
vt 0.371584 0.933608
vt 0.377994 0.817702
vt 0.924019 0.757909
vt 0.016296 0.509134
vt 0.856351 0.291546
vt 0.983653 0.180751
vt 0.846907 0.184214
vt 0.679504 0.865534
vt 0.714162 0.769023
vt 0.794783 0.876529
vt 0.297218 0.892599
vt 0.806936 0.090982
vt 0.798103 0.146482
vt 0.840073 0.054804
vt 0.817689 0.629502
vt 0.850798 0.655088
vt 0.857116 0.565265
vt 0.733995 0.076907
vt 0.007880 0.803468
vt 0.426863 0.571202
vt 0.716623 0.160660
vt 0.307598 0.313248
vt 0.160482 0.297011
vt 0.346005 0.202995
vt 0.980143 0.309656
vt 0.472761 0.064011
vt 0.487115 0.099266
vt 0.390715 0.155345
vt 0.582717 0.280617
vt 0.644151 0.088426
vt 0.040497 0.221896
vt 0.028947 0.143948
vt 0.075437 0.022580
vt 0.238115 0.017670
vt 0.332253 0.109546
s 0
f 19/1/1 3/2/1 4/3/1
f 18/4/2 13/5/2 17/6/2
f 7/7/3 34/8/3 32/9/3
f 7/10/4 17/11/4 2/12/4
f 11/13/5 24/14/5 4/15/5
f 2/16/6 17/17/6 19/18/6
f 23/19/7 3/20/7 5/21/7
f 15/22/8 21/23/8 34/24/8
f 19/18/9 17/17/9 24/25/9
f 29/26/10 14/27/10 28/28/10
f 1/29/11 25/30/11 30/31/11
f 5/32/12 3/33/12 11/34/12
f 17/35/13 33/36/13 29/37/13
f 27/38/14 31/39/14 10/40/14
f 20/41/15 13/42/15 25/43/15
f 17/17/16 13/44/16 24/25/16
f 15/45/17 7/46/17 8/47/17
f 9/48/18 12/49/18 13/50/18
f 5/51/19 11/52/19 23/53/19
f 31/54/20 16/55/20 32/56/20
f 2/57/21 19/58/21 7/59/21
f 14/60/22 29/61/22 32/62/22
f 9/63/23 15/45/23 8/47/23
f 27/64/24 26/65/24 31/66/24
f 29/67/25 28/68/25 30/31/25
f 4/3/26 3/2/26 23/69/26
f 22/70/27 24/71/27 3/72/27
f 17/6/28 29/73/28 18/4/28
f 9/74/29 20/75/29 21/23/29
f 7/7/30 15/76/30 34/8/30
f 29/77/31 33/78/31 32/79/31
f 31/80/32 21/81/32 20/82/32
f 30/83/33 25/84/33 29/85/33
f 33/36/34 7/86/34 32/87/34
f 4/15/35 23/88/35 11/13/35
f 26/89/36 16/55/36 31/54/36
f 32/56/37 16/55/37 14/90/37
f 13/44/38 12/91/38 8/92/38
f 20/93/39 9/94/39 13/95/39
f 8/96/40 7/59/40 19/58/40
f 8/92/41 24/25/41 13/44/41
f 25/97/42 31/80/42 20/82/42
f 13/42/43 18/98/43 25/43/43
f 25/99/44 10/100/44 31/101/44
f 8/102/45 12/103/45 9/104/45
f 33/36/46 17/6/46 7/86/46
f 24/71/47 11/105/47 3/72/47
f 8/106/48 19/107/48 4/108/48
f 15/22/49 9/74/49 21/23/49
f 19/109/50 22/110/50 3/111/50
f 4/108/51 24/112/51 8/106/51
f 18/113/52 29/77/52 25/114/52
f 24/112/53 22/115/53 19/107/53
f 27/116/54 10/117/54 26/118/54
f 25/99/55 1/119/55 10/100/55
f 34/120/56 31/121/56 32/122/56
f 31/123/57 34/120/57 21/124/57
f 26/118/58 10/117/58 1/125/58 30/126/58 28/127/58 14/128/58 16/129/58
