# Blender 4.1.1
# www.blender.org
mtllib pine2(leaves)lowpoly1.mtl
o Tree_1.leaves_lowpoly1
v -9.041009 11.880100 4.458605
v 3.965071 12.025780 -8.244205
v 8.324963 11.733934 -8.110438
v -2.399809 42.442604 2.933522
v -3.646779 42.674202 -1.469389
v -9.742596 11.618135 -1.219202
v 2.603537 29.194881 5.447269
v 8.167980 27.815800 -1.773036
v -0.126682 42.667831 0.631280
v -1.258285 36.533539 -6.434277
v -0.266374 51.322128 -0.814862
v 6.736522 29.864763 5.090500
v -4.822000 36.918613 -2.735576
v -1.572857 42.056770 -1.138831
v 1.159370 41.339138 -2.647772
v 0.664523 0.991064 2.241759
v -1.144289 28.731182 3.720437
v -0.755632 20.562370 9.271594
v -2.293707 35.972858 0.366484
v -5.043186 30.933702 -0.701048
v 0.474685 19.972490 -5.031842
v -0.058471 11.432622 -11.817517
v 4.259151 27.862473 -1.470720
v 2.336112 42.919090 -2.200322
v 2.077259 42.206482 3.107235
v -6.636315 29.101349 -4.489453
v -0.148507 27.272034 -8.221626
v 3.833380 29.176533 -3.183194
v -2.361539 29.728172 5.877104
v -0.938295 35.849319 2.169268
v 4.577017 11.751434 8.193130
v -8.524460 28.656343 2.054718
v 3.657907 42.527275 0.200722
v -8.543573 11.522684 8.759139
v -0.454927 11.552212 10.655028
v -2.791700 19.711885 4.262564
v 4.863278 28.702372 1.341938
v 10.632284 20.481606 -0.680343
v 3.466457 30.109840 -6.345064
v -0.923254 36.218262 -2.386756
v 1.626801 35.746361 2.450180
v 4.569704 36.389519 -4.013253
v 5.991797 36.259293 3.054800
v -1.433555 21.414478 -7.830456
v -1.707994 28.152166 -3.799192
v -8.805858 20.477201 -7.815950
v -4.281171 28.118368 1.394396
v -4.236492 28.137741 -1.720179
v -4.488569 36.451313 3.188320
v 1.279255 37.109634 4.815833
v -1.219371 43.009609 -3.397566
v 10.368105 12.152428 8.152638
v 5.273899 20.882021 -6.765049
v 3.635928 36.000580 -0.883531
v 5.213711 20.149096 -3.596691
v -8.411736 15.899080 -0.498363
v -12.949598 11.418904 2.917639
v -5.771925 19.993465 -2.442533
v -11.195530 11.878399 -7.800100
v 12.782339 11.738008 -0.760142
v 9.868483 11.634424 3.253734
v 4.708986 19.835360 -0.355782
v 9.227662 12.067910 -3.381442
v -4.056458 11.642058 -7.604497
v -3.461862 19.125021 -4.585601
v 3.315338 20.908825 7.189434
v 0.456501 19.396988 5.498380
v 8.680944 20.423832 7.626239
v 5.977684 19.942320 3.045908
v -6.356977 20.267210 6.524707
v -5.689704 19.799520 1.563770
v -8.923757 21.273708 0.129135
vn 0.8485 0.3309 -0.4131
vn 0.0056 0.5466 -0.8374
vn -0.0404 -0.8683 0.4944
vn -0.3184 -0.7852 0.5312
vn -0.1710 -0.9833 -0.0624
vn -0.6770 -0.7356 -0.0217
vn -0.7969 0.5970 0.0920
vn -0.0524 -0.9891 -0.1377
vn 0.1743 0.5108 -0.8419
vn 0.7307 0.5951 -0.3346
vn 0.9749 0.2058 -0.0845
vn -0.8300 0.5560 0.0440
vn -0.4021 0.5015 0.7661
vn -0.0835 0.4042 0.9108
vn -0.0559 -0.7988 -0.5990
vn -0.6188 0.2969 -0.7273
vn 0.3470 0.5384 0.7680
vn 0.0105 -0.9588 0.2840
vn 0.0539 -0.9875 0.1481
vn 0.3494 0.4651 -0.8134
vn -0.0519 -0.9898 -0.1330
vn 0.7504 0.4245 -0.5066
vn -0.9028 0.3322 0.2732
vn -0.4356 -0.8029 -0.4069
vn -0.2004 -0.8911 -0.4072
vn 0.0355 -0.9974 -0.0625
vn -0.0666 -0.9391 0.3372
vn -0.2492 0.5520 0.7957
vn -0.0769 -0.9208 0.3823
vn 0.3197 0.0301 -0.9471
vn -0.8323 0.5502 -0.0675
vn 0.8093 0.2916 0.5100
vn -0.0312 0.5356 0.8439
vn 0.8799 0.4318 -0.1985
vn -0.0150 0.3919 0.9199
vn 0.8607 0.0105 -0.5091
vn 0.0377 0.3713 -0.9278
vn 0.9929 0.1106 0.0445
vn -0.7559 -0.4055 0.5140
vn 0.3799 0.3053 -0.8732
vn -0.5009 0.5757 0.6462
vn 0.1500 -0.9582 0.2436
vn 0.7841 0.4042 0.4710
vn -0.8268 0.5624 -0.0084
vn 0.3148 0.2485 -0.9160
vn -0.3736 -0.9276 0.0039
vn -0.5014 0.6596 0.5599
vn -0.3549 0.6686 -0.6535
vn -0.0653 -0.9881 0.1396
vn -0.7935 0.4658 0.3917
vn 0.0694 -0.9928 0.0979
vn 0.1274 0.4920 0.8612
vn 0.3209 0.4640 0.8257
vn -0.7148 0.4947 -0.4942
vn -0.8365 0.5476 0.0174
vn 0.0594 0.4888 -0.8704
vn -0.7899 0.5048 -0.3482
vn -0.2041 -0.9714 0.1214
vn -0.7537 0.3300 -0.5684
vn 0.6944 0.3142 0.6473
vn 0.0024 -0.8883 -0.4593
vn 0.6345 0.6088 0.4763
vn -0.0061 -0.9921 -0.1251
vn 0.3702 0.4799 0.7954
vn 0.2530 -0.8935 0.3710
vn -0.7834 0.3321 0.5254
vn -0.6524 0.0862 -0.7529
vn -0.5718 0.5506 -0.6082
vn 0.7215 0.5129 -0.4653
vn -0.0691 -0.9941 0.0834
vn 0.5927 0.2258 0.7731
vn -0.0666 0.5103 -0.8574
vn -0.5638 0.5511 0.6152
vn 0.0049 0.2691 -0.9631
vn -0.7574 0.6263 -0.1848
vn 0.6784 -0.6795 -0.2793
vn 0.0319 -0.8640 0.5026
vn -0.9417 0.2561 0.2180
vn -0.8928 0.4286 0.1389
vn -0.1020 -0.9813 0.1634
vn 0.1061 -0.8425 -0.5281
vn 0.3708 0.6166 0.6945
vn -0.0466 -0.9887 -0.1427
vn 0.8791 0.4414 0.1796
vn -0.0402 0.3858 0.9217
vn -0.2168 0.6691 -0.7108
vn -0.3727 0.4536 0.8095
vn 0.1034 -0.9695 -0.2223
vn -0.0651 -0.9193 0.3882
vn -0.1893 0.5714 0.7985
vn 0.2605 -0.8957 0.3603
vn 0.8303 0.5533 0.0670
vn 0.0108 0.4173 0.9087
vn 0.0278 0.4004 -0.9159
vn 0.9240 0.2315 0.3044
vn -0.6809 0.4887 0.5454
vn 0.8985 0.4174 -0.1358
vn -0.0719 -0.9482 0.3095
vn 0.3109 0.3116 -0.8979
vn 0.1231 -0.8455 -0.5196
vn 0.4399 0.2888 -0.8503
vn -0.2183 0.6154 -0.7574
vn -0.3230 0.4972 -0.8052
vn -0.1583 -0.9671 -0.1993
vn -0.7837 0.6204 0.0295
vn 0.8574 0.3932 -0.3321
vn 0.2796 0.6590 0.6982
vn 0.7176 0.2579 0.6470
vn -0.5777 -0.6317 -0.5168
vn -0.1536 -0.9870 0.0479
vn -0.1824 -0.9544 0.2362
vn -0.1270 -0.9919 -0.0080
vn -0.2850 -0.9567 -0.0594
vn -0.6791 0.3204 -0.6604
vn -0.4530 0.7047 -0.5460
vn -0.2858 0.5292 0.7989
vn 0.1741 -0.9618 0.2112
vn -0.3009 -0.9499 0.0844
vn 0.0079 -0.9969 -0.0783
vn 0.1060 -0.9934 -0.0431
vn -0.1599 -0.9730 -0.1663
vn 0.1174 -0.9931 -0.0050
vn -0.0322 -0.9990 -0.0324
vn 0.0161 -0.9998 -0.0070
vn 0.4001 0.4890 -0.7751
vn 0.5259 0.5565 -0.6432
vt 0.812432 0.886775
vt 0.819546 0.983649
vt 0.780944 0.994061
vt 0.759953 0.776368
vt 0.679504 0.865534
vt 0.685383 0.764407
vt 0.762228 0.142852
vt 0.757285 0.184776
vt 0.848044 0.160920
vt 0.088689 0.878766
vt 0.070239 0.910757
vt 0.113651 0.872276
vt 0.797245 0.076435
vt 0.858091 0.075910
vt 0.808668 0.018017
vt 0.678050 0.779060
vt 0.549330 0.135075
vt 0.633926 0.604230
vt 0.134853 0.917315
vt 0.179060 0.834223
vt 0.228979 0.911937
vt 0.011419 0.907689
vt 0.035680 0.947821
vt 0.977728 0.522743
vt 0.393284 0.958915
vt 0.486386 0.892027
vt 0.779411 0.345964
vt 0.781857 0.227145
vt 0.753767 0.220082
vt 0.264150 0.825376
vt 0.377557 0.762522
vt 0.250694 0.794150
vt 0.831995 0.769984
vt 0.767826 0.741893
vt 0.774776 0.796905
vt 0.257279 0.651573
vt 0.314531 0.758988
vt 0.208438 0.763956
vt 0.509442 0.823147
vt 0.429443 0.858519
vt 0.404978 0.829470
vt 0.835285 0.297980
vt 0.871796 0.346013
vt 0.877788 0.314297
vt 0.714219 0.674441
vt 0.675857 0.603904
vt 0.636978 0.628314
vt 0.722122 0.183026
vt 0.573121 0.202971
vt 0.634114 0.259079
vt 0.831568 0.365067
vt 0.861864 0.449555
vt 0.794928 0.418043
vt 0.898400 0.891018
vt 0.930437 0.950654
vt 0.845472 0.948480
vt 0.026100 0.875449
vt 0.696701 0.732641
vt 0.656795 0.764120
vt 0.590205 0.701495
vt 0.739673 0.917799
vt 0.773987 0.968526
vt 0.654473 0.986981
vt 0.482418 0.481893
vt 0.465726 0.483416
vt 0.472740 0.467088
vt 0.085135 0.853076
vt 0.102992 0.936850
vt 0.574866 0.862679
vt 0.557923 0.844610
vt 0.644320 0.860404
vt 0.403351 0.694597
vt 0.417529 0.594902
vt 0.468117 0.580712
vt 0.586876 0.830548
vt 0.456378 0.461111
vt 0.144577 0.601503
vt 0.042464 0.696189
vt 0.152437 0.708020
vt 0.574313 0.733263
vt 0.891648 0.559031
vt 0.977326 0.612332
vt 0.993453 0.522818
vt 0.674008 0.317304
vt 0.642844 0.405159
vt 0.704568 0.366688
vt 0.057396 0.994111
vt 0.178162 0.997410
vt 0.174297 0.957160
vt 0.992585 0.154170
vt 0.652274 0.315726
vt 0.952367 0.110869
vt 0.033572 0.832057
vt 0.144049 0.730970
vt 0.143301 0.821444
vt 0.350573 0.820130
vt 0.637143 0.962010
vt 0.562437 0.960041
vt 0.621192 0.942841
vt 0.637784 0.824207
vt 0.572286 0.813310
vt 0.978184 0.116797
vt 0.996279 0.037237
vt 0.938983 0.005705
vt 0.796730 0.617594
vt 0.747103 0.666705
vt 0.842926 0.683979
vt 0.131642 0.932872
vt 0.184832 0.611107
vt 0.736424 0.571115
vt 0.423136 0.070047
vt 0.539349 0.055912
vt 0.524604 0.563571
vt 0.529453 0.696126
vt 0.099867 0.711783
vt 0.487115 0.099266
vt 0.450703 0.178998
vt 0.362646 0.142656
vt 0.308616 0.647215
vt 0.418645 0.717512
vt 0.167902 0.032829
vt 0.072898 0.067008
vt 0.076699 0.000499
vt 0.443220 0.753592
vt 0.540005 0.048276
vt 0.589555 0.022528
vt 0.599925 0.046739
vt 0.927343 0.066343
vt 0.900707 0.864050
vt 0.967284 0.255877
vt 0.856211 0.297749
vt 0.981694 0.316139
vt 0.899562 0.033881
vt 0.744925 0.563913
vt 0.883270 0.770419
vt 0.900290 0.696697
vt 0.926366 0.780591
vt 0.966472 0.815777
vt 0.971644 0.722420
vt 0.638693 0.459191
vt 0.760029 0.487382
vt 0.772559 0.409849
vt 0.725384 0.039932
vt 0.739324 0.099787
vt 0.876565 0.646563
vt 0.993625 0.688781
vt 0.564804 0.523791
vt 0.558306 0.619726
vt 0.510951 0.523813
vt 0.211852 0.838868
vt 0.932716 0.099060
vt 0.272862 0.878368
vt 0.256488 0.890298
vt 0.360350 0.981726
vt 0.309568 0.968675
vt 0.321255 0.889768
vt 0.033916 0.219453
vt 0.049626 0.172003
vt 0.095089 0.242164
vt 0.711827 0.314634
vt 0.223293 0.493897
vt 0.016273 0.593377
vt 0.917518 0.869750
vt 0.813099 0.704308
vt 0.696738 0.148866
vt 0.544180 0.615304
vt 0.560038 0.460214
vt 0.916774 0.825416
vt 0.943382 0.881202
vt 0.861967 0.400818
vt 0.935865 0.370283
vt 0.920685 0.316589
vt 0.004718 0.757747
vt 0.073243 0.750485
vt 0.078753 0.769626
vt 0.869940 0.875486
vt 0.640973 0.651550
vt 0.923788 0.755676
vt 0.841446 0.487662
vt 0.622191 0.695624
vt 0.658709 0.570341
vt 0.588676 0.585724
vt 0.538085 0.818586
vt 0.541890 0.726640
vt 0.541813 0.868763
vt 0.371584 0.933608
vt 0.249094 0.982327
vt 0.297218 0.892599
vt 0.377994 0.817702
vt 0.773312 0.551129
vt 0.654632 0.498968
vt 0.799554 0.128923
vt 0.016296 0.509134
vt 0.857775 0.228548
vt 0.983653 0.180751
vt 0.846907 0.184214
vt 0.794783 0.876529
vt 0.809212 0.573161
vt 0.864731 0.119481
vt 0.318927 0.219428
vt 0.204745 0.275983
vt 0.126445 0.313181
vt 0.823715 0.116167
vt 0.404077 0.161945
vt 0.850390 0.557177
vt 0.833500 0.497766
vt 0.230368 0.831838
vt 0.883887 0.954372
vt 0.817689 0.629502
vt 0.850798 0.655088
vt 0.857116 0.565265
vt 0.762631 0.374534
vt 0.644151 0.088426
vt 0.573152 0.153917
vt 0.007880 0.803468
vt 0.483842 0.549477
vt 0.426863 0.571202
vt 0.307598 0.313248
vt 0.000347 0.105150
vt 0.251290 0.014826
vt 0.341190 0.080618
vt 0.321510 0.144319
vt 0.386765 0.178260
s 0
f 11/1/1 33/2/1 24/3/1
f 27/4/2 40/5/2 39/6/2
f 41/7/3 50/8/3 49/9/3
f 14/10/4 9/11/4 5/12/4
f 40/13/5 13/14/5 10/15/5
f 70/16/6 58/17/6 71/18/6
f 49/19/7 9/20/7 13/21/7
f 33/22/8 25/23/8 9/11/8
f 44/24/9 45/25/9 53/26/9
f 38/27/10 23/28/10 37/29/10
f 23/30/11 53/31/11 28/32/11
f 56/33/12 71/34/12 58/35/12
f 17/36/13 70/37/13 18/38/13
f 7/39/14 41/40/14 30/41/14
f 8/42/15 23/43/15 28/44/15
f 11/45/16 51/46/16 5/47/16
f 17/48/17 18/49/17 66/50/17
f 37/51/18 23/43/18 8/42/18
f 17/52/19 37/51/19 7/53/19
f 15/54/20 42/55/20 10/56/20
f 9/11/21 24/57/21 33/22/21
f 12/58/22 37/59/22 41/60/22
f 5/61/23 4/62/23 11/63/23
f 14/64/24 51/65/24 15/66/24
f 51/67/25 14/10/25 5/12/25
f 4/68/26 5/12/26 9/11/26
f 47/69/27 17/70/27 32/71/27
f 35/72/28 67/73/28 36/74/28
f 17/70/29 29/75/29 32/71/29
f 15/66/30 51/65/30 24/76/30
f 48/77/31 46/78/31 72/79/31
f 41/60/32 37/59/32 54/80/32
f 69/81/33 31/82/33 52/83/33
f 3/84/34 55/85/34 63/86/34
f 11/87/35 4/88/35 25/89/35
f 37/90/36 68/91/36 69/92/36
f 59/93/37 65/94/37 64/95/37
f 53/31/38 23/30/38 55/96/38
f 20/97/39 26/98/39 48/99/39
f 8/100/40 28/101/40 54/80/40
f 32/102/41 29/103/41 19/104/41
f 45/105/42 27/106/42 28/107/42
f 11/87/43 25/89/43 33/108/43
f 47/109/44 48/77/44 72/79/44
f 11/45/45 24/110/45 51/46/45
f 58/17/46 70/111/46 72/112/46
f 71/113/47 34/114/47 36/74/47
f 65/94/48 59/93/48 58/115/48
f 70/111/49 71/116/49 36/117/49 18/118/49
f 47/119/50 72/120/50 70/37/50
f 31/121/51 61/122/51 52/123/51
f 7/39/52 30/41/52 29/124/52
f 31/125/53 69/126/53 67/127/53
f 20/128/54 32/102/54 19/104/54
f 59/129/55 56/33/55 58/35/55
f 2/130/56 55/131/56 3/132/56
f 20/128/57 19/104/57 40/133/57
f 27/106/58 45/105/58 26/134/58
f 6/135/59 57/136/59 56/33/59
f 37/59/60 8/100/60 54/80/60
f 21/137/61 44/138/61 53/139/61
f 62/140/62 61/141/62 60/142/62
f 40/13/63 42/143/63 54/144/63
f 31/82/64 67/145/64 35/146/64
f 66/147/65 67/148/65 69/149/65
f 13/21/66 9/20/66 14/150/66
f 20/128/67 48/151/67 32/102/67
f 14/150/68 10/152/68 13/153/68
f 43/154/69 54/155/69 9/156/69
f 3/157/70 63/158/70 2/159/70
f 37/29/71 69/160/71 38/27/71
f 45/161/72 44/162/72 46/78/72
f 17/36/73 47/119/73 70/37/73
f 24/163/74 42/55/74 15/54/74
f 57/136/75 71/34/75 56/33/75
f 39/164/76 28/107/76 27/106/76
f 50/8/77 41/7/77 43/165/77
f 6/135/78 56/33/78 59/129/78
f 71/113/79 1/166/79 34/114/79
f 69/149/80 68/167/80 66/147/80
f 65/168/81 46/169/81 44/138/81
f 9/170/82 50/171/82 43/172/82
f 4/68/83 9/11/83 25/23/83
f 63/173/84 55/174/84 62/175/84
f 68/91/85 17/48/85 66/50/85
f 10/56/86 14/176/86 15/54/86
f 57/177/87 1/166/87 71/113/87
f 21/137/88 53/139/88 55/178/88
f 29/179/89 17/52/89 7/53/89
f 36/74/90 34/114/90 35/72/90
f 66/180/91 18/181/91 67/182/91
f 28/101/92 39/183/92 40/184/92
f 41/40/93 7/39/93 12/185/93
f 53/26/94 45/25/94 28/186/94
f 54/155/95 42/187/95 24/188/95
f 19/189/96 29/124/96 30/41/96
f 52/190/97 61/141/97 69/191/97
f 30/192/98 41/7/98 49/9/98
f 40/184/99 54/80/99 28/101/99
f 21/137/100 65/168/100 44/138/100
f 23/30/101 38/193/101 55/96/101
f 21/194/102 22/195/102 65/196/102
f 40/5/103 27/4/103 26/197/103
f 48/198/104 26/134/104 45/105/104
f 40/133/105 26/199/105 20/128/105
f 69/191/106 61/141/106 62/140/106
f 68/91/107 37/29/107 17/48/107
f 54/155/108 24/188/108 9/156/108
f 6/200/109 64/201/109 22/202/109
f 49/9/110 19/203/110 30/192/110
f 18/118/111 36/117/111 67/204/111
f 47/205/112 32/206/112 48/198/112
f 19/203/113 49/9/113 13/14/113
f 22/207/114 64/95/114 65/208/114
f 48/77/115 45/161/115 46/78/115
f 49/209/116 50/210/116 9/211/116
f 37/51/117 12/212/117 7/53/117
f 58/17/118 72/112/118 46/213/118 65/214/118
f 10/15/119 42/143/119 40/13/119
f 38/215/120 69/149/120 62/216/120 55/217/120
f 13/14/121 40/13/121 19/203/121
f 54/144/122 43/165/122 41/7/122
f 59/218/123 64/201/123 6/200/123
f 6/200/124 22/202/124 2/159/124 63/158/124 60/219/124 61/122/124 31/121/124 35/220/124 34/221/124 1/222/124 57/223/124
f 21/194/125 55/131/125 2/130/125 22/195/125
f 60/142/126 63/86/126 62/140/126
