# Blender 4.1.1
# www.blender.org
mtllib pine2(stem).mtl
o Tree_1.001
v -0.867218 -0.253400 -1.943846
v -2.319974 -0.253401 0.650302
v 1.750166 -0.253400 -0.532585
v 0.297411 -0.253400 2.061563
v 0.856696 4.389292 0.455092
v -0.486121 5.744124 -1.208067
v 0.132086 4.389293 1.183903
v -0.089118 13.505686 1.070944
v 0.735551 11.684570 -0.365428
v -0.042896 11.272231 0.921245
v -1.309568 10.962198 0.318547
v -0.138480 6.735404 1.091530
v 0.728888 6.748060 0.076662
v -1.579679 5.843235 0.258912
v 0.711257 -0.253400 -1.719960
v -1.304302 -0.253400 1.879171
v 0.496792 5.687407 -0.844348
v -1.008188 5.762562 1.115918
v -1.284937 13.024131 0.559032
v -0.377419 11.057174 -1.009076
v -0.883521 11.078332 0.868099
v 0.512925 13.303813 -2.324917
v 1.595993 -0.253400 0.921407
v 0.674197 4.389293 0.876945
v -2.096088 -0.253401 -0.928174
v -0.760912 13.323637 -0.928330
v -1.074023 10.954818 -0.487862
v -1.300662 5.835615 -0.685114
v 0.453423 12.752296 0.411877
v -0.599805 2.378737 1.707107
v 0.004224 2.781153 -1.524905
v 1.386707 2.078655 0.346452
v -1.896998 2.809080 -0.221812
v -1.186670 12.273106 -0.139110
v -0.553019 12.502701 0.965895
v -0.146009 12.869294 -1.664141
v -0.147365 7.715367 -1.019699
v -0.549339 8.942707 1.093376
v -1.342512 8.704413 -0.152568
v 0.394778 9.044785 0.539061
v -0.502632 5.452135 1.285228
v 0.400694 5.283229 0.733122
v 0.865502 5.458236 -0.239861
v 0.516409 12.521723 -1.383817
v -1.232479 8.747336 0.635180
v 0.467847 8.930334 -0.534914
v -1.192890 12.041646 0.615409
v 1.098313 2.381016 -0.796535
v -1.653849 2.805903 0.982265
v 0.651869 2.078552 1.395336
v -0.850718 8.688197 -0.844804
v -0.823676 12.049444 -0.840829
v -1.196272 2.810319 -1.281039
vn 0.4908 -0.0482 0.8699
vn 0.8077 0.1658 0.5659
vn 0.9575 0.2231 -0.1826
vn 0.1004 0.1322 0.9861
vn -0.8270 0.1299 -0.5470
vn -0.9717 0.1306 0.1966
vn 0.3505 0.1060 -0.9306
vn 0.5393 0.0620 -0.8398
vn -0.8839 0.0300 -0.4668
vn -0.5246 0.1325 0.8410
vn 0.2796 0.1879 0.9415
vn -0.9546 0.0931 -0.2829
vn -0.9589 0.0429 -0.2805
vn -0.5996 0.0058 -0.8003
vn -0.0712 0.0356 0.9968
vn -0.8245 0.0911 0.5584
vn 0.0811 -0.5275 -0.8457
vn -0.5664 0.0516 0.8225
vn -0.4991 0.0346 0.8658
vn -0.7671 0.0982 0.6340
vn 0.5320 0.0945 0.8415
vn -0.0329 0.0544 0.9980
vn 0.5044 0.0218 0.8632
vn -0.9895 0.0506 0.1355
vn -0.8132 0.0583 -0.5791
vn 0.9804 0.1044 -0.1672
vn 0.9977 0.0047 0.0674
vn 0.7595 0.0347 0.6496
vn -0.7188 -0.0971 -0.6884
vn 0.9014 0.1884 0.3899
vn 0.8873 0.1195 0.4454
vn 0.7472 0.1194 -0.6538
vn 0.5714 -0.1961 -0.7969
vn -0.7916 0.0132 0.6109
vn 0.8550 0.0043 0.5186
vn 0.6555 0.1137 0.7466
vn 0.9409 0.0798 -0.3290
vn -0.9999 0.0125 -0.0044
vn 0.4840 0.1871 0.8548
vn -0.6340 0.0979 -0.7671
vn -0.5304 0.0937 -0.8425
vn 0.7021 0.1410 0.6980
vn 0.5835 0.1390 -0.8001
vn -0.1943 0.1316 -0.9721
vn 0.1398 0.0959 -0.9855
vn -0.9855 0.0963 -0.1398
vn -0.1126 0.0948 0.9891
vn 0.9879 0.1145 0.1048
vn -0.1879 0.0406 -0.9814
vn -0.0000 1.0000 -0.0000
vt 0.646336 0.026504
vt 0.458271 0.024572
vt 0.331612 0.016927
vt 0.484054 0.014375
vt 0.605673 0.014834
vt 0.528384 0.015099
vt 0.630671 0.022731
vt 0.682710 0.023899
vt 0.783450 0.030930
vt 0.676442 0.018223
vt 0.742433 0.031313
vt 0.475217 0.009801
vt 0.312754 0.012781
vt 0.219425 0.017570
vt 0.312074 0.016692
vt 0.997764 0.032970
vt 0.965872 0.036883
vt 1.025156 0.037667
vt 1.058740 0.032508
vt 0.162321 0.024889
vt 0.093552 0.027296
vt 0.058740 0.032508
vt 0.125084 0.031751
vt 0.912936 0.035652
vt 0.878826 0.034665
vt 0.820058 0.031110
vt 0.879652 0.036493
vt 0.893452 0.041558
vt 0.793957 0.030819
vt 0.931037 0.048289
vt 0.942982 0.041963
vt 0.991003 0.033932
vt 1.037745 0.031543
vt 0.247921 0.022679
vt 0.431613 0.017553
vt 1.093552 0.027296
vt 1.043703 0.029633
vt 1.108378 0.027321
vt 0.950271 0.035008
vt 0.231049 0.018289
vt 0.311895 0.013793
vt 0.148752 0.022112
vt 0.838261 0.096713
vt 0.817309 0.063733
vt 0.871184 0.068675
vt 0.158356 0.030273
vt 0.164937 0.025591
vt 0.622916 0.010738
vt 0.416074 0.009314
vt 0.644251 0.015734
vt 0.108378 0.027321
vt 0.043703 0.029633
vt 0.751877 0.025748
vt 0.744523 0.039776
vt 0.722720 0.021991
vt 0.842730 0.037055
vt 0.037745 0.031543
vt 0.934106 0.040341
vt 0.025156 0.037667
s 0
usemtl Material.001
f 29/1/1 8/2/1 35/3/1 10/4/1
f 24/5/2 50/6/2 23/7/2 32/8/2
f 48/9/3 5/10/3 32/8/3 3/11/3
f 7/12/4 41/13/4 18/14/4 30/15/4
f 28/16/5 53/17/5 25/18/5 33/19/5
f 49/20/6 14/21/6 33/22/6 2/23/6
f 6/24/7 37/25/7 17/26/7 31/27/7
f 20/28/8 46/29/8 17/26/8 37/25/8
f 26/30/9 52/31/9 27/32/9 34/33/9
f 18/14/10 49/20/10 16/34/10 30/15/10
f 7/12/11 30/15/11 4/35/11 50/6/11
f 33/19/12 14/36/12 39/37/12 28/16/12
f 27/32/13 39/37/13 11/38/13 34/33/13
f 51/39/14 27/32/14 52/31/14 20/28/14
f 21/40/15 38/41/15 10/4/15 35/3/15
f 14/21/16 49/20/16 18/14/16 45/42/16
f 22/43/17 44/44/17 20/28/17 36/45/17
f 21/40/18 45/42/18 18/14/18 38/41/18
f 19/46/19 47/47/19 21/40/19 35/3/19
f 2/23/20 16/34/20 49/20/20
f 7/12/21 42/48/21 12/49/21 41/13/21
f 18/14/22 41/13/22 12/49/22 38/41/22
f 40/50/23 10/4/23 38/41/23 12/49/23
f 11/51/24 39/52/24 14/21/24 45/42/24
f 27/32/25 51/39/25 28/16/25 39/37/25
f 43/53/26 5/10/26 48/9/26 17/26/26
f 9/54/27 40/50/27 13/55/27 46/29/27
f 42/48/28 13/55/28 40/50/28 12/49/28
f 20/28/29 52/31/29 26/30/29 36/45/29
f 24/5/30 32/8/30 5/10/30
f 42/48/31 5/10/31 43/53/31 13/55/31
f 3/11/32 15/56/32 48/9/32
f 9/54/33 46/29/33 20/28/33 44/44/33
f 45/42/34 21/40/34 47/47/34 11/51/34
f 10/4/35 40/50/35 9/54/35 29/1/35
f 4/35/36 23/7/36 50/6/36
f 43/53/37 17/26/37 46/29/37 13/55/37
f 34/57/38 11/51/38 47/47/38 19/46/38
f 7/12/39 50/6/39 24/5/39
f 1/58/40 25/18/40 53/17/40
f 6/24/41 53/17/41 28/16/41 51/39/41
f 7/12/42 5/10/42 42/48/42
f 17/26/43 48/9/43 15/56/43 31/27/43
f 6/24/44 31/27/44 1/58/44 53/17/44
f 15/56/45 1/58/45 31/27/45
f 25/59/46 2/23/46 33/22/46
f 16/34/47 4/35/47 30/15/47
f 23/7/48 3/11/48 32/8/48
f 51/39/49 20/28/49 37/25/49 6/24/49
f 24/5/50 5/10/50 7/12/50
