# Blender 4.1.1
# www.blender.org
mtllib pine2(stem)lowpoly1.mtl
o Tree_1.stem_lowpoly1
v -0.476635 9.301190 -0.634605
v 0.528487 11.881577 -0.110566
v -1.037373 12.910440 0.681860
v -0.729986 -0.260690 -1.968707
v 0.512925 13.303813 -2.101169
v 1.898131 -0.261368 0.407951
v -2.438734 -0.261899 0.079089
v -1.252388 12.254419 0.062710
v -0.222713 13.611721 1.058026
v -1.016550 -0.267163 2.351997
v -0.385594 13.277622 -0.519015
v -0.559571 12.508663 1.177073
v -0.063082 4.670829 1.474386
v 0.973519 4.545712 -0.012905
vn -0.8458 0.0658 0.5294
vn 0.4777 0.0635 0.8762
vn 0.1863 0.0490 0.9813
vn 0.8775 0.0596 0.4759
vn -0.5866 0.0369 -0.8090
vn 0.6694 0.0639 -0.7402
vn 0.5544 0.0407 0.8313
vn 0.8111 0.2040 0.5482
vn -0.7632 0.1103 -0.6367
vn -0.0771 -0.3261 -0.9422
vn -0.8712 0.0430 -0.4890
vn -0.6786 0.0913 0.7288
vn 0.8213 0.0412 0.5690
vn 0.4332 0.0143 -0.9012
vn 0.6293 0.0910 -0.7718
vt 0.284137 0.021629
vt 0.157471 0.030099
vt 0.076796 0.034610
vt 0.459104 0.009946
vt 0.331665 0.016932
vt 0.458609 0.024473
vt 0.725900 0.023623
vt 0.751802 0.042172
vt 1.036990 0.031594
vt 0.924916 0.050374
vt 0.895877 0.039532
vt 0.689142 0.027221
vt 0.910242 0.039401
vt 1.025156 0.037667
vt 1.107788 0.027356
vt 0.838261 0.096713
s 0
usemtl Material.001
f 10/1/1 3/2/1 7/3/1
f 10/1/2 13/4/2 12/5/2
f 9/6/3 12/5/3 13/4/3
f 9/6/4 14/7/4 2/8/4
f 8/9/5 11/10/5 1/11/5
f 6/12/6 4/13/6 14/7/6
f 10/1/7 6/12/7 13/4/7
f 13/4/8 6/12/8 14/7/8
f 4/13/9 7/14/9 3/15/9
f 11/10/10 5/16/10 2/8/10 1/11/10
f 3/15/11 8/9/11 1/11/11 4/13/11
f 3/2/12 10/1/12 12/5/12
f 14/7/13 9/6/13 13/4/13
f 2/8/14 14/7/14 1/11/14
f 14/7/15 4/13/15 1/11/15
