# Blender 4.1.1
# www.blender.org
mtllib pine2(leaves).mtl
o Tree_1
v 0.542248 11.738670 -1.565703
v 8.235439 11.981630 -4.454973
v 9.056258 11.419171 3.211848
v -1.225190 11.678376 1.201512
v -8.174916 11.560055 3.573188
v -1.198236 11.677955 -1.426764
v 3.601669 11.605920 -7.868033
v 8.324963 11.733934 -8.334186
v -2.993976 42.339275 1.932156
v -3.893756 42.342770 -2.133777
v -3.037364 43.112640 0.014523
v 0.619147 11.632891 1.170534
v -1.706431 11.664558 -0.176429
v -0.708898 29.121258 7.901799
v 2.603537 29.194881 5.223521
v 8.167980 27.815800 -1.996784
v -1.922539 42.091908 -0.966532
v -5.364511 37.351265 -2.066987
v -1.464117 42.531155 0.577354
v -5.466608 35.923912 3.288148
v -1.765823 37.397549 -5.744078
v 1.348487 46.035202 -2.811913
v -0.026310 51.814232 -0.994902
v -1.882118 43.192715 -3.663204
v -7.845141 16.170853 3.803013
v 3.920041 31.976566 0.992731
v 5.353841 29.114717 1.315303
v 5.569599 31.951593 -0.404188
v 2.744968 36.038067 -0.872840
v 5.258635 32.231438 -2.697042
v 6.736522 29.864763 4.866752
v 1.312590 36.051323 -1.314915
v -2.618279 36.495789 -3.816952
v -2.105648 40.594070 -1.991457
v 0.658032 41.544792 -2.439512
v 1.712064 39.532692 -4.565571
v 3.716406 37.224625 -4.408958
v 0.664523 0.991064 2.018011
v -6.510478 20.268099 3.895234
v -11.299466 20.397570 1.462213
v -5.764149 22.933367 4.329033
v -2.429445 28.717211 2.846596
v -1.801278 25.084249 5.757980
v -2.050351 20.541769 7.282656
v -0.054035 20.253870 10.747141
v 0.090621 28.786274 2.906139
v -3.770404 34.108448 0.348817
v -3.411299 32.132675 -1.163748
v -3.520641 34.377647 -3.027368
v -3.532427 32.055119 3.325147
v 4.635308 18.987568 -1.711243
v 3.432929 15.055139 -7.394083
v 0.474685 19.972490 -5.255590
v -0.058471 11.432622 -12.041265
v 3.833781 28.188026 -1.885187
v 5.185588 24.803242 -3.146599
v 4.659777 27.476162 -1.295002
v 6.651069 25.621424 -2.196817
v 11.233559 20.418041 -1.430539
v -7.554246 28.957321 -5.385128
v -5.486560 30.862902 -0.808134
v 1.791085 43.013977 -1.457679
v 3.767949 42.093834 0.646224
v 2.167897 42.181370 2.951905
v -1.029878 42.488594 3.004757
v 3.601553 43.131882 -0.852913
v -1.069657 42.208603 -1.932736
v 1.193592 11.692568 -0.368438
v -3.139435 28.824078 -5.616197
v -5.512295 28.820847 -1.905078
v -0.148507 27.272034 -8.445374
v 4.472144 29.477972 -3.969626
v -4.692064 29.569717 3.479111
v -0.947470 34.794262 3.247476
v -2.157215 31.612705 4.695382
v -0.661661 35.966431 1.110852
v 6.218567 20.230640 -8.384349
v 2.405275 20.996876 -7.221287
v 2.633620 29.080828 -2.876891
v 3.921438 15.353653 5.993122
v 3.337540 42.494728 -3.995714
v -8.524460 28.656343 1.830970
v 1.211944 45.229477 1.621924
v 2.798434 42.607635 1.265343
v -2.855953 19.600544 3.147042
v -8.543573 11.522684 8.535392
v -4.477355 19.980328 2.863766
v -5.961594 19.916876 1.829145
v -0.154083 11.403369 11.326678
v -3.082691 11.545422 8.307221
v -3.720453 15.320045 7.091681
v 5.421083 20.400999 7.100532
v 2.102590 28.586901 2.371665
v 2.894869 21.454979 7.198782
v 5.322963 27.141567 1.167594
v 2.925692 29.079916 0.720503
v 8.410598 22.328901 0.632827
v 3.905472 29.647339 -5.892709
v 2.525196 32.300510 -5.438181
v 0.626980 36.047443 -2.708647
v 1.494719 35.656548 2.381596
v 1.915890 36.236259 -4.020026
v -1.239035 35.992325 -2.704897
v -0.941396 36.160660 -6.965380
v 5.710618 35.721592 -4.324347
v -5.379102 36.327614 -4.117393
v -1.704097 35.686375 -0.914843
v -2.764394 36.151672 0.761314
v -4.616557 36.481270 0.116701
v 5.626748 36.025768 2.909333
v 1.728671 36.035286 1.037553
v -0.695534 21.042511 -8.975519
v -2.403964 25.636978 -5.121082
v -0.367755 28.152435 -3.938902
v -2.348702 28.432186 -4.023117
v -8.805858 20.477201 -8.039698
v -3.953104 28.120647 -2.146365
v -6.873963 23.921873 -1.018400
v -4.350815 28.159866 1.247481
v -3.721196 27.855656 -0.748996
v -2.922838 36.557175 3.297993
v 2.249617 37.792557 3.775592
v 1.696943 40.190731 2.008267
v -1.532075 42.001907 -4.430133
v 0.264279 43.353645 -3.621823
v 4.008873 11.570992 7.642266
v 10.368105 12.152428 7.928891
v 5.229821 20.026812 2.778044
v 3.532670 20.700041 -5.871826
v 2.290109 40.292599 -0.568352
v 4.425287 36.347279 -0.575142
v 0.651544 42.426186 0.416230
v 3.332993 40.057838 1.404637
v 2.519871 19.783451 -4.199746
v -2.378951 21.377953 -7.329629
v 0.325306 36.141815 6.204492
v -0.152462 42.502243 0.408089
v -8.690899 14.967255 -0.355565
v -8.574177 16.356060 -1.834741
v -9.791725 11.568344 -1.470170
v -12.949598 11.418904 2.693892
v -6.892468 16.384207 -5.665142
v -11.195530 11.878399 -8.023848
v 9.632462 15.487874 -0.601874
v 7.827302 15.584441 1.886251
v 4.654407 19.720249 0.692630
v 6.851199 17.801889 3.770365
v 12.684728 11.528692 -0.883738
v 7.954024 14.962304 -2.876887
v 4.679000 19.936598 -3.468899
v -4.056458 11.642058 -7.828245
v -4.416468 15.688204 -6.551277
v -2.810021 19.594849 -5.174882
v -5.978315 20.093227 -2.415621
v -3.732882 19.592602 -3.489789
v 2.421290 19.576349 2.827213
v 1.658417 19.697737 4.208694
v 3.787357 20.440176 5.208769
v -0.211608 19.186966 5.977141
v 8.680944 20.423832 7.402491
v 7.132797 20.223528 2.470402
v 4.930504 19.969509 -0.542039
v 6.970439 20.958160 -3.978220
v -1.492493 19.910563 4.364980
v -3.692719 20.322739 5.383682
v -6.552384 19.868851 7.626513
v -4.929111 19.410662 -0.217907
v -8.039278 20.860626 -2.320759
vn 0.8317 0.5263 -0.1766
vn -0.6919 0.5528 0.4644
vn -0.1336 0.5600 -0.8176
vn -0.1858 -0.9803 0.0676
vn -0.0396 -0.9758 0.2150
vn -0.4346 -0.8240 0.3635
vn -0.0416 -0.9330 -0.3575
vn -0.8641 -0.4969 -0.0800
vn 0.6010 0.3803 0.7029
vn 0.9771 -0.1964 -0.0818
vn -0.5767 0.8169 -0.0102
vn 0.0082 -0.9071 -0.4208
vn -0.6170 -0.7864 -0.0302
vn -0.4120 -0.9111 -0.0077
vn 0.6348 0.7698 -0.0664
vn 0.3613 0.3542 -0.8626
vn -0.8718 0.4658 -0.1518
vn 0.5735 0.4731 0.6688
vn 0.6914 0.6632 -0.2865
vn 0.1559 -0.9699 -0.1869
vn -0.1697 0.4702 -0.8661
vn -0.4804 -0.7833 0.3945
vn 0.4296 0.5087 -0.7461
vn 0.7600 0.3236 0.5637
vn 0.8248 0.5456 -0.1480
vn -0.3135 0.5602 0.7667
vn -0.8736 0.3652 0.3218
vn 0.0243 -0.9946 -0.1008
vn 0.8772 0.3999 -0.2656
vn 0.6629 0.7483 -0.0251
vn 0.8353 0.3730 -0.4040
vn 0.8167 0.5048 -0.2797
vn 0.0290 0.6742 0.7380
vn -0.8385 0.2141 0.5010
vn -0.6717 0.5534 0.4925
vn -0.2457 0.6120 0.7517
vn 0.0251 0.3169 0.9481
vn -0.4540 0.2923 0.8417
vn -0.4327 0.2554 0.8646
vn -0.0857 -0.8353 -0.5431
vn 0.6192 0.3258 0.7145
vn 0.8241 0.5648 -0.0428
vn -0.6034 0.6029 0.5220
vn -0.6561 0.3484 -0.6694
vn 0.5263 0.5705 0.6305
vn 0.0097 -0.9995 -0.0291
vn 0.1541 -0.9301 -0.3334
vn -0.0740 -0.9511 0.2998
vn 0.7444 0.4730 -0.4714
vn 0.1926 -0.9050 -0.3794
vn -0.3587 -0.8868 0.2914
vn 0.2110 -0.9629 0.1682
vn -0.4206 -0.9016 -0.1012
vn 0.2318 -0.9495 0.2114
vn 0.6240 0.5224 -0.5811
vn 0.2417 -0.7850 -0.5704
vn -0.0026 -0.9800 0.1989
vn 0.4071 0.2949 -0.8645
vn -0.0749 -0.9376 -0.3396
vn -0.1283 -0.8526 0.5066
vn 0.8215 0.4475 -0.3534
vn 0.5232 -0.7142 0.4649
vn -0.0637 0.3548 -0.9328
vn -0.9274 0.3392 0.1578
vn 0.3543 0.3340 -0.8735
vn -0.4237 -0.5584 -0.7132
vn 0.0257 -0.9971 0.0710
vn -0.4812 -0.8520 0.2065
vn -0.8982 -0.3920 0.1988
vn 0.1178 -0.9610 -0.2503
vn -0.0063 -0.8705 -0.4921
vn -0.2065 -0.9090 -0.3619
vn 0.7431 0.4731 -0.4733
vn -0.3030 -0.9362 0.1780
vn -0.3647 -0.8208 0.4396
vn 0.2375 -0.9568 0.1678
vn 0.1468 -0.9891 -0.0129
vn -0.0553 -0.9203 0.3872
vn -0.3388 0.5312 0.7766
vn -0.1011 -0.7518 0.6516
vn 0.0748 -0.9916 -0.1053
vn 0.7538 0.5441 0.3685
vn -0.2539 -0.5673 -0.7834
vn -0.8260 0.5616 -0.0483
vn -0.6813 0.4025 -0.6114
vn 0.7983 0.4263 0.4253
vn 0.0737 0.6206 0.7807
vn 0.7431 0.1266 -0.6570
vn 0.7059 0.5092 0.4924
vn -0.1045 -0.1935 -0.9755
vn -0.4330 0.4970 -0.7520
vn 0.6831 0.6505 0.3321
vn -0.2157 0.6627 0.7171
vn 0.9127 0.4087 -0.0050
vn -0.7704 0.4560 0.4455
vn 0.0944 -0.9949 -0.0343
vn 0.4229 0.5192 -0.7427
vn 0.0548 0.4137 0.9088
vn 0.0978 0.3834 0.9184
vn 0.9349 0.1879 -0.3011
vn 0.4760 0.5902 0.6520
vn 0.0361 0.3037 -0.9521
vn 0.7647 0.4950 0.4125
vn 0.8652 0.4496 -0.2219
vn -0.4639 0.3909 0.7950
vn 0.8317 0.5235 -0.1852
vn 0.8138 -0.4907 0.3112
vn -0.8396 -0.2488 0.4829
vn 0.7193 0.6321 0.2882
vn -0.6634 0.5764 -0.4771
vn 0.8375 0.5443 -0.0472
vn -0.6144 0.3604 -0.7019
vn 0.5353 0.2235 -0.8145
vn -0.0861 -0.2950 0.9516
vn -0.5858 0.6444 0.4914
vn 0.3364 0.4912 0.8035
vn 0.6674 0.2167 0.7124
vn 0.2601 -0.9452 0.1973
vn 0.8041 0.3439 0.4849
vn -0.1520 -0.8190 -0.5534
vn 0.5015 0.7280 0.4674
vn -0.7279 0.6054 -0.3218
vn 0.6350 0.7077 0.3099
vn -0.9634 0.2678 0.0123
vn -0.0640 -0.9464 0.3167
vn -0.0319 0.3008 -0.9532
vn -0.4137 0.6592 0.6280
vn -0.3491 -0.9371 -0.0035
vn -0.4592 0.6364 0.6198
vn -0.1360 0.5583 -0.8184
vn 0.9390 0.1848 -0.2899
vn -0.9435 0.3143 0.1054
vn -0.6321 0.5132 0.5806
vn 0.0574 0.5989 0.7988
vn -0.1004 -0.9751 0.1977
vn 0.0635 -0.9969 -0.0474
vn -0.0106 0.3788 -0.9254
vn -0.0188 0.5824 -0.8126
vn -0.1939 0.4483 -0.8726
vn 0.4967 0.5384 0.6807
vn -0.4089 0.3889 0.8256
vn -0.9636 0.2669 0.0177
vn 0.0845 -0.9879 0.1301
vn 0.5148 0.5566 0.6520
vn 0.3443 -0.7649 0.5445
vn -0.1415 -0.9850 -0.0989
vn -0.0788 0.5799 0.8108
vn -0.7409 0.5360 -0.4047
vn -0.6228 0.7351 -0.2680
vn 0.2369 0.5714 -0.7858
vn -0.6913 0.4637 -0.5542
vn -0.2194 -0.9753 0.0267
vn 0.0153 -0.9619 -0.2731
vn 0.1218 -0.9887 -0.0875
vn -0.8062 0.3541 0.4739
vn -0.1304 -0.9758 -0.1754
vn 0.6949 0.5872 0.4151
vn 0.3075 -0.9502 0.0508
vn -0.3260 -0.9307 0.1660
vn -0.7323 0.4144 -0.5404
vn 0.7831 0.2777 0.5564
vn -0.4679 -0.8837 -0.0129
vn 0.1678 -0.9321 -0.3209
vn 0.6530 0.6482 0.3916
vn -0.0296 -0.9974 0.0660
vn 0.4646 0.5039 0.7282
vn 0.1389 -0.9594 0.2456
vn 0.1575 -0.9539 0.2557
vn -0.8830 0.4499 0.1342
vn 0.0778 -0.9950 -0.0625
vn 0.0753 0.3979 -0.9144
vn -0.7435 0.3237 -0.5852
vn -0.7753 0.4682 -0.4240
vn 0.4203 -0.9041 0.0776
vn -0.8528 0.3569 -0.3813
vn 0.0011 -0.9999 -0.0170
vn 0.0191 -0.9998 -0.0029
vn 0.4021 0.5577 -0.7261
vn 0.6144 -0.7875 -0.0486
vn -0.0355 0.6212 0.7828
vn -0.1917 0.6731 -0.7143
vn 0.8140 0.4412 -0.3778
vn 0.0334 -0.9974 0.0645
vn 0.5912 0.2960 0.7502
vn 0.2255 0.5749 -0.7865
vn 0.3894 -0.8495 -0.3560
vn -0.4937 -0.8689 -0.0342
vn -0.7951 0.4986 -0.3454
vn -0.6968 0.6135 -0.3715
vn 0.0335 0.4602 -0.8872
vn -0.4658 0.6080 0.6430
vn -0.7883 0.5332 0.3071
vn 0.1245 0.4832 -0.8666
vn -0.1800 -0.0361 0.9830
vn -0.7364 0.5682 -0.3673
vn 0.1861 0.5840 -0.7902
vn -0.6617 0.6727 -0.3311
vn -0.5628 0.5100 0.6505
vn -0.1009 0.1306 -0.9863
vn 0.8041 0.4309 0.4095
vn 0.6000 -0.7619 -0.2439
vn -0.0606 -0.5304 0.8456
vn -0.1587 0.6625 -0.7321
vn -0.9446 0.2559 0.2055
vn -0.6606 0.5820 0.4742
vn -0.0250 -0.9985 0.0484
vn -0.2702 0.6225 0.7345
vn 0.1757 -0.7754 -0.6065
vn 0.3104 0.6435 0.6997
vn -0.0957 -0.9947 -0.0382
vn 0.7750 0.5478 0.3150
vn 0.0631 0.5221 0.8505
vn 0.0082 0.6202 -0.7844
vn -0.6492 0.5835 0.4879
vn -0.0237 -0.9996 -0.0133
vn -0.7115 0.1036 0.6950
vn 0.0906 0.3626 -0.9275
vn 0.1307 -0.9006 -0.4145
vn -0.6396 0.4043 0.6538
vn 0.0872 -0.9929 0.0805
vn 0.0384 0.3122 0.9493
vn -0.9163 0.3900 0.0914
vn 0.6818 0.3968 0.6146
vn -0.9945 0.0748 -0.0733
vn 0.5377 -0.8264 0.1671
vn 0.8519 0.4854 -0.1965
vn 0.0134 0.4045 0.9144
vn 0.1648 0.4633 -0.8707
vn 0.7079 0.6135 -0.3499
vn 0.8912 0.3841 0.2414
vn -0.0914 0.5406 0.8363
vn 0.7428 0.6296 -0.2276
vn 0.2513 0.5482 -0.7977
vn -0.3066 -0.9396 -0.1522
vn 0.8762 0.4713 -0.1007
vn -0.7654 0.5970 0.2402
vn -0.1845 -0.9801 0.0740
vn -0.7558 0.2523 -0.6042
vn 0.0695 0.4021 -0.9130
vn -0.3405 -0.9266 -0.1594
vn 0.0738 -0.7755 -0.6270
vn 0.5141 0.3366 -0.7889
vn -0.3321 0.5994 -0.7283
vn -0.5589 0.3185 -0.7656
vn -0.0440 -0.9771 -0.2084
vn 0.2635 -0.9600 0.0945
vn -0.8227 0.5502 0.1426
vn 0.7971 0.5257 -0.2972
vn 0.5030 0.7095 0.4936
vn 0.6354 0.3427 0.6920
vn -0.0091 -0.9997 0.0221
vn -0.0362 -0.9878 -0.1512
vn -0.0775 0.3969 0.9146
vn -0.1115 -0.9824 0.1501
vn 0.3117 0.6527 0.6905
vn -0.6893 0.4896 -0.5341
vn -0.2087 -0.9771 -0.0406
vn -0.5579 -0.8268 0.0722
vn 0.0752 -0.9651 -0.2507
vn 0.6960 0.3862 -0.6053
vn -0.1380 -0.9783 -0.1543
vn -0.0283 0.4200 0.9071
vn -0.2454 0.5679 -0.7857
vn -0.3783 -0.9067 0.1864
vn -0.9086 0.3422 0.2396
vn 0.8267 0.3381 -0.4498
vn -0.1041 -0.9744 -0.1991
vn -0.0348 0.4203 -0.9067
vn 0.1409 -0.9675 0.2098
vn 0.5938 0.4196 -0.6866
vn -0.1014 0.6248 -0.7742
vn -0.0104 0.2977 -0.9546
vn -0.7131 0.1525 -0.6843
vn -0.5092 0.5276 -0.6800
vn -0.2346 0.6826 -0.6921
vn 0.1997 0.5168 0.8325
vn -0.5133 0.5567 0.6532
vn 0.2549 0.6478 0.7179
vn 0.1702 -0.9755 0.1398
vn 0.5501 0.6020 -0.5787
vn 0.0054 -0.9998 -0.0201
vt 0.793313 0.947777
vt 0.819546 0.983649
vt 0.780944 0.994061
vt 0.773144 0.795099
vt 0.827363 0.782628
vt 0.835822 0.759534
vt 0.759953 0.776368
vt 0.739319 0.881579
vt 0.680473 0.794412
vt 0.762954 0.145527
vt 0.779647 0.196763
vt 0.818620 0.161555
vt 0.833938 0.402962
vt 0.794928 0.418043
vt 0.850220 0.430353
vt 0.092750 0.884244
vt 0.090988 0.910606
vt 0.111134 0.900115
vt 0.857765 0.115303
vt 0.867737 0.088950
vt 0.827700 0.123737
vt 0.821164 0.034652
vt 0.803398 0.011002
vt 0.808325 0.072750
vt 0.614047 0.769054
vt 0.624756 0.737120
vt 0.656719 0.764056
vt 0.073243 0.750485
vt 0.081417 0.770513
vt 0.069901 0.766679
vt 0.698365 0.886752
vt 0.680585 0.884825
vt 0.674503 0.870566
vt 0.828004 0.056936
vt 0.678050 0.779060
vt 0.549330 0.135075
vt 0.672302 0.761724
vt 0.814980 0.099572
vt 0.747879 0.241472
vt 0.776294 0.232386
vt 0.757191 0.207644
vt 0.350573 0.820130
vt 0.299845 0.812773
vt 0.312296 0.834119
vt 0.134853 0.917315
vt 0.179060 0.834223
vt 0.184112 0.908779
vt 0.571154 0.726059
vt 0.314727 0.919172
vt 0.321604 0.888192
vt 0.341250 0.929240
vt 0.021004 0.927294
vt 0.035680 0.947821
vt 0.052208 0.910896
vt 0.371584 0.933608
vt 0.490989 0.873168
vt 0.478411 0.924703
vt 0.868727 0.057960
vt 0.977728 0.522743
vt 0.393284 0.958915
vt 0.297218 0.892599
vt 0.752204 0.309280
vt 0.299328 0.771314
vt 0.243840 0.701665
vt 0.269657 0.652524
vt 0.996279 0.037237
vt 0.948910 0.005815
vt 0.947889 0.034177
vt 0.513331 0.019534
vt 0.554363 0.076903
vt 0.459063 0.076415
vt 0.360530 0.982221
vt 0.309568 0.968675
vt 0.787177 0.215560
vt 0.696701 0.732641
vt 0.377557 0.762522
vt 0.250694 0.794150
vt 0.463127 0.641909
vt 0.472400 0.573265
vt 0.496414 0.570994
vt 0.184850 0.770739
vt 0.237267 0.755667
vt 0.763751 0.763314
vt 0.899562 0.033881
vt 0.928748 0.071236
vt 0.920670 0.043106
vt 0.509442 0.823147
vt 0.429825 0.856769
vt 0.399744 0.836790
vt 0.401826 0.771701
vt 0.375805 0.732051
vt 0.402319 0.742630
vt 0.835285 0.297980
vt 0.871796 0.346013
vt 0.877788 0.314297
vt 0.930715 0.605354
vt 0.993625 0.688781
vt 0.977583 0.612371
vt 0.590116 0.781622
vt 0.447609 0.580131
vt 0.713449 0.678584
vt 0.667088 0.612434
vt 0.636978 0.628314
vt 0.716676 0.173204
vt 0.573121 0.202971
vt 0.629889 0.239398
vt 0.560474 0.534488
vt 0.560038 0.460214
vt 0.572909 0.503773
vt 0.956952 0.757279
vt 0.938603 0.740096
vt 0.926366 0.780591
vt 0.847185 0.379411
vt 0.271243 0.833446
vt 0.251670 0.816256
vt 0.907783 0.720884
vt 0.906595 0.741478
vt 0.621915 0.742069
vt 0.679720 0.940589
vt 0.597412 0.551381
vt 0.819452 0.353939
vt 0.827725 0.571908
vt 0.804416 0.553388
vt 0.808144 0.579426
vt 0.531998 0.565681
vt 0.551439 0.577743
vt 0.710697 0.422130
vt 0.773824 0.409598
vt 0.680401 0.397122
vt 0.011034 0.888492
vt 0.006773 0.920100
vt 0.035083 0.888570
vt 0.010636 0.852862
vt 0.896637 0.921643
vt 0.913177 0.942354
vt 0.844580 0.962257
vt 0.590205 0.701495
vt 0.050094 0.869831
vt 0.890863 0.159439
vt 0.843500 0.186135
vt 0.857775 0.228548
vt 0.748216 0.938758
vt 0.773339 0.955637
vt 0.654473 0.986981
vt 0.686365 0.758403
vt 0.482418 0.481893
vt 0.465726 0.483416
vt 0.472740 0.467088
vt 0.869677 0.462531
vt 0.793880 0.482474
vt 0.404077 0.161945
vt 0.338177 0.149711
vt 0.391148 0.126683
vt 0.509067 0.281722
vt 0.484621 0.298350
vt 0.494756 0.278870
vt 0.757629 0.125919
vt 0.696738 0.148866
vt 0.085135 0.853076
vt 0.080266 0.867402
vt 0.114436 0.863586
vt 0.114638 0.929790
vt 0.881995 0.492085
vt 0.868506 0.160479
vt 0.402658 0.066418
vt 0.459641 0.335421
vt 0.574866 0.862679
vt 0.557923 0.844610
vt 0.644320 0.860404
vt 0.390993 0.696699
vt 0.417529 0.594902
vt 0.586876 0.830548
vt 0.858880 0.604212
vt 0.869082 0.628070
vt 0.456378 0.461111
vt 0.141888 0.600784
vt 0.042464 0.696189
vt 0.153197 0.660218
vt 0.917247 0.004786
vt 0.891648 0.559031
vt 0.993453 0.522818
vt 0.970920 0.255818
vt 0.983653 0.180751
vt 0.930845 0.256466
vt 0.704901 0.475100
vt 0.743050 0.032510
vt 0.697634 0.048706
vt 0.754150 0.046906
vt 0.785504 0.354179
vt 0.787221 0.291560
vt 0.232617 0.641878
vt 0.674008 0.317304
vt 0.642844 0.405159
vt 0.707713 0.362728
vt 0.204459 0.839197
vt 0.215448 0.907193
vt 0.085586 0.947403
vt 0.917518 0.869750
vt 0.955908 0.962903
vt 0.175043 0.956939
vt 0.139893 0.967362
vt 0.178162 0.997410
vt 0.057396 0.994111
vt 0.992585 0.154170
vt 0.652274 0.315726
vt 0.952367 0.110869
vt 0.921980 0.361230
vt 0.921032 0.316264
vt 0.893196 0.364123
vt 0.033572 0.832057
vt 0.133237 0.777382
vt 0.143301 0.821444
vt 0.152218 0.917555
vt 0.104023 0.946626
vt 0.154743 0.930885
vt 0.774955 0.987791
vt 0.654334 0.498922
vt 0.681901 0.503104
vt 0.741895 0.176526
vt 0.637143 0.962010
vt 0.562437 0.960041
vt 0.621192 0.942841
vt 0.769137 0.735005
vt 0.637784 0.824207
vt 0.074965 0.603350
vt 0.004833 0.580865
vt 0.027270 0.605405
vt 0.572286 0.813310
vt 0.637499 0.274850
vt 0.978184 0.116797
vt 0.883859 0.351121
vt 0.711827 0.314634
vt 0.804975 0.636785
vt 0.747103 0.666705
vt 0.843634 0.694868
vt 0.841878 0.667876
vt 0.851936 0.673677
vt 0.730511 0.198156
vt 0.184832 0.611107
vt 0.164128 0.606728
vt 0.541813 0.868763
vt 0.427025 0.869598
vt 0.308635 0.647425
vt 0.341202 0.737363
vt 0.314766 0.716366
vt 0.724907 0.616935
vt 0.736424 0.571115
vt 0.703418 0.594925
vt 0.433017 0.779802
vt 0.524604 0.563571
vt 0.529453 0.696126
vt 0.092913 0.767397
vt 0.760405 0.487465
vt 0.773312 0.551129
vt 0.126705 0.695653
vt 0.862123 0.384277
vt 0.865551 0.399062
vt 0.468740 0.110199
vt 0.455533 0.239838
vt 0.434187 0.142559
vt 0.435697 0.359912
vt 0.487115 0.099266
vt 0.767738 0.091374
vt 0.784562 0.070571
vt 0.667957 0.597513
vt 0.660333 0.849625
vt 0.881988 0.659578
vt 0.418645 0.717512
vt 0.167902 0.032829
vt 0.072898 0.067008
vt 0.076699 0.000499
vt 0.421335 0.812190
vt 0.491334 0.758453
vt 0.566168 0.637225
vt 0.540005 0.048276
vt 0.590162 0.022564
vt 0.599925 0.046739
vt 0.900707 0.864050
vt 0.814379 0.840708
vt 0.856212 0.297727
vt 0.981694 0.316139
vt 0.222479 0.853403
vt 0.225005 0.836464
vt 0.644151 0.088426
vt 0.580019 0.160139
vt 0.557727 0.139941
vt 0.500130 0.541134
vt 0.474906 0.554054
vt 0.431438 0.579227
vt 0.413890 0.548443
vt 0.007880 0.803468
vt 0.499361 0.507643
vt 0.517048 0.532319
vt 0.792686 0.608181
vt 0.764903 0.609266
vt 0.883270 0.770419
vt 0.900290 0.696697
vt 0.850390 0.557177
vt 0.980996 0.804668
vt 0.637120 0.457721
vt 0.646062 0.480519
vt 0.746530 0.098680
vt 0.717883 0.103083
vt 0.528744 0.953677
vt 0.526983 0.884368
vt 0.499257 0.925682
vt 0.932716 0.099060
vt 0.133970 0.720602
vt 0.149746 0.730387
vt 0.360244 0.586317
vt 0.256488 0.890298
vt 0.272862 0.878368
vt 0.204745 0.275983
vt 0.209841 0.163777
vt 0.209628 0.143632
vt 0.183360 0.134852
vt 0.167477 0.152632
vt 0.170745 0.171232
vt 0.126445 0.313181
vt 0.095089 0.242164
vt 0.049626 0.172003
vt 0.000347 0.105150
vt 0.245864 0.003808
vt 0.272521 0.057933
vt 0.341190 0.080618
vt 0.321510 0.144319
vt 0.386765 0.178260
vt 0.319676 0.219774
vt 0.307598 0.313248
vt 0.196278 0.177719
vt 0.858274 0.262316
vt 0.298121 0.022288
vt 0.276389 0.044455
vt 0.309831 0.047648
vt 0.100154 0.709490
vt 0.121166 0.715114
vt 0.033916 0.219453
vt 0.514586 0.114473
vt 0.193935 0.733593
vt 0.898819 0.883730
vt 0.586886 0.168733
vt 0.523820 0.132051
vt 0.491342 0.168442
vt 0.248692 0.917083
vt 0.813099 0.704308
vt 0.847587 0.915811
vt 0.544180 0.615304
vt 0.916774 0.825416
vt 0.943382 0.881202
vt 0.952511 0.826455
vt 0.073562 0.910714
vt 0.004718 0.757747
vt 0.869940 0.875486
vt 0.640973 0.651550
vt 0.451704 0.686373
vt 0.765286 0.104926
vt 0.292095 0.457423
vt 0.923788 0.755676
vt 0.485180 0.122235
vt 0.485281 0.169658
vt 0.416092 0.167902
vt 0.658709 0.570341
vt 0.588676 0.585724
vt 0.549982 0.724314
vt 0.540571 0.824438
vt 0.525664 0.789344
vt 0.525981 0.731213
vt 0.249094 0.982327
vt 0.377994 0.817702
vt 0.980919 0.703046
vt 0.799554 0.128923
vt 0.016296 0.509134
vt 0.764833 0.836215
vt 0.739985 0.552698
vt 0.864731 0.119481
vt 0.956554 0.383386
vt 0.833500 0.497766
vt 0.866530 0.399872
vt 0.859992 0.422238
vt 0.942529 0.507453
vt 0.952325 0.453005
vt 0.103021 0.554820
vt 0.737007 0.911258
vt 0.813809 0.882380
vt 0.802188 0.886498
vt 0.230368 0.831838
vt 0.883887 0.954372
vt 0.533883 0.019227
vt 0.817689 0.629502
vt 0.850798 0.655088
vt 0.857116 0.565265
vt 0.762631 0.374534
vt 0.633392 0.437233
s 0
f 22/1/1 66/2/1 81/3/1
f 154/4/2 139/5/2 138/6/2
f 71/7/3 49/8/3 99/9/3
f 101/10/4 136/11/4 121/12/4
f 93/13/5 15/14/5 46/15/5
f 17/16/6 19/17/6 11/18/6
f 109/19/7 18/20/7 108/21/7
f 21/22/8 104/23/8 103/24/8
f 28/25/9 26/26/9 27/27/9
f 150/28/10 162/29/10 51/30/10
f 49/31/11 107/32/11 103/33/11
f 103/24/12 33/34/12 21/22/12
f 39/35/13 154/36/13 88/37/13
f 108/21/14 18/20/14 107/38/14
f 95/39/15 57/40/15 96/41/15
f 163/42/16 56/43/16 58/44/16
f 20/45/17 19/46/17 109/47/17
f 26/26/18 28/25/18 29/48/18
f 130/49/19 132/50/19 133/51/19
f 84/52/20 64/53/20 132/54/20
f 79/55/21 77/56/21 78/57/21
f 18/20/22 106/58/22 107/38/22
f 112/59/23 114/60/23 78/57/23
f 62/61/24 132/50/24 130/49/24
f 97/62/25 57/40/25 95/39/25
f 166/63/26 43/64/26 42/65/26
f 50/66/27 108/67/27 47/68/27
f 40/69/28 168/70/28 39/71/28
f 110/72/29 131/73/29 133/51/29
f 57/40/30 55/74/30 96/41/30
f 31/75/31 27/27/31 26/26/31
f 56/43/32 77/76/32 79/77/32
f 91/78/33 85/79/33 87/80/33
f 45/81/34 43/64/34 44/82/34
f 138/6/35 167/83/35 154/4/35
f 49/84/36 61/85/36 48/86/36
f 43/64/37 166/63/37 44/82/37
f 15/87/38 101/88/38 76/89/38
f 50/90/39 82/91/39 73/92/39
f 16/93/40 55/94/40 72/95/40
f 80/96/41 89/97/41 126/98/41
f 30/99/42 29/48/42 28/25/42
f 85/79/43 91/78/43 164/100/43
f 23/101/44 24/102/44 10/103/44
f 46/104/45 45/105/45 94/106/45
f 158/107/46 160/108/46 92/109/46
f 78/110/47 129/111/47 53/112/47
f 96/113/48 55/94/48 16/93/48
f 57/114/49 56/43/49 55/115/49
f 129/111/50 150/116/50 134/117/50
f 158/118/51 92/119/51 94/120/51
f 93/13/52 27/121/52 15/14/52
f 120/122/53 70/123/53 117/124/53
f 156/125/54 158/118/54 157/126/54
f 144/127/55 148/128/55 149/129/55
f 66/130/56 63/131/56 62/132/56
f 66/130/57 62/132/57 81/133/57
f 36/134/58 37/135/58 104/136/58
f 132/54/59 62/132/59 63/131/59
f 132/54/60 63/131/60 84/52/60
f 31/75/61 26/26/61 111/137/61
f 35/138/62 81/133/62 62/132/62
f 152/139/63 153/140/63 53/141/63
f 11/142/64 9/143/64 23/144/64
f 71/7/65 99/9/65 98/145/65
f 67/146/66 125/147/66 35/148/66
f 42/149/67 46/15/67 14/150/67
f 159/151/68 45/152/68 44/153/68
f 124/154/69 67/155/69 24/156/69
f 111/157/70 110/158/70 101/10/70
f 24/159/71 67/160/71 10/161/71
f 9/162/72 11/18/72 19/17/72
f 55/115/73 56/43/73 79/77/73
f 42/149/74 14/150/74 73/163/74
f 10/161/75 17/16/75 11/18/75
f 108/21/76 121/12/76 20/164/76
f 166/165/77 165/166/77 44/153/77
f 119/167/78 42/168/78 82/169/78
f 89/170/79 159/171/79 91/78/79
f 42/168/80 73/172/80 82/169/80
f 39/71/81 165/166/81 166/165/81
f 156/173/82 157/174/82 80/96/82
f 35/148/83 125/147/83 81/175/83
f 117/176/84 116/177/84 118/178/84
f 107/179/85 48/86/85 47/68/85 108/67/85
f 111/137/86 26/26/86 29/48/86
f 147/180/87 80/96/87 127/181/87
f 7/182/88 54/183/88 52/184/88
f 148/128/89 144/127/89 145/185/89
f 37/186/90 105/187/90 102/188/90
f 61/85/91 47/68/91 48/86/91
f 97/62/92 59/189/92 58/190/92
f 43/64/93 45/81/93 46/191/93
f 8/192/94 150/193/94 2/194/94
f 17/195/95 18/196/95 109/47/95
f 19/17/96 65/197/96 9/162/96
f 62/198/97 105/199/97 37/135/97
f 64/200/98 83/201/98 65/202/98
f 23/203/99 65/202/99 83/201/99
f 95/204/100 160/205/100 161/206/100
f 122/207/101 110/208/101 123/209/101
f 143/210/102 152/211/102 151/212/102
f 63/213/103 66/214/103 83/201/103 84/215/103
f 77/76/104 56/43/104 163/42/104
f 65/216/105 23/144/105 9/143/105
f 128/217/106 147/218/106 145/185/106
f 101/10/107 122/219/107 136/11/107
f 61/220/108 60/221/108 70/222/108
f 57/40/109 97/62/109 58/190/109
f 88/223/110 167/83/110 138/6/110
f 28/25/111 16/224/111 30/99/111
f 113/225/112 112/226/112 135/227/112
f 16/224/113 72/228/113 30/99/113
f 94/106/114 92/229/114 160/205/114
f 82/230/115 50/66/115 47/68/115
f 123/209/116 110/208/116 133/231/116
f 161/232/117 59/189/117 97/62/117
f 114/233/118 71/234/118 72/235/118
f 23/203/119 83/201/119 66/214/119
f 79/236/120 72/235/120 55/237/120
f 96/41/121 93/238/121 95/39/121
f 119/239/122 120/240/122 118/178/122
f 31/241/123 111/242/123 101/88/123
f 119/243/124 39/244/124 41/245/124
f 16/93/125 27/121/125 96/113/125
f 22/246/126 81/247/126 125/248/126
f 76/89/127 50/90/127 75/249/127
f 154/36/128 39/71/128 168/70/128
f 88/250/129 86/251/129 87/80/129
f 152/211/130 143/210/130 142/252/130
f 3/253/131 145/185/131 127/254/131
f 118/178/132 116/177/132 168/255/132
f 119/243/133 41/245/133 42/65/133
f 122/207/134 123/209/134 132/256/134 137/257/134
f 87/258/135 85/259/135 164/260/135 44/153/135 165/261/135 39/71/135 88/262/135
f 103/24/136 104/23/136 102/188/136 32/263/136 100/264/136
f 24/102/137 22/246/137 125/248/137 124/265/137
f 100/266/138 99/9/138 103/33/138
f 99/9/139 49/8/139 103/33/139
f 157/174/140 159/267/140 80/96/140
f 119/243/141 40/268/141 39/244/141
f 41/245/142 39/244/142 166/63/142
f 126/269/143 3/270/143 127/271/143
f 15/87/144 74/272/144 14/273/144
f 158/118/145 94/120/145 159/274/145
f 102/188/146 105/187/146 32/263/146
f 80/275/147 128/276/147 156/277/147
f 61/85/148 82/230/148 47/68/148
f 143/278/149 139/5/149 142/279/149
f 52/184/150 150/280/150 8/281/150
f 34/282/151 17/195/151 67/283/151
f 154/36/152 168/70/152 116/284/152 153/285/152 155/286/152
f 106/58/153 33/34/153 103/24/153 107/38/153
f 146/287/154 162/288/154 150/289/154 163/290/154 59/291/154 161/292/154 128/293/154
f 48/86/155 107/179/155 49/84/155
f 115/294/156 69/295/156 114/233/156
f 76/89/157 74/272/157 15/87/157
f 158/118/158 159/274/158 157/126/158
f 71/234/159 114/233/159 69/295/159
f 140/296/160 141/297/160 138/6/160
f 27/27/161 16/224/161 28/25/161
f 70/123/162 120/122/162 119/298/162
f 53/112/163 112/299/163 78/110/163
f 162/300/164 146/301/164 145/185/164 144/127/164
f 32/263/165 105/187/165 29/302/165
f 80/96/166 159/267/166 89/97/166
f 161/292/167 158/107/167 128/293/167
f 158/107/168 156/125/168 128/293/168
f 109/47/169 19/46/169 17/195/169
f 131/303/170 110/158/170 111/157/170 29/302/170
f 106/304/171 34/305/171 33/306/171
f 61/85/172 70/307/172 82/230/172
f 152/211/173 155/308/173 153/309/173
f 77/310/174 163/290/174 150/289/174
f 33/311/175 34/282/175 67/283/175 21/312/175
f 151/313/176 13/314/176 4/315/176 12/316/176 68/317/176 1/318/176 54/319/176 7/320/176 2/321/176 148/322/176 3/270/176 126/269/176 89/323/176 90/324/176 86/325/176 5/326/176 141/327/176 140/328/176 143/329/176
f 13/314/177 151/313/177 6/330/177
f 134/331/178 52/184/178 54/183/178 53/141/178
f 67/332/179 124/333/179 125/334/179
f 43/64/180 46/191/180 42/65/180
f 154/335/181 155/336/181 142/252/181
f 133/51/182 131/73/182 130/49/182
f 8/337/183 2/321/183 7/320/183
f 95/39/184 161/232/184 97/62/184
f 52/184/185 134/331/185 150/280/185
f 102/188/186 104/23/186 37/186/186
f 167/338/187 88/37/187 154/36/187
f 154/4/188 142/279/188 139/5/188
f 40/339/189 119/239/189 118/178/189
f 113/225/190 135/227/190 116/177/190
f 164/100/191 91/78/191 159/171/191
f 42/65/192 41/245/192 166/63/192
f 62/198/193 37/135/193 35/340/193
f 141/341/194 5/342/194 25/343/194
f 141/297/195 88/223/195 138/6/195
f 56/43/196 57/114/196 58/44/196
f 34/282/197 106/344/197 18/196/197
f 14/273/198 74/272/198 75/249/198
f 7/182/199 52/184/199 8/281/199
f 83/201/200 64/200/200 84/215/200
f 98/345/201 72/235/201 71/234/201
f 122/219/202 101/10/202 110/158/202
f 36/134/203 104/136/203 21/346/203 35/340/203
f 143/278/204 140/296/204 138/6/204 139/5/204
f 88/250/205 25/347/205 86/251/205
f 161/292/206 160/108/206 158/107/206
f 87/80/207 86/251/207 91/78/207
f 153/348/208 116/349/208 135/350/208
f 132/256/209 123/209/209 133/231/209
f 64/53/210 65/197/210 137/351/210 132/54/210
f 149/352/211 150/28/211 51/30/211
f 160/205/212 46/104/212 94/106/212
f 21/346/213 67/353/213 35/340/213
f 141/354/214 25/347/214 88/250/214
f 137/351/215 65/197/215 19/17/215
f 91/78/216 90/355/216 89/170/216
f 114/356/217 113/225/217 115/357/217
f 53/112/218 129/111/218 134/358/218
f 75/249/219 50/90/219 73/92/219 14/273/219
f 14/150/220 46/15/220 15/14/220
f 91/78/221 86/251/221 90/355/221
f 76/89/222 75/249/222 74/272/222
f 145/185/223 3/253/223 148/128/223
f 25/359/224 5/360/224 86/361/224
f 94/120/225 45/362/225 159/363/225
f 32/364/226 72/228/226 98/365/226 99/366/226
f 101/88/227 15/87/227 31/241/227
f 78/57/228 114/60/228 79/55/228
f 99/366/229 100/367/229 32/364/229
f 131/73/230 105/368/230 62/61/230
f 108/369/231 50/90/231 76/89/231
f 35/340/232 37/135/232 36/134/232
f 30/99/233 32/364/233 29/48/233
f 77/370/234 150/116/234 129/111/234
f 127/254/235 145/185/235 147/218/235
f 118/178/236 120/240/236 117/176/236
f 76/371/237 101/10/237 121/12/237
f 113/225/238 117/176/238 115/357/238
f 32/364/239 30/99/239 72/228/239
f 135/350/240 112/299/240 53/112/240
f 53/112/241 153/348/241 135/350/241
f 58/44/242 59/372/242 163/42/242
f 53/141/243 54/183/243 152/139/243
f 49/8/244 71/7/244 69/373/244
f 117/124/245 60/374/245 69/295/245 115/294/245
f 79/236/246 114/233/246 72/235/246
f 49/84/247 60/375/247 61/85/247
f 128/217/248 145/185/248 146/301/248
f 160/205/249 95/39/249 93/238/249
f 131/73/250 62/61/250 130/49/250
f 1/318/251 6/330/251 151/313/251 54/319/251
f 10/161/252 67/160/252 17/16/252
f 126/98/253 127/181/253 80/96/253
f 121/12/254 108/21/254 76/371/254
f 137/257/255 136/376/255 122/207/255
f 40/339/256 118/178/256 168/255/256
f 77/370/257 129/111/257 78/110/257
f 44/153/258 164/260/258 159/151/258
f 27/121/259 93/13/259 96/113/259
f 2/194/260 150/193/260 149/129/260
f 119/298/261 82/377/261 70/123/261
f 137/378/262 19/379/262 20/380/262 121/381/262
f 112/226/263 113/225/263 114/382/263
f 70/123/264 60/374/264 117/124/264
f 10/383/265 11/142/265 23/144/265
f 23/384/266 66/2/266 22/1/266
f 108/21/267 20/164/267 109/19/267
f 49/8/268 69/373/268 60/385/268
f 29/302/269 105/187/269 131/303/269
f 2/194/270 149/129/270 148/128/270
f 155/308/271 152/211/271 142/252/271
f 22/246/272 24/102/272 23/101/272
f 54/386/273 151/212/273 152/387/273
f 17/195/274 34/282/274 18/196/274
f 117/176/275 113/225/275 116/177/275
f 147/388/276 128/276/276 80/275/276
f 121/389/277 136/390/277 137/391/277
f 46/104/278 160/205/278 93/238/278
f 27/121/279 31/392/279 15/14/279
f 162/300/280 144/127/280 149/129/280 51/393/280
f 68/317/281 12/316/281 4/315/281 13/314/281 6/330/281 1/318/281
