# Blender 4.1.1
# www.blender.org
mtllib Tree5.stem_lowpoly1.mtl
o Tree5.stem_lowpoly1
v 2.117723 -0.522460 1.294162
v 0.000680 -0.488380 2.889470
v 0.144606 6.305488 -0.629530
v 1.134832 16.499163 0.438824
v -1.453004 19.195354 0.576233
v -1.058193 17.630362 2.037198
v -1.601106 18.406200 1.033874
v 0.777762 13.216469 0.850963
v -1.194005 15.514476 0.543774
v 0.265529 16.040495 -0.799475
v 0.915218 6.930893 1.377313
v -1.463547 7.387537 -0.128938
v 1.368546 -0.528515 -0.482774
v 1.057908 5.272100 0.355730
v 0.589333 14.908262 -0.311301
v 1.596770 -0.507056 2.593827
v -2.203816 -0.505805 -0.907277
v -0.773598 15.472695 -0.337483
v -0.617718 -0.520364 -1.784924
v -0.210751 20.100700 0.890064
v -1.767083 20.074350 -0.057866
v -2.528683 21.688730 4.689863
v -2.859648 21.343424 4.184906
v -2.873695 21.124279 4.210752
v -1.315178 20.380865 -1.090503
v -0.085276 20.242727 -0.021180
v 2.001586 18.397650 -1.937485
v 2.465850 19.715317 -1.619735
v 0.036694 16.375803 1.667359
v -1.093758 5.508586 1.463152
v 0.781163 5.348856 1.978888
v -1.670921 19.895618 -0.708415
v -0.315718 19.205925 -0.351480
v -0.767987 18.107809 1.977492
v -1.804273 17.378286 0.938524
v -2.823042 20.004435 3.317720
v -2.809658 20.687677 4.619742
v -0.697721 15.286546 1.368224
v 0.758809 16.941319 -0.316932
v 2.528461 19.069969 -1.347880
v -0.271160 8.118601 1.735596
v -1.895174 -0.481610 1.295352
v -0.071821 13.237236 -0.400270
v 2.373750 19.515421 -1.774784
v -2.520835 21.672163 5.227893
v -0.662807 20.493530 -1.136615
v -1.061951 20.042980 1.298348
vn 0.7174 0.2146 0.6628
vn 0.9670 0.2020 0.1553
vn -0.2665 -0.0166 0.9637
vn -0.9873 0.0790 0.1375
vn -0.9318 -0.3608 -0.0386
vn 0.4642 0.2071 -0.8612
vn 0.2900 -0.5631 0.7739
vn 0.6097 -0.2778 0.7423
vn -0.3835 0.0245 0.9232
vn 0.9854 -0.0193 0.1689
vn 0.8352 -0.1787 -0.5201
vn -0.3640 -0.0882 -0.9272
vn 0.9162 0.1050 -0.3867
vn 0.7910 -0.2841 -0.5418
vn 0.1821 0.1277 0.9749
vn 0.0283 -0.5148 -0.8568
vn 0.6892 0.0454 -0.7232
vn 0.8827 -0.0472 -0.4676
vn 0.5467 0.0800 -0.8335
vn 0.2707 0.0341 -0.9620
vn -0.6421 0.0645 0.7639
vn 0.9160 0.1659 0.3652
vn 0.8552 -0.4586 -0.2413
vn 0.6113 0.6760 -0.4116
vn -0.0817 -0.2123 0.9738
vn 0.7454 0.0026 0.6666
vn -0.4791 0.1305 -0.8680
vn 0.7558 0.0452 -0.6532
vn 0.8261 0.0640 -0.5599
vn -0.2464 0.1815 0.9520
vn -0.8135 -0.0521 -0.5792
vn -0.8994 0.0656 -0.4322
vn -0.9562 0.0554 0.2875
vn -0.6134 -0.3026 0.7295
vn 0.9517 -0.3031 -0.0492
vn 0.5695 -0.1827 -0.8014
vn -0.0461 -0.4066 -0.9124
vn 0.8869 0.4178 -0.1968
vn 0.7051 0.1774 0.6865
vn -0.5425 0.5142 0.6643
vn 0.0311 0.0071 0.9995
vn -0.5712 0.4894 0.6590
vn -0.8512 0.0396 0.5233
vn 0.6500 0.6677 -0.3628
vn -0.6695 0.3908 -0.6317
vn -0.4979 -0.7081 0.5006
vn 0.3623 0.3915 0.8459
vn 0.7441 -0.6673 -0.0314
vn -0.4824 0.0743 -0.8728
vn -0.9917 0.0496 -0.1184
vn -0.8281 0.3891 -0.4036
vn -0.8168 -0.2108 -0.5370
vn 0.8336 -0.2028 -0.5137
vn -0.7707 0.5378 0.3418
vn -0.7934 0.2098 -0.5713
vn -0.9812 0.1926 0.0146
vn 0.5133 0.2667 0.8157
vn 0.8476 0.0627 0.5269
vn 0.9244 0.2680 -0.2713
vn -0.7305 -0.3619 0.5791
vn 0.9954 0.0294 0.0913
vn 0.3484 -0.6958 0.6281
vn -0.8870 0.0160 0.4615
vn -0.7582 -0.5741 0.3091
vn -0.9941 -0.0913 0.0581
vn 0.7910 0.1288 -0.5981
vt 0.392553 0.042216
vt 0.662464 0.027709
vt 0.770886 0.065511
vt 0.805440 0.031038
vt 0.604037 0.015181
vt 0.742433 0.031313
vt 0.370253 0.010160
vt 0.253266 0.017250
vt 0.245247 0.022748
vt 0.057647 0.030317
vt 0.076796 0.034610
vt 0.185905 0.037240
vt 0.123987 0.065428
vt 0.056377 0.075171
vt 0.909204 0.054581
vt 0.829247 0.068354
vt 0.880485 0.069952
vt 0.362111 0.241516
vt 0.345642 0.209062
vt 0.335005 0.053560
vt 0.329915 0.016766
vt 0.743017 0.024970
vt 1.031598 0.034558
vt 0.892363 0.040766
vt 0.842730 0.037055
vt 0.762764 0.036471
vt 0.810414 0.052881
vt 0.431613 0.017553
vt 0.630671 0.022731
vt 1.002151 0.087007
vt 0.939055 0.091162
vt 0.906458 0.035816
vt 0.934868 0.040257
vt 0.857648 0.054750
vt 1.056377 0.075171
vt 0.829756 0.157510
vt 0.806698 0.167694
vt 0.340902 0.212938
vt 1.025156 0.037667
vt 1.057647 0.030317
vt 0.217430 0.053276
vt 0.067053 0.037448
vt 0.157956 0.028655
vt 1.108378 0.027321
vt 0.463533 0.014371
vt 0.261190 0.047780
vt 0.324938 0.162822
vt 0.811516 0.178507
vt 0.358457 0.226379
vt 0.335653 0.209877
vt 0.823031 0.184464
vt 1.141639 0.044622
vt 0.292616 0.030589
s 0
usemtl Material.001
f 34/1/1 29/2/1 4/3/1
f 14/4/2 31/5/2 1/6/2
f 41/7/3 30/8/3 31/5/3
f 42/9/4 12/10/4 17/11/4
f 5/12/5 21/13/5 32/14/5
f 33/15/6 39/16/6 10/17/6
f 45/18/7 37/19/7 34/1/7
f 34/1/8 37/19/8 6/20/8
f 30/8/9 41/7/9 38/21/9
f 31/5/10 14/4/10 11/22/10
f 4/3/11 10/17/11 39/16/11
f 18/23/12 10/17/12 43/24/12
f 1/6/13 13/25/13 14/4/13
f 8/26/14 43/24/14 15/27/14
f 2/28/15 16/29/15 31/5/15
f 25/30/16 46/31/16 33/15/16
f 3/32/17 19/33/17 43/24/17
f 46/31/18 26/34/18 33/15/18
f 13/25/19 19/33/19 3/32/19
f 33/15/20 10/17/20 32/35/20 25/30/20
f 42/9/21 2/28/21 30/8/21
f 16/29/22 1/6/22 31/5/22
f 27/36/23 40/37/23 15/27/23
f 34/1/24 23/38/24 45/18/24
f 29/2/25 34/1/25 38/21/25
f 29/2/26 8/26/26 4/3/26
f 19/33/27 17/39/27 12/40/27
f 3/32/28 43/24/28 14/4/28
f 8/26/29 14/4/29 43/24/29
f 30/8/30 2/28/30 31/5/30
f 35/41/31 5/12/31 18/42/31 9/43/31
f 18/23/32 12/40/32 9/44/32
f 30/8/33 9/43/33 12/10/33 42/9/33
f 38/21/34 34/1/34 6/20/34 9/43/34
f 15/27/35 40/37/35 4/3/35 8/26/35
f 15/27/36 43/24/36 10/17/36
f 10/17/37 27/36/37 15/27/37
f 33/15/38 4/3/38 39/16/38
f 34/1/39 4/3/39 20/45/39
f 5/12/40 34/1/40 20/45/40
f 38/21/41 41/7/41 11/22/41 29/2/41
f 7/46/42 34/1/42 5/12/42
f 9/43/43 30/8/43 38/21/43
f 7/46/44 23/38/44 34/1/44
f 23/38/45 7/46/45 36/47/45
f 6/20/46 37/19/46 35/41/46
f 28/48/47 4/3/47 40/37/47
f 23/38/48 22/49/48 45/18/48
f 12/40/49 18/23/49 43/24/49 19/33/49
f 36/47/50 24/50/50 23/38/50
f 28/48/51 44/51/51 27/36/51 10/17/51
f 32/35/52 10/17/52 18/23/52 5/52/52
f 27/36/53 44/51/53 40/37/53
f 4/3/54 28/48/54 10/17/54
f 35/41/55 36/47/55 7/46/55
f 7/46/56 5/12/56 35/41/56
f 41/7/57 31/5/57 11/22/57
f 29/2/58 11/22/58 8/26/58
f 20/45/59 4/3/59 33/15/59 26/34/59
f 35/41/60 9/43/60 6/20/60
f 14/4/61 8/26/61 11/22/61
f 5/12/62 20/45/62 47/53/62
f 21/13/63 5/12/63 47/53/63
f 36/47/64 35/41/64 37/19/64
f 24/50/65 36/47/65 37/19/65
f 14/4/66 13/25/66 3/32/66
