# Blender 4.1.1
# www.blender.org
mtllib tree5(stem)lowpoly2.mtl
o Tree5.stem_lowpoly3
v 0.228229 15.534678 1.169953
v 2.332313 -0.239799 0.856178
v -1.239558 -0.169176 0.936959
v 1.657396 -0.214975 -0.993339
v 1.015926 13.853523 0.792994
v 0.724792 16.625391 -0.080348
v -1.039947 16.947104 0.568650
v -1.135765 20.439962 0.287858
v 0.060556 20.933353 1.177959
v -0.326938 17.284290 -0.348117
v -0.094283 20.711363 0.141545
vn 0.8019 0.2545 0.5405
vn 0.9363 0.0859 -0.3405
vn 0.9892 0.0620 -0.1330
vn 0.3114 0.1137 -0.9435
vn -0.2702 0.9489 -0.1629
vn 0.9204 0.0280 0.3900
vn 0.9612 0.2028 -0.1870
vn -0.4420 -0.0151 0.8969
vn 0.0223 -0.0169 0.9996
vn -0.6087 0.0470 0.7920
vn -0.1760 0.1509 -0.9728
vn 0.2858 0.0676 -0.9559
vn -0.5546 -0.0322 -0.8315
vn -0.7886 -0.0040 -0.6148
vn -0.4060 0.0244 0.9136
vn 0.5198 0.0524 0.8527
vn -0.7744 -0.0718 -0.6287
vt 0.828597 0.488035
vt 0.820978 0.512412
vt 0.379572 0.638106
vt 0.710613 0.128260
vt 0.885553 0.052608
vt 0.848543 0.274886
vt 0.048842 0.738336
vt 0.950593 0.163076
vt 0.960346 0.202018
vt 0.968910 0.180177
vt 0.811028 0.487958
vt 0.820926 0.483337
vt 0.808264 0.499455
vt 0.776849 0.616452
vt 0.492883 0.855487
vt 0.626969 0.934606
vt 0.778413 0.960561
s 0
usemtl Material
f 6/1/1 1/2/1 5/3/1
f 4/4/2 5/5/2 2/6/2
f 6/7/3 5/3/3 4/4/3
f 11/8/4 6/9/4 10/10/4
f 8/11/5 9/12/5 11/8/5
f 9/12/6 1/2/6 6/1/6
f 11/8/7 9/12/7 6/1/7
f 7/13/8 1/2/8 9/12/8
f 3/14/9 2/6/9 1/2/9
f 9/12/10 8/11/10 7/13/10
f 10/15/11 8/11/11 11/8/11
f 4/4/12 10/15/12 6/7/12
f 4/4/13 3/16/13 10/15/13
f 3/16/14 7/17/14 10/15/14
f 7/13/15 3/14/15 1/2/15
f 2/6/16 5/3/16 1/2/16
f 10/15/17 7/17/17 8/11/17
