# Blender 4.1.1
# www.blender.org
mtllib tree5(leaves)lowpoly2.mtl
o Tree5.leaves_lowpoly3
v 0.893277 53.136250 -2.031955
v 0.196862 53.731621 1.633397
v 5.261126 45.910961 -2.458814
v -0.705730 44.530609 4.533038
v -5.867811 22.294466 2.699836
v -2.623301 19.961315 -2.357071
v 4.967404 45.740952 2.371195
v 1.938823 17.739901 1.637267
v 2.629815 20.742823 -3.776531
v 4.939492 24.250206 4.961607
v -1.994471 24.330309 6.915370
v -1.238945 29.652561 -5.223491
v 6.142859 22.826180 -0.626003
v -3.828050 43.198906 1.666451
vn 0.9971 0.0430 0.0622
vn -0.9095 0.3468 -0.2291
vn -0.7112 0.2738 0.6475
vn 0.2947 0.2608 0.9193
vn 0.8528 0.5164 0.0782
vn 0.8555 0.5130 0.0701
vn -0.4938 -0.8656 0.0826
vn -0.0010 -0.8744 -0.4852
vn -0.2182 -0.2480 -0.9439
vn -0.8484 -0.0350 -0.5282
vn 0.3703 0.0099 -0.9289
vn -0.8864 0.0638 -0.4586
vn -0.7572 0.1057 0.6446
vn 0.2706 0.1149 0.9558
vn 0.9785 0.0234 0.2048
vn 0.6779 -0.0324 -0.7345
vn -0.3228 -0.7015 0.6354
vn 0.2255 -0.5235 0.8217
vn 0.6685 -0.6832 -0.2937
vn 0.7963 -0.5226 0.3047
vn -0.6997 0.1275 0.7029
vn 0.3381 0.0889 0.9369
vn -0.7882 0.1526 -0.5962
vn 0.1090 0.1241 -0.9863
vt 0.354452 0.254375
vt 0.188783 0.248352
vt 0.319654 0.171954
vt 0.737277 0.273827
vt 0.809014 0.403434
vt 0.439638 0.342650
vt 0.373175 0.284064
vt 0.045455 0.236191
vt 0.088260 0.399635
vt 0.727273 0.000000
vt 0.776778 0.122690
vt 0.640372 0.114030
vt 0.545455 0.000000
vt 0.590223 0.114030
vt 0.474953 0.122114
vt 0.423035 0.122114
vt 0.534083 0.255123
vt 0.785613 0.166009
vt 0.906645 0.202279
vt 0.032613 0.258435
vt 0.160025 0.188994
vt 0.928191 0.033083
vt 1.000000 0.157461
vt 0.349516 0.024458
vt 0.182773 0.047263
vt 0.830603 0.283818
s 0
f 3/1/1 7/2/1 13/3/1
f 14/4/2 2/5/2 1/6/2
f 14/4/3 4/7/3 2/5/3
f 4/8/4 7/2/4 2/9/4
f 7/2/5 1/6/5 2/9/5
f 7/2/6 3/1/6 1/6/6
f 8/10/7 5/11/7 6/12/7
f 8/13/8 6/14/8 9/15/8
f 9/16/9 6/12/9 12/17/9
f 6/12/10 5/18/10 12/17/10
f 9/16/11 12/17/11 3/1/11
f 12/17/12 5/18/12 14/4/12
f 5/18/13 11/19/13 14/4/13
f 11/20/14 10/21/14 7/2/14
f 10/21/15 13/3/15 7/2/15
f 13/3/16 9/16/16 3/1/16
f 5/18/17 8/22/17 11/19/17
f 8/22/18 10/23/18 11/19/18
f 13/3/19 8/24/19 9/16/19
f 8/25/20 13/3/20 10/21/20
f 4/26/21 14/4/21 11/19/21
f 7/2/22 4/7/22 11/19/22
f 14/4/23 1/6/23 12/17/23
f 1/6/24 3/1/24 12/17/24
