# Blender 4.1.1
# www.blender.org
mtllib Tree5_leaves.mtl
o Tree5
v 2.989586 51.360317 1.664999
v -0.192290 50.999889 2.870987
v -2.045809 50.999889 0.411287
v 0.025509 51.435066 -2.182866
v 3.102572 51.583054 -1.540087
v 0.624353 53.812149 0.327387
v 5.229369 48.371830 -1.507551
v 2.136765 49.480743 -2.491083
v 3.454719 47.890305 3.389861
v 5.136095 48.187904 1.138865
v -1.742134 47.408775 3.745858
v 0.827474 47.592705 4.385647
v -2.872465 47.628555 -1.064272
v -3.222984 47.436008 1.370557
v 1.092031 48.171978 -3.987931
v -0.816342 47.941284 -3.045831
v 3.425348 51.871143 0.050534
v 1.488674 51.528366 2.643303
v -1.471046 51.316509 1.906386
v -0.732193 51.529102 -1.526443
v 0.961107 51.720905 -2.168249
v 1.968676 53.181374 1.148209
v 2.035097 53.312290 -0.735685
v 0.098431 52.969521 1.857067
v -0.991032 52.969521 0.411302
v 0.205872 53.181374 -1.191108
v 0.320529 17.738020 0.599430
v 5.778850 22.948128 0.301906
v 1.728511 22.744862 5.712300
v -4.442629 22.619276 4.188731
v -4.206188 22.744862 -2.163302
v 2.111039 22.948128 -4.565438
v 5.104764 31.100822 3.695784
v -1.928120 30.846304 6.109531
v -5.595931 30.846304 1.242187
v -2.273358 31.115402 -4.210875
v 5.362628 31.237785 -3.231770
v 1.188331 19.072886 3.574371
v 3.569044 19.192364 0.394246
v 4.396654 22.135315 3.399508
v 4.621484 22.254807 -2.641575
v 1.413174 19.192364 -2.466687
v -2.438962 18.999067 2.678859
v -1.611395 21.942011 5.684129
v -2.299970 19.072886 -1.054756
v -5.099708 21.942011 1.054987
v -1.247552 22.135315 -4.090597
v 6.064412 26.797659 -1.314640
v 3.713202 26.797659 -4.434798
v 3.579793 26.897217 5.401217
v 5.912869 26.717127 2.757293
v -3.760703 26.703899 5.917621
v -0.133387 26.777740 6.813180
v -5.777628 26.777740 -0.676973
v -5.916581 26.703899 3.056676
v -0.242765 26.717127 -5.411500
v -3.396875 26.897217 -3.857123
v 6.079242 31.976418 0.185904
v 1.430470 31.659119 5.634691
v -4.438565 31.539631 4.185669
v -4.213736 31.659119 -1.855415
v 2.274873 31.976418 -4.862658
v 4.840915 38.832172 2.258963
v -0.704603 41.431606 4.249857
v -3.462094 41.431606 0.590548
v -0.028735 38.832172 -4.203273
v 4.835067 38.373840 -2.834224
v 5.596731 34.704269 -1.401173
v 3.667472 34.704269 -3.961384
v 3.699544 36.074772 4.008481
v 5.512538 35.426811 1.909749
v -2.524216 38.823399 4.438545
v 0.169096 38.216377 5.137254
v -4.074291 38.216377 -0.493903
v -4.145023 38.823399 2.287663
v 0.461602 35.426811 -4.793062
v -2.025083 36.074772 -3.588347
v 5.542629 39.408554 -0.119979
v 1.858914 41.186371 3.863856
v -2.498896 42.168526 2.733340
v -2.384447 41.186371 -1.767267
v 2.758768 38.653755 -4.215561
v -0.938473 44.879707 -3.404578
v -0.529491 41.848148 -3.887598
v 1.652875 45.014004 -4.050276
v 2.222248 41.828274 -4.229916
v 4.022124 44.826820 -3.215961
v 4.395811 42.243732 -3.085742
v 5.217468 45.132534 -1.105170
v 5.430520 42.937996 -0.521476
v -2.940256 45.585297 -0.817724
v -2.743299 43.389133 -1.325650
v -3.342578 45.555714 1.504664
v -3.495040 43.497147 1.069844
v -2.128535 45.793171 3.394344
v -2.378332 43.991596 3.131876
v -0.033082 45.664318 4.260786
v -0.384556 43.553680 4.346077
v 3.086338 45.381115 3.388074
v 2.143065 43.480614 3.780991
v 4.905972 45.071495 1.462647
v 4.963520 41.947990 1.898132
v 5.124320 33.219074 3.272011
v 2.676213 33.863716 5.059424
v -1.097821 35.328751 5.845490
v -3.729364 35.983772 4.544843
v -4.433116 35.723450 -0.975455
v -5.141395 35.647099 1.987494
v 4.293352 32.912727 -3.478573
v 5.684934 33.304192 -0.324567
v 0.975585 33.683125 -4.779088
v -2.663478 33.832195 -4.158391
vn 0.7599 0.5320 0.3734
vn -0.0246 0.4604 0.8874
vn -0.8574 0.4592 0.2324
vn -0.5503 0.4546 -0.7004
vn 0.2690 0.5378 -0.7990
vn 0.0315 0.9199 -0.3908
vn 0.1519 0.6027 -0.7834
vn -0.1394 0.4999 -0.8548
vn -0.4595 0.8580 -0.2298
vn -0.7219 0.5057 -0.4724
vn -0.7982 0.4275 -0.4244
vn -0.4250 0.8466 0.3203
vn -0.6309 0.6132 0.4754
vn -0.4597 0.4592 0.7602
vn 0.0942 0.8580 0.5050
vn 0.2158 0.6198 0.7545
vn 0.5142 0.4884 0.7050
vn 0.3843 0.9199 0.0775
vn 0.6972 0.7130 0.0741
vn 0.7620 0.5922 -0.2619
vn 0.2867 0.2824 -0.9155
vn 0.5535 0.3961 -0.7326
vn -0.1234 0.4492 -0.8849
vn -0.5959 0.3250 -0.7344
vn -0.6856 0.2975 -0.6644
vn -0.8079 0.3911 -0.4409
vn -0.8920 0.3660 0.2654
vn -0.8092 0.2952 0.5079
vn -0.4870 0.3994 0.7767
vn -0.0036 0.4053 0.9142
vn 0.2985 0.3440 0.8903
vn 0.5255 0.4341 0.7317
vn 0.7976 0.4788 0.3668
vn 0.8981 0.4354 0.0619
vn 0.8063 0.5314 -0.2599
vn -0.4505 0.3149 -0.8354
vn -0.9521 0.2836 -0.1146
vn -0.2503 0.3298 0.9103
vn 0.7138 0.3861 0.5843
vn 0.3704 0.2362 -0.8983
vn 0.4075 -0.8717 0.2723
vn 0.8399 -0.4994 -0.2126
vn -0.0876 -0.8991 0.4290
vn -0.4365 -0.8991 -0.0340
vn -0.1494 -0.8717 -0.4667
vn 0.9268 -0.2018 -0.3169
vn 0.6111 -0.2154 0.7617
vn -0.4992 -0.2657 0.8247
vn -0.9178 -0.2415 -0.3151
vn -0.0728 -0.2615 -0.9625
vn 0.9976 -0.0589 0.0360
vn 0.3565 -0.0893 0.9300
vn -0.7928 -0.1205 0.5974
vn -0.7957 -0.0893 -0.5991
vn 0.2404 -0.0672 -0.9683
vn -0.8156 0.2822 0.5052
vn 0.4774 0.0602 -0.8766
vn 0.2399 -0.0136 -0.9707
vn -0.1735 0.1840 -0.9675
vn -0.7471 0.1446 -0.6488
vn -0.7975 0.1124 -0.5928
vn -0.9125 0.2072 -0.3528
vn -0.9258 0.2095 0.3147
vn -0.7944 0.1030 0.5986
vn -0.5577 0.2095 0.8032
vn 0.0876 0.2072 0.9744
vn 0.3500 0.1124 0.9300
vn 0.4802 0.1746 0.8596
vn 0.9498 0.1126 0.2918
vn 0.9992 -0.0136 0.0369
vn 0.9743 0.0602 -0.2173
vn -0.4397 0.0419 -0.8972
vn -0.4438 -0.1570 -0.8823
vn -0.5638 -0.2154 -0.7974
vn -0.9975 0.0615 -0.0359
vn -0.9875 -0.1527 -0.0398
vn -0.9304 -0.2657 0.2525
vn -0.2404 0.0615 0.9687
vn -0.2340 -0.1527 0.9602
vn 0.0499 -0.2415 0.9691
vn 0.7497 -0.0035 0.6618
vn 0.7361 -0.1511 0.6598
vn 0.9065 -0.2526 0.3382
vn 0.7916 -0.1324 -0.5965
vn 0.7962 -0.0776 -0.6000
vn 0.5589 -0.2054 -0.8034
vn -0.0056 -0.4870 -0.8734
vn -0.2568 -0.6345 -0.7290
vn -0.5447 -0.4885 -0.6816
vn -0.7859 -0.5125 -0.3460
vn -0.7299 -0.6823 -0.0407
vn -0.7839 -0.5522 0.2837
vn -0.4888 -0.5522 0.6754
vn -0.1621 -0.6823 0.7128
vn 0.1160 -0.5125 0.8508
vn 0.4359 -0.4994 -0.7487
vn 0.6022 -0.6568 -0.4538
vn 0.3768 -0.8817 -0.2839
vn 0.5051 -0.4885 0.7115
vn 0.6300 -0.6345 0.4478
vn 0.8380 -0.4870 0.2461
vn -0.9562 0.2496 -0.1527
vn 0.5594 0.0756 -0.8255
vn 0.2501 -0.0048 -0.9682
vn 0.0066 0.1716 -0.9851
vn -0.5721 0.2393 -0.7845
vn -0.7644 0.1680 -0.6225
vn -0.8538 0.3049 -0.4220
vn -0.8800 0.3986 0.2585
vn -0.7622 0.2986 0.5744
vn -0.4910 0.3986 0.7746
vn 0.1703 0.3049 0.9370
vn 0.3903 0.1662 0.9056
vn 0.5990 0.2373 0.7648
vn 0.9372 0.1527 0.3135
vn 0.9997 0.0049 0.0244
vn 0.9552 0.0879 -0.2825
vn -0.4133 0.0973 -0.9054
vn -0.9753 0.2095 -0.0705
vn -0.2010 0.2095 0.9569
vn 0.7669 0.0860 0.6359
vn 0.7967 -0.0691 -0.6004
vn 0.8650 -0.0504 -0.4992
vn 0.9953 -0.0188 0.0946
vn 0.5255 0.0426 0.8497
vn 0.3287 0.1727 0.9285
vn -0.2864 0.2550 0.9236
vn -0.0625 0.0381 -0.9973
vn 0.5096 0.0381 -0.8596
vn 0.9446 0.0417 -0.3254
vn -0.7482 -0.0270 -0.6630
vn -0.9334 -0.0083 -0.3586
vn -0.8831 -0.0843 0.4615
vn -0.5915 -0.0350 0.8055
vn 0.1819 -0.0279 0.9829
vn 0.5295 0.0297 0.8478
vn 0.9692 0.0265 0.2447
vn 0.9967 -0.0293 0.0760
vn 0.9819 0.0827 0.1707
vn 0.7655 -0.0447 0.6419
vn 0.6378 0.0145 0.7701
vn 0.3075 -0.1121 0.9449
vn 0.2487 0.0351 0.9680
vn -0.3070 -0.0199 0.9515
vn -0.4501 0.0288 0.8925
vn -0.8440 0.0893 0.5289
vn -0.8612 -0.0021 0.5083
vn -0.9874 0.0321 -0.1548
vn -0.9703 0.0426 -0.2381
vn -0.7452 0.0424 -0.6655
vn -0.7663 0.0328 -0.6417
vn 0.5975 0.1738 -0.7828
vn 0.8979 0.0448 -0.4379
vn 0.4929 0.2387 -0.8367
vn 0.3952 0.0724 -0.9157
vn -0.3354 0.0401 -0.9412
vn -0.1829 0.0757 -0.9802
vn 0.3030 -0.0361 -0.9523
vn -0.2658 0.1413 -0.9536
vn -0.7226 0.2914 -0.6268
vn -0.8304 0.0020 -0.5571
vn -0.1512 -0.0274 -0.9881
vn 0.4530 0.2764 -0.8476
vn -0.5145 0.0796 0.8538
vn 0.1797 0.0674 0.9814
vn 0.6914 0.1635 0.7037
vn 0.9589 0.1665 0.2297
vn 0.8763 0.3414 -0.3398
vn -0.9458 0.0827 -0.3141
vn -0.9087 0.0651 0.4123
vt 0.181819 0.314921
vt 0.272728 0.314921
vt 0.227273 0.393651
vt 0.000000 0.314921
vt 0.090910 0.314921
vt 0.045455 0.393651
vt 0.727273 0.314921
vt 0.818182 0.314921
vt 0.772727 0.393651
vt 0.545455 0.314921
vt 0.636364 0.314921
vt 0.590909 0.393651
vt 0.363637 0.314921
vt 0.454546 0.314921
vt 0.409092 0.393651
vt 0.500000 0.393651
vt 0.454546 0.472382
vt 0.681818 0.393651
vt 0.636364 0.472382
vt 0.863636 0.393651
vt 0.818182 0.472382
vt 0.909091 0.314921
vt 0.136365 0.393651
vt 0.090910 0.472382
vt 0.318182 0.393651
vt 0.272728 0.472382
vt 0.409092 0.236191
vt 0.500000 0.236191
vt 0.590909 0.236191
vt 0.681818 0.236191
vt 0.772727 0.236191
vt 0.863636 0.236191
vt 0.045455 0.236191
vt 0.136365 0.236191
vt 0.227273 0.236191
vt 0.318182 0.236191
vt 0.954545 0.236191
vt 0.181819 0.000000
vt 0.227273 0.078731
vt 0.136365 0.078731
vt 0.272728 0.157461
vt 0.318182 0.078731
vt 0.363637 0.157461
vt 0.909091 0.000000
vt 0.954545 0.078731
vt 0.863636 0.078731
vt 0.727273 0.000000
vt 0.772727 0.078731
vt 0.681818 0.078731
vt 0.545455 0.000000
vt 0.590909 0.078731
vt 0.500000 0.078731
vt 0.090910 0.157461
vt 0.181819 0.157461
vt 0.818182 0.157461
vt 0.909091 0.157461
vt 0.636364 0.157461
vt 0.727273 0.157461
vt 0.454546 0.157461
vt 0.545455 0.157461
vt 0.840790 0.275763
vt 0.749881 0.275763
vt 1.000000 0.157461
vt 0.409092 0.078731
vt 0.363637 0.000000
vt 0.658972 0.275763
vt 0.386245 0.275763
vt 0.295336 0.275763
vt 0.204427 0.275763
vt 0.113518 0.275763
vt 0.479543 0.275763
vt 0.931699 0.275763
vt 0.469697 0.288678
vt 0.560607 0.288678
vt 0.378788 0.288678
vt 0.287879 0.288678
vt 0.651515 0.288678
vt 0.742424 0.288678
vt 0.833333 0.288678
vt 0.924242 0.288678
vt 0.106061 0.288678
vt 0.196970 0.288678
vt 0.212122 0.262434
vt 0.303031 0.262434
vt 0.121213 0.262434
vt 0.939394 0.262434
vt 0.848485 0.262434
vt 0.757576 0.262434
vt 0.666667 0.262434
vt 0.575758 0.262434
vt 0.393940 0.262434
vt 0.484849 0.262434
vt 0.477154 0.275763
vt 0.568063 0.275763
s 0
f 1/1/1 17/2/1 22/3/1
f 2/4/2 18/5/2 24/6/2
f 3/7/3 19/8/3 25/9/3
f 4/10/4 20/11/4 26/12/4
f 5/13/5 21/14/5 23/15/5
f 23/15/6 26/16/6 6/17/6
f 23/15/7 21/14/7 26/16/7
f 21/14/8 4/10/8 26/16/8
f 26/12/9 25/18/9 6/19/9
f 26/12/10 20/11/10 25/18/10
f 20/11/11 3/7/11 25/18/11
f 25/9/12 24/20/12 6/21/12
f 25/9/13 19/8/13 24/20/13
f 19/8/14 2/22/14 24/20/14
f 24/6/15 22/23/15 6/24/15
f 24/6/16 18/5/16 22/23/16
f 18/5/17 1/1/17 22/23/17
f 22/3/18 23/25/18 6/26/18
f 22/3/19 17/2/19 23/25/19
f 17/2/20 5/13/20 23/25/20
f 8/27/21 21/14/21 5/13/21
f 8/27/22 15/28/22 21/14/22
f 15/28/23 4/10/23 21/14/23
f 16/29/24 20/11/24 4/10/24
f 16/29/25 13/30/25 20/11/25
f 13/30/26 3/7/26 20/11/26
f 14/31/27 19/8/27 3/7/27
f 14/31/28 11/32/28 19/8/28
f 11/32/29 2/22/29 19/8/29
f 12/33/30 18/5/30 2/4/30
f 12/33/31 9/34/31 18/5/31
f 9/34/32 1/1/32 18/5/32
f 10/35/33 17/2/33 1/1/33
f 10/35/34 7/36/34 17/2/34
f 7/36/35 5/13/35 17/2/35
f 15/28/36 16/29/36 4/10/36
f 13/30/37 14/31/37 3/7/37
f 11/32/38 12/37/38 2/22/38
f 9/34/39 10/35/39 1/1/39
f 7/36/40 8/27/40 5/13/40
f 27/38/41 39/39/41 38/40/41
f 28/41/42 39/42/42 41/43/42
f 27/44/43 38/45/43 43/46/43
f 27/47/44 43/48/44 45/49/44
f 27/50/45 45/51/45 42/52/45
f 28/41/46 41/43/46 48/36/46
f 29/53/47 40/54/47 50/34/47
f 30/55/48 44/56/48 52/32/48
f 31/57/49 46/58/49 54/30/49
f 32/59/50 47/60/50 56/28/50
f 28/41/51 48/36/51 51/35/51
f 29/53/52 50/34/52 53/33/52
f 30/55/53 52/32/53 55/31/53
f 31/57/54 54/30/54 57/29/54
f 32/59/55 56/28/55 49/27/55
f 106/61/56 72/32/56 75/31/56 108/62/56
f 49/27/57 62/14/57 37/13/57
f 49/27/58 56/28/58 62/14/58
f 56/28/59 36/10/59 62/14/59
f 57/29/60 61/11/60 36/10/60
f 57/29/61 54/30/61 61/11/61
f 54/30/62 35/7/62 61/11/62
f 55/31/63 60/8/63 35/7/63
f 55/31/64 52/32/64 60/8/64
f 52/32/65 34/22/65 60/8/65
f 53/33/66 59/5/66 34/4/66
f 53/33/67 50/34/67 59/5/67
f 50/34/68 33/1/68 59/5/68
f 51/35/69 58/2/69 33/1/69
f 51/35/70 48/36/70 58/2/70
f 48/36/71 37/13/71 58/2/71
f 56/28/72 57/29/72 36/10/72
f 56/28/73 47/60/73 57/29/73
f 47/60/74 31/57/74 57/29/74
f 54/30/75 55/31/75 35/7/75
f 54/30/76 46/58/76 55/31/76
f 46/58/77 30/55/77 55/31/77
f 52/32/78 53/37/78 34/22/78
f 52/32/79 44/56/79 53/37/79
f 44/56/80 29/63/80 53/37/80
f 50/34/81 51/35/81 33/1/81
f 50/34/82 40/54/82 51/35/82
f 40/54/83 28/41/83 51/35/83
f 48/36/84 49/27/84 37/13/84
f 48/36/85 41/43/85 49/27/85
f 41/43/86 32/59/86 49/27/86
f 42/52/87 47/60/87 32/59/87
f 42/52/88 45/51/88 47/60/88
f 45/51/89 31/57/89 47/60/89
f 45/49/90 46/58/90 31/57/90
f 45/49/91 43/48/91 46/58/91
f 43/48/92 30/55/92 46/58/92
f 43/46/93 44/56/93 30/55/93
f 43/46/94 38/45/94 44/56/94
f 38/45/95 29/63/95 44/56/95
f 41/43/96 42/64/96 32/59/96
f 41/43/97 39/42/97 42/64/97
f 39/42/98 27/65/98 42/64/98
f 38/40/99 40/54/99 29/53/99
f 38/40/100 39/39/100 40/54/100
f 39/39/101 28/41/101 40/54/101
f 108/62/102 75/31/102 74/30/102 107/66/102
f 69/27/103 82/14/103 67/13/103
f 69/27/104 76/28/104 82/14/104
f 76/28/105 66/10/105 82/14/105
f 77/29/106 81/11/106 66/10/106
f 77/29/107 74/30/107 81/11/107
f 74/30/108 65/7/108 81/11/108
f 75/31/109 80/8/109 65/7/109
f 75/31/110 72/32/110 80/8/110
f 72/32/111 64/22/111 80/8/111
f 73/33/112 79/5/112 64/4/112
f 73/33/113 70/34/113 79/5/113
f 70/34/114 63/1/114 79/5/114
f 71/35/115 78/2/115 63/1/115
f 71/35/116 68/36/116 78/2/116
f 68/36/117 67/13/117 78/2/117
f 76/28/118 77/29/118 66/10/118
f 74/30/119 75/31/119 65/7/119
f 72/32/120 73/37/120 64/22/120
f 70/34/121 71/35/121 63/1/121
f 68/36/122 69/27/122 67/13/122
f 109/67/123 69/27/123 68/36/123 110/68/123
f 110/68/124 68/36/124 71/35/124 103/69/124
f 103/69/125 104/70/125 59/5/125 33/1/125
f 104/70/126 70/34/126 73/33/126 105/71/126
f 105/72/127 73/37/127 72/32/127 106/61/127
f 86/73/128 82/14/128 66/10/128 84/74/128
f 88/75/129 67/13/129 82/14/129 86/73/129
f 90/76/130 78/2/130 67/13/130 88/75/130
f 84/74/131 66/10/131 81/11/131 92/77/131
f 92/77/132 81/11/132 65/7/132 94/78/132
f 94/78/133 65/7/133 80/8/133 96/79/133
f 96/79/134 80/8/134 64/22/134 98/80/134
f 98/80/135 64/22/135 79/5/135 100/81/135
f 100/81/136 79/5/136 63/1/136 102/82/136
f 102/82/137 63/1/137 78/2/137 90/76/137
f 10/35/138 101/83/138 89/84/138 7/36/138
f 101/83/139 102/82/139 90/76/139 89/84/139
f 9/34/140 99/85/140 101/83/140 10/35/140
f 99/85/141 100/81/141 102/82/141 101/83/141
f 12/37/142 97/86/142 99/85/142 9/34/142
f 97/86/143 98/80/143 100/81/143 99/85/143
f 11/32/144 95/87/144 97/86/144 12/37/144
f 95/87/145 96/79/145 98/80/145 97/86/145
f 14/31/146 93/88/146 95/87/146 11/32/146
f 93/88/147 94/78/147 96/79/147 95/87/147
f 13/30/148 91/89/148 93/88/148 14/31/148
f 91/89/149 92/77/149 94/78/149 93/88/149
f 16/29/150 83/90/150 91/89/150 13/30/150
f 83/90/151 84/74/151 92/77/151 91/89/151
f 7/36/152 89/84/152 87/91/152 8/27/152
f 89/84/153 90/76/153 88/75/153 87/91/153
f 8/27/154 87/91/154 85/92/154 15/28/154
f 87/91/155 88/75/155 86/73/155 85/92/155
f 15/28/156 85/92/156 83/90/156 16/29/156
f 85/92/157 86/73/157 84/74/157 83/90/157
f 111/93/158 76/28/158 69/27/158 109/67/158
f 112/94/159 77/29/159 76/28/159 111/93/159
f 107/66/160 74/30/160 77/29/160 112/94/160
f 61/11/161 107/66/161 112/94/161 36/10/161
f 36/10/162 112/94/162 111/93/162 62/14/162
f 62/14/163 111/93/163 109/67/163 37/13/163
f 34/22/164 105/72/164 106/61/164 60/8/164
f 59/5/165 104/70/165 105/71/165 34/22/165
f 71/35/166 70/34/166 104/70/166 103/69/166
f 58/2/167 110/68/167 103/69/167 33/1/167
f 37/13/168 109/67/168 110/68/168 58/2/168
f 35/7/169 108/62/169 107/66/169 61/11/169
f 60/8/170 106/61/170 108/62/170 35/7/170
