# Blender 4.1.1
# www.blender.org
mtllib Tree5_stem.mtl
o Tree5.001
v -0.166918 -0.521915 -1.667199
v -2.283961 -0.487837 -0.071892
v 2.117723 -0.522460 1.294162
v 0.000680 -0.488380 2.889470
v 0.925977 5.329298 1.724478
v -0.022468 7.023506 -0.686093
v 0.012079 5.340646 1.978253
v 0.709606 17.209923 0.824867
v -0.266040 16.802052 1.796916
v -1.585939 18.133383 0.284012
v -0.561181 18.511631 1.459041
v -1.213299 17.987886 2.361691
v -2.005040 18.635489 1.379391
v -1.334020 18.881264 2.137218
v -2.316036 20.145119 4.164374
v -2.689669 20.635216 3.357138
v -2.164729 20.675688 3.915402
v 0.943283 14.493528 0.913497
v -0.161356 13.992355 1.666343
v -1.284339 13.603642 0.308051
v 1.500946 17.508654 -0.427807
v 1.017127 17.137428 -1.135854
v 1.693009 16.859945 -0.358094
v -0.259017 8.290812 1.739631
v 0.870626 8.291716 1.299316
v -1.494871 7.168904 0.049611
v 1.368546 -0.528515 -0.482774
v -1.568647 -0.481235 1.730562
v 0.877799 6.950332 0.266165
v -1.133259 7.072851 1.222013
v -1.338825 16.198210 0.568032
v -1.906684 17.731606 1.562046
v -2.858401 20.070913 3.556577
v -0.011507 13.704550 -0.391831
v -0.993912 13.752758 1.097611
v 1.196510 16.510921 -1.091254
v 1.596770 -0.507056 2.593827
v 0.635905 5.334540 2.016918
v -1.661420 -0.504876 -1.448110
v -0.439267 16.556946 -0.534356
v -0.844043 13.584980 -0.320642
v -0.976145 7.148321 -0.684353
v -0.537623 20.021614 1.177539
v -1.297411 20.038492 0.762585
v -1.699323 19.652140 0.026259
v -2.528683 21.688730 4.689863
v -2.903983 21.427826 4.100879
v -3.095324 21.003439 4.186452
v -2.658599 21.277889 4.936859
v -1.089233 19.683270 -0.828765
v -1.671253 19.898563 -0.692492
v -0.788100 20.536089 -0.876629
v -0.028715 19.592752 0.341380
v -0.378650 20.204342 -0.581508
v 2.174554 18.533657 -1.889529
v 2.526111 19.063229 -1.317252
v 2.083092 19.285353 -2.000562
v 2.219981 19.173571 -1.402235
v 0.453623 15.845246 1.492976
v -0.839073 2.822270 2.016509
v 0.578763 3.292490 -0.709142
v 1.508902 2.420268 1.929959
v -1.666245 3.351280 -0.627274
v -1.440513 18.986612 -0.486822
v -1.057369 15.246473 -0.046299
v -0.698253 15.542627 1.404263
v 0.369920 15.974933 -0.865375
v -0.315718 19.205925 -0.351480
v -0.051927 19.011694 0.995147
v 0.126576 17.489702 1.582847
v -1.403029 18.528368 1.185996
v -1.262113 16.897585 -0.036986
v -1.668878 19.406750 3.245042
v -0.706505 17.969479 1.975892
v -1.134501 16.955269 1.501459
v -1.805480 17.490170 0.693394
v -2.599112 21.377157 4.126332
v -2.101267 18.841980 2.942941
v -2.060446 19.805756 2.655636
v -2.492532 19.240019 2.353158
v -3.054450 20.966795 3.873755
v -2.416870 21.150677 4.703127
v -2.897637 20.791410 4.476176
v 2.017815 17.732553 -1.284506
v 0.253741 9.501776 -0.283739
v -0.693998 11.068192 1.504221
v -1.178470 10.760588 -0.179561
v 0.396454 11.185696 1.553343
v 1.657041 17.875891 -1.750331
v 1.345485 16.525703 0.379381
v 0.758809 16.941319 -0.316932
v 1.737505 18.430025 -1.358280
v 2.098280 18.286688 -0.892451
v -0.663172 6.681437 1.692823
v 0.388072 6.458507 1.717136
v 1.099758 6.666195 1.070800
v 0.970624 15.537053 -0.191993
v -1.265918 10.821813 0.643783
v 0.741144 11.030657 0.567499
v -1.251182 14.963058 0.671868
v 1.502623 2.790586 0.658747
v -1.723686 3.357965 0.676791
v 0.504237 2.434743 2.484401
v -0.508391 10.730522 -0.541401
v -0.512889 14.956232 -0.497790
v -0.693388 3.338320 -1.212583
v 2.476870 19.563856 -1.899177
v -2.625883 21.706726 5.181040
v 0.074531 20.235184 0.189873
v -1.807631 20.069035 -0.044670
v -0.616916 20.621443 -1.077386
v -1.013965 20.146612 1.133889
v 2.476151 20.024067 -1.434893
v -1.303206 20.391607 -1.063043
v -1.260828 19.449747 0.756466
vn -0.0640 -0.0487 0.9968
vn 0.7513 0.0860 0.6543
vn 0.6821 0.0960 0.7249
vn 0.4784 0.1639 0.8627
vn 0.9793 0.1956 0.0521
vn -0.4445 0.0950 0.8907
vn -0.5098 0.1305 -0.8503
vn -0.9937 0.1031 -0.0443
vn 0.7273 0.0847 -0.6811
vn 0.8225 0.0531 -0.5663
vn -0.6286 0.0297 -0.7772
vn -0.8154 0.0855 0.5726
vn -0.2868 0.1485 0.9464
vn -0.8123 0.0883 -0.5765
vn 0.1318 -0.0657 -0.9891
vn -0.9539 -0.2704 -0.1300
vn -0.9860 -0.0465 0.1598
vn -0.8179 0.0391 -0.5740
vn -0.0866 0.0102 -0.9962
vn -0.7570 -0.0902 -0.6471
vn -0.8537 -0.1807 -0.4885
vn -0.5675 0.0179 0.8232
vn -0.9525 0.0597 0.2987
vn -0.6636 -0.2534 0.7038
vn 0.5298 -0.4127 -0.7410
vn -0.3732 -0.1718 -0.9117
vn 0.6530 0.2992 -0.6957
vn 0.8994 -0.1199 -0.4204
vn 0.6720 0.3340 0.6609
vn -0.1259 0.1837 0.9749
vn 0.9435 -0.3272 -0.0527
vn 0.2208 0.9080 0.3560
vn -0.7561 0.3688 0.5407
vn -0.8361 0.0276 0.5478
vn 0.3194 0.7813 -0.5362
vn 0.8817 0.2235 0.4155
vn 0.8770 -0.0250 0.4798
vn 0.5219 0.8422 0.1357
vn -0.2989 0.6174 -0.7277
vn 0.5276 0.2515 0.8114
vn -0.4349 -0.6767 0.5940
vn -0.1734 0.6486 -0.7411
vn 0.5135 0.6736 -0.5316
vn 0.1882 -0.5714 0.7988
vn -0.5274 -0.6478 0.5497
vn -0.5431 0.5863 0.6010
vn -0.4973 0.5709 -0.6533
vn 0.9011 0.4164 -0.1212
vn 0.0254 -0.5580 0.8295
vn -0.8038 0.0154 0.5947
vn 0.7992 -0.5260 -0.2909
vn -0.9277 0.0635 0.3679
vn -0.0061 0.0801 0.9968
vn -0.5421 0.0323 0.8397
vn -0.0465 0.0136 0.9988
vn -0.8872 0.1066 -0.4489
vn -0.9934 0.0369 -0.1083
vn -0.4722 0.0594 -0.8795
vn 0.9927 0.0954 0.0733
vn 0.9444 0.0094 0.3287
vn -0.8994 0.3319 -0.2844
vn 0.3630 0.0316 0.9313
vn 0.9104 -0.3173 -0.2656
vn 0.0967 -0.1339 -0.9863
vn 0.6245 0.2639 0.7351
vn 0.9427 -0.2728 0.1921
vn -0.1432 0.3232 0.9354
vn -0.7556 0.6277 0.1872
vn -0.2912 -0.0913 -0.9523
vn -0.8670 0.4150 0.2759
vn -0.9596 -0.1522 -0.2367
vn 0.6989 0.1888 0.6899
vn -0.6998 0.5090 -0.5011
vn 0.0063 -0.4259 0.9048
vn 0.6480 0.1200 0.7521
vn 0.9171 0.0960 -0.3870
vn 0.8364 -0.1322 -0.5319
vn -0.9386 0.0010 0.3451
vn 0.5620 0.0038 0.8271
vn 0.1823 0.1041 0.9777
vn -0.7374 -0.2018 -0.6446
vn -0.7976 -0.5071 0.3266
vn 0.9937 0.0717 -0.0862
vn -0.9660 0.0056 -0.2585
vn -0.0595 0.1615 0.9851
vn -0.1433 0.0965 -0.9850
vn 0.4090 -0.1945 -0.8916
vn 0.0100 0.0902 -0.9959
vn 0.2667 0.1333 0.9545
vn 0.8791 0.1953 0.4348
vn 0.9527 0.2651 -0.1484
vn 0.9033 -0.0283 0.4280
vn -0.4638 -0.2893 0.8374
vn -0.8536 -0.0899 0.5131
vn 0.3205 -0.3774 -0.8688
vn -0.8328 -0.5140 0.2055
vn -0.9312 -0.3345 0.1450
vn -0.3294 -0.3305 -0.8845
vn 0.8418 0.1082 -0.5288
vn 0.3691 0.1129 -0.9225
vn 0.6091 0.0791 -0.7892
vn -0.9073 0.0865 -0.4115
vn -0.5927 0.0614 0.8030
vn 0.9229 0.1113 0.3686
vn 0.3775 0.0401 -0.9252
vn 0.5861 -0.5265 -0.6159
vn 0.8180 0.5489 -0.1718
vn 0.0103 0.9999 -0.0077
vt 0.646336 0.026504
vt 0.458271 0.024572
vt 0.331612 0.016927
vt 0.484054 0.014375
vt 0.744523 0.039776
vt 0.772484 0.068602
vt 0.747725 0.043267
vt 0.577680 0.024152
vt 0.605673 0.014834
vt 0.528384 0.015099
vt 0.630671 0.022731
vt 0.682710 0.023899
vt 0.783450 0.030930
vt 0.676442 0.018223
vt 0.742433 0.031313
vt 0.475217 0.009801
vt 0.312754 0.012781
vt 0.219425 0.017570
vt 0.312074 0.016692
vt 0.997764 0.032970
vt 0.965872 0.036883
vt 1.025156 0.037667
vt 1.058740 0.032508
vt 0.162321 0.024889
vt 0.093552 0.027296
vt 0.058740 0.032508
vt 0.125084 0.031751
vt 0.912936 0.035652
vt 0.878826 0.034665
vt 0.820058 0.031110
vt 0.879652 0.036493
vt 0.893452 0.041558
vt 0.793957 0.030819
vt 0.931037 0.048289
vt 0.942982 0.041963
vt 0.991003 0.033932
vt 1.037745 0.031543
vt 0.247921 0.022679
vt 0.431613 0.017553
vt 1.093552 0.027296
vt 1.043703 0.029633
vt 1.048314 0.059025
vt 0.990675 0.070970
vt 0.909204 0.054581
vt 0.048314 0.059025
vt 0.122662 0.058007
vt 0.124005 0.065525
vt 0.056375 0.075168
vt 0.141639 0.044622
vt 0.199458 0.034980
vt 1.108378 0.027321
vt 0.950271 0.035008
vt 1.158356 0.030273
vt 1.067053 0.037448
vt 0.067053 0.037448
vt 0.158356 0.030273
vt 0.199334 0.049534
vt 0.231049 0.018289
vt 0.311895 0.013793
vt 0.148752 0.022112
vt 0.303357 0.034842
vt 0.838261 0.096713
vt 0.817309 0.063733
vt 0.871184 0.068675
vt 0.845069 0.098339
vt 0.837763 0.138076
vt 0.829247 0.068354
vt 0.915883 0.069385
vt 0.836282 0.049328
vt 0.837867 0.036733
vt 0.393121 0.021418
vt 0.706683 0.017121
vt 0.394457 0.013589
vt 0.798693 0.095968
vt 0.805273 0.097055
vt 0.260665 0.043424
vt 0.264042 0.071463
vt 0.328300 0.117307
vt 0.340482 0.068266
vt 0.359152 0.118885
vt 0.355433 0.065641
vt 0.387355 0.040786
vt 0.355922 0.173053
vt 0.361001 0.211991
vt 0.354942 0.174789
vt 0.329538 0.171120
vt 0.303292 0.116942
vt 0.334005 0.115371
vt 0.276828 0.065560
vt 0.339996 0.213950
vt 0.347919 0.205263
vt 0.331948 0.202270
vt 0.345634 0.209947
vt 0.329092 0.171626
vt 0.814892 0.162017
vt 0.826018 0.136697
vt 0.805086 0.134154
vt 0.358457 0.226379
vt 0.358087 0.226518
vt 0.164937 0.025591
vt 0.818171 0.134497
vt 0.622916 0.010738
vt 0.416074 0.009314
vt 0.644251 0.015734
vt 0.108378 0.027321
vt 0.043703 0.029633
vt 0.751877 0.025748
vt 0.722720 0.021991
vt 0.830734 0.175054
vt 0.827311 0.163444
vt 0.820240 0.187874
vt 0.807004 0.167411
vt 0.809662 0.184577
vt 0.842730 0.037055
vt 1.141639 0.044622
vt 0.037745 0.031543
vt 0.934106 0.040341
vt 1.002126 0.086972
vt 0.956621 0.080153
vt 0.362161 0.241915
vt 0.204651 0.038774
vt 0.280888 0.031680
vt 0.937997 0.091825
vt 0.336719 0.212066
vt 1.056375 0.075168
vt 0.025156 0.037667
s 0
usemtl Material.001
f 59/1/1 9/2/1 66/3/1 19/4/1
f 59/1/2 18/5/2 90/6/2 8/7/2
f 8/7/3 70/8/3 9/2/3 59/1/3
f 38/9/4 103/10/4 37/11/4 62/12/4
f 101/13/5 5/14/5 62/12/5 3/15/5
f 7/16/6 94/17/6 30/18/6 60/19/6
f 42/20/7 106/21/7 39/22/7 63/23/7
f 102/24/8 26/25/8 63/26/8 2/27/8
f 6/28/9 85/29/9 29/30/9 61/31/9
f 34/32/10 99/33/10 29/30/10 85/29/10
f 40/34/11 105/35/11 41/36/11 65/37/11
f 30/18/12 102/24/12 28/38/12 60/19/12
f 7/16/13 60/19/13 4/39/13 103/10/13
f 63/23/14 26/40/14 87/41/14 42/20/14
f 64/42/15 50/43/15 68/44/15 40/34/15
f 64/45/16 45/46/16 110/47/16 51/48/16
f 64/45/17 10/49/17 115/50/17 45/46/17
f 41/36/18 87/41/18 20/51/18 65/37/18
f 104/52/19 41/36/19 105/35/19 34/32/19
f 31/53/20 72/54/20 40/34/20 65/37/20
f 72/55/21 31/56/21 76/57/21 10/49/21
f 35/58/22 86/59/22 19/4/22 66/3/22
f 26/25/23 102/24/23 30/18/23 98/60/23
f 9/2/24 75/61/24 31/56/24 66/3/24
f 36/62/25 97/63/25 34/32/25 67/64/25
f 67/64/26 22/65/26 89/66/26 36/62/26
f 68/44/27 8/7/27 91/67/27 40/34/27
f 54/68/28 109/69/28 53/70/28 68/44/28
f 11/71/29 70/8/29 8/7/29 69/72/29
f 43/73/30 115/50/30 11/71/30 69/72/30
f 23/74/31 90/6/31 18/5/31 97/63/31
f 90/6/32 21/75/32 91/67/32 8/7/32
f 71/76/33 11/71/33 115/50/33 10/49/33
f 35/58/34 98/60/34 30/18/34 86/59/34
f 13/77/35 79/78/35 14/79/35 71/76/35
f 73/80/36 12/81/36 74/82/36 14/79/36
f 17/83/37 82/84/37 15/85/37 73/80/37
f 71/76/38 14/79/38 74/82/38 11/71/38
f 16/86/39 79/78/39 13/77/39 80/87/39
f 11/71/40 74/82/40 9/2/40 70/8/40
f 12/81/41 78/88/41 32/89/41 75/61/41
f 47/90/42 77/91/42 16/86/42 81/92/42
f 77/91/43 17/83/43 79/78/43 16/86/43
f 73/80/44 15/85/44 78/88/44 12/81/44
f 15/85/45 83/93/45 33/94/45 78/88/45
f 58/95/46 92/96/46 21/75/46 93/97/46
f 22/65/47 67/64/47 40/34/47 91/67/47
f 77/91/48 46/98/48 82/84/48 17/83/48
f 82/84/49 49/99/49 83/93/49 15/85/49
f 31/56/50 100/100/50 35/58/50 66/3/50
f 23/74/51 97/63/51 36/62/51 84/101/51
f 2/27/52 28/38/52 102/24/52
f 7/16/53 95/102/53 24/103/53 94/17/53
f 30/18/54 94/17/54 24/103/54 86/59/54
f 88/104/55 19/4/55 86/59/55 24/103/55
f 80/87/56 33/94/56 81/92/56 16/86/56
f 20/105/57 87/106/57 26/25/57 98/60/57
f 41/36/58 104/52/58 42/20/58 87/41/58
f 96/107/59 5/14/59 101/13/59 29/30/59
f 18/5/60 88/104/60 25/108/60 99/33/60
f 57/109/61 89/66/61 22/65/61 92/96/61
f 95/102/62 25/108/62 88/104/62 24/103/62
f 84/101/63 55/110/63 107/111/63 56/112/63
f 89/66/64 57/109/64 107/111/64 55/110/64
f 90/6/65 23/74/65 93/97/65 21/75/65
f 84/101/66 56/112/66 93/97/66 23/74/66
f 93/97/67 56/112/67 113/113/67 58/95/67
f 91/67/68 21/75/68 92/96/68 22/65/68
f 34/32/69 105/35/69 40/34/69 67/64/69
f 92/96/70 58/95/70 113/113/70 57/109/70
f 76/57/71 32/89/71 80/87/71 13/77/71
f 38/9/72 62/12/72 5/14/72
f 13/77/73 71/76/73 10/49/73 76/57/73
f 74/82/74 12/81/74 75/61/74 9/2/74
f 95/102/75 5/14/75 96/107/75 25/108/75
f 3/15/76 27/114/76 101/13/76
f 18/5/77 99/33/77 34/32/77 97/63/77
f 98/60/78 35/58/78 100/100/78 20/105/78
f 19/4/79 88/104/79 18/5/79 59/1/79
f 4/39/80 37/11/80 103/10/80
f 40/34/81 72/54/81 10/115/81 64/42/81
f 32/89/82 76/57/82 31/56/82 75/61/82
f 96/107/83 29/30/83 99/33/83 25/108/83
f 65/116/84 20/105/84 100/100/84 31/56/84
f 7/16/85 103/10/85 38/9/85
f 1/117/86 39/22/86 106/21/86
f 68/44/87 50/43/87 114/118/87 52/119/87
f 6/28/88 106/21/88 42/20/88 104/52/88
f 7/16/89 5/14/89 95/102/89
f 69/72/90 53/70/90 109/69/90 43/73/90
f 68/44/91 53/70/91 69/72/91 8/7/91
f 82/84/92 46/98/92 108/120/92 49/99/92
f 44/121/93 115/50/93 43/73/93 112/122/93
f 110/47/94 45/46/94 115/50/94 44/121/94
f 68/44/95 52/119/95 111/123/95 54/68/95
f 33/94/96 80/87/96 32/89/96 78/88/96
f 81/92/97 33/94/97 83/93/97 48/124/97
f 51/125/98 114/118/98 50/43/98 64/42/98
f 29/30/99 101/13/99 27/114/99 61/31/99
f 6/28/100 61/31/100 1/117/100 106/21/100
f 27/114/101 1/117/101 61/31/101
f 39/126/102 2/27/102 63/26/102
f 28/38/103 4/39/103 60/19/103
f 37/11/104 3/15/104 62/12/104
f 104/52/105 34/32/105 85/29/105 6/28/105
f 89/66/106 55/110/106 84/101/106 36/62/106
f 17/83/107 73/80/107 14/79/107 79/78/107
f 38/9/108 5/14/108 7/16/108
