# Blender 4.1.1
# www.blender.org
mtllib Tree5.leaves_lowpoly1.mtl
o Tree5.leaves_lowpoly1
v 2.619020 52.932365 -0.934455
v 0.962278 53.694378 1.641574
v 5.231496 48.337265 -1.299593
v 4.285297 44.304234 -3.091592
v 4.566721 47.846863 2.639789
v -1.060463 47.555302 4.261967
v -3.478632 47.553040 0.629185
v 0.368001 48.243912 -4.003470
v -1.323802 52.647957 0.868212
v 0.272959 52.887157 -1.627943
v -5.076723 21.989313 2.891035
v -2.879193 21.901588 -3.381938
v 2.956089 23.764442 -4.619277
v 4.483834 34.156441 4.087982
v -6.112967 27.452578 0.570042
v 4.571301 32.375290 -3.530066
v 0.759162 17.757818 2.044412
v 3.569044 19.192364 0.394246
v 1.413174 19.192364 -2.466687
v -2.438962 18.999067 2.678859
v -1.611395 21.942011 5.684129
v -2.299970 19.072886 -1.054756
v 5.679596 22.652126 -1.357644
v 2.444289 24.257544 6.029740
v 5.645829 23.713947 2.847844
v -3.760703 26.703899 5.917621
v -1.166987 27.610586 6.798344
v -5.916581 26.703899 3.056676
v -0.242765 26.717127 -5.411500
v -2.789664 31.354889 -4.325773
v -3.422795 36.490494 4.657764
v -4.442877 36.258533 -0.719825
v 5.191698 39.072701 1.759836
v 0.603921 34.857815 -4.750159
v 2.580800 38.715408 -4.262575
v 5.862482 33.027508 -0.504552
v -3.542568 41.394737 0.130306
v -2.438337 42.098499 2.860934
v -0.014453 41.815495 4.449782
v -0.734340 35.452229 5.914836
v -4.779628 37.020237 2.332207
vn 0.0554 0.9666 -0.2503
vn -0.3696 0.9172 -0.1485
vn 0.9847 0.0508 0.1665
vn 0.2670 0.2820 -0.9215
vn 0.5594 0.3866 -0.7332
vn -0.7580 0.2847 -0.5869
vn -0.8009 0.3611 -0.4777
vn -0.7915 0.3100 0.5267
vn -0.4688 0.4729 0.7460
vn 0.2485 0.3098 0.9177
vn 0.7738 0.5349 0.3394
vn 0.8580 0.4716 0.2035
vn 0.3953 0.2939 -0.8702
vn -0.3672 -0.9296 -0.0320
vn -0.0888 -0.9454 -0.3135
vn -0.5998 -0.3070 0.7389
vn -0.9007 -0.3031 -0.3113
vn -0.0877 -0.3457 -0.9342
vn -0.7882 -0.1613 0.5939
vn -0.8069 -0.0511 -0.5885
vn 0.3265 0.0581 -0.9434
vn 0.2821 0.0485 -0.9582
vn -0.2267 0.1023 -0.9686
vn -0.8552 0.0874 -0.5109
vn -0.9644 0.2223 0.1431
vn -0.7943 0.1045 0.5985
vn -0.3596 0.1313 0.9238
vn 0.3124 0.1205 0.9423
vn 0.9600 0.0748 0.2698
vn 0.9997 -0.0187 0.0127
vn 0.9183 0.0163 -0.3954
vn -0.5114 -0.0806 -0.8555
vn -0.9841 -0.1762 0.0247
vn -0.2646 -0.1660 0.9500
vn 0.0277 -0.1949 0.9804
vn 0.7044 -0.0059 0.7098
vn 0.7562 -0.0594 -0.6517
vn -0.0630 -0.4076 -0.9110
vn -0.2534 -0.6450 -0.7209
vn -0.8589 -0.4186 -0.2950
vn -0.7507 -0.6593 -0.0410
vn -0.5393 -0.5226 0.6603
vn -0.1270 -0.6910 0.7116
vn 0.2475 -0.5523 0.7961
vn 0.5737 -0.4993 -0.6493
vn 0.6261 -0.6208 -0.4718
vn 0.3236 -0.9143 -0.2438
vn 0.5476 -0.5360 0.6426
vn 0.6122 -0.5754 0.5422
vn 0.8739 -0.4695 0.1256
vn 0.4645 0.0436 -0.8845
vn 0.2809 -0.0227 -0.9595
vn -0.4487 0.3342 -0.8289
vn -0.7229 0.2343 -0.6500
vn -0.8869 0.3818 0.2602
vn -0.7893 0.3086 0.5308
vn -0.4867 0.3429 0.8035
vn 0.3629 0.1699 0.9162
vn 0.5553 0.2893 0.7797
vn -0.9683 0.1955 -0.1556
vn -0.3305 0.2471 0.9109
vn 0.9163 0.0366 -0.3989
vn 0.9577 -0.0016 0.2879
vn 0.2722 0.0810 0.9588
vn 0.3198 0.0999 -0.9422
vn -0.3805 0.1242 0.9164
vn 0.3482 0.0860 0.9335
vn -0.8608 0.0264 0.5082
vn -0.8759 0.0300 0.4815
vn 0.4334 -0.0593 0.8993
vn -0.5527 -0.0736 0.8301
vn -0.7544 0.0351 -0.6555
vn 0.8740 0.0108 -0.4858
vn 0.1318 0.0575 -0.9896
vn -0.9754 0.1633 -0.1484
vt 0.396419 0.371702
vt 0.507242 0.361400
vt 0.454546 0.472382
vt 0.591108 0.374596
vt 0.715607 0.367488
vt 0.636364 0.472382
vt 0.289074 0.286609
vt 0.317846 0.236773
vt 0.190523 0.238204
vt 0.195452 0.291308
vt 0.390856 0.267775
vt 0.320813 0.361893
vt 0.522704 0.238743
vt 0.745269 0.239783
vt 0.896658 0.239720
vt 0.849085 0.418856
vt 0.045455 0.236191
vt 0.088260 0.399635
vt 0.727273 0.000000
vt 0.772727 0.078731
vt 0.681818 0.078731
vt 0.545455 0.000000
vt 0.590909 0.078731
vt 0.500000 0.078731
vt 0.779982 0.157461
vt 0.909091 0.157461
vt 0.863636 0.236191
vt 0.589379 0.157461
vt 0.694670 0.258451
vt 0.441602 0.179881
vt 0.500000 0.236191
vt 0.772727 0.236191
vt 0.573328 0.266643
vt 0.493805 0.276137
vt 0.379268 0.287847
vt 0.665848 0.263853
vt 0.845280 0.267986
vt 0.941703 0.258435
vt 0.032613 0.258435
vt 0.106596 0.184631
vt 0.157558 0.282401
vt 0.202003 0.192421
vt 0.320334 0.169405
vt 1.000000 0.157461
vt 0.863636 0.078731
vt 0.928191 0.033083
vt 0.409092 0.078731
vt 0.318182 0.078731
vt 0.363637 0.000000
vt 0.162719 0.033083
vt 0.227273 0.078731
vt 0.455020 0.314100
vt 0.711756 0.313876
vt 0.759494 0.259112
vt 0.817893 0.315422
vt 0.767418 0.312770
vt 0.440417 0.272196
vt 0.016000 0.314713
vt 0.933758 0.272196
s 0
f 1/1/1 10/2/1 2/3/1
f 10/4/2 9/5/2 2/6/2
f 36/7/3 3/8/3 5/9/3 33/10/3
f 4/11/4 10/2/4 1/12/4
f 4/11/5 8/13/5 10/2/5
f 8/13/6 7/14/6 10/2/6
f 7/14/7 9/5/7 10/2/7
f 7/14/8 6/15/8 9/5/8
f 6/15/9 2/16/9 9/5/9
f 6/17/10 5/9/10 2/18/10
f 5/9/11 1/12/11 2/18/11
f 5/9/12 3/8/12 1/12/12
f 3/8/13 4/11/13 1/12/13
f 17/19/14 20/20/14 22/21/14
f 17/22/15 22/23/15 19/24/15
f 11/25/16 21/26/16 26/27/16
f 12/28/17 11/25/17 15/29/17
f 13/30/18 12/28/18 29/31/18
f 11/25/19 26/27/19 28/32/19
f 12/28/20 15/29/20 30/33/20
f 13/30/21 34/34/21 16/35/21
f 13/30/22 29/31/22 34/34/22
f 29/31/23 30/33/23 34/34/23
f 30/33/24 15/29/24 32/36/24
f 28/32/25 31/37/25 15/29/25
f 28/32/26 26/27/26 31/37/26
f 26/27/27 27/38/27 31/37/27
f 27/39/28 24/40/28 14/41/28
f 25/42/29 36/7/29 14/41/29
f 25/42/30 23/43/30 36/7/30
f 23/43/31 16/35/31 36/7/31
f 29/31/32 12/28/32 30/33/32
f 15/29/33 11/25/33 28/32/33
f 26/27/34 21/26/34 27/38/34
f 21/26/35 24/44/35 27/38/35
f 24/40/36 25/42/36 14/41/36
f 23/43/37 13/30/37 16/35/37
f 19/24/38 12/28/38 13/30/38
f 19/24/39 22/23/39 12/28/39
f 22/21/40 11/25/40 12/28/40
f 22/21/41 20/20/41 11/25/41
f 20/45/42 21/26/42 11/25/42
f 20/45/43 17/46/43 21/26/43
f 17/46/44 24/44/44 21/26/44
f 23/43/45 19/47/45 13/30/45
f 23/43/46 18/48/46 19/47/46
f 18/48/47 17/49/47 19/47/47
f 17/50/48 25/42/48 24/40/48
f 17/50/49 18/51/49 25/42/49
f 18/51/50 23/43/50 25/42/50
f 16/35/51 35/52/51 4/11/51
f 16/35/52 34/34/52 35/52/52
f 30/33/53 37/53/53 34/34/53
f 30/33/54 32/36/54 37/53/54
f 41/54/55 38/55/55 37/53/55
f 41/54/56 31/37/56 38/55/56
f 31/37/57 39/56/57 38/55/57
f 40/57/58 14/41/58 39/58/58
f 14/41/59 33/10/59 39/58/59
f 32/36/60 41/54/60 37/53/60
f 31/37/61 40/59/61 39/56/61
f 36/7/62 16/35/62 4/11/62
f 36/7/63 33/10/63 14/41/63
f 6/15/64 39/58/64 5/9/64
f 4/11/65 35/52/65 8/13/65
f 40/59/66 31/37/66 27/38/66
f 14/41/67 40/57/67 27/38/67
f 31/37/68 41/54/68 15/29/68
f 38/55/69 6/15/69 7/14/69 37/53/69
f 5/9/70 39/58/70 33/10/70
f 6/15/71 38/55/71 39/56/71
f 37/53/72 7/14/72 8/13/72 34/34/72
f 3/8/73 36/7/73 4/11/73
f 8/13/74 35/52/74 34/34/74
f 15/29/75 41/54/75 32/36/75
