# Blender 4.1.1
# www.blender.org
mtllib pine1(leaves)lowpoly1.mtl
o Tree_2.leaves_lowpoly1
v -6.325548 6.791851 5.677879
v 7.928587 6.767556 -3.146049
v -2.060451 7.007168 8.568898
v -3.843836 6.905450 -6.620331
v -1.008967 7.143158 -8.497974
v 0.335997 31.914886 3.568002
v -3.701897 32.123672 2.029804
v 5.599483 21.045189 5.475589
v 0.023218 32.105042 0.432361
v -6.236368 27.080971 -3.038501
v -1.357786 36.533905 -0.854183
v 6.119236 21.652143 -2.273578
v -2.264056 31.604984 0.501670
v -1.790241 31.019150 -2.583369
v -0.601845 26.849247 -6.376451
v 1.779261 -1.918648 0.794655
v -4.337575 13.923683 9.928762
v -2.095114 13.732514 7.522541
v 1.029785 21.323059 5.700807
v 4.293853 14.184007 6.393959
v 8.252480 13.806376 6.694780
v -2.038242 26.287430 1.942341
v -3.924051 22.646593 3.396748
v -4.046168 26.664059 -0.008017
v -0.016495 12.451815 -6.257092
v -8.322689 6.672010 -6.219472
v 2.012372 20.415108 -6.752156
v 1.173621 19.146809 -5.242135
v -8.808737 20.911362 2.781273
v -0.717260 32.308929 -3.241888
v 3.568897 31.872423 0.397853
v -7.002594 19.535591 -4.951863
v -0.725285 21.303061 -5.706414
v 0.562713 26.665531 1.766193
v -3.065708 13.787413 -9.956289
v 8.428987 7.064915 0.969632
v -3.980834 20.665661 7.956615
v 2.108286 31.989634 -2.698622
v 1.525294 13.415757 4.990106
v 1.053680 6.734052 10.054893
v 5.644703 6.747059 5.913963
v 3.118753 9.778690 7.365491
v 7.285004 14.577600 2.130386
v 4.774403 20.889391 1.106164
v 3.745967 21.076864 -2.926414
v 5.496375 14.101586 -8.788377
v -3.155213 21.764450 -6.645618
v 3.232982 26.407940 0.307585
v -1.803078 26.641628 -2.415193
v -5.852329 27.526768 2.542709
v -1.876781 26.888052 3.932718
v 5.649887 26.893787 -2.933420
v -7.332763 14.612290 -4.167035
v -5.103662 19.832184 -2.482198
v -6.617432 20.728718 -0.821757
v -2.166036 19.910868 5.808004
v -5.410908 20.209660 2.751808
v -0.676501 27.048717 5.549401
v 3.882385 27.594870 1.819534
v -3.849317 32.432377 -1.139498
v -4.686213 14.247223 -5.439314
v 1.202615 26.739090 -3.612886
v -6.136685 9.867899 6.484985
v -5.120353 6.662560 10.026175
v -7.542616 13.688000 3.702093
v -10.281544 6.979095 3.292783
v 6.049455 9.994528 -4.957582
v 3.203656 13.520591 -5.138290
v 5.502214 7.138176 -9.243090
v -8.368346 7.051180 -0.934478
v -7.200312 12.828239 -0.845410
v 4.970732 13.578955 -0.323699
v 5.641171 12.807321 4.833498
v 9.758957 13.945122 -2.264594
v 6.479759 13.638224 -3.397626
v 0.882427 14.381316 -7.860694
v 1.812708 13.492069 9.934563
v -4.266811 13.039684 4.772418
v -9.459208 14.088356 2.756671
vn 0.2177 0.5050 -0.8352
vn -0.5875 0.6113 -0.5301
vn 0.4441 -0.7875 0.4275
vn 0.2013 -0.8542 0.4793
vn -0.2522 -0.9206 0.2983
vn -0.6914 0.5589 0.4578
vn -0.0655 -0.9978 -0.0069
vn -0.8249 0.4502 -0.3418
vn -0.3459 0.4187 -0.8397
vn 0.1666 0.6585 -0.7339
vn 0.7188 0.3849 0.5789
vn -0.8934 -0.4048 0.1946
vn -0.0621 -0.9978 0.0214
vn 0.6950 -0.6920 -0.1952
vn 0.5245 0.2895 -0.8007
vn 0.4866 0.6171 0.6184
vn -0.1625 0.5412 0.8250
vn 0.4823 0.2560 0.8378
vn -0.8540 0.5125 0.0896
vn 0.9278 0.3466 -0.1381
vn 0.1674 -0.9582 0.2321
vn -0.4099 0.5471 -0.7299
vn -0.1058 -0.9938 -0.0338
vn 0.1058 0.5232 -0.8456
vn -0.8850 0.1855 -0.4270
vn -0.2512 0.6197 0.7435
vn -0.5252 -0.8472 0.0802
vn -0.0583 -0.9972 0.0466
vn -0.1210 -0.7939 0.5959
vn -0.4036 -0.9123 -0.0701
vn -0.0297 -0.9979 -0.0576
vn -0.4476 -0.5466 -0.7077
vn 0.0407 -0.9856 -0.1641
vn 0.3505 -0.7508 0.5598
vn 0.6135 0.1390 0.7774
vn -0.5559 0.0385 -0.8304
vn -0.6077 0.4025 0.6846
vn 0.8489 0.3314 -0.4117
vn 0.9708 0.1999 -0.1325
vn -0.0006 0.6192 0.7852
vn -0.1890 0.5674 0.8014
vn 0.5155 0.6836 0.5166
vn 0.3073 0.1722 -0.9359
vn 0.3722 0.4294 -0.8229
vn -0.0397 -0.2329 0.9717
vn -0.6871 0.6144 0.3878
vn -0.2045 0.4141 -0.8870
vn 0.2282 0.6734 0.7032
vn 0.2606 -0.9617 -0.0849
vn 0.6945 0.6526 -0.3029
vn -0.5093 0.3636 -0.7800
vn -0.4477 -0.6187 0.6456
vn -0.8489 0.3696 -0.3779
vn -0.0851 0.2655 0.9603
vn -0.5693 0.6231 -0.5363
vn 0.8861 0.4612 -0.0462
vn 0.7255 0.1917 0.6609
vn 0.7870 0.5932 -0.1698
vn 0.5542 -0.8096 -0.1932
vn 0.7783 0.4909 0.3915
vn -0.8300 0.5152 0.2135
vn -0.6920 0.2410 0.6805
vn -0.5269 0.4123 -0.7433
vn -0.2905 -0.9499 0.1156
vn -0.5336 0.5373 0.6531
vn -0.2320 -0.9285 0.2899
vn -0.9637 -0.0108 0.2668
vn 0.8393 0.3241 -0.4364
vn 0.7047 0.5455 -0.4536
vn 0.0131 -0.9987 -0.0484
vn 0.8655 0.0884 0.4931
vn -0.1022 0.5796 0.8084
vn -0.7176 0.3225 -0.6172
vn -0.8594 0.4728 0.1947
vn 0.4183 -0.6879 -0.5932
vn -0.7763 0.2190 0.5911
vn 0.7318 0.3889 0.5597
vn 0.0985 0.6128 -0.7841
vn 0.9266 0.3494 -0.1390
vn -0.0874 -0.9931 -0.0785
vn -0.3141 -0.8318 0.4576
vn -0.8652 0.4444 -0.2321
vn 0.1162 0.5783 0.8075
vn -0.4678 0.3837 0.7962
vn -0.7446 0.3205 -0.5856
vn -0.6211 0.4840 0.6164
vn 0.0756 0.5956 0.7997
vn 0.1233 -0.7265 -0.6760
vn 0.5882 -0.7393 0.3278
vn -0.5136 -0.1881 0.8371
vn -0.4167 0.1377 0.8986
vn 0.0854 -0.9961 0.0227
vn 0.3727 0.4594 0.8063
vn -0.7674 -0.5771 -0.2794
vn 0.7224 0.6703 0.1698
vn -0.0659 -0.9964 -0.0538
vn 0.8241 0.3939 0.4072
vn -0.6304 0.7391 -0.2372
vn 0.4125 0.1421 0.8998
vn 0.6562 0.1981 0.7281
vn 0.8842 0.3286 -0.3319
vn 0.4942 -0.8339 -0.2456
vn 0.3908 0.5389 -0.7462
vn 0.8612 0.2999 0.4104
vn -0.6291 0.3265 -0.7054
vn 0.8016 0.3103 -0.5110
vn 0.5971 0.5089 0.6201
vn -0.3641 -0.9307 -0.0359
vn 0.8071 0.1493 -0.5713
vn -0.0499 -0.9952 0.0845
vn -0.4806 -0.8762 0.0350
vn -0.3445 0.4413 -0.8286
vn -0.3258 -0.8383 -0.4372
vn -0.1443 0.4833 -0.8635
vn -0.8992 0.4357 -0.0390
vn -0.9156 0.4008 -0.0304
vn -0.2023 -0.9766 -0.0735
vn -0.3085 0.6095 0.7303
vn 0.4374 0.3098 -0.8442
vn 0.7615 0.6268 -0.1651
vn 0.9283 0.3312 -0.1687
vn -0.3292 -0.9421 0.0647
vn -0.0018 -0.9950 0.1002
vn -0.6605 0.5733 0.4848
vn -0.0927 -0.7850 0.6125
vn -0.1037 0.4032 -0.9092
vn -0.2268 -0.9628 0.1467
vn -0.7731 0.4022 -0.4906
vn -0.9738 0.1986 -0.1108
vn -0.8309 0.5494 -0.0884
vn 0.4635 0.5978 0.6541
vn 0.2630 -0.9583 -0.1116
vn 0.0982 0.5631 -0.8205
vn 0.1180 -0.9505 0.2875
vn -0.0882 -0.9934 -0.0729
vn -0.2762 -0.9480 0.1584
vn 0.0977 -0.9591 -0.2658
vn 0.0514 -0.9926 -0.1105
vn -0.0291 -0.9991 -0.0302
vn -0.1061 0.1460 -0.9836
vn 0.0089 -0.9999 -0.0132
vt 0.812262 0.887315
vt 0.819546 0.983649
vt 0.780944 0.994061
vt 0.759953 0.776368
vt 0.683887 0.872161
vt 0.685594 0.763115
vt 0.762368 0.143369
vt 0.755586 0.183865
vt 0.849995 0.160878
vt 0.088689 0.878766
vt 0.068854 0.910769
vt 0.113500 0.873941
vt 0.837159 0.121084
vt 0.868137 0.076423
vt 0.814980 0.099572
vt 0.134853 0.917315
vt 0.179060 0.834223
vt 0.184112 0.908779
vt 0.011477 0.910562
vt 0.035680 0.947821
vt 0.371584 0.933608
vt 0.490989 0.873168
vt 0.478411 0.924703
vt 0.977728 0.522743
vt 0.393284 0.958915
vt 0.778172 0.344293
vt 0.778894 0.246466
vt 0.756714 0.209375
vt 0.299328 0.771314
vt 0.237417 0.754436
vt 0.269657 0.652524
vt 0.996279 0.037237
vt 0.948910 0.005815
vt 0.925522 0.012723
vt 0.513331 0.019534
vt 0.637279 0.087544
vt 0.460427 0.081100
vt 0.787177 0.215560
vt 0.283747 0.830580
vt 0.377557 0.762522
vt 0.250694 0.794150
vt 0.463127 0.641909
vt 0.463378 0.575763
vt 0.507015 0.568202
vt 0.833234 0.766600
vt 0.763751 0.763314
vt 0.776130 0.798402
vt 0.509442 0.823147
vt 0.429517 0.858181
vt 0.401165 0.835170
vt 0.714314 0.673932
vt 0.676034 0.604223
vt 0.636978 0.628314
vt 0.728444 0.194428
vt 0.573121 0.202971
vt 0.630355 0.241566
vt 0.538793 0.560857
vt 0.560038 0.460214
vt 0.572909 0.503773
vt 0.898400 0.891018
vt 0.939492 0.955009
vt 0.845399 0.949602
vt 0.026100 0.875449
vt 0.696701 0.732641
vt 0.656479 0.763854
vt 0.590205 0.701495
vt 0.890863 0.159439
vt 0.843500 0.186135
vt 0.857775 0.228548
vt 0.740184 0.919053
vt 0.773930 0.967390
vt 0.654473 0.986981
vt 0.482418 0.481893
vt 0.465726 0.483416
vt 0.472740 0.467088
vt 0.871142 0.466046
vt 0.810893 0.416904
vt 0.793880 0.482474
vt 0.404077 0.161945
vt 0.338177 0.149711
vt 0.391148 0.126683
vt 0.085135 0.853076
vt 0.104019 0.936228
vt 0.251670 0.816256
vt 0.402658 0.066418
vt 0.459144 0.112739
vt 0.574866 0.862679
vt 0.561367 0.842937
vt 0.644320 0.860404
vt 0.406809 0.694009
vt 0.417529 0.594902
vt 0.456378 0.461111
vt 0.149777 0.602893
vt 0.048911 0.696148
vt 0.183536 0.613119
vt 0.572663 0.730524
vt 0.891648 0.559031
vt 0.967201 0.610817
vt 0.993453 0.522818
vt 0.184850 0.770739
vt 0.232617 0.641878
vt 0.211852 0.838868
vt 0.228886 0.911191
vt 0.057396 0.994111
vt 0.178162 0.997410
vt 0.173897 0.957279
vt 0.992585 0.154170
vt 0.652274 0.315726
vt 0.952367 0.110869
vt 0.350573 0.820130
vt 0.637143 0.962010
vt 0.562437 0.960041
vt 0.621192 0.942841
vt 0.769137 0.735005
vt 0.637784 0.824207
vt 0.572286 0.813310
vt 0.978184 0.116797
vt 0.804975 0.636785
vt 0.747103 0.666705
vt 0.842957 0.684458
vt 0.135776 0.930813
vt 0.736424 0.571115
vt 0.549330 0.135075
vt 0.142125 0.816296
vt 0.033572 0.832057
vt 0.099629 0.713684
vt 0.308635 0.647425
vt 0.340805 0.737048
vt 0.660333 0.849625
vt 0.859863 0.606511
vt 0.881988 0.659578
vt 0.418645 0.717512
vt 0.491334 0.758453
vt 0.550161 0.599263
vt 0.602447 0.575189
vt 0.566168 0.637225
vt 0.540005 0.048276
vt 0.590017 0.022555
vt 0.599925 0.046739
vt 0.926642 0.063903
vt 0.900707 0.864050
vt 0.969420 0.255842
vt 0.856205 0.297843
vt 0.981694 0.316139
vt 0.816857 0.065894
vt 0.899562 0.033881
vt 0.770845 0.609034
vt 0.883270 0.770419
vt 0.900290 0.696697
vt 0.638842 0.462111
vt 0.704901 0.475100
vt 0.764184 0.409794
vt 0.774282 0.075578
vt 0.715081 0.042484
vt 0.739945 0.099692
vt 0.993625 0.688781
vt 0.528744 0.953677
vt 0.526983 0.884368
vt 0.499257 0.925682
vt 0.932716 0.099060
vt 0.360244 0.586317
vt 0.413890 0.548443
vt 0.431438 0.579227
vt 0.272862 0.878368
vt 0.256488 0.890298
vt 0.360212 0.981347
vt 0.309568 0.968675
vt 0.321345 0.889361
vt 0.711827 0.314634
vt 0.808239 0.017446
vt 0.514586 0.114473
vt 0.675889 0.772540
vt 0.096835 0.565520
vt 0.011825 0.588513
vt 0.917518 0.869750
vt 0.403968 0.747933
vt 0.813099 0.704308
vt 0.696738 0.148866
vt 0.544180 0.615304
vt 0.529453 0.696126
vt 0.512314 0.525715
vt 0.916774 0.825416
vt 0.943382 0.881202
vt 0.972118 0.811458
vt 0.861658 0.399972
vt 0.934377 0.369279
vt 0.920419 0.316838
vt 0.869940 0.875486
vt 0.640973 0.651550
vt 0.770146 0.535510
vt 0.658709 0.570341
vt 0.588676 0.585724
vt 0.538620 0.819846
vt 0.535191 0.728566
vt 0.541813 0.868763
vt 0.249094 0.982327
vt 0.297218 0.892599
vt 0.377994 0.817702
vt 0.980919 0.703046
vt 0.907787 0.720817
vt 0.939699 0.766450
vt 0.654405 0.498933
vt 0.799554 0.128923
vt 0.292095 0.457423
vt 0.016296 0.509134
vt 0.983653 0.180751
vt 0.764833 0.836215
vt 0.739985 0.552698
vt 0.809442 0.572271
vt 0.864731 0.119481
vt 0.319609 0.219742
vt 0.204745 0.275983
vt 0.126445 0.313181
vt 0.193935 0.733593
vt 0.447765 0.204435
vt 0.687441 0.335407
vt 0.642844 0.405159
vt 0.850390 0.557177
vt 0.833500 0.497766
vt 0.802188 0.886498
vt 0.146486 0.728365
vt 0.817689 0.629502
vt 0.850798 0.655088
vt 0.857116 0.565265
vt 0.833840 0.367154
vt 0.762631 0.374534
vt 0.633392 0.437233
vt 0.575413 0.155965
vt 0.007880 0.803468
vt 0.479764 0.551565
vt 0.307598 0.313248
vt 0.095089 0.242164
vt 0.040177 0.200542
vt 0.000347 0.105150
vt 0.075766 0.016816
vt 0.167902 0.032829
vt 0.252809 0.017909
vt 0.341190 0.080618
vt 0.321510 0.144319
vt 0.386765 0.178260
s 0
f 11/1/1 38/2/1 30/3/1
f 32/4/2 24/5/2 47/6/2
f 48/7/3 59/8/3 58/9/3
f 13/10/4 9/11/4 7/12/4
f 51/13/5 50/14/5 22/15/5
f 58/16/6 9/17/6 51/18/6
f 38/19/7 31/20/7 9/11/7
f 33/21/8 35/22/8 61/23/8
f 53/24/9 54/25/9 61/23/9
f 46/26/10 28/27/10 45/28/10
f 77/29/11 20/30/11 19/31/11
f 19/32/12 51/33/12 22/34/12
f 17/35/13 79/36/13 18/37/13
f 28/27/14 27/38/14 45/28/14
f 28/39/15 35/40/15 33/41/15
f 42/42/16 39/43/16 18/44/16
f 63/45/17 78/46/17 65/47/17
f 44/48/18 48/49/18 34/50/18
f 11/51/19 60/52/19 7/53/19
f 44/54/20 21/55/20 43/56/20
f 72/57/21 74/58/21 43/59/21
f 14/60/22 15/61/22 10/62/22
f 9/11/23 30/63/23 38/19/23
f 12/64/24 45/65/24 48/66/24
f 70/67/25 71/68/25 61/69/25
f 7/70/26 6/71/26 11/72/26
f 13/73/27 60/74/27 14/75/27
f 19/76/28 44/77/28 8/78/28
f 73/79/29 21/80/29 20/81/29
f 60/82/30 13/10/30 7/12/30
f 6/83/31 7/12/31 9/11/31
f 27/84/32 28/39/32 33/41/32
f 77/85/33 18/86/33 20/81/33
f 56/87/34 19/88/34 37/89/34
f 41/90/35 73/91/35 42/42/35
f 14/75/36 60/74/36 30/92/36
f 57/93/37 79/94/37 56/95/37
f 48/66/38 45/65/38 62/96/38
f 75/97/39 36/98/39 2/99/39
f 20/30/40 21/100/40 44/101/40
f 13/102/41 50/103/41 51/18/41
f 11/104/42 6/105/42 31/106/42
f 45/107/43 74/108/43 75/109/43
f 35/40/44 28/39/44 76/110/44
f 23/111/45 29/112/45 57/113/45
f 18/114/46 78/46/46 63/45/46
f 27/115/47 33/116/47 62/96/47
f 37/117/48 19/32/48 22/34/48
f 54/118/49 32/119/49 33/120/49
f 11/104/50 31/106/50 38/121/50
f 11/51/51 30/122/51 60/52/51
f 65/123/52 18/37/52 79/36/52
f 70/124/53 66/125/53 65/126/53
f 56/127/54 18/128/54 19/31/54
f 49/129/55 47/6/55 24/5/55
f 72/130/56 73/131/56 36/98/56
f 56/127/57 17/132/57 18/128/57
f 44/48/58 34/50/58 8/133/58
f 72/134/59 43/135/59 73/136/59
f 36/137/60 75/138/60 72/139/60
f 23/140/61 37/117/61 22/34/61
f 66/141/62 63/45/62 65/47/62
f 4/142/63 25/143/63 5/144/63
f 24/145/64 22/15/64 50/14/64
f 23/140/65 22/34/65 24/146/65
f 32/119/66 54/118/66 55/147/66
f 1/148/67 64/149/67 63/45/67
f 45/65/68 27/115/68 62/96/68
f 68/150/69 67/151/69 69/152/69
f 49/153/70 15/154/70 62/155/70
f 36/98/71 73/131/71 41/156/71
f 51/18/72 9/17/72 13/102/72
f 50/157/73 13/158/73 24/159/73
f 23/140/74 57/160/74 37/117/74
f 35/161/75 76/162/75 25/163/75
f 13/102/76 10/164/76 24/165/76
f 20/30/77 44/101/77 19/31/77
f 52/166/78 62/167/78 9/168/78
f 45/28/79 75/169/79 46/26/79
f 49/153/80 10/170/80 15/154/80
f 78/171/81 18/172/81 65/123/81
f 54/173/82 53/174/82 79/94/82
f 39/43/83 42/42/83 73/91/83
f 19/31/84 18/128/84 77/29/84
f 30/175/85 15/61/85 14/60/85
f 64/149/86 18/114/86 63/45/86
f 8/133/87 34/50/87 19/176/87
f 47/177/88 33/120/88 32/119/88
f 59/8/89 48/7/89 52/178/89
f 1/148/90 63/45/90 66/141/90
f 18/44/91 3/179/91 40/180/91
f 75/181/92 74/58/92 72/57/92
f 18/44/93 40/180/93 42/42/93
f 71/182/94 79/183/94 53/184/94
f 9/185/95 59/186/95 52/187/95
f 6/83/96 9/11/96 31/20/96
f 74/108/97 44/54/97 43/56/97
f 10/62/98 13/188/98 14/60/98
f 64/189/99 3/179/99 18/44/99
f 42/42/100 40/180/100 41/90/100
f 67/151/101 2/190/101 69/152/101
f 43/135/102 21/191/102 73/192/102
f 33/116/103 47/193/103 49/194/103
f 48/49/104 44/48/104 12/195/104
f 61/23/105 54/25/105 33/21/105
f 62/167/106 15/196/106 30/197/106
f 51/198/107 19/176/107 34/50/107
f 35/199/108 25/200/108 61/201/108
f 2/190/109 67/151/109 75/202/109
f 34/203/110 48/7/110 58/9/110
f 54/173/111 57/93/111 55/204/111
f 49/194/112 62/96/112 33/116/112
f 61/201/113 71/182/113 53/184/113
f 28/39/114 46/205/114 76/110/114
f 61/69/115 26/206/115 70/67/115
f 24/5/116 32/4/116 55/207/116
f 29/208/117 55/147/117 57/209/117
f 24/146/118 29/210/118 23/140/118
f 75/202/119 67/151/119 68/150/119
f 74/108/120 45/28/120 44/54/120
f 62/167/121 30/197/121 9/168/121
f 1/211/122 70/212/122 26/213/122
f 58/9/123 51/13/123 34/203/123
f 17/214/124 56/95/124 79/94/124
f 20/81/125 39/215/125 73/79/125
f 5/216/126 25/217/126 69/152/126
f 56/218/127 37/219/127 57/209/127
f 24/5/128 55/207/128 29/220/128
f 71/221/129 70/124/129 65/126/129
f 57/93/130 54/173/130 79/94/130
f 58/222/131 59/223/131 9/224/131
f 45/225/132 12/226/132 44/77/132
f 68/150/133 69/152/133 25/227/133
f 39/215/134 20/81/134 18/37/134
f 49/153/135 24/145/135 10/170/135
f 71/228/136 65/123/136 79/36/136
f 76/162/137 46/229/137 75/181/137 68/230/137 25/163/137
f 62/155/138 52/178/138 48/7/138
f 66/231/139 70/212/139 1/211/139
f 61/69/140 25/143/140 4/142/140 26/206/140
f 4/232/141 5/233/141 69/234/141 2/235/141 36/236/141 41/237/141 40/238/141 3/239/141 64/240/141 1/211/141 26/213/141
