# Blender 4.1.1
# www.blender.org
mtllib pine1(leaves).mtl
o Tree_2
v -0.781127 6.855067 -1.252248
v 1.372932 7.050209 -7.806760
v 6.918937 6.662745 -4.403975
v 0.330633 6.805846 1.837299
v -1.720062 6.759796 7.296138
v -1.734076 6.805502 0.210788
v -3.295789 6.791391 -6.469462
v -1.173026 6.879578 -9.865813
v -0.171065 31.835602 3.684119
v -3.940152 31.838455 1.913411
v -1.716020 32.466934 2.547319
v 1.432497 6.768715 0.357963
v -1.054382 6.794566 1.376815
v 5.951496 21.045189 5.520547
v 5.853736 21.105291 1.261928
v 3.534792 19.979490 -7.553873
v -1.811999 31.633667 1.065397
v -4.785499 27.763683 3.118804
v -0.309518 31.992241 1.645299
v -0.607449 26.598476 6.470190
v -5.499334 27.801468 -1.976488
v -1.275529 34.852741 -2.651758
v -0.676380 36.396736 -0.453437
v -3.922643 32.532299 -0.613549
v -1.652401 10.473241 8.668049
v 3.307661 23.376097 -2.364402
v 4.438751 21.039850 -3.302737
v 3.208961 23.355709 -4.523727
v 1.384724 26.706856 -3.122615
v 1.203475 23.584158 -5.677809
v 6.471249 21.652143 -2.228620
v -0.126141 26.720201 -2.056585
v -4.493982 27.065323 -0.124526
v -2.735405 30.410921 0.584437
v -1.402330 31.187031 -1.877592
v -2.442096 29.544474 -4.010664
v -1.093972 27.660303 -5.502132
v 2.131274 -1.918648 0.839613
v -0.764259 13.817990 7.667533
v -3.985562 13.923683 9.973721
v 0.035047 15.993759 7.341495
v 1.534235 20.802555 5.331328
v 3.586788 17.749613 5.076241
v 4.641968 14.041399 6.204633
v 8.604492 13.806376 6.739738
v 3.803390 20.883209 2.528739
v -1.899002 25.116440 3.331932
v -2.877394 23.503532 2.123809
v -4.419859 25.336199 1.072222
v 0.603110 23.440222 4.961227
v 1.603384 12.772640 -4.582178
v -3.066059 9.167480 -6.112450
v -4.791217 13.623280 -4.542182
v -7.970676 6.672010 -6.174514
v 1.646293 20.184572 -5.897375
v 0.802886 17.520214 -5.894526
v 1.947925 19.702230 -4.347342
v 2.449974 18.188131 -6.474890
v 5.855408 13.940395 -9.635493
v -8.456724 20.911362 2.826231
v -3.863230 22.466965 3.984267
v 0.067114 32.386391 -2.175152
v 2.940396 31.635239 -2.455592
v 3.788923 31.706697 0.219539
v 1.877796 31.957497 2.783940
v 1.651698 32.482643 -3.239403
v -2.056197 31.728931 -0.200037
v 0.564710 6.817431 -1.036802
v -6.236979 20.802589 -0.810708
v -4.747550 20.799952 3.334707
v -6.650582 19.535591 -4.906905
v -0.284540 21.336390 -5.832240
v 0.016800 21.411285 5.973504
v 2.120319 25.676296 2.866923
v 2.527999 23.079060 4.709125
v 0.755920 26.634722 1.699185
v -2.713696 13.787413 -9.911331
v -4.121631 14.412922 -6.181501
v -0.525609 21.227190 -5.404311
v 7.268017 9.806126 0.688381
v -0.998134 31.962503 -4.949750
v -3.628821 20.665661 8.001574
v 2.151964 34.194992 0.164241
v 2.838526 32.054672 -1.309778
v 1.086701 13.236924 5.343492
v 1.405693 6.734052 10.099852
v -0.458739 13.631422 6.757024
v -2.654616 13.565512 7.448472
v 6.687213 6.651858 5.932532
v 4.067610 6.749715 6.333291
v 3.470766 9.778690 7.410450
v 9.060786 13.926483 0.177233
v 4.955760 20.650379 -0.217279
v 7.595749 14.786889 2.237591
v 4.302931 19.429087 -3.368496
v 3.804523 21.226124 -2.592220
v 5.765193 15.500309 -6.140004
v -2.153395 21.474651 -6.558012
v -2.636459 23.640545 -5.187463
v -2.003958 26.716297 -2.436878
v 3.621603 26.322680 0.550264
v -1.885630 26.853458 -3.838880
v -3.406045 26.660795 -0.611437
v -5.962906 26.791742 -3.375187
v 0.190952 26.433313 -7.029552
v -6.418001 26.928036 1.878112
v -2.007974 26.352711 1.191333
v -1.169568 26.821255 3.489692
v -2.599572 27.053473 3.860189
v 5.867639 26.681625 -2.545312
v 2.485066 26.704056 -0.690773
v -7.404458 14.450176 -4.797523
v -5.395754 18.200829 -1.090701
v -4.350815 20.143009 -2.932345
v -6.176905 20.469702 -0.761999
v -9.105034 14.029567 2.572934
v -5.452729 20.105888 2.695054
v -4.877055 16.800718 4.954450
v -1.955810 20.151688 6.110665
v -3.667246 19.796429 3.653200
v 0.953904 27.115437 4.461947
v 4.491059 28.123928 0.657881
v 2.754088 30.081657 0.016151
v -4.316146 31.560196 -1.359113
v -2.579006 32.663673 -2.287877
v 9.989704 6.767329 1.252001
v 8.717531 7.167869 -2.849527
v 6.998508 13.679706 -3.090223
v -2.364541 14.170604 -6.250060
v 1.076086 30.164816 -2.027160
v 2.374727 26.944088 -3.722023
v 0.854996 31.906551 -0.128367
v 3.275296 29.973171 -1.647992
v -2.138034 13.426917 -5.782330
v -7.129292 14.724010 -2.459334
v 3.168802 26.776360 3.665028
v 0.357518 31.968639 0.503304
v -5.461855 9.490694 6.797983
v -6.561837 10.624432 5.802181
v -5.923296 6.765506 5.777292
v -4.768340 6.662560 10.071134
v -8.567827 10.647409 2.131197
v -9.929531 6.979095 3.337741
v 5.533739 9.915697 -7.861592
v 6.401467 9.994528 -4.912623
v 4.450149 13.361265 -4.131067
v 7.297246 11.804723 -2.989022
v 6.052269 6.738191 -8.939269
v 2.707223 9.486652 -7.921960
v 0.230969 12.562803 -6.356387
v -7.215979 6.816285 -1.331787
v -7.757335 10.079233 -0.370586
v -7.262501 13.231009 -1.169901
v -6.944499 13.748695 4.166638
v -6.281829 13.228673 1.069459
v 4.865490 13.211792 -0.222230
v 5.664582 13.337881 1.619988
v 6.565049 13.958465 0.315523
v 5.993184 12.807321 4.878456
v 10.110970 13.945122 -2.219636
v 6.439865 13.781607 -4.005929
v 3.420696 13.620184 -5.368737
v 1.234439 14.381316 -7.815736
v 3.373425 13.558954 4.916195
v 2.135243 13.862597 6.345362
v 2.164721 13.492069 9.979521
v -3.914799 13.039684 4.817377
v -7.700674 14.260820 4.704947
vn 0.3450 0.6042 -0.7183
vn -0.3540 0.3994 0.8457
vn -0.6778 0.6378 -0.3659
vn -0.1048 -0.9862 0.1284
vn 0.2090 -0.9631 0.1694
vn 0.0193 -0.8720 0.4891
vn -0.2192 -0.9416 -0.2558
vn -0.6475 -0.4997 0.5753
vn 0.8919 0.4499 -0.0450
vn 0.3564 -0.9193 -0.1670
vn -0.3690 0.8254 0.4272
vn -0.4004 -0.9052 -0.1425
vn -0.1573 0.9530 0.2588
vn -0.2690 -0.9198 0.2856
vn 0.3864 0.4540 -0.8029
vn -0.4485 0.4209 -0.7885
vn -0.6198 0.5419 0.5676
vn 0.8695 0.4919 -0.0444
vn 0.1769 0.7355 -0.6541
vn -0.0435 -0.9797 -0.1959
vn -0.7995 0.4653 -0.3798
vn -0.0174 -0.8185 0.5742
vn -0.3419 0.4531 -0.8233
vn 0.8875 0.3864 -0.2511
vn 0.3606 0.6235 -0.6936
vn 0.7021 0.4242 0.5720
vn -0.4810 0.1255 0.8677
vn -0.0522 -0.9983 -0.0271
vn 0.3132 0.4714 -0.8244
vn 0.7638 -0.5590 -0.3226
vn 0.2947 0.4756 -0.8288
vn 0.5598 0.3026 -0.7714
vn 0.5851 0.6734 0.4518
vn -0.1141 0.2593 0.9590
vn -0.0656 0.5079 0.8589
vn 0.4085 0.6880 0.5998
vn 0.7475 0.3788 0.5457
vn 0.3833 0.2839 0.8789
vn 0.4136 0.3079 0.8568
vn -0.4705 -0.7638 -0.4419
vn 0.6204 0.6398 0.4535
vn 0.4640 0.5447 -0.6986
vn 0.0778 0.5505 0.8312
vn -0.7583 0.6300 0.1677
vn 0.8452 0.5293 -0.0741
vn -0.0136 -0.9998 -0.0137
vn -0.1384 -0.8690 -0.4751
vn 0.1031 -0.9660 0.2371
vn 0.9181 -0.2909 -0.2692
vn -0.3843 -0.5725 -0.7242
vn 0.0099 -0.9202 0.3913
vn 0.6878 -0.6969 -0.2032
vn -0.4912 -0.2655 0.8296
vn 0.4322 -0.8929 -0.1264
vn -0.0279 0.3170 -0.9480
vn -0.2658 -0.8407 -0.4718
vn 0.1281 -0.9865 0.1015
vn -0.4267 0.3536 -0.8324
vn -0.2623 -0.9571 -0.1234
vn 0.2764 -0.8943 0.3519
vn 0.3005 0.4868 -0.8202
vn 0.6138 -0.7809 -0.1164
vn -0.8050 -0.0239 -0.5927
vn -0.2779 0.6283 0.7266
vn -0.4625 0.3981 -0.7922
vn -0.7659 -0.6362 -0.0930
vn 0.0542 -0.9984 0.0151
vn -0.1281 -0.7877 0.6025
vn -0.3769 -0.4628 0.8023
vn -0.1136 -0.9741 -0.1954
vn -0.3351 -0.9080 -0.2516
vn -0.3471 -0.9366 -0.0484
vn -0.1934 0.0602 -0.9793
vn 0.0093 -0.7147 0.6994
vn 0.1084 -0.8695 0.4819
vn 0.1847 -0.9769 -0.1079
vn 0.0651 -0.9927 -0.1017
vn 0.2612 -0.8478 0.4615
vn 0.5634 0.2008 0.8014
vn 0.4468 0.1920 0.8738
vn -0.0308 -0.9944 -0.1011
vn 0.8008 0.4636 -0.3791
vn -0.7196 -0.6449 -0.2575
vn -0.6264 0.3626 0.6901
vn -0.8986 0.3585 0.2528
vn 0.8364 0.3968 -0.3780
vn 0.9413 0.2934 0.1669
vn -0.0661 0.1545 -0.9858
vn 0.9280 0.2463 -0.2796
vn -0.8285 -0.2349 -0.5083
vn -0.8112 0.5744 -0.1098
vn 0.6179 0.7238 -0.3071
vn 0.2227 0.6057 0.7639
vn 0.5833 0.3175 -0.7476
vn -0.1120 0.5316 0.8396
vn 0.0249 -0.9966 -0.0783
vn -0.3096 0.5970 -0.7401
vn 0.7227 0.4864 0.4910
vn 0.3927 0.6786 0.6207
vn 0.4138 0.2552 -0.8738
vn 0.7447 0.6671 0.0196
vn -0.8645 0.0046 -0.5026
vn 0.7490 0.5723 -0.3338
vn 0.3361 0.5249 -0.7820
vn 0.2675 0.6635 0.6987
vn 0.8576 0.1095 -0.5025
vn 0.8794 -0.4359 0.1913
vn -0.1385 -0.2949 0.9454
vn 0.6094 0.7068 -0.3592
vn -0.8099 0.5124 0.2855
vn 0.4425 0.6223 -0.6458
vn -0.9022 0.4277 0.0561
vn -0.3141 0.2705 -0.9100
vn 0.7886 0.5059 0.3495
vn 0.0285 0.7183 0.6952
vn 0.7950 0.5684 0.2119
vn 0.9605 0.2624 -0.0923
vn 0.2697 -0.9628 -0.0180
vn 0.6119 0.6668 -0.4254
vn -0.4671 -0.7573 -0.4564
vn 0.8648 0.3811 -0.3269
vn -0.7449 0.4951 0.4472
vn 0.6548 0.6394 -0.4031
vn -0.1666 0.2057 0.9643
vn -0.0112 -0.9697 0.2442
vn -0.7573 0.3604 -0.5447
vn 0.2199 0.6918 0.6878
vn -0.2505 -0.8524 0.4591
vn 0.2511 0.4763 0.8427
vn -0.9110 0.2243 -0.3461
vn 0.6560 -0.0133 -0.7547
vn -0.6434 0.6809 0.3499
vn 0.1432 0.3434 0.9282
vn 0.6147 0.6755 0.4073
vn 0.1319 -0.9395 0.3160
vn -0.0003 -0.9977 -0.0671
vn -0.7140 0.4482 -0.5378
vn -0.6587 0.5723 -0.4885
vn -0.9039 0.2711 -0.3310
vn 0.9080 0.4184 -0.0234
vn 0.5625 0.2956 0.7721
vn -0.5644 0.3213 0.7604
vn 0.4355 -0.8728 -0.2203
vn 0.7730 0.6344 -0.0088
vn 0.7158 -0.6931 -0.0851
vn -0.1249 -0.9909 0.0492
vn 0.6085 0.5754 0.5465
vn -0.7227 0.6139 0.3175
vn -0.7888 0.4355 0.4338
vn -0.5867 0.5254 -0.6162
vn -0.8181 0.5397 0.1985
vn -0.2394 -0.9608 0.1400
vn -0.2029 -0.9689 -0.1414
vn 0.0697 -0.9734 -0.2185
vn -0.1962 0.3586 0.9127
vn -0.7618 -0.2263 -0.6069
vn 0.6973 0.6642 -0.2696
vn 0.3614 -0.9138 -0.1852
vn -0.0015 -0.9553 0.2956
vn -0.9632 0.0655 0.2607
vn 0.9016 0.3338 -0.2750
vn -0.6547 -0.5355 0.5334
vn -0.2180 -0.8415 -0.4944
vn 0.7520 0.5785 -0.3159
vn 0.0333 -0.9977 0.0597
vn 0.9707 0.1425 0.1932
vn 0.2531 0.9663 -0.0469
vn 0.3666 -0.9223 0.1221
vn -0.4126 0.5251 0.7443
vn 0.0046 -0.9969 -0.0791
vn -0.6527 0.4691 -0.5949
vn -0.8943 0.3865 0.2255
vn -0.8895 0.2385 0.3898
vn 0.4149 -0.6977 -0.5840
vn -0.7977 0.4239 0.4290
vn -0.0096 -0.9999 -0.0086
vn 0.0008 -1.0000 -0.0098
vn -0.2220 0.2465 -0.9434
vn 0.2942 -0.8427 -0.4509
vn 0.6988 0.4215 0.5779
vn -0.7734 0.5770 -0.2624
vn 0.1890 0.5159 -0.8355
vn 0.0584 -0.9982 0.0106
vn 0.9349 0.3548 -0.0098
vn -0.1932 0.1176 -0.9741
vn -0.0377 -0.8919 -0.4506
vn -0.2799 -0.9068 0.3153
vn -0.8682 0.1425 0.4753
vn -0.7500 0.5075 0.4241
vn -0.8225 0.5096 -0.2526
vn 0.1684 0.5459 0.8208
vn -0.4266 0.4588 0.7795
vn -0.5774 0.5601 -0.5941
vn 0.6523 -0.2731 0.7070
vn -0.7383 0.4250 0.5237
vn -0.4732 0.6611 -0.5822
vn -0.6017 0.7441 0.2905
vn 0.1612 0.5877 0.7929
vn -0.8390 0.1593 -0.5203
vn 0.7800 0.5049 -0.3698
vn 0.1526 -0.8216 -0.5493
vn 0.7636 -0.3989 0.5078
vn -0.6126 0.7348 -0.2911
vn -0.5735 -0.1001 0.8131
vn 0.0216 0.3728 0.9276
vn 0.0250 -0.9989 0.0402
vn 0.3393 0.4829 0.8073
vn -0.8884 -0.2520 -0.3836
vn 0.6768 0.7174 0.1652
vn -0.0725 -0.9964 0.0429
vn 0.5360 0.6836 -0.4954
vn 0.7996 0.4802 0.3605
vn -0.5642 0.6957 -0.4446
vn -0.0214 0.3608 0.9324
vn -0.0204 -0.9998 0.0087
vn 0.1326 -0.3088 0.9418
vn -0.7662 -0.1742 -0.6185
vn -0.3816 -0.5726 -0.7256
vn 0.1222 0.4762 0.8708
vn 0.0977 -0.9951 -0.0163
vn 0.8159 -0.0442 0.5765
vn -0.3199 0.5142 0.7958
vn 0.9751 0.1233 -0.1843
vn -0.6470 -0.2538 0.7190
vn 0.5157 -0.8058 -0.2910
vn 0.3192 0.5431 -0.7766
vn 0.8855 0.4089 0.2207
vn -0.5754 0.3859 -0.7211
vn 0.1510 0.6415 -0.7521
vn 0.7097 0.4540 -0.5387
vn 0.5919 0.5619 0.5779
vn 0.2498 0.7045 -0.6643
vn -0.4680 0.5758 -0.6704
vn -0.5175 -0.8445 0.1377
vn 0.7861 0.2234 -0.5763
vn -0.3456 0.4878 0.8016
vn -0.0374 -0.9841 0.1739
vn -0.9264 -0.3418 0.1581
vn -0.6282 0.4590 -0.6282
vn -0.3114 -0.9389 0.1466
vn -0.7053 -0.4263 -0.5664
vn -0.3023 0.4011 -0.8647
vn -0.8628 0.4491 -0.2319
vn -0.9244 0.3806 -0.0244
vn -0.3488 -0.9311 -0.1070
vn 0.1813 -0.9725 -0.1461
vn -0.3827 0.6205 0.6845
vn 0.3084 0.3811 -0.8716
vn 0.6728 0.6321 -0.3844
vn 0.9097 0.4079 -0.0782
vn 0.0058 -0.9999 0.0152
vn -0.1163 -0.9918 -0.0522
vn 0.7495 0.6398 -0.1700
vn 0.0599 -0.9841 0.1669
vn 0.5662 0.6301 0.5313
vn -0.6122 0.6342 0.4723
vn -0.1313 -0.9846 0.1156
vn -0.2269 -0.8174 0.5295
vn -0.3434 -0.9372 -0.0608
vn -0.3753 0.1624 -0.9126
vn -0.2581 -0.9655 0.0341
vn 0.6719 0.4932 0.5525
vn -0.8811 0.4730 -0.0011
vn -0.1263 -0.5998 0.7901
vn -0.3722 0.6235 0.6876
vn 0.4306 0.6792 -0.5944
vn -0.1706 -0.9845 -0.0414
vn -0.7380 0.4889 -0.4651
vn 0.2315 -0.9728 -0.0026
vn -0.2295 0.0798 -0.9700
vn -0.7660 0.5271 -0.3679
vn -0.7381 0.6300 -0.2413
vn -0.9658 -0.2064 0.1567
vn -0.7958 0.6054 -0.0113
vn -0.8242 0.5007 -0.2644
vn 0.9822 0.1617 0.0957
vn 0.3482 0.6178 0.7050
vn 0.7986 0.5272 0.2904
vn 0.3301 -0.9398 -0.0888
vn -0.2728 0.5392 -0.7967
vn -0.0103 -0.9999 -0.0135
vt 0.793313 0.947777
vt 0.819546 0.983649
vt 0.780944 0.994061
vt 0.773144 0.795099
vt 0.827363 0.782628
vt 0.835822 0.759534
vt 0.759953 0.776368
vt 0.739319 0.881579
vt 0.680473 0.794412
vt 0.762954 0.145527
vt 0.779647 0.196763
vt 0.818620 0.161555
vt 0.833938 0.402962
vt 0.794928 0.418043
vt 0.850220 0.430353
vt 0.092750 0.884244
vt 0.090988 0.910606
vt 0.111134 0.900115
vt 0.857765 0.115303
vt 0.867737 0.088950
vt 0.827700 0.123737
vt 0.821164 0.034652
vt 0.803398 0.011002
vt 0.808325 0.072750
vt 0.614047 0.769054
vt 0.624756 0.737120
vt 0.656719 0.764056
vt 0.073243 0.750485
vt 0.081417 0.770513
vt 0.069901 0.766679
vt 0.698365 0.886752
vt 0.680585 0.884825
vt 0.674503 0.870566
vt 0.828004 0.056936
vt 0.678050 0.779060
vt 0.549330 0.135075
vt 0.672302 0.761724
vt 0.814980 0.099572
vt 0.747879 0.241472
vt 0.776294 0.232386
vt 0.757191 0.207644
vt 0.350573 0.820130
vt 0.299845 0.812773
vt 0.312296 0.834119
vt 0.134853 0.917315
vt 0.179060 0.834223
vt 0.184112 0.908779
vt 0.571154 0.726059
vt 0.314727 0.919172
vt 0.321604 0.888192
vt 0.341250 0.929240
vt 0.021004 0.927294
vt 0.035680 0.947821
vt 0.052208 0.910896
vt 0.371584 0.933608
vt 0.490989 0.873168
vt 0.478411 0.924703
vt 0.868727 0.057960
vt 0.977728 0.522743
vt 0.393284 0.958915
vt 0.297218 0.892599
vt 0.752204 0.309280
vt 0.299328 0.771314
vt 0.243840 0.701665
vt 0.269657 0.652524
vt 0.996279 0.037237
vt 0.948910 0.005815
vt 0.947889 0.034177
vt 0.513331 0.019534
vt 0.554363 0.076903
vt 0.459063 0.076415
vt 0.360530 0.982221
vt 0.309568 0.968675
vt 0.787177 0.215560
vt 0.696701 0.732641
vt 0.377557 0.762522
vt 0.250694 0.794150
vt 0.463127 0.641909
vt 0.472400 0.573265
vt 0.496414 0.570994
vt 0.184850 0.770739
vt 0.237267 0.755667
vt 0.763751 0.763314
vt 0.899562 0.033881
vt 0.928748 0.071236
vt 0.920670 0.043106
vt 0.509442 0.823147
vt 0.429825 0.856769
vt 0.399744 0.836790
vt 0.401826 0.771701
vt 0.375805 0.732051
vt 0.402319 0.742630
vt 0.835285 0.297980
vt 0.871796 0.346013
vt 0.877788 0.314297
vt 0.930715 0.605354
vt 0.993625 0.688781
vt 0.977583 0.612371
vt 0.590116 0.781622
vt 0.447609 0.580131
vt 0.713449 0.678584
vt 0.667088 0.612434
vt 0.636978 0.628314
vt 0.716676 0.173204
vt 0.573121 0.202971
vt 0.629889 0.239398
vt 0.560474 0.534488
vt 0.560038 0.460214
vt 0.572909 0.503773
vt 0.956952 0.757279
vt 0.938603 0.740096
vt 0.926366 0.780591
vt 0.847185 0.379411
vt 0.271243 0.833446
vt 0.251670 0.816256
vt 0.907783 0.720884
vt 0.906595 0.741478
vt 0.621915 0.742069
vt 0.679720 0.940589
vt 0.597412 0.551381
vt 0.819452 0.353939
vt 0.827725 0.571908
vt 0.804416 0.553388
vt 0.808144 0.579426
vt 0.531998 0.565681
vt 0.551439 0.577743
vt 0.710697 0.422130
vt 0.773824 0.409598
vt 0.680401 0.397122
vt 0.011034 0.888492
vt 0.006773 0.920100
vt 0.035083 0.888570
vt 0.010636 0.852862
vt 0.896637 0.921643
vt 0.913177 0.942354
vt 0.844580 0.962257
vt 0.590205 0.701495
vt 0.050094 0.869831
vt 0.890863 0.159439
vt 0.843500 0.186135
vt 0.857775 0.228548
vt 0.748216 0.938758
vt 0.773339 0.955637
vt 0.654473 0.986981
vt 0.686365 0.758403
vt 0.482418 0.481893
vt 0.465726 0.483416
vt 0.472740 0.467088
vt 0.869677 0.462531
vt 0.793880 0.482474
vt 0.404077 0.161945
vt 0.338177 0.149711
vt 0.391148 0.126683
vt 0.509067 0.281722
vt 0.484621 0.298350
vt 0.494756 0.278870
vt 0.757629 0.125919
vt 0.696738 0.148866
vt 0.085135 0.853076
vt 0.080266 0.867402
vt 0.114436 0.863586
vt 0.114638 0.929790
vt 0.881995 0.492085
vt 0.868506 0.160479
vt 0.402658 0.066418
vt 0.459641 0.335421
vt 0.574866 0.862679
vt 0.557923 0.844610
vt 0.644320 0.860404
vt 0.390993 0.696699
vt 0.417529 0.594902
vt 0.586876 0.830548
vt 0.858880 0.604212
vt 0.869082 0.628070
vt 0.456378 0.461111
vt 0.141888 0.600784
vt 0.042464 0.696189
vt 0.153197 0.660218
vt 0.917247 0.004786
vt 0.891648 0.559031
vt 0.993453 0.522818
vt 0.970920 0.255818
vt 0.983653 0.180751
vt 0.930845 0.256466
vt 0.704901 0.475100
vt 0.743050 0.032510
vt 0.697634 0.048706
vt 0.754150 0.046906
vt 0.785504 0.354179
vt 0.787221 0.291560
vt 0.232617 0.641878
vt 0.674008 0.317304
vt 0.642844 0.405159
vt 0.707713 0.362728
vt 0.204459 0.839197
vt 0.215448 0.907193
vt 0.085586 0.947403
vt 0.917518 0.869750
vt 0.955908 0.962903
vt 0.175043 0.956939
vt 0.139893 0.967362
vt 0.178162 0.997410
vt 0.057396 0.994111
vt 0.992585 0.154170
vt 0.652274 0.315726
vt 0.952367 0.110869
vt 0.921980 0.361230
vt 0.921032 0.316264
vt 0.893196 0.364123
vt 0.033572 0.832057
vt 0.133237 0.777382
vt 0.143301 0.821444
vt 0.152218 0.917555
vt 0.104023 0.946626
vt 0.154743 0.930885
vt 0.774955 0.987791
vt 0.654334 0.498922
vt 0.681901 0.503104
vt 0.741895 0.176526
vt 0.637143 0.962010
vt 0.562437 0.960041
vt 0.621192 0.942841
vt 0.769137 0.735005
vt 0.637784 0.824207
vt 0.074965 0.603350
vt 0.004833 0.580865
vt 0.027270 0.605405
vt 0.572286 0.813310
vt 0.637499 0.274850
vt 0.978184 0.116797
vt 0.883859 0.351121
vt 0.711827 0.314634
vt 0.804975 0.636785
vt 0.747103 0.666705
vt 0.843634 0.694868
vt 0.841878 0.667876
vt 0.851936 0.673677
vt 0.730511 0.198156
vt 0.184832 0.611107
vt 0.164128 0.606728
vt 0.541813 0.868763
vt 0.427025 0.869598
vt 0.308635 0.647425
vt 0.341202 0.737363
vt 0.314766 0.716366
vt 0.724907 0.616935
vt 0.736424 0.571115
vt 0.703418 0.594925
vt 0.433017 0.779802
vt 0.524604 0.563571
vt 0.529453 0.696126
vt 0.092913 0.767397
vt 0.760405 0.487465
vt 0.773312 0.551129
vt 0.126705 0.695653
vt 0.862123 0.384277
vt 0.865551 0.399062
vt 0.468740 0.110199
vt 0.455533 0.239838
vt 0.434187 0.142559
vt 0.435697 0.359912
vt 0.487115 0.099266
vt 0.767738 0.091374
vt 0.784562 0.070571
vt 0.667957 0.597513
vt 0.660333 0.849625
vt 0.881988 0.659578
vt 0.418645 0.717512
vt 0.167902 0.032829
vt 0.072898 0.067008
vt 0.076699 0.000499
vt 0.421335 0.812190
vt 0.491334 0.758453
vt 0.566168 0.637225
vt 0.540005 0.048276
vt 0.590162 0.022564
vt 0.599925 0.046739
vt 0.900707 0.864050
vt 0.814379 0.840708
vt 0.856212 0.297727
vt 0.981694 0.316139
vt 0.222479 0.853403
vt 0.225005 0.836464
vt 0.644151 0.088426
vt 0.580019 0.160139
vt 0.557727 0.139941
vt 0.500130 0.541134
vt 0.474906 0.554054
vt 0.431438 0.579227
vt 0.413890 0.548443
vt 0.007880 0.803468
vt 0.499361 0.507643
vt 0.517048 0.532319
vt 0.792686 0.608181
vt 0.764903 0.609266
vt 0.883270 0.770419
vt 0.900290 0.696697
vt 0.850390 0.557177
vt 0.980996 0.804668
vt 0.637120 0.457721
vt 0.646062 0.480519
vt 0.746530 0.098680
vt 0.717883 0.103083
vt 0.528744 0.953677
vt 0.526983 0.884368
vt 0.499257 0.925682
vt 0.932716 0.099060
vt 0.133970 0.720602
vt 0.149746 0.730387
vt 0.360244 0.586317
vt 0.256488 0.890298
vt 0.272862 0.878368
vt 0.204745 0.275983
vt 0.209841 0.163777
vt 0.209628 0.143632
vt 0.183360 0.134852
vt 0.167477 0.152632
vt 0.170745 0.171232
vt 0.126445 0.313181
vt 0.095089 0.242164
vt 0.049626 0.172003
vt 0.000347 0.105150
vt 0.245864 0.003808
vt 0.272521 0.057933
vt 0.341190 0.080618
vt 0.321510 0.144319
vt 0.386765 0.178260
vt 0.319676 0.219774
vt 0.307598 0.313248
vt 0.196278 0.177719
vt 0.858274 0.262316
vt 0.298121 0.022288
vt 0.276389 0.044455
vt 0.309831 0.047648
vt 0.100154 0.709490
vt 0.121166 0.715114
vt 0.033916 0.219453
vt 0.514586 0.114473
vt 0.193935 0.733593
vt 0.898819 0.883730
vt 0.586886 0.168733
vt 0.523820 0.132051
vt 0.491342 0.168442
vt 0.248692 0.917083
vt 0.813099 0.704308
vt 0.847587 0.915811
vt 0.544180 0.615304
vt 0.916774 0.825416
vt 0.943382 0.881202
vt 0.952511 0.826455
vt 0.073562 0.910714
vt 0.004718 0.757747
vt 0.869940 0.875486
vt 0.640973 0.651550
vt 0.451704 0.686373
vt 0.765286 0.104926
vt 0.292095 0.457423
vt 0.923788 0.755676
vt 0.485180 0.122235
vt 0.485281 0.169658
vt 0.416092 0.167902
vt 0.658709 0.570341
vt 0.588676 0.585724
vt 0.549982 0.724314
vt 0.540571 0.824438
vt 0.525664 0.789344
vt 0.525981 0.731213
vt 0.249094 0.982327
vt 0.377994 0.817702
vt 0.980919 0.703046
vt 0.799554 0.128923
vt 0.016296 0.509134
vt 0.764833 0.836215
vt 0.739985 0.552698
vt 0.864731 0.119481
vt 0.956554 0.383386
vt 0.833500 0.497766
vt 0.866530 0.399872
vt 0.859992 0.422238
vt 0.942529 0.507453
vt 0.952325 0.453005
vt 0.103021 0.554820
vt 0.737007 0.911258
vt 0.813809 0.882380
vt 0.802188 0.886498
vt 0.230368 0.831838
vt 0.883887 0.954372
vt 0.533883 0.019227
vt 0.817689 0.629502
vt 0.850798 0.655088
vt 0.857116 0.565265
vt 0.762631 0.374534
vt 0.633392 0.437233
s 0
f 22/1/1 66/2/1 81/3/1
f 154/4/2 139/5/2 138/6/2
f 71/7/3 49/8/3 99/9/3
f 101/10/4 136/11/4 121/12/4
f 93/13/5 15/14/5 46/15/5
f 17/16/6 19/17/6 11/18/6
f 109/19/7 18/20/7 108/21/7
f 21/22/8 104/23/8 103/24/8
f 28/25/9 26/26/9 27/27/9
f 150/28/10 162/29/10 51/30/10
f 49/31/11 107/32/11 103/33/11
f 103/24/12 33/34/12 21/22/12
f 39/35/13 154/36/13 88/37/13
f 108/21/14 18/20/14 107/38/14
f 95/39/15 57/40/15 96/41/15
f 163/42/16 56/43/16 58/44/16
f 20/45/17 19/46/17 109/47/17
f 26/26/18 28/25/18 29/48/18
f 130/49/19 132/50/19 133/51/19
f 84/52/20 64/53/20 132/54/20
f 79/55/21 77/56/21 78/57/21
f 18/20/22 106/58/22 107/38/22
f 112/59/23 114/60/23 78/57/23
f 62/61/24 132/50/24 130/49/24
f 97/62/25 57/40/25 95/39/25
f 166/63/26 43/64/26 42/65/26
f 50/66/27 108/67/27 47/68/27
f 40/69/28 168/70/28 39/71/28
f 110/72/29 131/73/29 133/51/29
f 57/40/30 55/74/30 96/41/30
f 31/75/31 27/27/31 26/26/31
f 56/43/32 77/76/32 79/77/32
f 91/78/33 85/79/33 87/80/33
f 45/81/34 43/64/34 44/82/34
f 138/6/35 167/83/35 154/4/35
f 49/84/36 61/85/36 48/86/36
f 43/64/37 166/63/37 44/82/37
f 15/87/38 101/88/38 76/89/38
f 50/90/39 82/91/39 73/92/39
f 16/93/40 55/94/40 72/95/40
f 80/96/41 89/97/41 126/98/41
f 30/99/42 29/48/42 28/25/42
f 85/79/43 91/78/43 164/100/43
f 23/101/44 24/102/44 10/103/44
f 46/104/45 45/105/45 94/106/45
f 158/107/46 160/108/46 92/109/46
f 78/110/47 129/111/47 53/112/47
f 96/113/48 55/94/48 16/93/48
f 57/114/49 56/43/49 55/115/49
f 129/111/50 150/116/50 134/117/50
f 158/118/51 92/119/51 94/120/51
f 93/13/52 27/121/52 15/14/52
f 120/122/53 70/123/53 117/124/53
f 156/125/54 158/118/54 157/126/54
f 144/127/55 148/128/55 149/129/55
f 66/130/56 63/131/56 62/132/56
f 66/130/57 62/132/57 81/133/57
f 36/134/58 37/135/58 104/136/58
f 132/54/59 62/132/59 63/131/59
f 132/54/60 63/131/60 84/52/60
f 31/75/61 26/26/61 111/137/61
f 35/138/62 81/133/62 62/132/62
f 152/139/63 153/140/63 53/141/63
f 11/142/64 9/143/64 23/144/64
f 71/7/65 99/9/65 98/145/65
f 67/146/66 125/147/66 35/148/66
f 42/149/67 46/15/67 14/150/67
f 159/151/68 45/152/68 44/153/68
f 124/154/69 67/155/69 24/156/69
f 111/157/70 110/158/70 101/10/70
f 24/159/71 67/160/71 10/161/71
f 9/162/72 11/18/72 19/17/72
f 55/115/73 56/43/73 79/77/73
f 42/149/74 14/150/74 73/163/74
f 10/161/75 17/16/75 11/18/75
f 108/21/76 121/12/76 20/164/76
f 166/165/77 165/166/77 44/153/77
f 119/167/78 42/168/78 82/169/78
f 89/170/79 159/171/79 91/78/79
f 42/168/80 73/172/80 82/169/80
f 39/71/81 165/166/81 166/165/81
f 156/173/82 157/174/82 80/96/82
f 35/148/83 125/147/83 81/175/83
f 117/176/84 116/177/84 118/178/84
f 107/179/85 48/86/85 47/68/85 108/67/85
f 111/137/86 26/26/86 29/48/86
f 147/180/87 80/96/87 127/181/87
f 7/182/88 54/183/88 52/184/88
f 148/128/89 144/127/89 145/185/89
f 37/186/90 105/187/90 102/188/90
f 61/85/91 47/68/91 48/86/91
f 97/62/92 59/189/92 58/190/92
f 43/64/93 45/81/93 46/191/93
f 8/192/94 150/193/94 2/194/94
f 17/195/95 18/196/95 109/47/95
f 19/17/96 65/197/96 9/162/96
f 62/198/97 105/199/97 37/135/97
f 64/200/98 83/201/98 65/202/98
f 23/203/99 65/202/99 83/201/99
f 95/204/100 160/205/100 161/206/100
f 122/207/101 110/208/101 123/209/101
f 143/210/102 152/211/102 151/212/102
f 63/213/103 66/214/103 83/201/103 84/215/103
f 77/76/104 56/43/104 163/42/104
f 65/216/105 23/144/105 9/143/105
f 128/217/106 147/218/106 145/185/106
f 101/10/107 122/219/107 136/11/107
f 61/220/108 60/221/108 70/222/108
f 57/40/109 97/62/109 58/190/109
f 88/223/110 167/83/110 138/6/110
f 28/25/111 16/224/111 30/99/111
f 113/225/112 112/226/112 135/227/112
f 16/224/113 72/228/113 30/99/113
f 94/106/114 92/229/114 160/205/114
f 82/230/115 50/66/115 47/68/115
f 123/209/116 110/208/116 133/231/116
f 161/232/117 59/189/117 97/62/117
f 114/233/118 71/234/118 72/235/118
f 23/203/119 83/201/119 66/214/119
f 79/236/120 72/235/120 55/237/120
f 96/41/121 93/238/121 95/39/121
f 119/239/122 120/240/122 118/178/122
f 31/241/123 111/242/123 101/88/123
f 119/243/124 39/244/124 41/245/124
f 16/93/125 27/121/125 96/113/125
f 22/246/126 81/247/126 125/248/126
f 76/89/127 50/90/127 75/249/127
f 154/36/128 39/71/128 168/70/128
f 88/250/129 86/251/129 87/80/129
f 152/211/130 143/210/130 142/252/130
f 3/253/131 145/185/131 127/254/131
f 118/178/132 116/177/132 168/255/132
f 119/243/133 41/245/133 42/65/133
f 122/207/134 123/209/134 132/256/134 137/257/134
f 87/258/135 85/259/135 164/260/135 44/153/135 165/261/135 39/71/135 88/262/135
f 103/24/136 104/23/136 102/188/136 32/263/136 100/264/136
f 24/102/137 22/246/137 125/248/137 124/265/137
f 100/266/138 99/9/138 103/33/138
f 99/9/139 49/8/139 103/33/139
f 157/174/140 159/267/140 80/96/140
f 119/243/141 40/268/141 39/244/141
f 41/245/142 39/244/142 166/63/142
f 126/269/143 3/270/143 127/271/143
f 15/87/144 74/272/144 14/273/144
f 158/118/145 94/120/145 159/274/145
f 102/188/146 105/187/146 32/263/146
f 80/275/147 128/276/147 156/277/147
f 61/85/148 82/230/148 47/68/148
f 143/278/149 139/5/149 142/279/149
f 52/184/150 150/280/150 8/281/150
f 34/282/151 17/195/151 67/283/151
f 154/36/152 168/70/152 116/284/152 153/285/152 155/286/152
f 106/58/153 33/34/153 103/24/153 107/38/153
f 146/287/154 162/288/154 150/289/154 163/290/154 59/291/154 161/292/154 128/293/154
f 48/86/155 107/179/155 49/84/155
f 115/294/156 69/295/156 114/233/156
f 76/89/157 74/272/157 15/87/157
f 158/118/158 159/274/158 157/126/158
f 71/234/159 114/233/159 69/295/159
f 140/296/160 141/297/160 138/6/160
f 27/27/161 16/224/161 28/25/161
f 70/123/162 120/122/162 119/298/162
f 53/112/163 112/299/163 78/110/163
f 162/300/164 146/301/164 145/185/164 144/127/164
f 32/263/165 105/187/165 29/302/165
f 80/96/166 159/267/166 89/97/166
f 161/292/167 158/107/167 128/293/167
f 158/107/168 156/125/168 128/293/168
f 109/47/169 19/46/169 17/195/169
f 131/303/170 110/158/170 111/157/170 29/302/170
f 106/304/171 34/305/171 33/306/171
f 61/85/172 70/307/172 82/230/172
f 152/211/173 155/308/173 153/309/173
f 77/310/174 163/290/174 150/289/174
f 33/311/175 34/282/175 67/283/175 21/312/175
f 151/313/176 13/314/176 4/315/176 12/316/176 68/317/176 1/318/176 54/319/176 7/320/176 2/321/176 148/322/176 3/270/176 126/269/176 89/323/176 90/324/176 86/325/176 5/326/176 141/327/176 140/328/176 143/329/176
f 13/314/177 151/313/177 6/330/177
f 134/331/178 52/184/178 54/183/178 53/141/178
f 67/332/179 124/333/179 125/334/179
f 43/64/180 46/191/180 42/65/180
f 154/335/181 155/336/181 142/252/181
f 133/51/182 131/73/182 130/49/182
f 8/337/183 2/321/183 7/320/183
f 95/39/184 161/232/184 97/62/184
f 52/184/185 134/331/185 150/280/185
f 102/188/186 104/23/186 37/186/186
f 167/338/187 88/37/187 154/36/187
f 154/4/188 142/279/188 139/5/188
f 40/339/189 119/239/189 118/178/189
f 113/225/190 135/227/190 116/177/190
f 164/100/191 91/78/191 159/171/191
f 42/65/192 41/245/192 166/63/192
f 62/198/193 37/135/193 35/340/193
f 141/341/194 5/342/194 25/343/194
f 141/297/195 88/223/195 138/6/195
f 56/43/196 57/114/196 58/44/196
f 34/282/197 106/344/197 18/196/197
f 14/273/198 74/272/198 75/249/198
f 7/182/199 52/184/199 8/281/199
f 83/201/200 64/200/200 84/215/200
f 98/345/201 72/235/201 71/234/201
f 122/219/202 101/10/202 110/158/202
f 36/134/203 104/136/203 21/346/203 35/340/203
f 143/278/204 140/296/204 138/6/204 139/5/204
f 88/250/205 25/347/205 86/251/205
f 161/292/206 160/108/206 158/107/206
f 87/80/207 86/251/207 91/78/207
f 153/348/208 116/349/208 135/350/208
f 132/256/209 123/209/209 133/231/209
f 64/53/210 65/197/210 137/351/210 132/54/210
f 149/352/211 150/28/211 51/30/211
f 160/205/212 46/104/212 94/106/212
f 21/346/213 67/353/213 35/340/213
f 141/354/214 25/347/214 88/250/214
f 137/351/215 65/197/215 19/17/215
f 91/78/216 90/355/216 89/170/216
f 114/356/217 113/225/217 115/357/217
f 53/112/218 129/111/218 134/358/218
f 75/249/219 50/90/219 73/92/219 14/273/219
f 14/150/220 46/15/220 15/14/220
f 91/78/221 86/251/221 90/355/221
f 76/89/222 75/249/222 74/272/222
f 145/185/223 3/253/223 148/128/223
f 25/359/224 5/360/224 86/361/224
f 94/120/225 45/362/225 159/363/225
f 32/364/226 72/228/226 98/365/226 99/366/226
f 101/88/227 15/87/227 31/241/227
f 78/57/228 114/60/228 79/55/228
f 99/366/229 100/367/229 32/364/229
f 131/73/230 105/368/230 62/61/230
f 108/369/231 50/90/231 76/89/231
f 35/340/232 37/135/232 36/134/232
f 30/99/233 32/364/233 29/48/233
f 77/370/234 150/116/234 129/111/234
f 127/254/235 145/185/235 147/218/235
f 118/178/236 120/240/236 117/176/236
f 76/371/237 101/10/237 121/12/237
f 113/225/238 117/176/238 115/357/238
f 32/364/239 30/99/239 72/228/239
f 135/350/240 112/299/240 53/112/240
f 53/112/241 153/348/241 135/350/241
f 58/44/242 59/372/242 163/42/242
f 53/141/243 54/183/243 152/139/243
f 49/8/244 71/7/244 69/373/244
f 117/124/245 60/374/245 69/295/245 115/294/245
f 79/236/246 114/233/246 72/235/246
f 49/84/247 60/375/247 61/85/247
f 128/217/248 145/185/248 146/301/248
f 160/205/249 95/39/249 93/238/249
f 131/73/250 62/61/250 130/49/250
f 1/318/251 6/330/251 151/313/251 54/319/251
f 10/161/252 67/160/252 17/16/252
f 126/98/253 127/181/253 80/96/253
f 121/12/254 108/21/254 76/371/254
f 137/257/255 136/376/255 122/207/255
f 40/339/256 118/178/256 168/255/256
f 77/370/257 129/111/257 78/110/257
f 44/153/258 164/260/258 159/151/258
f 27/121/259 93/13/259 96/113/259
f 2/194/260 150/193/260 149/129/260
f 119/298/261 82/377/261 70/123/261
f 137/378/262 19/379/262 20/380/262 121/381/262
f 112/226/263 113/225/263 114/382/263
f 70/123/264 60/374/264 117/124/264
f 10/383/265 11/142/265 23/144/265
f 23/384/266 66/2/266 22/1/266
f 108/21/267 20/164/267 109/19/267
f 49/8/268 69/373/268 60/385/268
f 29/302/269 105/187/269 131/303/269
f 2/194/270 149/129/270 148/128/270
f 155/308/271 152/211/271 142/252/271
f 22/246/272 24/102/272 23/101/272
f 54/386/273 151/212/273 152/387/273
f 17/195/274 34/282/274 18/196/274
f 117/176/275 113/225/275 116/177/275
f 147/388/276 128/276/276 80/275/276
f 121/389/277 136/390/277 137/391/277
f 46/104/278 160/205/278 93/238/278
f 27/121/279 31/392/279 15/14/279
f 162/300/280 144/127/280 149/129/280 51/393/280
f 68/317/281 12/316/281 4/315/281 13/314/281 6/330/281 1/318/281
