# Blender 4.1.1
# www.blender.org
mtllib pine1(stem)lowpoly1.mtl
o Tree_2.stem_lowpoly1
v 1.589542 -0.110148 1.111946
v -1.195293 7.689658 -0.058416
v -0.166481 9.796135 -0.534264
v -0.495326 10.636038 1.189604
v -1.152066 -0.110148 -1.525244
v -1.752222 10.957165 -1.737663
v 1.080584 -0.116653 -1.302127
v -1.828476 -0.117086 1.931125
v -1.424321 10.973348 0.123949
v -1.116908 10.100501 0.981727
v -2.433185 -0.111555 0.000245
v 0.300075 11.208523 0.774260
v 0.494666 -0.103186 2.346425
v -1.631424 10.602448 -0.812337
v 0.188612 10.308051 1.113704
v 0.727257 3.909703 0.902142
v 0.182646 3.807565 -0.827012
vn -0.1758 0.0894 0.9804
vn 0.9382 0.0678 0.3394
vn 0.8902 0.0600 0.4515
vn 0.9119 0.0729 -0.4038
vn 0.0988 0.1419 -0.9849
vn 0.9596 0.1952 -0.2028
vn -0.7607 0.1159 -0.6387
vn 0.9199 0.2473 -0.3043
vn -0.9451 0.1376 0.2964
vn 0.7348 0.1916 0.6506
vn -0.9451 0.0917 0.3136
vn 0.1665 0.1208 0.9786
vn -0.9639 -0.0813 0.2537
vn -0.0903 -0.4674 -0.8794
vn 0.9517 0.0504 -0.3027
vn -0.4490 0.0175 -0.8934
vn -0.0279 0.1846 -0.9824
vt 0.245314 0.022702
vt 0.157471 0.030099
vt 0.076796 0.034610
vt 0.459104 0.009946
vt 0.331665 0.016932
vt 0.458609 0.024473
vt 0.725900 0.023623
vt 0.751802 0.042172
vt 0.689142 0.027221
vt 0.842730 0.037055
vt 0.431613 0.017553
vt 0.934868 0.040257
vt 0.895877 0.039532
vt 1.025156 0.037667
vt 1.107788 0.027356
vt 1.036990 0.031594
vt 0.871184 0.068675
vt 0.931037 0.048289
vt 0.838261 0.096713
s 0
usemtl Material.001
f 13/1/1 4/2/1 8/3/1
f 13/1/2 16/4/2 15/5/2
f 12/6/3 15/5/3 16/4/3
f 12/6/4 17/7/4 3/8/4
f 7/9/5 5/10/5 17/7/5
f 1/11/6 7/9/6 16/4/6
f 5/10/7 11/12/7 2/13/7
f 16/4/8 7/9/8 17/7/8
f 11/12/9 8/14/9 4/15/9
f 13/1/10 1/11/10 16/4/10
f 4/15/11 10/16/11 2/13/11 11/12/11
f 4/2/12 13/1/12 15/5/12
f 14/17/13 2/13/13 10/16/13 9/18/13
f 14/17/14 6/19/14 3/8/14 2/13/14
f 17/7/15 12/6/15 16/4/15
f 3/8/16 17/7/16 2/13/16
f 17/7/17 5/10/17 2/13/17
