# Blender 4.1.1
# www.blender.org
mtllib pine1(stem)lowpoly2.mtl
o Pine2.stem_lowpoly3
v 0.166652 10.295273 2.399739
v 1.092605 -0.118779 2.265615
v -2.323172 -0.033189 2.592873
v 0.536021 -0.088695 -1.412551
v 1.399320 9.187277 1.569274
v 0.943724 11.014128 -0.354757
v -1.817919 11.226159 1.075030
v -1.967865 13.528193 0.456426
v -0.095740 13.853371 2.417377
v -0.702130 11.448388 -0.944670
v -0.338048 13.707064 0.134088
vn 0.7459 0.5622 0.3571
vn 0.9877 -0.0438 -0.1498
vn 0.9703 -0.0126 -0.2417
vn 0.3958 0.3430 -0.8518
vn -0.1189 0.9916 -0.0509
vn 0.9553 0.0690 0.2875
vn 0.8873 0.4446 -0.1227
vn -0.5694 -0.0461 0.8207
vn 0.0953 -0.0044 0.9954
vn -0.7278 0.1334 0.6727
vn -0.2205 0.4491 -0.8658
vn 0.3541 0.0758 -0.9321
vn -0.8127 -0.0637 -0.5792
vn -0.8738 -0.0263 -0.4856
vn -0.5045 0.1375 0.8524
vn 0.5836 0.0414 0.8110
vn -0.8510 -0.1873 -0.4907
vt 0.828597 0.488035
vt 0.820978 0.512412
vt 0.379572 0.638106
vt 0.710613 0.128260
vt 0.885553 0.052608
vt 0.848543 0.274886
vt 0.048842 0.738336
vt 0.950593 0.163076
vt 0.960346 0.202018
vt 0.968910 0.180177
vt 0.811028 0.487958
vt 0.820926 0.483337
vt 0.808264 0.499455
vt 0.776849 0.616452
vt 0.492883 0.855487
vt 0.626969 0.934606
vt 0.778413 0.960561
s 0
usemtl Material
f 6/1/1 1/2/1 5/3/1
f 4/4/2 5/5/2 2/6/2
f 6/7/3 5/3/3 4/4/3
f 11/8/4 6/9/4 10/10/4
f 8/11/5 9/12/5 11/8/5
f 9/12/6 1/2/6 6/1/6
f 11/8/7 9/12/7 6/1/7
f 7/13/8 1/2/8 9/12/8
f 3/14/9 2/6/9 1/2/9
f 9/12/10 8/11/10 7/13/10
f 10/15/11 8/11/11 11/8/11
f 4/4/12 10/15/12 6/7/12
f 4/4/13 3/16/13 10/15/13
f 3/16/14 7/17/14 10/15/14
f 7/13/15 3/14/15 1/2/15
f 2/6/16 5/3/16 1/2/16
f 10/15/17 7/17/17 8/11/17
