# Blender 4.1.1
# www.blender.org
mtllib pine1(stem).mtl
o Tree_1.003
v -1.941357 -0.110148 -0.367124
v -0.774453 -0.110149 2.367549
v 0.774650 -0.110148 -1.577771
v 1.941555 -0.110148 1.156902
v 1.011061 3.679873 -0.267082
v -1.125992 4.785878 -0.219529
v 1.145621 3.679874 0.751800
v 0.921080 11.121962 0.857970
v 0.287355 9.635310 -0.672271
v 0.830771 9.298700 0.729944
v -0.420064 9.045608 1.364858
v 0.907233 5.595100 0.909629
v 0.633350 5.605433 -0.396997
v -0.632250 4.866786 1.542322
v -0.800053 -0.110148 -1.480288
v 0.818915 -0.110148 2.313808
v -0.237690 4.739577 -0.775703
v 0.395387 4.800930 1.613192
v -0.214595 10.728848 1.492226
v -0.902035 9.123140 -0.184074
v 0.275293 9.140412 1.363125
v -1.400209 10.957165 -1.692706
v 1.831818 -0.110148 -0.567693
v 1.233642 3.679874 0.135066
v -1.887617 -0.110149 1.226245
v -1.072308 10.973348 0.168905
v -0.914755 9.039583 0.685845
v -1.209362 4.860566 0.744840
v 0.730551 10.506939 0.025852
v 1.112926 2.038574 1.650876
v -1.077408 2.367083 -0.801306
v 1.248730 1.793604 -0.753115
v -1.206702 2.389881 1.499994
v -0.707397 10.115755 0.988037
v 0.554579 10.303184 1.161148
v -1.279411 10.602448 -0.767381
v -0.769946 6.395085 -0.372727
v 0.657771 7.397014 1.236090
v -0.813230 7.202485 1.103220
v 0.795444 7.480344 0.149965
v 0.838212 4.547515 1.316276
v 0.952722 4.409631 0.263800
v 0.466148 4.552496 -0.698484
v -0.652882 10.318712 -1.120707
v -0.122261 7.237525 1.497193
v -0.010346 7.386913 -0.563802
v -0.113738 9.926805 1.453770
v 0.167537 2.040434 -1.222810
v -0.104768 2.387287 2.042825
v 1.630489 1.793520 0.469344
v -1.061017 7.189247 0.291029
v -1.041353 9.933171 0.272043
v -1.617484 2.390892 0.298230
vn 0.9880 -0.0589 0.1426
vn 0.9349 0.2017 -0.2920
vn 0.4348 0.2700 -0.8591
vn 0.8385 0.1612 0.5205
vn -0.9343 0.1584 0.3195
vn -0.4360 0.1593 0.8858
vn -0.5213 0.1295 -0.8435
vn -0.3353 0.0759 -0.9390
vn -0.9092 0.0368 0.4147
vn 0.3440 0.1616 0.9250
vn 0.9083 0.2282 0.3505
vn -0.8053 0.1138 0.5819
vn -0.8074 0.0526 0.5877
vn -0.9999 0.0071 -0.0139
vn 0.7456 0.0436 0.6650
vn -0.0613 0.1114 0.9919
vn -0.5810 -0.6054 -0.5441
vn 0.3051 0.0632 0.9502
vn 0.3806 0.0423 0.9238
vn 0.0335 0.1200 0.9922
vn 0.9890 0.1155 0.0925
vn 0.7696 0.0666 0.6351
vn 0.9915 0.0267 0.1277
vn -0.4967 0.0620 0.8657
vn -0.9544 0.0714 0.2900
vn 0.4651 0.1276 -0.8760
vn 0.6627 0.0057 -0.7489
vn 0.9779 0.0425 -0.2046
vn -0.9818 -0.1187 0.1484
vn 0.8517 0.2288 -0.4714
vn 0.8914 0.1459 -0.4291
vn -0.0611 0.1457 -0.9874
vn -0.2794 -0.2379 -0.9302
vn 0.0003 0.0161 0.9999
vn 0.9328 0.0052 -0.3603
vn 0.9883 0.1388 -0.0629
vn 0.3136 0.0976 -0.9445
vn -0.6142 0.0153 0.7890
vn 0.9641 0.2272 0.1376
vn -0.9923 0.1196 0.0335
vn -0.9889 0.1145 -0.0944
vn 0.9766 0.1719 -0.1290
vn -0.2759 0.1694 -0.9461
vn -0.8846 0.1605 -0.4380
vn -0.6934 0.1172 -0.7109
vn -0.7109 0.1177 0.6934
vn 0.7128 0.1159 0.6917
vn 0.6840 0.1398 -0.7159
vn -0.8914 0.0497 -0.4504
vn -0.0000 1.0000 -0.0000
vt 0.646336 0.026504
vt 0.458271 0.024572
vt 0.331612 0.016927
vt 0.484054 0.014375
vt 0.605673 0.014834
vt 0.528384 0.015099
vt 0.630671 0.022731
vt 0.682710 0.023899
vt 0.783450 0.030930
vt 0.676442 0.018223
vt 0.742433 0.031313
vt 0.475217 0.009801
vt 0.312754 0.012781
vt 0.219425 0.017570
vt 0.312074 0.016692
vt 0.997764 0.032970
vt 0.965872 0.036883
vt 1.025156 0.037667
vt 1.058740 0.032508
vt 0.162321 0.024889
vt 0.093552 0.027296
vt 0.058740 0.032508
vt 0.125084 0.031751
vt 0.912936 0.035652
vt 0.878826 0.034665
vt 0.820058 0.031110
vt 0.879652 0.036493
vt 0.893452 0.041558
vt 0.793957 0.030819
vt 0.931037 0.048289
vt 0.942982 0.041963
vt 0.991003 0.033932
vt 1.037745 0.031543
vt 0.247921 0.022679
vt 0.431613 0.017553
vt 1.093552 0.027296
vt 1.043703 0.029633
vt 1.108378 0.027321
vt 0.950271 0.035008
vt 0.231049 0.018289
vt 0.311895 0.013793
vt 0.148752 0.022112
vt 0.838261 0.096713
vt 0.817309 0.063733
vt 0.871184 0.068675
vt 0.158356 0.030273
vt 0.164937 0.025591
vt 0.622916 0.010738
vt 0.416074 0.009314
vt 0.644251 0.015734
vt 0.108378 0.027321
vt 0.043703 0.029633
vt 0.751877 0.025748
vt 0.744523 0.039776
vt 0.722720 0.021991
vt 0.842730 0.037055
vt 0.037745 0.031543
vt 0.934106 0.040341
vt 0.025156 0.037667
s 0
usemtl Material.001
f 29/1/1 8/2/1 35/3/1 10/4/1
f 24/5/2 50/6/2 23/7/2 32/8/2
f 48/9/3 5/10/3 32/8/3 3/11/3
f 7/12/4 41/13/4 18/14/4 30/15/4
f 28/16/5 53/17/5 25/18/5 33/19/5
f 49/20/6 14/21/6 33/22/6 2/23/6
f 6/24/7 37/25/7 17/26/7 31/27/7
f 20/28/8 46/29/8 17/26/8 37/25/8
f 26/30/9 52/31/9 27/32/9 34/33/9
f 18/14/10 49/20/10 16/34/10 30/15/10
f 7/12/11 30/15/11 4/35/11 50/6/11
f 33/19/12 14/36/12 39/37/12 28/16/12
f 27/32/13 39/37/13 11/38/13 34/33/13
f 51/39/14 27/32/14 52/31/14 20/28/14
f 21/40/15 38/41/15 10/4/15 35/3/15
f 14/21/16 49/20/16 18/14/16 45/42/16
f 22/43/17 44/44/17 20/28/17 36/45/17
f 21/40/18 45/42/18 18/14/18 38/41/18
f 19/46/19 47/47/19 21/40/19 35/3/19
f 2/23/20 16/34/20 49/20/20
f 7/12/21 42/48/21 12/49/21 41/13/21
f 18/14/22 41/13/22 12/49/22 38/41/22
f 40/50/23 10/4/23 38/41/23 12/49/23
f 11/51/24 39/52/24 14/21/24 45/42/24
f 27/32/25 51/39/25 28/16/25 39/37/25
f 43/53/26 5/10/26 48/9/26 17/26/26
f 9/54/27 40/50/27 13/55/27 46/29/27
f 42/48/28 13/55/28 40/50/28 12/49/28
f 20/28/29 52/31/29 26/30/29 36/45/29
f 24/5/30 32/8/30 5/10/30
f 42/48/31 5/10/31 43/53/31 13/55/31
f 3/11/32 15/56/32 48/9/32
f 9/54/33 46/29/33 20/28/33 44/44/33
f 45/42/34 21/40/34 47/47/34 11/51/34
f 10/4/35 40/50/35 9/54/35 29/1/35
f 4/35/36 23/7/36 50/6/36
f 43/53/37 17/26/37 46/29/37 13/55/37
f 34/57/38 11/51/38 47/47/38 19/46/38
f 7/12/39 50/6/39 24/5/39
f 1/58/40 25/18/40 53/17/40
f 6/24/41 53/17/41 28/16/41 51/39/41
f 7/12/42 5/10/42 42/48/42
f 17/26/43 48/9/43 15/56/43 31/27/43
f 6/24/44 31/27/44 1/58/44 53/17/44
f 15/56/45 1/58/45 31/27/45
f 25/59/46 2/23/46 33/22/46
f 16/34/47 4/35/47 30/15/47
f 23/7/48 3/11/48 32/8/48
f 51/39/49 20/28/49 37/25/49 6/24/49
f 24/5/50 5/10/50 7/12/50
