# Blender 4.1.1
# www.blender.org
mtllib pine1(leaves)lowpoly2.mtl
o Pine2.leaves_lowpoly3
v -4.051339 6.965182 8.375276
v 2.448236 21.588482 4.455965
v 0.648632 32.224617 0.351098
v -5.683855 27.080971 -3.874549
v -0.805273 36.533905 -1.690231
v 4.933755 21.325310 -3.121927
v -2.228935 31.887949 0.112504
v -0.049332 26.849247 -7.212500
v 2.331774 -1.918648 -0.041394
v -2.050215 13.900189 6.831447
v 3.336083 14.463591 6.736951
v -3.001907 26.789928 -0.599671
v 0.536018 12.451815 -7.093140
v -6.542192 6.801970 -6.964610
v 2.066279 19.459185 -6.452456
v -5.521059 20.558556 1.973750
v -0.253102 31.618202 -4.165355
v 3.919856 31.988041 -2.104567
v -6.450081 19.535591 -5.787911
v 1.115226 26.665531 0.930145
v -1.638163 13.991428 -9.957521
v 8.754300 6.902191 2.026068
v -2.538604 20.325743 5.534263
v 5.943958 12.851778 3.710156
v 1.792140 7.010178 9.087440
v 7.981929 14.155061 4.600009
v 5.326916 20.889391 0.270116
v 6.048888 14.101586 -9.624425
v -0.892977 21.645409 -6.775333
v 1.369356 26.668243 -4.305624
v -5.299816 27.526768 1.706661
v -0.748391 26.835331 3.729712
v 6.202400 26.893787 -3.769468
v -4.936272 14.245083 -6.013550
v -5.093734 20.134626 -2.876017
v 4.190904 26.848751 -0.025669
v -3.296804 32.432377 -1.975546
v -5.779173 7.071872 6.261128
v -6.532731 13.352141 2.722671
v 6.273174 7.153450 -8.888473
v -9.060660 7.180496 2.446785
v 6.426575 13.503066 -4.465949
v 10.311470 13.945122 -3.100642
v -8.564350 13.714706 1.658772
vn 0.3627 0.4513 -0.8154
vn -0.3652 0.6501 -0.6663
vn -0.1983 -0.9736 0.1134
vn -0.7146 0.3267 -0.6186
vn 0.3498 0.6560 -0.6688
vn -0.7995 -0.4289 0.4206
vn 0.3414 0.3323 -0.8792
vn 0.3738 0.4702 0.7995
vn 0.2896 0.1024 0.9516
vn -0.7563 0.4248 0.4975
vn 0.0936 -0.9941 0.0554
vn -0.4350 0.4715 -0.7671
vn 0.0246 -0.9914 0.1282
vn -0.9043 0.0173 -0.4265
vn -0.1214 0.3912 0.9123
vn -0.3145 -0.9454 -0.0857
vn 0.2263 -0.7653 0.6025
vn 0.7064 0.1371 0.6944
vn -0.7235 0.2929 0.6252
vn 0.7602 0.3925 -0.5177
vn 0.9678 0.1278 -0.2171
vn 0.3666 0.6011 0.7101
vn -0.2870 0.5006 0.8167
vn 0.5421 0.5021 0.6738
vn 0.3016 0.2171 -0.9284
vn -0.6635 0.3053 0.6831
vn 0.3188 0.2987 -0.8995
vn -0.0171 0.6876 0.7259
vn 0.3587 -0.9331 0.0249
vn -0.4837 0.3497 -0.8023
vn -0.4179 -0.7215 0.5521
vn 0.1564 0.2069 0.9658
vn -0.5292 0.5543 -0.6424
vn 0.9100 0.4055 0.0860
vn 0.7511 0.4981 0.4333
vn 0.5490 -0.8351 -0.0341
vn -0.6478 0.4994 0.5753
vn -0.7263 0.2692 0.6325
vn 0.6474 0.2743 -0.7111
vn -0.1328 0.5509 0.8239
vn -0.6610 0.2012 -0.7229
vn -0.7721 0.0284 0.6348
vn 0.8144 0.2665 0.5155
vn 0.0544 0.6455 -0.7618
vn 0.9795 0.1954 -0.0490
vn -0.0604 -0.9976 -0.0327
vn -0.8920 0.1937 -0.4084
vn -0.0150 0.3032 0.9528
vn -0.7190 0.3421 0.6049
vn -0.1191 0.2484 0.9613
vn 0.7710 0.4786 0.4200
vn 0.8401 0.4861 0.2409
vn -0.6157 0.7158 -0.3295
vn 0.9791 0.1822 -0.0901
vn -0.7038 0.3192 -0.6346
vn 0.8657 0.2952 -0.4041
vn 0.7308 0.5083 0.4556
vn -0.3436 -0.9108 -0.2288
vn 0.0976 -0.9874 0.1249
vn 0.0293 0.5253 -0.8504
vn -0.9365 0.2353 -0.2601
vn -0.9076 0.1513 0.3916
vn 0.1456 -0.9435 -0.2978
vn 0.8081 0.5888 -0.0180
vn 0.9238 0.3092 -0.2259
vn -0.0608 -0.9979 0.0239
vn -0.6200 0.1097 0.7769
vn -0.1509 0.1668 -0.9744
vn -0.9365 0.3325 -0.1116
vn -0.4395 0.1404 0.8872
vn -0.9056 0.4080 -0.1155
vn 0.5720 0.3241 0.7535
vn 0.2571 0.5481 -0.7959
vn 0.0973 -0.8412 0.5318
vn -0.0607 -0.9974 -0.0389
vn 0.0453 -0.9989 0.0123
vn -0.1419 0.1555 -0.9776
vn 0.0040 -1.0000 -0.0008
vt 0.812262 0.887315
vt 0.819546 0.983649
vt 0.780944 0.994061
vt 0.759953 0.776368
vt 0.683887 0.872161
vt 0.685594 0.763115
vt 0.842496 0.137631
vt 0.868137 0.076423
vt 0.816532 0.071722
vt 0.371584 0.933608
vt 0.490989 0.873168
vt 0.617402 0.812812
vt 0.778172 0.344293
vt 0.781111 0.238192
vt 0.756714 0.209375
vt 0.996279 0.037237
vt 0.948910 0.005815
vt 0.904055 0.030220
vt 0.275160 0.826745
vt 0.370471 0.777651
vt 0.250694 0.794150
vt 0.524235 0.691861
vt 0.420207 0.593784
vt 0.507015 0.568202
vt 0.509442 0.823147
vt 0.429517 0.858181
vt 0.401165 0.835170
vt 0.714314 0.673932
vt 0.676034 0.604223
vt 0.636978 0.628314
vt 0.509417 0.530178
vt 0.560038 0.460214
vt 0.572909 0.503773
vt 0.911081 0.876911
vt 0.939492 0.955009
vt 0.845399 0.949602
vt 0.077149 0.916775
vt 0.026100 0.875449
vt 0.024396 0.930450
vt 0.890863 0.159439
vt 0.843500 0.186135
vt 0.857775 0.228548
vt 0.740184 0.919053
vt 0.773930 0.967390
vt 0.654473 0.986981
vt 0.482418 0.481893
vt 0.465726 0.483416
vt 0.461887 0.463123
vt 0.406629 0.164427
vt 0.338177 0.149711
vt 0.395673 0.102989
vt 0.406809 0.694009
vt 0.149777 0.602893
vt 0.048911 0.696148
vt 0.183536 0.613119
vt 0.590205 0.701495
vt 0.669612 0.753662
vt 0.567868 0.730273
vt 0.891648 0.559031
vt 0.975424 0.635079
vt 0.993453 0.522818
vt 0.261758 0.761072
vt 0.184850 0.770739
vt 0.232617 0.641878
vt 0.211852 0.838868
vt 0.228886 0.911191
vt 0.163630 0.912328
vt 0.057396 0.994111
vt 0.178162 0.997410
vt 0.156124 0.944939
vt 0.992585 0.154170
vt 0.652274 0.315726
vt 0.952367 0.110869
vt 0.769137 0.735005
vt 0.774475 0.793713
vt 0.875079 0.769794
vt 0.637784 0.824207
vt 0.561836 0.815339
vt 0.978184 0.116797
vt 0.794266 0.628078
vt 0.747103 0.666705
vt 0.833689 0.690620
vt 0.736424 0.571115
vt 0.544687 0.132322
vt 0.467897 0.072407
vt 0.629952 0.095647
vt 0.308635 0.647425
vt 0.351795 0.734289
vt 0.269657 0.652524
vt 0.660333 0.849625
vt 0.859863 0.606511
vt 0.881988 0.659578
vt 0.420315 0.749901
vt 0.550161 0.599263
vt 0.641467 0.571827
vt 0.566168 0.637225
vt 0.918461 0.100704
vt 0.900707 0.864050
vt 0.179060 0.834223
vt 0.528744 0.953677
vt 0.526983 0.884368
vt 0.499257 0.925682
vt 0.272862 0.878368
vt 0.256488 0.890298
vt 0.360212 0.981347
vt 0.309568 0.968675
vt 0.321345 0.889361
vt 0.711827 0.314634
vt 0.744339 0.096606
vt 0.808239 0.017446
vt 0.715081 0.042484
vt 0.158101 0.531603
vt 0.011825 0.588513
vt 0.900290 0.696697
vt 0.616707 0.642463
vt 0.861658 0.399972
vt 0.934377 0.369279
vt 0.920419 0.316838
vt 0.728444 0.194428
vt 0.590661 0.214799
vt 0.869940 0.875486
vt 0.541813 0.868763
vt 0.393284 0.958915
vt 0.249094 0.982327
vt 0.297218 0.892599
vt 0.377994 0.817702
vt 0.980919 0.703046
vt 0.907787 0.720817
vt 0.948723 0.778979
vt 0.799554 0.128923
vt 0.759824 0.158559
vt 0.016296 0.509134
vt 0.981376 0.201359
vt 0.764833 0.836215
vt 0.374333 0.576370
vt 0.007880 0.803468
vt 0.431438 0.579227
vt 0.319609 0.219742
vt 0.301186 0.310925
vt 0.115797 0.294749
vt 0.193935 0.733593
vt 0.687441 0.335407
vt 0.642844 0.405159
vt 0.761715 0.438409
vt 0.802188 0.886498
vt 0.146486 0.728365
vt 0.040339 0.831075
vt 0.099629 0.713684
vt 0.817689 0.629502
vt 0.850798 0.655088
vt 0.857116 0.565265
vt 0.652458 0.494325
vt 0.633392 0.437233
vt 0.696738 0.148866
vt 0.856205 0.297843
vt 0.370406 0.169751
vt 0.019736 0.082440
vt 0.194324 0.028186
vt 0.341190 0.080618
s 0
f 5/1/1 18/2/1 17/3/1
f 19/4/2 12/5/2 29/6/2
f 32/7/3 31/8/3 12/9/3
f 29/10/4 21/11/4 34/12/4
f 28/13/5 15/14/5 6/15/5
f 2/16/6 32/17/6 12/18/6
f 15/19/7 21/20/7 29/21/7
f 25/22/8 24/23/8 10/24/8
f 27/25/9 36/26/9 20/27/9
f 5/28/10 37/29/10 7/30/10
f 42/31/11 43/32/11 26/33/11
f 17/34/12 8/35/12 4/36/12
f 3/37/13 17/38/13 18/39/13
f 41/40/14 44/41/14 34/42/14
f 7/43/15 3/44/15 5/45/15
f 7/46/16 37/47/16 17/48/16
f 24/49/17 26/50/17 11/51/17
f 22/52/18 24/23/18 25/22/18
f 16/53/19 44/54/19 23/55/19
f 36/56/20 6/57/20 30/58/20
f 42/59/21 22/60/21 40/61/21
f 11/62/22 26/63/22 27/64/22
f 7/65/23 31/66/23 32/67/23
f 5/68/24 3/69/24 18/70/24
f 6/71/25 43/72/25 42/73/25
f 10/74/26 39/75/26 38/76/26
f 15/77/27 29/78/27 30/58/27
f 23/79/28 2/16/28 12/18/28
f 35/80/29 19/81/29 29/82/29
f 5/28/30 17/83/30 37/29/30
f 39/84/31 10/85/31 44/86/31
f 23/87/32 10/88/32 2/89/32
f 30/90/33 29/6/33 12/5/33
f 42/91/34 24/92/34 22/60/34
f 27/25/35 20/27/35 2/93/35
f 42/94/36 26/95/36 24/96/36
f 16/97/37 23/79/37 12/18/37
f 41/98/38 38/76/38 39/75/38
f 6/57/39 15/77/39 30/58/39
f 32/67/40 3/99/40 7/65/40
f 31/100/41 7/101/41 12/102/41
f 7/65/42 4/103/42 12/104/42
f 11/62/43 27/64/43 2/89/43
f 33/105/44 30/106/44 3/107/44
f 6/15/45 42/108/45 28/13/45
f 30/109/46 4/110/46 8/111/46
f 35/112/47 34/113/47 44/54/47
f 2/89/48 10/88/48 11/62/48
f 1/114/49 10/74/49 38/76/49
f 10/24/50 1/115/50 25/22/50
f 3/116/51 36/117/51 33/118/51
f 43/72/52 27/119/52 26/120/52
f 4/36/53 7/121/53 17/34/53
f 36/26/54 27/25/54 6/122/54
f 34/12/55 35/123/55 29/10/55
f 30/106/56 8/124/56 17/125/56
f 32/126/57 2/93/57 20/27/57
f 21/127/58 13/128/58 34/129/58
f 20/130/59 36/131/59 32/7/59
f 15/19/60 28/132/60 21/20/60
f 34/42/61 14/133/61 41/40/61
f 12/5/62 19/4/62 35/134/62
f 21/135/63 28/136/63 42/31/63 13/137/63
f 43/72/64 6/15/64 27/119/64
f 30/106/65 17/125/65 3/107/65
f 38/138/66 41/139/66 14/140/66
f 10/141/67 23/55/67 44/54/67
f 14/142/68 13/143/68 40/144/68
f 12/5/69 35/134/69 16/145/69
f 44/146/70 41/147/70 39/148/70
f 16/53/71 35/112/71 44/54/71
f 32/149/72 36/150/72 3/151/72
f 42/152/73 40/144/73 13/153/73
f 24/49/74 11/51/74 10/85/74
f 30/109/75 12/9/75 4/110/75
f 30/109/76 33/154/76 36/131/76
f 34/42/77 13/155/77 14/133/77
f 1/156/78 38/138/78 14/140/78 40/157/78 22/158/78 25/159/78
