# Blender 4.1.1
# www.blender.org
mtllib tree4(leaves)lowpoly2.mtl
o Tree4.leaves_lowpoly3
v 1.874023 42.926491 -1.411354
v -0.963754 43.159035 0.471446
v 6.038476 37.161026 -0.430378
v 2.228878 38.446640 4.941706
v -3.470487 37.258476 3.148363
v -3.218876 35.806675 -3.456552
v 2.615196 36.624157 -4.842659
v 5.375066 20.672007 -4.736252
v 6.551164 25.369236 -0.668445
v 0.916590 13.879372 -1.177921
v -3.086802 14.565342 1.744975
v 5.640329 18.151144 2.100257
v 1.187309 19.625019 7.244299
v -5.777615 19.238993 -5.636312
v 0.805149 20.629103 -7.837945
v -7.525519 19.463306 3.017821
v 4.205281 28.788357 4.449797
v -4.763787 34.028896 1.158287
vn 0.6983 0.4039 -0.5909
vn -0.2654 0.4368 -0.8595
vn -0.4405 0.5244 -0.7287
vn -0.9318 0.3453 -0.1114
vn -0.3531 0.5068 0.7864
vn 0.4022 0.7587 0.5125
vn 0.7214 0.5843 0.3717
vn -0.3453 0.1746 -0.9221
vn -0.4360 0.0928 0.8952
vn 0.7489 -0.0450 0.6612
vn 0.9174 0.0362 0.3963
vn 0.9821 -0.1614 -0.0976
vn 0.4418 -0.6264 -0.6422
vn -0.0890 -0.7003 -0.7083
vn -0.4151 -0.8294 -0.3739
vn -0.7514 -0.6459 -0.1350
vn -0.3626 -0.5282 0.7678
vn 0.7403 -0.6209 -0.2577
vn 0.2561 -0.8023 0.5391
vn 0.3441 -0.7807 0.5216
vn 0.7865 0.0466 -0.6159
vn -0.2534 0.2057 -0.9452
vn 0.9165 0.0318 0.3988
vn -0.8903 0.4365 -0.1299
vn -0.9402 0.2123 0.2665
vn 0.1176 0.2541 0.9600
vn -0.2784 -0.1056 0.9547
vn 0.5587 0.0912 -0.8244
vn 0.8894 0.1510 -0.4315
vn -0.9516 0.1798 -0.2493
vn 0.8232 0.1404 0.5501
vn -0.9671 0.1579 -0.1994
vt 0.359151 0.256235
vt 0.529910 0.249417
vt 0.436875 0.356311
vt 0.713022 0.268719
vt 0.806013 0.399848
vt 0.809347 0.248919
vt 0.045455 0.236191
vt 0.189599 0.238610
vt 0.091493 0.393465
vt 0.544052 0.223553
vt 0.701748 0.196335
vt 0.033918 0.256173
vt 0.169137 0.203631
vt 0.311521 0.170693
vt 0.243069 0.288278
vt 0.370404 0.303200
vt 0.445749 0.214796
vt 0.533287 0.059858
vt 0.704238 0.039899
vt 0.772727 0.078731
vt 0.881868 0.200002
vt 0.910125 0.078731
vt 1.000000 0.157461
vt 0.363664 0.078731
vt 0.136365 0.078731
vt 0.205182 0.040467
vt 0.861502 0.298211
vt 0.054959 0.302989
s 0
f 3/1/1 7/2/1 1/3/1
f 7/2/2 6/4/2 1/3/2
f 6/4/3 2/5/3 1/3/3
f 6/4/4 5/6/4 2/5/4
f 5/7/5 4/8/5 2/9/5
f 4/8/6 1/3/6 2/9/6
f 4/8/7 3/1/7 1/3/7
f 15/10/8 14/11/8 6/4/8
f 16/12/9 13/13/9 5/6/9
f 13/13/10 12/14/10 17/15/10
f 12/14/11 9/16/11 17/15/11
f 12/14/12 8/17/12 9/16/12
f 10/18/13 15/10/13 8/17/13
f 10/18/14 14/11/14 15/10/14
f 10/19/15 11/20/15 14/11/15
f 11/20/16 16/21/16 14/11/16
f 11/22/17 13/23/17 16/21/17
f 12/14/18 10/24/18 8/17/18
f 11/25/19 10/26/19 13/13/19
f 10/26/20 12/14/20 13/13/20
f 9/16/21 7/2/21 3/1/21
f 15/10/22 6/4/22 7/2/22
f 17/15/23 9/16/23 3/1/23
f 6/4/24 18/27/24 5/6/24
f 5/6/25 18/28/25 16/21/25
f 5/6/26 13/13/26 17/15/26
f 17/15/27 4/8/27 5/6/27
f 8/17/28 15/10/28 7/2/28
f 9/16/29 8/17/29 7/2/29
f 14/11/30 18/27/30 6/4/30
f 17/15/31 3/1/31 4/8/31
f 18/27/32 14/11/32 16/21/32
