# Blender 4.1.1
# www.blender.org
mtllib Tree4_stem.mtl
o Tree4.001
v 1.700177 -0.253400 -1.674400
v -1.273054 -0.253401 -1.674400
v 1.747735 -0.253400 1.298830
v -1.225496 -0.253400 1.298831
v 0.449426 4.389292 1.001867
v 1.244417 5.744124 -0.982382
v -0.540516 4.389293 0.725749
v 0.984405 13.844100 0.327182
v -0.550042 13.505686 0.477556
v -0.697544 14.563292 -1.114477
v -0.568872 14.865326 0.121833
v -1.767813 14.437804 0.382932
v -1.807350 14.952552 -0.619530
v -1.715288 15.148883 0.182656
v -3.950638 16.133783 0.999875
v -3.735397 16.525572 0.308598
v -3.641582 16.558619 0.914192
v 1.106137 11.684570 0.495252
v -0.396845 11.272231 0.444739
v -0.489901 10.962198 -0.954919
v 2.542069 14.095913 -0.089541
v 2.582828 13.801009 -0.770559
v 2.660437 13.581005 0.046610
v -0.592123 6.735404 0.444546
v 0.717157 6.748060 0.705449
v -0.569849 5.843235 -1.219730
v 2.276098 -0.253400 -0.187785
v -1.848974 -0.253400 -0.187784
v 1.407335 5.687407 0.052929
v -1.038350 5.762562 -0.302359
v -0.687690 13.024131 -0.815924
v -1.851788 14.233191 -0.456505
v -4.026970 16.074062 0.354496
v 1.123911 11.057174 -0.790309
v -0.761215 11.078332 -0.314674
v 2.707016 13.303813 -0.656419
v 0.403794 -0.253400 1.874751
v -0.007813 4.389293 1.048758
v 0.213561 -0.253401 -2.250321
v 0.866080 13.323637 -1.085455
v 0.328782 10.954818 -1.143426
v 0.390145 5.835615 -1.437549
v -0.342284 16.068443 -0.045623
v -0.742655 16.078218 -0.672588
v -0.609582 15.772122 -1.332373
v -4.480108 17.356756 1.231771
v -4.421381 17.149767 0.678267
v -4.654908 16.810076 0.641054
v -4.767443 17.027349 1.326433
v 0.514519 15.807132 -1.583342
v -0.096693 15.972806 -1.775280
v 0.825330 16.488306 -1.469658
v 0.673730 15.736586 -0.333025
v 0.989519 16.225929 -1.086390
v 4.142814 14.925801 -0.695316
v 4.076842 15.346425 -0.163778
v 4.143520 15.523712 -0.809570
v 3.861088 15.432224 -0.364198
v 0.290087 12.752296 0.628896
v -1.354623 2.378737 0.342817
v 1.760448 2.781153 -0.709366
v 0.803183 2.078655 1.411219
v -0.305463 2.809080 -1.731477
v -0.038151 15.247968 -1.534306
v -0.030546 12.273106 -1.071307
v -0.685055 12.502701 0.021473
v 1.808525 12.869294 -0.908476
v 0.880398 15.430785 -0.910236
v 0.205640 15.270141 0.070949
v -0.046759 14.057236 0.529484
v -1.138560 14.873444 -0.454294
v -0.203372 13.584834 -1.163351
v -2.757785 15.557353 0.725810
v -1.053530 14.429674 0.380455
v -1.127047 13.622296 -0.125533
v -1.177172 14.047302 -0.959595
v -4.165957 17.111792 0.840288
v -2.946982 15.106407 0.327135
v -2.706598 15.875192 0.164254
v -2.895279 15.423482 -0.234515
v -4.407567 16.783184 0.462077
v -4.394396 16.929564 1.293688
v -4.675564 16.641237 0.919580
v 3.585757 14.283520 -0.386174
v 1.245586 7.715367 -0.594778
v -0.794484 8.942707 0.086973
v -0.094950 8.704413 -1.213854
v 0.150464 9.044785 0.639871
v 3.578490 14.397466 -0.854535
v 1.847819 13.307738 0.348567
v 1.796555 13.637854 -0.374210
v 3.391572 14.836523 -0.567123
v 3.398839 14.722578 -0.098760
v -0.939054 5.452135 0.221466
v -0.015965 5.283229 0.739853
v 1.060076 5.458236 0.669988
v 1.887608 12.521723 -0.193546
v -0.728497 8.747336 -0.732948
v 1.123210 8.930334 0.178867
v -0.691903 12.041646 -0.708067
v 1.659529 2.381016 0.601118
v -1.237216 2.805903 -0.931003
v -0.471020 2.078552 1.282570
v 0.749324 8.688197 -1.122999
v 0.759069 12.049444 -1.097462
v 0.961097 2.810319 -1.637644
v 4.430699 15.747853 -0.556804
v -4.898593 17.367252 1.497118
v 0.875076 16.249416 -0.379820
v -0.654465 16.103315 -1.429224
v 1.115091 16.558838 -1.515219
v -0.738280 16.164259 -0.301235
v 4.121329 16.111088 -0.262372
v 0.488228 16.370310 -1.834458
v -0.711771 15.610207 -0.658970
vn -0.5192 -0.0482 0.8533
vn 0.1470 0.0850 0.9855
vn 0.0763 0.0953 0.9925
vn -0.0991 0.1658 0.9812
vn 0.6272 0.2231 0.7462
vn -0.8113 0.1322 0.5694
vn 0.0731 0.1299 -0.9888
vn -0.6463 0.1306 -0.7518
vn 0.9831 0.1060 -0.1489
vn 0.9963 0.0620 0.0602
vn -0.0246 0.0300 -0.9992
vn -0.9901 0.1325 -0.0468
vn -0.6849 0.1879 0.7040
vn -0.2196 0.0931 -0.9711
vn 0.5713 -0.0828 -0.8166
vn -0.5524 -0.3026 -0.7767
vn -0.8013 -0.0492 -0.5963
vn -0.2238 0.0429 -0.9737
vn 0.4052 0.0058 -0.9142
vn -0.1535 -0.0893 -0.9841
vn -0.2844 -0.1843 -0.9408
vn -0.9045 0.0356 0.4249
vn -0.8901 0.0911 -0.4466
vn -0.9166 -0.3328 0.2214
vn 0.7775 -0.5275 -0.3424
vn 0.1820 -0.1766 -0.9673
vn 0.8938 0.3913 -0.2190
vn 0.9434 -0.1760 0.2811
vn 0.0960 0.3345 0.9375
vn -0.5574 0.2165 0.8015
vn 0.6682 -0.3992 0.6278
vn -0.0352 0.9081 0.4173
vn -0.8685 0.4947 -0.0305
vn -0.9944 0.0516 -0.0923
vn 0.4446 0.8569 -0.2608
vn 0.3383 0.2319 0.9120
vn 0.3051 -0.0300 0.9518
vn 0.2378 0.8675 0.4370
vn 0.1372 0.6227 -0.7703
vn -0.0498 0.2522 0.9664
vn -0.5746 -0.7801 0.2476
vn 0.2180 0.6635 -0.7157
vn 0.6029 0.7861 -0.1363
vn -0.2363 -0.5861 0.7750
vn -0.6287 -0.7640 0.1451
vn -0.6806 0.7094 0.1831
vn -0.0081 0.5707 -0.8211
vn 0.6781 0.4970 0.5414
vn -0.3570 -0.5908 0.7236
vn -0.9993 0.0346 -0.0125
vn 0.7029 -0.6446 0.3007
vn -0.9280 0.0982 -0.3595
vn -0.4743 0.0945 0.8753
vn -0.8868 0.0544 0.4589
vn -0.5066 0.0218 0.8619
vn -0.3275 0.1162 -0.9377
vn -0.6017 0.0506 -0.7971
vn 0.1079 0.0583 -0.9924
vn 0.6249 0.1044 0.7737
vn 0.4287 0.0047 0.9034
vn -0.4223 0.3637 -0.8303
vn -0.1956 0.0347 0.9801
vn 0.8037 -0.4140 0.4273
vn 0.5401 -0.1586 -0.8266
vn 0.0376 0.2635 0.9639
vn 0.5067 -0.3107 0.8042
vn -0.5474 0.3731 0.7491
vn -0.5894 0.7279 -0.3505
vn 0.2494 -0.0971 -0.9635
vn -0.7627 0.5265 -0.3755
vn -0.4918 -0.1634 -0.8552
vn 0.1002 0.1884 0.9770
vn -0.1898 0.5187 -0.8336
vn -0.4110 -0.4569 0.7888
vn 0.0450 0.1195 0.9918
vn 0.9355 0.1194 0.3325
vn 0.9745 -0.1961 0.1092
vn -0.9198 0.0132 -0.3922
vn -0.0348 0.0043 0.9994
vn -0.3311 0.1137 0.9367
vn -0.1422 -0.2020 -0.9690
vn -0.7322 -0.6236 -0.2738
vn 0.7468 0.0798 0.6602
vn -0.4847 0.0125 -0.8746
vn -0.5093 0.1871 0.8400
vn 0.3595 0.0979 -0.9280
vn 0.7703 -0.2539 -0.5849
vn 0.4760 0.0937 -0.8745
vn -0.2660 0.1410 0.9536
vn 0.3270 0.2015 0.9233
vn 0.7542 0.3232 0.5716
vn 0.3481 -0.0344 0.9368
vn -0.7890 -0.3595 0.4982
vn -0.9828 -0.1133 -0.1457
vn 0.6605 -0.4569 -0.5958
vn -0.6735 -0.6154 -0.4094
vn -0.7280 -0.4060 -0.5524
vn 0.1972 -0.3385 -0.9201
vn 0.9832 0.1390 0.1182
vn 0.7532 0.1316 -0.6445
vn 0.9282 0.0959 -0.3596
vn -0.3596 0.0963 -0.9281
vn -0.9180 0.0948 0.3850
vn 0.3913 0.1145 0.9131
vn 0.7644 0.0406 -0.6434
vn 0.7357 -0.6554 -0.1709
vn 0.6342 0.6467 0.4238
vn -0.0000 1.0000 -0.0000
vt 0.646336 0.026504
vt 0.458271 0.024572
vt 0.331612 0.016927
vt 0.484054 0.014375
vt 0.744523 0.039776
vt 0.772484 0.068602
vt 0.747725 0.043267
vt 0.577680 0.024152
vt 0.605673 0.014834
vt 0.528384 0.015099
vt 0.630671 0.022731
vt 0.682710 0.023899
vt 0.783450 0.030930
vt 0.676442 0.018223
vt 0.742433 0.031313
vt 0.475217 0.009801
vt 0.312754 0.012781
vt 0.219425 0.017570
vt 0.312074 0.016692
vt 0.997764 0.032970
vt 0.965872 0.036883
vt 1.025156 0.037667
vt 1.058740 0.032508
vt 0.162321 0.024889
vt 0.093552 0.027296
vt 0.058740 0.032508
vt 0.125084 0.031751
vt 0.912936 0.035652
vt 0.878826 0.034665
vt 0.820058 0.031110
vt 0.879652 0.036493
vt 0.893452 0.041558
vt 0.793957 0.030819
vt 0.931037 0.048289
vt 0.942982 0.041963
vt 0.991003 0.033932
vt 1.037745 0.031543
vt 0.247921 0.022679
vt 0.431613 0.017553
vt 1.093552 0.027296
vt 1.043703 0.029633
vt 1.048314 0.059025
vt 0.990675 0.070970
vt 0.909204 0.054581
vt 0.048314 0.059025
vt 0.122662 0.058007
vt 0.124005 0.065525
vt 0.056375 0.075168
vt 0.141639 0.044622
vt 0.199458 0.034980
vt 1.108378 0.027321
vt 0.950271 0.035008
vt 1.158356 0.030273
vt 1.067053 0.037448
vt 0.067053 0.037448
vt 0.158356 0.030273
vt 0.199334 0.049534
vt 0.231049 0.018289
vt 0.311895 0.013793
vt 0.148752 0.022112
vt 0.303357 0.034842
vt 0.838261 0.096713
vt 0.817309 0.063733
vt 0.871184 0.068675
vt 0.845069 0.098339
vt 0.837763 0.138076
vt 0.829247 0.068354
vt 0.915883 0.069385
vt 0.836282 0.049328
vt 0.837867 0.036733
vt 0.393121 0.021418
vt 0.706683 0.017121
vt 0.394457 0.013589
vt 0.798693 0.095968
vt 0.805273 0.097055
vt 0.260665 0.043424
vt 0.264042 0.071463
vt 0.328300 0.117307
vt 0.340482 0.068266
vt 0.359152 0.118885
vt 0.355433 0.065641
vt 0.387355 0.040786
vt 0.355922 0.173053
vt 0.361001 0.211991
vt 0.354942 0.174789
vt 0.329538 0.171120
vt 0.303292 0.116942
vt 0.334005 0.115371
vt 0.276828 0.065560
vt 0.339996 0.213950
vt 0.347919 0.205263
vt 0.331948 0.202270
vt 0.345634 0.209947
vt 0.329092 0.171626
vt 0.814892 0.162017
vt 0.826018 0.136697
vt 0.805086 0.134154
vt 0.358457 0.226379
vt 0.358087 0.226518
vt 0.164937 0.025591
vt 0.818171 0.134497
vt 0.622916 0.010738
vt 0.416074 0.009314
vt 0.644251 0.015734
vt 0.108378 0.027321
vt 0.043703 0.029633
vt 0.751877 0.025748
vt 0.722720 0.021991
vt 0.830734 0.175054
vt 0.827311 0.163444
vt 0.820240 0.187874
vt 0.807004 0.167411
vt 0.809662 0.184577
vt 0.842730 0.037055
vt 1.141639 0.044622
vt 0.037745 0.031543
vt 0.934106 0.040341
vt 1.002126 0.086972
vt 0.956621 0.080153
vt 0.362161 0.241915
vt 0.204651 0.038774
vt 0.280888 0.031680
vt 0.937997 0.091825
vt 0.336719 0.212066
vt 1.056375 0.075168
vt 0.025156 0.037667
s 0
usemtl Material.001
f 59/1/1 9/2/1 66/3/1 19/4/1
f 59/1/2 18/5/2 90/6/2 8/7/2
f 8/7/3 70/8/3 9/2/3 59/1/3
f 38/9/4 103/10/4 37/11/4 62/12/4
f 101/13/5 5/14/5 62/12/5 3/15/5
f 7/16/6 94/17/6 30/18/6 60/19/6
f 42/20/7 106/21/7 39/22/7 63/23/7
f 102/24/8 26/25/8 63/26/8 2/27/8
f 6/28/9 85/29/9 29/30/9 61/31/9
f 34/32/10 99/33/10 29/30/10 85/29/10
f 40/34/11 105/35/11 41/36/11 65/37/11
f 30/18/12 102/24/12 28/38/12 60/19/12
f 7/16/13 60/19/13 4/39/13 103/10/13
f 63/23/14 26/40/14 87/41/14 42/20/14
f 64/42/15 50/43/15 68/44/15 40/34/15
f 64/45/16 45/46/16 110/47/16 51/48/16
f 64/45/17 10/49/17 115/50/17 45/46/17
f 41/36/18 87/41/18 20/51/18 65/37/18
f 104/52/19 41/36/19 105/35/19 34/32/19
f 31/53/20 72/54/20 40/34/20 65/37/20
f 72/55/21 31/56/21 76/57/21 10/49/21
f 35/58/22 86/59/22 19/4/22 66/3/22
f 26/25/23 102/24/23 30/18/23 98/60/23
f 9/2/24 75/61/24 31/56/24 66/3/24
f 36/62/25 97/63/25 34/32/25 67/64/25
f 67/64/26 22/65/26 89/66/26 36/62/26
f 68/44/27 8/7/27 91/67/27 40/34/27
f 54/68/28 109/69/28 53/70/28 68/44/28
f 11/71/29 70/8/29 8/7/29 69/72/29
f 43/73/30 115/50/30 11/71/30 69/72/30
f 23/74/31 90/6/31 18/5/31 97/63/31
f 90/6/32 21/75/32 91/67/32 8/7/32
f 71/76/33 11/71/33 115/50/33 10/49/33
f 35/58/34 98/60/34 30/18/34 86/59/34
f 13/77/35 79/78/35 14/79/35 71/76/35
f 73/80/36 12/81/36 74/82/36 14/79/36
f 17/83/37 82/84/37 15/85/37 73/80/37
f 71/76/38 14/79/38 74/82/38 11/71/38
f 16/86/39 79/78/39 13/77/39 80/87/39
f 11/71/40 74/82/40 9/2/40 70/8/40
f 12/81/41 78/88/41 32/89/41 75/61/41
f 47/90/42 77/91/42 16/86/42 81/92/42
f 77/91/43 17/83/43 79/78/43 16/86/43
f 73/80/44 15/85/44 78/88/44 12/81/44
f 15/85/45 83/93/45 33/94/45 78/88/45
f 58/95/46 92/96/46 21/75/46 93/97/46
f 22/65/47 67/64/47 40/34/47 91/67/47
f 77/91/48 46/98/48 82/84/48 17/83/48
f 82/84/49 49/99/49 83/93/49 15/85/49
f 31/56/50 100/100/50 35/58/50 66/3/50
f 23/74/51 97/63/51 36/62/51 84/101/51
f 2/27/52 28/38/52 102/24/52
f 7/16/53 95/102/53 24/103/53 94/17/53
f 30/18/54 94/17/54 24/103/54 86/59/54
f 88/104/55 19/4/55 86/59/55 24/103/55
f 80/87/56 33/94/56 81/92/56 16/86/56
f 20/105/57 87/106/57 26/25/57 98/60/57
f 41/36/58 104/52/58 42/20/58 87/41/58
f 96/107/59 5/14/59 101/13/59 29/30/59
f 18/5/60 88/104/60 25/108/60 99/33/60
f 57/109/61 89/66/61 22/65/61 92/96/61
f 95/102/62 25/108/62 88/104/62 24/103/62
f 84/101/63 55/110/63 107/111/63 56/112/63
f 89/66/64 57/109/64 107/111/64 55/110/64
f 90/6/65 23/74/65 93/97/65 21/75/65
f 84/101/66 56/112/66 93/97/66 23/74/66
f 93/97/67 56/112/67 113/113/67 58/95/67
f 91/67/68 21/75/68 92/96/68 22/65/68
f 34/32/69 105/35/69 40/34/69 67/64/69
f 92/96/70 58/95/70 113/113/70 57/109/70
f 76/57/71 32/89/71 80/87/71 13/77/71
f 38/9/72 62/12/72 5/14/72
f 13/77/73 71/76/73 10/49/73 76/57/73
f 74/82/74 12/81/74 75/61/74 9/2/74
f 95/102/75 5/14/75 96/107/75 25/108/75
f 3/15/76 27/114/76 101/13/76
f 18/5/77 99/33/77 34/32/77 97/63/77
f 98/60/78 35/58/78 100/100/78 20/105/78
f 19/4/79 88/104/79 18/5/79 59/1/79
f 4/39/80 37/11/80 103/10/80
f 40/34/81 72/54/81 10/115/81 64/42/81
f 32/89/82 76/57/82 31/56/82 75/61/82
f 96/107/83 29/30/83 99/33/83 25/108/83
f 65/116/84 20/105/84 100/100/84 31/56/84
f 7/16/85 103/10/85 38/9/85
f 1/117/86 39/22/86 106/21/86
f 68/44/87 50/43/87 114/118/87 52/119/87
f 6/28/88 106/21/88 42/20/88 104/52/88
f 7/16/89 5/14/89 95/102/89
f 69/72/90 53/70/90 109/69/90 43/73/90
f 68/44/91 53/70/91 69/72/91 8/7/91
f 82/84/92 46/98/92 108/120/92 49/99/92
f 44/121/93 115/50/93 43/73/93 112/122/93
f 110/47/94 45/46/94 115/50/94 44/121/94
f 68/44/95 52/119/95 111/123/95 54/68/95
f 33/94/96 80/87/96 32/89/96 78/88/96
f 81/92/97 33/94/97 83/93/97 48/124/97
f 51/125/98 114/118/98 50/43/98 64/42/98
f 29/30/99 101/13/99 27/114/99 61/31/99
f 6/28/100 61/31/100 1/117/100 106/21/100
f 27/114/101 1/117/101 61/31/101
f 39/126/102 2/27/102 63/26/102
f 28/38/103 4/39/103 60/19/103
f 37/11/104 3/15/104 62/12/104
f 104/52/105 34/32/105 85/29/105 6/28/105
f 89/66/106 55/110/106 84/101/106 36/62/106
f 17/83/107 73/80/107 14/79/107 79/78/107
f 38/9/108 5/14/108 7/16/108
