# Blender 4.1.1
# www.blender.org
mtllib Tree4.leaves_lowpoly1.mtl
o Tree4.leaves_lowpoly1
v 4.329882 42.250496 0.279118
v 0.414767 42.778179 0.835763
v 6.799977 38.638542 1.803575
v 7.093406 35.583515 -0.719633
v 1.728041 38.136581 5.142828
v 4.560674 38.381893 4.520947
v -2.875134 37.829288 1.598455
v -1.542023 37.828640 3.753940
v -0.606706 38.078308 -4.043856
v -2.711921 37.578632 -1.898151
v 4.663270 38.422970 -4.021107
v 2.625243 37.528614 -4.887776
v 1.784134 42.309788 2.216128
v -0.498501 42.026573 -1.026616
v 2.576088 42.187309 -2.324455
v 0.793433 14.262409 -0.000001
v -5.846939 18.084454 -0.000001
v -1.345636 18.225384 -6.198513
v 6.691677 19.010672 -3.292732
v 3.379371 25.737946 6.580743
v 8.034986 25.066236 -0.031829
v -0.423827 15.313072 3.643365
v 3.857084 15.447134 2.251704
v 2.599792 17.776514 5.895105
v 6.880709 17.910589 -0.000001
v 3.857084 15.447134 -2.251706
v -3.069630 15.230236 -0.000001
v -4.326964 17.559610 3.643377
v -0.423827 15.313072 -3.643367
v -4.326964 17.559610 -3.643379
v 2.599792 17.776514 -5.895107
v 6.681512 18.971479 3.269022
v -0.827211 19.560564 7.079875
v 4.438542 21.437685 6.397439
v -4.605038 21.894020 5.169296
v -3.715612 21.411556 -5.895144
v -5.961999 21.841827 -3.307055
v 4.438542 21.437685 -6.461099
v 1.280836 22.369465 -7.279514
v 6.758163 26.288944 2.965347
v 0.432246 27.163151 6.314070
v -6.542679 21.515587 1.518966
v -2.380002 28.867443 -4.966385
v 6.377295 25.638634 -4.005313
v 4.545823 31.409657 4.850129
v 3.781824 31.130142 -5.114971
v 6.304573 30.963860 -3.190634
v 6.224021 31.664869 3.164819
v -0.020185 32.933990 -4.361402
v -2.426570 33.123402 -2.734344
v -3.027907 33.739006 0.274539
v -2.229421 33.106697 3.020961
v 0.212953 33.002499 4.429676
v -3.045852 29.321373 4.461473
v -4.965151 29.538076 1.412192
v -4.766349 29.483631 -2.146144
v 7.158338 26.464310 -1.679955
v 4.693095 27.902601 -5.349721
v 1.572808 27.182774 -6.759197
vn 0.1184 0.9875 -0.1037
vn -0.1734 0.9399 -0.2943
vn 0.1559 0.9721 0.1752
vn 0.7584 0.3923 -0.5204
vn 0.8325 0.5317 -0.1555
vn -0.1456 0.4758 -0.8674
vn -0.3432 0.5762 -0.7417
vn -0.8869 0.4559 -0.0741
vn -0.8086 0.5636 0.1691
vn -0.4723 0.5787 0.6649
vn -0.3722 0.5363 0.7575
vn 0.4603 0.6683 0.5844
vn 0.5763 0.6192 0.5334
vn 0.1581 0.4773 -0.8644
vn -0.6868 0.4531 -0.5683
vn -0.7142 0.5429 0.4419
vn 0.1292 0.5682 0.8127
vn 0.8284 0.4018 -0.3902
vn 0.1319 -0.9399 0.3151
vn 0.7176 -0.6484 0.2542
vn -0.2384 -0.9515 0.1947
vn -0.2384 -0.9515 -0.1947
vn 0.1319 -0.9399 -0.3151
vn 0.7433 0.0494 0.6671
vn -0.8889 -0.3238 0.3242
vn -0.5640 -0.3482 -0.7488
vn 0.5747 -0.3991 -0.7144
vn -0.9815 -0.1425 -0.1277
vn -0.2491 -0.0935 -0.9639
vn 0.9230 0.0024 -0.3847
vn 0.8054 -0.0255 -0.5922
vn 0.3317 0.3573 -0.8731
vn -0.2932 0.1697 -0.9409
vn -0.7205 0.2113 -0.6605
vn -0.3688 0.1534 0.9167
vn -0.0384 0.1064 0.9936
vn 0.7116 0.1460 0.6873
vn 0.8183 0.0153 0.5746
vn 0.9209 0.0065 0.3897
vn 0.1777 -0.2369 -0.9552
vn 0.0423 -0.2772 -0.9599
vn -0.7526 -0.2392 -0.6135
vn -0.8913 -0.3147 -0.3265
vn -0.8516 -0.2219 0.4750
vn -0.5730 -0.3046 0.7609
vn 0.1319 -0.0098 0.9912
vn 0.2066 -0.2341 0.9500
vn 0.5763 -0.3881 0.7192
vn 0.9762 -0.2167 0.0002
vn 0.9842 0.1769 0.0026
vn 0.5491 -0.6052 -0.5764
vn 0.2124 -0.7884 -0.5773
vn -0.0178 -0.6626 -0.7488
vn -0.3880 -0.6742 -0.6284
vn -0.4660 -0.8096 -0.3568
vn -0.7030 -0.6840 -0.1947
vn -0.7030 -0.6840 0.1947
vn -0.4660 -0.8096 0.3568
vn -0.3505 -0.6090 0.7115
vn 0.7183 -0.6465 -0.2572
vn 0.6316 -0.7753 -0.0000
vn 0.3607 -0.9327 -0.0000
vn -0.0614 -0.6313 0.7731
vn 0.2124 -0.7884 0.5773
vn 0.5483 -0.6058 0.5765
vn 0.9229 0.0468 -0.3822
vn 0.8234 -0.0339 -0.5664
vn 0.6002 0.2253 -0.7674
vn -0.0004 0.3847 -0.9230
vn -0.2847 0.3006 -0.9102
vn -0.4915 0.4003 -0.7735
vn -0.8298 0.4904 -0.2662
vn -0.9124 0.4053 -0.0572
vn -0.8136 0.4685 0.3444
vn -0.4449 0.4007 0.8009
vn -0.3092 0.2815 0.9084
vn 0.0208 0.3078 0.9512
vn 0.7046 0.0437 0.7083
vn 0.9512 0.0835 0.2971
vn 0.3724 0.1715 -0.9121
vn -0.6825 0.3336 -0.6504
vn -0.7766 0.3633 0.5146
vn 0.9963 -0.0019 0.0858
vn 0.7247 0.0604 0.6864
vn -0.9503 0.0922 0.2975
vn -0.9973 0.0536 -0.0504
vn 0.8485 0.1296 -0.5131
vn -0.3664 0.1219 -0.9224
vn -0.3810 0.1666 0.9094
vn 0.0497 0.2821 0.9581
vn 0.0216 -0.0344 0.9992
vn -0.4386 -0.0338 0.8980
vn -0.6425 0.0337 -0.7656
vn -0.8425 -0.1372 0.5210
vn -0.9813 -0.0271 -0.1906
vn -0.2172 0.0133 -0.9760
vn 0.5131 0.0663 -0.8558
vn 0.9839 -0.0477 0.1721
vn 0.4965 -0.0034 -0.8681
vn 0.8726 0.2873 -0.3951
vn -0.8515 0.1985 0.4854
vn -0.9801 0.1793 -0.0853
vn 0.7919 0.6038 0.0910
vn -0.7224 0.2130 -0.6578
vt 0.395157 0.369516
vt 0.516412 0.355942
vt 0.454546 0.472382
vt 0.591518 0.366359
vt 0.713822 0.367259
vt 0.636364 0.472382
vt 0.221511 0.383671
vt 0.318351 0.356861
vt 0.272728 0.472382
vt 0.391327 0.266960
vt 0.499788 0.236560
vt 0.585832 0.244986
vt 0.682299 0.235359
vt 0.769840 0.241192
vt 0.863636 0.236191
vt 0.850898 0.415715
vt 0.045455 0.236191
vt 0.130171 0.367622
vt 0.058193 0.415715
vt 0.135085 0.238407
vt 0.225799 0.238745
vt 0.317656 0.237103
vt 0.950325 0.243502
vt 0.181819 0.000000
vt 0.227273 0.078731
vt 0.136365 0.078731
vt 0.284350 0.177591
vt 0.318182 0.078731
vt 0.363637 0.157461
vt 0.909091 0.000000
vt 0.954545 0.078731
vt 0.863636 0.078731
vt 0.727273 0.000000
vt 0.772727 0.078731
vt 0.681818 0.078731
vt 0.545455 0.000000
vt 0.590909 0.078731
vt 0.500000 0.078731
vt 0.273409 0.313741
vt 0.194730 0.292559
vt 0.818182 0.157461
vt 0.909091 0.157461
vt 0.858574 0.244960
vt 0.636364 0.157461
vt 0.727273 0.157461
vt 0.681818 0.236191
vt 0.442539 0.178259
vt 0.545455 0.157461
vt 0.500000 0.236191
vt 0.761306 0.255974
vt 0.578210 0.258187
vt 0.454546 0.314921
vt 0.363637 0.314921
vt 0.664953 0.265402
vt 0.033918 0.256173
vt 0.109203 0.189146
vt 0.116352 0.270853
vt 0.192939 0.295661
vt 0.227273 0.236191
vt 0.292021 0.281504
vt 0.943009 0.256173
vt 1.000000 0.157461
vt 0.181819 0.157461
vt 0.409092 0.078731
vt 0.363637 0.000000
vt 0.391536 0.266598
vt 0.454949 0.314223
vt 0.493882 0.246789
vt 0.546062 0.313869
vt 0.570730 0.271144
vt 0.637210 0.313456
vt 0.728079 0.313524
vt 0.759221 0.259586
vt 0.819699 0.312294
vt 0.849307 0.261010
vt 0.909684 0.313894
vt 0.268839 0.256555
vt 0.091664 0.313614
vt 0.000000 0.314921
vt 0.942788 0.256555
s 0
f 1/1/1 15/2/1 2/3/1
f 15/4/2 14/5/2 2/6/2
f 13/7/3 1/8/3 2/9/3
f 4/10/4 15/2/4 1/8/4
f 4/10/5 11/11/5 15/2/5
f 12/12/6 9/13/6 15/2/6
f 9/13/7 14/5/7 15/2/7
f 10/14/8 7/15/8 14/5/8
f 7/15/9 2/16/9 14/5/9
f 8/17/10 13/18/10 2/19/10
f 8/17/11 5/20/11 13/18/11
f 6/21/12 1/8/12 13/18/12
f 6/21/13 3/22/13 1/8/13
f 11/11/14 12/12/14 15/2/14
f 9/13/15 10/14/15 14/5/15
f 7/15/16 8/23/16 2/16/16
f 5/20/17 6/21/17 13/18/17
f 3/22/18 4/10/18 1/8/18
f 16/24/19 23/25/19 22/26/19
f 32/27/20 23/28/20 25/29/20
f 16/30/21 22/31/21 27/32/21
f 16/33/22 27/34/22 29/35/22
f 16/36/23 29/37/23 26/38/23
f 48/39/24 3/22/24 6/21/24 45/40/24
f 17/41/25 28/42/25 42/43/25
f 18/44/26 30/45/26 36/46/26
f 19/47/27 31/48/27 38/49/27
f 17/41/28 42/43/28 37/50/28
f 18/44/29 36/46/29 39/51/29
f 19/47/30 44/52/30 21/53/30
f 19/47/31 38/49/31 44/52/31
f 38/49/32 39/51/32 44/52/32
f 39/51/33 36/46/33 43/54/33
f 36/46/34 37/50/34 43/54/34
f 35/55/35 33/56/35 41/57/35
f 33/56/36 20/58/36 41/57/36
f 34/59/37 40/60/37 20/58/37
f 34/59/38 32/27/38 40/60/38
f 32/27/39 21/53/39 40/60/39
f 38/49/40 31/48/40 39/51/40
f 31/48/41 18/44/41 39/51/41
f 36/46/42 30/45/42 37/50/42
f 30/45/43 17/41/43 37/50/43
f 42/43/44 28/42/44 35/61/44
f 28/42/45 33/62/45 35/61/45
f 33/56/46 34/59/46 20/58/46
f 33/56/47 24/63/47 34/59/47
f 24/63/48 32/27/48 34/59/48
f 32/27/49 19/47/49 21/53/49
f 32/27/50 25/29/50 19/47/50
f 26/38/51 31/48/51 19/47/51
f 26/38/52 29/37/52 31/48/52
f 29/37/53 18/44/53 31/48/53
f 29/35/54 30/45/54 18/44/54
f 29/35/55 27/34/55 30/45/55
f 27/34/56 17/41/56 30/45/56
f 27/32/57 28/42/57 17/41/57
f 27/32/58 22/31/58 28/42/58
f 22/31/59 33/62/59 28/42/59
f 25/29/60 26/64/60 19/47/60
f 25/29/61 23/28/61 26/64/61
f 23/28/62 16/65/62 26/64/62
f 22/26/63 24/63/63 33/56/63
f 22/26/64 23/25/64 24/63/64
f 23/25/65 32/27/65 24/63/65
f 57/66/66 47/67/66 4/10/66
f 57/66/67 58/68/67 47/67/67
f 58/68/68 46/69/68 47/67/68
f 59/70/69 49/71/69 46/69/69
f 59/70/70 43/54/70 49/71/70
f 43/54/71 50/72/71 49/71/71
f 56/73/72 51/74/72 50/72/72
f 56/73/73 55/75/73 51/74/73
f 55/75/74 52/76/74 51/74/74
f 54/77/75 53/78/75 52/79/75
f 54/77/76 41/57/76 53/78/76
f 41/57/77 45/40/77 53/78/77
f 45/40/78 40/60/78 48/39/78
f 40/60/79 4/10/79 48/39/79
f 58/68/80 59/70/80 46/69/80
f 43/54/81 56/73/81 50/72/81
f 55/75/82 54/80/82 52/76/82
f 40/60/83 57/66/83 4/10/83
f 40/60/84 45/40/84 20/58/84
f 51/74/85 52/76/85 8/23/85
f 10/14/86 51/74/86 7/15/86
f 4/10/87 47/67/87 11/11/87
f 43/54/88 59/70/88 39/51/88
f 41/57/89 54/77/89 35/61/89
f 41/57/90 20/58/90 45/40/90
f 45/40/91 6/21/91 5/20/91 53/78/91
f 53/78/92 5/20/92 8/23/92 52/76/92
f 50/72/93 10/14/93 9/13/93 49/71/93
f 7/15/94 51/74/94 8/23/94
f 10/14/95 50/72/95 51/74/95
f 49/71/96 9/13/96 12/12/96 46/69/96
f 46/69/97 12/12/97 11/11/97 47/67/97
f 3/22/98 48/39/98 4/10/98
f 58/68/99 44/52/99 39/51/99 59/70/99
f 57/66/100 21/53/100 44/52/100 58/68/100
f 55/75/101 42/43/101 35/61/101 54/80/101
f 56/73/102 37/50/102 42/43/102 55/75/102
f 21/53/103 57/66/103 40/60/103
f 37/50/104 56/73/104 43/54/104
