# Blender 4.1.1
# www.blender.org
mtllib Tree4_leaves.mtl
o Tree4
v 2.809071 41.024189 3.089125
v -0.859326 40.704060 1.892640
v -0.859326 40.704060 -1.979175
v 2.752052 41.083130 -3.016599
v 5.076292 41.222027 -0.043268
v 1.618204 42.963539 -0.043268
v 6.926827 38.684669 1.598450
v 4.831559 39.547604 -1.728751
v 2.025846 38.256981 5.172771
v 5.054816 38.521305 4.184857
v -2.875134 37.829288 1.598450
v -1.003124 37.992649 4.184857
v -0.638249 38.024494 -4.086038
v -2.597969 37.853474 -1.906683
v 4.892732 38.507160 -4.021976
v 2.544707 38.302258 -4.519919
v 4.294593 41.444050 1.797899
v 0.805718 41.139591 2.935800
v -1.350499 40.951424 -0.043268
v 1.631064 41.147705 -2.930806
v 3.583285 41.318062 -2.294086
v 2.261968 42.467682 1.797892
v 3.594609 42.583965 -0.043268
v 0.105754 42.279518 1.094622
v 0.105754 42.279518 -1.181157
v 2.261968 42.467682 -1.884428
v 0.793433 14.262409 -0.000001
v 5.937539 18.453465 3.830843
v -1.345636 18.225384 6.198493
v -5.846939 18.084454 -0.000001
v -1.345636 18.225384 -6.198495
v 5.937539 18.453465 -3.830845
v 3.125846 24.912537 6.728275
v -4.806830 24.637772 3.830843
v -4.806830 24.637772 -3.830845
v 1.853837 24.912539 -6.791933
v 8.034986 25.066236 -0.031829
v -0.423827 15.313072 3.643354
v 3.857084 15.447134 2.251697
v 2.599792 17.776514 5.895089
v 6.880709 17.910589 -0.000001
v 3.857084 15.447134 -2.251699
v -3.069630 15.230236 -0.000001
v -4.326964 17.559610 3.643367
v -0.423827 15.313072 -3.643356
v -4.326964 17.559610 -3.643368
v 2.599792 17.776514 -5.895091
v 7.324050 21.528046 2.423892
v 7.324050 21.528046 -2.487550
v 0.565354 21.545618 7.286778
v 4.438542 21.437685 6.397421
v -6.361402 21.328701 2.251706
v -3.715612 21.411556 5.895126
v -3.715612 21.411556 -5.895128
v -6.361402 21.328701 -2.251708
v 4.438542 21.437685 -6.461080
v 0.565354 21.545618 -7.286780
v 6.377295 25.638634 3.941643
v -1.469085 25.314720 5.895089
v -5.750002 25.180649 -0.000001
v -1.469085 25.314720 -5.895091
v 6.377295 25.638634 -4.005301
v 3.938524 31.069517 5.086103
v -2.347012 33.079819 2.889416
v -2.347012 33.079819 -2.870705
v 3.938524 31.069517 -5.086106
v 7.366957 30.736214 -0.031830
v 7.044345 27.814468 1.983185
v 7.044345 27.814468 -2.046844
v 1.706717 28.855915 5.979084
v 4.741138 28.368187 5.243620
v -4.131209 30.988966 1.702207
v -2.196242 30.523779 4.441359
v -2.196243 30.523779 -4.422649
v -4.131209 30.988966 -1.683496
v 4.741138 28.368187 -5.307279
v 1.706716 28.855915 -5.979086
v 6.179066 31.548401 3.228558
v 0.207656 32.908047 4.441331
v -2.923149 33.660717 0.009355
v 0.207655 32.908047 -4.422621
v 6.442245 30.950428 -2.989526
v 2.646169 35.867985 -4.972497
v 3.307645 33.462692 -5.148024
v 5.404968 35.999958 -3.660258
v 6.003747 33.471466 -3.409848
v 6.962365 35.865269 -1.030131
v 7.182814 33.812672 -0.616675
v 6.611393 36.105236 1.993433
v 6.385773 34.357628 2.740643
v -0.886319 36.397011 -3.889795
v -0.389435 34.654697 -4.250736
v -2.814873 36.355896 -1.862521
v -2.678970 34.719738 -2.414423
v -3.000520 36.543079 0.953197
v -3.065542 35.109501 0.500694
v -1.709502 36.452358 3.408434
v -2.103543 34.769951 3.228154
v 1.671367 36.257919 4.892273
v 0.541623 34.735950 4.573114
v 4.598202 36.038330 4.335829
v 4.323821 33.551369 4.816589
v 3.451114 26.600376 6.317606
v 0.057847 27.082191 6.260007
v -3.838894 28.211964 4.193922
v -5.311672 28.719543 0.897160
v -2.218109 28.540684 -5.177594
v -4.853675 28.455929 -2.738681
v 7.260792 26.391439 -1.088591
v 6.382238 26.694803 3.130817
v 5.174336 26.985195 -4.904389
v 1.496692 27.070238 -7.034389
vn 0.3499 0.6947 0.6284
vn -0.5270 0.6182 0.5831
vn -0.7551 0.5983 -0.2680
vn -0.0234 0.6279 -0.7780
vn 0.6245 0.6794 -0.3853
vn 0.1850 0.9633 -0.1947
vn 0.5173 0.7448 -0.4215
vn 0.3758 0.6627 -0.6478
vn -0.1840 0.9311 -0.3151
vn -0.2813 0.6751 -0.6820
vn -0.3775 0.5920 -0.7121
vn -0.4121 0.9111 -0.0000
vn -0.6738 0.7389 -0.0000
vn -0.7551 0.5983 0.2680
vn -0.1840 0.9311 0.3151
vn -0.2560 0.7753 0.5773
vn -0.0191 0.6625 0.7488
vn 0.1850 0.9633 0.1947
vn 0.4202 0.8343 0.3568
vn 0.6638 0.7221 0.1947
vn 0.7756 0.3879 -0.4979
vn 0.8293 0.5169 -0.2124
vn 0.4153 0.6089 -0.6758
vn -0.0397 0.4775 -0.8778
vn -0.1589 0.4420 -0.8828
vn -0.3817 0.5516 -0.7416
vn -0.8245 0.4959 -0.2726
vn -0.9103 0.4082 -0.0692
vn -0.8009 0.5338 0.2714
vn -0.5401 0.5599 0.6284
vn -0.3078 0.4986 0.8104
vn -0.0259 0.6060 0.7950
vn 0.3924 0.6409 0.6598
vn 0.6435 0.5776 0.5023
vn 0.7134 0.6644 0.2228
vn 0.1452 0.4621 -0.8749
vn -0.6944 0.4085 -0.5924
vn -0.7320 0.4621 0.5006
vn 0.2159 0.5476 0.8084
vn 0.8363 0.3234 -0.4427
vn 0.1319 -0.9399 0.3151
vn 0.7206 -0.6395 0.2680
vn -0.2384 -0.9515 0.1947
vn -0.2384 -0.9515 -0.1947
vn 0.1319 -0.9399 -0.3151
vn 0.9183 -0.2918 0.2674
vn 0.0351 -0.3294 0.9435
vn -0.8789 -0.3581 0.3151
vn -0.5640 -0.3482 -0.7488
vn 0.5405 -0.3870 -0.7471
vn 0.8064 -0.0967 0.5834
vn -0.3025 -0.1352 0.9435
vn -0.9877 -0.1566 -0.0000
vn -0.3025 -0.1352 -0.9435
vn 0.8055 -0.1088 -0.5825
vn -0.9169 0.3922 -0.0745
vn 0.9241 0.0745 -0.3748
vn 0.8091 -0.0303 -0.5869
vn 0.4727 0.2718 -0.8382
vn -0.2282 0.2265 -0.9469
vn -0.3093 0.1780 -0.9342
vn -0.5447 0.3135 -0.7779
vn -0.9149 0.3019 -0.2680
vn -0.9876 0.1568 -0.0000
vn -0.9149 0.3019 0.2680
vn -0.5447 0.3135 0.7779
vn -0.3093 0.1780 0.9342
vn -0.1487 0.2709 0.9511
vn 0.6211 0.1616 0.7669
vn 0.8091 -0.0303 0.5869
vn 0.9241 0.0745 0.3748
vn 0.2098 0.0631 -0.9757
vn 0.1956 -0.2450 -0.9496
vn 0.0351 -0.3294 -0.9435
vn -0.8061 0.1004 -0.5831
vn -0.7884 -0.2124 -0.5773
vn -0.8789 -0.3581 -0.3151
vn -0.8061 0.1004 0.5831
vn -0.7884 -0.2124 0.5773
vn -0.5640 -0.3482 0.7488
vn 0.2236 -0.0083 0.9747
vn 0.2112 -0.2362 0.9485
vn 0.5414 -0.3752 0.7524
vn 0.9804 -0.1970 -0.0000
vn 0.9926 -0.1216 -0.0000
vn 0.9168 -0.2965 -0.2677
vn 0.4918 -0.6466 -0.5831
vn 0.2124 -0.7884 -0.5773
vn -0.0178 -0.6626 -0.7488
vn -0.3880 -0.6742 -0.6284
vn -0.4660 -0.8096 -0.3568
vn -0.7030 -0.6840 -0.1947
vn -0.7030 -0.6840 0.1947
vn -0.4660 -0.8096 0.3568
vn -0.3880 -0.6742 0.6284
vn 0.7206 -0.6395 -0.2680
vn 0.6316 -0.7753 -0.0000
vn 0.3607 -0.9327 -0.0000
vn -0.0178 -0.6626 0.7488
vn 0.2124 -0.7884 0.5773
vn 0.4918 -0.6466 0.5831
vn -0.6843 0.3657 -0.6309
vn 0.9520 0.0954 -0.2907
vn 0.8152 -0.0175 -0.5789
vn 0.6290 0.2472 -0.7371
vn 0.0130 0.3627 -0.9318
vn -0.2591 0.2613 -0.9298
vn -0.4425 0.4462 -0.7779
vn -0.8027 0.5328 -0.2680
vn -0.9112 0.4120 -0.0000
vn -0.8027 0.5328 0.2680
vn -0.4425 0.4462 0.7779
vn -0.2564 0.2586 0.9313
vn 0.0162 0.3600 0.9328
vn 0.5939 0.2216 0.7734
vn 0.8165 -0.0034 0.5773
vn 0.9423 0.1133 0.3151
vn 0.2365 0.1489 -0.9602
vn -0.7510 0.3098 -0.5831
vn -0.7510 0.3098 0.5831
vn 0.2534 0.1312 0.9584
vn 0.9940 -0.1098 -0.0000
vn 0.9906 -0.0837 0.1086
vn 0.7745 -0.0378 0.6315
vn -0.1031 0.0684 0.9923
vn -0.3233 0.2679 0.9076
vn -0.7833 0.3675 0.5014
vn 0.5935 0.0503 -0.8033
vn 0.9380 0.0426 -0.3441
vn 0.9594 0.0470 0.2781
vn -0.2209 -0.0396 -0.9745
vn -0.5733 -0.0053 -0.8193
vn -0.9836 -0.1064 -0.1456
vn -0.9653 -0.0373 0.2586
vn -0.4875 -0.0367 0.8724
vn -0.0981 0.0481 0.9940
vn 0.6693 0.0314 0.7423
vn 0.7854 -0.0533 0.6166
vn 0.7190 0.1139 0.6856
vn 0.2508 -0.0733 0.9652
vn 0.0512 0.0223 0.9984
vn -0.3530 -0.1690 0.9202
vn -0.4223 0.0599 0.9045
vn -0.8468 -0.0182 0.5315
vn -0.9142 0.0531 0.4018
vn -0.9875 0.1378 -0.0759
vn -0.9949 0.0099 -0.1003
vn -0.7346 0.0573 -0.6761
vn -0.6734 0.0726 -0.7357
vn -0.2173 0.0693 -0.9736
vn -0.2516 0.0547 -0.9663
vn 0.9435 0.2323 -0.2364
vn 0.9840 0.0508 0.1708
vn 0.8875 0.3226 -0.3291
vn 0.8875 0.0933 -0.4513
vn 0.3301 0.0583 -0.9421
vn 0.4829 0.1102 -0.8687
vn 0.8434 -0.0635 -0.5335
vn 0.3918 0.2119 -0.8953
vn -0.2136 0.4336 -0.8754
vn -0.3626 0.0077 -0.9319
vn 0.5164 -0.0486 -0.8550
vn 0.8567 0.3734 -0.3559
vn -0.9339 0.1253 0.3350
vn -0.4876 0.1097 0.8661
vn 0.1389 0.2512 0.9579
vn 0.6582 0.2386 0.7140
vn 0.8649 0.4515 0.2195
vn -0.6074 0.1326 -0.7833
vn -0.9754 0.1044 -0.1943
vt 0.181819 0.314921
vt 0.272728 0.314921
vt 0.227273 0.393651
vt 0.000000 0.314921
vt 0.090910 0.314921
vt 0.045455 0.393651
vt 0.727273 0.314921
vt 0.818182 0.314921
vt 0.772727 0.393651
vt 0.545455 0.314921
vt 0.636364 0.314921
vt 0.590909 0.393651
vt 0.363637 0.314921
vt 0.454546 0.314921
vt 0.409092 0.393651
vt 0.500000 0.393651
vt 0.454546 0.472382
vt 0.681818 0.393651
vt 0.636364 0.472382
vt 0.863636 0.393651
vt 0.818182 0.472382
vt 0.909091 0.314921
vt 0.136365 0.393651
vt 0.090910 0.472382
vt 0.318182 0.393651
vt 0.272728 0.472382
vt 0.409092 0.236191
vt 0.500000 0.236191
vt 0.590909 0.236191
vt 0.681818 0.236191
vt 0.772727 0.236191
vt 0.863636 0.236191
vt 0.045455 0.236191
vt 0.136365 0.236191
vt 0.227273 0.236191
vt 0.318182 0.236191
vt 0.954545 0.236191
vt 0.181819 0.000000
vt 0.227273 0.078731
vt 0.136365 0.078731
vt 0.272728 0.157461
vt 0.318182 0.078731
vt 0.363637 0.157461
vt 0.909091 0.000000
vt 0.954545 0.078731
vt 0.863636 0.078731
vt 0.727273 0.000000
vt 0.772727 0.078731
vt 0.681818 0.078731
vt 0.545455 0.000000
vt 0.590909 0.078731
vt 0.500000 0.078731
vt 0.090910 0.157461
vt 0.181819 0.157461
vt 0.818182 0.157461
vt 0.909091 0.157461
vt 0.636364 0.157461
vt 0.727273 0.157461
vt 0.454546 0.157461
vt 0.545455 0.157461
vt 0.840790 0.275763
vt 0.749881 0.275763
vt 1.000000 0.157461
vt 0.409092 0.078731
vt 0.363637 0.000000
vt 0.658972 0.275763
vt 0.386245 0.275763
vt 0.295336 0.275763
vt 0.204427 0.275763
vt 0.113518 0.275763
vt 0.479543 0.275763
vt 0.931699 0.275763
vt 0.469697 0.288678
vt 0.560607 0.288678
vt 0.378788 0.288678
vt 0.287879 0.288678
vt 0.651515 0.288678
vt 0.742424 0.288678
vt 0.833333 0.288678
vt 0.924242 0.288678
vt 0.106061 0.288678
vt 0.196970 0.288678
vt 0.212122 0.262434
vt 0.303031 0.262434
vt 0.121213 0.262434
vt 0.939394 0.262434
vt 0.848485 0.262434
vt 0.757576 0.262434
vt 0.666667 0.262434
vt 0.575758 0.262434
vt 0.393940 0.262434
vt 0.484849 0.262434
vt 0.477154 0.275763
vt 0.568063 0.275763
s 0
f 1/1/1 17/2/1 22/3/1
f 2/4/2 18/5/2 24/6/2
f 3/7/3 19/8/3 25/9/3
f 4/10/4 20/11/4 26/12/4
f 5/13/5 21/14/5 23/15/5
f 23/15/6 26/16/6 6/17/6
f 23/15/7 21/14/7 26/16/7
f 21/14/8 4/10/8 26/16/8
f 26/12/9 25/18/9 6/19/9
f 26/12/10 20/11/10 25/18/10
f 20/11/11 3/7/11 25/18/11
f 25/9/12 24/20/12 6/21/12
f 25/9/13 19/8/13 24/20/13
f 19/8/14 2/22/14 24/20/14
f 24/6/15 22/23/15 6/24/15
f 24/6/16 18/5/16 22/23/16
f 18/5/17 1/1/17 22/23/17
f 22/3/18 23/25/18 6/26/18
f 22/3/19 17/2/19 23/25/19
f 17/2/20 5/13/20 23/25/20
f 8/27/21 21/14/21 5/13/21
f 8/27/22 15/28/22 21/14/22
f 15/28/23 4/10/23 21/14/23
f 16/29/24 20/11/24 4/10/24
f 16/29/25 13/30/25 20/11/25
f 13/30/26 3/7/26 20/11/26
f 14/31/27 19/8/27 3/7/27
f 14/31/28 11/32/28 19/8/28
f 11/32/29 2/22/29 19/8/29
f 12/33/30 18/5/30 2/4/30
f 12/33/31 9/34/31 18/5/31
f 9/34/32 1/1/32 18/5/32
f 10/35/33 17/2/33 1/1/33
f 10/35/34 7/36/34 17/2/34
f 7/36/35 5/13/35 17/2/35
f 15/28/36 16/29/36 4/10/36
f 13/30/37 14/31/37 3/7/37
f 11/32/38 12/37/38 2/22/38
f 9/34/39 10/35/39 1/1/39
f 7/36/40 8/27/40 5/13/40
f 27/38/41 39/39/41 38/40/41
f 28/41/42 39/42/42 41/43/42
f 27/44/43 38/45/43 43/46/43
f 27/47/44 43/48/44 45/49/44
f 27/50/45 45/51/45 42/52/45
f 28/41/46 41/43/46 48/36/46
f 29/53/47 40/54/47 50/34/47
f 30/55/48 44/56/48 52/32/48
f 31/57/49 46/58/49 54/30/49
f 32/59/50 47/60/50 56/28/50
f 28/41/51 48/36/51 51/35/51
f 29/53/52 50/34/52 53/33/52
f 30/55/53 52/32/53 55/31/53
f 31/57/54 54/30/54 57/29/54
f 32/59/55 56/28/55 49/27/55
f 106/61/56 72/32/56 75/31/56 108/62/56
f 49/27/57 62/14/57 37/13/57
f 49/27/58 56/28/58 62/14/58
f 56/28/59 36/10/59 62/14/59
f 57/29/60 61/11/60 36/10/60
f 57/29/61 54/30/61 61/11/61
f 54/30/62 35/7/62 61/11/62
f 55/31/63 60/8/63 35/7/63
f 55/31/64 52/32/64 60/8/64
f 52/32/65 34/22/65 60/8/65
f 53/33/66 59/5/66 34/4/66
f 53/33/67 50/34/67 59/5/67
f 50/34/68 33/1/68 59/5/68
f 51/35/69 58/2/69 33/1/69
f 51/35/70 48/36/70 58/2/70
f 48/36/71 37/13/71 58/2/71
f 56/28/72 57/29/72 36/10/72
f 56/28/73 47/60/73 57/29/73
f 47/60/74 31/57/74 57/29/74
f 54/30/75 55/31/75 35/7/75
f 54/30/76 46/58/76 55/31/76
f 46/58/77 30/55/77 55/31/77
f 52/32/78 53/37/78 34/22/78
f 52/32/79 44/56/79 53/37/79
f 44/56/80 29/63/80 53/37/80
f 50/34/81 51/35/81 33/1/81
f 50/34/82 40/54/82 51/35/82
f 40/54/83 28/41/83 51/35/83
f 48/36/84 49/27/84 37/13/84
f 48/36/85 41/43/85 49/27/85
f 41/43/86 32/59/86 49/27/86
f 42/52/87 47/60/87 32/59/87
f 42/52/88 45/51/88 47/60/88
f 45/51/89 31/57/89 47/60/89
f 45/49/90 46/58/90 31/57/90
f 45/49/91 43/48/91 46/58/91
f 43/48/92 30/55/92 46/58/92
f 43/46/93 44/56/93 30/55/93
f 43/46/94 38/45/94 44/56/94
f 38/45/95 29/63/95 44/56/95
f 41/43/96 42/64/96 32/59/96
f 41/43/97 39/42/97 42/64/97
f 39/42/98 27/65/98 42/64/98
f 38/40/99 40/54/99 29/53/99
f 38/40/100 39/39/100 40/54/100
f 39/39/101 28/41/101 40/54/101
f 108/62/102 75/31/102 74/30/102 107/66/102
f 69/27/103 82/14/103 67/13/103
f 69/27/104 76/28/104 82/14/104
f 76/28/105 66/10/105 82/14/105
f 77/29/106 81/11/106 66/10/106
f 77/29/107 74/30/107 81/11/107
f 74/30/108 65/7/108 81/11/108
f 75/31/109 80/8/109 65/7/109
f 75/31/110 72/32/110 80/8/110
f 72/32/111 64/22/111 80/8/111
f 73/33/112 79/5/112 64/4/112
f 73/33/113 70/34/113 79/5/113
f 70/34/114 63/1/114 79/5/114
f 71/35/115 78/2/115 63/1/115
f 71/35/116 68/36/116 78/2/116
f 68/36/117 67/13/117 78/2/117
f 76/28/118 77/29/118 66/10/118
f 74/30/119 75/31/119 65/7/119
f 72/32/120 73/37/120 64/22/120
f 70/34/121 71/35/121 63/1/121
f 68/36/122 69/27/122 67/13/122
f 109/67/123 69/27/123 68/36/123 110/68/123
f 110/68/124 68/36/124 71/35/124 103/69/124
f 103/69/125 104/70/125 59/5/125 33/1/125
f 104/70/126 70/34/126 73/33/126 105/71/126
f 105/72/127 73/37/127 72/32/127 106/61/127
f 86/73/128 82/14/128 66/10/128 84/74/128
f 88/75/129 67/13/129 82/14/129 86/73/129
f 90/76/130 78/2/130 67/13/130 88/75/130
f 84/74/131 66/10/131 81/11/131 92/77/131
f 92/77/132 81/11/132 65/7/132 94/78/132
f 94/78/133 65/7/133 80/8/133 96/79/133
f 96/79/134 80/8/134 64/22/134 98/80/134
f 98/80/135 64/22/135 79/5/135 100/81/135
f 100/81/136 79/5/136 63/1/136 102/82/136
f 102/82/137 63/1/137 78/2/137 90/76/137
f 10/35/138 101/83/138 89/84/138 7/36/138
f 101/83/139 102/82/139 90/76/139 89/84/139
f 9/34/140 99/85/140 101/83/140 10/35/140
f 99/85/141 100/81/141 102/82/141 101/83/141
f 12/37/142 97/86/142 99/85/142 9/34/142
f 97/86/143 98/80/143 100/81/143 99/85/143
f 11/32/144 95/87/144 97/86/144 12/37/144
f 95/87/145 96/79/145 98/80/145 97/86/145
f 14/31/146 93/88/146 95/87/146 11/32/146
f 93/88/147 94/78/147 96/79/147 95/87/147
f 13/30/148 91/89/148 93/88/148 14/31/148
f 91/89/149 92/77/149 94/78/149 93/88/149
f 16/29/150 83/90/150 91/89/150 13/30/150
f 83/90/151 84/74/151 92/77/151 91/89/151
f 7/36/152 89/84/152 87/91/152 8/27/152
f 89/84/153 90/76/153 88/75/153 87/91/153
f 8/27/154 87/91/154 85/92/154 15/28/154
f 87/91/155 88/75/155 86/73/155 85/92/155
f 15/28/156 85/92/156 83/90/156 16/29/156
f 85/92/157 86/73/157 84/74/157 83/90/157
f 111/93/158 76/28/158 69/27/158 109/67/158
f 112/94/159 77/29/159 76/28/159 111/93/159
f 107/66/160 74/30/160 77/29/160 112/94/160
f 61/11/161 107/66/161 112/94/161 36/10/161
f 36/10/162 112/94/162 111/93/162 62/14/162
f 62/14/163 111/93/163 109/67/163 37/13/163
f 34/22/164 105/72/164 106/61/164 60/8/164
f 59/5/165 104/70/165 105/71/165 34/22/165
f 71/35/166 70/34/166 104/70/166 103/69/166
f 58/2/167 110/68/167 103/69/167 33/1/167
f 37/13/168 109/67/168 110/68/168 58/2/168
f 35/7/169 108/62/169 107/66/169 61/11/169
f 60/8/170 106/61/170 108/62/170 35/7/170
