# Blender 4.1.1
# www.blender.org
mtllib Tree4.stem_lowpoly1.mtl
o Tree4.stem_lowpoly1
v -1.273054 -0.253401 -1.674405
v 1.747735 -0.253400 1.298834
v -1.225496 -0.253400 1.298835
v 1.348566 5.173958 -0.866538
v -0.374135 4.374807 0.843836
v 1.618699 13.284539 0.285525
v -0.966034 14.372413 0.433700
v -0.764865 15.407377 -0.865348
v -1.413453 14.156657 0.251119
v -1.214565 14.775579 -0.645646
v 0.987006 10.667702 0.376359
v -0.548566 12.481554 -0.762041
v 1.981872 13.166848 -0.821176
v 0.690534 5.665410 0.776306
v -0.419014 6.018512 -1.318109
v 2.276098 -0.253400 -0.187785
v 1.491062 4.353293 0.195965
v 1.620133 12.019139 -0.451719
v 0.403794 -0.253400 1.874757
v 0.213561 -0.253401 -2.250328
v 0.866080 13.323637 -1.085458
v 0.422566 12.457175 -1.120418
v 1.375808 -0.255124 -1.964828
v 0.145432 16.135796 -0.071756
v -0.609176 16.107956 -1.418207
v -4.480108 17.356756 1.231775
v -4.439252 17.082468 0.752830
v -4.471526 16.907864 0.762519
v 0.495931 16.361837 -1.857626
v 0.874466 16.255411 -0.590278
v 4.018840 14.816489 -0.808520
v 4.233728 15.866530 -0.384658
v -0.195727 13.169875 0.540140
v -1.181750 4.517027 -0.130362
v 0.423865 4.380060 1.044786
v -0.085676 15.970565 -1.785236
v 0.880398 15.430785 -0.910239
v -1.536785 14.909561 0.300664
v -1.342719 13.956801 -0.803387
v -3.834722 16.022938 0.219762
v -4.694727 16.558554 1.052826
v -0.662868 12.299214 -0.001153
v 1.796555 13.637854 -0.374211
v 4.099692 15.351995 -0.182100
v -0.602038 6.598336 0.436175
v -1.847699 -0.253688 -0.620325
v 1.070795 10.684985 -0.824526
v 4.253846 15.707715 -0.527163
v -4.836467 17.340326 1.577128
v 1.112655 16.457073 -1.574785
v -0.893354 16.080414 -0.219779
vn 0.6294 -0.1185 -0.7680
vn 0.1266 0.1676 0.9777
vn 0.6111 0.2163 0.7614
vn -0.7665 0.0390 0.6411
vn -0.8687 0.1452 -0.4736
vn -0.5930 -0.4135 -0.6910
vn 0.5926 0.0627 -0.8030
vn -0.1012 -0.5667 0.8177
vn 0.2175 -0.0286 0.9757
vn -0.7693 0.0407 0.6376
vn 0.6226 0.0341 0.7818
vn 0.9493 0.0866 0.3023
vn 0.9341 0.1315 0.3320
vn 0.9173 -0.3940 0.0583
vn -0.3294 0.1522 0.9318
vn 0.4155 -0.5588 -0.7177
vn 0.9726 0.0508 -0.2268
vn -0.2423 0.1509 0.9584
vn 0.9725 -0.0781 0.2193
vn 0.8879 0.0955 -0.4499
vn -0.3594 0.1016 -0.9276
vn -0.9464 0.1006 0.3068
vn 0.3888 0.1608 0.9072
vn 0.7221 -0.5691 0.3933
vn 0.6029 0.7967 0.0413
vn -0.5006 -0.2472 0.8296
vn 0.1389 0.0008 0.9903
vn -0.2416 0.1721 0.9550
vn 0.2355 0.1661 -0.9576
vn 0.9943 0.0508 -0.0941
vn 0.9945 0.0774 0.0705
vn -0.7399 0.1993 0.6425
vn -0.2180 -0.0505 -0.9746
vn -0.3436 0.0737 -0.9362
vn -0.8838 0.0850 -0.4601
vn -0.8630 -0.3920 0.3186
vn 0.6737 -0.3715 0.6389
vn 0.9283 -0.3406 -0.1491
vn 0.3122 -0.3789 -0.8712
vn 0.7227 0.5091 0.4675
vn 0.1367 0.1924 0.9718
vn -0.7497 0.5693 0.3374
vn -0.4474 0.0135 0.8942
vn -0.6815 0.6202 0.3886
vn -0.9889 0.0681 -0.1322
vn 0.6060 0.7898 0.0945
vn -0.3271 -0.1153 0.9379
vn 0.6650 0.7368 0.1221
vn -0.1137 0.3940 -0.9120
vn -0.5680 -0.8148 0.1163
vn -0.1610 0.3976 0.9033
vn 0.2545 0.7165 -0.6495
vn 0.4851 -0.7403 0.4654
vn 0.0990 0.0733 -0.9924
vn -0.5933 0.0651 -0.8023
vn -0.3512 0.4114 -0.8411
vn 0.2224 -0.0788 -0.9718
vn 0.9489 -0.2897 0.1252
vn -0.7080 0.6391 -0.3003
vn -0.4086 -0.2264 -0.8842
vn -0.2116 0.2167 -0.9530
vn -0.6771 0.2400 -0.6957
vn -0.0948 0.2224 0.9703
vn 0.2632 0.0614 0.9628
vn 0.8301 0.3386 0.4430
vn -0.8805 -0.4731 0.0306
vn 0.6149 0.0266 0.7881
vn -0.0646 -0.6972 0.7140
vn -0.9726 0.0348 -0.2298
vn -0.6771 -0.6903 -0.2552
vn -0.7245 -0.1034 -0.6815
vn 0.9858 0.1682 -0.0023
vt 0.909204 0.054581
vt 0.931037 0.048289
vt 1.056377 0.075171
vt 1.002151 0.087007
vt 0.414623 0.034606
vt 0.662464 0.027709
vt 0.770886 0.065511
vt 0.805440 0.031038
vt 0.661470 0.017552
vt 0.742433 0.031313
vt 0.370253 0.010160
vt 0.253266 0.017250
vt 0.476258 0.009904
vt 0.245247 0.022748
vt 0.057647 0.030317
vt 0.125084 0.031751
vt 0.185905 0.037240
vt 0.123987 0.065428
vt 0.056377 0.075171
vt 0.829247 0.068354
vt 0.362111 0.241516
vt 0.345642 0.209062
vt 0.337833 0.061083
vt 0.335005 0.053560
vt 0.329915 0.016766
vt 0.743017 0.024970
vt 0.863744 0.077125
vt 0.842730 0.037055
vt 0.762764 0.036471
vt 0.892363 0.040766
vt 0.810414 0.052881
vt 0.431613 0.017553
vt 0.630671 0.022731
vt 0.939055 0.091162
vt 0.906458 0.035816
vt 0.934868 0.040257
vt 0.857648 0.054750
vt 0.025156 0.037667
vt 0.829756 0.157510
vt 0.806698 0.167694
vt 0.340902 0.212938
vt 1.025156 0.037667
vt 1.057647 0.030317
vt 0.217430 0.053276
vt 0.067053 0.037448
vt 0.157956 0.028655
vt 1.031598 0.034558
vt 1.108378 0.027321
vt 0.463533 0.014371
vt 0.261190 0.047780
vt 0.324938 0.162822
vt 0.811516 0.178507
vt 0.358457 0.226379
vt 0.335653 0.209877
vt 0.823031 0.184464
vt 1.141639 0.044622
vt 0.292616 0.030589
s 0
usemtl Material.001
f 37/1/1 21/2/1 36/3/1 29/4/1
f 7/5/2 33/6/2 6/7/2
f 17/8/3 35/9/3 2/10/3
f 45/11/4 34/12/4 5/13/4
f 46/14/5 15/15/5 1/16/5
f 8/17/6 25/18/6 36/19/6
f 37/1/7 43/20/7 21/2/7
f 49/21/8 41/22/8 38/23/8
f 38/23/9 41/22/9 9/24/9
f 34/12/10 45/11/10 42/25/10
f 35/9/11 17/8/11 14/26/11
f 6/7/12 13/27/12 43/20/12
f 2/10/13 16/28/13 17/8/13
f 11/29/14 47/30/14 18/31/14
f 3/32/15 19/33/15 5/13/15
f 29/4/16 50/34/16 37/1/16
f 4/35/17 23/36/17 47/30/17
f 5/13/18 35/9/18 45/11/18
f 50/34/19 30/37/19 37/1/19
f 16/28/20 23/36/20 4/35/20
f 20/38/21 1/16/21 15/15/21
f 46/14/22 3/32/22 34/12/22
f 19/33/23 2/10/23 35/9/23
f 31/39/24 44/40/24 18/31/24
f 38/23/25 27/41/25 49/21/25
f 33/6/26 7/5/26 42/25/26
f 33/6/27 11/29/27 6/7/27
f 5/13/28 19/33/28 35/9/28
f 23/36/29 20/42/29 15/43/29
f 4/35/30 47/30/30 17/8/30
f 11/29/31 17/8/31 47/30/31
f 34/12/32 3/32/32 5/13/32
f 39/44/33 8/17/33 22/45/33 12/46/33
f 22/47/34 15/43/34 12/48/34
f 34/12/35 12/46/35 15/15/35 46/14/35
f 42/25/36 7/5/36 9/24/36 12/46/36
f 18/31/37 44/40/37 6/7/37 11/29/37
f 18/31/38 47/30/38 13/27/38
f 13/27/39 31/39/39 18/31/39
f 37/1/40 6/7/40 43/20/40
f 7/5/41 6/7/41 24/49/41
f 8/17/42 7/5/42 24/49/42
f 42/25/43 45/11/43 14/26/43 33/6/43
f 10/50/44 7/5/44 8/17/44
f 12/46/45 34/12/45 42/25/45
f 10/50/46 27/41/46 38/23/46
f 9/24/47 7/5/47 38/23/47
f 10/50/48 38/23/48 7/5/48
f 27/41/49 10/50/49 40/51/49
f 9/24/50 41/22/50 39/44/50
f 32/52/51 6/7/51 44/40/51
f 13/27/52 21/2/52 43/20/52
f 27/41/53 26/53/53 49/21/53
f 15/43/54 22/47/54 47/30/54 23/36/54
f 40/51/55 28/54/55 27/41/55
f 32/52/56 48/55/56 31/39/56 13/27/56
f 13/27/57 47/30/57 22/47/57 21/2/57
f 31/39/58 48/55/58 44/40/58
f 6/7/59 32/52/59 13/27/59
f 36/3/60 21/2/60 22/47/60 8/56/60
f 39/44/61 40/51/61 10/50/61
f 10/50/62 8/17/62 39/44/62
f 45/11/63 35/9/63 14/26/63
f 33/6/64 14/26/64 11/29/64
f 24/49/65 6/7/65 37/1/65 30/37/65
f 39/44/66 12/46/66 9/24/66
f 17/8/67 11/29/67 14/26/67
f 8/17/68 24/49/68 51/57/68
f 25/18/69 8/17/69 51/57/69
f 40/51/70 39/44/70 41/22/70
f 28/54/71 40/51/71 41/22/71
f 17/8/72 16/28/72 4/35/72
