# Blender 4.1.1
# www.blender.org
mtllib rock2.mtl
o Rock_#1
v 0.089524 -0.076141 0.009268
v 0.272932 0.157594 0.072749
v -0.005393 -0.031672 0.194139
v -0.120614 -0.045352 0.087289
v -0.052972 -0.008206 -0.109436
v 0.168641 0.120066 -0.182128
v -0.006870 0.298468 0.160541
v -0.171125 0.105767 0.207714
v -0.246332 0.061755 -0.000924
v -0.073057 0.193146 -0.229990
v 0.173512 0.468453 -0.097459
v -0.068242 0.326151 -0.020572
v 0.049219 -0.093655 0.121666
v 0.247101 -0.043493 0.045599
v 0.121464 0.010297 0.171937
v 0.295218 0.145972 -0.063641
v 0.170920 -0.030213 -0.091306
v -0.023517 -0.069702 0.044428
v -0.075913 -0.053197 0.153529
v 0.008880 -0.062010 -0.079465
v -0.087418 -0.047685 -0.029487
v 0.034710 0.023617 -0.184917
v 0.240917 0.368164 -0.017432
v 0.182482 0.328309 -0.158752
v -0.008283 0.108860 0.186595
v 0.100917 0.255968 0.153075
v -0.179763 -0.004748 0.176208
v -0.095590 0.045138 0.199394
v -0.169155 0.008347 -0.066623
v -0.202934 -0.005379 0.052084
v 0.021080 0.172858 -0.272837
v -0.080906 0.061063 -0.192708
v 0.100882 0.441674 0.034723
v -0.079937 0.199175 0.174437
v -0.226307 0.075239 0.118657
v -0.186596 0.117467 -0.122882
v 0.045858 0.369364 -0.184148
v -0.030904 0.379788 0.064322
v 0.043694 0.442223 -0.078209
v -0.142160 0.218942 0.110932
v -0.182309 0.168814 0.006041
v -0.071798 0.288427 -0.127180
v 0.076112 -0.089765 0.064690
v 0.283790 0.050528 0.062557
v 0.049842 -0.024995 0.190947
v 0.310146 0.156208 0.006511
v 0.181613 0.041919 -0.141377
v 0.028866 -0.075908 0.026326
v -0.102623 -0.051165 0.123463
v 0.049220 -0.071723 -0.036291
v -0.069206 -0.031571 -0.072705
v 0.104287 0.065390 -0.195788
v 0.269480 0.266356 0.032726
v 0.186714 0.420803 -0.128593
v -0.004665 0.024443 0.195802
v 0.034936 0.284966 0.166236
v -0.155356 -0.032644 0.134746
v -0.139514 0.078970 0.212835
v -0.106154 -0.002951 -0.090853
v -0.236582 0.026943 0.026594
v 0.097326 0.149754 -0.238177
v -0.084814 0.122498 -0.226621
v 0.039201 0.376995 0.111105
v -0.129174 0.149747 0.198359
v -0.245351 0.066202 0.056902
v -0.130621 0.154425 -0.187566
v 0.122102 0.439759 -0.141854
v -0.018850 0.351042 0.119684
v -0.014818 0.390587 -0.054802
v -0.164621 0.158623 0.172367
v -0.230031 0.106183 0.004889
v -0.076580 0.243179 -0.187016
v 0.018218 -0.071723 0.169426
v 0.169971 -0.075868 0.026700
v 0.210350 0.081403 0.130039
v 0.241233 0.133714 -0.128877
v 0.134462 -0.065592 -0.038691
v -0.073361 -0.057744 0.066129
v -0.040216 -0.049173 0.179516
v -0.023723 -0.035462 -0.100328
v -0.104881 -0.048602 0.029922
v -0.014216 0.003265 -0.148115
v 0.214931 0.441745 -0.064345
v 0.181662 0.218174 -0.180237
v -0.012867 0.208039 0.181990
v 0.196164 0.211755 0.119062
v -0.184391 0.047506 0.205088
v -0.050024 0.003151 0.197994
v -0.223034 0.033545 -0.034226
v -0.161937 -0.029739 0.072644
v -0.033409 0.184604 -0.266023
v -0.065725 0.020360 -0.147253
v 0.154781 0.475017 -0.039734
v -0.043761 0.252342 0.169137
v -0.203863 0.090772 0.176840
v -0.229738 0.084877 -0.058106
v -0.021086 0.277379 -0.221248
v -0.048012 0.365578 0.015739
v 0.116254 0.473097 -0.092496
v -0.106074 0.280048 0.042415
v -0.122229 0.250632 -0.007967
v -0.066372 0.315105 -0.073502
v -0.009522 0.377057 -0.111016
v 0.051262 0.422979 -0.134032
v -0.013490 0.340199 -0.163220
v -0.131206 0.227515 -0.064362
v -0.138874 0.198108 -0.130741
v -0.194614 0.145078 -0.060425
v -0.165422 0.193642 0.062602
v -0.214504 0.119766 0.068401
v -0.192891 0.142891 0.123581
v -0.086715 0.304953 0.087022
v -0.112328 0.220221 0.149186
v -0.061642 0.295042 0.127422
v 0.010903 0.429080 -0.009889
v 0.031752 0.427333 0.048752
v 0.079949 0.465029 -0.026043
v 0.113464 0.364802 -0.182726
v 0.100132 0.257648 -0.229467
v 0.030208 0.276801 -0.242835
v -0.142194 0.084096 -0.164978
v -0.129567 0.030626 -0.129104
v -0.191205 0.055726 -0.098457
v -0.228747 0.028177 0.091098
v -0.199182 -0.008429 0.120393
v -0.213191 0.030440 0.157662
v -0.089786 0.118349 0.194670
v -0.052155 0.072632 0.192713
v -0.048135 0.154641 0.183456
v 0.100387 0.364672 0.101557
v 0.180344 0.328945 0.073448
v 0.175936 0.423745 0.011830
v -0.035016 0.106642 -0.251539
v 0.025306 0.090086 -0.243359
v -0.023955 0.043749 -0.200259
v -0.193046 -0.003541 -0.008926
v -0.130141 -0.023951 -0.046708
v -0.148493 -0.030434 0.007730
v -0.142569 0.015746 0.198178
v -0.131380 -0.030983 0.169982
v -0.091013 -0.012447 0.184476
v 0.038439 0.175232 0.182636
v 0.051509 0.056802 0.188930
v 0.113091 0.128452 0.174057
v 0.233429 0.364247 -0.092120
v 0.286006 0.267978 -0.044538
v 0.251181 0.249354 -0.113730
v 0.103093 -0.009295 -0.144990
v 0.083438 -0.056391 -0.092685
v 0.025779 -0.028250 -0.133353
v -0.039329 -0.059133 -0.057335
v -0.008309 -0.070146 -0.020333
v -0.053288 -0.061705 0.002230
v -0.049345 -0.067323 0.103220
v 0.007658 -0.086378 0.085968
v -0.019131 -0.080971 0.139785
v 0.251151 0.040279 -0.079777
v 0.295577 0.039187 -0.009361
v 0.228261 -0.043605 -0.025174
v 0.093726 -0.063059 0.153446
v 0.151136 -0.084071 0.090640
v 0.199207 -0.028808 0.116348
vn 0.9764 -0.0953 -0.1939
vn 0.8714 0.0419 0.4887
vn 0.8978 -0.3879 0.2083
vn -0.1944 -0.9520 -0.2363
vn -0.0755 -0.9639 -0.2552
vn -0.0821 -0.9909 -0.1064
vn -0.0703 -0.9853 -0.1560
vn -0.0248 -0.9969 -0.0747
vn -0.1253 -0.9919 -0.0226
vn 0.2682 -0.8752 -0.4026
vn 0.0666 -0.9858 -0.1545
vn 0.0295 -0.9689 -0.2455
vn 0.9123 0.3558 0.2026
vn 0.8556 0.2025 0.4764
vn 0.9691 0.1079 -0.2220
vn 0.0576 0.1107 0.9922
vn 0.0613 -0.0304 0.9977
vn 0.2478 0.0188 0.9686
vn -0.4182 -0.8484 0.3246
vn -0.3291 -0.9442 0.0119
vn -0.3087 -0.9274 0.2115
vn -0.3477 -0.7592 -0.5501
vn -0.2838 -0.7473 -0.6008
vn -0.2939 -0.8484 -0.4402
vn 0.3164 -0.3039 -0.8986
vn 0.4779 -0.3626 -0.8001
vn 0.2548 -0.6179 -0.7438
vn 0.4613 0.3752 0.8040
vn 0.6344 0.2846 0.7187
vn 0.6203 0.4797 0.6205
vn 0.1028 0.0785 0.9916
vn 0.0625 -0.0304 0.9976
vn 0.0474 0.1103 0.9928
vn -0.5068 -0.8620 -0.0107
vn -0.3514 -0.9362 -0.0065
vn -0.5282 -0.8152 0.2375
vn -0.2880 -0.7592 -0.5836
vn -0.2630 -0.8104 -0.5235
vn -0.3348 -0.8002 -0.4975
vn 0.5643 0.1540 -0.8111
vn 0.6000 -0.0643 -0.7974
vn 0.4285 0.0616 -0.9015
vn -0.4480 0.7498 0.4869
vn -0.1444 0.5865 0.7970
vn -0.0330 0.7757 0.6302
vn -0.5951 0.6714 0.4416
vn -0.4043 0.5423 0.7365
vn -0.2188 0.5930 0.7749
vn -0.7943 0.6040 0.0650
vn -0.9383 0.3457 -0.0107
vn -0.8670 0.4562 0.2006
vn -0.7397 0.5638 -0.3673
vn -0.7051 0.4328 -0.5617
vn -0.7904 0.4248 -0.4413
vn -0.4242 0.8369 -0.3460
vn 0.0189 0.8296 -0.5581
vn -0.2372 0.6760 -0.6977
vn -0.7988 0.5827 -0.1498
vn -0.6940 0.6824 -0.2296
vn -0.7807 0.5874 -0.2130
vn -0.7337 0.5801 -0.3538
vn -0.6453 0.6910 -0.3257
vn -0.5131 0.6132 -0.6006
vn -0.7342 0.5685 -0.3712
vn -0.5133 0.6150 -0.5986
vn -0.6544 0.4656 -0.5957
vn -0.8162 0.5592 -0.1455
vn -0.7971 0.5689 -0.2022
vn -0.8101 0.5764 -0.1074
vn -0.7923 0.6061 -0.0698
vn -0.7877 0.5918 -0.1712
vn -0.8310 0.4615 -0.3107
vn -0.7929 0.6054 -0.0694
vn -0.8254 0.4695 -0.3135
vn -0.9261 0.3561 -0.1248
vn -0.8170 0.5721 -0.0720
vn -0.8074 0.5898 -0.0179
vn -0.8114 0.5779 0.0880
vn -0.8200 0.5636 0.0997
vn -0.8327 0.5537 0.0056
vn -0.8885 0.4265 0.1693
vn -0.7798 0.5650 0.2696
vn -0.8795 0.4179 0.2277
vn -0.7134 0.4481 0.5388
vn -0.8381 0.5338 -0.1127
vn -0.8325 0.5515 0.0534
vn -0.7836 0.6137 0.0965
vn -0.6006 0.6061 0.5214
vn -0.6604 0.5636 0.4962
vn -0.3358 0.4656 0.8188
vn -0.6788 0.5808 0.4494
vn -0.5574 0.4489 0.6984
vn -0.4348 0.4887 0.7564
vn -0.8016 0.5719 -0.1744
vn -0.7215 0.6904 0.0521
vn -0.6920 0.6941 -0.1986
vn -0.4715 0.8800 -0.0570
vn -0.5541 0.8026 0.2209
vn -0.1106 0.9143 0.3895
vn -0.4077 0.9061 -0.1128
vn -0.0550 0.9255 0.3747
vn 0.0728 0.9933 -0.0893
vn 0.3234 0.5787 -0.7486
vn 0.4369 0.2607 -0.8609
vn 0.0505 0.4736 -0.8793
vn 0.0535 0.5282 -0.8474
vn 0.4535 0.3083 -0.8362
vn 0.2471 0.2486 -0.9365
vn -0.3199 0.5453 -0.7748
vn -0.0591 0.2816 -0.9577
vn -0.5594 0.4194 -0.7150
vn -0.6204 0.0660 -0.7815
vn -0.5024 -0.4421 -0.7431
vn -0.7232 -0.1004 -0.6832
vn -0.7480 -0.1951 -0.6343
vn -0.5069 -0.5596 -0.6556
vn -0.5361 -0.6283 -0.5637
vn -0.7735 -0.1824 -0.6069
vn -0.5965 -0.6200 -0.5097
vn -0.8820 -0.2885 -0.3726
vn -0.9692 -0.2437 0.0352
vn -0.7281 -0.6780 0.1014
vn -0.9415 -0.1326 0.3098
vn -0.9697 -0.0841 0.2295
vn -0.7838 -0.6208 0.0153
vn -0.7656 -0.5672 0.3038
vn -0.9354 0.0327 0.3521
vn -0.7223 -0.3824 0.5762
vn -0.7113 0.1308 0.6907
vn 0.0099 0.1990 0.9800
vn 0.3177 0.0360 0.9475
vn 0.2527 0.2059 0.9454
vn 0.0555 0.2361 0.9701
vn 0.1179 0.0546 0.9915
vn 0.0478 0.1097 0.9928
vn -0.0727 0.1478 0.9863
vn -0.0268 0.0451 0.9986
vn -0.0672 0.2345 0.9698
vn 0.0484 0.5116 0.8578
vn 0.3462 0.4032 0.8471
vn 0.2424 0.6351 0.7335
vn 0.3609 0.6100 0.7055
vn 0.4540 0.3834 0.8043
vn 0.6516 0.4345 0.6218
vn 0.3527 0.7319 0.5831
vn 0.6850 0.5480 0.4801
vn 0.5034 0.8616 0.0654
vn -0.6619 0.0746 -0.7459
vn -0.1596 -0.1771 -0.9712
vn -0.5100 -0.4403 -0.7389
vn -0.2881 -0.6351 -0.7167
vn 0.0362 -0.3336 -0.9420
vn -0.0316 -0.6625 -0.7484
vn -0.3067 -0.7577 -0.5760
vn -0.1171 -0.7949 -0.5953
vn -0.2773 -0.8093 -0.5178
vn -0.8685 -0.4334 -0.2405
vn -0.5709 -0.7248 -0.3857
vn -0.6359 -0.7614 -0.1260
vn -0.4849 -0.8683 -0.1047
vn -0.4775 -0.8003 -0.3626
vn -0.3961 -0.8865 -0.2391
vn -0.4754 -0.8752 -0.0891
vn -0.3329 -0.9363 -0.1123
vn -0.3406 -0.9393 -0.0402
vn -0.1655 -0.0068 0.9862
vn -0.2300 -0.4863 0.8430
vn 0.1187 -0.2297 0.9660
vn 0.1249 -0.2395 0.9628
vn -0.1872 -0.5400 0.8206
vn -0.0070 -0.6064 0.7951
vn -0.2114 -0.2608 0.9420
vn -0.4017 -0.6436 0.6515
vn -0.2019 -0.3596 0.9110
vn -0.0566 0.2340 0.9706
vn 0.0176 0.0472 0.9987
vn 0.2567 0.1509 0.9546
vn 0.2223 0.1789 0.9584
vn 0.0080 0.0540 0.9985
vn 0.2356 -0.0007 0.9719
vn 0.4059 0.1860 0.8948
vn 0.4176 0.0133 0.9085
vn 0.5781 0.1307 0.8054
vn 0.7132 0.5111 -0.4798
vn 0.9571 0.2679 -0.1100
vn 0.7318 0.1808 -0.6571
vn 0.7070 0.2347 -0.6672
vn 0.8944 0.4329 -0.1124
vn 0.8688 0.1400 -0.4750
vn 0.6507 0.1407 -0.7462
vn 0.7687 0.0176 -0.6394
vn 0.5981 -0.0640 -0.7989
vn 0.4672 -0.3466 -0.8134
vn 0.3998 -0.5619 -0.7241
vn 0.2056 -0.5526 -0.8077
vn 0.0683 -0.7093 -0.7016
vn 0.2382 -0.7646 -0.5989
vn -0.0319 -0.8425 -0.5378
vn -0.2579 -0.6585 -0.7070
vn -0.2674 -0.7766 -0.5704
vn -0.4230 -0.6610 -0.6198
vn -0.4286 -0.6645 -0.6121
vn -0.2953 -0.7876 -0.5408
vn -0.4536 -0.7554 -0.4728
vn -0.2895 -0.9510 -0.1089
vn -0.1382 -0.9749 -0.1743
vn -0.2043 -0.9780 -0.0413
vn -0.2958 -0.9498 -0.1016
vn -0.2395 -0.9708 -0.0150
vn -0.2607 -0.9653 -0.0168
vn -0.2636 -0.9643 -0.0239
vn -0.2643 -0.9614 -0.0772
vn -0.2363 -0.9608 0.1450
vn -0.4347 -0.9003 0.0232
vn -0.3459 -0.9313 -0.1143
vn -0.1801 -0.9836 0.0092
vn -0.2768 -0.8165 0.5066
vn -0.0712 -0.9232 0.3777
vn -0.0703 -0.5535 0.8299
vn 0.6010 -0.2889 -0.7452
vn 0.7705 -0.2305 -0.5943
vn 0.5561 -0.5280 -0.6419
vn 0.5718 -0.5514 -0.6074
vn 0.8147 -0.2606 -0.5180
vn 0.7781 -0.5933 -0.2062
vn 0.2636 -0.8751 -0.4058
vn 0.4070 -0.9072 -0.1069
vn 0.0417 -0.9833 -0.1772
vn 0.1079 -0.4752 0.8732
vn 0.2045 -0.8324 0.5150
vn 0.4023 -0.3639 0.8401
vn 0.4123 -0.3662 0.8342
vn 0.2283 -0.8412 0.4901
vn 0.5255 -0.6892 0.4988
vn 0.5210 -0.1569 0.8390
vn 0.7248 -0.3858 0.5708
vn 0.6763 -0.0015 0.7367
vn 0.3879 -0.9217 -0.0040
vn 0.0852 -0.9960 -0.0278
vn 0.0524 -0.9726 -0.2264
vn 0.1080 -0.9896 -0.0951
vn 0.9724 -0.1458 0.1824
vn -0.1136 -0.9709 -0.2108
vn -0.0503 -0.9953 -0.0829
vn 0.0636 -0.9721 -0.2257
vn 0.9329 0.2955 0.2058
vn 0.1087 0.0223 0.9938
vn -0.2776 -0.9321 0.2328
vn -0.3291 -0.7708 -0.5455
vn 0.3829 -0.3893 -0.8378
vn 0.5854 0.3615 0.7257
vn 0.0124 0.0762 0.9970
vn -0.4863 -0.8738 0.0107
vn -0.2796 -0.7999 -0.5310
vn 0.5352 0.0541 -0.8430
vn -0.2388 0.7414 0.6271
vn -0.3768 0.5889 0.7150
vn -0.8713 0.4780 0.1108
vn -0.7548 0.4625 -0.4651
vn -0.2489 0.7887 -0.5622
vn -0.7809 0.5866 -0.2147
vn -0.6437 0.6474 -0.4082
vn -0.6569 0.5529 -0.5126
vn -0.8043 0.5837 -0.1113
vn -0.7847 0.5953 -0.1731
vn -0.8540 0.4917 -0.1703
vn -0.8292 0.5558 -0.0587
vn -0.8262 0.5560 0.0906
vn -0.8131 0.4909 0.3129
vn -0.8211 0.5694 0.0385
vn -0.6236 0.5761 0.5284
vn -0.5058 0.4851 0.7133
vn -0.7519 0.6474 -0.1243
vn -0.4218 0.8894 0.1764
vn -0.1225 0.9910 0.0534
vn 0.3008 0.4296 -0.8514
vn 0.2688 0.3568 -0.8947
vn -0.3431 0.4448 -0.8273
vn -0.6900 -0.1159 -0.7145
vn -0.5405 -0.5530 -0.6341
vn -0.7906 -0.3401 -0.5092
vn -0.9450 -0.3042 0.1206
vn -0.8363 -0.5053 0.2126
vn -0.8482 -0.0368 0.5283
vn 0.2210 0.1643 0.9613
vn 0.1748 0.1020 0.9793
vn -0.1877 0.1506 0.9706
vn 0.2301 0.4922 0.8395
vn 0.4765 0.4946 0.7268
vn 0.5662 0.6888 0.4526
vn -0.4803 -0.1506 -0.8641
vn -0.0711 -0.6378 -0.7669
vn -0.2697 -0.7844 -0.5586
vn -0.6760 -0.7012 -0.2267
vn -0.4308 -0.8676 -0.2485
vn -0.3559 -0.9323 -0.0637
vn -0.0102 -0.2254 0.9742
vn -0.0626 -0.5266 0.8478
vn -0.1677 -0.3561 0.9193
vn 0.0834 0.1499 0.9852
vn 0.1569 0.0697 0.9852
vn 0.4583 0.1240 0.8801
vn 0.8048 0.3610 -0.4711
vn 0.8457 0.2220 -0.4854
vn 0.6821 0.0370 -0.7303
vn 0.3775 -0.5249 -0.7629
vn 0.0879 -0.7565 -0.6481
vn -0.3205 -0.7037 -0.6341
vn -0.3964 -0.7358 -0.5490
vn -0.2297 -0.9685 -0.0957
vn -0.2565 -0.9663 -0.0207
vn -0.3063 -0.9508 -0.0472
vn -0.3360 -0.9390 -0.0729
vn -0.2223 -0.8154 0.5346
vn 0.6264 -0.3094 -0.7154
vn 0.7277 -0.5025 -0.4669
vn 0.2575 -0.9233 -0.2849
vn 0.2333 -0.5326 0.8136
vn 0.4308 -0.6607 0.6148
vn 0.6312 -0.1581 0.7593
vt 0.363637 0.157461
vt 0.318182 0.157461
vt 0.340910 0.118096
vt 0.272728 0.157461
vt 0.295455 0.118096
vt 0.318182 0.078731
vt 0.863636 0.078731
vt 0.886364 0.039365
vt 0.909091 0.078731
vt 0.909091 0.000000
vt 0.931818 0.039365
vt 0.954545 0.078731
vt 0.681818 0.078731
vt 0.704546 0.039365
vt 0.727273 0.078731
vt 0.727273 0.000000
vt 0.750000 0.039365
vt 0.772727 0.078731
vt 0.500000 0.078731
vt 0.522728 0.039365
vt 0.545455 0.078731
vt 0.545455 0.000000
vt 0.568182 0.039365
vt 0.590909 0.078731
vt 0.318183 0.236191
vt 0.295455 0.196826
vt 0.340910 0.196826
vt 0.136364 0.236191
vt 0.113637 0.196826
vt 0.159092 0.196826
vt 0.090910 0.157461
vt 0.136365 0.157461
vt 0.181819 0.157461
vt 0.863637 0.236191
vt 0.840909 0.196826
vt 0.886364 0.196826
vt 0.818182 0.157461
vt 0.863636 0.157461
vt 0.909091 0.157461
vt 0.681819 0.236191
vt 0.659091 0.196826
vt 0.704546 0.196826
vt 0.636364 0.157461
vt 0.681819 0.157461
vt 0.727273 0.157461
vt 0.500001 0.236191
vt 0.477273 0.196826
vt 0.522728 0.196826
vt 0.454546 0.157461
vt 0.500001 0.157461
vt 0.545455 0.157461
vt 0.227274 0.236191
vt 0.250001 0.196826
vt 0.272728 0.236191
vt 0.045455 0.236191
vt 0.068183 0.196826
vt 0.090910 0.236191
vt 0.772728 0.236191
vt 0.795455 0.196826
vt 0.818182 0.236191
vt 0.590910 0.236191
vt 0.613637 0.196826
vt 0.636364 0.236191
vt 0.409092 0.236191
vt 0.431819 0.196826
vt 0.454546 0.236191
vt 0.227273 0.393651
vt 0.204546 0.354286
vt 0.250001 0.354286
vt 0.181819 0.314921
vt 0.227274 0.314921
vt 0.272728 0.314921
vt 0.045455 0.393651
vt 0.022728 0.354286
vt 0.068182 0.354286
vt 0.000000 0.314921
vt 0.045455 0.314921
vt 0.090910 0.314921
vt 0.772727 0.393651
vt 0.750000 0.354286
vt 0.795455 0.354286
vt 0.727273 0.314921
vt 0.772728 0.314921
vt 0.818182 0.314921
vt 0.590909 0.393651
vt 0.568182 0.354286
vt 0.613637 0.354286
vt 0.545455 0.314921
vt 0.590910 0.314921
vt 0.636364 0.314921
vt 0.409092 0.393651
vt 0.386364 0.354286
vt 0.431819 0.354286
vt 0.363637 0.314921
vt 0.409092 0.314921
vt 0.454546 0.314921
vt 0.454546 0.472382
vt 0.431819 0.433017
vt 0.477273 0.433017
vt 0.454546 0.393652
vt 0.500000 0.393651
vt 0.477273 0.354286
vt 0.522728 0.354286
vt 0.500001 0.314921
vt 0.636364 0.472382
vt 0.613637 0.433017
vt 0.659091 0.433017
vt 0.636364 0.393652
vt 0.681818 0.393651
vt 0.659091 0.354286
vt 0.704546 0.354286
vt 0.681819 0.314921
vt 0.818182 0.472382
vt 0.795455 0.433017
vt 0.840909 0.433017
vt 0.818182 0.393652
vt 0.863636 0.393651
vt 0.840909 0.354286
vt 0.886364 0.354286
vt 0.863637 0.314921
vt 0.909091 0.314921
vt 0.090910 0.472382
vt 0.068183 0.433017
vt 0.113637 0.433017
vt 0.090910 0.393652
vt 0.136365 0.393651
vt 0.113637 0.354286
vt 0.159092 0.354286
vt 0.136364 0.314921
vt 0.272728 0.472382
vt 0.250001 0.433017
vt 0.295455 0.433017
vt 0.272728 0.393652
vt 0.318182 0.393651
vt 0.295455 0.354286
vt 0.340910 0.354286
vt 0.318182 0.314921
vt 0.386364 0.275556
vt 0.431819 0.275556
vt 0.477273 0.275556
vt 0.522728 0.275556
vt 0.568182 0.275556
vt 0.613637 0.275556
vt 0.659091 0.275556
vt 0.704546 0.275556
vt 0.750000 0.275556
vt 0.795455 0.275556
vt 0.840909 0.275556
vt 0.886364 0.275556
vt 0.022728 0.275556
vt 0.068182 0.275556
vt 0.113637 0.275556
vt 0.159092 0.275556
vt 0.204546 0.275556
vt 0.250001 0.275556
vt 0.295455 0.275556
vt 0.340910 0.275556
vt 0.545455 0.236191
vt 0.568182 0.196826
vt 0.590910 0.157461
vt 0.727273 0.236191
vt 0.750000 0.196826
vt 0.772728 0.157461
vt 0.931818 0.275556
vt 0.909091 0.236191
vt 0.954545 0.236191
vt 0.931818 0.196826
vt 0.977273 0.196826
vt 0.954546 0.157461
vt 1.000000 0.157461
vt 0.181819 0.236191
vt 0.204546 0.196826
vt 0.227274 0.157461
vt 0.363637 0.236191
vt 0.386364 0.196826
vt 0.409092 0.157461
vt 0.477273 0.118096
vt 0.522728 0.118096
vt 0.568182 0.118096
vt 0.613637 0.118096
vt 0.659091 0.118096
vt 0.704546 0.118096
vt 0.750000 0.118096
vt 0.795455 0.118096
vt 0.840909 0.118096
vt 0.886364 0.118096
vt 0.931818 0.118096
vt 0.977273 0.118096
vt 0.431819 0.118096
vt 0.386364 0.118096
vt 0.409092 0.078731
vt 0.363637 0.078731
vt 0.386364 0.039365
vt 0.340910 0.039365
vt 0.363637 0.000000
vt 0.113637 0.118096
vt 0.136365 0.078731
vt 0.159092 0.118096
vt 0.204546 0.118096
vt 0.181819 0.078731
vt 0.227273 0.078731
vt 0.250001 0.118096
vt 0.204546 0.039365
vt 0.159092 0.039365
vt 0.181819 0.000000
s 0
g Rock_#1_Material.014
usemtl Material.014
f 16/1/1 46/2/1 158/3/1
f 2/4/2 44/5/2 46/2/2
f 14/6/3 158/3/3 44/5/3
f 18/7/4 48/8/4 155/9/4
f 1/10/5 43/11/5 48/8/5
f 13/12/6 155/9/6 43/11/6
f 20/13/7 50/14/7 152/15/7
f 1/16/8 48/17/8 50/14/8
f 18/18/9 152/15/9 48/17/9
f 17/19/10 77/20/10 149/21/10
f 1/22/11 50/23/11 77/20/11
f 20/24/12 149/21/12 50/23/12
f 23/25/13 53/26/13 146/27/13
f 2/4/14 46/2/14 53/26/14
f 16/1/15 146/27/15 46/2/15
f 25/28/16 55/29/16 143/30/16
f 3/31/17 45/32/17 55/29/17
f 15/33/18 143/30/18 45/32/18
f 27/34/19 57/35/19 140/36/19
f 4/37/20 49/38/20 57/35/20
f 19/39/21 140/36/21 49/38/21
f 29/40/22 59/41/22 137/42/22
f 5/43/23 51/44/23 59/41/23
f 21/45/24 137/42/24 51/44/24
f 31/46/25 61/47/25 134/48/25
f 6/49/26 52/50/26 61/47/26
f 22/51/27 134/48/27 52/50/27
f 26/52/28 86/53/28 131/54/28
f 2/4/29 53/26/29 86/53/29
f 23/25/30 131/54/30 53/26/30
f 28/55/31 88/56/31 128/57/31
f 3/31/32 55/29/32 88/56/32
f 25/28/33 128/57/33 55/29/33
f 30/58/34 90/59/34 125/60/34
f 4/37/35 57/35/35 90/59/35
f 27/34/36 125/60/36 57/35/36
f 32/61/37 92/62/37 122/63/37
f 5/43/38 59/41/38 92/62/38
f 29/40/39 122/63/39 59/41/39
f 24/64/40 84/65/40 119/66/40
f 6/49/41 61/47/41 84/65/41
f 31/46/42 119/66/42 61/47/42
f 38/67/43 68/68/43 116/69/43
f 7/70/44 63/71/44 68/68/44
f 33/72/45 116/69/45 63/71/45
f 40/73/46 70/74/46 113/75/46
f 8/76/47 64/77/47 70/74/47
f 34/78/48 113/75/48 64/77/48
f 41/79/49 71/80/49 110/81/49
f 9/82/50 65/83/50 71/80/50
f 35/84/51 110/81/51 65/83/51
f 42/85/52 72/86/52 107/87/52
f 10/88/53 66/89/53 72/86/53
f 36/90/54 107/87/54 66/89/54
f 39/91/55 99/92/55 104/93/55
f 11/94/56 67/95/56 99/92/56
f 37/96/57 104/93/57 67/95/57
f 12/97/58 69/98/58 102/99/58
f 39/91/59 103/100/59 69/98/59
f 42/101/60 102/99/60 103/100/60
f 42/101/61 103/100/61 105/102/61
f 39/91/62 104/93/62 103/100/62
f 37/96/63 105/102/63 104/93/63
f 42/101/64 105/102/64 72/103/64
f 37/96/65 97/104/65 105/102/65
f 10/88/66 72/103/66 97/104/66
f 12/105/67 102/106/67 101/107/67
f 42/85/68 106/108/68 102/106/68
f 41/109/69 101/107/69 106/108/69
f 41/109/70 106/108/70 108/110/70
f 42/85/71 107/87/71 106/108/71
f 36/90/72 108/110/72 107/87/72
f 41/109/73 108/110/73 71/111/73
f 36/90/74 96/112/74 108/110/74
f 9/82/75 71/111/75 96/112/75
f 12/113/76 101/114/76 100/115/76
f 41/79/77 109/116/77 101/114/77
f 40/117/78 100/115/78 109/116/78
f 40/117/79 109/116/79 111/118/79
f 41/79/80 110/81/80 109/116/80
f 35/84/81 111/118/81 110/81/81
f 40/117/82 111/118/82 70/119/82
f 35/84/83 95/120/83 111/118/83
f 8/121/84 70/119/84 95/120/84
f 12/122/85 100/123/85 98/124/85
f 40/73/86 112/125/86 100/123/86
f 38/126/87 98/124/87 112/125/87
f 38/126/88 112/125/88 114/127/88
f 40/73/89 113/75/89 112/125/89
f 34/78/90 114/127/90 113/75/90
f 38/126/91 114/127/91 68/128/91
f 34/78/92 94/129/92 114/127/92
f 7/70/93 68/128/93 94/129/93
f 12/130/94 98/131/94 69/132/94
f 38/67/95 115/133/95 98/131/95
f 39/134/96 69/132/96 115/133/96
f 39/134/97 115/133/97 117/135/97
f 38/67/98 116/69/98 115/133/98
f 33/72/99 117/135/99 116/69/99
f 39/134/100 117/135/100 99/136/100
f 33/72/101 93/137/101 117/135/101
f 11/94/102 99/136/102 93/137/102
f 11/94/103 54/138/103 67/95/103
f 24/64/104 118/139/104 54/138/104
f 37/96/105 67/95/105 118/139/105
f 37/96/106 118/139/106 120/140/106
f 24/64/107 119/66/107 118/139/107
f 31/46/108 120/140/108 119/66/108
f 37/96/109 120/140/109 97/104/109
f 31/46/110 91/141/110 120/140/110
f 10/88/111 97/104/111 91/141/111
f 10/88/112 62/142/112 66/89/112
f 32/61/113 121/143/113 62/142/113
f 36/90/114 66/89/114 121/143/114
f 36/90/115 121/143/115 123/144/115
f 32/61/116 122/63/116 121/143/116
f 29/40/117 123/144/117 122/63/117
f 36/90/118 123/144/118 96/112/118
f 29/40/119 89/145/119 123/144/119
f 9/82/120 96/112/120 89/145/120
f 9/82/121 60/146/121 65/83/121
f 30/58/122 124/147/122 60/146/122
f 35/84/123 65/83/123 124/147/123
f 35/84/124 124/147/124 126/148/124
f 30/58/125 125/60/125 124/147/125
f 27/34/126 126/148/126 125/60/126
f 35/84/127 126/148/127 95/120/127
f 27/34/128 87/149/128 126/148/128
f 8/121/129 95/120/129 87/149/129
f 8/76/130 58/150/130 64/77/130
f 28/55/131 127/151/131 58/150/131
f 34/78/132 64/77/132 127/151/132
f 34/78/133 127/151/133 129/152/133
f 28/55/134 128/57/134 127/151/134
f 25/28/135 129/152/135 128/57/135
f 34/78/136 129/152/136 94/129/136
f 25/28/137 85/153/137 129/152/137
f 7/70/138 94/129/138 85/153/138
f 7/70/139 56/154/139 63/71/139
f 26/52/140 130/155/140 56/154/140
f 33/72/141 63/71/141 130/155/141
f 33/72/142 130/155/142 132/156/142
f 26/52/143 131/54/143 130/155/143
f 23/25/144 132/156/144 131/54/144
f 33/72/145 132/156/145 93/137/145
f 23/25/146 83/157/146 132/156/146
f 11/94/147 93/137/147 83/157/147
f 10/88/148 91/141/148 62/142/148
f 31/46/149 133/158/149 91/141/149
f 32/61/150 62/142/150 133/158/150
f 32/61/151 133/158/151 135/159/151
f 31/46/152 134/48/152 133/158/152
f 22/51/153 135/159/153 134/48/153
f 32/61/154 135/159/154 92/62/154
f 22/51/155 82/160/155 135/159/155
f 5/43/156 92/62/156 82/160/156
f 9/82/157 89/145/157 60/146/157
f 29/40/158 136/161/158 89/145/158
f 30/58/159 60/146/159 136/161/159
f 30/58/160 136/161/160 138/162/160
f 29/40/161 137/42/161 136/161/161
f 21/45/162 138/162/162 137/42/162
f 30/58/163 138/162/163 90/59/163
f 21/45/164 81/163/164 138/162/164
f 4/37/165 90/59/165 81/163/165
f 8/121/166 87/149/166 58/164/166
f 27/34/167 139/165/167 87/149/167
f 28/166/168 58/164/168 139/165/168
f 28/166/169 139/165/169 141/167/169
f 27/34/170 140/36/170 139/165/170
f 19/39/171 141/167/171 140/36/171
f 28/166/172 141/167/172 88/168/172
f 19/39/173 79/169/173 141/167/173
f 3/170/174 88/168/174 79/169/174
f 7/70/175 85/153/175 56/154/175
f 25/28/176 142/171/176 85/153/176
f 26/52/177 56/154/177 142/171/177
f 26/52/178 142/171/178 144/172/178
f 25/28/179 143/30/179 142/171/179
f 15/33/180 144/172/180 143/30/180
f 26/52/181 144/172/181 86/53/181
f 15/33/182 75/173/182 144/172/182
f 2/4/183 86/53/183 75/173/183
f 11/94/184 83/157/184 54/138/184
f 23/25/185 145/174/185 83/157/185
f 24/64/186 54/138/186 145/174/186
f 24/64/187 145/174/187 147/175/187
f 23/25/188 146/27/188 145/174/188
f 16/1/189 147/175/189 146/27/189
f 24/64/190 147/175/190 84/65/190
f 16/1/191 76/176/191 147/175/191
f 6/49/192 84/65/192 76/176/192
f 6/49/193 47/177/193 52/50/193
f 17/19/194 148/178/194 47/177/194
f 22/51/195 52/50/195 148/178/195
f 22/51/196 148/178/196 150/179/196
f 17/19/197 149/21/197 148/178/197
f 20/24/198 150/179/198 149/21/198
f 22/51/199 150/179/199 82/160/199
f 20/24/200 80/180/200 150/179/200
f 5/43/201 82/160/201 80/180/201
f 5/43/202 80/181/202 51/44/202
f 20/13/203 151/182/203 80/181/203
f 21/45/204 51/44/204 151/182/204
f 21/45/205 151/182/205 153/183/205
f 20/13/206 152/15/206 151/182/206
f 18/18/207 153/183/207 152/15/207
f 21/45/208 153/183/208 81/163/208
f 18/18/209 78/184/209 153/183/209
f 4/37/210 81/163/210 78/184/210
f 4/37/211 78/185/211 49/38/211
f 18/7/212 154/186/212 78/185/212
f 19/39/213 49/38/213 154/186/213
f 19/39/214 154/186/214 156/187/214
f 18/7/215 155/9/215 154/186/215
f 13/12/216 156/187/216 155/9/216
f 19/39/217 156/187/217 79/169/217
f 13/12/218 73/188/218 156/187/218
f 3/170/219 79/169/219 73/188/219
f 6/49/220 76/176/220 47/189/220
f 16/1/221 157/190/221 76/176/221
f 17/191/222 47/189/222 157/190/222
f 17/191/223 157/190/223 159/192/223
f 16/1/224 158/3/224 157/190/224
f 14/6/225 159/192/225 158/3/225
f 17/191/226 159/192/226 77/193/226
f 14/6/227 74/194/227 159/192/227
f 1/195/228 77/193/228 74/194/228
f 3/31/229 73/196/229 45/32/229
f 13/197/230 160/198/230 73/196/230
f 15/33/231 45/32/231 160/198/231
f 15/33/232 160/198/232 162/199/232
f 13/197/233 161/200/233 160/198/233
f 14/201/234 162/199/234 161/200/234
f 15/33/235 162/199/235 75/173/235
f 14/201/236 44/202/236 162/199/236
f 2/4/237 75/173/237 44/202/237
f 14/201/238 161/200/238 74/203/238
f 13/197/239 43/204/239 161/200/239
f 1/205/240 74/203/240 43/204/240
f 161/200/241 43/204/241 74/203/241
f 158/3/242 46/2/242 44/5/242
f 155/9/243 48/8/243 43/11/243
f 152/15/244 50/14/244 48/17/244
f 149/21/245 77/20/245 50/23/245
f 146/27/246 53/26/246 46/2/246
f 143/30/247 55/29/247 45/32/247
f 140/36/248 57/35/248 49/38/248
f 137/42/249 59/41/249 51/44/249
f 134/48/250 61/47/250 52/50/250
f 131/54/251 86/53/251 53/26/251
f 128/57/252 88/56/252 55/29/252
f 125/60/253 90/59/253 57/35/253
f 122/63/254 92/62/254 59/41/254
f 119/66/255 84/65/255 61/47/255
f 116/69/256 68/68/256 63/71/256
f 113/75/257 70/74/257 64/77/257
f 110/81/258 71/80/258 65/83/258
f 107/87/259 72/86/259 66/89/259
f 104/93/260 99/92/260 67/95/260
f 102/99/261 69/98/261 103/100/261
f 105/102/262 103/100/262 104/93/262
f 72/103/263 105/102/263 97/104/263
f 101/107/264 102/106/264 106/108/264
f 108/110/265 106/108/265 107/87/265
f 71/111/266 108/110/266 96/112/266
f 100/115/267 101/114/267 109/116/267
f 111/118/268 109/116/268 110/81/268
f 70/119/269 111/118/269 95/120/269
f 98/124/270 100/123/270 112/125/270
f 114/127/271 112/125/271 113/75/271
f 68/128/272 114/127/272 94/129/272
f 69/132/273 98/131/273 115/133/273
f 117/135/274 115/133/274 116/69/274
f 99/136/275 117/135/275 93/137/275
f 67/95/276 54/138/276 118/139/276
f 120/140/277 118/139/277 119/66/277
f 97/104/278 120/140/278 91/141/278
f 66/89/279 62/142/279 121/143/279
f 123/144/280 121/143/280 122/63/280
f 96/112/281 123/144/281 89/145/281
f 65/83/282 60/146/282 124/147/282
f 126/148/283 124/147/283 125/60/283
f 95/120/284 126/148/284 87/149/284
f 64/77/285 58/150/285 127/151/285
f 129/152/286 127/151/286 128/57/286
f 94/129/287 129/152/287 85/153/287
f 63/71/288 56/154/288 130/155/288
f 132/156/289 130/155/289 131/54/289
f 93/137/290 132/156/290 83/157/290
f 62/142/291 91/141/291 133/158/291
f 135/159/292 133/158/292 134/48/292
f 92/62/293 135/159/293 82/160/293
f 60/146/294 89/145/294 136/161/294
f 138/162/295 136/161/295 137/42/295
f 90/59/296 138/162/296 81/163/296
f 58/164/297 87/149/297 139/165/297
f 141/167/298 139/165/298 140/36/298
f 88/168/299 141/167/299 79/169/299
f 56/154/300 85/153/300 142/171/300
f 144/172/301 142/171/301 143/30/301
f 86/53/302 144/172/302 75/173/302
f 54/138/303 83/157/303 145/174/303
f 147/175/304 145/174/304 146/27/304
f 84/65/305 147/175/305 76/176/305
f 52/50/306 47/177/306 148/178/306
f 150/179/307 148/178/307 149/21/307
f 82/160/308 150/179/308 80/180/308
f 51/44/309 80/181/309 151/182/309
f 153/183/310 151/182/310 152/15/310
f 81/163/311 153/183/311 78/184/311
f 49/38/312 78/185/312 154/186/312
f 156/187/313 154/186/313 155/9/313
f 79/169/314 156/187/314 73/188/314
f 47/189/315 76/176/315 157/190/315
f 159/192/316 157/190/316 158/3/316
f 77/193/317 159/192/317 74/194/317
f 45/32/318 73/196/318 160/198/318
f 162/199/319 160/198/319 161/200/319
f 75/173/320 162/199/320 44/202/320
