# Blender 4.1.1
# www.blender.org
mtllib rock1.mtl
o Rock_#5
v -0.012158 -0.091123 -0.002640
v 0.191890 0.010547 0.047133
v -0.000393 0.127732 0.210127
v -0.187541 0.068243 0.056001
v -0.039624 -0.026825 -0.153579
v 0.186079 -0.027067 -0.158854
v 0.174317 0.382611 0.114155
v -0.068105 0.349876 0.102286
v -0.252639 0.175788 -0.102277
v 0.040183 0.130872 -0.194422
v 0.264662 0.129565 -0.090394
v 0.070583 0.381667 -0.063828
v -0.058192 -0.021525 0.147374
v 0.091282 -0.074770 0.025177
v 0.079996 0.061084 0.172648
v 0.232542 -0.048713 -0.100036
v 0.105384 -0.097256 -0.106485
v -0.124722 -0.027512 0.045618
v -0.123913 0.091901 0.176307
v -0.014159 -0.088509 -0.111054
v -0.141073 -0.014106 -0.075839
v 0.079995 -0.043303 -0.173145
v 0.279763 0.071232 -0.057537
v 0.253298 0.048089 -0.152553
v 0.114809 0.279508 0.201348
v 0.187120 0.206950 0.115285
v -0.155292 0.196204 0.101020
v -0.017178 0.262237 0.179877
v -0.171029 0.054377 -0.135256
v -0.261096 0.101804 -0.035641
v 0.150745 0.043893 -0.197654
v -0.024379 0.035518 -0.170121
v 0.227386 0.231374 0.029838
v 0.075081 0.410777 0.111731
v -0.199864 0.280409 0.000001
v -0.148356 0.163364 -0.169539
v 0.198782 0.143324 -0.148184
v 0.142779 0.419415 0.029860
v 0.204406 0.245991 -0.058472
v -0.020237 0.416799 0.019767
v -0.138563 0.330585 -0.098866
v 0.043325 0.247301 -0.155146
v -0.042943 -0.067197 0.072088
v 0.148759 -0.040556 0.039938
v 0.036490 0.094528 0.203785
v 0.220825 -0.031114 -0.028521
v 0.154421 -0.066270 -0.138494
v -0.071469 -0.067580 0.022605
v -0.163198 0.080598 0.121033
v -0.013618 -0.096829 -0.058642
v -0.086477 -0.028050 -0.125850
v 0.139217 -0.036877 -0.169163
v 0.245174 0.037988 -0.005907
v 0.267332 0.089421 -0.126424
v 0.059803 0.198907 0.215744
v 0.185084 0.310215 0.125084
v -0.183489 0.125157 0.083962
v -0.040600 0.316973 0.142356
v -0.099400 0.007633 -0.146369
v -0.271608 0.135728 -0.073292
v 0.177336 0.006260 -0.183300
v 0.001911 0.084735 -0.187407
v 0.199942 0.323821 0.080168
v 0.001697 0.389154 0.109752
v -0.246634 0.225971 -0.057436
v -0.054622 0.146598 -0.188438
v 0.244873 0.135587 -0.118854
v 0.164959 0.414671 0.074603
v 0.144070 0.325943 -0.062883
v -0.049389 0.392131 0.065708
v -0.217869 0.254257 -0.103807
v 0.037529 0.185135 -0.183878
v -0.036898 0.048798 0.193451
v 0.033217 -0.091315 0.012220
v 0.136636 0.030215 0.115644
v 0.215775 -0.042485 -0.137424
v 0.045089 -0.104224 -0.057499
v -0.162220 0.022292 0.056812
v -0.063795 0.108303 0.203406
v -0.021247 -0.061635 -0.142615
v -0.178144 0.024305 -0.008142
v 0.019070 -0.039254 -0.166885
v 0.281174 0.099558 -0.081920
v 0.224093 0.006744 -0.161419
v 0.153797 0.351612 0.160949
v 0.191438 0.098991 0.086034
v -0.112867 0.280980 0.107439
v -0.004758 0.195543 0.205787
v -0.231039 0.111380 -0.121895
v -0.226955 0.081556 0.010837
v 0.099205 0.087980 -0.199030
v -0.032546 -0.001325 -0.162335
v 0.255140 0.165070 -0.035207
v 0.135822 0.415449 0.116092
v -0.132904 0.324646 0.058865
v -0.217999 0.172448 -0.140032
v 0.122513 0.141517 -0.179840
v 0.114352 0.410214 -0.018380
v 0.244489 0.178460 -0.070382
v 0.025409 0.416922 -0.025912
v -0.028070 0.373042 -0.085320
v 0.059492 0.321363 -0.112048
v 0.139509 0.249241 -0.110844
v 0.208786 0.189071 -0.106277
v 0.131543 0.195377 -0.152797
v -0.056001 0.300165 -0.136384
v -0.065627 0.214924 -0.172360
v -0.160744 0.249605 -0.143118
v -0.085937 0.385890 -0.040095
v -0.183331 0.317448 -0.050816
v -0.118579 0.361163 0.010746
v 0.068965 0.439462 0.025338
v 0.033376 0.428471 0.067224
v 0.109446 0.440102 0.069590
v 0.181015 0.337604 -0.011398
v 0.192539 0.334614 0.036026
v 0.224510 0.238230 -0.010757
v 0.235269 0.094762 -0.154360
v 0.211406 0.048582 -0.180524
v 0.181610 0.093948 -0.180875
v -0.096951 0.093955 -0.172292
v -0.103133 0.043328 -0.156098
v -0.173401 0.103918 -0.155777
v -0.250983 0.186487 -0.015860
v -0.222748 0.150065 0.033387
v -0.186284 0.238983 0.050964
v 0.034002 0.345975 0.152851
v 0.055791 0.280379 0.198321
v 0.103132 0.359103 0.164024
v 0.215810 0.226499 0.071871
v 0.239282 0.135675 0.030533
v 0.260241 0.146162 -0.010901
v 0.066381 0.036096 -0.189599
v 0.116956 -0.002451 -0.190356
v 0.036947 -0.007501 -0.175745
v -0.232447 0.069184 -0.092309
v -0.159418 0.014993 -0.111119
v -0.212784 0.037482 -0.058002
v -0.087770 0.231753 0.150513
v -0.138002 0.147866 0.148734
v -0.075761 0.174722 0.188762
v 0.152902 0.255562 0.172293
v 0.101196 0.171795 0.201949
v 0.137451 0.138484 0.156627
v 0.280563 0.049585 -0.117217
v 0.270298 0.002708 -0.087389
v 0.257025 -0.002714 -0.135048
v 0.096655 -0.076748 -0.146762
v 0.046379 -0.101409 -0.114574
v 0.038965 -0.075532 -0.151471
v -0.076793 -0.058802 -0.096067
v -0.075461 -0.067950 -0.039406
v -0.132626 -0.026518 -0.020055
v -0.139733 0.025966 0.123920
v -0.103627 -0.029001 0.106832
v -0.101387 0.029798 0.174081
v 0.173474 -0.081658 -0.105315
v 0.169395 -0.073781 -0.043137
v 0.103923 -0.097115 -0.048724
v 0.007872 0.007449 0.167579
v 0.010853 -0.056610 0.093983
v 0.078537 -0.021956 0.108426
vn 0.5634 -0.7761 0.2833
vn 0.5986 -0.5826 0.5498
vn 0.3807 -0.8221 0.4234
vn -0.5453 -0.8212 0.1679
vn -0.2966 -0.9382 0.1782
vn -0.2701 -0.8465 0.4588
vn -0.4534 -0.8810 -0.1352
vn -0.3283 -0.9388 0.1042
vn -0.5888 -0.8071 0.0427
vn 0.0766 -0.9959 -0.0474
vn -0.1263 -0.9865 0.1038
vn -0.2144 -0.9650 -0.1510
vn 0.8708 -0.2924 0.3951
vn 0.7384 -0.4301 0.5193
vn 0.7424 -0.6121 0.2723
vn 0.2970 -0.0322 0.9543
vn 0.0567 -0.1261 0.9904
vn 0.3884 -0.3045 0.8697
vn -0.8333 0.2077 0.5124
vn -0.9230 -0.1147 0.3673
vn -0.8199 0.0733 0.5678
vn -0.4701 -0.5578 -0.6840
vn -0.4104 -0.5617 -0.7183
vn -0.5270 -0.7695 -0.3607
vn 0.1489 -0.2588 -0.9544
vn 0.2857 -0.5169 -0.8069
vn 0.1098 -0.4686 -0.8766
vn 0.7919 -0.1300 0.5967
vn 0.7454 -0.2652 0.6116
vn 0.8607 -0.1316 0.4919
vn -0.3025 0.2957 0.9061
vn -0.1549 0.0532 0.9865
vn -0.0471 0.2067 0.9773
vn -0.8253 -0.1302 0.5495
vn -0.7654 -0.2391 0.5975
vn -0.7473 0.1407 0.6494
vn -0.1886 -0.1628 -0.9685
vn -0.2564 -0.2495 -0.9338
vn -0.3231 -0.2802 -0.9040
vn 0.5415 -0.2078 -0.8146
vn 0.3754 -0.4821 -0.7916
vn 0.2798 -0.1632 -0.9461
vn 0.8168 0.4533 -0.3568
vn 0.9291 0.3623 0.0738
vn 0.9431 0.3231 -0.0792
vn -0.3950 0.8901 0.2273
vn -0.4491 0.6902 0.5675
vn -0.2496 0.7966 0.5506
vn -0.6236 0.6736 -0.3968
vn -0.8718 0.3803 -0.3088
vn -0.8190 0.5567 0.1393
vn 0.0193 0.4180 -0.9083
vn -0.0306 0.1892 -0.9815
vn -0.1588 0.2019 -0.9665
vn 0.6835 0.4996 -0.5322
vn 0.7614 0.4885 -0.4261
vn 0.5207 0.5120 -0.6832
vn 0.4067 0.5237 -0.7485
vn 0.5866 0.4040 -0.7019
vn 0.3761 0.4033 -0.8342
vn 0.3415 0.5456 -0.7653
vn 0.5341 0.5674 -0.6267
vn 0.4661 0.5400 -0.7008
vn 0.2512 0.3867 -0.8873
vn 0.3481 0.3734 -0.8599
vn 0.1465 0.1956 -0.9697
vn 0.1182 0.6068 -0.7860
vn 0.0941 0.4853 -0.8693
vn -0.1352 0.6028 -0.7863
vn -0.1926 0.5106 -0.8379
vn 0.0311 0.3857 -0.9221
vn -0.1952 0.2616 -0.9452
vn -0.4552 0.5197 -0.7230
vn -0.3547 0.2269 -0.9070
vn -0.6913 0.2935 -0.6603
vn 0.0705 0.7710 -0.6329
vn -0.2433 0.8056 -0.5402
vn -0.2338 0.9444 -0.2311
vn -0.4969 0.8620 0.1002
vn -0.5319 0.8003 -0.2768
vn -0.6977 0.6677 0.2597
vn -0.4972 0.8556 0.1439
vn -0.6930 0.6585 0.2934
vn -0.5766 0.6656 0.4738
vn 0.1106 0.7901 -0.6029
vn -0.2268 0.9478 -0.2241
vn 0.2662 0.9058 -0.3296
vn 0.2679 0.9281 -0.2585
vn -0.2485 0.9677 0.0428
vn -0.1471 0.8641 0.4814
vn 0.4223 0.8993 -0.1140
vn -0.1023 0.8537 0.5106
vn 0.6035 0.6832 0.4110
vn 0.4151 0.5350 -0.7358
vn 0.6624 0.5603 -0.4972
vn 0.6639 0.4689 -0.5826
vn 0.8729 0.3801 -0.3059
vn 0.8544 0.4885 -0.1768
vn 0.9472 0.3205 -0.0130
vn 0.8108 0.5264 -0.2560
vn 0.9224 0.3862 -0.0001
vn 0.9012 0.4183 -0.1136
vn 0.7751 0.4498 -0.4437
vn 0.6610 0.2276 -0.7151
vn 0.5261 0.4842 -0.6991
vn 0.4001 0.4051 -0.8221
vn 0.5477 0.1799 -0.8171
vn 0.2567 0.1612 -0.9530
vn 0.3362 0.4358 -0.8349
vn 0.1969 0.2003 -0.9597
vn 0.1316 0.2832 -0.9500
vn -0.0771 -0.0870 -0.9932
vn -0.1688 -0.2451 -0.9547
vn -0.2172 -0.1224 -0.9684
vn -0.2254 -0.1286 -0.9657
vn -0.1950 -0.2771 -0.9408
vn -0.3273 -0.3750 -0.8674
vn -0.3948 -0.0461 -0.9176
vn -0.5079 -0.3503 -0.7869
vn -0.7381 -0.0424 -0.6734
vn -0.9336 0.2943 -0.2043
vn -0.9517 0.0426 0.3041
vn -0.8573 0.4151 0.3046
vn -0.7952 0.3491 0.4957
vn -0.8709 -0.0108 0.4914
vn -0.7562 0.1861 0.6273
vn -0.7398 0.4119 0.5320
vn -0.6823 0.2906 0.6708
vn -0.6116 0.4462 0.6534
vn -0.3930 0.5598 0.7295
vn -0.2941 0.4516 0.8424
vn -0.2011 0.6125 0.7644
vn -0.2387 0.6237 0.7443
vn -0.3238 0.4640 0.8245
vn -0.0403 0.4194 0.9069
vn -0.1044 0.6789 0.7268
vn 0.1186 0.4358 0.8922
vn 0.5282 0.5827 0.6176
vn 0.9135 0.1902 0.3598
vn 0.8409 -0.0347 0.5401
vn 0.9517 0.1315 0.2774
vn 0.9326 0.2243 0.2829
vn 0.8400 -0.0295 0.5418
vn 0.8958 -0.0420 0.4425
vn 0.9408 0.3332 0.0618
vn 0.9709 0.1265 0.2032
vn 0.8837 0.4479 -0.1357
vn -0.1167 -0.0540 -0.9917
vn -0.0826 -0.1274 -0.9884
vn -0.2030 -0.2262 -0.9527
vn -0.2059 -0.1674 -0.9642
vn -0.0861 -0.0934 -0.9919
vn -0.1577 -0.2588 -0.9530
vn -0.2007 -0.1597 -0.9665
vn -0.1136 -0.2072 -0.9717
vn -0.2637 -0.2470 -0.9324
vn -0.7837 -0.0750 -0.6166
vn -0.5815 -0.4540 -0.6751
vn -0.8696 -0.4622 -0.1736
vn -0.8096 -0.5823 -0.0741
vn -0.5645 -0.5459 -0.6191
vn -0.6053 -0.7393 -0.2951
vn -0.7276 -0.6359 0.2574
vn -0.5487 -0.8196 0.1646
vn -0.6452 -0.6711 0.3652
vn -0.5549 0.4145 0.7213
vn -0.6586 0.2766 0.6998
vn -0.4835 0.3447 0.8046
vn -0.4955 0.4094 0.7661
vn -0.6689 0.3871 0.6346
vn -0.5947 0.2299 0.7704
vn -0.3038 0.2953 0.9058
vn -0.4347 0.1185 0.8927
vn -0.1221 0.0556 0.9910
vn 0.8412 0.2009 0.5020
vn 0.6373 0.0845 0.7659
vn 0.8438 -0.0342 0.5356
vn 0.7659 -0.1835 0.6162
vn 0.5775 -0.0684 0.8135
vn 0.6185 -0.3096 0.7223
vn 0.7444 -0.1467 0.6514
vn 0.5968 -0.2880 0.7489
vn 0.7055 -0.2823 0.6500
vn 0.8585 0.3730 -0.3520
vn 0.9993 -0.0291 0.0240
vn 0.7836 0.1194 -0.6097
vn 0.7859 -0.1491 -0.6001
vn 0.9830 -0.1681 0.0741
vn 0.8140 -0.5575 -0.1633
vn 0.5669 -0.2309 -0.7908
vn 0.6483 -0.6486 -0.3988
vn 0.3518 -0.4575 -0.8167
vn 0.2901 -0.6150 -0.7332
vn 0.2226 -0.8484 -0.4802
vn 0.1170 -0.5785 -0.8072
vn 0.0523 -0.6023 -0.7966
vn 0.1261 -0.8727 -0.4717
vn -0.2058 -0.8202 -0.5338
vn -0.1207 -0.4435 -0.8881
vn -0.2629 -0.7629 -0.5906
vn -0.2845 -0.4214 -0.8611
vn -0.4396 -0.4726 -0.7638
vn -0.4651 -0.7228 -0.5110
vn -0.5985 -0.6466 -0.4730
vn -0.5875 -0.8042 -0.0900
vn -0.4504 -0.8830 -0.1320
vn -0.5733 -0.8174 0.0566
vn -0.7484 -0.6623 -0.0340
vn -0.7866 -0.6115 0.0854
vn -0.8603 -0.4706 0.1963
vn -0.8105 -0.4398 0.3869
vn -0.7355 -0.6168 0.2802
vn -0.7507 -0.2911 0.5931
vn -0.7487 -0.2929 0.5947
vn -0.7712 -0.5848 0.2515
vn -0.4274 -0.6735 0.6031
vn -0.3672 -0.1660 0.9152
vn -0.0997 -0.5240 0.8458
vn -0.0472 -0.1855 0.9815
vn 0.2439 -0.5948 -0.7660
vn 0.4800 -0.8047 -0.3493
vn 0.2010 -0.8395 -0.5048
vn 0.2232 -0.9748 0.0080
vn 0.4726 -0.8699 0.1412
vn 0.2933 -0.9001 0.3223
vn 0.1192 -0.9929 0.0054
vn 0.1946 -0.9292 0.3143
vn -0.0604 -0.9833 0.1718
vn -0.0126 -0.2011 0.9795
vn -0.0179 -0.5442 0.8388
vn 0.2701 -0.4440 0.8543
vn 0.3737 -0.5716 0.7305
vn 0.1270 -0.7456 0.6542
vn 0.2875 -0.7882 0.5441
vn 0.4149 -0.5612 0.7162
vn 0.3228 -0.7761 0.5418
vn 0.5599 -0.5587 0.6119
vn 0.1600 -0.8922 0.4224
vn -0.0397 -0.8578 0.5124
vn -0.0922 -0.9587 0.2690
vn 0.0199 -0.9184 0.3952
vn 0.5030 -0.7522 0.4258
vn -0.4124 -0.8776 0.2445
vn -0.4147 -0.9094 0.0321
vn -0.1238 -0.9910 -0.0517
vn 0.7988 -0.4218 0.4289
vn 0.2170 -0.1588 0.9632
vn -0.8290 0.0827 0.5532
vn -0.4691 -0.5617 -0.6814
vn 0.1663 -0.4367 -0.8841
vn 0.7987 -0.1674 0.5779
vn -0.1595 0.1989 0.9669
vn -0.8139 -0.1359 0.5649
vn -0.2583 -0.2791 -0.9249
vn 0.4101 -0.2730 -0.8702
vn 0.9324 0.3548 -0.0696
vn -0.3614 0.8033 0.4734
vn -0.8074 0.5698 -0.1533
vn -0.0446 0.2220 -0.9740
vn 0.6631 0.5633 -0.4930
vn 0.4272 0.4610 -0.7778
vn 0.4776 0.4948 -0.7260
vn 0.2478 0.4012 -0.8818
vn 0.0733 0.5533 -0.8298
vn -0.1338 0.3981 -0.9075
vn -0.5119 0.3485 -0.7852
vn -0.1797 0.8616 -0.4747
vn -0.5767 0.8165 0.0268
vn -0.6041 0.7111 0.3598
vn 0.1061 0.8738 -0.4745
vn -0.1538 0.9800 0.1265
vn 0.3839 0.8880 0.2530
vn 0.6311 0.5244 -0.5716
vn 0.8992 0.3923 -0.1938
vn 0.9021 0.4160 -0.1148
vn 0.6358 0.4159 -0.6502
vn 0.4231 0.2712 -0.8645
vn 0.1902 0.2569 -0.9476
vn -0.1642 -0.1662 -0.9723
vn -0.2368 -0.2697 -0.9334
vn -0.5152 -0.1411 -0.8454
vn -0.9612 0.2431 0.1303
vn -0.7780 0.2014 0.5951
vn -0.6903 0.3729 0.6200
vn -0.3192 0.5391 0.7794
vn -0.2301 0.5017 0.8339
vn 0.1360 0.5949 0.7922
vn 0.9306 0.1223 0.3449
vn 0.8898 0.0225 0.4558
vn 0.9416 0.3313 0.0601
vn -0.1144 -0.1071 -0.9876
vn -0.1641 -0.1964 -0.9667
vn -0.2005 -0.1569 -0.9670
vn -0.7997 -0.3266 -0.5039
vn -0.6166 -0.7220 -0.3138
vn -0.6776 -0.6747 0.2925
vn -0.5480 0.3749 0.7478
vn -0.6088 0.3494 0.7122
vn -0.2742 0.1597 0.9483
vn 0.7879 0.0650 0.6123
vn 0.6968 -0.1847 0.6931
vn 0.6911 -0.2604 0.6742
vn 0.9144 0.2261 -0.3359
vn 0.9158 -0.3383 -0.2165
vn 0.4764 -0.4490 -0.7560
vn 0.2218 -0.6467 -0.7298
vn 0.0300 -0.8155 -0.5780
vn -0.2360 -0.4868 -0.8410
vn -0.4904 -0.6811 -0.5437
vn -0.6078 -0.7860 -0.1126
vn -0.7176 -0.6790 0.1549
vn -0.8783 -0.3606 0.3140
vn -0.6280 -0.5754 0.5240
vn -0.2093 -0.2526 0.9447
vn 0.3121 -0.7807 -0.5413
vn 0.3218 -0.9364 0.1397
vn 0.0888 -0.9766 0.1959
vn 0.1337 -0.4176 0.8987
vn 0.2356 -0.7283 0.6435
vn 0.4660 -0.6079 0.6429
vt 0.363637 0.157461
vt 0.318182 0.157461
vt 0.340910 0.118096
vt 0.272728 0.157461
vt 0.295455 0.118096
vt 0.318182 0.078731
vt 0.863636 0.078731
vt 0.886364 0.039365
vt 0.909091 0.078731
vt 0.909091 0.000000
vt 0.931818 0.039365
vt 0.954545 0.078731
vt 0.681818 0.078731
vt 0.704546 0.039365
vt 0.727273 0.078731
vt 0.727273 0.000000
vt 0.750000 0.039365
vt 0.772727 0.078731
vt 0.500000 0.078731
vt 0.522728 0.039365
vt 0.545455 0.078731
vt 0.545455 0.000000
vt 0.568182 0.039365
vt 0.590909 0.078731
vt 0.318183 0.236191
vt 0.295455 0.196826
vt 0.340910 0.196826
vt 0.136364 0.236191
vt 0.113637 0.196826
vt 0.159092 0.196826
vt 0.090910 0.157461
vt 0.136365 0.157461
vt 0.181819 0.157461
vt 0.863637 0.236191
vt 0.840909 0.196826
vt 0.886364 0.196826
vt 0.818182 0.157461
vt 0.863636 0.157461
vt 0.909091 0.157461
vt 0.681819 0.236191
vt 0.659091 0.196826
vt 0.704546 0.196826
vt 0.636364 0.157461
vt 0.681819 0.157461
vt 0.727273 0.157461
vt 0.500001 0.236191
vt 0.477273 0.196826
vt 0.522728 0.196826
vt 0.454546 0.157461
vt 0.500001 0.157461
vt 0.545455 0.157461
vt 0.227274 0.236191
vt 0.250001 0.196826
vt 0.272728 0.236191
vt 0.045455 0.236191
vt 0.068183 0.196826
vt 0.090910 0.236191
vt 0.772728 0.236191
vt 0.795455 0.196826
vt 0.818182 0.236191
vt 0.590910 0.236191
vt 0.613637 0.196826
vt 0.636364 0.236191
vt 0.409092 0.236191
vt 0.431819 0.196826
vt 0.454546 0.236191
vt 0.227273 0.393651
vt 0.204546 0.354286
vt 0.250001 0.354286
vt 0.181819 0.314921
vt 0.227274 0.314921
vt 0.272728 0.314921
vt 0.045455 0.393651
vt 0.022728 0.354286
vt 0.068182 0.354286
vt 0.000000 0.314921
vt 0.045455 0.314921
vt 0.090910 0.314921
vt 0.772727 0.393651
vt 0.750000 0.354286
vt 0.795455 0.354286
vt 0.727273 0.314921
vt 0.772728 0.314921
vt 0.818182 0.314921
vt 0.590909 0.393651
vt 0.568182 0.354286
vt 0.613637 0.354286
vt 0.545455 0.314921
vt 0.590910 0.314921
vt 0.636364 0.314921
vt 0.409092 0.393651
vt 0.386364 0.354286
vt 0.431819 0.354286
vt 0.363637 0.314921
vt 0.409092 0.314921
vt 0.454546 0.314921
vt 0.454546 0.472382
vt 0.431819 0.433017
vt 0.477273 0.433017
vt 0.454546 0.393652
vt 0.500000 0.393651
vt 0.477273 0.354286
vt 0.522728 0.354286
vt 0.500001 0.314921
vt 0.636364 0.472382
vt 0.613637 0.433017
vt 0.659091 0.433017
vt 0.636364 0.393652
vt 0.681818 0.393651
vt 0.659091 0.354286
vt 0.704546 0.354286
vt 0.681819 0.314921
vt 0.818182 0.472382
vt 0.795455 0.433017
vt 0.840909 0.433017
vt 0.818182 0.393652
vt 0.863636 0.393651
vt 0.840909 0.354286
vt 0.886364 0.354286
vt 0.863637 0.314921
vt 0.909091 0.314921
vt 0.090910 0.472382
vt 0.068183 0.433017
vt 0.113637 0.433017
vt 0.090910 0.393652
vt 0.136365 0.393651
vt 0.113637 0.354286
vt 0.159092 0.354286
vt 0.136364 0.314921
vt 0.272728 0.472382
vt 0.250001 0.433017
vt 0.295455 0.433017
vt 0.272728 0.393652
vt 0.318182 0.393651
vt 0.295455 0.354286
vt 0.340910 0.354286
vt 0.318182 0.314921
vt 0.386364 0.275556
vt 0.431819 0.275556
vt 0.477273 0.275556
vt 0.522728 0.275556
vt 0.568182 0.275556
vt 0.613637 0.275556
vt 0.659091 0.275556
vt 0.704546 0.275556
vt 0.750000 0.275556
vt 0.795455 0.275556
vt 0.840909 0.275556
vt 0.886364 0.275556
vt 0.022728 0.275556
vt 0.068182 0.275556
vt 0.113637 0.275556
vt 0.159092 0.275556
vt 0.204546 0.275556
vt 0.250001 0.275556
vt 0.295455 0.275556
vt 0.340910 0.275556
vt 0.545455 0.236191
vt 0.568182 0.196826
vt 0.590910 0.157461
vt 0.727273 0.236191
vt 0.750000 0.196826
vt 0.772728 0.157461
vt 0.931818 0.275556
vt 0.909091 0.236191
vt 0.954545 0.236191
vt 0.931818 0.196826
vt 0.977273 0.196826
vt 0.954546 0.157461
vt 1.000000 0.157461
vt 0.181819 0.236191
vt 0.204546 0.196826
vt 0.227274 0.157461
vt 0.363637 0.236191
vt 0.386364 0.196826
vt 0.409092 0.157461
vt 0.477273 0.118096
vt 0.522728 0.118096
vt 0.568182 0.118096
vt 0.613637 0.118096
vt 0.659091 0.118096
vt 0.704546 0.118096
vt 0.750000 0.118096
vt 0.795455 0.118096
vt 0.840909 0.118096
vt 0.886364 0.118096
vt 0.931818 0.118096
vt 0.977273 0.118096
vt 0.431819 0.118096
vt 0.386364 0.118096
vt 0.409092 0.078731
vt 0.363637 0.078731
vt 0.386364 0.039365
vt 0.340910 0.039365
vt 0.363637 0.000000
vt 0.113637 0.118096
vt 0.136365 0.078731
vt 0.159092 0.118096
vt 0.204546 0.118096
vt 0.181819 0.078731
vt 0.227273 0.078731
vt 0.250001 0.118096
vt 0.204546 0.039365
vt 0.159092 0.039365
vt 0.181819 0.000000
s 0
g Rock_#5_Material.014
usemtl Material.014
f 16/1/1 46/2/1 158/3/1
f 2/4/2 44/5/2 46/2/2
f 14/6/3 158/3/3 44/5/3
f 18/7/4 48/8/4 155/9/4
f 1/10/5 43/11/5 48/8/5
f 13/12/6 155/9/6 43/11/6
f 20/13/7 50/14/7 152/15/7
f 1/16/8 48/17/8 50/14/8
f 18/18/9 152/15/9 48/17/9
f 17/19/10 77/20/10 149/21/10
f 1/22/11 50/23/11 77/20/11
f 20/24/12 149/21/12 50/23/12
f 23/25/13 53/26/13 146/27/13
f 2/4/14 46/2/14 53/26/14
f 16/1/15 146/27/15 46/2/15
f 25/28/16 55/29/16 143/30/16
f 3/31/17 45/32/17 55/29/17
f 15/33/18 143/30/18 45/32/18
f 27/34/19 57/35/19 140/36/19
f 4/37/20 49/38/20 57/35/20
f 19/39/21 140/36/21 49/38/21
f 29/40/22 59/41/22 137/42/22
f 5/43/23 51/44/23 59/41/23
f 21/45/24 137/42/24 51/44/24
f 31/46/25 61/47/25 134/48/25
f 6/49/26 52/50/26 61/47/26
f 22/51/27 134/48/27 52/50/27
f 26/52/28 86/53/28 131/54/28
f 2/4/29 53/26/29 86/53/29
f 23/25/30 131/54/30 53/26/30
f 28/55/31 88/56/31 128/57/31
f 3/31/32 55/29/32 88/56/32
f 25/28/33 128/57/33 55/29/33
f 30/58/34 90/59/34 125/60/34
f 4/37/35 57/35/35 90/59/35
f 27/34/36 125/60/36 57/35/36
f 32/61/37 92/62/37 122/63/37
f 5/43/38 59/41/38 92/62/38
f 29/40/39 122/63/39 59/41/39
f 24/64/40 84/65/40 119/66/40
f 6/49/41 61/47/41 84/65/41
f 31/46/42 119/66/42 61/47/42
f 38/67/43 68/68/43 116/69/43
f 7/70/44 63/71/44 68/68/44
f 33/72/45 116/69/45 63/71/45
f 40/73/46 70/74/46 113/75/46
f 8/76/47 64/77/47 70/74/47
f 34/78/48 113/75/48 64/77/48
f 41/79/49 71/80/49 110/81/49
f 9/82/50 65/83/50 71/80/50
f 35/84/51 110/81/51 65/83/51
f 42/85/52 72/86/52 107/87/52
f 10/88/53 66/89/53 72/86/53
f 36/90/54 107/87/54 66/89/54
f 39/91/55 99/92/55 104/93/55
f 11/94/56 67/95/56 99/92/56
f 37/96/57 104/93/57 67/95/57
f 12/97/58 69/98/58 102/99/58
f 39/91/59 103/100/59 69/98/59
f 42/101/60 102/99/60 103/100/60
f 42/101/61 103/100/61 105/102/61
f 39/91/62 104/93/62 103/100/62
f 37/96/63 105/102/63 104/93/63
f 42/101/64 105/102/64 72/103/64
f 37/96/65 97/104/65 105/102/65
f 10/88/66 72/103/66 97/104/66
f 12/105/67 102/106/67 101/107/67
f 42/85/68 106/108/68 102/106/68
f 41/109/69 101/107/69 106/108/69
f 41/109/70 106/108/70 108/110/70
f 42/85/71 107/87/71 106/108/71
f 36/90/72 108/110/72 107/87/72
f 41/109/73 108/110/73 71/111/73
f 36/90/74 96/112/74 108/110/74
f 9/82/75 71/111/75 96/112/75
f 12/113/76 101/114/76 100/115/76
f 41/79/77 109/116/77 101/114/77
f 40/117/78 100/115/78 109/116/78
f 40/117/79 109/116/79 111/118/79
f 41/79/80 110/81/80 109/116/80
f 35/84/81 111/118/81 110/81/81
f 40/117/82 111/118/82 70/119/82
f 35/84/83 95/120/83 111/118/83
f 8/121/84 70/119/84 95/120/84
f 12/122/85 100/123/85 98/124/85
f 40/73/86 112/125/86 100/123/86
f 38/126/87 98/124/87 112/125/87
f 38/126/88 112/125/88 114/127/88
f 40/73/89 113/75/89 112/125/89
f 34/78/90 114/127/90 113/75/90
f 38/126/91 114/127/91 68/128/91
f 34/78/92 94/129/92 114/127/92
f 7/70/93 68/128/93 94/129/93
f 12/130/94 98/131/94 69/132/94
f 38/67/95 115/133/95 98/131/95
f 39/134/96 69/132/96 115/133/96
f 39/134/97 115/133/97 117/135/97
f 38/67/98 116/69/98 115/133/98
f 33/72/99 117/135/99 116/69/99
f 39/134/100 117/135/100 99/136/100
f 33/72/101 93/137/101 117/135/101
f 11/94/102 99/136/102 93/137/102
f 11/94/103 54/138/103 67/95/103
f 24/64/104 118/139/104 54/138/104
f 37/96/105 67/95/105 118/139/105
f 37/96/106 118/139/106 120/140/106
f 24/64/107 119/66/107 118/139/107
f 31/46/108 120/140/108 119/66/108
f 37/96/109 120/140/109 97/104/109
f 31/46/110 91/141/110 120/140/110
f 10/88/111 97/104/111 91/141/111
f 10/88/112 62/142/112 66/89/112
f 32/61/113 121/143/113 62/142/113
f 36/90/114 66/89/114 121/143/114
f 36/90/115 121/143/115 123/144/115
f 32/61/116 122/63/116 121/143/116
f 29/40/117 123/144/117 122/63/117
f 36/90/118 123/144/118 96/112/118
f 29/40/119 89/145/119 123/144/119
f 9/82/120 96/112/120 89/145/120
f 9/82/121 60/146/121 65/83/121
f 30/58/122 124/147/122 60/146/122
f 35/84/123 65/83/123 124/147/123
f 35/84/124 124/147/124 126/148/124
f 30/58/125 125/60/125 124/147/125
f 27/34/126 126/148/126 125/60/126
f 35/84/127 126/148/127 95/120/127
f 27/34/128 87/149/128 126/148/128
f 8/121/129 95/120/129 87/149/129
f 8/76/130 58/150/130 64/77/130
f 28/55/131 127/151/131 58/150/131
f 34/78/132 64/77/132 127/151/132
f 34/78/133 127/151/133 129/152/133
f 28/55/134 128/57/134 127/151/134
f 25/28/135 129/152/135 128/57/135
f 34/78/136 129/152/136 94/129/136
f 25/28/137 85/153/137 129/152/137
f 7/70/138 94/129/138 85/153/138
f 7/70/139 56/154/139 63/71/139
f 26/52/140 130/155/140 56/154/140
f 33/72/141 63/71/141 130/155/141
f 33/72/142 130/155/142 132/156/142
f 26/52/143 131/54/143 130/155/143
f 23/25/144 132/156/144 131/54/144
f 33/72/145 132/156/145 93/137/145
f 23/25/146 83/157/146 132/156/146
f 11/94/147 93/137/147 83/157/147
f 10/88/148 91/141/148 62/142/148
f 31/46/149 133/158/149 91/141/149
f 32/61/150 62/142/150 133/158/150
f 32/61/151 133/158/151 135/159/151
f 31/46/152 134/48/152 133/158/152
f 22/51/153 135/159/153 134/48/153
f 32/61/154 135/159/154 92/62/154
f 22/51/155 82/160/155 135/159/155
f 5/43/156 92/62/156 82/160/156
f 9/82/157 89/145/157 60/146/157
f 29/40/158 136/161/158 89/145/158
f 30/58/159 60/146/159 136/161/159
f 30/58/160 136/161/160 138/162/160
f 29/40/161 137/42/161 136/161/161
f 21/45/162 138/162/162 137/42/162
f 30/58/163 138/162/163 90/59/163
f 21/45/164 81/163/164 138/162/164
f 4/37/165 90/59/165 81/163/165
f 8/121/166 87/149/166 58/164/166
f 27/34/167 139/165/167 87/149/167
f 28/166/168 58/164/168 139/165/168
f 28/166/169 139/165/169 141/167/169
f 27/34/170 140/36/170 139/165/170
f 19/39/171 141/167/171 140/36/171
f 28/166/172 141/167/172 88/168/172
f 19/39/173 79/169/173 141/167/173
f 3/170/174 88/168/174 79/169/174
f 7/70/175 85/153/175 56/154/175
f 25/28/176 142/171/176 85/153/176
f 26/52/177 56/154/177 142/171/177
f 26/52/178 142/171/178 144/172/178
f 25/28/179 143/30/179 142/171/179
f 15/33/180 144/172/180 143/30/180
f 26/52/181 144/172/181 86/53/181
f 15/33/182 75/173/182 144/172/182
f 2/4/183 86/53/183 75/173/183
f 11/94/184 83/157/184 54/138/184
f 23/25/185 145/174/185 83/157/185
f 24/64/186 54/138/186 145/174/186
f 24/64/187 145/174/187 147/175/187
f 23/25/188 146/27/188 145/174/188
f 16/1/189 147/175/189 146/27/189
f 24/64/190 147/175/190 84/65/190
f 16/1/191 76/176/191 147/175/191
f 6/49/192 84/65/192 76/176/192
f 6/49/193 47/177/193 52/50/193
f 17/19/194 148/178/194 47/177/194
f 22/51/195 52/50/195 148/178/195
f 22/51/196 148/178/196 150/179/196
f 17/19/197 149/21/197 148/178/197
f 20/24/198 150/179/198 149/21/198
f 22/51/199 150/179/199 82/160/199
f 20/24/200 80/180/200 150/179/200
f 5/43/201 82/160/201 80/180/201
f 5/43/202 80/181/202 51/44/202
f 20/13/203 151/182/203 80/181/203
f 21/45/204 51/44/204 151/182/204
f 21/45/205 151/182/205 153/183/205
f 20/13/206 152/15/206 151/182/206
f 18/18/207 153/183/207 152/15/207
f 21/45/208 153/183/208 81/163/208
f 18/18/209 78/184/209 153/183/209
f 4/37/210 81/163/210 78/184/210
f 4/37/211 78/185/211 49/38/211
f 18/7/212 154/186/212 78/185/212
f 19/39/213 49/38/213 154/186/213
f 19/39/214 154/186/214 156/187/214
f 18/7/215 155/9/215 154/186/215
f 13/12/216 156/187/216 155/9/216
f 19/39/217 156/187/217 79/169/217
f 13/12/218 73/188/218 156/187/218
f 3/170/219 79/169/219 73/188/219
f 6/49/220 76/176/220 47/189/220
f 16/1/221 157/190/221 76/176/221
f 17/191/222 47/189/222 157/190/222
f 17/191/223 157/190/223 159/192/223
f 16/1/224 158/3/224 157/190/224
f 14/6/225 159/192/225 158/3/225
f 17/191/226 159/192/226 77/193/226
f 14/6/227 74/194/227 159/192/227
f 1/195/228 77/193/228 74/194/228
f 3/31/229 73/196/229 45/32/229
f 13/197/230 160/198/230 73/196/230
f 15/33/231 45/32/231 160/198/231
f 15/33/232 160/198/232 162/199/232
f 13/197/233 161/200/233 160/198/233
f 14/201/234 162/199/234 161/200/234
f 15/33/235 162/199/235 75/173/235
f 14/201/236 44/202/236 162/199/236
f 2/4/237 75/173/237 44/202/237
f 14/201/238 161/200/238 74/203/238
f 13/197/239 43/204/239 161/200/239
f 1/205/240 74/203/240 43/204/240
f 161/200/241 43/204/241 74/203/241
f 158/3/242 46/2/242 44/5/242
f 155/9/243 48/8/243 43/11/243
f 152/15/244 50/14/244 48/17/244
f 149/21/245 77/20/245 50/23/245
f 146/27/246 53/26/246 46/2/246
f 143/30/247 55/29/247 45/32/247
f 140/36/248 57/35/248 49/38/248
f 137/42/249 59/41/249 51/44/249
f 134/48/250 61/47/250 52/50/250
f 131/54/251 86/53/251 53/26/251
f 128/57/252 88/56/252 55/29/252
f 125/60/253 90/59/253 57/35/253
f 122/63/254 92/62/254 59/41/254
f 119/66/255 84/65/255 61/47/255
f 116/69/256 68/68/256 63/71/256
f 113/75/257 70/74/257 64/77/257
f 110/81/258 71/80/258 65/83/258
f 107/87/259 72/86/259 66/89/259
f 104/93/260 99/92/260 67/95/260
f 102/99/261 69/98/261 103/100/261
f 105/102/262 103/100/262 104/93/262
f 72/103/263 105/102/263 97/104/263
f 101/107/264 102/106/264 106/108/264
f 108/110/265 106/108/265 107/87/265
f 71/111/266 108/110/266 96/112/266
f 100/115/267 101/114/267 109/116/267
f 111/118/268 109/116/268 110/81/268
f 70/119/269 111/118/269 95/120/269
f 98/124/270 100/123/270 112/125/270
f 114/127/271 112/125/271 113/75/271
f 68/128/272 114/127/272 94/129/272
f 69/132/273 98/131/273 115/133/273
f 117/135/274 115/133/274 116/69/274
f 99/136/275 117/135/275 93/137/275
f 67/95/276 54/138/276 118/139/276
f 120/140/277 118/139/277 119/66/277
f 97/104/278 120/140/278 91/141/278
f 66/89/279 62/142/279 121/143/279
f 123/144/280 121/143/280 122/63/280
f 96/112/281 123/144/281 89/145/281
f 65/83/282 60/146/282 124/147/282
f 126/148/283 124/147/283 125/60/283
f 95/120/284 126/148/284 87/149/284
f 64/77/285 58/150/285 127/151/285
f 129/152/286 127/151/286 128/57/286
f 94/129/287 129/152/287 85/153/287
f 63/71/288 56/154/288 130/155/288
f 132/156/289 130/155/289 131/54/289
f 93/137/290 132/156/290 83/157/290
f 62/142/291 91/141/291 133/158/291
f 135/159/292 133/158/292 134/48/292
f 92/62/293 135/159/293 82/160/293
f 60/146/294 89/145/294 136/161/294
f 138/162/295 136/161/295 137/42/295
f 90/59/296 138/162/296 81/163/296
f 58/164/297 87/149/297 139/165/297
f 141/167/298 139/165/298 140/36/298
f 88/168/299 141/167/299 79/169/299
f 56/154/300 85/153/300 142/171/300
f 144/172/301 142/171/301 143/30/301
f 86/53/302 144/172/302 75/173/302
f 54/138/303 83/157/303 145/174/303
f 147/175/304 145/174/304 146/27/304
f 84/65/305 147/175/305 76/176/305
f 52/50/306 47/177/306 148/178/306
f 150/179/307 148/178/307 149/21/307
f 82/160/308 150/179/308 80/180/308
f 51/44/309 80/181/309 151/182/309
f 153/183/310 151/182/310 152/15/310
f 81/163/311 153/183/311 78/184/311
f 49/38/312 78/185/312 154/186/312
f 156/187/313 154/186/313 155/9/313
f 79/169/314 156/187/314 73/188/314
f 47/189/315 76/176/315 157/190/315
f 159/192/316 157/190/316 158/3/316
f 77/193/317 159/192/317 74/194/317
f 45/32/318 73/196/318 160/198/318
f 162/199/319 160/198/319 161/200/319
f 75/173/320 162/199/320 44/202/320
