# Blender 4.1.1
# www.blender.org
mtllib grass_lowpoly.mtl
o Plane.001
v -0.437738 0.000000 0.190631
v -0.522262 0.000000 0.009369
v -0.480000 1.440000 0.100000
vn 0.9063 -0.0000 -0.4226
vt 0.000000 0.000000
vt 1.000000 0.000000
vt 0.000000 1.000000
s 0
f 1/1/1 2/2/1 3/3/1
o Plane.002
v 0.123358 0.000000 -0.774163
v -0.063358 0.000000 -0.845837
v 0.030000 2.200000 -0.810000
vn 0.3584 -0.0000 -0.9336
vt 0.000000 0.000000
vt 1.000000 0.000000
vt 0.000000 1.000000
s 0
f 4/4/2 5/5/2 6/6/2
o Plane.003
v -0.622932 0.000000 -0.322285
v -0.497068 0.000000 -0.477715
v -0.560000 1.400000 -0.400000
vn 0.7771 -0.0000 0.6293
vt 0.000000 0.000000
vt 1.000000 0.000000
vt 0.000000 1.000000
s 0
f 7/7/3 8/8/3 9/9/3
o Plane.004
v -0.185399 0.000000 -0.290899
v -0.094601 0.000000 -0.469101
v -0.140000 1.340000 -0.380000
vn 0.8910 -0.0000 0.4540
vt 0.000000 0.000000
vt 1.000000 0.000000
vt 0.000000 1.000000
s 0
f 10/10/4 11/11/4 12/12/4
o Plane.005
v 0.482992 0.000000 -0.415195
v 0.377008 0.000000 -0.584805
v 0.430000 1.820000 -0.500000
vn 0.8480 -0.0000 -0.5299
vt 0.000000 0.000000
vt 1.000000 0.000000
vt 0.000000 1.000000
s 0
f 13/13/5 14/14/5 15/15/5
o Plane.006
v 0.677461 0.000000 -0.292718
v 0.602539 0.000000 -0.107282
v 0.640000 2.000000 -0.200000
vn -0.9272 -0.0000 -0.3746
vt 0.000000 0.000000
vt 1.000000 0.000000
vt 0.000000 1.000000
s 0
f 16/16/6 17/17/6 18/18/6
o Plane.007
v 0.259098 0.000000 0.118779
v 0.420902 0.000000 0.001221
v 0.340000 1.640000 0.060000
vn 0.5878 -0.0000 0.8090
vt 0.000000 0.000000
vt 1.000000 0.000000
vt 0.000000 1.000000
s 0
f 19/19/7 20/20/7 21/21/7
o Plane.008
v 0.229289 0.000000 0.360711
v 0.370711 0.000000 0.219289
v 0.300000 1.340000 0.290000
vn 0.7071 -0.0000 0.7071
vt 0.000000 0.000000
vt 1.000000 0.000000
vt 0.000000 1.000000
s 0
f 22/22/8 23/23/8 24/24/8
o Plane.009
v 0.416604 0.000000 0.614279
v 0.263396 0.000000 0.485721
v 0.340000 1.800000 0.550000
vn 0.6428 -0.0000 -0.7660
vt 0.000000 0.000000
vt 1.000000 0.000000
vt 0.000000 1.000000
s 0
f 25/25/9 26/26/9 27/27/9
o Plane.010
v -0.189326 0.000000 0.271355
v -0.270674 0.000000 0.088645
v -0.230000 1.560000 0.180000
vn 0.9135 -0.0000 -0.4067
vt 0.000000 0.000000
vt 1.000000 0.000000
vt 0.000000 1.000000
s 0
f 28/28/10 29/29/10 30/30/10
o Plane.011
v -0.182718 0.000000 0.487461
v 0.002718 0.000000 0.412539
v -0.090000 2.240000 0.450000
vn 0.3746 -0.0000 0.9272
vt 0.000000 0.000000
vt 1.000000 0.000000
vt 0.000000 1.000000
s 0
f 31/31/11 32/32/11 33/33/11
o Plane.012
v -0.100000 0.000000 -0.030000
v 0.100000 0.000000 -0.030000
v 0.000000 2.000000 -0.030000
vn -0.0000 -0.0000 1.0000
vt 0.000000 0.000000
vt 1.000000 0.000000
vt 0.000000 1.000000
s 0
f 34/34/12 35/35/12 36/36/12
