# Blender 4.1.1
# www.blender.org
mtllib grass2.mtl
o Plane
v -0.034460 0.000082 -0.022400
v 0.028853 0.000082 -0.022400
v -0.002803 1.986172 -0.136809
v -0.066116 1.335750 -0.062569
v -0.078779 0.672081 -0.024030
v 0.073172 0.672081 -0.024030
v 0.060510 1.335750 -0.062569
v -0.251885 0.000142 0.151447
v -0.226244 0.000142 0.209335
v -0.134458 1.533247 0.134057
v -0.227978 1.031173 0.106235
v -0.268343 0.518872 0.110265
v -0.206805 0.518872 0.249197
v -0.176696 1.031173 0.222011
v 0.380368 0.000506 0.061909
v 0.328140 0.000506 0.097697
v 0.418924 1.618297 0.174181
v 0.429187 1.088489 0.077151
v 0.417848 0.547890 0.038202
v 0.292502 0.547890 0.124093
v 0.324732 1.088489 0.148727
v -0.139940 0.000022 -0.413191
v -0.168250 0.000022 -0.356559
v -0.051760 1.215566 -0.333719
v -0.089856 0.817489 -0.423545
v -0.118665 0.411304 -0.452103
v -0.186608 0.411304 -0.316189
v -0.146475 0.817489 -0.310283
v 0.362788 0.000073 0.564706
v 0.313747 0.000073 0.524662
v 0.265907 1.763604 0.633303
v 0.361903 1.186068 0.615842
v 0.396086 0.596768 0.593999
v 0.278387 0.596768 0.497895
v 0.263821 1.186068 0.535755
v 0.407209 0.000335 -0.522377
v 0.440025 0.000335 -0.468233
v 0.521458 1.805174 -0.554605
v 0.425154 1.214110 -0.570270
v 0.385632 0.611007 -0.561124
v 0.464390 0.611007 -0.431177
v 0.490785 1.214110 -0.461981
v -0.572457 -0.000172 -0.369487
v -0.532197 -0.000172 -0.418351
v -0.640626 1.330959 -0.466669
v -0.623589 0.895029 -0.370598
v -0.601897 0.450220 -0.336319
v -0.505274 0.450220 -0.453592
v -0.543070 0.895029 -0.468325
v 0.282057 -0.000289 0.323377
v 0.326884 -0.000289 0.278667
v 0.223676 1.273473 0.220018
v 0.231276 0.856331 0.317292
v 0.249526 0.430692 0.353520
v 0.357111 0.430692 0.246215
v 0.320930 0.856331 0.227870
v 0.056562 -0.000335 -0.806169
v -0.001988 -0.000335 -0.830260
v -0.016245 2.149457 -0.712411
v 0.070553 1.445425 -0.756976
v 0.096927 0.727052 -0.787798
v -0.043594 0.727052 -0.845615
v -0.046548 1.445425 -0.805157
v -0.115670 0.000091 0.465185
v -0.057181 0.000091 0.440946
v -0.130225 2.199606 0.347373
v -0.160293 1.479290 0.440195
v -0.157237 0.744303 0.480646
v -0.016862 0.744303 0.422473
v -0.043314 1.479290 0.391718
v 0.646648 0.000084 -0.240422
v 0.624018 0.000084 -0.181291
v 0.742184 2.013402 -0.169964
v 0.695478 1.354064 -0.255630
v 0.664011 0.681295 -0.281230
v 0.609700 0.681295 -0.139317
v 0.650219 1.354064 -0.137368
v -0.463966 0.000060 0.124829
v -0.486843 0.000060 0.065794
v -0.582083 1.434221 0.136652
v -0.489982 0.964549 0.168861
v -0.449472 0.485312 0.166743
v -0.504377 0.485312 0.025059
v -0.535737 0.964549 0.050791
vn -0.0000 0.1134 0.9935
vn -0.0000 0.0024 1.0000
vn -0.0000 0.0580 0.9983
vn -0.9045 0.1463 0.4006
vn -0.9143 0.0031 0.4050
vn -0.9117 0.0750 0.4038
vn -0.5598 0.1388 -0.8169
vn -0.5653 0.0030 -0.8249
vn -0.5638 0.0711 -0.8228
vn -0.8793 0.1833 -0.4396
vn -0.8945 0.0040 -0.4471
vn -0.8905 0.0945 -0.4451
vn 0.6273 0.1275 -0.7683
vn 0.6325 0.0027 -0.7746
vn 0.6311 0.0653 -0.7729
vn -0.8485 0.1246 0.5143
vn -0.8552 0.0027 0.5183
vn -0.8535 0.0638 0.5173
vn 0.7608 0.1679 0.6269
vn 0.7718 0.0036 0.6359
vn 0.7689 0.0863 0.6335
vn 0.6953 0.1752 0.6971
vn 0.7062 0.0038 0.7080
vn 0.7033 0.0902 0.7051
vn 0.3784 0.1049 -0.9197
vn 0.3805 0.0022 -0.9248
vn 0.3800 0.0536 -0.9235
vn 0.3808 0.1025 0.9189
vn 0.3828 0.0022 0.9238
vn 0.3823 0.0524 0.9225
vn -0.9281 0.1119 -0.3552
vn -0.9339 0.0024 -0.3574
vn -0.9324 0.0572 -0.3568
vn 0.9210 0.1561 -0.3569
vn 0.9324 0.0034 -0.3613
vn 0.9294 0.0802 -0.3602
vt 0.219938 0.606847
vt 0.277317 0.605754
vt 0.254278 0.902947
vt 0.222745 0.000821
vt 0.251434 0.000275
vt 0.277317 0.304403
vt 0.208462 0.305714
vt 0.485943 0.467430
vt 0.543280 0.468844
vt 0.508947 0.697949
vt 0.511800 0.000275
vt 0.540468 0.000981
vt 0.554747 0.236359
vt 0.485943 0.234663
vt 0.416591 0.493195
vt 0.473927 0.494535
vt 0.439599 0.736103
vt 0.442449 0.000275
vt 0.471117 0.000945
vt 0.485394 0.249267
vt 0.416591 0.247660
vt 0.774511 0.371387
vt 0.831662 0.369613
vt 0.808758 0.553267
vt 0.777322 0.001162
vt 0.805898 0.000275
vt 0.831662 0.185284
vt 0.763080 0.187413
vt 0.358717 0.538680
vt 0.416041 0.537451
vt 0.393031 0.801673
vt 0.361523 0.000889
vt 0.390186 0.000275
vt 0.416041 0.269976
vt 0.347252 0.271451
vt 0.289339 0.551588
vt 0.346702 0.550386
vt 0.323675 0.820850
vt 0.292147 0.000876
vt 0.320829 0.000275
vt 0.346702 0.276497
vt 0.277867 0.277939
vt 0.636078 0.406830
vt 0.693306 0.405207
vt 0.670360 0.605873
vt 0.638889 0.001086
vt 0.667503 0.000275
vt 0.693306 0.203261
vt 0.624632 0.205209
vt 0.705302 0.389489
vt 0.762531 0.387793
vt 0.739590 0.580133
vt 0.708115 0.001123
vt 0.736729 0.000275
vt 0.762531 0.194467
vt 0.693856 0.196502
vt 0.069702 0.655447
vt 0.127066 0.656457
vt 0.092739 0.976660
vt 0.095579 0.000275
vt 0.124261 0.000780
vt 0.138539 0.330654
vt 0.069702 0.329442
vt 0.011754 0.671978
vt 0.069152 0.670991
vt 0.046101 0.999725
vt 0.014560 0.000769
vt 0.043259 0.000275
vt 0.069152 0.337273
vt 0.000275 0.338458
vt 0.150559 0.614850
vt 0.207912 0.613772
vt 0.184883 0.914836
vt 0.153364 0.000814
vt 0.182041 0.000275
vt 0.207912 0.308444
vt 0.139088 0.309737
vt 0.566761 0.438720
vt 0.624083 0.437210
vt 0.601091 0.653219
vt 0.569574 0.001030
vt 0.598234 0.000275
vt 0.624083 0.219415
vt 0.555297 0.221226
s 0
f 4/1/1 7/2/1 3/3/1
f 1/4/2 2/5/2 6/6/2 5/7/2
f 5/7/3 6/6/3 7/2/3 4/1/3
f 11/8/4 14/9/4 10/10/4
f 8/11/5 9/12/5 13/13/5 12/14/5
f 12/14/6 13/13/6 14/9/6 11/8/6
f 18/15/7 21/16/7 17/17/7
f 15/18/8 16/19/8 20/20/8 19/21/8
f 19/21/9 20/20/9 21/16/9 18/15/9
f 25/22/10 28/23/10 24/24/10
f 22/25/11 23/26/11 27/27/11 26/28/11
f 26/28/12 27/27/12 28/23/12 25/22/12
f 32/29/13 35/30/13 31/31/13
f 29/32/14 30/33/14 34/34/14 33/35/14
f 33/35/15 34/34/15 35/30/15 32/29/15
f 39/36/16 42/37/16 38/38/16
f 36/39/17 37/40/17 41/41/17 40/42/17
f 40/42/18 41/41/18 42/37/18 39/36/18
f 46/43/19 49/44/19 45/45/19
f 43/46/20 44/47/20 48/48/20 47/49/20
f 47/49/21 48/48/21 49/44/21 46/43/21
f 53/50/22 56/51/22 52/52/22
f 50/53/23 51/54/23 55/55/23 54/56/23
f 54/56/24 55/55/24 56/51/24 53/50/24
f 60/57/25 63/58/25 59/59/25
f 57/60/26 58/61/26 62/62/26 61/63/26
f 61/63/27 62/62/27 63/58/27 60/57/27
f 67/64/28 70/65/28 66/66/28
f 64/67/29 65/68/29 69/69/29 68/70/29
f 68/70/30 69/69/30 70/65/30 67/64/30
f 74/71/31 77/72/31 73/73/31
f 71/74/32 72/75/32 76/76/32 75/77/32
f 75/77/33 76/76/33 77/72/33 74/71/33
f 81/78/34 84/79/34 80/80/34
f 78/81/35 79/82/35 83/83/35 82/84/35
f 82/84/36 83/83/36 84/79/36 81/78/36
